{
	"asset": {
		"generator": "Unity 2018.3.11f1",
		"extras": {
			"exporterVersion" : "2.2.1"
		},
		"version": "2.0"
	},
	"accessors": [
		{
			"bufferView": 3,
			"byteOffset": 0,
			"componentType": 5126,
			"count": 60,
			"max": [ 0.005759563, 0.01680243, 0.01638116 ],
			"min": [ -0.005759563, -0.01680243, -0.01638116 ],
			"type": "VEC3"
		},
		{
			"bufferView": 3,
			"byteOffset": 720,
			"componentType": 5126,
			"count": 60,
			"max": [ 1, 1, 0.9749279 ],
			"min": [ -1, -1, -0.9749281 ],
			"type": "VEC3"
		},
		{
			"bufferView": 2,
			"byteOffset": 0,
			"componentType": 5126,
			"count": 60,
			"max": [ 0.3575006, 0.2056934 ],
			"min": [ 0.01177341, 0.004982471 ],
			"type": "VEC2"
		},
		{
			"bufferView": 4,
			"byteOffset": 0,
			"componentType": 5126,
			"count": 60,
			"max": [ 0.013571, 0.9749278, 1, -1 ],
			"min": [ -0.006081099, -0.9749281, -1, -1 ],
			"type": "VEC4"
		},
		{
			"bufferView": 0,
			"byteOffset": 0,
			"componentType": 5123,
			"count": 168,
			"max": [ 59 ],
			"min": [ 0 ],
			"type": "SCALAR"
		},
		{
			"bufferView": 3,
			"byteOffset": 1440,
			"componentType": 5126,
			"count": 60,
			"max": [ 0.005759563, 0.01680243, 0.01638116 ],
			"min": [ -0.005759563, -0.01680243, -0.01638116 ],
			"type": "VEC3"
		},
		{
			"bufferView": 3,
			"byteOffset": 2160,
			"componentType": 5126,
			"count": 60,
			"max": [ 1, 1, 0.9749279 ],
			"min": [ -1, -1, -0.9749279 ],
			"type": "VEC3"
		},
		{
			"bufferView": 2,
			"byteOffset": 480,
			"componentType": 5126,
			"count": 60,
			"max": [ 0.3575006, 0.2056934 ],
			"min": [ 0.01177341, 0.004982471 ],
			"type": "VEC2"
		},
		{
			"bufferView": 4,
			"byteOffset": 960,
			"componentType": 5126,
			"count": 60,
			"max": [ 0.013571, 0.9749278, 1, -1 ],
			"min": [ -0.006081099, -0.9749278, -1, -1 ],
			"type": "VEC4"
		},
		{
			"bufferView": 0,
			"byteOffset": 336,
			"componentType": 5123,
			"count": 168,
			"max": [ 59 ],
			"min": [ 0 ],
			"type": "SCALAR"
		},
		{
			"bufferView": 3,
			"byteOffset": 2880,
			"componentType": 5126,
			"count": 60,
			"max": [ 0.005759563, 0.01680243, 0.01638117 ],
			"min": [ -0.005759563, -0.01680243, -0.01638117 ],
			"type": "VEC3"
		},
		{
			"bufferView": 3,
			"byteOffset": 3600,
			"componentType": 5126,
			"count": 60,
			"max": [ 1, 1, 0.9749279 ],
			"min": [ -1, -1, -0.974928 ],
			"type": "VEC3"
		},
		{
			"bufferView": 2,
			"byteOffset": 960,
			"componentType": 5126,
			"count": 60,
			"max": [ 0.3575006, 0.2056934 ],
			"min": [ 0.01177341, 0.004982471 ],
			"type": "VEC2"
		},
		{
			"bufferView": 4,
			"byteOffset": 1920,
			"componentType": 5126,
			"count": 60,
			"max": [ 0.013571, 0.9749278, 1, -1 ],
			"min": [ -0.006081099, -0.974928, -1, -1 ],
			"type": "VEC4"
		},
		{
			"bufferView": 0,
			"byteOffset": 672,
			"componentType": 5123,
			"count": 168,
			"max": [ 59 ],
			"min": [ 0 ],
			"type": "SCALAR"
		},
		{
			"bufferView": 3,
			"byteOffset": 4320,
			"componentType": 5126,
			"count": 60,
			"max": [ 0.005759563, 0.01680243, 0.01638117 ],
			"min": [ -0.005759563, -0.01680243, -0.01638117 ],
			"type": "VEC3"
		},
		{
			"bufferView": 3,
			"byteOffset": 5040,
			"componentType": 5126,
			"count": 60,
			"max": [ 1, 1, 0.9749281 ],
			"min": [ -1, -1, -0.9749277 ],
			"type": "VEC3"
		},
		{
			"bufferView": 2,
			"byteOffset": 1440,
			"componentType": 5126,
			"count": 60,
			"max": [ 0.3575006, 0.2056934 ],
			"min": [ 0.01177341, 0.004982471 ],
			"type": "VEC2"
		},
		{
			"bufferView": 4,
			"byteOffset": 2880,
			"componentType": 5126,
			"count": 60,
			"max": [ 0.013571, 0.9749281, 1, -1 ],
			"min": [ -0.006081101, -0.9749277, -1, -1 ],
			"type": "VEC4"
		},
		{
			"bufferView": 0,
			"byteOffset": 1008,
			"componentType": 5123,
			"count": 168,
			"max": [ 59 ],
			"min": [ 0 ],
			"type": "SCALAR"
		},
		{
			"bufferView": 3,
			"byteOffset": 5760,
			"componentType": 5126,
			"count": 214,
			"max": [ 0.03987609, 0.03265438, 0.06490888 ],
			"min": [ -0.03987609, -0.03265438, -0.06490888 ],
			"type": "VEC3"
		},
		{
			"bufferView": 3,
			"byteOffset": 8328,
			"componentType": 5126,
			"count": 214,
			"max": [ 0.9994854, 0.9998415, 0.9999996 ],
			"min": [ -0.9994868, -1, -0.9974485 ],
			"type": "VEC3"
		},
		{
			"bufferView": 2,
			"byteOffset": 1920,
			"componentType": 5126,
			"count": 214,
			"max": [ 0.9930481, 0.9886649 ],
			"min": [ 0.008814871, 0.007176876 ],
			"type": "VEC2"
		},
		{
			"bufferView": 4,
			"byteOffset": 3840,
			"componentType": 5126,
			"count": 214,
			"max": [ 1, 0.9148163, 0.9998031, 1 ],
			"min": [ -1, -0.9148168, -0.999997, -1 ],
			"type": "VEC4"
		},
		{
			"bufferView": 0,
			"byteOffset": 1344,
			"componentType": 5123,
			"count": 678,
			"max": [ 213 ],
			"min": [ 0 ],
			"type": "SCALAR"
		},
		{
			"bufferView": 3,
			"byteOffset": 10896,
			"componentType": 5126,
			"count": 235,
			"max": [ 0.04021854, 0.01651607, 0.0614409 ],
			"min": [ -0.04021854, -0.01651607, -0.0614409 ],
			"type": "VEC3"
		},
		{
			"bufferView": 3,
			"byteOffset": 13716,
			"componentType": 5126,
			"count": 235,
			"max": [ 0.9746349, 0.9032389, 0.9998789 ],
			"min": [ -0.9749829, -0.9999932, -0.9998636 ],
			"type": "VEC3"
		},
		{
			"bufferView": 2,
			"byteOffset": 3632,
			"componentType": 5126,
			"count": 235,
			"max": [ 0.6705228, 0.7582099 ],
			"min": [ 0.004417121, 0.02036285 ],
			"type": "VEC2"
		},
		{
			"bufferView": 4,
			"byteOffset": 7264,
			"componentType": 5126,
			"count": 235,
			"max": [ 0.999819, 0.9961378, 0.8186848, 1 ],
			"min": [ -0.9998537, -0.9893541, -0.6848071, -1 ],
			"type": "VEC4"
		},
		{
			"bufferView": 0,
			"byteOffset": 2700,
			"componentType": 5123,
			"count": 864,
			"max": [ 234 ],
			"min": [ 0 ],
			"type": "SCALAR"
		},
		{
			"bufferView": 3,
			"byteOffset": 16536,
			"componentType": 5126,
			"count": 472,
			"max": [ 0.0004427518, 0.0003305926, 0.005098408 ],
			"min": [ -0.0004427517, -0.0003305926, -0.005238351 ],
			"type": "VEC3"
		},
		{
			"bufferView": 3,
			"byteOffset": 22200,
			"componentType": 5126,
			"count": 472,
			"max": [ 1, 1, 1 ],
			"min": [ -1, -1, -1 ],
			"type": "VEC3"
		},
		{
			"bufferView": 4,
			"byteOffset": 11024,
			"componentType": 5126,
			"count": 472,
			"max": [ 1, 0, 0, 1 ],
			"min": [ 1, 0, 0, 1 ],
			"type": "VEC4"
		},
		{
			"bufferView": 0,
			"byteOffset": 4428,
			"componentType": 5123,
			"count": 828,
			"max": [ 471 ],
			"min": [ 0 ],
			"type": "SCALAR"
		},
		{
			"bufferView": 1,
			"byteOffset": 0,
			"componentType": 5126,
			"count": 30,
			"max": [ 0.9666667 ],
			"min": [ 0 ],
			"type": "SCALAR"
		},
		{
			"bufferView": 5,
			"byteOffset": 0,
			"componentType": 5126,
			"count": 30,
			"max": [ -0.057, 0.015, -0.618 ],
			"min": [ -0.057, 0.015, -0.618 ],
			"type": "VEC3"
		},
		{
			"bufferView": 6,
			"byteOffset": 0,
			"componentType": 5126,
			"count": 30,
			"max": [ 0, 0.9995769, 0, 0.9995769 ],
			"min": [ 0, -0.7071067, 0, -0.6998298 ],
			"type": "VEC4"
		},
		{
			"bufferView": 5,
			"byteOffset": 360,
			"componentType": 5126,
			"count": 30,
			"max": [ 1, 1, 1 ],
			"min": [ 1, 1, 1 ],
			"type": "VEC3"
		},
		{
			"bufferView": 3,
			"byteOffset": 27864,
			"componentType": 5126,
			"count": 294,
			"max": [ 0.06128614, 0.01106413, 0.2620428 ],
			"min": [ -0.06609306, -0.01486917, -0.326288 ],
			"type": "VEC3"
		},
		{
			"bufferView": 3,
			"byteOffset": 31392,
			"componentType": 5126,
			"count": 294,
			"max": [ 1, 1, 0.9791701 ],
			"min": [ -1, -1, -0.9921722 ],
			"type": "VEC3"
		},
		{
			"bufferView": 4,
			"byteOffset": 18576,
			"componentType": 5126,
			"count": 294,
			"max": [ 1, 0, 0, 1 ],
			"min": [ 1, 0, 0, 1 ],
			"type": "VEC4"
		},
		{
			"bufferView": 0,
			"byteOffset": 6084,
			"componentType": 5123,
			"count": 588,
			"max": [ 293 ],
			"min": [ 0 ],
			"type": "SCALAR"
		},
		{
			"bufferView": 3,
			"byteOffset": 34920,
			"componentType": 5126,
			"count": 216,
			"max": [ 0.001904166, 0.0007896661, -0.003627037 ],
			"min": [ -0.001904166, -0.0007896649, -0.005138501 ],
			"type": "VEC3"
		},
		{
			"bufferView": 3,
			"byteOffset": 37512,
			"componentType": 5126,
			"count": 216,
			"max": [ 1, 1, 1 ],
			"min": [ -1, -1, -1 ],
			"type": "VEC3"
		},
		{
			"bufferView": 4,
			"byteOffset": 23280,
			"componentType": 5126,
			"count": 216,
			"max": [ 1, 0, 0, 1 ],
			"min": [ 1, 0, 0, 1 ],
			"type": "VEC4"
		},
		{
			"bufferView": 0,
			"byteOffset": 7260,
			"componentType": 5123,
			"count": 324,
			"max": [ 215 ],
			"min": [ 0 ],
			"type": "SCALAR"
		}
	],
	"animations": [
		{
			"name": "",
			"channels": [
				{
					"sampler": 0,
					"target": {
						"node": 9,
						"path": "translation"
					}
				},
				{
					"sampler": 1,
					"target": {
						"node": 9,
						"path": "rotation"
					}
				},
				{
					"sampler": 2,
					"target": {
						"node": 9,
						"path": "scale"
					}
				}
			],
			"samplers": [
				{
					"input": 34,
					"interpolation": "LINEAR",
					"output": 35
				},
				{
					"input": 34,
					"interpolation": "LINEAR",
					"output": 36
				},
				{
					"input": 34,
					"interpolation": "LINEAR",
					"output": 37
				}
			]
		}
	],
	"buffers": [
		{
			"byteLength": 81580,
			"uri": "汽车维修.bin"
		}
	],
	"bufferViews": [
		{
			"buffer": 0,
			"byteLength": 7908,
			"target": 34963,
			"byteOffset": 72472
		},
		{
			"buffer": 0,
			"byteLength": 120,
			"byteOffset": 0
		},
		{
			"buffer": 0,
			"byteLength": 5512,
			"target": 34962,
			"byteStride": 8,
			"byteOffset": 120
		},
		{
			"buffer": 0,
			"byteLength": 40104,
			"target": 34962,
			"byteStride": 12,
			"byteOffset": 5632
		},
		{
			"buffer": 0,
			"byteLength": 26736,
			"target": 34962,
			"byteStride": 16,
			"byteOffset": 45736
		},
		{
			"buffer": 0,
			"byteLength": 720,
			"byteStride": 12,
			"byteOffset": 80380
		},
		{
			"buffer": 0,
			"byteLength": 480,
			"byteStride": 16,
			"byteOffset": 81100
		}
	],
	"images": [
		{
			"uri": "/Assets/Assets/Vehicles/Jeep/Final_Jeep/Textures/jeep-texture6.jpg"
		}
	],
	"materials": [
		{
			"pbrMetallicRoughness": {
				"baseColorTexture" : {
					"index" : 0,
					"texCoord" : 0
				},
				"baseColorFactor": [1, 1, 1, 1],
				"metallicFactor": 0,
				"roughnessFactor": 0.5
			},
			"emissiveFactor": [0, 0, 0],
			"doubleSided": false,
			"name": "jeep texture5"
		},
		{
			"pbrMetallicRoughness": {
				"baseColorFactor": [0.4870137, 0.2288468, 0.08465439, 1],
				"metallicFactor": 0,
				"roughnessFactor": 1
			},
			"emissiveFactor": [0, 0, 0],
			"doubleSided": false,
			"name": "Hammer_02_Wood"
		},
		{
			"pbrMetallicRoughness": {
				"baseColorFactor": [0.4783661, 0.4783661, 0.4783661, 1],
				"metallicFactor": 0,
				"roughnessFactor": 0.5
			},
			"emissiveFactor": [0, 0, 0],
			"doubleSided": false,
			"name": "Wrench_Combination_Metal"
		},
		{
			"pbrMetallicRoughness": {
				"baseColorFactor": [0.1881088, 0.1881088, 0.1881088, 1],
				"metallicFactor": 0,
				"roughnessFactor": 0.5
			},
			"emissiveFactor": [0, 0, 0],
			"doubleSided": false,
			"name": "Hammer_02_Metal"
		}
	],
	"meshes": [
		{
			"name": "mesh_back_rhs_wheel1_13170back_rhs_wheel1",
			"primitives": [
				{
					"attributes": {
						"POSITION": 0,
						"NORMAL": 1,
						"TEXCOORD_0": 2,
						"TANGENT": 3
					},
					"indices": 4,
					"material": 0,
					"mode": 4
				}
			]
		},
		{
			"name": "mesh_back_lhs_wheel1_13168back_lhs_wheel1",
			"primitives": [
				{
					"attributes": {
						"POSITION": 5,
						"NORMAL": 6,
						"TEXCOORD_0": 7,
						"TANGENT": 8
					},
					"indices": 9,
					"material": 0,
					"mode": 4
				}
			]
		},
		{
			"name": "mesh_front_lhs_wheel1_13172front_lhs_wheel1",
			"primitives": [
				{
					"attributes": {
						"POSITION": 10,
						"NORMAL": 11,
						"TEXCOORD_0": 12,
						"TANGENT": 13
					},
					"indices": 14,
					"material": 0,
					"mode": 4
				}
			]
		},
		{
			"name": "mesh_front_rhs__wheel1_13174front_rhs__wheel1",
			"primitives": [
				{
					"attributes": {
						"POSITION": 15,
						"NORMAL": 16,
						"TEXCOORD_0": 17,
						"TANGENT": 18
					},
					"indices": 19,
					"material": 0,
					"mode": 4
				}
			]
		},
		{
			"name": "mesh_JEEP_BODY_13176JEEP_BODY",
			"primitives": [
				{
					"attributes": {
						"POSITION": 20,
						"NORMAL": 21,
						"TEXCOORD_0": 22,
						"TANGENT": 23
					},
					"indices": 24,
					"material": 0,
					"mode": 4
				}
			]
		},
		{
			"name": "mesh_side_object_13178side_object",
			"primitives": [
				{
					"attributes": {
						"POSITION": 25,
						"NORMAL": 26,
						"TEXCOORD_0": 27,
						"TANGENT": 28
					},
					"indices": 29,
					"material": 0,
					"mode": 4
				}
			]
		},
		{
			"name": "mesh_Hammer_02_Handle_18802Hammer_02_Handle",
			"primitives": [
				{
					"attributes": {
						"POSITION": 30,
						"NORMAL": 31,
						"TANGENT": 32
					},
					"indices": 33,
					"material": 1,
					"mode": 4
				}
			]
		},
		{
			"name": "mesh_Wrench_Combination_18986Wrench_Combination",
			"primitives": [
				{
					"attributes": {
						"POSITION": 38,
						"NORMAL": 39,
						"TANGENT": 40
					},
					"indices": 41,
					"material": 2,
					"mode": 4
				}
			]
		},
		{
			"name": "mesh_Hammer_02_Top_18800Hammer_02_Top",
			"primitives": [
				{
					"attributes": {
						"POSITION": 42,
						"NORMAL": 43,
						"TANGENT": 44
					},
					"indices": 45,
					"material": 3,
					"mode": 4
				}
			]
		}
	],
	"nodes": [
		{
			"name": "UnityGlTF_root",
			"children": [
				9
			]
		},
		{
			"name": "node_back_rhs_wheel1_-43296",
			"mesh": 0,
			"translation": [ -0.03383827, -0.02319936, 0.04177275]
		},
		{
			"name": "node_back_lhs_wheel1_-43294",
			"mesh": 1,
			"translation": [ 0.03401184, -0.02319936, 0.04177275]
		},
		{
			"name": "node_front_lhs_wheel1_-43298",
			"mesh": 2,
			"translation": [ 0.03054977, -0.02319936, -0.03970756]
		},
		{
			"name": "node_front_rhs__wheel1_-43300",
			"mesh": 3,
			"translation": [ -0.0328743, -0.02319936, -0.03970756]
		},
		{
			"name": "node_JEEP_BODY_-43302",
			"mesh": 4,
			"translation": [ -1.502504E-09, 0.007347411, 0]
		},
		{
			"name": "node_side_object_-43304",
			"mesh": 5,
			"translation": [ 0, -0.01142971, 0.001817247]
		},
		{
			"name": "node_Hammer_02_Handle_-43288",
			"mesh": 6,
			"scale": [ 100, 100, 100]
		},
		{
			"name": "node_Hammer_02_-43278",
			"children": [
				7,
				12
			],
			"translation": [ 0.02514744, 0.1114273, -0.003],
			"scale": [ 0.1, 0.1000001, 0.1000001],
			"rotation": [-0.224007, 0.6470981, -0.6816538, 0.2577462]
		},
		{
			"name": "node__-43274",
			"children": [
				8,
				10,
				11
			],
			"matrix": [-1.192093E-07, 0, 1, 0, 0, 1, 0, 0, -1, 0, -1.192093E-07, 0, -0.057, 0.015, -0.618, 1]
		},
		{
			"name": "node_Wrench_Combination_-43280",
			"mesh": 7,
			"translation": [ 0.0136, 0.1103, -0.01],
			"scale": [ 0.2000001, 0.2000001, 0.2000001],
			"rotation": [0.3115016, 0.7133154, -0.570717, -0.2615916]
		},
		{
			"name": "node_jeep_-43282",
			"children": [
				2,
				1,
				3,
				4,
				5,
				6
			],
			"translation": [ 0.02141527, 0.02648392, 0.001245626]
		},
		{
			"name": "node_Hammer_02_Top_-43290",
			"mesh": 8,
			"scale": [ 100, 100, 100]
		}
	],
	"samplers": [
		{
			"magFilter": 9729,
			"minFilter": 9985,
			"wrapS": 10497,
			"wrapT": 10497
		}
	],
	"scenes": [
		{
			"name":"defaultScene",
			"nodes": [
				0
			]
		}
	],
	"scene": 0,
	"textures": [
		{
			"sampler": 0,
			"source": 0
		}
	]
}