{
	"asset": {
		"generator": "Unity 2018.3.11f1",
		"extras": {
			"exporterVersion" : "2.2.1"
		},
		"version": "2.0"
	},
	"accessors": [
		{
			"bufferView": 3,
			"byteOffset": 0,
			"componentType": 5126,
			"count": 339,
			"max": [ 0.3490372, 0.1452051, -0.3515705 ],
			"min": [ -0.3549158, -0.3349103, -0.7498378 ],
			"type": "VEC3"
		},
		{
			"bufferView": 3,
			"byteOffset": 4068,
			"componentType": 5126,
			"count": 339,
			"max": [ 0.9969411, 0.7737555, 0.6321614 ],
			"min": [ -0.9917516, -0.7759036, -0.8188316 ],
			"type": "VEC3"
		},
		{
			"bufferView": 2,
			"byteOffset": 0,
			"componentType": 5126,
			"count": 339,
			"max": [ 0.8493263, 0.8285476 ],
			"min": [ 0.1564593, 0.3209873 ],
			"type": "VEC2"
		},
		{
			"bufferView": 4,
			"byteOffset": 0,
			"componentType": 5126,
			"count": 339,
			"max": [ 1, 0.0238732, 0.03195831, 1 ],
			"min": [ -1, -0.00925163, -0.01142328, 1 ],
			"type": "VEC4"
		},
		{
			"bufferView": 0,
			"byteOffset": 0,
			"componentType": 5123,
			"count": 615,
			"max": [ 338 ],
			"min": [ 0 ],
			"type": "SCALAR"
		},
		{
			"bufferView": 1,
			"byteOffset": 0,
			"componentType": 5126,
			"count": 30,
			"max": [ 0.9666667 ],
			"min": [ 0 ],
			"type": "SCALAR"
		},
		{
			"bufferView": 5,
			"byteOffset": 0,
			"componentType": 5126,
			"count": 30,
			"max": [ 0.187, -0.4220587, -0.745 ],
			"min": [ 0.187, -0.44, -1.006146 ],
			"type": "VEC3"
		},
		{
			"bufferView": 6,
			"byteOffset": 0,
			"componentType": 5126,
			"count": 30,
			"max": [ -0.9003847, 0, 0, -0.4350947 ],
			"min": [ -0.9003847, 0, 0, -0.4350947 ],
			"type": "VEC4"
		},
		{
			"bufferView": 5,
			"byteOffset": 360,
			"componentType": 5126,
			"count": 30,
			"max": [ 1, 1, 1 ],
			"min": [ 1, 1, 1 ],
			"type": "VEC3"
		},
		{
			"bufferView": 3,
			"byteOffset": 8136,
			"componentType": 5126,
			"count": 312,
			"max": [ 0.3239942, -0.2688199, -0.1091559 ],
			"min": [ -0.3544705, -0.6217932, -0.3758208 ],
			"type": "VEC3"
		},
		{
			"bufferView": 3,
			"byteOffset": 11880,
			"componentType": 5126,
			"count": 312,
			"max": [ 0.9999849, 0.8123299, 0.5808326 ],
			"min": [ -0.9997085, -0.8140227, -0.9956066 ],
			"type": "VEC3"
		},
		{
			"bufferView": 2,
			"byteOffset": 2712,
			"componentType": 5126,
			"count": 312,
			"max": [ 0.8488882, 0.3654526 ],
			"min": [ 0.1811232, 0 ],
			"type": "VEC2"
		},
		{
			"bufferView": 4,
			"byteOffset": 5424,
			"componentType": 5126,
			"count": 312,
			"max": [ 1, 0.8352671, 0.4514373, 1 ],
			"min": [ -1, -0.01210498, -0.9887972, -1 ],
			"type": "VEC4"
		},
		{
			"bufferView": 0,
			"byteOffset": 1230,
			"componentType": 5123,
			"count": 552,
			"max": [ 311 ],
			"min": [ 0 ],
			"type": "SCALAR"
		},
		{
			"bufferView": 3,
			"byteOffset": 15624,
			"componentType": 5126,
			"count": 339,
			"max": [ 0.3490372, 0.1452051, -0.3515705 ],
			"min": [ -0.3549158, -0.3349103, -0.7498378 ],
			"type": "VEC3"
		},
		{
			"bufferView": 3,
			"byteOffset": 19692,
			"componentType": 5126,
			"count": 339,
			"max": [ 0.9969411, 0.7737555, 0.6321614 ],
			"min": [ -0.9917516, -0.7759036, -0.8188316 ],
			"type": "VEC3"
		},
		{
			"bufferView": 2,
			"byteOffset": 5208,
			"componentType": 5126,
			"count": 339,
			"max": [ 0.8493263, 0.8285476 ],
			"min": [ 0.1564593, 0.3209873 ],
			"type": "VEC2"
		},
		{
			"bufferView": 4,
			"byteOffset": 10416,
			"componentType": 5126,
			"count": 339,
			"max": [ 1, 0.0238732, 0.03195831, 1 ],
			"min": [ -1, -0.00925163, -0.01142328, 1 ],
			"type": "VEC4"
		},
		{
			"bufferView": 0,
			"byteOffset": 2334,
			"componentType": 5123,
			"count": 615,
			"max": [ 338 ],
			"min": [ 0 ],
			"type": "SCALAR"
		},
		{
			"bufferView": 1,
			"byteOffset": 120,
			"componentType": 5126,
			"count": 30,
			"max": [ 0.9666667 ],
			"min": [ 0 ],
			"type": "SCALAR"
		},
		{
			"bufferView": 5,
			"byteOffset": 720,
			"componentType": 5126,
			"count": 30,
			"max": [ 0.233, -0.046, -0.104 ],
			"min": [ 0.233, -0.3141232, -0.4119928 ],
			"type": "VEC3"
		},
		{
			"bufferView": 6,
			"byteOffset": 480,
			"componentType": 5126,
			"count": 30,
			"max": [ -0.7071068, 0, 0, -0.7071068 ],
			"min": [ -0.7071068, 0, 0, -0.7071068 ],
			"type": "VEC4"
		},
		{
			"bufferView": 5,
			"byteOffset": 1080,
			"componentType": 5126,
			"count": 30,
			"max": [ 1, 1, 1 ],
			"min": [ 1, 1, 1 ],
			"type": "VEC3"
		},
		{
			"bufferView": 3,
			"byteOffset": 23760,
			"componentType": 5126,
			"count": 738,
			"max": [ 0.508, 0.635, 0.0001080815 ],
			"min": [ -0.508, -0.635, -0.762 ],
			"type": "VEC3"
		},
		{
			"bufferView": 3,
			"byteOffset": 32616,
			"componentType": 5126,
			"count": 738,
			"max": [ 1, 1, 1 ],
			"min": [ -1, -0.7759036, -1 ],
			"type": "VEC3"
		},
		{
			"bufferView": 2,
			"byteOffset": 7920,
			"componentType": 5126,
			"count": 738,
			"max": [ 1, 1 ],
			"min": [ 0, 0 ],
			"type": "VEC2"
		},
		{
			"bufferView": 4,
			"byteOffset": 15840,
			"componentType": 5126,
			"count": 738,
			"max": [ 1, 1, 0.4514391, 1 ],
			"min": [ -1, -1, -0.9887972, -1 ],
			"type": "VEC4"
		},
		{
			"bufferView": 0,
			"byteOffset": 3564,
			"componentType": 5123,
			"count": 597,
			"max": [ 332 ],
			"min": [ 0 ],
			"type": "SCALAR"
		},
		{
			"bufferView": 0,
			"byteOffset": 4758,
			"componentType": 5123,
			"count": 795,
			"max": [ 737 ],
			"min": [ 333 ],
			"type": "SCALAR"
		},
		{
			"bufferView": 3,
			"byteOffset": 41472,
			"componentType": 5126,
			"count": 24,
			"max": [ 0.5, 0.5, 0.5 ],
			"min": [ -0.5, -0.5, -0.5 ],
			"type": "VEC3"
		},
		{
			"bufferView": 3,
			"byteOffset": 41760,
			"componentType": 5126,
			"count": 24,
			"max": [ 1, 1, 1 ],
			"min": [ -1, -1, -1 ],
			"type": "VEC3"
		},
		{
			"bufferView": 2,
			"byteOffset": 13824,
			"componentType": 5126,
			"count": 24,
			"max": [ 1, 1 ],
			"min": [ 0, 0 ],
			"type": "VEC2"
		},
		{
			"bufferView": 2,
			"byteOffset": 14016,
			"componentType": 5126,
			"count": 24,
			"max": [ 0.9966581, 0.6528358 ],
			"min": [ 0.004055766, 0.004055766 ],
			"type": "VEC2"
		},
		{
			"bufferView": 4,
			"byteOffset": 27648,
			"componentType": 5126,
			"count": 24,
			"max": [ 0, 0, 1, 1 ],
			"min": [ -1, 0, -1, 1 ],
			"type": "VEC4"
		},
		{
			"bufferView": 0,
			"byteOffset": 6348,
			"componentType": 5123,
			"count": 36,
			"max": [ 23 ],
			"min": [ 0 ],
			"type": "SCALAR"
		}
	],
	"animations": [
		{
			"name": "001",
			"channels": [
				{
					"sampler": 0,
					"target": {
						"node": 1,
						"path": "translation"
					}
				},
				{
					"sampler": 1,
					"target": {
						"node": 1,
						"path": "rotation"
					}
				},
				{
					"sampler": 2,
					"target": {
						"node": 1,
						"path": "scale"
					}
				}
			],
			"samplers": [
				{
					"input": 5,
					"interpolation": "LINEAR",
					"output": 6
				},
				{
					"input": 5,
					"interpolation": "LINEAR",
					"output": 7
				},
				{
					"input": 5,
					"interpolation": "LINEAR",
					"output": 8
				}
			]
		},
		{
			"name": "001",
			"channels": [
				{
					"sampler": 0,
					"target": {
						"node": 4,
						"path": "translation"
					}
				},
				{
					"sampler": 1,
					"target": {
						"node": 4,
						"path": "rotation"
					}
				},
				{
					"sampler": 2,
					"target": {
						"node": 4,
						"path": "scale"
					}
				}
			],
			"samplers": [
				{
					"input": 19,
					"interpolation": "LINEAR",
					"output": 20
				},
				{
					"input": 19,
					"interpolation": "LINEAR",
					"output": 21
				},
				{
					"input": 19,
					"interpolation": "LINEAR",
					"output": 22
				}
			]
		}
	],
	"buffers": [
		{
			"byteLength": 93348,
			"uri": "松散层蠕动.bin"
		}
	],
	"bufferViews": [
		{
			"buffer": 0,
			"byteLength": 6420,
			"target": 34963,
			"byteOffset": 84528
		},
		{
			"buffer": 0,
			"byteLength": 240,
			"byteOffset": 0
		},
		{
			"buffer": 0,
			"byteLength": 14208,
			"target": 34962,
			"byteStride": 8,
			"byteOffset": 240
		},
		{
			"buffer": 0,
			"byteLength": 42048,
			"target": 34962,
			"byteStride": 12,
			"byteOffset": 14448
		},
		{
			"buffer": 0,
			"byteLength": 28032,
			"target": 34962,
			"byteStride": 16,
			"byteOffset": 56496
		},
		{
			"buffer": 0,
			"byteLength": 1440,
			"byteStride": 12,
			"byteOffset": 90948
		},
		{
			"buffer": 0,
			"byteLength": 960,
			"byteStride": 16,
			"byteOffset": 92388
		}
	],
	"images": [
		{
			"uri": "/Assets/坡地重力地貌/蠕动/Textures/creep1.fbm/tur2.jpg"
		},
		{
			"uri": "/Assets/坡地重力地貌/蠕动/Textures/creep1.fbm/timg2.jpg"
		},
		{
			"uri": "/Assets/坡地重力地貌/蠕动/Textures/tur4.jpg"
		}
	],
	"materials": [
		{
			"pbrMetallicRoughness": {
				"baseColorTexture" : {
					"index" : 0,
					"texCoord" : 0
				},
				"baseColorFactor": [0.5882353, 0.5882353, 0.5882353, 1],
				"metallicFactor": 0,
				"roughnessFactor": 1
			},
			"emissiveFactor": [0, 0, 0],
			"doubleSided": false,
			"name": "tur2"
		},
		{
			"pbrMetallicRoughness": {
				"baseColorTexture" : {
					"index" : 1,
					"texCoord" : 0
				},
				"baseColorFactor": [0.5882353, 0.5882353, 0.5882353, 1],
				"metallicFactor": 0,
				"roughnessFactor": 1
			},
			"emissiveFactor": [0, 0, 0],
			"doubleSided": false,
			"name": "timg2"
		},
		{
			"pbrMetallicRoughness": {
				"baseColorTexture" : {
					"index" : 2,
					"texCoord" : 0
				},
				"baseColorFactor": [1, 1, 1, 1],
				"metallicFactor": 0,
				"roughnessFactor": 0.5
			},
			"emissiveFactor": [0, 0, 0],
			"doubleSided": false,
			"name": "tur4"
		}
	],
	"meshes": [
		{
			"name": "mesh_001_35982001",
			"primitives": [
				{
					"attributes": {
						"POSITION": 0,
						"NORMAL": 1,
						"TEXCOORD_0": 2,
						"TANGENT": 3
					},
					"indices": 4,
					"material": 0,
					"mode": 4
				}
			]
		},
		{
			"name": "mesh_002_35984002",
			"primitives": [
				{
					"attributes": {
						"POSITION": 9,
						"NORMAL": 10,
						"TEXCOORD_0": 11,
						"TANGENT": 12
					},
					"indices": 13,
					"material": 0,
					"mode": 4
				}
			]
		},
		{
			"name": "mesh_001_35982001",
			"primitives": [
				{
					"attributes": {
						"POSITION": 14,
						"NORMAL": 15,
						"TEXCOORD_0": 16,
						"TANGENT": 17
					},
					"indices": 18,
					"material": 0,
					"mode": 4
				}
			]
		},
		{
			"name": "mesh_Box001_35986Box001",
			"primitives": [
				{
					"attributes": {
						"POSITION": 23,
						"NORMAL": 24,
						"TEXCOORD_0": 25,
						"TANGENT": 26
					},
					"indices": 27,
					"material": 0,
					"mode": 4
				},
				{
					"attributes": {
						"POSITION": 23,
						"NORMAL": 24,
						"TEXCOORD_0": 25,
						"TANGENT": 26
					},
					"indices": 28,
					"material": 1,
					"mode": 4
				}
			]
		},
		{
			"name": "mesh_Cube_528Cube",
			"primitives": [
				{
					"attributes": {
						"POSITION": 29,
						"NORMAL": 30,
						"TEXCOORD_0": 31,
						"TEXCOORD_1": 32,
						"TANGENT": 33
					},
					"indices": 34,
					"material": 2,
					"mode": 4
				}
			]
		}
	],
	"nodes": [
		{
			"name": "UnityGlTF_root",
			"children": [
				2
			]
		},
		{
			"name": "node_001_-88656",
			"mesh": 0,
			"translation": [ 0.187, -0.44, -0.745],
			"rotation": [-0.9003847, 0, 0, -0.4350947]
		},
		{
			"name": "node__-88650",
			"children": [
				5,
				3,
				1,
				4,
				6
			],
			"matrix": [1, 0, 0, 0, 0, 1, 0, 0, 0, 0, 1, 0, 3.099264, 1.252947, -1.251724, 1]
		},
		{
			"name": "node_002_-88654",
			"mesh": 1,
			"translation": [ 0.234, -0.024, -0.114],
			"rotation": [-0.7071068, 0, 0, -0.7071068]
		},
		{
			"name": "node_001_-88658",
			"mesh": 2,
			"translation": [ 0.233, -0.046, -0.104],
			"rotation": [-0.7071068, 0, 0, -0.7071068]
		},
		{
			"name": "node_Box001_-88652",
			"mesh": 3,
			"translation": [ 0.2344144, 0.05010801, -0.1142795],
			"rotation": [-0.7071068, 0, 0, -0.7071068]
		},
		{
			"name": "node_Cube_-88660",
			"mesh": 4,
			"translation": [ 0.183, 0, -0.128],
			"scale": [ 2, 0.1, 2]
		}
	],
	"samplers": [
		{
			"magFilter": 9729,
			"minFilter": 9985,
			"wrapS": 10497,
			"wrapT": 10497
		}
	],
	"scenes": [
		{
			"name":"defaultScene",
			"nodes": [
				0
			]
		}
	],
	"scene": 0,
	"textures": [
		{
			"sampler": 0,
			"source": 0
		},
		{
			"sampler": 0,
			"source": 1
		},
		{
			"sampler": 0,
			"source": 2
		}
	]
}