{
	"asset": {
		"generator": "Unity 2018.3.11f1",
		"extras": {
			"exporterVersion" : "2.2.1"
		},
		"version": "2.0"
	},
	"accessors": [
		{
			"bufferView": 1,
			"byteOffset": 0,
			"componentType": 5126,
			"count": 30,
			"max": [ 0.9666667 ],
			"min": [ 0 ],
			"type": "SCALAR"
		},
		{
			"bufferView": 4,
			"byteOffset": 0,
			"componentType": 5126,
			"count": 30,
			"max": [ 0, 3.389615, 0 ],
			"min": [ 0, 0, 0 ],
			"type": "VEC3"
		},
		{
			"bufferView": 5,
			"byteOffset": 0,
			"componentType": 5126,
			"count": 30,
			"max": [ 0, 0.2572738, 0, -0.9659258 ],
			"min": [ 0, -0.258819, 0, -0.9999198 ],
			"type": "VEC4"
		},
		{
			"bufferView": 4,
			"byteOffset": 360,
			"componentType": 5126,
			"count": 30,
			"max": [ 1, 1, 1 ],
			"min": [ 1, 1, 1 ],
			"type": "VEC3"
		},
		{
			"bufferView": 3,
			"byteOffset": 0,
			"componentType": 5126,
			"count": 582,
			"max": [ 1.868928, 0.05702069, 0.002110898 ],
			"min": [ -2.112819, -0.4831518, -2.401463 ],
			"type": "VEC3"
		},
		{
			"bufferView": 3,
			"byteOffset": 6984,
			"componentType": 5126,
			"count": 582,
			"max": [ 1, 1, 1 ],
			"min": [ -1, -1, -1 ],
			"type": "VEC3"
		},
		{
			"bufferView": 2,
			"byteOffset": 0,
			"componentType": 5126,
			"count": 582,
			"max": [ 0.9781031, 0.9589175 ],
			"min": [ 0.03830423, 0.02755716 ],
			"type": "VEC2"
		},
		{
			"bufferView": 0,
			"byteOffset": 0,
			"componentType": 5123,
			"count": 1512,
			"max": [ 581 ],
			"min": [ 0 ],
			"type": "SCALAR"
		}
	],
	"animations": [
		{
			"name": "Shop Billboard",
			"channels": [
				{
					"sampler": 0,
					"target": {
						"node": 1,
						"path": "translation"
					}
				},
				{
					"sampler": 1,
					"target": {
						"node": 1,
						"path": "rotation"
					}
				},
				{
					"sampler": 2,
					"target": {
						"node": 1,
						"path": "scale"
					}
				}
			],
			"samplers": [
				{
					"input": 0,
					"interpolation": "LINEAR",
					"output": 1
				},
				{
					"input": 0,
					"interpolation": "LINEAR",
					"output": 2
				},
				{
					"input": 0,
					"interpolation": "LINEAR",
					"output": 3
				}
			]
		}
	],
	"buffers": [
		{
			"byteLength": 22968,
			"uri": "购物服务.bin"
		}
	],
	"bufferViews": [
		{
			"buffer": 0,
			"byteLength": 3024,
			"target": 34963,
			"byteOffset": 18744
		},
		{
			"buffer": 0,
			"byteLength": 120,
			"byteOffset": 0
		},
		{
			"buffer": 0,
			"byteLength": 4656,
			"target": 34962,
			"byteStride": 8,
			"byteOffset": 120
		},
		{
			"buffer": 0,
			"byteLength": 13968,
			"target": 34962,
			"byteStride": 12,
			"byteOffset": 4776
		},
		{
			"buffer": 0,
			"byteLength": 720,
			"byteStride": 12,
			"byteOffset": 21768
		},
		{
			"buffer": 0,
			"byteLength": 480,
			"byteStride": 16,
			"byteOffset": 22488
		}
	],
	"images": [
		{
			"uri": "/Assets/Cartoon City Pack/Textures/Diffuse/ShopBillboardDiffuse.jpg"
		},
		{
			"uri": "/Assets/Cartoon City Pack/Textures/Emission/ShopBillboardEmission.jpg"
		}
	],
	"materials": [
		{
			"pbrMetallicRoughness": {
				"baseColorTexture" : {
					"index" : 0,
					"texCoord" : 0
				},
				"baseColorFactor": [1, 1, 1, 1],
				"metallicFactor": 0.1,
				"roughnessFactor": 0.9
			},
			"emissiveTexture" : {
				"index" : 1,
				"texCoord" : 0
			},
			"emissiveFactor": [0.75, 0.75, 0.75],
			"doubleSided": false,
			"name": "ShopBillboard"
		}
	],
	"meshes": [
		{
			"name": "mesh_Text_13174ShopBillboard",
			"primitives": [
				{
					"attributes": {
						"POSITION": 4,
						"NORMAL": 5,
						"TEXCOORD_0": 6
					},
					"indices": 7,
					"material": 0,
					"mode": 4
				}
			]
		}
	],
	"nodes": [
		{
			"name": "UnityGlTF_root",
			"children": [
				1
			]
		},
		{
			"name": "node_Shop Billboard_-31684",
			"children": [
				2
			],
			"matrix": [0.8660254, 0, -0.5, 0, 0, 1, 0, 0, 0.5, 0, 0.8660254, 0, 0, 0, 0, 1]
		},
		{
			"name": "node_ShopBillboard_-31686",
			"mesh": 0,
			"rotation": [1.152023E-07, -0.7071067, 0.7071068, 1.152023E-07]
		}
	],
	"samplers": [
		{
			"magFilter": 9729,
			"minFilter": 9985,
			"wrapS": 10497,
			"wrapT": 10497
		}
	],
	"scenes": [
		{
			"name":"defaultScene",
			"nodes": [
				0
			]
		}
	],
	"scene": 0,
	"textures": [
		{
			"sampler": 0,
			"source": 0
		},
		{
			"sampler": 0,
			"source": 1
		}
	]
}