{
	"asset": {
		"generator": "Unity 2018.3.11f1",
		"extras": {
			"exporterVersion" : "2.2.1"
		},
		"version": "2.0"
	},
	"accessors": [
		{
			"bufferView": 3,
			"byteOffset": 0,
			"componentType": 5126,
			"count": 426,
			"max": [ 0.2354544, 0.2720909, 0 ],
			"min": [ -0.2354544, -0.2720909, 0 ],
			"type": "VEC3"
		},
		{
			"bufferView": 3,
			"byteOffset": 5112,
			"componentType": 5126,
			"count": 426,
			"max": [ 0, 0, -1 ],
			"min": [ 0, 0, -1 ],
			"type": "VEC3"
		},
		{
			"bufferView": 2,
			"byteOffset": 0,
			"componentType": 5126,
			"count": 426,
			"max": [ 1, 1 ],
			"min": [ 0, 0 ],
			"type": "VEC2"
		},
		{
			"bufferView": 4,
			"byteOffset": 0,
			"componentType": 5126,
			"count": 426,
			"max": [ -1, 0, 0, 1 ],
			"min": [ -1, 0, 0, 1 ],
			"type": "VEC4"
		},
		{
			"bufferView": 0,
			"byteOffset": 0,
			"componentType": 5123,
			"count": 2292,
			"max": [ 425 ],
			"min": [ 0 ],
			"type": "SCALAR"
		},
		{
			"bufferView": 1,
			"byteOffset": 0,
			"componentType": 5126,
			"count": 30,
			"max": [ 0.9666667 ],
			"min": [ 0 ],
			"type": "SCALAR"
		},
		{
			"bufferView": 5,
			"byteOffset": 0,
			"componentType": 5126,
			"count": 30,
			"max": [ -0.2758796, 0.01551045, -0.365635 ],
			"min": [ -0.2939409, 0.01551045, -0.5952492 ],
			"type": "VEC3"
		},
		{
			"bufferView": 6,
			"byteOffset": 0,
			"componentType": 5126,
			"count": 30,
			"max": [ -0.7071068, 0, 0, -0.7071068 ],
			"min": [ -0.7071068, 0, 0, -0.7071068 ],
			"type": "VEC4"
		},
		{
			"bufferView": 5,
			"byteOffset": 360,
			"componentType": 5126,
			"count": 30,
			"max": [ 1.359347, 1, 1 ],
			"min": [ 1.1, 1, 1 ],
			"type": "VEC3"
		},
		{
			"bufferView": 3,
			"byteOffset": 10224,
			"componentType": 5126,
			"count": 446,
			"max": [ 0.381, 0.381, 0 ],
			"min": [ -0.381, -0.381, -1.016 ],
			"type": "VEC3"
		},
		{
			"bufferView": 3,
			"byteOffset": 15576,
			"componentType": 5126,
			"count": 446,
			"max": [ 1, 1, 1 ],
			"min": [ -1, -0.8064545, -1 ],
			"type": "VEC3"
		},
		{
			"bufferView": 2,
			"byteOffset": 3408,
			"componentType": 5126,
			"count": 446,
			"max": [ 1, 1 ],
			"min": [ 0, 0 ],
			"type": "VEC2"
		},
		{
			"bufferView": 4,
			"byteOffset": 6816,
			"componentType": 5126,
			"count": 446,
			"max": [ 1, 1, 0.4212311, 1 ],
			"min": [ -1, -1, -0.06290133, 1 ],
			"type": "VEC4"
		},
		{
			"bufferView": 0,
			"byteOffset": 4584,
			"componentType": 5123,
			"count": 864,
			"max": [ 445 ],
			"min": [ 0 ],
			"type": "SCALAR"
		},
		{
			"bufferView": 3,
			"byteOffset": 20928,
			"componentType": 5126,
			"count": 69,
			"max": [ -0.806581, 0.3433061, -0.004613236 ],
			"min": [ -1.410961, -0.2446763, -0.733739 ],
			"type": "VEC3"
		},
		{
			"bufferView": 3,
			"byteOffset": 21756,
			"componentType": 5126,
			"count": 69,
			"max": [ 0.06164283, 0.193301, -0.591318 ],
			"min": [ -0.3927427, -0.8064385, -0.9997742 ],
			"type": "VEC3"
		},
		{
			"bufferView": 2,
			"byteOffset": 6976,
			"componentType": 5126,
			"count": 69,
			"max": [ 0.8914131, 0.7892592 ],
			"min": [ 0.09826326, 0 ],
			"type": "VEC2"
		},
		{
			"bufferView": 4,
			"byteOffset": 13952,
			"componentType": 5126,
			"count": 69,
			"max": [ -0.9065613, 0.02663945, 0.4212328, 1 ],
			"min": [ -1, -0.0005513787, -0.06290082, 1 ],
			"type": "VEC4"
		},
		{
			"bufferView": 0,
			"byteOffset": 6312,
			"componentType": 5123,
			"count": 201,
			"max": [ 68 ],
			"min": [ 0 ],
			"type": "SCALAR"
		},
		{
			"bufferView": 1,
			"byteOffset": 120,
			"componentType": 5126,
			"count": 30,
			"max": [ 0.9666667 ],
			"min": [ 0 ],
			"type": "SCALAR"
		},
		{
			"bufferView": 5,
			"byteOffset": 720,
			"componentType": 5126,
			"count": 30,
			"max": [ 1.1204, 0.03185476, -0.299 ],
			"min": [ 0.9015855, -0.041, -0.3976773 ],
			"type": "VEC3"
		},
		{
			"bufferView": 6,
			"byteOffset": 480,
			"componentType": 5126,
			"count": 30,
			"max": [ -0.7071068, 0, 0, -0.7071068 ],
			"min": [ -0.7071068, 0, 0, -0.7071068 ],
			"type": "VEC4"
		},
		{
			"bufferView": 5,
			"byteOffset": 1080,
			"componentType": 5126,
			"count": 30,
			"max": [ 1.284462, 1.284462, 1.284462 ],
			"min": [ 1.08712, 1.08712, 1.08712 ],
			"type": "VEC3"
		}
	],
	"animations": [
		{
			"name": "Plane002",
			"channels": [
				{
					"sampler": 0,
					"target": {
						"node": 1,
						"path": "translation"
					}
				},
				{
					"sampler": 1,
					"target": {
						"node": 1,
						"path": "rotation"
					}
				},
				{
					"sampler": 2,
					"target": {
						"node": 1,
						"path": "scale"
					}
				}
			],
			"samplers": [
				{
					"input": 5,
					"interpolation": "LINEAR",
					"output": 6
				},
				{
					"input": 5,
					"interpolation": "LINEAR",
					"output": 7
				},
				{
					"input": 5,
					"interpolation": "LINEAR",
					"output": 8
				}
			]
		},
		{
			"name": "001",
			"channels": [
				{
					"sampler": 0,
					"target": {
						"node": 4,
						"path": "translation"
					}
				},
				{
					"sampler": 1,
					"target": {
						"node": 4,
						"path": "rotation"
					}
				},
				{
					"sampler": 2,
					"target": {
						"node": 4,
						"path": "scale"
					}
				}
			],
			"samplers": [
				{
					"input": 19,
					"interpolation": "LINEAR",
					"output": 20
				},
				{
					"input": 19,
					"interpolation": "LINEAR",
					"output": 21
				},
				{
					"input": 19,
					"interpolation": "LINEAR",
					"output": 22
				}
			]
		}
	],
	"buffers": [
		{
			"byteLength": 54522,
			"uri": "山坡型泥石流.bin"
		}
	],
	"bufferViews": [
		{
			"buffer": 0,
			"byteLength": 6714,
			"target": 34963,
			"byteOffset": 45408
		},
		{
			"buffer": 0,
			"byteLength": 240,
			"byteOffset": 0
		},
		{
			"buffer": 0,
			"byteLength": 7528,
			"target": 34962,
			"byteStride": 8,
			"byteOffset": 240
		},
		{
			"buffer": 0,
			"byteLength": 22584,
			"target": 34962,
			"byteStride": 12,
			"byteOffset": 7768
		},
		{
			"buffer": 0,
			"byteLength": 15056,
			"target": 34962,
			"byteStride": 16,
			"byteOffset": 30352
		},
		{
			"buffer": 0,
			"byteLength": 1440,
			"byteStride": 12,
			"byteOffset": 52122
		},
		{
			"buffer": 0,
			"byteLength": 960,
			"byteStride": 16,
			"byteOffset": 53562
		}
	],
	"images": [
		{
			"uri": "/Assets/沟谷流水地貌/泥石流/Materials/tur5.jpg"
		},
		{
			"uri": "/Assets/沟谷流水地貌/泥石流/Textures/tur8lxq.jpg"
		},
		{
			"uri": "/Assets/沟谷流水地貌/泥石流/Textures/mud.jpg"
		}
	],
	"materials": [
		{
			"pbrMetallicRoughness": {
				"baseColorTexture" : {
					"index" : 0,
					"texCoord" : 0
				},
				"baseColorFactor": [1, 1, 1, 1],
				"metallicFactor": 0,
				"roughnessFactor": 0.5
			},
			"emissiveFactor": [0, 0, 0],
			"doubleSided": false,
			"name": "tur5"
		},
		{
			"pbrMetallicRoughness": {
				"baseColorTexture" : {
					"index" : 1,
					"texCoord" : 0
				},
				"baseColorFactor": [1, 1, 1, 1],
				"metallicFactor": 0,
				"roughnessFactor": 0.5
			},
			"emissiveFactor": [0, 0, 0],
			"doubleSided": false,
			"name": "tur8lxq"
		},
		{
			"pbrMetallicRoughness": {
				"baseColorTexture" : {
					"index" : 2,
					"texCoord" : 0
				},
				"baseColorFactor": [1, 1, 1, 1],
				"metallicFactor": 0,
				"roughnessFactor": 0.5
			},
			"emissiveFactor": [0, 0, 0],
			"doubleSided": false,
			"name": "mud"
		}
	],
	"meshes": [
		{
			"name": "mesh_Plane002_3348Plane002",
			"primitives": [
				{
					"attributes": {
						"POSITION": 0,
						"NORMAL": 1,
						"TEXCOORD_0": 2,
						"TANGENT": 3
					},
					"indices": 4,
					"material": 0,
					"mode": 4
				}
			]
		},
		{
			"name": "mesh_Box001_2996Box001",
			"primitives": [
				{
					"attributes": {
						"POSITION": 9,
						"NORMAL": 10,
						"TEXCOORD_0": 11,
						"TANGENT": 12
					},
					"indices": 13,
					"material": 1,
					"mode": 4
				}
			]
		},
		{
			"name": "mesh_001_2998001",
			"primitives": [
				{
					"attributes": {
						"POSITION": 14,
						"NORMAL": 15,
						"TEXCOORD_0": 16,
						"TANGENT": 17
					},
					"indices": 18,
					"material": 2,
					"mode": 4
				}
			]
		}
	],
	"nodes": [
		{
			"name": "UnityGlTF_root",
			"children": [
				2
			]
		},
		{
			"name": "node_Plane002_-2994",
			"mesh": 0,
			"translation": [ -0.2758796, 0.01551045, -0.365635],
			"scale": [ 1.1, 1, 1],
			"rotation": [-0.7071068, 0, 0, -0.7071068]
		},
		{
			"name": "node__-2992",
			"children": [
				1,
				3,
				4
			],
			"matrix": [1, 0, 0, 0, 0, 1, 0, 0, 0, 0, 1, 0, -0.27, 0, 0.03, 1]
		},
		{
			"name": "node_Box001_-2996",
			"mesh": 1,
			"translation": [ -0.2956998, 0, -0.2742499],
			"rotation": [-0.7071068, 0, 0, -0.7071068]
		},
		{
			"name": "node_001_-3000",
			"mesh": 2,
			"translation": [ 0.805, 0.008999825, -0.3210001],
			"rotation": [-0.7071068, 0, 0, -0.7071068]
		}
	],
	"samplers": [
		{
			"magFilter": 9729,
			"minFilter": 9985,
			"wrapS": 10497,
			"wrapT": 10497
		}
	],
	"scenes": [
		{
			"name":"defaultScene",
			"nodes": [
				0
			]
		}
	],
	"scene": 0,
	"textures": [
		{
			"sampler": 0,
			"source": 0
		},
		{
			"sampler": 0,
			"source": 1
		},
		{
			"sampler": 0,
			"source": 2
		}
	]
}