{
	"asset": {
		"generator": "Unity 2018.3.11f1",
		"extras": {
			"exporterVersion" : "2.2.1"
		},
		"version": "2.0"
	},
	"accessors": [
		{
			"bufferView": 1,
			"byteOffset": 0,
			"componentType": 5126,
			"count": 40,
			"max": [ 1.3 ],
			"min": [ 0 ],
			"type": "SCALAR"
		},
		{
			"bufferView": 5,
			"byteOffset": 0,
			"componentType": 5126,
			"count": 40,
			"max": [ 0, 0, 0 ],
			"min": [ 0, -0.5412301, 0 ],
			"type": "VEC3"
		},
		{
			"bufferView": 6,
			"byteOffset": 0,
			"componentType": 5126,
			"count": 40,
			"max": [ -0.7071068, 0, 0, -0.7071068 ],
			"min": [ -0.7071068, 0, 0, -0.7071068 ],
			"type": "VEC4"
		},
		{
			"bufferView": 5,
			"byteOffset": 480,
			"componentType": 5126,
			"count": 40,
			"max": [ 1.024, 1.03, 1.03 ],
			"min": [ 1.024, 1.03, 1.03 ],
			"type": "VEC3"
		},
		{
			"bufferView": 1,
			"byteOffset": 160,
			"componentType": 5126,
			"count": 40,
			"max": [ 1.3 ],
			"min": [ 0 ],
			"type": "SCALAR"
		},
		{
			"bufferView": 5,
			"byteOffset": 960,
			"componentType": 5126,
			"count": 40,
			"max": [ -0.8833896, 1.55, -0.9233897 ],
			"min": [ -1.92, 1.55, -1.96 ],
			"type": "VEC3"
		},
		{
			"bufferView": 6,
			"byteOffset": 640,
			"componentType": 5126,
			"count": 40,
			"max": [ 0, -0.3826834, 0, -0.9238796 ],
			"min": [ 0, -0.3826834, 0, -0.9238796 ],
			"type": "VEC4"
		},
		{
			"bufferView": 5,
			"byteOffset": 1440,
			"componentType": 5126,
			"count": 40,
			"max": [ 0.0593654, 0.2277638, 0.1219341 ],
			"min": [ 0.0593654, 0.2277638, 0.1219341 ],
			"type": "VEC3"
		},
		{
			"bufferView": 3,
			"byteOffset": 0,
			"componentType": 5126,
			"count": 61252,
			"max": [ 1.27, 1.27, 1.481992 ],
			"min": [ -1.27, -1.27, -1.481992 ],
			"type": "VEC3"
		},
		{
			"bufferView": 3,
			"byteOffset": 735024,
			"componentType": 5126,
			"count": 61252,
			"max": [ 1, 1, 1 ],
			"min": [ -1, -1, -0.9999737 ],
			"type": "VEC3"
		},
		{
			"bufferView": 2,
			"byteOffset": 0,
			"componentType": 5126,
			"count": 61252,
			"max": [ 1, 1.999999 ],
			"min": [ 0, 1 ],
			"type": "VEC2"
		},
		{
			"bufferView": 4,
			"byteOffset": 0,
			"componentType": 5126,
			"count": 61252,
			"max": [ 1, 1, 0.9664007, 1 ],
			"min": [ -1, -1, -0.9732324, 1 ],
			"type": "VEC4"
		},
		{
			"bufferView": 0,
			"byteOffset": 0,
			"componentType": 5123,
			"count": 350406,
			"max": [ 61251 ],
			"min": [ 0 ],
			"type": "SCALAR"
		},
		{
			"bufferView": 0,
			"byteOffset": 700812,
			"componentType": 5123,
			"count": 9594,
			"max": [ 60538 ],
			"min": [ 10201 ],
			"type": "SCALAR"
		},
		{
			"bufferView": 3,
			"byteOffset": 1470048,
			"componentType": 5126,
			"count": 61228,
			"max": [ 1.27, 1.27, 1.481992 ],
			"min": [ -1.27, -1.27, -1.481992 ],
			"type": "VEC3"
		},
		{
			"bufferView": 3,
			"byteOffset": 2204784,
			"componentType": 5126,
			"count": 61228,
			"max": [ 1, 1, 1 ],
			"min": [ -1, -1, -0.9999737 ],
			"type": "VEC3"
		},
		{
			"bufferView": 2,
			"byteOffset": 490016,
			"componentType": 5126,
			"count": 61228,
			"max": [ 1, 1.999999 ],
			"min": [ 0, 1 ],
			"type": "VEC2"
		},
		{
			"bufferView": 4,
			"byteOffset": 980032,
			"componentType": 5126,
			"count": 61228,
			"max": [ 1, 1, 0.9664007, 1 ],
			"min": [ -1, -1, -0.9614865, 1 ],
			"type": "VEC4"
		},
		{
			"bufferView": 0,
			"byteOffset": 720000,
			"componentType": 5123,
			"count": 351546,
			"max": [ 61227 ],
			"min": [ 0 ],
			"type": "SCALAR"
		},
		{
			"bufferView": 0,
			"byteOffset": 1423092,
			"componentType": 5123,
			"count": 8454,
			"max": [ 60503 ],
			"min": [ 10232 ],
			"type": "SCALAR"
		},
		{
			"bufferView": 3,
			"byteOffset": 2939520,
			"componentType": 5126,
			"count": 121,
			"max": [ 5, 1.110223E-16, 5 ],
			"min": [ -5, -1.110223E-16, -5 ],
			"type": "VEC3"
		},
		{
			"bufferView": 3,
			"byteOffset": 2940972,
			"componentType": 5126,
			"count": 121,
			"max": [ 0, 1, 0 ],
			"min": [ 0, 1, 0 ],
			"type": "VEC3"
		},
		{
			"bufferView": 2,
			"byteOffset": 979840,
			"componentType": 5126,
			"count": 121,
			"max": [ 1, 1 ],
			"min": [ 0, 0 ],
			"type": "VEC2"
		},
		{
			"bufferView": 4,
			"byteOffset": 1959680,
			"componentType": 5126,
			"count": 121,
			"max": [ -1, 0, 0, 1 ],
			"min": [ -1, 0, 0, 1 ],
			"type": "VEC4"
		},
		{
			"bufferView": 0,
			"byteOffset": 1440000,
			"componentType": 5123,
			"count": 600,
			"max": [ 120 ],
			"min": [ 0 ],
			"type": "SCALAR"
		},
		{
			"bufferView": 3,
			"byteOffset": 2942424,
			"componentType": 5126,
			"count": 24,
			"max": [ 0.5, 0.5, 0.5 ],
			"min": [ -0.5, -0.5, -0.5 ],
			"type": "VEC3"
		},
		{
			"bufferView": 3,
			"byteOffset": 2942712,
			"componentType": 5126,
			"count": 24,
			"max": [ 1, 1, 1 ],
			"min": [ -1, -1, -1 ],
			"type": "VEC3"
		},
		{
			"bufferView": 2,
			"byteOffset": 980808,
			"componentType": 5126,
			"count": 24,
			"max": [ 1, 1 ],
			"min": [ 0, 0 ],
			"type": "VEC2"
		},
		{
			"bufferView": 2,
			"byteOffset": 981000,
			"componentType": 5126,
			"count": 24,
			"max": [ 0.9966581, 0.6528358 ],
			"min": [ 0.004055766, 0.004055766 ],
			"type": "VEC2"
		},
		{
			"bufferView": 4,
			"byteOffset": 1961616,
			"componentType": 5126,
			"count": 24,
			"max": [ 0, 0, 1, 1 ],
			"min": [ -1, 0, -1, 1 ],
			"type": "VEC4"
		},
		{
			"bufferView": 0,
			"byteOffset": 1441200,
			"componentType": 5123,
			"count": 36,
			"max": [ 23 ],
			"min": [ 0 ],
			"type": "SCALAR"
		}
	],
	"animations": [
		{
			"name": "",
			"channels": [
				{
					"sampler": 0,
					"target": {
						"node": 3,
						"path": "translation"
					}
				},
				{
					"sampler": 1,
					"target": {
						"node": 3,
						"path": "rotation"
					}
				},
				{
					"sampler": 2,
					"target": {
						"node": 3,
						"path": "scale"
					}
				},
				{
					"sampler": 3,
					"target": {
						"node": 4,
						"path": "translation"
					}
				},
				{
					"sampler": 4,
					"target": {
						"node": 4,
						"path": "rotation"
					}
				},
				{
					"sampler": 5,
					"target": {
						"node": 4,
						"path": "scale"
					}
				}
			],
			"samplers": [
				{
					"input": 0,
					"interpolation": "LINEAR",
					"output": 1
				},
				{
					"input": 0,
					"interpolation": "LINEAR",
					"output": 2
				},
				{
					"input": 0,
					"interpolation": "LINEAR",
					"output": 3
				},
				{
					"input": 4,
					"interpolation": "LINEAR",
					"output": 5
				},
				{
					"input": 4,
					"interpolation": "LINEAR",
					"output": 6
				},
				{
					"input": 4,
					"interpolation": "LINEAR",
					"output": 7
				}
			]
		}
	],
	"buffers": [
		{
			"byteLength": 7330984,
			"uri": "尖头形三角洲.bin"
		}
	],
	"bufferViews": [
		{
			"buffer": 0,
			"byteLength": 1441272,
			"target": 34963,
			"byteOffset": 5886512
		},
		{
			"buffer": 0,
			"byteLength": 320,
			"byteOffset": 0
		},
		{
			"buffer": 0,
			"byteLength": 981192,
			"target": 34962,
			"byteStride": 8,
			"byteOffset": 320
		},
		{
			"buffer": 0,
			"byteLength": 2943000,
			"target": 34962,
			"byteStride": 12,
			"byteOffset": 981512
		},
		{
			"buffer": 0,
			"byteLength": 1962000,
			"target": 34962,
			"byteStride": 16,
			"byteOffset": 3924512
		},
		{
			"buffer": 0,
			"byteLength": 1920,
			"byteStride": 12,
			"byteOffset": 7327784
		},
		{
			"buffer": 0,
			"byteLength": 1280,
			"byteStride": 16,
			"byteOffset": 7329704
		}
	],
	"images": [
		{
			"uri": "/Assets/河口地区地貌/三角洲地貌/Textures/Grass (Hill).jpg"
		},
		{
			"uri": "/Assets/河口地区地貌/三角洲地貌/Textures/lansejiantou.png"
		}
	],
	"materials": [
		{
			"pbrMetallicRoughness": {
				"baseColorTexture" : {
					"index" : 0,
					"texCoord" : 0
				},
				"baseColorFactor": [1, 1, 1, 1],
				"metallicFactor": 0,
				"roughnessFactor": 0.5
			},
			"emissiveFactor": [0, 0, 0],
			"doubleSided": false,
			"name": "Grass (Hill)"
		},
		{
			"pbrMetallicRoughness": {
				"baseColorTexture" : {
					"index" : 1,
					"texCoord" : 0
				},
				"baseColorFactor": [1, 1, 1, 1],
				"metallicFactor": 0,
				"roughnessFactor": 0.5
			},
			"alphaMode": "BLEND",
			"alphaCutoff": 0.5,
			"emissiveFactor": [0, 0, 0],
			"doubleSided": false,
			"name": "arrow"
		},
		{
			"pbrMetallicRoughness": {
				"baseColorFactor": [0, 0.1529412, 0.5, 1],
				"metallicFactor": 0,
				"roughnessFactor": 1
			},
			"emissiveFactor": [0, 0, 0],
			"doubleSided": false,
			"name": "Water"
		}
	],
	"meshes": [
		{
			"name": "mesh_Box001_3080Box001",
			"primitives": [
				{
					"attributes": {
						"POSITION": 8,
						"NORMAL": 9,
						"TEXCOORD_0": 10,
						"TANGENT": 11
					},
					"indices": 12,
					"material": 0,
					"mode": 4
				},
				{
					"attributes": {
						"POSITION": 8,
						"NORMAL": 9,
						"TEXCOORD_0": 10,
						"TANGENT": 11
					},
					"indices": 13,
					"material": 0,
					"mode": 4
				}
			]
		},
		{
			"name": "mesh_Box003_3082Box003",
			"primitives": [
				{
					"attributes": {
						"POSITION": 14,
						"NORMAL": 15,
						"TEXCOORD_0": 16,
						"TANGENT": 17
					},
					"indices": 18,
					"material": 0,
					"mode": 4
				},
				{
					"attributes": {
						"POSITION": 14,
						"NORMAL": 15,
						"TEXCOORD_0": 16,
						"TANGENT": 17
					},
					"indices": 19,
					"material": 0,
					"mode": 4
				}
			]
		},
		{
			"name": "mesh_Plane_536Plane",
			"primitives": [
				{
					"attributes": {
						"POSITION": 20,
						"NORMAL": 21,
						"TEXCOORD_0": 22,
						"TANGENT": 23
					},
					"indices": 24,
					"material": 1,
					"mode": 4
				}
			]
		},
		{
			"name": "mesh_Cube_528Cube",
			"primitives": [
				{
					"attributes": {
						"POSITION": 25,
						"NORMAL": 26,
						"TEXCOORD_0": 27,
						"TEXCOORD_1": 28,
						"TANGENT": 29
					},
					"indices": 30,
					"material": 2,
					"mode": 4
				}
			]
		}
	],
	"nodes": [
		{
			"name": "UnityGlTF_root",
			"children": [
				1
			]
		},
		{
			"name": "node__-1144",
			"children": [
				2,
				3,
				4,
				5
			],
			"matrix": [0.7448412, 0, 0, 0, 0, 0.1828075, 0, 0, 0, 0, 0.8221695, 0, 5.3032, -0.235, 0.083691, 1]
		},
		{
			"name": "node_Box001_-1148",
			"mesh": 0,
			"scale": [ 1.02, 1.02, 1.02],
			"rotation": [-0.7071068, 0, 0, -0.7071068]
		},
		{
			"name": "node_Box003_-1150",
			"mesh": 1,
			"scale": [ 1.024, 1.03, 1.03],
			"rotation": [-0.7071068, 0, 0, -0.7071068]
		},
		{
			"name": "node_Plane_-1152",
			"mesh": 2,
			"translation": [ -0.95, 1.55, -0.98],
			"scale": [ 0.0593654, 0.2277638, 0.1219341],
			"rotation": [0, -0.3826834, 0, -0.9238796]
		},
		{
			"name": "node_Cube_-1154",
			"mesh": 3,
			"translation": [ 0, 0.205, 0],
			"scale": [ 2.59974, 1.98, 2.582662]
		}
	],
	"samplers": [
		{
			"magFilter": 9729,
			"minFilter": 9985,
			"wrapS": 10497,
			"wrapT": 10497
		}
	],
	"scenes": [
		{
			"name":"defaultScene",
			"nodes": [
				0
			]
		}
	],
	"scene": 0,
	"textures": [
		{
			"sampler": 0,
			"source": 0
		},
		{
			"sampler": 0,
			"source": 1
		}
	]
}