{
	"asset": {
		"generator": "Unity 2018.3.11f1",
		"extras": {
			"exporterVersion" : "2.2.1"
		},
		"version": "2.0"
	},
	"accessors": [
		{
			"bufferView": 3,
			"byteOffset": 0,
			"componentType": 5126,
			"count": 25350,
			"max": [ 0.8406636, 1.079282, 0 ],
			"min": [ -0.8406636, -1.079282, -0.7749002 ],
			"type": "VEC3"
		},
		{
			"bufferView": 3,
			"byteOffset": 304200,
			"componentType": 5126,
			"count": 25350,
			"max": [ 1, 1, 1 ],
			"min": [ -1, -1, -1 ],
			"type": "VEC3"
		},
		{
			"bufferView": 2,
			"byteOffset": 0,
			"componentType": 5126,
			"count": 25350,
			"max": [ 1, 1 ],
			"min": [ 0, 0 ],
			"type": "VEC2"
		},
		{
			"bufferView": 4,
			"byteOffset": 0,
			"componentType": 5126,
			"count": 25350,
			"max": [ 1, 1, 0.9219687, 1 ],
			"min": [ -1, -1, -0.927294, 1 ],
			"type": "VEC4"
		},
		{
			"bufferView": 0,
			"byteOffset": 0,
			"componentType": 5123,
			"count": 147456,
			"max": [ 25349 ],
			"min": [ 0 ],
			"type": "SCALAR"
		},
		{
			"bufferView": 3,
			"byteOffset": 608400,
			"componentType": 5126,
			"count": 1233,
			"max": [ 1.0755, 0.8405001, -0.3984098 ],
			"min": [ -1.0755, -0.8405001, -0.7651442 ],
			"type": "VEC3"
		},
		{
			"bufferView": 3,
			"byteOffset": 623196,
			"componentType": 5126,
			"count": 1233,
			"max": [ 1, 1, 1 ],
			"min": [ -1, -1, -1 ],
			"type": "VEC3"
		},
		{
			"bufferView": 2,
			"byteOffset": 202800,
			"componentType": 5126,
			"count": 1233,
			"max": [ 1, 1 ],
			"min": [ 0, 0 ],
			"type": "VEC2"
		},
		{
			"bufferView": 4,
			"byteOffset": 405600,
			"componentType": 5126,
			"count": 1233,
			"max": [ 1, 1, 0, 1 ],
			"min": [ -1, -1, 0, 1 ],
			"type": "VEC4"
		},
		{
			"bufferView": 0,
			"byteOffset": 294912,
			"componentType": 5123,
			"count": 6546,
			"max": [ 1232 ],
			"min": [ 0 ],
			"type": "SCALAR"
		},
		{
			"bufferView": 1,
			"byteOffset": 0,
			"componentType": 5126,
			"count": 30,
			"max": [ 0.9666667 ],
			"min": [ 0 ],
			"type": "SCALAR"
		},
		{
			"bufferView": 5,
			"byteOffset": 0,
			"componentType": 5126,
			"count": 30,
			"max": [ 4.478634E-40, -0.05983821, -0.001755319 ],
			"min": [ 4.478634E-40, -0.3849369, -0.001755319 ],
			"type": "VEC3"
		},
		{
			"bufferView": 6,
			"byteOffset": 0,
			"componentType": 5126,
			"count": 30,
			"max": [ -0.5, -0.5, 0.5, -0.5 ],
			"min": [ -0.5, -0.5, 0.5, -0.5 ],
			"type": "VEC4"
		},
		{
			"bufferView": 5,
			"byteOffset": 360,
			"componentType": 5126,
			"count": 30,
			"max": [ 1, 1, 1 ],
			"min": [ 1, 1, 1 ],
			"type": "VEC3"
		},
		{
			"bufferView": 3,
			"byteOffset": 637992,
			"componentType": 5126,
			"count": 12,
			"max": [ 1.0815, 0.8425, 0 ],
			"min": [ -1.0815, -0.8425, -0.7651442 ],
			"type": "VEC3"
		},
		{
			"bufferView": 3,
			"byteOffset": 638136,
			"componentType": 5126,
			"count": 12,
			"max": [ 0, 1, 1 ],
			"min": [ 0, -1, 0 ],
			"type": "VEC3"
		},
		{
			"bufferView": 2,
			"byteOffset": 212664,
			"componentType": 5126,
			"count": 12,
			"max": [ 1, 1 ],
			"min": [ 0, 0 ],
			"type": "VEC2"
		},
		{
			"bufferView": 4,
			"byteOffset": 425328,
			"componentType": 5126,
			"count": 12,
			"max": [ 1, 0, 0, 1 ],
			"min": [ -1, 0, 0, 1 ],
			"type": "VEC4"
		},
		{
			"bufferView": 0,
			"byteOffset": 308004,
			"componentType": 5123,
			"count": 18,
			"max": [ 11 ],
			"min": [ 0 ],
			"type": "SCALAR"
		}
	],
	"animations": [
		{
			"name": "bcgice",
			"channels": [
				{
					"sampler": 0,
					"target": {
						"node": 3,
						"path": "translation"
					}
				},
				{
					"sampler": 1,
					"target": {
						"node": 3,
						"path": "rotation"
					}
				},
				{
					"sampler": 2,
					"target": {
						"node": 3,
						"path": "scale"
					}
				}
			],
			"samplers": [
				{
					"input": 10,
					"interpolation": "LINEAR",
					"output": 11
				},
				{
					"input": 10,
					"interpolation": "LINEAR",
					"output": 12
				},
				{
					"input": 10,
					"interpolation": "LINEAR",
					"output": 13
				}
			]
		}
	],
	"buffers": [
		{
			"byteLength": 1585920,
			"uri": "冰川谷.bin"
		}
	],
	"bufferViews": [
		{
			"buffer": 0,
			"byteLength": 308040,
			"target": 34963,
			"byteOffset": 1276680
		},
		{
			"buffer": 0,
			"byteLength": 120,
			"byteOffset": 0
		},
		{
			"buffer": 0,
			"byteLength": 212760,
			"target": 34962,
			"byteStride": 8,
			"byteOffset": 120
		},
		{
			"buffer": 0,
			"byteLength": 638280,
			"target": 34962,
			"byteStride": 12,
			"byteOffset": 212880
		},
		{
			"buffer": 0,
			"byteLength": 425520,
			"target": 34962,
			"byteStride": 16,
			"byteOffset": 851160
		},
		{
			"buffer": 0,
			"byteLength": 720,
			"byteStride": 12,
			"byteOffset": 1584720
		},
		{
			"buffer": 0,
			"byteLength": 480,
			"byteStride": 16,
			"byteOffset": 1585440
		}
	],
	"images": [
		{
			"uri": "/Assets/冰蚀地貌/Textures/冰川谷谷0805.fbm/timg3.jpg"
		}
	],
	"materials": [
		{
			"pbrMetallicRoughness": {
				"baseColorTexture" : {
					"index" : 0,
					"texCoord" : 0
				},
				"baseColorFactor": [0.5882353, 0.5882353, 0.5882353, 1],
				"metallicFactor": 0,
				"roughnessFactor": 1
			},
			"emissiveFactor": [0, 0, 0],
			"doubleSided": false,
			"name": "timg3"
		},
		{
			"pbrMetallicRoughness": {
				"baseColorFactor": [1, 1, 1, 1],
				"metallicFactor": 0,
				"roughnessFactor": 1
			},
			"alphaMode": "BLEND",
			"alphaCutoff": 0.5,
			"emissiveFactor": [0, 0, 0],
			"doubleSided": false,
			"name": "No Name"
		}
	],
	"meshes": [
		{
			"name": "mesh_Box001_27106bcgmount",
			"primitives": [
				{
					"attributes": {
						"POSITION": 0,
						"NORMAL": 1,
						"TEXCOORD_0": 2,
						"TANGENT": 3
					},
					"indices": 4,
					"material": 0,
					"mode": 4
				}
			]
		},
		{
			"name": "mesh_Box002_27104bcgice",
			"primitives": [
				{
					"attributes": {
						"POSITION": 5,
						"NORMAL": 6,
						"TEXCOORD_0": 7,
						"TANGENT": 8
					},
					"indices": 9,
					"material": 1,
					"mode": 4
				}
			]
		},
		{
			"name": "mesh_Box003_27102bcgcoat",
			"primitives": [
				{
					"attributes": {
						"POSITION": 14,
						"NORMAL": 15,
						"TEXCOORD_0": 16,
						"TANGENT": 17
					},
					"indices": 18,
					"material": 0,
					"mode": 4
				}
			]
		}
	],
	"nodes": [
		{
			"name": "UnityGlTF_root",
			"children": [
				2
			]
		},
		{
			"name": "node_bcgmount_-123772",
			"mesh": 0,
			"rotation": [-0.7071068, 0, 0, -0.7071068]
		},
		{
			"name": "node_0805_-123768",
			"children": [
				1,
				3,
				4
			],
			"matrix": [1, 0, 0, 0, 0, 1, 0, 0, 0, 0, 1, 0, 5, 0, 0, 1]
		},
		{
			"name": "node_bcgice_-123780",
			"mesh": 1,
			"translation": [ 4.478634E-40, -0.386, -0.001755319],
			"rotation": [-0.5, -0.5, 0.5, -0.5]
		},
		{
			"name": "node_bcgcoat_-123790",
			"mesh": 2,
			"rotation": [-0.5, -0.5, 0.5, -0.5]
		}
	],
	"samplers": [
		{
			"magFilter": 9729,
			"minFilter": 9985,
			"wrapS": 10497,
			"wrapT": 10497
		}
	],
	"scenes": [
		{
			"name":"defaultScene",
			"nodes": [
				0
			]
		}
	],
	"scene": 0,
	"textures": [
		{
			"sampler": 0,
			"source": 0
		}
	]
}