{
	"asset": {
		"generator": "Unity 2018.3.11f1",
		"extras": {
			"exporterVersion" : "2.2.1"
		},
		"version": "2.0"
	},
	"accessors": [
		{
			"bufferView": 3,
			"byteOffset": 0,
			"componentType": 5126,
			"count": 35574,
			"max": [ 2.500002, 2.500193, 0.3194408 ],
			"min": [ -2.500386, -2.500127, -2.697787 ],
			"type": "VEC3"
		},
		{
			"bufferView": 3,
			"byteOffset": 426888,
			"componentType": 5126,
			"count": 35574,
			"max": [ 1, 1, 1 ],
			"min": [ -1, -1, -1 ],
			"type": "VEC3"
		},
		{
			"bufferView": 2,
			"byteOffset": 0,
			"componentType": 5126,
			"count": 35574,
			"max": [ 1, 1 ],
			"min": [ 0, 0 ],
			"type": "VEC2"
		},
		{
			"bufferView": 4,
			"byteOffset": 0,
			"componentType": 5126,
			"count": 35574,
			"max": [ 1, 1, 0.9655748, 1 ],
			"min": [ -1, -1, -0.964369, 1 ],
			"type": "VEC4"
		},
		{
			"bufferView": 0,
			"byteOffset": 0,
			"componentType": 5123,
			"count": 207360,
			"max": [ 35573 ],
			"min": [ 0 ],
			"type": "SCALAR"
		},
		{
			"bufferView": 3,
			"byteOffset": 853776,
			"componentType": 5126,
			"count": 35574,
			"max": [ 2.500002, 2.500193, 0.3194408 ],
			"min": [ -2.500386, -2.500127, -2.697772 ],
			"type": "VEC3"
		},
		{
			"bufferView": 3,
			"byteOffset": 1280664,
			"componentType": 5126,
			"count": 35574,
			"max": [ 1, 1, 1 ],
			"min": [ -1, -1, -1 ],
			"type": "VEC3"
		},
		{
			"bufferView": 2,
			"byteOffset": 284592,
			"componentType": 5126,
			"count": 35574,
			"max": [ 1, 1 ],
			"min": [ 0, 0 ],
			"type": "VEC2"
		},
		{
			"bufferView": 4,
			"byteOffset": 569184,
			"componentType": 5126,
			"count": 35574,
			"max": [ 1, 1, 0.8861021, 1 ],
			"min": [ -1, -1, -0.955857, 1 ],
			"type": "VEC4"
		},
		{
			"bufferView": 0,
			"byteOffset": 414720,
			"componentType": 5123,
			"count": 207360,
			"max": [ 35573 ],
			"min": [ 0 ],
			"type": "SCALAR"
		},
		{
			"bufferView": 3,
			"byteOffset": 1707552,
			"componentType": 5126,
			"count": 35574,
			"max": [ 2.750053, 2.753902, 0.3194408 ],
			"min": [ -2.742635, -2.700274, -2.697772 ],
			"type": "VEC3"
		},
		{
			"bufferView": 3,
			"byteOffset": 2134440,
			"componentType": 5126,
			"count": 35574,
			"max": [ 0.9999644, 0.9999716, 1 ],
			"min": [ -0.9999868, -0.99998, -0.9999894 ],
			"type": "VEC3"
		},
		{
			"bufferView": 2,
			"byteOffset": 569184,
			"componentType": 5126,
			"count": 35574,
			"max": [ 1, 1 ],
			"min": [ 0, 0 ],
			"type": "VEC2"
		},
		{
			"bufferView": 4,
			"byteOffset": 1138368,
			"componentType": 5126,
			"count": 35574,
			"max": [ 1, 1, 0.9177729, 1 ],
			"min": [ -1, -1, -0.965677, 1 ],
			"type": "VEC4"
		},
		{
			"bufferView": 0,
			"byteOffset": 829440,
			"componentType": 5123,
			"count": 207360,
			"max": [ 35573 ],
			"min": [ 0 ],
			"type": "SCALAR"
		},
		{
			"bufferView": 3,
			"byteOffset": 2561328,
			"componentType": 5126,
			"count": 35574,
			"max": [ 2.500002, 2.500193, 0.3194408 ],
			"min": [ -2.500386, -2.500127, -2.697772 ],
			"type": "VEC3"
		},
		{
			"bufferView": 3,
			"byteOffset": 2988216,
			"componentType": 5126,
			"count": 35574,
			"max": [ 1, 1, 1 ],
			"min": [ -1, -1, -1 ],
			"type": "VEC3"
		},
		{
			"bufferView": 2,
			"byteOffset": 853776,
			"componentType": 5126,
			"count": 35574,
			"max": [ 1, 1 ],
			"min": [ 0, 0 ],
			"type": "VEC2"
		},
		{
			"bufferView": 4,
			"byteOffset": 1707552,
			"componentType": 5126,
			"count": 35574,
			"max": [ 1, 1, 0.7735857, 1 ],
			"min": [ -1, -1, -0.8783226, 1 ],
			"type": "VEC4"
		},
		{
			"bufferView": 0,
			"byteOffset": 1244160,
			"componentType": 5123,
			"count": 207360,
			"max": [ 35573 ],
			"min": [ 0 ],
			"type": "SCALAR"
		},
		{
			"bufferView": 3,
			"byteOffset": 3415104,
			"componentType": 5126,
			"count": 35574,
			"max": [ 2.557609, 2.527643, 0.3194408 ],
			"min": [ -2.501912, -2.551685, -2.770067 ],
			"type": "VEC3"
		},
		{
			"bufferView": 3,
			"byteOffset": 3841992,
			"componentType": 5126,
			"count": 35574,
			"max": [ 1, 1, 1 ],
			"min": [ -1, -1, -1 ],
			"type": "VEC3"
		},
		{
			"bufferView": 2,
			"byteOffset": 1138368,
			"componentType": 5126,
			"count": 35574,
			"max": [ 1, 1 ],
			"min": [ 0, 0 ],
			"type": "VEC2"
		},
		{
			"bufferView": 4,
			"byteOffset": 2276736,
			"componentType": 5126,
			"count": 35574,
			"max": [ 1, 1, 0.9162376, 1 ],
			"min": [ -1, -1, -0.9060442, 1 ],
			"type": "VEC4"
		},
		{
			"bufferView": 0,
			"byteOffset": 1658880,
			"componentType": 5123,
			"count": 207360,
			"max": [ 35573 ],
			"min": [ 0 ],
			"type": "SCALAR"
		},
		{
			"bufferView": 3,
			"byteOffset": 4268880,
			"componentType": 5126,
			"count": 35574,
			"max": [ 2.500002, 2.500193, 0.3194408 ],
			"min": [ -2.500386, -2.500127, -2.739926 ],
			"type": "VEC3"
		},
		{
			"bufferView": 3,
			"byteOffset": 4695768,
			"componentType": 5126,
			"count": 35574,
			"max": [ 1, 1, 1 ],
			"min": [ -1, -1, -1 ],
			"type": "VEC3"
		},
		{
			"bufferView": 2,
			"byteOffset": 1422960,
			"componentType": 5126,
			"count": 35574,
			"max": [ 1, 1 ],
			"min": [ 0, 0 ],
			"type": "VEC2"
		},
		{
			"bufferView": 4,
			"byteOffset": 2845920,
			"componentType": 5126,
			"count": 35574,
			"max": [ 1, 1, 0.9200959, 1 ],
			"min": [ -1, -1, -0.8991063, 1 ],
			"type": "VEC4"
		},
		{
			"bufferView": 0,
			"byteOffset": 2073600,
			"componentType": 5123,
			"count": 207360,
			"max": [ 35573 ],
			"min": [ 0 ],
			"type": "SCALAR"
		},
		{
			"bufferView": 3,
			"byteOffset": 5122656,
			"componentType": 5126,
			"count": 1661,
			"max": [ 1.953835, 1.751325, 0 ],
			"min": [ -1.953835, -1.781172, -2.735977 ],
			"type": "VEC3"
		},
		{
			"bufferView": 3,
			"byteOffset": 5142588,
			"componentType": 5126,
			"count": 1661,
			"max": [ 0.9573369, 0.9642434, 1 ],
			"min": [ -0.9988585, -0.9981228, -0.8994224 ],
			"type": "VEC3"
		},
		{
			"bufferView": 2,
			"byteOffset": 1707552,
			"componentType": 5126,
			"count": 1661,
			"max": [ 1, 1 ],
			"min": [ -0.05781603, 0 ],
			"type": "VEC2"
		},
		{
			"bufferView": 4,
			"byteOffset": 3415104,
			"componentType": 5126,
			"count": 1661,
			"max": [ 1, 1, 0.5132793, 1 ],
			"min": [ -1, -1, -0.4950728, 1 ],
			"type": "VEC4"
		},
		{
			"bufferView": 0,
			"byteOffset": 2488320,
			"componentType": 5123,
			"count": 9156,
			"max": [ 1660 ],
			"min": [ 0 ],
			"type": "SCALAR"
		},
		{
			"bufferView": 3,
			"byteOffset": 5162520,
			"componentType": 5126,
			"count": 35574,
			"max": [ 2.500002, 2.500193, 0.3194408 ],
			"min": [ -2.500386, -2.500127, -2.697772 ],
			"type": "VEC3"
		},
		{
			"bufferView": 3,
			"byteOffset": 5589408,
			"componentType": 5126,
			"count": 35574,
			"max": [ 1, 1, 1 ],
			"min": [ -1, -1, -1 ],
			"type": "VEC3"
		},
		{
			"bufferView": 2,
			"byteOffset": 1720840,
			"componentType": 5126,
			"count": 35574,
			"max": [ 1, 1 ],
			"min": [ 0, 0 ],
			"type": "VEC2"
		},
		{
			"bufferView": 4,
			"byteOffset": 3441680,
			"componentType": 5126,
			"count": 35574,
			"max": [ 1, 1, 0.7735857, 1 ],
			"min": [ -1, -1, -0.8783226, 1 ],
			"type": "VEC4"
		},
		{
			"bufferView": 0,
			"byteOffset": 2506632,
			"componentType": 5123,
			"count": 207360,
			"max": [ 35573 ],
			"min": [ 0 ],
			"type": "SCALAR"
		},
		{
			"bufferView": 1,
			"byteOffset": 0,
			"componentType": 5126,
			"count": 90,
			"max": [ 2.966667 ],
			"min": [ 0 ],
			"type": "SCALAR"
		},
		{
			"bufferView": 5,
			"byteOffset": 0,
			"componentType": 5126,
			"count": 90,
			"max": [ 5.346118, 0.01369477, 3.021 ],
			"min": [ 5.346118, -0.9078649, 3.021 ],
			"type": "VEC3"
		},
		{
			"bufferView": 6,
			"byteOffset": 0,
			"componentType": 5126,
			"count": 90,
			"max": [ -0.7071068, 0, 0, -0.7071068 ],
			"min": [ -0.7071068, 0, 0, -0.7071068 ],
			"type": "VEC4"
		},
		{
			"bufferView": 5,
			"byteOffset": 1080,
			"componentType": 5126,
			"count": 90,
			"max": [ 1, 1, 1.035071 ],
			"min": [ 1, 1, 1.000026 ],
			"type": "VEC3"
		},
		{
			"bufferView": 1,
			"byteOffset": 360,
			"componentType": 5126,
			"count": 90,
			"max": [ 2.966667 ],
			"min": [ 0 ],
			"type": "SCALAR"
		},
		{
			"bufferView": 5,
			"byteOffset": 2160,
			"componentType": 5126,
			"count": 90,
			"max": [ 5.346118, -0.8445163, 3.021 ],
			"min": [ 5.346118, -0.8445163, 3.021 ],
			"type": "VEC3"
		},
		{
			"bufferView": 6,
			"byteOffset": 1440,
			"componentType": 5126,
			"count": 90,
			"max": [ -0.7071068, 0, 0, -0.7071068 ],
			"min": [ -0.7071068, 0, 0, -0.7071068 ],
			"type": "VEC4"
		},
		{
			"bufferView": 5,
			"byteOffset": 3240,
			"componentType": 5126,
			"count": 90,
			"max": [ 1, 1, 1 ],
			"min": [ 1, 1, 1 ],
			"type": "VEC3"
		},
		{
			"bufferView": 1,
			"byteOffset": 720,
			"componentType": 5126,
			"count": 90,
			"max": [ 2.966667 ],
			"min": [ 0 ],
			"type": "SCALAR"
		},
		{
			"bufferView": 5,
			"byteOffset": 4320,
			"componentType": 5126,
			"count": 90,
			"max": [ 5.346118, -0.8759619, 3.021 ],
			"min": [ 5.346118, -0.8759619, 3.021 ],
			"type": "VEC3"
		},
		{
			"bufferView": 6,
			"byteOffset": 2880,
			"componentType": 5126,
			"count": 90,
			"max": [ -0.7071068, 0, 0, -0.7071068 ],
			"min": [ -0.7071068, 0, 0, -0.7071068 ],
			"type": "VEC4"
		},
		{
			"bufferView": 5,
			"byteOffset": 5400,
			"componentType": 5126,
			"count": 90,
			"max": [ 1, 1, 1 ],
			"min": [ 1, 1, 1 ],
			"type": "VEC3"
		},
		{
			"bufferView": 1,
			"byteOffset": 1080,
			"componentType": 5126,
			"count": 90,
			"max": [ 2.966667 ],
			"min": [ 0 ],
			"type": "SCALAR"
		},
		{
			"bufferView": 5,
			"byteOffset": 6480,
			"componentType": 5126,
			"count": 90,
			"max": [ 5.454634, 5E-05, 2.981456 ],
			"min": [ 5.454634, 5E-05, 2.981456 ],
			"type": "VEC3"
		},
		{
			"bufferView": 6,
			"byteOffset": 4320,
			"componentType": 5126,
			"count": 90,
			"max": [ -0.6825735, -0.1846441, 0.1846441, -0.6825735 ],
			"min": [ -0.6825735, -0.1846441, 0.1846441, -0.6825735 ],
			"type": "VEC4"
		},
		{
			"bufferView": 5,
			"byteOffset": 7560,
			"componentType": 5126,
			"count": 90,
			"max": [ 1, 1, 0.9675292 ],
			"min": [ 1, 1, 0.9675292 ],
			"type": "VEC3"
		},
		{
			"bufferView": 1,
			"byteOffset": 1440,
			"componentType": 5126,
			"count": 90,
			"max": [ 2.966667 ],
			"min": [ 0 ],
			"type": "SCALAR"
		},
		{
			"bufferView": 5,
			"byteOffset": 8640,
			"componentType": 5126,
			"count": 90,
			"max": [ 5.346118, 0.4067541, 3.021 ],
			"min": [ 5.346118, -1.232942, 3.021 ],
			"type": "VEC3"
		},
		{
			"bufferView": 6,
			"byteOffset": 5760,
			"componentType": 5126,
			"count": 90,
			"max": [ -0.7071068, 0, 0, -0.7071068 ],
			"min": [ -0.7071068, 0, 0, -0.7071068 ],
			"type": "VEC4"
		},
		{
			"bufferView": 5,
			"byteOffset": 9720,
			"componentType": 5126,
			"count": 90,
			"max": [ 1, 1, 1 ],
			"min": [ 1, 1, 1 ],
			"type": "VEC3"
		},
		{
			"bufferView": 1,
			"byteOffset": 1800,
			"componentType": 5126,
			"count": 90,
			"max": [ 2.966667 ],
			"min": [ 0 ],
			"type": "SCALAR"
		},
		{
			"bufferView": 5,
			"byteOffset": 10800,
			"componentType": 5126,
			"count": 90,
			"max": [ 5.346118, -1.295335, 3.021 ],
			"min": [ 5.346118, -1.295335, 3.021 ],
			"type": "VEC3"
		},
		{
			"bufferView": 6,
			"byteOffset": 7200,
			"componentType": 5126,
			"count": 90,
			"max": [ -0.7071068, 0, 0, -0.7071068 ],
			"min": [ -0.7071068, 0, 0, -0.7071068 ],
			"type": "VEC4"
		},
		{
			"bufferView": 5,
			"byteOffset": 11880,
			"componentType": 5126,
			"count": 90,
			"max": [ 1, 1, 1 ],
			"min": [ 1, 1, 1 ],
			"type": "VEC3"
		},
		{
			"bufferView": 1,
			"byteOffset": 2160,
			"componentType": 5126,
			"count": 90,
			"max": [ 2.966667 ],
			"min": [ 0 ],
			"type": "SCALAR"
		},
		{
			"bufferView": 5,
			"byteOffset": 12960,
			"componentType": 5126,
			"count": 90,
			"max": [ 5.346118, 0.3610764, 3.021 ],
			"min": [ 5.346118, -1.232942, 3.021 ],
			"type": "VEC3"
		},
		{
			"bufferView": 6,
			"byteOffset": 8640,
			"componentType": 5126,
			"count": 90,
			"max": [ -0.7071068, 0, 0, -0.7071068 ],
			"min": [ -0.7071068, 0, 0, -0.7071068 ],
			"type": "VEC4"
		},
		{
			"bufferView": 5,
			"byteOffset": 14040,
			"componentType": 5126,
			"count": 90,
			"max": [ 1, 1, 1 ],
			"min": [ 1, 1, 1 ],
			"type": "VEC3"
		},
		{
			"bufferView": 1,
			"byteOffset": 2520,
			"componentType": 5126,
			"count": 90,
			"max": [ 2.966667 ],
			"min": [ 0 ],
			"type": "SCALAR"
		},
		{
			"bufferView": 5,
			"byteOffset": 15120,
			"componentType": 5126,
			"count": 90,
			"max": [ 5.346118, -0.05828827, 3.021 ],
			"min": [ 5.346118, -1.325637, 3.021 ],
			"type": "VEC3"
		},
		{
			"bufferView": 6,
			"byteOffset": 10080,
			"componentType": 5126,
			"count": 90,
			"max": [ -0.7071068, 0, 0, -0.7071068 ],
			"min": [ -0.7071068, 0, 0, -0.7071068 ],
			"type": "VEC4"
		},
		{
			"bufferView": 5,
			"byteOffset": 16200,
			"componentType": 5126,
			"count": 90,
			"max": [ 1, 1, 1 ],
			"min": [ 1, 1, 1 ],
			"type": "VEC3"
		}
	],
	"animations": [
		{
			"name": "",
			"channels": [
				{
					"sampler": 0,
					"target": {
						"node": 1,
						"path": "translation"
					}
				},
				{
					"sampler": 1,
					"target": {
						"node": 1,
						"path": "rotation"
					}
				},
				{
					"sampler": 2,
					"target": {
						"node": 1,
						"path": "scale"
					}
				},
				{
					"sampler": 3,
					"target": {
						"node": 8,
						"path": "translation"
					}
				},
				{
					"sampler": 4,
					"target": {
						"node": 8,
						"path": "rotation"
					}
				},
				{
					"sampler": 5,
					"target": {
						"node": 8,
						"path": "scale"
					}
				},
				{
					"sampler": 6,
					"target": {
						"node": 2,
						"path": "translation"
					}
				},
				{
					"sampler": 7,
					"target": {
						"node": 2,
						"path": "rotation"
					}
				},
				{
					"sampler": 8,
					"target": {
						"node": 2,
						"path": "scale"
					}
				},
				{
					"sampler": 9,
					"target": {
						"node": 7,
						"path": "translation"
					}
				},
				{
					"sampler": 10,
					"target": {
						"node": 7,
						"path": "rotation"
					}
				},
				{
					"sampler": 11,
					"target": {
						"node": 7,
						"path": "scale"
					}
				},
				{
					"sampler": 12,
					"target": {
						"node": 4,
						"path": "translation"
					}
				},
				{
					"sampler": 13,
					"target": {
						"node": 4,
						"path": "rotation"
					}
				},
				{
					"sampler": 14,
					"target": {
						"node": 4,
						"path": "scale"
					}
				},
				{
					"sampler": 15,
					"target": {
						"node": 5,
						"path": "translation"
					}
				},
				{
					"sampler": 16,
					"target": {
						"node": 5,
						"path": "rotation"
					}
				},
				{
					"sampler": 17,
					"target": {
						"node": 5,
						"path": "scale"
					}
				},
				{
					"sampler": 18,
					"target": {
						"node": 6,
						"path": "translation"
					}
				},
				{
					"sampler": 19,
					"target": {
						"node": 6,
						"path": "rotation"
					}
				},
				{
					"sampler": 20,
					"target": {
						"node": 6,
						"path": "scale"
					}
				},
				{
					"sampler": 21,
					"target": {
						"node": 3,
						"path": "translation"
					}
				},
				{
					"sampler": 22,
					"target": {
						"node": 3,
						"path": "rotation"
					}
				},
				{
					"sampler": 23,
					"target": {
						"node": 3,
						"path": "scale"
					}
				}
			],
			"samplers": [
				{
					"input": 40,
					"interpolation": "LINEAR",
					"output": 41
				},
				{
					"input": 40,
					"interpolation": "LINEAR",
					"output": 42
				},
				{
					"input": 40,
					"interpolation": "LINEAR",
					"output": 43
				},
				{
					"input": 44,
					"interpolation": "LINEAR",
					"output": 45
				},
				{
					"input": 44,
					"interpolation": "LINEAR",
					"output": 46
				},
				{
					"input": 44,
					"interpolation": "LINEAR",
					"output": 47
				},
				{
					"input": 48,
					"interpolation": "LINEAR",
					"output": 49
				},
				{
					"input": 48,
					"interpolation": "LINEAR",
					"output": 50
				},
				{
					"input": 48,
					"interpolation": "LINEAR",
					"output": 51
				},
				{
					"input": 52,
					"interpolation": "LINEAR",
					"output": 53
				},
				{
					"input": 52,
					"interpolation": "LINEAR",
					"output": 54
				},
				{
					"input": 52,
					"interpolation": "LINEAR",
					"output": 55
				},
				{
					"input": 56,
					"interpolation": "LINEAR",
					"output": 57
				},
				{
					"input": 56,
					"interpolation": "LINEAR",
					"output": 58
				},
				{
					"input": 56,
					"interpolation": "LINEAR",
					"output": 59
				},
				{
					"input": 60,
					"interpolation": "LINEAR",
					"output": 61
				},
				{
					"input": 60,
					"interpolation": "LINEAR",
					"output": 62
				},
				{
					"input": 60,
					"interpolation": "LINEAR",
					"output": 63
				},
				{
					"input": 64,
					"interpolation": "LINEAR",
					"output": 65
				},
				{
					"input": 64,
					"interpolation": "LINEAR",
					"output": 66
				},
				{
					"input": 64,
					"interpolation": "LINEAR",
					"output": 67
				},
				{
					"input": 68,
					"interpolation": "LINEAR",
					"output": 69
				},
				{
					"input": 68,
					"interpolation": "LINEAR",
					"output": 70
				},
				{
					"input": 68,
					"interpolation": "LINEAR",
					"output": 71
				}
			]
		}
	],
	"buffers": [
		{
			"byteLength": 14985624,
			"uri": "角峰.bin"
		}
	],
	"bufferViews": [
		{
			"buffer": 0,
			"byteLength": 2921352,
			"target": 34963,
			"byteOffset": 12035472
		},
		{
			"buffer": 0,
			"byteLength": 2880,
			"byteOffset": 0
		},
		{
			"buffer": 0,
			"byteLength": 2005432,
			"target": 34962,
			"byteStride": 8,
			"byteOffset": 2880
		},
		{
			"buffer": 0,
			"byteLength": 6016296,
			"target": 34962,
			"byteStride": 12,
			"byteOffset": 2008312
		},
		{
			"buffer": 0,
			"byteLength": 4010864,
			"target": 34962,
			"byteStride": 16,
			"byteOffset": 8024608
		},
		{
			"buffer": 0,
			"byteLength": 17280,
			"byteStride": 12,
			"byteOffset": 14956824
		},
		{
			"buffer": 0,
			"byteLength": 11520,
			"byteStride": 16,
			"byteOffset": 14974104
		}
	],
	"materials": [
		{
			"pbrMetallicRoughness": {
				"baseColorFactor": [0.1137255, 0.1137255, 0.1568628, 1],
				"metallicFactor": 0,
				"roughnessFactor": 1
			},
			"emissiveFactor": [0, 0, 0],
			"doubleSided": false,
			"name": "02 - Default"
		},
		{
			"pbrMetallicRoughness": {
				"baseColorFactor": [0.9490197, 0.9490197, 0.9490197, 1],
				"metallicFactor": 0,
				"roughnessFactor": 1
			},
			"emissiveFactor": [0, 0, 0],
			"doubleSided": false,
			"name": "snow"
		}
	],
	"meshes": [
		{
			"name": "mesh_Box002_11478Box002",
			"primitives": [
				{
					"attributes": {
						"POSITION": 0,
						"NORMAL": 1,
						"TEXCOORD_0": 2,
						"TANGENT": 3
					},
					"indices": 4,
					"material": 0,
					"mode": 4
				}
			]
		},
		{
			"name": "mesh_Box004_11482Box004",
			"primitives": [
				{
					"attributes": {
						"POSITION": 5,
						"NORMAL": 6,
						"TEXCOORD_0": 7,
						"TANGENT": 8
					},
					"indices": 9,
					"material": 1,
					"mode": 4
				}
			]
		},
		{
			"name": "mesh_Box005_11492Box005",
			"primitives": [
				{
					"attributes": {
						"POSITION": 10,
						"NORMAL": 11,
						"TEXCOORD_0": 12,
						"TANGENT": 13
					},
					"indices": 14,
					"material": 1,
					"mode": 4
				}
			]
		},
		{
			"name": "mesh_original mountain_11486original mountain",
			"primitives": [
				{
					"attributes": {
						"POSITION": 15,
						"NORMAL": 16,
						"TEXCOORD_0": 17,
						"TANGENT": 18
					},
					"indices": 19,
					"material": 1,
					"mode": 4
				}
			]
		},
		{
			"name": "mesh_original mountain's snow_11488original mountain's snow",
			"primitives": [
				{
					"attributes": {
						"POSITION": 20,
						"NORMAL": 21,
						"TEXCOORD_0": 22,
						"TANGENT": 23
					},
					"indices": 24,
					"material": 1,
					"mode": 4
				}
			]
		},
		{
			"name": "mesh_original mountain001_11490original mountain001",
			"primitives": [
				{
					"attributes": {
						"POSITION": 25,
						"NORMAL": 26,
						"TEXCOORD_0": 27,
						"TANGENT": 28
					},
					"indices": 29,
					"material": 0,
					"mode": 4
				}
			]
		},
		{
			"name": "mesh_Pyramid003_11484Pyramid003",
			"primitives": [
				{
					"attributes": {
						"POSITION": 30,
						"NORMAL": 31,
						"TEXCOORD_0": 32,
						"TANGENT": 33
					},
					"indices": 34,
					"material": 0,
					"mode": 4
				}
			]
		},
		{
			"name": "mesh_snow_11480snow",
			"primitives": [
				{
					"attributes": {
						"POSITION": 35,
						"NORMAL": 36,
						"TEXCOORD_0": 37,
						"TANGENT": 38
					},
					"indices": 39,
					"material": 1,
					"mode": 4
				}
			]
		}
	],
	"nodes": [
		{
			"name": "UnityGlTF_root",
			"children": [
				9
			]
		},
		{
			"name": "node_Box002_-4676",
			"mesh": 0,
			"translation": [ 5.346118, -0.1208798, 3.021],
			"scale": [ 1, 1, 1.035071],
			"rotation": [-0.7071068, 0, 0, -0.7071068]
		},
		{
			"name": "node_Box004_-4678",
			"mesh": 1,
			"translation": [ 5.346118, -0.8759619, 3.021],
			"rotation": [-0.7071068, 0, 0, -0.7071068]
		},
		{
			"name": "node_Box005_-4680",
			"mesh": 2,
			"translation": [ 5.346118, -0.1844946, 3.021],
			"rotation": [-0.7071068, 0, 0, -0.7071068]
		},
		{
			"name": "node_original mountain_-4682",
			"mesh": 3,
			"translation": [ 5.346118, 0.4067541, 3.021],
			"rotation": [-0.7071068, 0, 0, -0.7071068]
		},
		{
			"name": "node_original mountain's snow_-4684",
			"mesh": 4,
			"translation": [ 5.346118, -1.295335, 3.021],
			"rotation": [-0.7071068, 0, 0, -0.7071068]
		},
		{
			"name": "node_original mountain001_-4686",
			"mesh": 5,
			"translation": [ 5.346118, 0.3610764, 3.021],
			"rotation": [-0.7071068, 0, 0, -0.7071068]
		},
		{
			"name": "node_Pyramid003_-4688",
			"mesh": 6,
			"translation": [ 5.454634, 5E-05, 2.981456],
			"scale": [ 1, 1, 0.9675292],
			"rotation": [-0.6825735, -0.1846441, 0.1846441, -0.6825735]
		},
		{
			"name": "node_snow_-4690",
			"mesh": 7,
			"translation": [ 5.346118, -0.8445163, 3.021],
			"rotation": [-0.7071068, 0, 0, -0.7071068]
		},
		{
			"name": "node__-4692",
			"children": [
				1,
				2,
				3,
				4,
				5,
				6,
				7,
				8
			],
			"matrix": [1, 0, 0, 0, 0, 1, 0, 0, 0, 0, 1, 0, 0, 0, 0, 1]
		}
	],
	"scenes": [
		{
			"name":"defaultScene",
			"nodes": [
				0
			]
		}
	],
	"scene": 0
}