{
	"asset": {
		"generator": "Unity 2018.3.11f1",
		"extras": {
			"exporterVersion" : "2.2.1"
		},
		"version": "2.0"
	},
	"accessors": [
		{
			"bufferView": 3,
			"byteOffset": 0,
			"componentType": 5126,
			"count": 121,
			"max": [ 5, 1.110223E-16, 5 ],
			"min": [ -5, -1.110223E-16, -5 ],
			"type": "VEC3"
		},
		{
			"bufferView": 3,
			"byteOffset": 1452,
			"componentType": 5126,
			"count": 121,
			"max": [ 0, 1, 0 ],
			"min": [ 0, 1, 0 ],
			"type": "VEC3"
		},
		{
			"bufferView": 2,
			"byteOffset": 0,
			"componentType": 5126,
			"count": 121,
			"max": [ 1, 1 ],
			"min": [ 0, 0 ],
			"type": "VEC2"
		},
		{
			"bufferView": 4,
			"byteOffset": 0,
			"componentType": 5126,
			"count": 121,
			"max": [ -1, 0, 0, 1 ],
			"min": [ -1, 0, 0, 1 ],
			"type": "VEC4"
		},
		{
			"bufferView": 0,
			"byteOffset": 0,
			"componentType": 5123,
			"count": 600,
			"max": [ 120 ],
			"min": [ 0 ],
			"type": "SCALAR"
		},
		{
			"bufferView": 3,
			"byteOffset": 2904,
			"componentType": 5126,
			"count": 121,
			"max": [ 5, 1.110223E-16, 5 ],
			"min": [ -5, -1.110223E-16, -5 ],
			"type": "VEC3"
		},
		{
			"bufferView": 3,
			"byteOffset": 4356,
			"componentType": 5126,
			"count": 121,
			"max": [ 0, 1, 0 ],
			"min": [ 0, 1, 0 ],
			"type": "VEC3"
		},
		{
			"bufferView": 2,
			"byteOffset": 968,
			"componentType": 5126,
			"count": 121,
			"max": [ 1, 1 ],
			"min": [ 0, 0 ],
			"type": "VEC2"
		},
		{
			"bufferView": 4,
			"byteOffset": 1936,
			"componentType": 5126,
			"count": 121,
			"max": [ -1, 0, 0, 1 ],
			"min": [ -1, 0, 0, 1 ],
			"type": "VEC4"
		},
		{
			"bufferView": 0,
			"byteOffset": 1200,
			"componentType": 5123,
			"count": 600,
			"max": [ 120 ],
			"min": [ 0 ],
			"type": "SCALAR"
		},
		{
			"bufferView": 3,
			"byteOffset": 5808,
			"componentType": 5126,
			"count": 121,
			"max": [ 5, 1.110223E-16, 5 ],
			"min": [ -5, -1.110223E-16, -5 ],
			"type": "VEC3"
		},
		{
			"bufferView": 3,
			"byteOffset": 7260,
			"componentType": 5126,
			"count": 121,
			"max": [ 0, 1, 0 ],
			"min": [ 0, 1, 0 ],
			"type": "VEC3"
		},
		{
			"bufferView": 2,
			"byteOffset": 1936,
			"componentType": 5126,
			"count": 121,
			"max": [ 1, 1 ],
			"min": [ 0, 0 ],
			"type": "VEC2"
		},
		{
			"bufferView": 4,
			"byteOffset": 3872,
			"componentType": 5126,
			"count": 121,
			"max": [ -1, 0, 0, 1 ],
			"min": [ -1, 0, 0, 1 ],
			"type": "VEC4"
		},
		{
			"bufferView": 0,
			"byteOffset": 2400,
			"componentType": 5123,
			"count": 600,
			"max": [ 120 ],
			"min": [ 0 ],
			"type": "SCALAR"
		},
		{
			"bufferView": 3,
			"byteOffset": 8712,
			"componentType": 5126,
			"count": 404,
			"max": [ 0.8299502, 0.1605674, 0 ],
			"min": [ -0.675071, -0.7366379, -1.028914 ],
			"type": "VEC3"
		},
		{
			"bufferView": 3,
			"byteOffset": 13560,
			"componentType": 5126,
			"count": 404,
			"max": [ 1, 1, 1 ],
			"min": [ -1, -1, -1 ],
			"type": "VEC3"
		},
		{
			"bufferView": 4,
			"byteOffset": 5808,
			"componentType": 5126,
			"count": 404,
			"max": [ 1, 0, 0, 1 ],
			"min": [ 1, 0, 0, 1 ],
			"type": "VEC4"
		},
		{
			"bufferView": 0,
			"byteOffset": 3600,
			"componentType": 5123,
			"count": 888,
			"max": [ 403 ],
			"min": [ 0 ],
			"type": "SCALAR"
		},
		{
			"bufferView": 1,
			"byteOffset": 0,
			"componentType": 5126,
			"count": 60,
			"max": [ 1.966667 ],
			"min": [ 0 ],
			"type": "SCALAR"
		},
		{
			"bufferView": 5,
			"byteOffset": 0,
			"componentType": 5126,
			"count": 60,
			"max": [ -0.66, 1.45, 0 ],
			"min": [ -0.66, -3.38, 0 ],
			"type": "VEC3"
		},
		{
			"bufferView": 6,
			"byteOffset": 0,
			"componentType": 5126,
			"count": 60,
			"max": [ 2.185569E-08, 0, 0, -1 ],
			"min": [ 2.185569E-08, 0, 0, -1 ],
			"type": "VEC4"
		},
		{
			"bufferView": 5,
			"byteOffset": 720,
			"componentType": 5126,
			"count": 60,
			"max": [ 8, 8, 8 ],
			"min": [ 8, 8, 8 ],
			"type": "VEC3"
		},
		{
			"bufferView": 3,
			"byteOffset": 18408,
			"componentType": 5126,
			"count": 121,
			"max": [ 5, 1.110223E-16, 5 ],
			"min": [ -5, -1.110223E-16, -5 ],
			"type": "VEC3"
		},
		{
			"bufferView": 3,
			"byteOffset": 19860,
			"componentType": 5126,
			"count": 121,
			"max": [ 0, 1, 0 ],
			"min": [ 0, 1, 0 ],
			"type": "VEC3"
		},
		{
			"bufferView": 2,
			"byteOffset": 2904,
			"componentType": 5126,
			"count": 121,
			"max": [ 1, 1 ],
			"min": [ 0, 0 ],
			"type": "VEC2"
		},
		{
			"bufferView": 4,
			"byteOffset": 12272,
			"componentType": 5126,
			"count": 121,
			"max": [ -1, 0, 0, 1 ],
			"min": [ -1, 0, 0, 1 ],
			"type": "VEC4"
		},
		{
			"bufferView": 0,
			"byteOffset": 5376,
			"componentType": 5123,
			"count": 600,
			"max": [ 120 ],
			"min": [ 0 ],
			"type": "SCALAR"
		},
		{
			"bufferView": 3,
			"byteOffset": 21312,
			"componentType": 5126,
			"count": 121,
			"max": [ 5, 1.110223E-16, 5 ],
			"min": [ -5, -1.110223E-16, -5 ],
			"type": "VEC3"
		},
		{
			"bufferView": 3,
			"byteOffset": 22764,
			"componentType": 5126,
			"count": 121,
			"max": [ 0, 1, 0 ],
			"min": [ 0, 1, 0 ],
			"type": "VEC3"
		},
		{
			"bufferView": 2,
			"byteOffset": 3872,
			"componentType": 5126,
			"count": 121,
			"max": [ 1, 1 ],
			"min": [ 0, 0 ],
			"type": "VEC2"
		},
		{
			"bufferView": 4,
			"byteOffset": 14208,
			"componentType": 5126,
			"count": 121,
			"max": [ -1, 0, 0, 1 ],
			"min": [ -1, 0, 0, 1 ],
			"type": "VEC4"
		},
		{
			"bufferView": 0,
			"byteOffset": 6576,
			"componentType": 5123,
			"count": 600,
			"max": [ 120 ],
			"min": [ 0 ],
			"type": "SCALAR"
		},
		{
			"bufferView": 3,
			"byteOffset": 24216,
			"componentType": 5126,
			"count": 121,
			"max": [ 5, 1.110223E-16, 5 ],
			"min": [ -5, -1.110223E-16, -5 ],
			"type": "VEC3"
		},
		{
			"bufferView": 3,
			"byteOffset": 25668,
			"componentType": 5126,
			"count": 121,
			"max": [ 0, 1, 0 ],
			"min": [ 0, 1, 0 ],
			"type": "VEC3"
		},
		{
			"bufferView": 2,
			"byteOffset": 4840,
			"componentType": 5126,
			"count": 121,
			"max": [ 1, 1 ],
			"min": [ 0, 0 ],
			"type": "VEC2"
		},
		{
			"bufferView": 4,
			"byteOffset": 16144,
			"componentType": 5126,
			"count": 121,
			"max": [ -1, 0, 0, 1 ],
			"min": [ -1, 0, 0, 1 ],
			"type": "VEC4"
		},
		{
			"bufferView": 0,
			"byteOffset": 7776,
			"componentType": 5123,
			"count": 600,
			"max": [ 120 ],
			"min": [ 0 ],
			"type": "SCALAR"
		},
		{
			"bufferView": 3,
			"byteOffset": 27120,
			"componentType": 5126,
			"count": 121,
			"max": [ 5, 1.110223E-16, 5 ],
			"min": [ -5, -1.110223E-16, -5 ],
			"type": "VEC3"
		},
		{
			"bufferView": 3,
			"byteOffset": 28572,
			"componentType": 5126,
			"count": 121,
			"max": [ 0, 1, 0 ],
			"min": [ 0, 1, 0 ],
			"type": "VEC3"
		},
		{
			"bufferView": 2,
			"byteOffset": 5808,
			"componentType": 5126,
			"count": 121,
			"max": [ 1, 1 ],
			"min": [ 0, 0 ],
			"type": "VEC2"
		},
		{
			"bufferView": 4,
			"byteOffset": 18080,
			"componentType": 5126,
			"count": 121,
			"max": [ -1, 0, 0, 1 ],
			"min": [ -1, 0, 0, 1 ],
			"type": "VEC4"
		},
		{
			"bufferView": 0,
			"byteOffset": 8976,
			"componentType": 5123,
			"count": 600,
			"max": [ 120 ],
			"min": [ 0 ],
			"type": "SCALAR"
		},
		{
			"bufferView": 3,
			"byteOffset": 30024,
			"componentType": 5126,
			"count": 121,
			"max": [ 5, 1.110223E-16, 5 ],
			"min": [ -5, -1.110223E-16, -5 ],
			"type": "VEC3"
		},
		{
			"bufferView": 3,
			"byteOffset": 31476,
			"componentType": 5126,
			"count": 121,
			"max": [ 0, 1, 0 ],
			"min": [ 0, 1, 0 ],
			"type": "VEC3"
		},
		{
			"bufferView": 2,
			"byteOffset": 6776,
			"componentType": 5126,
			"count": 121,
			"max": [ 1, 1 ],
			"min": [ 0, 0 ],
			"type": "VEC2"
		},
		{
			"bufferView": 4,
			"byteOffset": 20016,
			"componentType": 5126,
			"count": 121,
			"max": [ -1, 0, 0, 1 ],
			"min": [ -1, 0, 0, 1 ],
			"type": "VEC4"
		},
		{
			"bufferView": 0,
			"byteOffset": 10176,
			"componentType": 5123,
			"count": 600,
			"max": [ 120 ],
			"min": [ 0 ],
			"type": "SCALAR"
		},
		{
			"bufferView": 3,
			"byteOffset": 32928,
			"componentType": 5126,
			"count": 121,
			"max": [ 5, 1.110223E-16, 5 ],
			"min": [ -5, -1.110223E-16, -5 ],
			"type": "VEC3"
		},
		{
			"bufferView": 3,
			"byteOffset": 34380,
			"componentType": 5126,
			"count": 121,
			"max": [ 0, 1, 0 ],
			"min": [ 0, 1, 0 ],
			"type": "VEC3"
		},
		{
			"bufferView": 2,
			"byteOffset": 7744,
			"componentType": 5126,
			"count": 121,
			"max": [ 1, 1 ],
			"min": [ 0, 0 ],
			"type": "VEC2"
		},
		{
			"bufferView": 4,
			"byteOffset": 21952,
			"componentType": 5126,
			"count": 121,
			"max": [ -1, 0, 0, 1 ],
			"min": [ -1, 0, 0, 1 ],
			"type": "VEC4"
		},
		{
			"bufferView": 0,
			"byteOffset": 11376,
			"componentType": 5123,
			"count": 600,
			"max": [ 120 ],
			"min": [ 0 ],
			"type": "SCALAR"
		},
		{
			"bufferView": 3,
			"byteOffset": 35832,
			"componentType": 5126,
			"count": 390,
			"max": [ 0.7351438, 0.2009786, 0 ],
			"min": [ -0.8402323, -0.6284956, -1.028914 ],
			"type": "VEC3"
		},
		{
			"bufferView": 3,
			"byteOffset": 40512,
			"componentType": 5126,
			"count": 390,
			"max": [ 1, 1, 1 ],
			"min": [ -1, -1, -1 ],
			"type": "VEC3"
		},
		{
			"bufferView": 4,
			"byteOffset": 23888,
			"componentType": 5126,
			"count": 390,
			"max": [ 1, 0, 0, 1 ],
			"min": [ 1, 0, 0, 1 ],
			"type": "VEC4"
		},
		{
			"bufferView": 0,
			"byteOffset": 12576,
			"componentType": 5123,
			"count": 876,
			"max": [ 389 ],
			"min": [ 0 ],
			"type": "SCALAR"
		},
		{
			"bufferView": 3,
			"byteOffset": 45192,
			"componentType": 5126,
			"count": 690,
			"max": [ 0.9454119, 0.4154692, 0 ],
			"min": [ -0.9513755, -0.5614475, -1.034588 ],
			"type": "VEC3"
		},
		{
			"bufferView": 3,
			"byteOffset": 53472,
			"componentType": 5126,
			"count": 690,
			"max": [ 1, 1, 1 ],
			"min": [ -1, -1, -1 ],
			"type": "VEC3"
		},
		{
			"bufferView": 4,
			"byteOffset": 30128,
			"componentType": 5126,
			"count": 690,
			"max": [ 1, 0, 0, 1 ],
			"min": [ 1, 0, 0, 1 ],
			"type": "VEC4"
		},
		{
			"bufferView": 0,
			"byteOffset": 14328,
			"componentType": 5123,
			"count": 1512,
			"max": [ 689 ],
			"min": [ 0 ],
			"type": "SCALAR"
		},
		{
			"bufferView": 3,
			"byteOffset": 61752,
			"componentType": 5126,
			"count": 342,
			"max": [ 0.5306914, 0.1580389, 0 ],
			"min": [ -0.5747046, -0.4776222, -1.030805 ],
			"type": "VEC3"
		},
		{
			"bufferView": 3,
			"byteOffset": 65856,
			"componentType": 5126,
			"count": 342,
			"max": [ 0.9999274, 1, 1 ],
			"min": [ -1, -1, -1 ],
			"type": "VEC3"
		},
		{
			"bufferView": 4,
			"byteOffset": 41168,
			"componentType": 5126,
			"count": 342,
			"max": [ 1, 0, 0, 1 ],
			"min": [ 1, 0, 0, 1 ],
			"type": "VEC4"
		},
		{
			"bufferView": 0,
			"byteOffset": 17352,
			"componentType": 5123,
			"count": 780,
			"max": [ 341 ],
			"min": [ 0 ],
			"type": "SCALAR"
		},
		{
			"bufferView": 1,
			"byteOffset": 240,
			"componentType": 5126,
			"count": 60,
			"max": [ 1.966667 ],
			"min": [ 0 ],
			"type": "SCALAR"
		},
		{
			"bufferView": 5,
			"byteOffset": 1440,
			"componentType": 5126,
			"count": 60,
			"max": [ 0, 0, 0 ],
			"min": [ 0, -3.04, 0 ],
			"type": "VEC3"
		},
		{
			"bufferView": 6,
			"byteOffset": 960,
			"componentType": 5126,
			"count": 60,
			"max": [ 2.185569E-08, 0, 0, -1 ],
			"min": [ 2.185569E-08, 0, 0, -1 ],
			"type": "VEC4"
		},
		{
			"bufferView": 5,
			"byteOffset": 2160,
			"componentType": 5126,
			"count": 60,
			"max": [ 8, 8, 8 ],
			"min": [ 8, 8, 8 ],
			"type": "VEC3"
		},
		{
			"bufferView": 3,
			"byteOffset": 69960,
			"componentType": 5126,
			"count": 586,
			"max": [ 0.4994307, 0.131144, 0 ],
			"min": [ -0.5299838, -0.3978319, -1.034588 ],
			"type": "VEC3"
		},
		{
			"bufferView": 3,
			"byteOffset": 76992,
			"componentType": 5126,
			"count": 586,
			"max": [ 1, 1, 1 ],
			"min": [ -1, -1, -1 ],
			"type": "VEC3"
		},
		{
			"bufferView": 4,
			"byteOffset": 46640,
			"componentType": 5126,
			"count": 586,
			"max": [ 1, 0, 0, 1 ],
			"min": [ 1, 0, 0, 1 ],
			"type": "VEC4"
		},
		{
			"bufferView": 0,
			"byteOffset": 18912,
			"componentType": 5123,
			"count": 1368,
			"max": [ 585 ],
			"min": [ 0 ],
			"type": "SCALAR"
		}
	],
	"animations": [
		{
			"name": "1",
			"channels": [
				{
					"sampler": 0,
					"target": {
						"node": 4,
						"path": "translation"
					}
				},
				{
					"sampler": 1,
					"target": {
						"node": 4,
						"path": "rotation"
					}
				},
				{
					"sampler": 2,
					"target": {
						"node": 4,
						"path": "scale"
					}
				}
			],
			"samplers": [
				{
					"input": 19,
					"interpolation": "LINEAR",
					"output": 20
				},
				{
					"input": 19,
					"interpolation": "LINEAR",
					"output": 21
				},
				{
					"input": 19,
					"interpolation": "LINEAR",
					"output": 22
				}
			]
		},
		{
			"name": "2",
			"channels": [
				{
					"sampler": 0,
					"target": {
						"node": 14,
						"path": "translation"
					}
				},
				{
					"sampler": 1,
					"target": {
						"node": 14,
						"path": "rotation"
					}
				},
				{
					"sampler": 2,
					"target": {
						"node": 14,
						"path": "scale"
					}
				}
			],
			"samplers": [
				{
					"input": 65,
					"interpolation": "LINEAR",
					"output": 66
				},
				{
					"input": 65,
					"interpolation": "LINEAR",
					"output": 67
				},
				{
					"input": 65,
					"interpolation": "LINEAR",
					"output": 68
				}
			]
		}
	],
	"buffers": [
		{
			"byteLength": 175680,
			"uri": "堆积基座阶地.bin"
		}
	],
	"bufferViews": [
		{
			"buffer": 0,
			"byteLength": 21648,
			"target": 34963,
			"byteOffset": 149232
		},
		{
			"buffer": 0,
			"byteLength": 480,
			"byteOffset": 0
		},
		{
			"buffer": 0,
			"byteLength": 8712,
			"target": 34962,
			"byteStride": 8,
			"byteOffset": 480
		},
		{
			"buffer": 0,
			"byteLength": 84024,
			"target": 34962,
			"byteStride": 12,
			"byteOffset": 9192
		},
		{
			"buffer": 0,
			"byteLength": 56016,
			"target": 34962,
			"byteStride": 16,
			"byteOffset": 93216
		},
		{
			"buffer": 0,
			"byteLength": 2880,
			"byteStride": 12,
			"byteOffset": 170880
		},
		{
			"buffer": 0,
			"byteLength": 1920,
			"byteStride": 16,
			"byteOffset": 173760
		}
	],
	"images": [
		{
			"uri": "/Assets/Models/傻不啦叽的河谷类型/Textures/Grass (Meadows).jpg"
		},
		{
			"uri": "/Assets/Models/傻不啦叽的河谷类型/Textures/GoodDirt.jpg"
		}
	],
	"materials": [
		{
			"pbrMetallicRoughness": {
				"baseColorFactor": [0.1294118, 0.2, 0.3647059, 1],
				"metallicFactor": 0,
				"roughnessFactor": 0.5
			},
			"emissiveFactor": [0, 0, 0],
			"doubleSided": false,
			"name": ""
		},
		{
			"pbrMetallicRoughness": {
				"baseColorTexture" : {
					"index" : 0,
					"texCoord" : 0
				},
				"baseColorFactor": [0.5882353, 0.5882353, 0.5882353, 1],
				"metallicFactor": 0,
				"roughnessFactor": 1
			},
			"emissiveFactor": [0, 0, 0],
			"doubleSided": false,
			"name": "02 - Default"
		},
		{
			"pbrMetallicRoughness": {
				"baseColorTexture" : {
					"index" : 1,
					"texCoord" : 0
				},
				"baseColorFactor": [0.5882353, 0.5882353, 0.5882353, 1],
				"metallicFactor": 0,
				"roughnessFactor": 1
			},
			"emissiveFactor": [0, 0, 0],
			"doubleSided": false,
			"name": "01 - Default"
		}
	],
	"meshes": [
		{
			"name": "mesh__3722 (3)",
			"primitives": [
				{
					"attributes": {
						"POSITION": 0,
						"NORMAL": 1,
						"TEXCOORD_0": 2,
						"TANGENT": 3
					},
					"indices": 4,
					"material": 0,
					"mode": 4
				}
			]
		},
		{
			"name": "mesh__3722 (1)",
			"primitives": [
				{
					"attributes": {
						"POSITION": 5,
						"NORMAL": 6,
						"TEXCOORD_0": 7,
						"TANGENT": 8
					},
					"indices": 9,
					"material": 0,
					"mode": 4
				}
			]
		},
		{
			"name": "mesh__3722 (2)",
			"primitives": [
				{
					"attributes": {
						"POSITION": 10,
						"NORMAL": 11,
						"TEXCOORD_0": 12,
						"TANGENT": 13
					},
					"indices": 14,
					"material": 0,
					"mode": 4
				}
			]
		},
		{
			"name": "mesh_Line020_30921",
			"primitives": [
				{
					"attributes": {
						"POSITION": 15,
						"NORMAL": 16,
						"TANGENT": 17
					},
					"indices": 18,
					"material": 1,
					"mode": 4
				}
			]
		},
		{
			"name": "mesh__3722 (1)",
			"primitives": [
				{
					"attributes": {
						"POSITION": 23,
						"NORMAL": 24,
						"TEXCOORD_0": 25,
						"TANGENT": 26
					},
					"indices": 27,
					"material": 0,
					"mode": 4
				}
			]
		},
		{
			"name": "mesh__3722 (2)",
			"primitives": [
				{
					"attributes": {
						"POSITION": 28,
						"NORMAL": 29,
						"TEXCOORD_0": 30,
						"TANGENT": 31
					},
					"indices": 32,
					"material": 0,
					"mode": 4
				}
			]
		},
		{
			"name": "mesh__3722 (1)",
			"primitives": [
				{
					"attributes": {
						"POSITION": 33,
						"NORMAL": 34,
						"TEXCOORD_0": 35,
						"TANGENT": 36
					},
					"indices": 37,
					"material": 0,
					"mode": 4
				}
			]
		},
		{
			"name": "mesh__3722 (3)",
			"primitives": [
				{
					"attributes": {
						"POSITION": 38,
						"NORMAL": 39,
						"TEXCOORD_0": 40,
						"TANGENT": 41
					},
					"indices": 42,
					"material": 0,
					"mode": 4
				}
			]
		},
		{
			"name": "mesh__3722 (2)",
			"primitives": [
				{
					"attributes": {
						"POSITION": 43,
						"NORMAL": 44,
						"TEXCOORD_0": 45,
						"TANGENT": 46
					},
					"indices": 47,
					"material": 0,
					"mode": 4
				}
			]
		},
		{
			"name": "mesh__3722 (2)",
			"primitives": [
				{
					"attributes": {
						"POSITION": 48,
						"NORMAL": 49,
						"TEXCOORD_0": 50,
						"TANGENT": 51
					},
					"indices": 52,
					"material": 0,
					"mode": 4
				}
			]
		},
		{
			"name": "mesh_Line018_27442",
			"primitives": [
				{
					"attributes": {
						"POSITION": 53,
						"NORMAL": 54,
						"TANGENT": 55
					},
					"indices": 56,
					"material": 1,
					"mode": 4
				}
			]
		},
		{
			"name": "mesh_Line017_146641",
			"primitives": [
				{
					"attributes": {
						"POSITION": 57,
						"NORMAL": 58,
						"TANGENT": 59
					},
					"indices": 60,
					"material": 2,
					"mode": 4
				}
			]
		},
		{
			"name": "mesh_Line021_29362",
			"primitives": [
				{
					"attributes": {
						"POSITION": 61,
						"NORMAL": 62,
						"TANGENT": 63
					},
					"indices": 64,
					"material": 1,
					"mode": 4
				}
			]
		},
		{
			"name": "mesh_Line019_39443",
			"primitives": [
				{
					"attributes": {
						"POSITION": 69,
						"NORMAL": 70,
						"TANGENT": 71
					},
					"indices": 72,
					"material": 1,
					"mode": 4
				}
			]
		}
	],
	"nodes": [
		{
			"name": "UnityGlTF_root",
			"children": [
				11
			]
		},
		{
			"name": "node_ (3)_-40216",
			"mesh": 0,
			"children": [
				2,
				3
			],
			"translation": [ 0.116, -0.044, -0.521],
			"scale": [ 0.1031514, 0.0125, 0.02330879],
			"rotation": [-1.545431E-08, -0.7071068, -1.545431E-08, -0.7071068]
		},
		{
			"name": "node_ (1)_-40206",
			"mesh": 1,
			"translation": [ 4.911, -4, 0.48],
			"scale": [ 0.7528046, 0.1855011, 0.7868782],
			"rotation": [0.4994745, 0.500525, 0.500525, -0.4994745]
		},
		{
			"name": "node_ (2)_-40200",
			"mesh": 2,
			"translation": [ -5.009, -3.91, -0.18],
			"scale": [ 0.7528356, 0.1855011, 0.7869003],
			"rotation": [0.5009074, -0.499091, -0.499091, -0.5009074]
		},
		{
			"name": "node_1_-32152",
			"mesh": 3,
			"children": [
				1
			],
			"translation": [ -0.66, 1.45, 0],
			"scale": [ 8, 8, 8]
		},
		{
			"name": "node_ (1)_-38342",
			"mesh": 4,
			"translation": [ 4.96, -4, 0.5],
			"scale": [ 0.7528046, 0.1855011, 0.7868782],
			"rotation": [0.4994745, 0.500525, 0.500525, -0.4994745]
		},
		{
			"name": "node_ (2)_-38332",
			"mesh": 5,
			"children": [
				5,
				10
			],
			"translation": [ -0.29, -3.13, -4.1715],
			"scale": [ 0.8252127, 0.09999999, 0.1274401],
			"rotation": [0, -0.7071068, 0, -0.7071068]
		},
		{
			"name": "node_ (1)_-40676",
			"mesh": 6,
			"translation": [ 4.914, -4, 0.48],
			"scale": [ 0.7528046, 0.1855011, 0.7868782],
			"rotation": [0.4994745, 0.500525, 0.500525, -0.4994745]
		},
		{
			"name": "node_ (3)_-40686",
			"mesh": 7,
			"children": [
				7,
				9
			],
			"translation": [ -0.019, -0.054, -0.521],
			"scale": [ 0.1031514, 0.0125, 0.01593001],
			"rotation": [-1.545431E-08, -0.7071068, -1.545431E-08, -0.7071068]
		},
		{
			"name": "node_ (2)_-40670",
			"mesh": 8,
			"translation": [ -5.009, -3.91, 0.43],
			"scale": [ 0.7528356, 0.1855011, 0.7869003],
			"rotation": [0.5009074, -0.499091, -0.499091, -0.5009074]
		},
		{
			"name": "node_ (2)_-38348",
			"mesh": 9,
			"translation": [ -5.009, -3.91, 0.43],
			"scale": [ 0.7528356, 0.1855011, 0.7869003],
			"rotation": [0.5009074, -0.499091, -0.499091, -0.5009074]
		},
		{
			"name": "node__-31792",
			"children": [
				6,
				13,
				12,
				15,
				4,
				14
			],
			"matrix": [1, 0, 0, 0, 0, 1, 0, 0, 0, 0, 1, 0, 0, 0, 0, 1]
		},
		{
			"name": "node_2_-31992",
			"mesh": 10,
			"translation": [ 0.71, 0.96, 0],
			"scale": [ 8, 8, 8]
		},
		{
			"name": "node_1_-35382",
			"mesh": 11,
			"scale": [ 8, 8, 8]
		},
		{
			"name": "node_2_-32232",
			"mesh": 12,
			"children": [
				8
			],
			"translation": [ 0, -3.04, 0],
			"scale": [ 8, 8, 8]
		},
		{
			"name": "node_3_-32072",
			"mesh": 13,
			"translation": [ 0, -0.79, 0],
			"scale": [ 8, 8, 8]
		}
	],
	"samplers": [
		{
			"magFilter": 9729,
			"minFilter": 9985,
			"wrapS": 10497,
			"wrapT": 10497
		}
	],
	"scenes": [
		{
			"name":"defaultScene",
			"nodes": [
				0
			]
		}
	],
	"scene": 0,
	"textures": [
		{
			"sampler": 0,
			"source": 0
		},
		{
			"sampler": 0,
			"source": 1
		}
	]
}