{
	"asset": {
		"generator": "Unity 2018.3.11f1",
		"extras": {
			"exporterVersion" : "2.2.1"
		},
		"version": "2.0"
	},
	"accessors": [
		{
			"bufferView": 3,
			"byteOffset": 0,
			"componentType": 5126,
			"count": 66049,
			"max": [ 50, 0, 0 ],
			"min": [ 0, 0, -50 ],
			"type": "VEC3"
		},
		{
			"bufferView": 3,
			"byteOffset": 792588,
			"componentType": 5126,
			"count": 66049,
			"max": [ 0, 1, 0 ],
			"min": [ 0, 1, 0 ],
			"type": "VEC3"
		},
		{
			"bufferView": 2,
			"byteOffset": 0,
			"componentType": 5126,
			"count": 66049,
			"max": [ 1, 1 ],
			"min": [ 0, 0 ],
			"type": "VEC2"
		},
		{
			"bufferView": 4,
			"byteOffset": 0,
			"componentType": 5126,
			"count": 66049,
			"max": [ 0, 0, -1, -1 ],
			"min": [ 0, 0, -1, -1 ],
			"type": "VEC4"
		},
		{
			"bufferView": 0,
			"byteOffset": 0,
			"componentType": 5123,
			"count": 393216,
			"max": [ 66048 ],
			"min": [ 0 ],
			"type": "SCALAR"
		},
		{
			"bufferView": 1,
			"byteOffset": 0,
			"componentType": 5126,
			"count": 20,
			"max": [ 0.6333334 ],
			"min": [ 0 ],
			"type": "SCALAR"
		},
		{
			"bufferView": 5,
			"byteOffset": 0,
			"componentType": 5126,
			"count": 20,
			"max": [ 0, 0, 0 ],
			"min": [ 0, 0, 0 ],
			"type": "VEC3"
		},
		{
			"bufferView": 6,
			"byteOffset": 0,
			"componentType": 5126,
			"count": 20,
			"max": [ 0, 0, 0, -1 ],
			"min": [ 0, 0, 0, -1 ],
			"type": "VEC4"
		},
		{
			"bufferView": 5,
			"byteOffset": 240,
			"componentType": 5126,
			"count": 20,
			"max": [ 0, 0, 0 ],
			"min": [ 0, 0, 0 ],
			"type": "VEC3"
		},
		{
			"bufferView": 1,
			"byteOffset": 80,
			"componentType": 5126,
			"count": 20,
			"max": [ 0.6333334 ],
			"min": [ 0 ],
			"type": "SCALAR"
		},
		{
			"bufferView": 5,
			"byteOffset": 480,
			"componentType": 5126,
			"count": 20,
			"max": [ 0, 0, 0 ],
			"min": [ 0, 0, 0 ],
			"type": "VEC3"
		},
		{
			"bufferView": 6,
			"byteOffset": 320,
			"componentType": 5126,
			"count": 20,
			"max": [ 0, 0, 0, -1 ],
			"min": [ 0, 0, 0, -1 ],
			"type": "VEC4"
		},
		{
			"bufferView": 5,
			"byteOffset": 720,
			"componentType": 5126,
			"count": 20,
			"max": [ 1, 1, 1 ],
			"min": [ 0, 0, 0 ],
			"type": "VEC3"
		},
		{
			"bufferView": 1,
			"byteOffset": 160,
			"componentType": 5126,
			"count": 20,
			"max": [ 0.6333334 ],
			"min": [ 0 ],
			"type": "SCALAR"
		},
		{
			"bufferView": 5,
			"byteOffset": 960,
			"componentType": 5126,
			"count": 20,
			"max": [ 0, 0, 0 ],
			"min": [ 0, 0, 0 ],
			"type": "VEC3"
		},
		{
			"bufferView": 6,
			"byteOffset": 640,
			"componentType": 5126,
			"count": 20,
			"max": [ 0, 0, 0, -1 ],
			"min": [ 0, 0, 0, -1 ],
			"type": "VEC4"
		},
		{
			"bufferView": 5,
			"byteOffset": 1200,
			"componentType": 5126,
			"count": 20,
			"max": [ 1, 1, 1 ],
			"min": [ 1, 1, 1 ],
			"type": "VEC3"
		},
		{
			"bufferView": 3,
			"byteOffset": 1585176,
			"componentType": 5126,
			"count": 66049,
			"max": [ 50, 0.9155833, 0 ],
			"min": [ 0, 0, -50 ],
			"type": "VEC3"
		},
		{
			"bufferView": 3,
			"byteOffset": 2377764,
			"componentType": 5126,
			"count": 66049,
			"max": [ 0.4181748, 1, 0.5072376 ],
			"min": [ -0.4378357, 0.8343858, -0.5137127 ],
			"type": "VEC3"
		},
		{
			"bufferView": 2,
			"byteOffset": 528392,
			"componentType": 5126,
			"count": 66049,
			"max": [ 1, 1 ],
			"min": [ 0, 0 ],
			"type": "VEC2"
		},
		{
			"bufferView": 4,
			"byteOffset": 1056784,
			"componentType": 5126,
			"count": 66049,
			"max": [ 0.0005951297, 0.5085745, -0.8576055, -1 ],
			"min": [ -0.0006359567, -0.5143081, -1, -1 ],
			"type": "VEC4"
		},
		{
			"bufferView": 0,
			"byteOffset": 786432,
			"componentType": 5123,
			"count": 393216,
			"max": [ 66048 ],
			"min": [ 0 ],
			"type": "SCALAR"
		},
		{
			"bufferView": 3,
			"byteOffset": 3170352,
			"componentType": 5126,
			"count": 66049,
			"max": [ 50, 0.3387658, 0 ],
			"min": [ 0, 0, -50 ],
			"type": "VEC3"
		},
		{
			"bufferView": 3,
			"byteOffset": 3962940,
			"componentType": 5126,
			"count": 66049,
			"max": [ 0.1886938, 1, 0.2319174 ],
			"min": [ -0.1819144, 0.9700105, -0.2311226 ],
			"type": "VEC3"
		},
		{
			"bufferView": 2,
			"byteOffset": 1056784,
			"componentType": 5126,
			"count": 66049,
			"max": [ 1, 1 ],
			"min": [ 0, 0 ],
			"type": "VEC2"
		},
		{
			"bufferView": 4,
			"byteOffset": 2113568,
			"componentType": 5126,
			"count": 66049,
			"max": [ 3.102437E-05, 0.2325337, -0.9725884, -1 ],
			"min": [ -3.764209E-05, -0.2314264, -1, -1 ],
			"type": "VEC4"
		},
		{
			"bufferView": 0,
			"byteOffset": 1572864,
			"componentType": 5123,
			"count": 393216,
			"max": [ 66048 ],
			"min": [ 0 ],
			"type": "SCALAR"
		}
	],
	"animations": [
		{
			"name": "",
			"channels": [
				{
					"sampler": 0,
					"target": {
						"node": 2,
						"path": "translation"
					}
				},
				{
					"sampler": 1,
					"target": {
						"node": 2,
						"path": "rotation"
					}
				},
				{
					"sampler": 2,
					"target": {
						"node": 2,
						"path": "scale"
					}
				},
				{
					"sampler": 3,
					"target": {
						"node": 7,
						"path": "translation"
					}
				},
				{
					"sampler": 4,
					"target": {
						"node": 7,
						"path": "rotation"
					}
				},
				{
					"sampler": 5,
					"target": {
						"node": 7,
						"path": "scale"
					}
				},
				{
					"sampler": 6,
					"target": {
						"node": 5,
						"path": "translation"
					}
				},
				{
					"sampler": 7,
					"target": {
						"node": 5,
						"path": "rotation"
					}
				},
				{
					"sampler": 8,
					"target": {
						"node": 5,
						"path": "scale"
					}
				}
			],
			"samplers": [
				{
					"input": 5,
					"interpolation": "LINEAR",
					"output": 6
				},
				{
					"input": 5,
					"interpolation": "LINEAR",
					"output": 7
				},
				{
					"input": 5,
					"interpolation": "LINEAR",
					"output": 8
				},
				{
					"input": 9,
					"interpolation": "LINEAR",
					"output": 10
				},
				{
					"input": 9,
					"interpolation": "LINEAR",
					"output": 11
				},
				{
					"input": 9,
					"interpolation": "LINEAR",
					"output": 12
				},
				{
					"input": 13,
					"interpolation": "LINEAR",
					"output": 14
				},
				{
					"input": 13,
					"interpolation": "LINEAR",
					"output": 15
				},
				{
					"input": 13,
					"interpolation": "LINEAR",
					"output": 16
				}
			]
		}
	],
	"buffers": [
		{
			"byteLength": 11872992,
			"uri": "风蚀洼地.bin"
		}
	],
	"bufferViews": [
		{
			"buffer": 0,
			"byteLength": 2359296,
			"target": 34963,
			"byteOffset": 9511296
		},
		{
			"buffer": 0,
			"byteLength": 240,
			"byteOffset": 0
		},
		{
			"buffer": 0,
			"byteLength": 1585176,
			"target": 34962,
			"byteStride": 8,
			"byteOffset": 240
		},
		{
			"buffer": 0,
			"byteLength": 4755528,
			"target": 34962,
			"byteStride": 12,
			"byteOffset": 1585416
		},
		{
			"buffer": 0,
			"byteLength": 3170352,
			"target": 34962,
			"byteStride": 16,
			"byteOffset": 6340944
		},
		{
			"buffer": 0,
			"byteLength": 1440,
			"byteStride": 12,
			"byteOffset": 11870592
		},
		{
			"buffer": 0,
			"byteLength": 960,
			"byteStride": 16,
			"byteOffset": 11872032
		}
	],
	"images": [
		{
			"uri": "/Assets/风蚀柱/Texturs/GoodDirt.jpg"
		}
	],
	"materials": [
		{
			"pbrMetallicRoughness": {
				"baseColorTexture" : {
					"index" : 0,
					"texCoord" : 0
				},
				"baseColorFactor": [1, 1, 1, 1],
				"metallicFactor": 0,
				"roughnessFactor": 0.5
			},
			"emissiveFactor": [0, 0, 0],
			"doubleSided": false,
			"name": ""
		}
	],
	"meshes": [
		{
			"name": "mesh_default_10456default",
			"primitives": [
				{
					"attributes": {
						"POSITION": 0,
						"NORMAL": 1,
						"TEXCOORD_0": 2,
						"TANGENT": 3
					},
					"indices": 4,
					"material": 0,
					"mode": 4
				}
			]
		},
		{
			"name": "mesh_default_10602default",
			"primitives": [
				{
					"attributes": {
						"POSITION": 17,
						"NORMAL": 18,
						"TEXCOORD_0": 19,
						"TANGENT": 20
					},
					"indices": 21,
					"material": 0,
					"mode": 4
				}
			]
		},
		{
			"name": "mesh_default_10346default",
			"primitives": [
				{
					"attributes": {
						"POSITION": 22,
						"NORMAL": 23,
						"TEXCOORD_0": 24,
						"TANGENT": 25
					},
					"indices": 26,
					"material": 0,
					"mode": 4
				}
			]
		}
	],
	"nodes": [
		{
			"name": "UnityGlTF_root",
			"children": [
				3
			]
		},
		{
			"name": "node_default_-7106",
			"mesh": 0
		},
		{
			"name": "node_2Terrain_-7098",
			"children": [
				4
			]
		},
		{
			"name": "node__-7094",
			"children": [
				2,
				7,
				5
			],
			"matrix": [1, 0, 0, 0, 0, 1, 0, 0, 0, 0, 1, 0, 1.441392, -1.853443, -7.499532, 1]
		},
		{
			"name": "node_default_-7114",
			"mesh": 1
		},
		{
			"name": "node_0Terrain_-7102",
			"children": [
				1
			]
		},
		{
			"name": "node_default_-7110",
			"mesh": 2
		},
		{
			"name": "node_1Terrain_-7100",
			"children": [
				6
			]
		}
	],
	"samplers": [
		{
			"magFilter": 9729,
			"minFilter": 9985,
			"wrapS": 10497,
			"wrapT": 10497
		}
	],
	"scenes": [
		{
			"name":"defaultScene",
			"nodes": [
				0
			]
		}
	],
	"scene": 0,
	"textures": [
		{
			"sampler": 0,
			"source": 0
		}
	]
}