{
	"asset": {
		"generator": "Unity 2018.3.11f1",
		"extras": {
			"exporterVersion" : "2.2.1"
		},
		"version": "2.0"
	},
	"accessors": [
		{
			"bufferView": 3,
			"byteOffset": 0,
			"componentType": 5126,
			"count": 69,
			"max": [ 0.3490372, 0.1452051, -0.2302597 ],
			"min": [ -0.3549157, -0.3254899, -0.6170207 ],
			"type": "VEC3"
		},
		{
			"bufferView": 3,
			"byteOffset": 828,
			"componentType": 5126,
			"count": 69,
			"max": [ 0.01469798, -0.5726474, -0.6307119 ],
			"min": [ -0.03987113, -0.7759036, -0.8188316 ],
			"type": "VEC3"
		},
		{
			"bufferView": 2,
			"byteOffset": 0,
			"componentType": 5126,
			"count": 69,
			"max": [ 0.8493263, 0.8285476 ],
			"min": [ 0.1564593, 0.3209873 ],
			"type": "VEC2"
		},
		{
			"bufferView": 4,
			"byteOffset": 0,
			"componentType": 5126,
			"count": 69,
			"max": [ -0.9992041, 0.0238732, 0.03195831, 1 ],
			"min": [ -1, -0.00925163, -0.01142328, 1 ],
			"type": "VEC4"
		},
		{
			"bufferView": 0,
			"byteOffset": 0,
			"componentType": 5123,
			"count": 201,
			"max": [ 68 ],
			"min": [ 0 ],
			"type": "SCALAR"
		},
		{
			"bufferView": 3,
			"byteOffset": 1656,
			"componentType": 5126,
			"count": 66,
			"max": [ 0.3239788, -0.2688199, 0.0001080815 ],
			"min": [ -0.3544705, -0.6066777, -0.245373 ],
			"type": "VEC3"
		},
		{
			"bufferView": 3,
			"byteOffset": 2448,
			"componentType": 5126,
			"count": 66,
			"max": [ 0.5327783, -0.07391023, -0.1492501 ],
			"min": [ -0.9494558, -0.6457456, -0.9956067 ],
			"type": "VEC3"
		},
		{
			"bufferView": 2,
			"byteOffset": 552,
			"componentType": 5126,
			"count": 66,
			"max": [ 0.8488882, 0.3654526 ],
			"min": [ 0.1811232, 0 ],
			"type": "VEC2"
		},
		{
			"bufferView": 4,
			"byteOffset": 1104,
			"componentType": 5126,
			"count": 66,
			"max": [ 0.4326465, 0.8352659, 0.4514391, 1 ],
			"min": [ -1, -0.01210498, -0.9887972, -1 ],
			"type": "VEC4"
		},
		{
			"bufferView": 0,
			"byteOffset": 402,
			"componentType": 5123,
			"count": 180,
			"max": [ 65 ],
			"min": [ 0 ],
			"type": "SCALAR"
		},
		{
			"bufferView": 3,
			"byteOffset": 3240,
			"componentType": 5126,
			"count": 417,
			"max": [ 0.3490372, 0.1452051, -0.3515705 ],
			"min": [ -0.3549158, -0.3349103, -0.7498378 ],
			"type": "VEC3"
		},
		{
			"bufferView": 3,
			"byteOffset": 8244,
			"componentType": 5126,
			"count": 417,
			"max": [ 0.9969411, 0.7737555, 0.8184496 ],
			"min": [ -0.9917516, -0.7759036, -0.8188316 ],
			"type": "VEC3"
		},
		{
			"bufferView": 2,
			"byteOffset": 1080,
			"componentType": 5126,
			"count": 417,
			"max": [ 0.8493263, 0.8285476 ],
			"min": [ 0.1564593, 0.3209873 ],
			"type": "VEC2"
		},
		{
			"bufferView": 4,
			"byteOffset": 2160,
			"componentType": 5126,
			"count": 417,
			"max": [ 1, 0.0238732, 0.03195831, 1 ],
			"min": [ -1, -0.01708575, -0.02411216, -1 ],
			"type": "VEC4"
		},
		{
			"bufferView": 0,
			"byteOffset": 762,
			"componentType": 5123,
			"count": 816,
			"max": [ 416 ],
			"min": [ 0 ],
			"type": "SCALAR"
		},
		{
			"bufferView": 1,
			"byteOffset": 0,
			"componentType": 5126,
			"count": 30,
			"max": [ 0.9666667 ],
			"min": [ 0 ],
			"type": "SCALAR"
		},
		{
			"bufferView": 5,
			"byteOffset": 0,
			"componentType": 5126,
			"count": 30,
			"max": [ 0.5802875, -0.1112117, 0.04826566 ],
			"min": [ 0.5802875, -0.3552021, -0.2729497 ],
			"type": "VEC3"
		},
		{
			"bufferView": 6,
			"byteOffset": 0,
			"componentType": 5126,
			"count": 30,
			"max": [ -0.7071068, 0, 0, -0.7071068 ],
			"min": [ -0.7071068, 0, 0, -0.7071068 ],
			"type": "VEC4"
		},
		{
			"bufferView": 5,
			"byteOffset": 360,
			"componentType": 5126,
			"count": 30,
			"max": [ 1, 1, 1 ],
			"min": [ 1, 1, 1 ],
			"type": "VEC3"
		},
		{
			"bufferView": 3,
			"byteOffset": 13248,
			"componentType": 5126,
			"count": 401,
			"max": [ 0.3239942, -0.2688199, -0.1091559 ],
			"min": [ -0.3544705, -0.6217932, -0.3758208 ],
			"type": "VEC3"
		},
		{
			"bufferView": 3,
			"byteOffset": 18060,
			"componentType": 5126,
			"count": 401,
			"max": [ 0.9999849, 0.8123299, 0.9956213 ],
			"min": [ -0.9997085, -0.8140227, -0.9956066 ],
			"type": "VEC3"
		},
		{
			"bufferView": 2,
			"byteOffset": 4416,
			"componentType": 5126,
			"count": 401,
			"max": [ 0.8488882, 0.3654526 ],
			"min": [ 0.1811232, 0 ],
			"type": "VEC2"
		},
		{
			"bufferView": 4,
			"byteOffset": 8832,
			"componentType": 5126,
			"count": 401,
			"max": [ 1, 1, 0.4514373, 1 ],
			"min": [ -1, -0.01210498, -0.9887972, -1 ],
			"type": "VEC4"
		},
		{
			"bufferView": 0,
			"byteOffset": 2394,
			"componentType": 5123,
			"count": 732,
			"max": [ 400 ],
			"min": [ 0 ],
			"type": "SCALAR"
		},
		{
			"bufferView": 3,
			"byteOffset": 22872,
			"componentType": 5126,
			"count": 603,
			"max": [ 0.508, 0.635, 0.0001080815 ],
			"min": [ -0.508, -0.635, -0.762 ],
			"type": "VEC3"
		},
		{
			"bufferView": 3,
			"byteOffset": 30108,
			"componentType": 5126,
			"count": 603,
			"max": [ 1, 1, 1 ],
			"min": [ -1, -0.7726284, -1 ],
			"type": "VEC3"
		},
		{
			"bufferView": 2,
			"byteOffset": 7624,
			"componentType": 5126,
			"count": 603,
			"max": [ 1, 1 ],
			"min": [ 0, 0 ],
			"type": "VEC2"
		},
		{
			"bufferView": 4,
			"byteOffset": 15248,
			"componentType": 5126,
			"count": 603,
			"max": [ 1, 1, 0, 1 ],
			"min": [ -1, -1, 0, 1 ],
			"type": "VEC4"
		},
		{
			"bufferView": 0,
			"byteOffset": 3858,
			"componentType": 5123,
			"count": 597,
			"max": [ 332 ],
			"min": [ 0 ],
			"type": "SCALAR"
		},
		{
			"bufferView": 0,
			"byteOffset": 5052,
			"componentType": 5123,
			"count": 414,
			"max": [ 602 ],
			"min": [ 333 ],
			"type": "SCALAR"
		}
	],
	"animations": [
		{
			"name": "",
			"channels": [
				{
					"sampler": 0,
					"target": {
						"node": 3,
						"path": "translation"
					}
				},
				{
					"sampler": 1,
					"target": {
						"node": 3,
						"path": "rotation"
					}
				},
				{
					"sampler": 2,
					"target": {
						"node": 3,
						"path": "scale"
					}
				}
			],
			"samplers": [
				{
					"input": 15,
					"interpolation": "LINEAR",
					"output": 16
				},
				{
					"input": 15,
					"interpolation": "LINEAR",
					"output": 17
				},
				{
					"input": 15,
					"interpolation": "LINEAR",
					"output": 18
				}
			]
		}
	],
	"buffers": [
		{
			"byteLength": 81888,
			"uri": "覆盖层滑坡.bin"
		}
	],
	"bufferViews": [
		{
			"buffer": 0,
			"byteLength": 5880,
			"target": 34963,
			"byteOffset": 74808
		},
		{
			"buffer": 0,
			"byteLength": 120,
			"byteOffset": 0
		},
		{
			"buffer": 0,
			"byteLength": 12448,
			"target": 34962,
			"byteStride": 8,
			"byteOffset": 120
		},
		{
			"buffer": 0,
			"byteLength": 37344,
			"target": 34962,
			"byteStride": 12,
			"byteOffset": 12568
		},
		{
			"buffer": 0,
			"byteLength": 24896,
			"target": 34962,
			"byteStride": 16,
			"byteOffset": 49912
		},
		{
			"buffer": 0,
			"byteLength": 720,
			"byteStride": 12,
			"byteOffset": 80688
		},
		{
			"buffer": 0,
			"byteLength": 480,
			"byteStride": 16,
			"byteOffset": 81408
		}
	],
	"images": [
		{
			"uri": "/Assets/Materials/timg2.jpg"
		},
		{
			"uri": "/Assets/Materials/tur2.jpg"
		}
	],
	"materials": [
		{
			"pbrMetallicRoughness": {
				"baseColorTexture" : {
					"index" : 0,
					"texCoord" : 0
				},
				"baseColorFactor": [0.5882353, 0.5882353, 0.5882353, 1],
				"metallicFactor": 0,
				"roughnessFactor": 1
			},
			"emissiveFactor": [0, 0, 0],
			"doubleSided": false,
			"name": "timg2"
		},
		{
			"pbrMetallicRoughness": {
				"baseColorTexture" : {
					"index" : 1,
					"texCoord" : 0
				},
				"baseColorFactor": [0.5882353, 0.5882353, 0.5882353, 1],
				"metallicFactor": 0,
				"roughnessFactor": 1
			},
			"emissiveFactor": [0, 0, 0],
			"doubleSided": false,
			"name": "tur2"
		}
	],
	"meshes": [
		{
			"name": "mesh_003_18418",
			"primitives": [
				{
					"attributes": {
						"POSITION": 0,
						"NORMAL": 1,
						"TEXCOORD_0": 2,
						"TANGENT": 3
					},
					"indices": 4,
					"material": 0,
					"mode": 4
				}
			]
		},
		{
			"name": "mesh_004_18412",
			"primitives": [
				{
					"attributes": {
						"POSITION": 5,
						"NORMAL": 6,
						"TEXCOORD_0": 7,
						"TANGENT": 8
					},
					"indices": 9,
					"material": 0,
					"mode": 4
				}
			]
		},
		{
			"name": "mesh_001_18414",
			"primitives": [
				{
					"attributes": {
						"POSITION": 10,
						"NORMAL": 11,
						"TEXCOORD_0": 12,
						"TANGENT": 13
					},
					"indices": 14,
					"material": 1,
					"mode": 4
				}
			]
		},
		{
			"name": "mesh_002_18420",
			"primitives": [
				{
					"attributes": {
						"POSITION": 19,
						"NORMAL": 20,
						"TEXCOORD_0": 21,
						"TANGENT": 22
					},
					"indices": 23,
					"material": 1,
					"mode": 4
				}
			]
		},
		{
			"name": "mesh_Box001_18416",
			"primitives": [
				{
					"attributes": {
						"POSITION": 24,
						"NORMAL": 25,
						"TEXCOORD_0": 26,
						"TANGENT": 27
					},
					"indices": 28,
					"material": 1,
					"mode": 4
				},
				{
					"attributes": {
						"POSITION": 24,
						"NORMAL": 25,
						"TEXCOORD_0": 26,
						"TANGENT": 27
					},
					"indices": 29,
					"material": 0,
					"mode": 4
				}
			]
		}
	],
	"nodes": [
		{
			"name": "UnityGlTF_root",
			"children": [
				6
			]
		},
		{
			"name": "node__-54650",
			"mesh": 0,
			"translation": [ 0.5802875, 1.127987E-17, 0.04826566],
			"rotation": [-0.7071068, 0, 0, -0.7071068]
		},
		{
			"name": "node__-54652",
			"mesh": 1,
			"translation": [ 0.5802875, 1.127987E-17, 0.04826566],
			"rotation": [-0.7071068, 0, 0, -0.7071068]
		},
		{
			"name": "node__-54646",
			"mesh": 2,
			"translation": [ 0.5802875, -0.1112117, 0.04826566],
			"rotation": [-0.7071068, 0, 0, -0.7071068]
		},
		{
			"name": "node__-54648",
			"mesh": 3,
			"translation": [ 0.5802875, -0.08449388, 0.04826566],
			"rotation": [-0.7071068, 0, 0, -0.7071068]
		},
		{
			"name": "node__-54644",
			"mesh": 4,
			"translation": [ 0.5802875, 1.127987E-17, 0.04826566],
			"rotation": [-0.7071068, 0, 0, -0.7071068]
		},
		{
			"name": "node___-54642",
			"children": [
				5,
				3,
				4,
				1,
				2
			],
			"matrix": [1, 0, 0, 0, 0, 1, 0, 0, 0, 0, 1, 0, 10.23032, -2.243614, 14.05233, 1]
		}
	],
	"samplers": [
		{
			"magFilter": 9729,
			"minFilter": 9985,
			"wrapS": 10497,
			"wrapT": 10497
		}
	],
	"scenes": [
		{
			"name":"defaultScene",
			"nodes": [
				0
			]
		}
	],
	"scene": 0,
	"textures": [
		{
			"sampler": 0,
			"source": 0
		},
		{
			"sampler": 0,
			"source": 1
		}
	]
}