{
	"asset": {
		"generator": "Unity 2018.3.11f1",
		"extras": {
			"exporterVersion" : "2.2.1"
		},
		"version": "2.0"
	},
	"accessors": [
		{
			"bufferView": 3,
			"byteOffset": 0,
			"componentType": 5126,
			"count": 66,
			"max": [ 0.3239788, -0.2688199, 0.0001080815 ],
			"min": [ -0.3544705, -0.6066777, -0.245373 ],
			"type": "VEC3"
		},
		{
			"bufferView": 3,
			"byteOffset": 792,
			"componentType": 5126,
			"count": 66,
			"max": [ 0.5327783, -0.07391023, -0.1492501 ],
			"min": [ -0.9494558, -0.6457456, -0.9956067 ],
			"type": "VEC3"
		},
		{
			"bufferView": 2,
			"byteOffset": 0,
			"componentType": 5126,
			"count": 66,
			"max": [ 0.8488882, 0.3654526 ],
			"min": [ 0.1811232, 0 ],
			"type": "VEC2"
		},
		{
			"bufferView": 4,
			"byteOffset": 0,
			"componentType": 5126,
			"count": 66,
			"max": [ 0.4326465, 0.8352659, 0.4514391, 1 ],
			"min": [ -1, -0.01210498, -0.9887972, -1 ],
			"type": "VEC4"
		},
		{
			"bufferView": 0,
			"byteOffset": 0,
			"componentType": 5123,
			"count": 180,
			"max": [ 65 ],
			"min": [ 0 ],
			"type": "SCALAR"
		},
		{
			"bufferView": 3,
			"byteOffset": 1584,
			"componentType": 5126,
			"count": 603,
			"max": [ 0.508, 0.635, 0.0001080815 ],
			"min": [ -0.508, -0.635, -0.762 ],
			"type": "VEC3"
		},
		{
			"bufferView": 3,
			"byteOffset": 8820,
			"componentType": 5126,
			"count": 603,
			"max": [ 1, 1, 1 ],
			"min": [ -1, -0.7726284, -1 ],
			"type": "VEC3"
		},
		{
			"bufferView": 2,
			"byteOffset": 528,
			"componentType": 5126,
			"count": 603,
			"max": [ 1, 1 ],
			"min": [ 0, 0 ],
			"type": "VEC2"
		},
		{
			"bufferView": 4,
			"byteOffset": 1056,
			"componentType": 5126,
			"count": 603,
			"max": [ 1, 1, 0, 1 ],
			"min": [ -1, -1, 0, 1 ],
			"type": "VEC4"
		},
		{
			"bufferView": 0,
			"byteOffset": 360,
			"componentType": 5123,
			"count": 597,
			"max": [ 332 ],
			"min": [ 0 ],
			"type": "SCALAR"
		},
		{
			"bufferView": 0,
			"byteOffset": 1554,
			"componentType": 5123,
			"count": 414,
			"max": [ 602 ],
			"min": [ 333 ],
			"type": "SCALAR"
		},
		{
			"bufferView": 3,
			"byteOffset": 16056,
			"componentType": 5126,
			"count": 417,
			"max": [ 0.3490372, 0.1452051, -0.3515705 ],
			"min": [ -0.3549158, -0.3349103, -0.7498378 ],
			"type": "VEC3"
		},
		{
			"bufferView": 3,
			"byteOffset": 21060,
			"componentType": 5126,
			"count": 417,
			"max": [ 0.9969411, 0.7737555, 0.8184496 ],
			"min": [ -0.9917516, -0.7759036, -0.8188316 ],
			"type": "VEC3"
		},
		{
			"bufferView": 2,
			"byteOffset": 5352,
			"componentType": 5126,
			"count": 417,
			"max": [ 0.8493263, 0.8285476 ],
			"min": [ 0.1564593, 0.3209873 ],
			"type": "VEC2"
		},
		{
			"bufferView": 4,
			"byteOffset": 10704,
			"componentType": 5126,
			"count": 417,
			"max": [ 1, 0.0238732, 0.03195831, 1 ],
			"min": [ -1, -0.01708575, -0.02411216, -1 ],
			"type": "VEC4"
		},
		{
			"bufferView": 0,
			"byteOffset": 2382,
			"componentType": 5123,
			"count": 816,
			"max": [ 416 ],
			"min": [ 0 ],
			"type": "SCALAR"
		},
		{
			"bufferView": 1,
			"byteOffset": 0,
			"componentType": 5126,
			"count": 30,
			"max": [ 0.9666667 ],
			"min": [ 0 ],
			"type": "SCALAR"
		},
		{
			"bufferView": 5,
			"byteOffset": 0,
			"componentType": 5126,
			"count": 30,
			"max": [ 0.5802875, -0.1112117, 0.04826566 ],
			"min": [ 0.5802875, -0.3552021, -0.2729497 ],
			"type": "VEC3"
		},
		{
			"bufferView": 6,
			"byteOffset": 0,
			"componentType": 5126,
			"count": 30,
			"max": [ -0.7071068, 0, 0, -0.7071068 ],
			"min": [ -0.7071068, 0, 0, -0.7071068 ],
			"type": "VEC4"
		},
		{
			"bufferView": 5,
			"byteOffset": 360,
			"componentType": 5126,
			"count": 30,
			"max": [ 1, 1, 1 ],
			"min": [ 1, 1, 1 ],
			"type": "VEC3"
		},
		{
			"bufferView": 3,
			"byteOffset": 26064,
			"componentType": 5126,
			"count": 401,
			"max": [ 0.3239942, -0.2688199, -0.1091559 ],
			"min": [ -0.3544705, -0.6217932, -0.3758208 ],
			"type": "VEC3"
		},
		{
			"bufferView": 3,
			"byteOffset": 30876,
			"componentType": 5126,
			"count": 401,
			"max": [ 0.9999849, 0.8123299, 0.9956213 ],
			"min": [ -0.9997085, -0.8140227, -0.9956066 ],
			"type": "VEC3"
		},
		{
			"bufferView": 2,
			"byteOffset": 8688,
			"componentType": 5126,
			"count": 401,
			"max": [ 0.8488882, 0.3654526 ],
			"min": [ 0.1811232, 0 ],
			"type": "VEC2"
		},
		{
			"bufferView": 4,
			"byteOffset": 17376,
			"componentType": 5126,
			"count": 401,
			"max": [ 1, 1, 0.4514373, 1 ],
			"min": [ -1, -0.01210498, -0.9887972, -1 ],
			"type": "VEC4"
		},
		{
			"bufferView": 0,
			"byteOffset": 4014,
			"componentType": 5123,
			"count": 732,
			"max": [ 400 ],
			"min": [ 0 ],
			"type": "SCALAR"
		},
		{
			"bufferView": 3,
			"byteOffset": 35688,
			"componentType": 5126,
			"count": 24,
			"max": [ 0.5, 0.5, 0.5 ],
			"min": [ -0.5, -0.5, -0.5 ],
			"type": "VEC3"
		},
		{
			"bufferView": 3,
			"byteOffset": 35976,
			"componentType": 5126,
			"count": 24,
			"max": [ 1, 1, 1 ],
			"min": [ -1, -1, -1 ],
			"type": "VEC3"
		},
		{
			"bufferView": 2,
			"byteOffset": 11896,
			"componentType": 5126,
			"count": 24,
			"max": [ 1, 1 ],
			"min": [ 0, 0 ],
			"type": "VEC2"
		},
		{
			"bufferView": 2,
			"byteOffset": 12088,
			"componentType": 5126,
			"count": 24,
			"max": [ 0.9966581, 0.6528358 ],
			"min": [ 0.004055766, 0.004055766 ],
			"type": "VEC2"
		},
		{
			"bufferView": 4,
			"byteOffset": 23792,
			"componentType": 5126,
			"count": 24,
			"max": [ 0, 0, 1, 1 ],
			"min": [ -1, 0, -1, 1 ],
			"type": "VEC4"
		},
		{
			"bufferView": 0,
			"byteOffset": 5478,
			"componentType": 5123,
			"count": 36,
			"max": [ 23 ],
			"min": [ 0 ],
			"type": "SCALAR"
		},
		{
			"bufferView": 3,
			"byteOffset": 36264,
			"componentType": 5126,
			"count": 69,
			"max": [ 0.3490372, 0.1452051, -0.2302597 ],
			"min": [ -0.3549157, -0.3254899, -0.6170207 ],
			"type": "VEC3"
		},
		{
			"bufferView": 3,
			"byteOffset": 37092,
			"componentType": 5126,
			"count": 69,
			"max": [ 0.01469798, -0.5726474, -0.6307119 ],
			"min": [ -0.03987113, -0.7759036, -0.8188316 ],
			"type": "VEC3"
		},
		{
			"bufferView": 2,
			"byteOffset": 12280,
			"componentType": 5126,
			"count": 69,
			"max": [ 0.8493263, 0.8285476 ],
			"min": [ 0.1564593, 0.3209873 ],
			"type": "VEC2"
		},
		{
			"bufferView": 4,
			"byteOffset": 24176,
			"componentType": 5126,
			"count": 69,
			"max": [ -0.9992041, 0.0238732, 0.03195831, 1 ],
			"min": [ -1, -0.00925163, -0.01142328, 1 ],
			"type": "VEC4"
		},
		{
			"bufferView": 0,
			"byteOffset": 5550,
			"componentType": 5123,
			"count": 201,
			"max": [ 68 ],
			"min": [ 0 ],
			"type": "SCALAR"
		}
	],
	"animations": [
		{
			"name": "",
			"channels": [
				{
					"sampler": 0,
					"target": {
						"node": 3,
						"path": "translation"
					}
				},
				{
					"sampler": 1,
					"target": {
						"node": 3,
						"path": "rotation"
					}
				},
				{
					"sampler": 2,
					"target": {
						"node": 3,
						"path": "scale"
					}
				}
			],
			"samplers": [
				{
					"input": 16,
					"interpolation": "LINEAR",
					"output": 17
				},
				{
					"input": 16,
					"interpolation": "LINEAR",
					"output": 18
				},
				{
					"input": 16,
					"interpolation": "LINEAR",
					"output": 19
				}
			]
		}
	],
	"buffers": [
		{
			"byteLength": 83304,
			"uri": "覆盖层滑坡.bin"
		}
	],
	"bufferViews": [
		{
			"buffer": 0,
			"byteLength": 5952,
			"target": 34963,
			"byteOffset": 76152
		},
		{
			"buffer": 0,
			"byteLength": 120,
			"byteOffset": 0
		},
		{
			"buffer": 0,
			"byteLength": 12832,
			"target": 34962,
			"byteStride": 8,
			"byteOffset": 120
		},
		{
			"buffer": 0,
			"byteLength": 37920,
			"target": 34962,
			"byteStride": 12,
			"byteOffset": 12952
		},
		{
			"buffer": 0,
			"byteLength": 25280,
			"target": 34962,
			"byteStride": 16,
			"byteOffset": 50872
		},
		{
			"buffer": 0,
			"byteLength": 720,
			"byteStride": 12,
			"byteOffset": 82104
		},
		{
			"buffer": 0,
			"byteLength": 480,
			"byteStride": 16,
			"byteOffset": 82824
		}
	],
	"images": [
		{
			"uri": "/Assets/坡地重力地貌/滑坡/Materials/timg2.jpg"
		},
		{
			"uri": "/Assets/坡地重力地貌/滑坡/Materials/tur2.jpg"
		},
		{
			"uri": "/Assets/坡地重力地貌/滑坡/Materials/tur4.jpg"
		}
	],
	"materials": [
		{
			"pbrMetallicRoughness": {
				"baseColorTexture" : {
					"index" : 0,
					"texCoord" : 0
				},
				"baseColorFactor": [0.5882353, 0.5882353, 0.5882353, 1],
				"metallicFactor": 0,
				"roughnessFactor": 1
			},
			"emissiveFactor": [0, 0, 0],
			"doubleSided": false,
			"name": "timg2"
		},
		{
			"pbrMetallicRoughness": {
				"baseColorTexture" : {
					"index" : 1,
					"texCoord" : 0
				},
				"baseColorFactor": [0.5882353, 0.5882353, 0.5882353, 1],
				"metallicFactor": 0,
				"roughnessFactor": 1
			},
			"emissiveFactor": [0, 0, 0],
			"doubleSided": false,
			"name": "tur2"
		},
		{
			"pbrMetallicRoughness": {
				"baseColorTexture" : {
					"index" : 2,
					"texCoord" : 0
				},
				"baseColorFactor": [1, 1, 1, 1],
				"metallicFactor": 0,
				"roughnessFactor": 0.5
			},
			"emissiveFactor": [0, 0, 0],
			"doubleSided": false,
			"name": "tur23"
		}
	],
	"meshes": [
		{
			"name": "mesh_004_32438",
			"primitives": [
				{
					"attributes": {
						"POSITION": 0,
						"NORMAL": 1,
						"TEXCOORD_0": 2,
						"TANGENT": 3
					},
					"indices": 4,
					"material": 0,
					"mode": 4
				}
			]
		},
		{
			"name": "mesh_Box001_32446",
			"primitives": [
				{
					"attributes": {
						"POSITION": 5,
						"NORMAL": 6,
						"TEXCOORD_0": 7,
						"TANGENT": 8
					},
					"indices": 9,
					"material": 1,
					"mode": 4
				},
				{
					"attributes": {
						"POSITION": 5,
						"NORMAL": 6,
						"TEXCOORD_0": 7,
						"TANGENT": 8
					},
					"indices": 10,
					"material": 0,
					"mode": 4
				}
			]
		},
		{
			"name": "mesh_001_32440",
			"primitives": [
				{
					"attributes": {
						"POSITION": 11,
						"NORMAL": 12,
						"TEXCOORD_0": 13,
						"TANGENT": 14
					},
					"indices": 15,
					"material": 1,
					"mode": 4
				}
			]
		},
		{
			"name": "mesh_002_32442",
			"primitives": [
				{
					"attributes": {
						"POSITION": 20,
						"NORMAL": 21,
						"TEXCOORD_0": 22,
						"TANGENT": 23
					},
					"indices": 24,
					"material": 1,
					"mode": 4
				}
			]
		},
		{
			"name": "mesh_Cube_528Cube (1)",
			"primitives": [
				{
					"attributes": {
						"POSITION": 25,
						"NORMAL": 26,
						"TEXCOORD_0": 27,
						"TEXCOORD_1": 28,
						"TANGENT": 29
					},
					"indices": 30,
					"material": 2,
					"mode": 4
				}
			]
		},
		{
			"name": "mesh_003_32444",
			"primitives": [
				{
					"attributes": {
						"POSITION": 31,
						"NORMAL": 32,
						"TEXCOORD_0": 33,
						"TANGENT": 34
					},
					"indices": 35,
					"material": 0,
					"mode": 4
				}
			]
		}
	],
	"nodes": [
		{
			"name": "UnityGlTF_root",
			"children": [
				6
			]
		},
		{
			"name": "node__-76866",
			"mesh": 0,
			"translation": [ 0.5802875, 1.127987E-17, 0.04826566],
			"rotation": [-0.7071068, 0, 0, -0.7071068]
		},
		{
			"name": "node__-76858",
			"mesh": 1,
			"translation": [ 0.5802875, 1.127987E-17, 0.04826566],
			"rotation": [-0.7071068, 0, 0, -0.7071068]
		},
		{
			"name": "node__-76860",
			"mesh": 2,
			"translation": [ 0.5802875, -0.1112117, 0.04826566],
			"rotation": [-0.7071068, 0, 0, -0.7071068]
		},
		{
			"name": "node__-76862",
			"mesh": 3,
			"translation": [ 0.5802875, -0.08449388, 0.04826566],
			"rotation": [-0.7071068, 0, 0, -0.7071068]
		},
		{
			"name": "node_Cube (1)_-83854",
			"mesh": 4,
			"translation": [ 0.5819998, -0.04209375, 0.05416369],
			"scale": [ 2.045312, 0.07787412, 1.925]
		},
		{
			"name": "node__-76856",
			"children": [
				2,
				3,
				4,
				7,
				1,
				5
			],
			"matrix": [1, 0, 0, 0, 0, 1, 0, 0, 0, 0, 1, 0, -9.492, 4.56, -1.554164, 1]
		},
		{
			"name": "node__-76864",
			"mesh": 5,
			"translation": [ 0.5802875, 1.127987E-17, 0.04826566],
			"rotation": [-0.7071068, 0, 0, -0.7071068]
		}
	],
	"samplers": [
		{
			"magFilter": 9729,
			"minFilter": 9985,
			"wrapS": 10497,
			"wrapT": 10497
		}
	],
	"scenes": [
		{
			"name":"defaultScene",
			"nodes": [
				0
			]
		}
	],
	"scene": 0,
	"textures": [
		{
			"sampler": 0,
			"source": 0
		},
		{
			"sampler": 0,
			"source": 1
		},
		{
			"sampler": 0,
			"source": 2
		}
	]
}