{
	"asset": {
		"generator": "Unity 2018.3.11f1",
		"extras": {
			"exporterVersion" : "2.2.1"
		},
		"version": "2.0"
	},
	"accessors": [
		{
			"bufferView": 2,
			"byteOffset": 0,
			"componentType": 5126,
			"count": 787,
			"max": [ 3.81, 1.27, 0 ],
			"min": [ -3.81, -1.27, -1.342836 ],
			"type": "VEC3"
		},
		{
			"bufferView": 2,
			"byteOffset": 9444,
			"componentType": 5126,
			"count": 787,
			"max": [ 1, 1, 1 ],
			"min": [ -1, -1, -0.9999362 ],
			"type": "VEC3"
		},
		{
			"bufferView": 1,
			"byteOffset": 0,
			"componentType": 5126,
			"count": 787,
			"max": [ 1, 1 ],
			"min": [ 0, 0 ],
			"type": "VEC2"
		},
		{
			"bufferView": 3,
			"byteOffset": 0,
			"componentType": 5126,
			"count": 787,
			"max": [ 1, 1, 0.8559856, 1 ],
			"min": [ -1, -1, -0.8132439, 1 ],
			"type": "VEC4"
		},
		{
			"bufferView": 0,
			"byteOffset": 0,
			"componentType": 5123,
			"count": 954,
			"max": [ 327 ],
			"min": [ 0 ],
			"type": "SCALAR"
		},
		{
			"bufferView": 0,
			"byteOffset": 1908,
			"componentType": 5123,
			"count": 2400,
			"max": [ 786 ],
			"min": [ 328 ],
			"type": "SCALAR"
		},
		{
			"bufferView": 2,
			"byteOffset": 18888,
			"componentType": 5126,
			"count": 121,
			"max": [ 5, 1.110223E-16, 5 ],
			"min": [ -5, -1.110223E-16, -5 ],
			"type": "VEC3"
		},
		{
			"bufferView": 2,
			"byteOffset": 20340,
			"componentType": 5126,
			"count": 121,
			"max": [ 0, 1, 0 ],
			"min": [ 0, 1, 0 ],
			"type": "VEC3"
		},
		{
			"bufferView": 1,
			"byteOffset": 6296,
			"componentType": 5126,
			"count": 121,
			"max": [ 1, 1 ],
			"min": [ 0, 0 ],
			"type": "VEC2"
		},
		{
			"bufferView": 3,
			"byteOffset": 12592,
			"componentType": 5126,
			"count": 121,
			"max": [ -1, 0, 0, 1 ],
			"min": [ -1, 0, 0, 1 ],
			"type": "VEC4"
		},
		{
			"bufferView": 0,
			"byteOffset": 6708,
			"componentType": 5123,
			"count": 600,
			"max": [ 120 ],
			"min": [ 0 ],
			"type": "SCALAR"
		},
		{
			"bufferView": 2,
			"byteOffset": 21792,
			"componentType": 5126,
			"count": 121,
			"max": [ 5, 1.110223E-16, 5 ],
			"min": [ -5, -1.110223E-16, -5 ],
			"type": "VEC3"
		},
		{
			"bufferView": 2,
			"byteOffset": 23244,
			"componentType": 5126,
			"count": 121,
			"max": [ 0, 1, 0 ],
			"min": [ 0, 1, 0 ],
			"type": "VEC3"
		},
		{
			"bufferView": 1,
			"byteOffset": 7264,
			"componentType": 5126,
			"count": 121,
			"max": [ 1, 1 ],
			"min": [ 0, 0 ],
			"type": "VEC2"
		},
		{
			"bufferView": 3,
			"byteOffset": 14528,
			"componentType": 5126,
			"count": 121,
			"max": [ -1, 0, 0, 1 ],
			"min": [ -1, 0, 0, 1 ],
			"type": "VEC4"
		},
		{
			"bufferView": 0,
			"byteOffset": 7908,
			"componentType": 5123,
			"count": 600,
			"max": [ 120 ],
			"min": [ 0 ],
			"type": "SCALAR"
		},
		{
			"bufferView": 2,
			"byteOffset": 24696,
			"componentType": 5126,
			"count": 121,
			"max": [ 5, 1.110223E-16, 5 ],
			"min": [ -5, -1.110223E-16, -5 ],
			"type": "VEC3"
		},
		{
			"bufferView": 2,
			"byteOffset": 26148,
			"componentType": 5126,
			"count": 121,
			"max": [ 0, 1, 0 ],
			"min": [ 0, 1, 0 ],
			"type": "VEC3"
		},
		{
			"bufferView": 1,
			"byteOffset": 8232,
			"componentType": 5126,
			"count": 121,
			"max": [ 1, 1 ],
			"min": [ 0, 0 ],
			"type": "VEC2"
		},
		{
			"bufferView": 3,
			"byteOffset": 16464,
			"componentType": 5126,
			"count": 121,
			"max": [ -1, 0, 0, 1 ],
			"min": [ -1, 0, 0, 1 ],
			"type": "VEC4"
		},
		{
			"bufferView": 0,
			"byteOffset": 9108,
			"componentType": 5123,
			"count": 600,
			"max": [ 120 ],
			"min": [ 0 ],
			"type": "SCALAR"
		}
	],
	"buffers": [
		{
			"byteLength": 65508,
			"uri": "成熟河谷.bin"
		}
	],
	"bufferViews": [
		{
			"buffer": 0,
			"byteLength": 10308,
			"target": 34963,
			"byteOffset": 55200
		},
		{
			"buffer": 0,
			"byteLength": 9200,
			"target": 34962,
			"byteStride": 8,
			"byteOffset": 0
		},
		{
			"buffer": 0,
			"byteLength": 27600,
			"target": 34962,
			"byteStride": 12,
			"byteOffset": 9200
		},
		{
			"buffer": 0,
			"byteLength": 18400,
			"target": 34962,
			"byteStride": 16,
			"byteOffset": 36800
		}
	],
	"images": [
		{
			"uri": "/Assets/河谷流水地貌/河谷/Textures/Sand (Beach).jpg"
		},
		{
			"uri": "/Assets/河谷流水地貌/河谷/Textures/Grass (Hill)(1).jpg"
		}
	],
	"materials": [
		{
			"pbrMetallicRoughness": {
				"baseColorTexture" : {
					"index" : 0,
					"texCoord" : 0
				},
				"baseColorFactor": [1, 1, 1, 1],
				"metallicFactor": 0,
				"roughnessFactor": 0.5
			},
			"emissiveFactor": [0, 0, 0],
			"doubleSided": false,
			"name": "Sand (Beach)"
		},
		{
			"pbrMetallicRoughness": {
				"baseColorTexture" : {
					"index" : 1,
					"texCoord" : 0
				},
				"baseColorFactor": [1, 1, 1, 1],
				"metallicFactor": 0,
				"roughnessFactor": 0.5
			},
			"emissiveFactor": [0, 0, 0],
			"doubleSided": false,
			"name": "Grass (Hill)(1)"
		},
		{
			"pbrMetallicRoughness": {
				"baseColorFactor": [0.01361692, 0.2982111, 0.9622642, 1],
				"metallicFactor": 0,
				"roughnessFactor": 0.5
			},
			"emissiveFactor": [0, 0, 0],
			"doubleSided": false,
			"name": ""
		}
	],
	"meshes": [
		{
			"name": "mesh_Box003_11420",
			"primitives": [
				{
					"attributes": {
						"POSITION": 0,
						"NORMAL": 1,
						"TEXCOORD_0": 2,
						"TANGENT": 3
					},
					"indices": 4,
					"material": 0,
					"mode": 4
				},
				{
					"attributes": {
						"POSITION": 0,
						"NORMAL": 1,
						"TEXCOORD_0": 2,
						"TANGENT": 3
					},
					"indices": 5,
					"material": 1,
					"mode": 4
				}
			]
		},
		{
			"name": "mesh_Plane_536Plane",
			"primitives": [
				{
					"attributes": {
						"POSITION": 6,
						"NORMAL": 7,
						"TEXCOORD_0": 8,
						"TANGENT": 9
					},
					"indices": 10,
					"material": 2,
					"mode": 4
				}
			]
		},
		{
			"name": "mesh_Plane_536Plane (1)",
			"primitives": [
				{
					"attributes": {
						"POSITION": 11,
						"NORMAL": 12,
						"TEXCOORD_0": 13,
						"TANGENT": 14
					},
					"indices": 15,
					"material": 2,
					"mode": 4
				}
			]
		},
		{
			"name": "mesh_Plane_536Plane",
			"primitives": [
				{
					"attributes": {
						"POSITION": 16,
						"NORMAL": 17,
						"TEXCOORD_0": 18,
						"TANGENT": 19
					},
					"indices": 20,
					"material": 2,
					"mode": 4
				}
			]
		}
	],
	"nodes": [
		{
			"name": "UnityGlTF_root",
			"children": [
				3
			]
		},
		{
			"name": "node__-2696",
			"mesh": 0,
			"children": [
				2
			],
			"translation": [ 0, -0.97, 0],
			"rotation": [-0.7071068, 0, 0, -0.7071068]
		},
		{
			"name": "node__-2700",
			"children": [
				4,
				6,
				5
			],
			"translation": [ 0, 0, -0.5],
			"rotation": [0.7071068, 0, 0, -0.7071068]
		},
		{
			"name": "node__-2694",
			"children": [
				1
			],
			"matrix": [-1.192093E-07, 0, 1, 0, 0, 1, 0, 0, -1, 0, -1.192093E-07, 0, 0, 0, -7.84, 1]
		},
		{
			"name": "node_Plane_-2708",
			"mesh": 1,
			"translation": [ -0.19, -0.09, 1.26],
			"scale": [ 0.05500242, 1, 0.1119095],
			"rotation": [-0.5, -0.5, -0.5, -0.5]
		},
		{
			"name": "node_Plane (1)_-2712",
			"mesh": 2,
			"translation": [ -0.19, -0.09, -1.264],
			"scale": [ 0.0550059, 1, 0.11191],
			"rotation": [0.5, 0.5, -0.5, -0.5]
		},
		{
			"name": "node_Plane_-2710",
			"mesh": 3,
			"translation": [ 0, 0.17, 0],
			"scale": [ 0.14132, 1, 0.2530573]
		}
	],
	"samplers": [
		{
			"magFilter": 9729,
			"minFilter": 9985,
			"wrapS": 10497,
			"wrapT": 10497
		}
	],
	"scenes": [
		{
			"name":"defaultScene",
			"nodes": [
				0
			]
		}
	],
	"scene": 0,
	"textures": [
		{
			"sampler": 0,
			"source": 0
		},
		{
			"sampler": 0,
			"source": 1
		}
	]
}