{
	"asset": {
		"generator": "Unity 2018.3.11f1",
		"extras": {
			"exporterVersion" : "2.2.1"
		},
		"version": "2.0"
	},
	"accessors": [
		{
			"bufferView": 2,
			"byteOffset": 0,
			"componentType": 5126,
			"count": 3,
			"max": [ 0.7261712, 0.1151637, -1.25926 ],
			"min": [ -0.834937, -0.2271284, -1.25926 ],
			"type": "VEC3"
		},
		{
			"bufferView": 2,
			"byteOffset": 36,
			"componentType": 5126,
			"count": 3,
			"max": [ 0, 0, -1 ],
			"min": [ 0, 0, -1 ],
			"type": "VEC3"
		},
		{
			"bufferView": 3,
			"byteOffset": 0,
			"componentType": 5126,
			"count": 3,
			"max": [ 1, 0, 0, 1 ],
			"min": [ 1, 0, 0, 1 ],
			"type": "VEC4"
		},
		{
			"bufferView": 0,
			"byteOffset": 0,
			"componentType": 5123,
			"count": 3,
			"max": [ 2 ],
			"min": [ 0 ],
			"type": "SCALAR"
		},
		{
			"bufferView": 2,
			"byteOffset": 72,
			"componentType": 5126,
			"count": 3,
			"max": [ 0.7261714, 0.1151635, 0.8485222 ],
			"min": [ -0.834937, -0.2271286, 0.8485222 ],
			"type": "VEC3"
		},
		{
			"bufferView": 2,
			"byteOffset": 108,
			"componentType": 5126,
			"count": 3,
			"max": [ 0, 0, 1 ],
			"min": [ 0, 0, 1 ],
			"type": "VEC3"
		},
		{
			"bufferView": 3,
			"byteOffset": 48,
			"componentType": 5126,
			"count": 3,
			"max": [ 1, 0, 0, 1 ],
			"min": [ 1, 0, 0, 1 ],
			"type": "VEC4"
		},
		{
			"bufferView": 0,
			"byteOffset": 6,
			"componentType": 5123,
			"count": 3,
			"max": [ 2 ],
			"min": [ 0 ],
			"type": "SCALAR"
		},
		{
			"bufferView": 2,
			"byteOffset": 144,
			"componentType": 5126,
			"count": 61206,
			"max": [ 1.291333, 1.061148, 0.04059169 ],
			"min": [ -1.291333, -1.061148, -0.8196809 ],
			"type": "VEC3"
		},
		{
			"bufferView": 2,
			"byteOffset": 734616,
			"componentType": 5126,
			"count": 61206,
			"max": [ 1, 1, 1 ],
			"min": [ -1, -1, -1 ],
			"type": "VEC3"
		},
		{
			"bufferView": 1,
			"byteOffset": 0,
			"componentType": 5126,
			"count": 61206,
			"max": [ 1, 0.9999993 ],
			"min": [ 0, 0 ],
			"type": "VEC2"
		},
		{
			"bufferView": 3,
			"byteOffset": 96,
			"componentType": 5126,
			"count": 61206,
			"max": [ 1, 1, 0.7946241, 1 ],
			"min": [ -1, -1, -0.7356418, 1 ],
			"type": "VEC4"
		},
		{
			"bufferView": 0,
			"byteOffset": 12,
			"componentType": 5123,
			"count": 299982,
			"max": [ 61205 ],
			"min": [ 0 ],
			"type": "SCALAR"
		},
		{
			"bufferView": 0,
			"byteOffset": 599976,
			"componentType": 5123,
			"count": 60018,
			"max": [ 60777 ],
			"min": [ 10201 ],
			"type": "SCALAR"
		},
		{
			"bufferView": 2,
			"byteOffset": 1469088,
			"componentType": 5126,
			"count": 121,
			"max": [ 5, 1.110223E-16, 5 ],
			"min": [ -5, -1.110223E-16, -5 ],
			"type": "VEC3"
		},
		{
			"bufferView": 2,
			"byteOffset": 1470540,
			"componentType": 5126,
			"count": 121,
			"max": [ 0, 1, 0 ],
			"min": [ 0, 1, 0 ],
			"type": "VEC3"
		},
		{
			"bufferView": 1,
			"byteOffset": 489648,
			"componentType": 5126,
			"count": 121,
			"max": [ 1, 1 ],
			"min": [ 0, 0 ],
			"type": "VEC2"
		},
		{
			"bufferView": 3,
			"byteOffset": 979392,
			"componentType": 5126,
			"count": 121,
			"max": [ -1, 0, 0, 1 ],
			"min": [ -1, 0, 0, 1 ],
			"type": "VEC4"
		},
		{
			"bufferView": 0,
			"byteOffset": 720012,
			"componentType": 5123,
			"count": 600,
			"max": [ 120 ],
			"min": [ 0 ],
			"type": "SCALAR"
		},
		{
			"bufferView": 2,
			"byteOffset": 1471992,
			"componentType": 5126,
			"count": 121,
			"max": [ 5, 1.110223E-16, 5 ],
			"min": [ -5, -1.110223E-16, -5 ],
			"type": "VEC3"
		},
		{
			"bufferView": 2,
			"byteOffset": 1473444,
			"componentType": 5126,
			"count": 121,
			"max": [ 0, 1, 0 ],
			"min": [ 0, 1, 0 ],
			"type": "VEC3"
		},
		{
			"bufferView": 1,
			"byteOffset": 490616,
			"componentType": 5126,
			"count": 121,
			"max": [ 1, 1 ],
			"min": [ 0, 0 ],
			"type": "VEC2"
		},
		{
			"bufferView": 3,
			"byteOffset": 981328,
			"componentType": 5126,
			"count": 121,
			"max": [ -1, 0, 0, 1 ],
			"min": [ -1, 0, 0, 1 ],
			"type": "VEC4"
		},
		{
			"bufferView": 0,
			"byteOffset": 721212,
			"componentType": 5123,
			"count": 600,
			"max": [ 120 ],
			"min": [ 0 ],
			"type": "SCALAR"
		}
	],
	"buffers": [
		{
			"byteLength": 3672156,
			"uri": "成熟河谷.bin"
		}
	],
	"bufferViews": [
		{
			"buffer": 0,
			"byteLength": 722412,
			"target": 34963,
			"byteOffset": 2949744
		},
		{
			"buffer": 0,
			"byteLength": 491584,
			"target": 34962,
			"byteStride": 8,
			"byteOffset": 0
		},
		{
			"buffer": 0,
			"byteLength": 1474896,
			"target": 34962,
			"byteStride": 12,
			"byteOffset": 491584
		},
		{
			"buffer": 0,
			"byteLength": 983264,
			"target": 34962,
			"byteStride": 16,
			"byteOffset": 1966480
		}
	],
	"images": [
		{
			"uri": "/Assets/Models/傻不啦叽的河谷类型/Textures/DirtGrass.jpg"
		},
		{
			"uri": "/Assets/Models/傻不啦叽的河谷类型/Textures/Grass (Meadows).jpg"
		},
		{
			"uri": "/Assets/Textures/图片1.png"
		}
	],
	"materials": [
		{
			"pbrMetallicRoughness": {
				"baseColorFactor": [0.1294118, 0.2, 0.3647059, 1],
				"metallicFactor": 0,
				"roughnessFactor": 0.5
			},
			"emissiveFactor": [0, 0, 0],
			"doubleSided": false,
			"name": ""
		},
		{
			"pbrMetallicRoughness": {
				"baseColorTexture" : {
					"index" : 0,
					"texCoord" : 0
				},
				"baseColorFactor": [0.5882353, 0.5882353, 0.5882353, 1],
				"metallicFactor": 0,
				"roughnessFactor": 1
			},
			"emissiveFactor": [0, 0, 0],
			"doubleSided": false,
			"name": "DirtGrass"
		},
		{
			"pbrMetallicRoughness": {
				"baseColorTexture" : {
					"index" : 1,
					"texCoord" : 0
				},
				"baseColorFactor": [0.5882353, 0.5882353, 0.5882353, 1],
				"metallicFactor": 0,
				"roughnessFactor": 1
			},
			"emissiveFactor": [0, 0, 0],
			"doubleSided": false,
			"name": "Grass (Meadows)"
		},
		{
			"pbrMetallicRoughness": {
				"baseColorFactor": [0.1294118, 0.2, 0.3647059, 1],
				"metallicFactor": 0,
				"roughnessFactor": 0.5
			},
			"emissiveFactor": [0, 0, 0],
			"doubleSided": false,
			"name": "RAM_River_Material_Linear_Realistic Simple_Sea"
		},
		{
			"pbrMetallicRoughness": {
				"baseColorTexture" : {
					"index" : 2,
					"texCoord" : 0
				},
				"baseColorFactor": [1, 1, 1, 1],
				"metallicFactor": 0,
				"roughnessFactor": 0.5
			},
			"alphaMode": "BLEND",
			"alphaCutoff": 0.5,
			"emissiveFactor": [0, 0, 0],
			"doubleSided": false,
			"name": "1"
		}
	],
	"meshes": [
		{
			"name": "mesh_003_2932003",
			"primitives": [
				{
					"attributes": {
						"POSITION": 0,
						"NORMAL": 1,
						"TANGENT": 2
					},
					"indices": 3,
					"material": 0,
					"mode": 4
				}
			]
		},
		{
			"name": "mesh_002_2930002",
			"primitives": [
				{
					"attributes": {
						"POSITION": 4,
						"NORMAL": 5,
						"TANGENT": 6
					},
					"indices": 7,
					"material": 0,
					"mode": 4
				}
			]
		},
		{
			"name": "mesh_Box001_2924Box001",
			"primitives": [
				{
					"attributes": {
						"POSITION": 8,
						"NORMAL": 9,
						"TEXCOORD_0": 10,
						"TANGENT": 11
					},
					"indices": 12,
					"material": 1,
					"mode": 4
				},
				{
					"attributes": {
						"POSITION": 8,
						"NORMAL": 9,
						"TEXCOORD_0": 10,
						"TANGENT": 11
					},
					"indices": 13,
					"material": 2,
					"mode": 4
				}
			]
		},
		{
			"name": "mesh_Plane_580Sea Example",
			"primitives": [
				{
					"attributes": {
						"POSITION": 14,
						"NORMAL": 15,
						"TEXCOORD_0": 16,
						"TANGENT": 17
					},
					"indices": 18,
					"material": 3,
					"mode": 4
				}
			]
		},
		{
			"name": "mesh_Plane_580Plane",
			"primitives": [
				{
					"attributes": {
						"POSITION": 19,
						"NORMAL": 20,
						"TEXCOORD_0": 21,
						"TANGENT": 22
					},
					"indices": 23,
					"material": 4,
					"mode": 4
				}
			]
		}
	],
	"nodes": [
		{
			"name": "UnityGlTF_root",
			"children": [
				2
			]
		},
		{
			"name": "node_003_-7098",
			"mesh": 0,
			"translation": [ 0.4387292, 0.2705908, 0],
			"scale": [ 1.599311, 1.024075, 1]
		},
		{
			"name": "node__-7090",
			"children": [
				5,
				4,
				3,
				1,
				6
			],
			"matrix": [-388.2436, 0, 0, 0, 0, 316.6234, 0, 0, 0, 0, -652.3075, 0, 46636.32, 5237.489, -14358.59, 1]
		},
		{
			"name": "node_002_-7096",
			"mesh": 1,
			"translation": [ 0.4387292, 0.2705908, -0.006],
			"scale": [ 1.599311, 1.036108, 1]
		},
		{
			"name": "node_Box001_-7094",
			"mesh": 2,
			"translation": [ -0.05621188, 0, -0.206749],
			"scale": [ 1.321908, 1, 1],
			"rotation": [-0.7071068, 0, 0, -0.7071068]
		},
		{
			"name": "node_Sea Example_-7092",
			"mesh": 3,
			"translation": [ 0.122, 0.383, -0.209],
			"scale": [ 0.2092848, 0.1438914, 0.2112157]
		},
		{
			"name": "node_Plane_-7100",
			"mesh": 4,
			"translation": [ 0.173, 0.396, -0.165],
			"scale": [ 0.05351427, 0.05351427, 0.2136534],
			"rotation": [0, 1, 0, 0]
		}
	],
	"samplers": [
		{
			"magFilter": 9729,
			"minFilter": 9985,
			"wrapS": 10497,
			"wrapT": 10497
		}
	],
	"scenes": [
		{
			"name":"defaultScene",
			"nodes": [
				0
			]
		}
	],
	"scene": 0,
	"textures": [
		{
			"sampler": 0,
			"source": 0
		},
		{
			"sampler": 0,
			"source": 1
		},
		{
			"sampler": 0,
			"source": 2
		}
	]
}