{
	"asset": {
		"generator": "Unity 2018.3.11f1",
		"extras": {
			"exporterVersion" : "2.2.1"
		},
		"version": "2.0"
	},
	"accessors": [
		{
			"bufferView": 3,
			"byteOffset": 0,
			"componentType": 5126,
			"count": 24,
			"max": [ -0.39481, 0.7027644, 0.01712028 ],
			"min": [ -1.13753, -0.6818444, -0.02435082 ],
			"type": "VEC3"
		},
		{
			"bufferView": 3,
			"byteOffset": 288,
			"componentType": 5126,
			"count": 24,
			"max": [ 1, 1, 1 ],
			"min": [ -1, -1, -1 ],
			"type": "VEC3"
		},
		{
			"bufferView": 2,
			"byteOffset": 0,
			"componentType": 5126,
			"count": 24,
			"max": [ 1, 1 ],
			"min": [ 0, 0 ],
			"type": "VEC2"
		},
		{
			"bufferView": 4,
			"byteOffset": 0,
			"componentType": 5126,
			"count": 24,
			"max": [ 1, 1, 0, 1 ],
			"min": [ -1, -1, 0, 1 ],
			"type": "VEC4"
		},
		{
			"bufferView": 0,
			"byteOffset": 0,
			"componentType": 5123,
			"count": 36,
			"max": [ 23 ],
			"min": [ 0 ],
			"type": "SCALAR"
		},
		{
			"bufferView": 3,
			"byteOffset": 576,
			"componentType": 5126,
			"count": 5766,
			"max": [ 0.762, 1.016, 0 ],
			"min": [ -0.762, -1.016, -0.127 ],
			"type": "VEC3"
		},
		{
			"bufferView": 3,
			"byteOffset": 69768,
			"componentType": 5126,
			"count": 5766,
			"max": [ 1, 1, 1 ],
			"min": [ -1, -1, -1 ],
			"type": "VEC3"
		},
		{
			"bufferView": 2,
			"byteOffset": 192,
			"componentType": 5126,
			"count": 5766,
			"max": [ 1, 1 ],
			"min": [ -3.650784E-07, 0 ],
			"type": "VEC2"
		},
		{
			"bufferView": 4,
			"byteOffset": 384,
			"componentType": 5126,
			"count": 5766,
			"max": [ 1, 1, 0, 1 ],
			"min": [ -1, -1, 0, 1 ],
			"type": "VEC4"
		},
		{
			"bufferView": 0,
			"byteOffset": 72,
			"componentType": 5123,
			"count": 32400,
			"max": [ 5765 ],
			"min": [ 0 ],
			"type": "SCALAR"
		},
		{
			"bufferView": 3,
			"byteOffset": 138960,
			"componentType": 5126,
			"count": 5782,
			"max": [ 0.762, 1.057869, 0.2330779 ],
			"min": [ -0.762, -1.016, -0.5043386 ],
			"type": "VEC3"
		},
		{
			"bufferView": 3,
			"byteOffset": 208344,
			"componentType": 5126,
			"count": 5782,
			"max": [ 1, 1, 1 ],
			"min": [ -1, -1, -1 ],
			"type": "VEC3"
		},
		{
			"bufferView": 2,
			"byteOffset": 46320,
			"componentType": 5126,
			"count": 5782,
			"max": [ 1, 1 ],
			"min": [ -3.650784E-07, 0 ],
			"type": "VEC2"
		},
		{
			"bufferView": 4,
			"byteOffset": 92640,
			"componentType": 5126,
			"count": 5782,
			"max": [ 1, 1, 0.8013387, 1 ],
			"min": [ -1, -1, -0.8210125, -1 ],
			"type": "VEC4"
		},
		{
			"bufferView": 0,
			"byteOffset": 64872,
			"componentType": 5123,
			"count": 32394,
			"max": [ 5781 ],
			"min": [ 0 ],
			"type": "SCALAR"
		},
		{
			"bufferView": 3,
			"byteOffset": 277728,
			"componentType": 5126,
			"count": 16641,
			"max": [ 0.3844289, 0.6776866, -0.01255078 ],
			"min": [ -0.436231, -0.4461909, -0.1560945 ],
			"type": "VEC3"
		},
		{
			"bufferView": 3,
			"byteOffset": 477420,
			"componentType": 5126,
			"count": 16641,
			"max": [ 0.9716704, 0.9312661, -0.1633204 ],
			"min": [ -0.952258, -0.9427039, -1 ],
			"type": "VEC3"
		},
		{
			"bufferView": 2,
			"byteOffset": 92576,
			"componentType": 5126,
			"count": 16641,
			"max": [ 1, 1 ],
			"min": [ 0, 0 ],
			"type": "VEC2"
		},
		{
			"bufferView": 4,
			"byteOffset": 185152,
			"componentType": 5126,
			"count": 16641,
			"max": [ -0.1892619, 0.9575319, 0.978777, 1 ],
			"min": [ -1, -0.7726583, -0.9818667, 1 ],
			"type": "VEC4"
		},
		{
			"bufferView": 0,
			"byteOffset": 129660,
			"componentType": 5123,
			"count": 98304,
			"max": [ 16640 ],
			"min": [ 0 ],
			"type": "SCALAR"
		},
		{
			"bufferView": 1,
			"byteOffset": 0,
			"componentType": 5126,
			"count": 30,
			"max": [ 0.9666667 ],
			"min": [ 0 ],
			"type": "SCALAR"
		},
		{
			"bufferView": 5,
			"byteOffset": 0,
			"componentType": 5126,
			"count": 30,
			"max": [ 0.2289823, -0.01639438, -0.5500001 ],
			"min": [ 0.2289823, -0.137, -0.5500311 ],
			"type": "VEC3"
		},
		{
			"bufferView": 6,
			"byteOffset": 0,
			"componentType": 5126,
			"count": 30,
			"max": [ -0.7071068, 0, 0, -0.7071068 ],
			"min": [ -0.7071068, 0, 0, -0.7071068 ],
			"type": "VEC4"
		},
		{
			"bufferView": 5,
			"byteOffset": 360,
			"componentType": 5126,
			"count": 30,
			"max": [ 1, 1, 1 ],
			"min": [ 1, 1, 1 ],
			"type": "VEC3"
		},
		{
			"bufferView": 3,
			"byteOffset": 677112,
			"componentType": 5126,
			"count": 5766,
			"max": [ 0.7152351, 1.022199, 0.2870166 ],
			"min": [ -0.7447804, 0.3862294, 0.09268892 ],
			"type": "VEC3"
		},
		{
			"bufferView": 3,
			"byteOffset": 746304,
			"componentType": 5126,
			"count": 5766,
			"max": [ 1, 1, 1 ],
			"min": [ -1, -1, -1 ],
			"type": "VEC3"
		},
		{
			"bufferView": 2,
			"byteOffset": 225704,
			"componentType": 5126,
			"count": 5766,
			"max": [ 1, 1 ],
			"min": [ -3.650784E-07, 0 ],
			"type": "VEC2"
		},
		{
			"bufferView": 4,
			"byteOffset": 451408,
			"componentType": 5126,
			"count": 5766,
			"max": [ 1, 1, 0, -1 ],
			"min": [ -1, -1, 0, -1 ],
			"type": "VEC4"
		},
		{
			"bufferView": 0,
			"byteOffset": 326268,
			"componentType": 5123,
			"count": 32400,
			"max": [ 5765 ],
			"min": [ 0 ],
			"type": "SCALAR"
		}
	],
	"animations": [
		{
			"name": "Plane004",
			"channels": [
				{
					"sampler": 0,
					"target": {
						"node": 5,
						"path": "translation"
					}
				},
				{
					"sampler": 1,
					"target": {
						"node": 5,
						"path": "rotation"
					}
				},
				{
					"sampler": 2,
					"target": {
						"node": 5,
						"path": "scale"
					}
				}
			],
			"samplers": [
				{
					"input": 20,
					"interpolation": "LINEAR",
					"output": 21
				},
				{
					"input": 20,
					"interpolation": "LINEAR",
					"output": 22
				},
				{
					"input": 20,
					"interpolation": "LINEAR",
					"output": 23
				}
			]
		}
	],
	"buffers": [
		{
			"byteLength": 2023380,
			"uri": "鸟爪型三角洲.bin"
		}
	],
	"bufferViews": [
		{
			"buffer": 0,
			"byteLength": 391068,
			"target": 34963,
			"byteOffset": 1631112
		},
		{
			"buffer": 0,
			"byteLength": 120,
			"byteOffset": 0
		},
		{
			"buffer": 0,
			"byteLength": 271832,
			"target": 34962,
			"byteStride": 8,
			"byteOffset": 120
		},
		{
			"buffer": 0,
			"byteLength": 815496,
			"target": 34962,
			"byteStride": 12,
			"byteOffset": 271952
		},
		{
			"buffer": 0,
			"byteLength": 543664,
			"target": 34962,
			"byteStride": 16,
			"byteOffset": 1087448
		},
		{
			"buffer": 0,
			"byteLength": 720,
			"byteStride": 12,
			"byteOffset": 2022180
		},
		{
			"buffer": 0,
			"byteLength": 480,
			"byteStride": 16,
			"byteOffset": 2022900
		}
	],
	"images": [
		{
			"uri": "/Assets/等待被认可的鸟爪型三角洲-贴图之后.fbm/xzg-3.jpg"
		},
		{
			"uri": "/Assets/等待被认可的鸟爪型三角洲-贴图之后.fbm/xzg-2.jpg"
		},
		{
			"uri": "/Assets/等待被认可的鸟爪型三角洲-贴图之后.fbm/xzg-4海.jpg"
		}
	],
	"materials": [
		{
			"pbrMetallicRoughness": {
				"baseColorTexture" : {
					"index" : 0,
					"texCoord" : 0
				},
				"baseColorFactor": [0.5882353, 0.5882353, 0.5882353, 1],
				"metallicFactor": 0,
				"roughnessFactor": 1
			},
			"emissiveFactor": [0, 0, 0],
			"doubleSided": false,
			"name": "xzg-3"
		},
		{
			"pbrMetallicRoughness": {
				"baseColorTexture" : {
					"index" : 1,
					"texCoord" : 0
				},
				"baseColorFactor": [0.5882353, 0.5882353, 0.5882353, 1],
				"metallicFactor": 0,
				"roughnessFactor": 1
			},
			"emissiveFactor": [0, 0, 0],
			"doubleSided": false,
			"name": "xzg-2"
		},
		{
			"pbrMetallicRoughness": {
				"baseColorTexture" : {
					"index" : 2,
					"texCoord" : 0
				},
				"baseColorFactor": [0.5882353, 0.5882353, 0.5882353, 1],
				"metallicFactor": 0,
				"roughnessFactor": 1
			},
			"emissiveFactor": [0, 0, 0],
			"doubleSided": false,
			"name": "xzg-4"
		}
	],
	"meshes": [
		{
			"name": "mesh_Box006_10564Box006",
			"primitives": [
				{
					"attributes": {
						"POSITION": 0,
						"NORMAL": 1,
						"TEXCOORD_0": 2,
						"TANGENT": 3
					},
					"indices": 4,
					"material": 0,
					"mode": 4
				}
			]
		},
		{
			"name": "mesh_Box003_10560Box003",
			"primitives": [
				{
					"attributes": {
						"POSITION": 5,
						"NORMAL": 6,
						"TEXCOORD_0": 7,
						"TANGENT": 8
					},
					"indices": 9,
					"material": 1,
					"mode": 4
				}
			]
		},
		{
			"name": "mesh_Box002_10558Box002",
			"primitives": [
				{
					"attributes": {
						"POSITION": 10,
						"NORMAL": 11,
						"TEXCOORD_0": 12,
						"TANGENT": 13
					},
					"indices": 14,
					"material": 1,
					"mode": 4
				}
			]
		},
		{
			"name": "mesh_Plane004_10566Plane004",
			"primitives": [
				{
					"attributes": {
						"POSITION": 15,
						"NORMAL": 16,
						"TEXCOORD_0": 17,
						"TANGENT": 18
					},
					"indices": 19,
					"material": 0,
					"mode": 4
				}
			]
		},
		{
			"name": "mesh_Box005_10562Box005",
			"primitives": [
				{
					"attributes": {
						"POSITION": 24,
						"NORMAL": 25,
						"TEXCOORD_0": 26,
						"TANGENT": 27
					},
					"indices": 28,
					"material": 2,
					"mode": 4
				}
			]
		}
	],
	"nodes": [
		{
			"name": "UnityGlTF_root",
			"children": [
				2
			]
		},
		{
			"name": "node_Box006_-1640",
			"mesh": 0,
			"translation": [ 0.9825861, 4.511946E-17, 0.2802659],
			"rotation": [-0.7071068, 0, 0, -0.7071068]
		},
		{
			"name": "node_-_-1630",
			"children": [
				4,
				3,
				6,
				1,
				7,
				5
			],
			"matrix": [1, 0, 0, 0, 0, 1, 0, 0, 0, 0, 1, 0, 0.7211103, -0.8149052, 0.213222, 1]
		},
		{
			"name": "node_Box003_-1636",
			"mesh": 1,
			"translation": [ -0.1329904, -0.2909342, -0.03185164],
			"rotation": [-0.7071068, 0, 0, -0.7071068]
		},
		{
			"name": "node_Box002_-1634",
			"mesh": 2,
			"translation": [ -0.1400178, -0.1949798, -0.03202595],
			"rotation": [-0.7071068, 0, 0, -0.7071068]
		},
		{
			"name": "node_Plane004_-1644",
			"mesh": 3,
			"translation": [ 0.2289823, -0.137, -0.5500311],
			"rotation": [-0.7071068, 0, 0, -0.7071068]
		},
		{
			"name": "node_Box005_-1638",
			"mesh": 4,
			"translation": [ -0.1037905, 0.1185694, -1.420816],
			"rotation": [-0.7071068, 0, 0, -0.7071068]
		},
		{
			"name": "node_Line001_-1642",
			"translation": [ 0.1998494, 0, -0.3620143],
			"rotation": [-0.7071068, 0, 0, -0.7071068]
		}
	],
	"samplers": [
		{
			"magFilter": 9729,
			"minFilter": 9985,
			"wrapS": 10497,
			"wrapT": 10497
		}
	],
	"scenes": [
		{
			"name":"defaultScene",
			"nodes": [
				0
			]
		}
	],
	"scene": 0,
	"textures": [
		{
			"sampler": 0,
			"source": 0
		},
		{
			"sampler": 0,
			"source": 1
		},
		{
			"sampler": 0,
			"source": 2
		}
	]
}