{
	"asset": {
		"generator": "Unity 2018.3.11f1",
		"extras": {
			"exporterVersion" : "2.2.1"
		},
		"version": "2.0"
	},
	"accessors": [
		{
			"bufferView": 1,
			"byteOffset": 0,
			"componentType": 5126,
			"count": 30,
			"max": [ 0.9666667 ],
			"min": [ 0 ],
			"type": "SCALAR"
		},
		{
			"bufferView": 5,
			"byteOffset": 0,
			"componentType": 5126,
			"count": 30,
			"max": [ 38.3, 0.6, -33.8 ],
			"min": [ 38.3, 0.001955569, -33.8 ],
			"type": "VEC3"
		},
		{
			"bufferView": 6,
			"byteOffset": 0,
			"componentType": 5126,
			"count": 30,
			"max": [ 0, 0, 0, -1 ],
			"min": [ 0, 0, 0, -1 ],
			"type": "VEC4"
		},
		{
			"bufferView": 5,
			"byteOffset": 360,
			"componentType": 5126,
			"count": 30,
			"max": [ 1, 1, 1 ],
			"min": [ 1, 1, 1 ],
			"type": "VEC3"
		},
		{
			"bufferView": 1,
			"byteOffset": 120,
			"componentType": 5126,
			"count": 30,
			"max": [ 0.9666667 ],
			"min": [ 0 ],
			"type": "SCALAR"
		},
		{
			"bufferView": 5,
			"byteOffset": 720,
			"componentType": 5126,
			"count": 30,
			"max": [ -24.6, -0.01205897, -30.4 ],
			"min": [ -24.6, -3.7, -30.4 ],
			"type": "VEC3"
		},
		{
			"bufferView": 6,
			"byteOffset": 480,
			"componentType": 5126,
			"count": 30,
			"max": [ 0, 0, 0, -1 ],
			"min": [ 0, 0, 0, -1 ],
			"type": "VEC4"
		},
		{
			"bufferView": 5,
			"byteOffset": 1080,
			"componentType": 5126,
			"count": 30,
			"max": [ 1, 1, 1 ],
			"min": [ 1, 1, 1 ],
			"type": "VEC3"
		},
		{
			"bufferView": 3,
			"byteOffset": 0,
			"componentType": 5126,
			"count": 4431,
			"max": [ -13, 8.754807, 58.8 ],
			"min": [ -63, 0, 8.799999 ],
			"type": "VEC3"
		},
		{
			"bufferView": 3,
			"byteOffset": 53172,
			"componentType": 5126,
			"count": 4431,
			"max": [ 0.9113719, 1, 0.8751909 ],
			"min": [ -0.9183322, 0.3546325, -0.9130663 ],
			"type": "VEC3"
		},
		{
			"bufferView": 2,
			"byteOffset": 0,
			"componentType": 5126,
			"count": 4431,
			"max": [ 1, 1 ],
			"min": [ 0, 0 ],
			"type": "VEC2"
		},
		{
			"bufferView": 4,
			"byteOffset": 0,
			"componentType": 5126,
			"count": 4431,
			"max": [ 0.2199757, 0.8808866, -0.3977962, -1 ],
			"min": [ -0.2290778, -0.9174738, -1, -1 ],
			"type": "VEC4"
		},
		{
			"bufferView": 0,
			"byteOffset": 0,
			"componentType": 5123,
			"count": 24576,
			"max": [ 4430 ],
			"min": [ 0 ],
			"type": "SCALAR"
		},
		{
			"bufferView": 3,
			"byteOffset": 106344,
			"componentType": 5126,
			"count": 4320,
			"max": [ 50, 4.947812, 55.5 ],
			"min": [ 0, 0, 5.5 ],
			"type": "VEC3"
		},
		{
			"bufferView": 3,
			"byteOffset": 158184,
			"componentType": 5126,
			"count": 4320,
			"max": [ 0.8200929, 1, 0.87564 ],
			"min": [ -0.855075, 0.4450861, -0.8265547 ],
			"type": "VEC3"
		},
		{
			"bufferView": 2,
			"byteOffset": 35448,
			"componentType": 5126,
			"count": 4320,
			"max": [ 1, 1 ],
			"min": [ 0, 0 ],
			"type": "VEC2"
		},
		{
			"bufferView": 4,
			"byteOffset": 70896,
			"componentType": 5126,
			"count": 4320,
			"max": [ 0.2194703, 0.8868794, -0.4620008, -1 ],
			"min": [ -0.1146672, -0.8725448, -1, -1 ],
			"type": "VEC4"
		},
		{
			"bufferView": 0,
			"byteOffset": 49152,
			"componentType": 5123,
			"count": 24576,
			"max": [ 4319 ],
			"min": [ 0 ],
			"type": "SCALAR"
		},
		{
			"bufferView": 3,
			"byteOffset": 210024,
			"componentType": 5126,
			"count": 121,
			"max": [ 5, 1.110223E-16, 5 ],
			"min": [ -5, -1.110223E-16, -5 ],
			"type": "VEC3"
		},
		{
			"bufferView": 3,
			"byteOffset": 211476,
			"componentType": 5126,
			"count": 121,
			"max": [ 0, 1, 0 ],
			"min": [ 0, 1, 0 ],
			"type": "VEC3"
		},
		{
			"bufferView": 2,
			"byteOffset": 70008,
			"componentType": 5126,
			"count": 121,
			"max": [ 1, 1 ],
			"min": [ 0, 0 ],
			"type": "VEC2"
		},
		{
			"bufferView": 4,
			"byteOffset": 140016,
			"componentType": 5126,
			"count": 121,
			"max": [ -1, 0, 0, 1 ],
			"min": [ -1, 0, 0, 1 ],
			"type": "VEC4"
		},
		{
			"bufferView": 0,
			"byteOffset": 98304,
			"componentType": 5123,
			"count": 600,
			"max": [ 120 ],
			"min": [ 0 ],
			"type": "SCALAR"
		}
	],
	"animations": [
		{
			"name": "",
			"channels": [
				{
					"sampler": 0,
					"target": {
						"node": 2,
						"path": "translation"
					}
				},
				{
					"sampler": 1,
					"target": {
						"node": 2,
						"path": "rotation"
					}
				},
				{
					"sampler": 2,
					"target": {
						"node": 2,
						"path": "scale"
					}
				},
				{
					"sampler": 3,
					"target": {
						"node": 4,
						"path": "translation"
					}
				},
				{
					"sampler": 4,
					"target": {
						"node": 4,
						"path": "rotation"
					}
				},
				{
					"sampler": 5,
					"target": {
						"node": 4,
						"path": "scale"
					}
				}
			],
			"samplers": [
				{
					"input": 0,
					"interpolation": "LINEAR",
					"output": 1
				},
				{
					"input": 0,
					"interpolation": "LINEAR",
					"output": 2
				},
				{
					"input": 0,
					"interpolation": "LINEAR",
					"output": 3
				},
				{
					"input": 4,
					"interpolation": "LINEAR",
					"output": 5
				},
				{
					"input": 4,
					"interpolation": "LINEAR",
					"output": 6
				},
				{
					"input": 4,
					"interpolation": "LINEAR",
					"output": 7
				}
			]
		}
	],
	"buffers": [
		{
			"byteLength": 528000,
			"uri": "汊道型河漫滩.bin"
		}
	],
	"bufferViews": [
		{
			"buffer": 0,
			"byteLength": 99504,
			"target": 34963,
			"byteOffset": 426096
		},
		{
			"buffer": 0,
			"byteLength": 240,
			"byteOffset": 0
		},
		{
			"buffer": 0,
			"byteLength": 70976,
			"target": 34962,
			"byteStride": 8,
			"byteOffset": 240
		},
		{
			"buffer": 0,
			"byteLength": 212928,
			"target": 34962,
			"byteStride": 12,
			"byteOffset": 71216
		},
		{
			"buffer": 0,
			"byteLength": 141952,
			"target": 34962,
			"byteStride": 16,
			"byteOffset": 284144
		},
		{
			"buffer": 0,
			"byteLength": 1440,
			"byteStride": 12,
			"byteOffset": 525600
		},
		{
			"buffer": 0,
			"byteLength": 960,
			"byteStride": 16,
			"byteOffset": 527040
		}
	],
	"images": [
		{
			"uri": "/Assets/风蚀雅丹/Textures/Grass (Meadows).jpg"
		},
		{
			"uri": "/Assets/风蚀雅丹/Textures/GoodDirt.jpg"
		}
	],
	"materials": [
		{
			"pbrMetallicRoughness": {
				"baseColorTexture" : {
					"index" : 0,
					"texCoord" : 0
				},
				"baseColorFactor": [0.9528302, 0.9528302, 0.9528302, 1],
				"metallicFactor": 0,
				"roughnessFactor": 0.5
			},
			"emissiveFactor": [0, 0, 0],
			"doubleSided": false,
			"name": "111"
		},
		{
			"pbrMetallicRoughness": {
				"baseColorTexture" : {
					"index" : 1,
					"texCoord" : 0
				},
				"baseColorFactor": [1, 1, 1, 1],
				"metallicFactor": 0,
				"roughnessFactor": 0.5
			},
			"emissiveFactor": [0, 0, 0],
			"doubleSided": false,
			"name": ""
		},
		{
			"pbrMetallicRoughness": {
				"baseColorFactor": [0.1434674, 0.4687789, 0.9811321, 1],
				"metallicFactor": 0,
				"roughnessFactor": 0.5
			},
			"emissiveFactor": [0, 0, 0],
			"doubleSided": false,
			"name": ""
		}
	],
	"meshes": [
		{
			"name": "mesh_default_12266default",
			"primitives": [
				{
					"attributes": {
						"POSITION": 8,
						"NORMAL": 9,
						"TEXCOORD_0": 10,
						"TANGENT": 11
					},
					"indices": 12,
					"material": 0,
					"mode": 4
				}
			]
		},
		{
			"name": "mesh_default_12254default",
			"primitives": [
				{
					"attributes": {
						"POSITION": 13,
						"NORMAL": 14,
						"TEXCOORD_0": 15,
						"TANGENT": 16
					},
					"indices": 17,
					"material": 1,
					"mode": 4
				}
			]
		},
		{
			"name": "mesh_Plane_590Sea Example",
			"primitives": [
				{
					"attributes": {
						"POSITION": 18,
						"NORMAL": 19,
						"TEXCOORD_0": 20,
						"TANGENT": 21
					},
					"indices": 22,
					"material": 2,
					"mode": 4
				}
			]
		}
	],
	"nodes": [
		{
			"name": "UnityGlTF_root",
			"children": [
				1
			]
		},
		{
			"name": "node__-19816",
			"children": [
				2,
				4,
				6
			],
			"matrix": [1, 0, 0, 0, 0, 1, 0, 0, 0, 0, 1, 0, -87, 122.1758, -5.063078, 1]
		},
		{
			"name": "node_2_-19822",
			"children": [
				3
			],
			"translation": [ 38.3, 0, -33.8]
		},
		{
			"name": "node_default_-19826",
			"mesh": 0
		},
		{
			"name": "node_1_-19834",
			"children": [
				5
			],
			"translation": [ -24.6, 0, -30.4]
		},
		{
			"name": "node_default_-19838",
			"mesh": 1
		},
		{
			"name": "node_Sea Example_-19846",
			"mesh": 2,
			"translation": [ 0, 1, 0],
			"scale": [ 5, 5, 5]
		}
	],
	"samplers": [
		{
			"magFilter": 9729,
			"minFilter": 9985,
			"wrapS": 10497,
			"wrapT": 10497
		}
	],
	"scenes": [
		{
			"name":"defaultScene",
			"nodes": [
				0
			]
		}
	],
	"scene": 0,
	"textures": [
		{
			"sampler": 0,
			"source": 0
		},
		{
			"sampler": 0,
			"source": 1
		}
	]
}