{
	"asset": {
		"generator": "Unity 2018.3.11f1",
		"extras": {
			"exporterVersion" : "2.2.1"
		},
		"version": "2.0"
	},
	"accessors": [
		{
			"bufferView": 3,
			"byteOffset": 0,
			"componentType": 5126,
			"count": 3543,
			"max": [ 5.197209, 7.083377, 2.721552 ],
			"min": [ -5.361435, 0.08397018, -2.914099 ],
			"type": "VEC3"
		},
		{
			"bufferView": 3,
			"byteOffset": 42516,
			"componentType": 5126,
			"count": 3543,
			"max": [ 1, 1, 1 ],
			"min": [ -1, -1, -1 ],
			"type": "VEC3"
		},
		{
			"bufferView": 2,
			"byteOffset": 0,
			"componentType": 5126,
			"count": 3543,
			"max": [ 1.339106, 0.9963619 ],
			"min": [ 0.001809448, -0.4818364 ],
			"type": "VEC2"
		},
		{
			"bufferView": 4,
			"byteOffset": 0,
			"componentType": 5126,
			"count": 3543,
			"max": [ 1, 1, 1, 1 ],
			"min": [ -1, -1, -1, -1 ],
			"type": "VEC4"
		},
		{
			"bufferView": 0,
			"byteOffset": 0,
			"componentType": 5123,
			"count": 6486,
			"max": [ 3542 ],
			"min": [ 0 ],
			"type": "SCALAR"
		},
		{
			"bufferView": 3,
			"byteOffset": 85032,
			"componentType": 5126,
			"count": 2580,
			"max": [ 1.957031, 0.824, 0 ],
			"min": [ -1.957031, -0.105, -0.25 ],
			"type": "VEC3"
		},
		{
			"bufferView": 3,
			"byteOffset": 115992,
			"componentType": 5126,
			"count": 2580,
			"max": [ 1, 1, 1 ],
			"min": [ -1, -1, -1 ],
			"type": "VEC3"
		},
		{
			"bufferView": 4,
			"byteOffset": 56688,
			"componentType": 5126,
			"count": 2580,
			"max": [ 1, 0, 0, 1 ],
			"min": [ 1, 0, 0, 1 ],
			"type": "VEC4"
		},
		{
			"bufferView": 0,
			"byteOffset": 12972,
			"componentType": 5123,
			"count": 6600,
			"max": [ 2579 ],
			"min": [ 0 ],
			"type": "SCALAR"
		},
		{
			"bufferView": 1,
			"byteOffset": 0,
			"componentType": 5126,
			"count": 30,
			"max": [ 0.9666667 ],
			"min": [ 0 ],
			"type": "SCALAR"
		},
		{
			"bufferView": 5,
			"byteOffset": 0,
			"componentType": 5126,
			"count": 30,
			"max": [ 0, 7.49, 0 ],
			"min": [ 0, 7.42, 0 ],
			"type": "VEC3"
		},
		{
			"bufferView": 6,
			"byteOffset": 0,
			"componentType": 5126,
			"count": 30,
			"max": [ 0, 0, 0, -1 ],
			"min": [ 0, 0, 0, -1 ],
			"type": "VEC4"
		},
		{
			"bufferView": 5,
			"byteOffset": 360,
			"componentType": 5126,
			"count": 30,
			"max": [ 1.5, 1.5, 1.6 ],
			"min": [ 1.5, 1.5, 1.6 ],
			"type": "VEC3"
		}
	],
	"animations": [
		{
			"name": "",
			"channels": [
				{
					"sampler": 0,
					"target": {
						"node": 2,
						"path": "translation"
					}
				},
				{
					"sampler": 1,
					"target": {
						"node": 2,
						"path": "rotation"
					}
				},
				{
					"sampler": 2,
					"target": {
						"node": 2,
						"path": "scale"
					}
				}
			],
			"samplers": [
				{
					"input": 9,
					"interpolation": "LINEAR",
					"output": 10
				},
				{
					"input": 9,
					"interpolation": "LINEAR",
					"output": 11
				},
				{
					"input": 9,
					"interpolation": "LINEAR",
					"output": 12
				}
			]
		}
	],
	"buffers": [
		{
			"byteLength": 300756,
			"uri": "青年旅社.bin"
		}
	],
	"bufferViews": [
		{
			"buffer": 0,
			"byteLength": 26172,
			"target": 34963,
			"byteOffset": 273384
		},
		{
			"buffer": 0,
			"byteLength": 120,
			"byteOffset": 0
		},
		{
			"buffer": 0,
			"byteLength": 28344,
			"target": 34962,
			"byteStride": 8,
			"byteOffset": 120
		},
		{
			"buffer": 0,
			"byteLength": 146952,
			"target": 34962,
			"byteStride": 12,
			"byteOffset": 28464
		},
		{
			"buffer": 0,
			"byteLength": 97968,
			"target": 34962,
			"byteStride": 16,
			"byteOffset": 175416
		},
		{
			"buffer": 0,
			"byteLength": 720,
			"byteStride": 12,
			"byteOffset": 299556
		},
		{
			"buffer": 0,
			"byteLength": 480,
			"byteStride": 16,
			"byteOffset": 300276
		}
	],
	"images": [
		{
			"uri": "/Assets/Building Apartment/Texture/Building_Apartment_10.jpg"
		}
	],
	"materials": [
		{
			"pbrMetallicRoughness": {
				"baseColorTexture" : {
					"index" : 0,
					"texCoord" : 0
				},
				"baseColorFactor": [0.5882353, 0.5882353, 0.5882353, 1],
				"metallicFactor": 0,
				"roughnessFactor": 0.5
			},
			"emissiveFactor": [0, 0, 0],
			"doubleSided": false,
			"name": "Building_Apartment_10_2048"
		},
		{
			"pbrMetallicRoughness": {
				"baseColorFactor": [0.9568628, 0.7568628, 0.3764706, 1],
				"metallicFactor": 0,
				"roughnessFactor": 0.5
			},
			"emissiveFactor": [0, 0, 0],
			"doubleSided": false,
			"name": "New Material 1"
		}
	],
	"meshes": [
		{
			"name": "mesh_Building_Apartment_10_19082",
			"primitives": [
				{
					"attributes": {
						"POSITION": 0,
						"NORMAL": 1,
						"TEXCOORD_0": 2,
						"TANGENT": 3
					},
					"indices": 4,
					"material": 0,
					"mode": 4
				}
			]
		},
		{
			"name": "mesh_Text001_19886",
			"primitives": [
				{
					"attributes": {
						"POSITION": 5,
						"NORMAL": 6,
						"TANGENT": 7
					},
					"indices": 8,
					"material": 1,
					"mode": 4
				}
			]
		}
	],
	"nodes": [
		{
			"name": "UnityGlTF_root",
			"children": [
				1
			]
		},
		{
			"name": "node__-15452",
			"mesh": 0,
			"children": [
				2
			],
			"matrix": [1, 0, 0, 0, 0, 1, -1.331581E-07, 0, 0, 1.331581E-07, 1, 0, 161.25, 394.96, -293.6758, 1]
		},
		{
			"name": "node__-15460",
			"mesh": 1,
			"translation": [ 0, 7.42, 0],
			"scale": [ 1.5, 1.5, 1.6]
		}
	],
	"samplers": [
		{
			"magFilter": 9729,
			"minFilter": 9985,
			"wrapS": 10497,
			"wrapT": 10497
		}
	],
	"scenes": [
		{
			"name":"defaultScene",
			"nodes": [
				0
			]
		}
	],
	"scene": 0,
	"textures": [
		{
			"sampler": 0,
			"source": 0
		}
	]
}