{
	"asset": {
		"generator": "Unity 2018.3.11f1",
		"extras": {
			"exporterVersion" : "2.2.1"
		},
		"version": "2.0"
	},
	"accessors": [
		{
			"bufferView": 3,
			"byteOffset": 0,
			"componentType": 5126,
			"count": 5766,
			"max": [ 0.762, 1.016, 0 ],
			"min": [ -0.762, -1.016, -0.127 ],
			"type": "VEC3"
		},
		{
			"bufferView": 3,
			"byteOffset": 69192,
			"componentType": 5126,
			"count": 5766,
			"max": [ 1, 1, 1 ],
			"min": [ -1, -1, -1 ],
			"type": "VEC3"
		},
		{
			"bufferView": 2,
			"byteOffset": 0,
			"componentType": 5126,
			"count": 5766,
			"max": [ 1, 1 ],
			"min": [ -3.650784E-07, 0 ],
			"type": "VEC2"
		},
		{
			"bufferView": 4,
			"byteOffset": 0,
			"componentType": 5126,
			"count": 5766,
			"max": [ 1, 1, 0, 1 ],
			"min": [ -1, -1, 0, 1 ],
			"type": "VEC4"
		},
		{
			"bufferView": 0,
			"byteOffset": 0,
			"componentType": 5123,
			"count": 32400,
			"max": [ 5765 ],
			"min": [ 0 ],
			"type": "SCALAR"
		},
		{
			"bufferView": 3,
			"byteOffset": 138384,
			"componentType": 5126,
			"count": 5774,
			"max": [ 0.762, 1.057869, 0.2330779 ],
			"min": [ -0.762, -1.016, -0.5043386 ],
			"type": "VEC3"
		},
		{
			"bufferView": 3,
			"byteOffset": 207672,
			"componentType": 5126,
			"count": 5774,
			"max": [ 1, 1, 1 ],
			"min": [ -1, -1, -1 ],
			"type": "VEC3"
		},
		{
			"bufferView": 2,
			"byteOffset": 46128,
			"componentType": 5126,
			"count": 5774,
			"max": [ 1, 1 ],
			"min": [ -3.650784E-07, 0 ],
			"type": "VEC2"
		},
		{
			"bufferView": 4,
			"byteOffset": 92256,
			"componentType": 5126,
			"count": 5774,
			"max": [ 1, 1, 0.8013387, 1 ],
			"min": [ -1, -1, -0.8210125, -1 ],
			"type": "VEC4"
		},
		{
			"bufferView": 0,
			"byteOffset": 64800,
			"componentType": 5123,
			"count": 32394,
			"max": [ 5773 ],
			"min": [ 0 ],
			"type": "SCALAR"
		},
		{
			"bufferView": 3,
			"byteOffset": 276960,
			"componentType": 5126,
			"count": 5766,
			"max": [ 0.7152351, 1.022199, 0.1943277 ],
			"min": [ -0.7447804, 0.3862294, 0 ],
			"type": "VEC3"
		},
		{
			"bufferView": 3,
			"byteOffset": 346152,
			"componentType": 5126,
			"count": 5766,
			"max": [ 1, 1, 1 ],
			"min": [ -1, -1, -1 ],
			"type": "VEC3"
		},
		{
			"bufferView": 2,
			"byteOffset": 92320,
			"componentType": 5126,
			"count": 5766,
			"max": [ 1, 1 ],
			"min": [ -3.650784E-07, 0 ],
			"type": "VEC2"
		},
		{
			"bufferView": 4,
			"byteOffset": 184640,
			"componentType": 5126,
			"count": 5766,
			"max": [ 1, 1, 0, -1 ],
			"min": [ -1, -1, 0, -1 ],
			"type": "VEC4"
		},
		{
			"bufferView": 0,
			"byteOffset": 129588,
			"componentType": 5123,
			"count": 32400,
			"max": [ 5765 ],
			"min": [ 0 ],
			"type": "SCALAR"
		},
		{
			"bufferView": 3,
			"byteOffset": 415344,
			"componentType": 5126,
			"count": 24,
			"max": [ -0.4178609, 0.6268073, 0.1896033 ],
			"min": [ -1.110949, -0.7269883, -0.04358139 ],
			"type": "VEC3"
		},
		{
			"bufferView": 3,
			"byteOffset": 415632,
			"componentType": 5126,
			"count": 24,
			"max": [ 1, 1, 0.9986427 ],
			"min": [ -1, -1, -0.9986427 ],
			"type": "VEC3"
		},
		{
			"bufferView": 2,
			"byteOffset": 138448,
			"componentType": 5126,
			"count": 24,
			"max": [ 1, 1 ],
			"min": [ 0, 0 ],
			"type": "VEC2"
		},
		{
			"bufferView": 4,
			"byteOffset": 276896,
			"componentType": 5126,
			"count": 24,
			"max": [ 1, 0.9986427, 0.05208451, 1 ],
			"min": [ -1, -0.9986427, -0.05208451, 1 ],
			"type": "VEC4"
		},
		{
			"bufferView": 0,
			"byteOffset": 194388,
			"componentType": 5123,
			"count": 36,
			"max": [ 23 ],
			"min": [ 0 ],
			"type": "SCALAR"
		},
		{
			"bufferView": 3,
			"byteOffset": 415920,
			"componentType": 5126,
			"count": 16641,
			"max": [ 0.353242, 0.37819, 0.0532701 ],
			"min": [ -0.3040442, -0.316107, -0.02396508 ],
			"type": "VEC3"
		},
		{
			"bufferView": 3,
			"byteOffset": 615612,
			"componentType": 5126,
			"count": 16641,
			"max": [ 0.9826168, 0.9725016, 0.9969743 ],
			"min": [ -0.9989158, -0.9694249, -1 ],
			"type": "VEC3"
		},
		{
			"bufferView": 2,
			"byteOffset": 138640,
			"componentType": 5126,
			"count": 16641,
			"max": [ 1, 1 ],
			"min": [ 0, 0 ],
			"type": "VEC2"
		},
		{
			"bufferView": 4,
			"byteOffset": 277280,
			"componentType": 5126,
			"count": 16641,
			"max": [ 0.9858425, 0.9974897, 0.9997881, 1 ],
			"min": [ -1, -0.9845218, -0.9919481, 1 ],
			"type": "VEC4"
		},
		{
			"bufferView": 0,
			"byteOffset": 194460,
			"componentType": 5123,
			"count": 98304,
			"max": [ 16640 ],
			"min": [ 0 ],
			"type": "SCALAR"
		},
		{
			"bufferView": 1,
			"byteOffset": 0,
			"componentType": 5126,
			"count": 30,
			"max": [ 0.9666667 ],
			"min": [ 0 ],
			"type": "SCALAR"
		},
		{
			"bufferView": 5,
			"byteOffset": 0,
			"componentType": 5126,
			"count": 30,
			"max": [ 0.2504471, 0.02678563, -0.4381858 ],
			"min": [ 0.2504471, -0.054, -0.4381858 ],
			"type": "VEC3"
		},
		{
			"bufferView": 6,
			"byteOffset": 0,
			"componentType": 5126,
			"count": 30,
			"max": [ -0.7071068, 0, 0, -0.7071068 ],
			"min": [ -0.7071068, 0, 0, -0.7071068 ],
			"type": "VEC4"
		},
		{
			"bufferView": 5,
			"byteOffset": 360,
			"componentType": 5126,
			"count": 30,
			"max": [ 1, 1, 1 ],
			"min": [ 1, 1, 1 ],
			"type": "VEC3"
		}
	],
	"animations": [
		{
			"name": "Plane001",
			"channels": [
				{
					"sampler": 0,
					"target": {
						"node": 7,
						"path": "translation"
					}
				},
				{
					"sampler": 1,
					"target": {
						"node": 7,
						"path": "rotation"
					}
				},
				{
					"sampler": 2,
					"target": {
						"node": 7,
						"path": "scale"
					}
				}
			],
			"samplers": [
				{
					"input": 25,
					"interpolation": "LINEAR",
					"output": 26
				},
				{
					"input": 25,
					"interpolation": "LINEAR",
					"output": 27
				},
				{
					"input": 25,
					"interpolation": "LINEAR",
					"output": 28
				}
			]
		}
	],
	"buffers": [
		{
			"byteLength": 2022996,
			"uri": "指形三角洲.bin"
		}
	],
	"bufferViews": [
		{
			"buffer": 0,
			"byteLength": 391068,
			"target": 34963,
			"byteOffset": 1630728
		},
		{
			"buffer": 0,
			"byteLength": 120,
			"byteOffset": 0
		},
		{
			"buffer": 0,
			"byteLength": 271768,
			"target": 34962,
			"byteStride": 8,
			"byteOffset": 120
		},
		{
			"buffer": 0,
			"byteLength": 815304,
			"target": 34962,
			"byteStride": 12,
			"byteOffset": 271888
		},
		{
			"buffer": 0,
			"byteLength": 543536,
			"target": 34962,
			"byteStride": 16,
			"byteOffset": 1087192
		},
		{
			"buffer": 0,
			"byteLength": 720,
			"byteStride": 12,
			"byteOffset": 2021796
		},
		{
			"buffer": 0,
			"byteLength": 480,
			"byteStride": 16,
			"byteOffset": 2022516
		}
	],
	"images": [
		{
			"uri": "/Assets/指形三角洲FBX.fbm/xzg-2.jpg"
		},
		{
			"uri": "/Assets/指形三角洲FBX.fbm/xzg-4海.jpg"
		},
		{
			"uri": "/Assets/指形三角洲FBX.fbm/xzg-3.jpg"
		}
	],
	"materials": [
		{
			"pbrMetallicRoughness": {
				"baseColorTexture" : {
					"index" : 0,
					"texCoord" : 0
				},
				"baseColorFactor": [0.5882353, 0.5882353, 0.5882353, 1],
				"metallicFactor": 0,
				"roughnessFactor": 1
			},
			"emissiveFactor": [0, 0, 0],
			"doubleSided": false,
			"name": "xzg-2"
		},
		{
			"pbrMetallicRoughness": {
				"baseColorTexture" : {
					"index" : 1,
					"texCoord" : 0
				},
				"baseColorFactor": [0.5882353, 0.5882353, 0.5882353, 1],
				"metallicFactor": 0,
				"roughnessFactor": 1
			},
			"emissiveFactor": [0, 0, 0],
			"doubleSided": false,
			"name": "xzg-4"
		},
		{
			"pbrMetallicRoughness": {
				"baseColorTexture" : {
					"index" : 2,
					"texCoord" : 0
				},
				"baseColorFactor": [0.5882353, 0.5882353, 0.5882353, 1],
				"metallicFactor": 0,
				"roughnessFactor": 1
			},
			"emissiveFactor": [0, 0, 0],
			"doubleSided": false,
			"name": "xzg-3"
		}
	],
	"meshes": [
		{
			"name": "mesh_Box003_12440Box003",
			"primitives": [
				{
					"attributes": {
						"POSITION": 0,
						"NORMAL": 1,
						"TEXCOORD_0": 2,
						"TANGENT": 3
					},
					"indices": 4,
					"material": 0,
					"mode": 4
				}
			]
		},
		{
			"name": "mesh_Box002_12438Box002",
			"primitives": [
				{
					"attributes": {
						"POSITION": 5,
						"NORMAL": 6,
						"TEXCOORD_0": 7,
						"TANGENT": 8
					},
					"indices": 9,
					"material": 0,
					"mode": 4
				}
			]
		},
		{
			"name": "mesh_Box005_12442Box005",
			"primitives": [
				{
					"attributes": {
						"POSITION": 10,
						"NORMAL": 11,
						"TEXCOORD_0": 12,
						"TANGENT": 13
					},
					"indices": 14,
					"material": 1,
					"mode": 4
				}
			]
		},
		{
			"name": "mesh_Box006_12444Box006",
			"primitives": [
				{
					"attributes": {
						"POSITION": 15,
						"NORMAL": 16,
						"TEXCOORD_0": 17,
						"TANGENT": 18
					},
					"indices": 19,
					"material": 2,
					"mode": 4
				}
			]
		},
		{
			"name": "mesh_Plane001_12446Plane001",
			"primitives": [
				{
					"attributes": {
						"POSITION": 20,
						"NORMAL": 21,
						"TEXCOORD_0": 22,
						"TANGENT": 23
					},
					"indices": 24,
					"material": 2,
					"mode": 4
				}
			]
		}
	],
	"nodes": [
		{
			"name": "UnityGlTF_root",
			"children": [
				2
			]
		},
		{
			"name": "node_Box003_-5706",
			"mesh": 0,
			"translation": [ -0.127021, -0.2909342, 0.1061818],
			"rotation": [-0.7071068, 0, 0, -0.7071068]
		},
		{
			"name": "node_FBX_-5716",
			"children": [
				3,
				1,
				5,
				6,
				4,
				7
			],
			"matrix": [1, 0, 0, 0, 0, 1, 0, 0, 0, 0, 1, 0, 1.637048, -1.630241, 0.2333984, 1]
		},
		{
			"name": "node_Box002_-5704",
			"mesh": 1,
			"translation": [ -0.1340484, -0.1949798, 0.1060075],
			"rotation": [-0.7071068, 0, 0, -0.7071068]
		},
		{
			"name": "node_Line001_-5712",
			"translation": [ 0.2058188, 0, -0.2239809],
			"rotation": [-0.7071068, 0, 0, -0.7071068]
		},
		{
			"name": "node_Box005_-5708",
			"mesh": 2,
			"translation": [ -0.09782106, -0.02193359, -1.282783],
			"rotation": [-0.7071068, 0, 0, -0.7071068]
		},
		{
			"name": "node_Box006_-5710",
			"mesh": 3,
			"translation": [ 1.014707, 0, 0.4745084],
			"rotation": [-0.7071068, 0, 0, -0.7071068]
		},
		{
			"name": "node_Plane001_-5714",
			"mesh": 4,
			"translation": [ 0.2504471, 0.0270498, -0.4381858],
			"rotation": [-0.7071068, 0, 0, -0.7071068]
		}
	],
	"samplers": [
		{
			"magFilter": 9729,
			"minFilter": 9985,
			"wrapS": 10497,
			"wrapT": 10497
		}
	],
	"scenes": [
		{
			"name":"defaultScene",
			"nodes": [
				0
			]
		}
	],
	"scene": 0,
	"textures": [
		{
			"sampler": 0,
			"source": 0
		},
		{
			"sampler": 0,
			"source": 1
		},
		{
			"sampler": 0,
			"source": 2
		}
	]
}