{
	"asset": {
		"generator": "Unity 2018.3.11f1",
		"extras": {
			"exporterVersion" : "2.2.1"
		},
		"version": "2.0"
	},
	"accessors": [
		{
			"bufferView": 3,
			"byteOffset": 0,
			"componentType": 5126,
			"count": 24,
			"max": [ 0.02982909, 0.02478755, 0 ],
			"min": [ -0.02982909, -0.02478755, -0.008402561 ],
			"type": "VEC3"
		},
		{
			"bufferView": 3,
			"byteOffset": 288,
			"componentType": 5126,
			"count": 24,
			"max": [ 1, 1, 1 ],
			"min": [ -1, -1, -1 ],
			"type": "VEC3"
		},
		{
			"bufferView": 2,
			"byteOffset": 0,
			"componentType": 5126,
			"count": 24,
			"max": [ 1, 1 ],
			"min": [ 0, 0 ],
			"type": "VEC2"
		},
		{
			"bufferView": 4,
			"byteOffset": 0,
			"componentType": 5126,
			"count": 24,
			"max": [ 1, 1, 0, 1 ],
			"min": [ -1, -1, 0, 1 ],
			"type": "VEC4"
		},
		{
			"bufferView": 0,
			"byteOffset": 0,
			"componentType": 5123,
			"count": 36,
			"max": [ 23 ],
			"min": [ 0 ],
			"type": "SCALAR"
		},
		{
			"bufferView": 3,
			"byteOffset": 576,
			"componentType": 5126,
			"count": 154,
			"max": [ 0.005532662, 0.005448608, 0 ],
			"min": [ -0.005532662, -0.005448609, -0.01860251 ],
			"type": "VEC3"
		},
		{
			"bufferView": 3,
			"byteOffset": 2424,
			"componentType": 5126,
			"count": 154,
			"max": [ 1, 0.9848077, 1 ],
			"min": [ -1, -0.9848078, -1 ],
			"type": "VEC3"
		},
		{
			"bufferView": 2,
			"byteOffset": 192,
			"componentType": 5126,
			"count": 154,
			"max": [ 0.9722222, 1 ],
			"min": [ -0.02777779, 0 ],
			"type": "VEC2"
		},
		{
			"bufferView": 4,
			"byteOffset": 384,
			"componentType": 5126,
			"count": 154,
			"max": [ 1, 1, 0, 1 ],
			"min": [ -0.9848078, -1, 0, 1 ],
			"type": "VEC4"
		},
		{
			"bufferView": 0,
			"byteOffset": 72,
			"componentType": 5123,
			"count": 648,
			"max": [ 153 ],
			"min": [ 0 ],
			"type": "SCALAR"
		},
		{
			"bufferView": 3,
			"byteOffset": 4272,
			"componentType": 5126,
			"count": 154,
			"max": [ 0.005532662, 0.005448608, 0 ],
			"min": [ -0.005532662, -0.005448609, -0.01860251 ],
			"type": "VEC3"
		},
		{
			"bufferView": 3,
			"byteOffset": 6120,
			"componentType": 5126,
			"count": 154,
			"max": [ 1, 0.9848077, 1 ],
			"min": [ -1, -0.9848078, -1 ],
			"type": "VEC3"
		},
		{
			"bufferView": 2,
			"byteOffset": 1424,
			"componentType": 5126,
			"count": 154,
			"max": [ 0.9722222, 1 ],
			"min": [ -0.02777779, 0 ],
			"type": "VEC2"
		},
		{
			"bufferView": 4,
			"byteOffset": 2848,
			"componentType": 5126,
			"count": 154,
			"max": [ 1, 1, 0, 1 ],
			"min": [ -0.9848078, -1, 0, 1 ],
			"type": "VEC4"
		},
		{
			"bufferView": 0,
			"byteOffset": 1368,
			"componentType": 5123,
			"count": 648,
			"max": [ 153 ],
			"min": [ 0 ],
			"type": "SCALAR"
		},
		{
			"bufferView": 3,
			"byteOffset": 7968,
			"componentType": 5126,
			"count": 154,
			"max": [ 0.005532662, 0.005448608, 0 ],
			"min": [ -0.005532662, -0.005448609, -0.01860251 ],
			"type": "VEC3"
		},
		{
			"bufferView": 3,
			"byteOffset": 9816,
			"componentType": 5126,
			"count": 154,
			"max": [ 1, 0.9848077, 1 ],
			"min": [ -1, -0.9848078, -1 ],
			"type": "VEC3"
		},
		{
			"bufferView": 2,
			"byteOffset": 2656,
			"componentType": 5126,
			"count": 154,
			"max": [ 0.9722222, 1 ],
			"min": [ -0.02777779, 0 ],
			"type": "VEC2"
		},
		{
			"bufferView": 4,
			"byteOffset": 5312,
			"componentType": 5126,
			"count": 154,
			"max": [ 1, 1, 0, 1 ],
			"min": [ -0.9848078, -1, 0, 1 ],
			"type": "VEC4"
		},
		{
			"bufferView": 0,
			"byteOffset": 2664,
			"componentType": 5123,
			"count": 648,
			"max": [ 153 ],
			"min": [ 0 ],
			"type": "SCALAR"
		},
		{
			"bufferView": 3,
			"byteOffset": 11664,
			"componentType": 5126,
			"count": 210,
			"max": [ 0.03412119, 0.0151782, 0.005 ],
			"min": [ -0.0340859, -0.06594986, -0.005 ],
			"type": "VEC3"
		},
		{
			"bufferView": 3,
			"byteOffset": 14184,
			"componentType": 5126,
			"count": 210,
			"max": [ 0.9999738, 0.9999738, 1 ],
			"min": [ -0.9999738, -0.9999738, -1 ],
			"type": "VEC3"
		},
		{
			"bufferView": 4,
			"byteOffset": 7776,
			"componentType": 5126,
			"count": 210,
			"max": [ 1, 0, 0, 1 ],
			"min": [ 1, 0, 0, 1 ],
			"type": "VEC4"
		},
		{
			"bufferView": 0,
			"byteOffset": 3960,
			"componentType": 5123,
			"count": 600,
			"max": [ 209 ],
			"min": [ 0 ],
			"type": "SCALAR"
		},
		{
			"bufferView": 1,
			"byteOffset": 0,
			"componentType": 5126,
			"count": 30,
			"max": [ 0.9666667 ],
			"min": [ 0 ],
			"type": "SCALAR"
		},
		{
			"bufferView": 5,
			"byteOffset": 0,
			"componentType": 5126,
			"count": 30,
			"max": [ -0.094, 0.05262676, 0 ],
			"min": [ -0.1349784, 0.0315, 0 ],
			"type": "VEC3"
		},
		{
			"bufferView": 6,
			"byteOffset": 0,
			"componentType": 5126,
			"count": 30,
			"max": [ -3.639413E-08, 5.218919E-09, 0.1618776, -0.9868109 ],
			"min": [ -3.639413E-08, 5.218919E-09, 0.1618776, -0.9868109 ],
			"type": "VEC4"
		},
		{
			"bufferView": 5,
			"byteOffset": 360,
			"componentType": 5126,
			"count": 30,
			"max": [ 0.1732031, 0.1883096, 1 ],
			"min": [ 0.1732031, 0.1883096, 1 ],
			"type": "VEC3"
		}
	],
	"animations": [
		{
			"name": "money",
			"channels": [
				{
					"sampler": 0,
					"target": {
						"node": 10,
						"path": "translation"
					}
				},
				{
					"sampler": 1,
					"target": {
						"node": 10,
						"path": "rotation"
					}
				},
				{
					"sampler": 2,
					"target": {
						"node": 10,
						"path": "scale"
					}
				}
			],
			"samplers": [
				{
					"input": 24,
					"interpolation": "LINEAR",
					"output": 25
				},
				{
					"input": 24,
					"interpolation": "LINEAR",
					"output": 26
				},
				{
					"input": 24,
					"interpolation": "LINEAR",
					"output": 27
				}
			]
		}
	],
	"buffers": [
		{
			"byteLength": 38208,
			"uri": "证券.bin"
		}
	],
	"bufferViews": [
		{
			"buffer": 0,
			"byteLength": 5160,
			"target": 34963,
			"byteOffset": 31848
		},
		{
			"buffer": 0,
			"byteLength": 120,
			"byteOffset": 0
		},
		{
			"buffer": 0,
			"byteLength": 3888,
			"target": 34962,
			"byteStride": 8,
			"byteOffset": 120
		},
		{
			"buffer": 0,
			"byteLength": 16704,
			"target": 34962,
			"byteStride": 12,
			"byteOffset": 4008
		},
		{
			"buffer": 0,
			"byteLength": 11136,
			"target": 34962,
			"byteStride": 16,
			"byteOffset": 20712
		},
		{
			"buffer": 0,
			"byteLength": 720,
			"byteStride": 12,
			"byteOffset": 37008
		},
		{
			"buffer": 0,
			"byteLength": 480,
			"byteStride": 16,
			"byteOffset": 37728
		}
	],
	"materials": [
		{
			"pbrMetallicRoughness": {
				"baseColorFactor": [0.9056604, 0.212142, 0.1324315, 1],
				"metallicFactor": 0,
				"roughnessFactor": 0.5
			},
			"emissiveFactor": [0, 0, 0],
			"doubleSided": false,
			"name": ""
		},
		{
			"pbrMetallicRoughness": {
				"baseColorFactor": [1, 1, 0.4627451, 1],
				"metallicFactor": 0,
				"roughnessFactor": 0.5
			},
			"emissiveFactor": [0, 0, 0],
			"doubleSided": false,
			"name": "money"
		}
	],
	"meshes": [
		{
			"name": "mesh_Box003_18850Box003",
			"primitives": [
				{
					"attributes": {
						"POSITION": 0,
						"NORMAL": 1,
						"TEXCOORD_0": 2,
						"TANGENT": 3
					},
					"indices": 4,
					"material": 0,
					"mode": 4
				}
			]
		},
		{
			"name": "mesh_Cylinder005_18852Cylinder005",
			"primitives": [
				{
					"attributes": {
						"POSITION": 5,
						"NORMAL": 6,
						"TEXCOORD_0": 7,
						"TANGENT": 8
					},
					"indices": 9,
					"material": 0,
					"mode": 4
				}
			]
		},
		{
			"name": "mesh_Cylinder006_18854Cylinder006",
			"primitives": [
				{
					"attributes": {
						"POSITION": 10,
						"NORMAL": 11,
						"TEXCOORD_0": 12,
						"TANGENT": 13
					},
					"indices": 14,
					"material": 0,
					"mode": 4
				}
			]
		},
		{
			"name": "mesh_Cylinder007_18856Cylinder007",
			"primitives": [
				{
					"attributes": {
						"POSITION": 15,
						"NORMAL": 16,
						"TEXCOORD_0": 17,
						"TANGENT": 18
					},
					"indices": 19,
					"material": 0,
					"mode": 4
				}
			]
		},
		{
			"name": "mesh_Line001_18422money",
			"primitives": [
				{
					"attributes": {
						"POSITION": 20,
						"NORMAL": 21,
						"TANGENT": 22
					},
					"indices": 23,
					"material": 1,
					"mode": 4
				}
			]
		}
	],
	"nodes": [
		{
			"name": "UnityGlTF_root",
			"children": [
				5
			]
		},
		{
			"name": "node_Box003_-12218",
			"mesh": 0,
			"translation": [ -3.413201E-06, 0, -0.0056027],
			"scale": [ 1, 1, 0.5212739],
			"rotation": [-0.7071068, 0, 0, -0.7071068]
		},
		{
			"name": "node_Cylinder005_-12220",
			"mesh": 1,
			"translation": [ 0.0194601, -1.776357E-18, -0.01465237],
			"scale": [ 0.8693252, 0.8693252, 1],
			"rotation": [-0.7071068, 0, 0, -0.7071068]
		},
		{
			"name": "node_Cylinder006_-12222",
			"mesh": 2,
			"translation": [ -0.02031215, -1.776357E-18, -0.01465237],
			"scale": [ 0.8693252, 0.8693252, 1.979699],
			"rotation": [-0.7071068, 0, 0, -0.7071068]
		},
		{
			"name": "node_Cylinder007_-12224",
			"mesh": 3,
			"translation": [ -1.850128E-05, -1.776357E-18, -0.01465237],
			"scale": [ 0.8693252, 0.8693252, 1.600447],
			"rotation": [-0.7071068, 0, 0, -0.7071068]
		},
		{
			"name": "node__-12208",
			"children": [
				9,
				10
			],
			"matrix": [1, 0, 0, 0, 0, 1, 0, 0, 0, 0, 1, 0, 162.6626, 372.5184, -309.2469, 1]
		},
		{
			"name": "node_Line001_-12226",
			"translation": [ -0.01374714, 0.05272659, -0.01228632],
			"scale": [ 0.1732031, 0.1883096, 1],
			"rotation": [-3.639413E-08, 5.218919E-09, 0.1618776, -0.9868109]
		},
		{
			"name": "node_Line002_-12228",
			"translation": [ 0.01144176, 0.0289437, -0.01994628],
			"scale": [ 0.4372971, 0.437297, 0.4372971],
			"rotation": [0.01979015, -0.009178196, 0.4206286, -0.9069706]
		},
		{
			"name": "node_Line003_-12230",
			"translation": [ -0.006775168, 0.03640479, -0.01994628],
			"scale": [ 0.296256, 0.3052967, 0.4372971],
			"rotation": [0.01452004, -0.004042923, 0.2682004, -0.9632452]
		},
		{
			"name": "node__-12210",
			"children": [
				1,
				2,
				3,
				4,
				6,
				7,
				8
			],
			"translation": [ -0.1310137, -0.01509741, -0.0023]
		},
		{
			"name": "node_money_-12212",
			"mesh": 4,
			"translation": [ -0.1080137, 0.01640259, -0.01661377],
			"scale": [ 0.1732031, 0.1883096, 1],
			"rotation": [-3.639413E-08, 5.218919E-09, 0.1618776, -0.9868109]
		}
	],
	"scenes": [
		{
			"name":"defaultScene",
			"nodes": [
				0
			]
		}
	],
	"scene": 0
}