{
	"asset": {
		"generator": "Unity 2018.3.11f1",
		"extras": {
			"exporterVersion" : "2.2.1"
		},
		"version": "2.0"
	},
	"accessors": [
		{
			"bufferView": 2,
			"byteOffset": 0,
			"componentType": 5126,
			"count": 15574,
			"max": [ 0.146515, 0.03, 3.25948E-06 ],
			"min": [ -0.01439528, -0.1886841, -0.05686231 ],
			"type": "VEC3"
		},
		{
			"bufferView": 2,
			"byteOffset": 186888,
			"componentType": 5126,
			"count": 15574,
			"max": [ 1, 1, 1 ],
			"min": [ -1, -1, -1 ],
			"type": "VEC3"
		},
		{
			"bufferView": 1,
			"byteOffset": 0,
			"componentType": 5126,
			"count": 15574,
			"max": [ 1, 1 ],
			"min": [ 0, 0 ],
			"type": "VEC2"
		},
		{
			"bufferView": 3,
			"byteOffset": 0,
			"componentType": 5126,
			"count": 15574,
			"max": [ 1, 1, 1, 1 ],
			"min": [ -1, -1, -1, -1 ],
			"type": "VEC4"
		},
		{
			"bufferView": 0,
			"byteOffset": 0,
			"componentType": 5123,
			"count": 372,
			"max": [ 218 ],
			"min": [ 0 ],
			"type": "SCALAR"
		},
		{
			"bufferView": 0,
			"byteOffset": 744,
			"componentType": 5123,
			"count": 210,
			"max": [ 354 ],
			"min": [ 219 ],
			"type": "SCALAR"
		},
		{
			"bufferView": 0,
			"byteOffset": 1164,
			"componentType": 5123,
			"count": 426,
			"max": [ 638 ],
			"min": [ 355 ],
			"type": "SCALAR"
		},
		{
			"bufferView": 0,
			"byteOffset": 2016,
			"componentType": 5123,
			"count": 1164,
			"max": [ 1414 ],
			"min": [ 639 ],
			"type": "SCALAR"
		},
		{
			"bufferView": 0,
			"byteOffset": 4344,
			"componentType": 5123,
			"count": 300,
			"max": [ 1582 ],
			"min": [ 1415 ],
			"type": "SCALAR"
		},
		{
			"bufferView": 0,
			"byteOffset": 4944,
			"componentType": 5123,
			"count": 120,
			"max": [ 1662 ],
			"min": [ 1583 ],
			"type": "SCALAR"
		},
		{
			"bufferView": 0,
			"byteOffset": 5184,
			"componentType": 5123,
			"count": 63,
			"max": [ 1701 ],
			"min": [ 1663 ],
			"type": "SCALAR"
		},
		{
			"bufferView": 0,
			"byteOffset": 5310,
			"componentType": 5123,
			"count": 348,
			"max": [ 1933 ],
			"min": [ 1702 ],
			"type": "SCALAR"
		},
		{
			"bufferView": 0,
			"byteOffset": 6006,
			"componentType": 5123,
			"count": 60,
			"max": [ 1973 ],
			"min": [ 1934 ],
			"type": "SCALAR"
		},
		{
			"bufferView": 0,
			"byteOffset": 6126,
			"componentType": 5123,
			"count": 66,
			"max": [ 2017 ],
			"min": [ 1974 ],
			"type": "SCALAR"
		},
		{
			"bufferView": 0,
			"byteOffset": 6258,
			"componentType": 5123,
			"count": 84,
			"max": [ 2049 ],
			"min": [ 2018 ],
			"type": "SCALAR"
		},
		{
			"bufferView": 0,
			"byteOffset": 6426,
			"componentType": 5123,
			"count": 384,
			"max": [ 2305 ],
			"min": [ 2050 ],
			"type": "SCALAR"
		},
		{
			"bufferView": 0,
			"byteOffset": 7194,
			"componentType": 5123,
			"count": 22860,
			"max": [ 15409 ],
			"min": [ 2306 ],
			"type": "SCALAR"
		},
		{
			"bufferView": 0,
			"byteOffset": 52914,
			"componentType": 5123,
			"count": 96,
			"max": [ 15473 ],
			"min": [ 15410 ],
			"type": "SCALAR"
		},
		{
			"bufferView": 0,
			"byteOffset": 53106,
			"componentType": 5123,
			"count": 42,
			"max": [ 15489 ],
			"min": [ 15474 ],
			"type": "SCALAR"
		},
		{
			"bufferView": 0,
			"byteOffset": 53190,
			"componentType": 5123,
			"count": 138,
			"max": [ 15569 ],
			"min": [ 15490 ],
			"type": "SCALAR"
		},
		{
			"bufferView": 0,
			"byteOffset": 53466,
			"componentType": 5123,
			"count": 6,
			"max": [ 15573 ],
			"min": [ 15570 ],
			"type": "SCALAR"
		}
	],
	"buffers": [
		{
			"byteLength": 801030,
			"uri": "加油站.bin"
		}
	],
	"bufferViews": [
		{
			"buffer": 0,
			"byteLength": 53478,
			"target": 34963,
			"byteOffset": 747552
		},
		{
			"buffer": 0,
			"byteLength": 124592,
			"target": 34962,
			"byteStride": 8,
			"byteOffset": 0
		},
		{
			"buffer": 0,
			"byteLength": 373776,
			"target": 34962,
			"byteStride": 12,
			"byteOffset": 124592
		},
		{
			"buffer": 0,
			"byteLength": 249184,
			"target": 34962,
			"byteStride": 16,
			"byteOffset": 498368
		}
	],
	"images": [
		{
			"uri": "/Assets/Simple city plain/Material & Texture/Material mesh/Gas_pump_texture.jpg"
		}
	],
	"materials": [
		{
			"pbrMetallicRoughness": {
				"baseColorFactor": [0.7720588, 0.7656381, 0.5393058, 1],
				"metallicFactor": 0,
				"roughnessFactor": 1
			},
			"emissiveFactor": [0, 0, 0],
			"doubleSided": false,
			"name": "K6"
		},
		{
			"pbrMetallicRoughness": {
				"baseColorFactor": [1, 1, 1, 1],
				"metallicFactor": 0,
				"roughnessFactor": 1
			},
			"emissiveFactor": [0, 0, 0],
			"doubleSided": false,
			"name": "A"
		},
		{
			"pbrMetallicRoughness": {
				"baseColorFactor": [0.5693123, 0.6464623, 0.6617647, 1],
				"metallicFactor": 0,
				"roughnessFactor": 1
			},
			"emissiveFactor": [0, 0, 0],
			"doubleSided": false,
			"name": "A3"
		},
		{
			"pbrMetallicRoughness": {
				"baseColorFactor": [1, 0.4705882, 0.4705882, 1],
				"metallicFactor": 0,
				"roughnessFactor": 1
			},
			"emissiveFactor": [0, 0, 0],
			"doubleSided": false,
			"name": "I1"
		},
		{
			"pbrMetallicRoughness": {
				"baseColorFactor": [0.5588235, 0.5588235, 0.5588235, 1],
				"metallicFactor": 0,
				"roughnessFactor": 1
			},
			"emissiveFactor": [0, 0, 0],
			"doubleSided": false,
			"name": "A2"
		},
		{
			"pbrMetallicRoughness": {
				"baseColorFactor": [0.6481401, 0.7466441, 0.8161765, 1],
				"metallicFactor": 0,
				"roughnessFactor": 0.17
			},
			"emissiveFactor": [0, 0, 0],
			"doubleSided": false,
			"name": "Windows no light"
		},
		{
			"pbrMetallicRoughness": {
				"baseColorFactor": [0.6397059, 0.6397059, 0.6397059, 1],
				"metallicFactor": 0,
				"roughnessFactor": 1
			},
			"emissiveFactor": [0, 0, 0],
			"doubleSided": false,
			"name": "A1"
		},
		{
			"pbrMetallicRoughness": {
				"baseColorFactor": [0.6451871, 0.6617647, 0.5693123, 1],
				"metallicFactor": 0,
				"roughnessFactor": 1
			},
			"emissiveFactor": [0, 0, 0],
			"doubleSided": false,
			"name": "k5"
		},
		{
			"pbrMetallicRoughness": {
				"baseColorTexture" : {
					"index" : 0,
					"texCoord" : 0
				},
				"baseColorFactor": [1, 1, 1, 1],
				"metallicFactor": 0,
				"roughnessFactor": 1
			},
			"emissiveFactor": [0, 0, 0],
			"doubleSided": false,
			"name": "gas pump"
		},
		{
			"pbrMetallicRoughness": {
				"baseColorFactor": [0.8823529, 0.8823529, 0.8823529, 1],
				"metallicFactor": 0,
				"roughnessFactor": 1
			},
			"emissiveFactor": [0, 0, 0],
			"doubleSided": false,
			"name": "K7"
		}
	],
	"meshes": [
		{
			"name": "mesh_Cube_20220Gas_station_A",
			"primitives": [
				{
					"attributes": {
						"POSITION": 0,
						"NORMAL": 1,
						"TEXCOORD_0": 2,
						"TANGENT": 3
					},
					"indices": 4,
					"material": 0,
					"mode": 4
				},
				{
					"attributes": {
						"POSITION": 0,
						"NORMAL": 1,
						"TEXCOORD_0": 2,
						"TANGENT": 3
					},
					"indices": 5,
					"material": 1,
					"mode": 4
				},
				{
					"attributes": {
						"POSITION": 0,
						"NORMAL": 1,
						"TEXCOORD_0": 2,
						"TANGENT": 3
					},
					"indices": 6,
					"material": 2,
					"mode": 4
				},
				{
					"attributes": {
						"POSITION": 0,
						"NORMAL": 1,
						"TEXCOORD_0": 2,
						"TANGENT": 3
					},
					"indices": 7,
					"material": 2,
					"mode": 4
				},
				{
					"attributes": {
						"POSITION": 0,
						"NORMAL": 1,
						"TEXCOORD_0": 2,
						"TANGENT": 3
					},
					"indices": 8,
					"material": 3,
					"mode": 4
				},
				{
					"attributes": {
						"POSITION": 0,
						"NORMAL": 1,
						"TEXCOORD_0": 2,
						"TANGENT": 3
					},
					"indices": 9,
					"material": 4,
					"mode": 4
				},
				{
					"attributes": {
						"POSITION": 0,
						"NORMAL": 1,
						"TEXCOORD_0": 2,
						"TANGENT": 3
					},
					"indices": 10,
					"material": 5,
					"mode": 4
				},
				{
					"attributes": {
						"POSITION": 0,
						"NORMAL": 1,
						"TEXCOORD_0": 2,
						"TANGENT": 3
					},
					"indices": 11,
					"material": 1,
					"mode": 4
				},
				{
					"attributes": {
						"POSITION": 0,
						"NORMAL": 1,
						"TEXCOORD_0": 2,
						"TANGENT": 3
					},
					"indices": 12,
					"material": 1,
					"mode": 4
				},
				{
					"attributes": {
						"POSITION": 0,
						"NORMAL": 1,
						"TEXCOORD_0": 2,
						"TANGENT": 3
					},
					"indices": 13,
					"material": 6,
					"mode": 4
				},
				{
					"attributes": {
						"POSITION": 0,
						"NORMAL": 1,
						"TEXCOORD_0": 2,
						"TANGENT": 3
					},
					"indices": 14,
					"material": 4,
					"mode": 4
				},
				{
					"attributes": {
						"POSITION": 0,
						"NORMAL": 1,
						"TEXCOORD_0": 2,
						"TANGENT": 3
					},
					"indices": 15,
					"material": 7,
					"mode": 4
				},
				{
					"attributes": {
						"POSITION": 0,
						"NORMAL": 1,
						"TEXCOORD_0": 2,
						"TANGENT": 3
					},
					"indices": 16,
					"material": 8,
					"mode": 4
				},
				{
					"attributes": {
						"POSITION": 0,
						"NORMAL": 1,
						"TEXCOORD_0": 2,
						"TANGENT": 3
					},
					"indices": 17,
					"material": 9,
					"mode": 4
				},
				{
					"attributes": {
						"POSITION": 0,
						"NORMAL": 1,
						"TEXCOORD_0": 2,
						"TANGENT": 3
					},
					"indices": 18,
					"material": 9,
					"mode": 4
				},
				{
					"attributes": {
						"POSITION": 0,
						"NORMAL": 1,
						"TEXCOORD_0": 2,
						"TANGENT": 3
					},
					"indices": 19,
					"material": 6,
					"mode": 4
				},
				{
					"attributes": {
						"POSITION": 0,
						"NORMAL": 1,
						"TEXCOORD_0": 2,
						"TANGENT": 3
					},
					"indices": 20,
					"material": 2,
					"mode": 4
				}
			]
		}
	],
	"nodes": [
		{
			"name": "UnityGlTF_root",
			"children": [
				2
			]
		},
		{
			"name": "node_Gas_station_A_-18422",
			"mesh": 0,
			"translation": [ 0, -0.005, 0],
			"scale": [ 100, 99.99997, 99.99997],
			"rotation": [-0.7071068, 0, 0, -0.7071067]
		},
		{
			"name": "node_Gas_station_A_PREFAB_-18418",
			"children": [
				1
			],
			"matrix": [1, 0, 0, 0, 0, 1, 0, 0, 0, 0, 1, 0, 165.83, 398.7285, -298.3263, 1]
		}
	],
	"samplers": [
		{
			"magFilter": 9728,
			"minFilter": 9984,
			"wrapS": 10497,
			"wrapT": 10497
		}
	],
	"scenes": [
		{
			"name":"defaultScene",
			"nodes": [
				0
			]
		}
	],
	"scene": 0,
	"textures": [
		{
			"sampler": 0,
			"source": 0
		}
	]
}