{
	"asset": {
		"generator": "Unity 2018.3.11f1",
		"extras": {
			"exporterVersion" : "2.2.1"
		},
		"version": "2.0"
	},
	"accessors": [
		{
			"bufferView": 3,
			"byteOffset": 0,
			"componentType": 5126,
			"count": 2601,
			"max": [ 0.6362998, 0.635, 0 ],
			"min": [ -0.635, -0.635, -0.4917476 ],
			"type": "VEC3"
		},
		{
			"bufferView": 3,
			"byteOffset": 31212,
			"componentType": 5126,
			"count": 2601,
			"max": [ 0.9686121, 0.9637379, -0.1088005 ],
			"min": [ -0.971865, -0.9802965, -1 ],
			"type": "VEC3"
		},
		{
			"bufferView": 2,
			"byteOffset": 0,
			"componentType": 5126,
			"count": 2601,
			"max": [ 0.9999996, 0.9999996 ],
			"min": [ 0, 0 ],
			"type": "VEC2"
		},
		{
			"bufferView": 4,
			"byteOffset": 0,
			"componentType": 5126,
			"count": 2601,
			"max": [ -0.1747929, 0.5616426, 0.9844795, 1 ],
			"min": [ -1, -0.37358, -0.9749779, 1 ],
			"type": "VEC4"
		},
		{
			"bufferView": 0,
			"byteOffset": 0,
			"componentType": 5123,
			"count": 15000,
			"max": [ 2600 ],
			"min": [ 0 ],
			"type": "SCALAR"
		},
		{
			"bufferView": 3,
			"byteOffset": 62424,
			"componentType": 5126,
			"count": 194,
			"max": [ 0.381, 0.381, 0 ],
			"min": [ -0.381, -0.381, -0.09939597 ],
			"type": "VEC3"
		},
		{
			"bufferView": 3,
			"byteOffset": 64752,
			"componentType": 5126,
			"count": 194,
			"max": [ 0.9959211, 0.8762521, 1 ],
			"min": [ -0.8211842, -0.9514357, -0.9900964 ],
			"type": "VEC3"
		},
		{
			"bufferView": 2,
			"byteOffset": 20808,
			"componentType": 5126,
			"count": 194,
			"max": [ 1.015792, 1 ],
			"min": [ -0.01582289, 0 ],
			"type": "VEC2"
		},
		{
			"bufferView": 4,
			"byteOffset": 41616,
			"componentType": 5126,
			"count": 194,
			"max": [ 1, 0.9999993, 0.3466208, 1 ],
			"min": [ -0.9995876, -0.9999018, -0.3481852, 1 ],
			"type": "VEC4"
		},
		{
			"bufferView": 0,
			"byteOffset": 30000,
			"componentType": 5123,
			"count": 564,
			"max": [ 193 ],
			"min": [ 0 ],
			"type": "SCALAR"
		},
		{
			"bufferView": 1,
			"byteOffset": 0,
			"componentType": 5126,
			"count": 30,
			"max": [ 0.9666667 ],
			"min": [ 0 ],
			"type": "SCALAR"
		},
		{
			"bufferView": 5,
			"byteOffset": 0,
			"componentType": 5126,
			"count": 30,
			"max": [ 0.1268791, -0.01413363, 0 ],
			"min": [ -0.008557126, -0.055, 0 ],
			"type": "VEC3"
		},
		{
			"bufferView": 6,
			"byteOffset": 0,
			"componentType": 5126,
			"count": 30,
			"max": [ -0.7071068, 0, 0, -0.7071068 ],
			"min": [ -0.7071068, 0, 0, -0.7071068 ],
			"type": "VEC4"
		},
		{
			"bufferView": 5,
			"byteOffset": 360,
			"componentType": 5126,
			"count": 30,
			"max": [ 0.8, 0.8, 1.353524 ],
			"min": [ 0.8, 0.8, 1.060592 ],
			"type": "VEC3"
		},
		{
			"bufferView": 3,
			"byteOffset": 67080,
			"componentType": 5126,
			"count": 194,
			"max": [ 0.381, 0.381, 0 ],
			"min": [ -0.381, -0.381, -0.09939597 ],
			"type": "VEC3"
		},
		{
			"bufferView": 3,
			"byteOffset": 69408,
			"componentType": 5126,
			"count": 194,
			"max": [ 0.9959211, 0.8762521, 1 ],
			"min": [ -0.8211842, -0.9514357, -0.9900964 ],
			"type": "VEC3"
		},
		{
			"bufferView": 2,
			"byteOffset": 22360,
			"componentType": 5126,
			"count": 194,
			"max": [ 1.015792, 1 ],
			"min": [ -0.01582289, 0 ],
			"type": "VEC2"
		},
		{
			"bufferView": 4,
			"byteOffset": 44720,
			"componentType": 5126,
			"count": 194,
			"max": [ 1, 0.9999993, 0.3466208, 1 ],
			"min": [ -0.9995876, -0.9999018, -0.3481852, 1 ],
			"type": "VEC4"
		},
		{
			"bufferView": 0,
			"byteOffset": 31128,
			"componentType": 5123,
			"count": 564,
			"max": [ 193 ],
			"min": [ 0 ],
			"type": "SCALAR"
		},
		{
			"bufferView": 1,
			"byteOffset": 120,
			"componentType": 5126,
			"count": 30,
			"max": [ 0.9666667 ],
			"min": [ 0 ],
			"type": "SCALAR"
		},
		{
			"bufferView": 5,
			"byteOffset": 720,
			"componentType": 5126,
			"count": 30,
			"max": [ 0.08, 0.002859849, 0 ],
			"min": [ 0.08, -0.04, 0 ],
			"type": "VEC3"
		},
		{
			"bufferView": 6,
			"byteOffset": 480,
			"componentType": 5126,
			"count": 30,
			"max": [ -0.7071068, 0, 0, -0.7071068 ],
			"min": [ -0.7071068, 0, 0, -0.7071068 ],
			"type": "VEC4"
		},
		{
			"bufferView": 5,
			"byteOffset": 1080,
			"componentType": 5126,
			"count": 30,
			"max": [ 1.021251, 1.021251, 0.695896 ],
			"min": [ 1, 1, 0.6814154 ],
			"type": "VEC3"
		}
	],
	"animations": [
		{
			"name": "",
			"channels": [
				{
					"sampler": 0,
					"target": {
						"node": 3,
						"path": "translation"
					}
				},
				{
					"sampler": 1,
					"target": {
						"node": 3,
						"path": "rotation"
					}
				},
				{
					"sampler": 2,
					"target": {
						"node": 3,
						"path": "scale"
					}
				}
			],
			"samplers": [
				{
					"input": 10,
					"interpolation": "LINEAR",
					"output": 11
				},
				{
					"input": 10,
					"interpolation": "LINEAR",
					"output": 12
				},
				{
					"input": 10,
					"interpolation": "LINEAR",
					"output": 13
				}
			]
		},
		{
			"name": "",
			"channels": [
				{
					"sampler": 0,
					"target": {
						"node": 4,
						"path": "translation"
					}
				},
				{
					"sampler": 1,
					"target": {
						"node": 4,
						"path": "rotation"
					}
				},
				{
					"sampler": 2,
					"target": {
						"node": 4,
						"path": "scale"
					}
				}
			],
			"samplers": [
				{
					"input": 19,
					"interpolation": "LINEAR",
					"output": 20
				},
				{
					"input": 19,
					"interpolation": "LINEAR",
					"output": 21
				},
				{
					"input": 19,
					"interpolation": "LINEAR",
					"output": 22
				}
			]
		}
	],
	"buffers": [
		{
			"byteLength": 178368,
			"uri": "洪积扇.bin"
		}
	],
	"bufferViews": [
		{
			"buffer": 0,
			"byteLength": 32256,
			"target": 34963,
			"byteOffset": 143712
		},
		{
			"buffer": 0,
			"byteLength": 240,
			"byteOffset": 0
		},
		{
			"buffer": 0,
			"byteLength": 23912,
			"target": 34962,
			"byteStride": 8,
			"byteOffset": 240
		},
		{
			"buffer": 0,
			"byteLength": 71736,
			"target": 34962,
			"byteStride": 12,
			"byteOffset": 24152
		},
		{
			"buffer": 0,
			"byteLength": 47824,
			"target": 34962,
			"byteStride": 16,
			"byteOffset": 95888
		},
		{
			"buffer": 0,
			"byteLength": 1440,
			"byteStride": 12,
			"byteOffset": 175968
		},
		{
			"buffer": 0,
			"byteLength": 960,
			"byteStride": 16,
			"byteOffset": 177408
		}
	],
	"images": [
		{
			"uri": "/Assets/Materials/黄水.jpg"
		},
		{
			"uri": "/Assets/Materials/扇.jpg"
		}
	],
	"materials": [
		{
			"pbrMetallicRoughness": {
				"baseColorFactor": [0.6603774, 0.5346539, 0.239854, 1],
				"metallicFactor": 0.269,
				"roughnessFactor": 1
			},
			"emissiveFactor": [0, 0, 0],
			"doubleSided": false,
			"name": ""
		},
		{
			"pbrMetallicRoughness": {
				"baseColorTexture" : {
					"index" : 0,
					"texCoord" : 0
				},
				"baseColorFactor": [1, 1, 1, 1],
				"metallicFactor": 0,
				"roughnessFactor": 0.5
			},
			"emissiveFactor": [0, 0, 0],
			"doubleSided": false,
			"name": ""
		},
		{
			"pbrMetallicRoughness": {
				"baseColorTexture" : {
					"index" : 1,
					"texCoord" : 0
				},
				"baseColorFactor": [0.8773585, 0.6580188, 0.2193396, 1],
				"metallicFactor": 0,
				"roughnessFactor": 0.5
			},
			"emissiveFactor": [0, 0, 0],
			"doubleSided": false,
			"name": ""
		}
	],
	"meshes": [
		{
			"name": "mesh_Plane006_3062",
			"primitives": [
				{
					"attributes": {
						"POSITION": 0,
						"NORMAL": 1,
						"TEXCOORD_0": 2,
						"TANGENT": 3
					},
					"indices": 4,
					"material": 0,
					"mode": 4
				}
			]
		},
		{
			"name": "mesh_Cone004_3060",
			"primitives": [
				{
					"attributes": {
						"POSITION": 5,
						"NORMAL": 6,
						"TEXCOORD_0": 7,
						"TANGENT": 8
					},
					"indices": 9,
					"material": 1,
					"mode": 4
				}
			]
		},
		{
			"name": "mesh_Cone004_3060",
			"primitives": [
				{
					"attributes": {
						"POSITION": 14,
						"NORMAL": 15,
						"TEXCOORD_0": 16,
						"TANGENT": 17
					},
					"indices": 18,
					"material": 2,
					"mode": 4
				}
			]
		}
	],
	"nodes": [
		{
			"name": "UnityGlTF_root",
			"children": [
				2
			]
		},
		{
			"name": "node__-1094",
			"mesh": 0,
			"rotation": [-0.7071068, 0, 0, -0.7071068]
		},
		{
			"name": "node__-1092",
			"children": [
				1,
				4,
				3
			],
			"matrix": [1, 0, 0, 0, 0, 1, 0, 0, 0, 0, 1, 0, 0, 0, 0, 1]
		},
		{
			"name": "node__-1098",
			"mesh": 1,
			"translation": [ 0.126879, -0.03999996, 0],
			"scale": [ 0.8, 0.8000014, 1.060593],
			"rotation": [-0.7071068, 0, 0, -0.7071068]
		},
		{
			"name": "node__-1096",
			"mesh": 2,
			"translation": [ 0.126879, -0.03999996, 0],
			"scale": [ 1, 1, 0.6814163],
			"rotation": [-0.7071068, 0, 0, -0.7071068]
		}
	],
	"samplers": [
		{
			"magFilter": 9729,
			"minFilter": 9985,
			"wrapS": 10497,
			"wrapT": 10497
		}
	],
	"scenes": [
		{
			"name":"defaultScene",
			"nodes": [
				0
			]
		}
	],
	"scene": 0,
	"textures": [
		{
			"sampler": 0,
			"source": 0
		},
		{
			"sampler": 0,
			"source": 1
		}
	]
}