{
	"asset": {
		"generator": "Unity 2018.3.11f1",
		"extras": {
			"exporterVersion" : "2.2.1"
		},
		"version": "2.0"
	},
	"accessors": [
		{
			"bufferView": 3,
			"byteOffset": 0,
			"componentType": 5126,
			"count": 54,
			"max": [ 0.01008336, 0.004684554, 0 ],
			"min": [ -0.008446523, -0.004684554, -0.02116179 ],
			"type": "VEC3"
		},
		{
			"bufferView": 3,
			"byteOffset": 648,
			"componentType": 5126,
			"count": 54,
			"max": [ 0.9897903, 1, 1 ],
			"min": [ -0.9915369, -1, -0.9997124 ],
			"type": "VEC3"
		},
		{
			"bufferView": 2,
			"byteOffset": 0,
			"componentType": 5126,
			"count": 54,
			"max": [ 1, 1 ],
			"min": [ 0, 0 ],
			"type": "VEC2"
		},
		{
			"bufferView": 4,
			"byteOffset": 0,
			"componentType": 5126,
			"count": 54,
			"max": [ 1, 1, 0.08001678, 1 ],
			"min": [ -1, -1, -0.08001678, 1 ],
			"type": "VEC4"
		},
		{
			"bufferView": 0,
			"byteOffset": 0,
			"componentType": 5123,
			"count": 144,
			"max": [ 53 ],
			"min": [ 0 ],
			"type": "SCALAR"
		},
		{
			"bufferView": 3,
			"byteOffset": 1296,
			"componentType": 5126,
			"count": 54,
			"max": [ 0.01008336, 0.004684554, 0 ],
			"min": [ -0.008446523, -0.004684554, -0.02116179 ],
			"type": "VEC3"
		},
		{
			"bufferView": 3,
			"byteOffset": 1944,
			"componentType": 5126,
			"count": 54,
			"max": [ 0.9897903, 1, 1 ],
			"min": [ -0.9915369, -1, -0.9997124 ],
			"type": "VEC3"
		},
		{
			"bufferView": 2,
			"byteOffset": 432,
			"componentType": 5126,
			"count": 54,
			"max": [ 1, 1 ],
			"min": [ 0, 0 ],
			"type": "VEC2"
		},
		{
			"bufferView": 4,
			"byteOffset": 864,
			"componentType": 5126,
			"count": 54,
			"max": [ 1, 1, 0.08001678, 1 ],
			"min": [ -1, -1, -0.08001678, 1 ],
			"type": "VEC4"
		},
		{
			"bufferView": 0,
			"byteOffset": 288,
			"componentType": 5123,
			"count": 144,
			"max": [ 53 ],
			"min": [ 0 ],
			"type": "SCALAR"
		},
		{
			"bufferView": 1,
			"byteOffset": 0,
			"componentType": 5126,
			"count": 30,
			"max": [ 0.9666667 ],
			"min": [ 0 ],
			"type": "SCALAR"
		},
		{
			"bufferView": 5,
			"byteOffset": 0,
			"componentType": 5126,
			"count": 30,
			"max": [ -0.0106, 0, 0 ],
			"min": [ -0.0106, 0, 0 ],
			"type": "VEC3"
		},
		{
			"bufferView": 6,
			"byteOffset": 0,
			"componentType": 5126,
			"count": 30,
			"max": [ 0, 0, 0, -1 ],
			"min": [ 0, 0, 0, -1 ],
			"type": "VEC4"
		},
		{
			"bufferView": 5,
			"byteOffset": 360,
			"componentType": 5126,
			"count": 30,
			"max": [ 0.9983704, 0.9983704, 0.9983704 ],
			"min": [ 0.5, 0.5, 0.5 ],
			"type": "VEC3"
		},
		{
			"bufferView": 1,
			"byteOffset": 120,
			"componentType": 5126,
			"count": 30,
			"max": [ 0.9666667 ],
			"min": [ 0 ],
			"type": "SCALAR"
		},
		{
			"bufferView": 5,
			"byteOffset": 720,
			"componentType": 5126,
			"count": 30,
			"max": [ -0.0039, 0, 0 ],
			"min": [ -0.0039, 0, 0 ],
			"type": "VEC3"
		},
		{
			"bufferView": 6,
			"byteOffset": 480,
			"componentType": 5126,
			"count": 30,
			"max": [ 0, 0, 0, -1 ],
			"min": [ 0, 0, 0, -1 ],
			"type": "VEC4"
		},
		{
			"bufferView": 5,
			"byteOffset": 1080,
			"componentType": 5126,
			"count": 30,
			"max": [ 0.9967408, 0.9967408, 0.9967408 ],
			"min": [ 0, 0, 0 ],
			"type": "VEC3"
		},
		{
			"bufferView": 1,
			"byteOffset": 240,
			"componentType": 5126,
			"count": 30,
			"max": [ 0.9666667 ],
			"min": [ 0 ],
			"type": "SCALAR"
		},
		{
			"bufferView": 5,
			"byteOffset": 1440,
			"componentType": 5126,
			"count": 30,
			"max": [ -0.0174, 0, 0 ],
			"min": [ -0.0174, 0, 0 ],
			"type": "VEC3"
		},
		{
			"bufferView": 6,
			"byteOffset": 960,
			"componentType": 5126,
			"count": 30,
			"max": [ 0, 0, 0, -1 ],
			"min": [ 0, 0, 0, -1 ],
			"type": "VEC4"
		},
		{
			"bufferView": 5,
			"byteOffset": 1800,
			"componentType": 5126,
			"count": 30,
			"max": [ 0.9967408, 0.9967408, 0.9967408 ],
			"min": [ 0, 0, 0 ],
			"type": "VEC3"
		},
		{
			"bufferView": 3,
			"byteOffset": 2592,
			"componentType": 5126,
			"count": 54,
			"max": [ 0.01008336, 0.004684554, 0 ],
			"min": [ -0.008446523, -0.004684554, -0.02116179 ],
			"type": "VEC3"
		},
		{
			"bufferView": 3,
			"byteOffset": 3240,
			"componentType": 5126,
			"count": 54,
			"max": [ 0.9897903, 1, 1 ],
			"min": [ -0.9915369, -1, -0.9997124 ],
			"type": "VEC3"
		},
		{
			"bufferView": 2,
			"byteOffset": 864,
			"componentType": 5126,
			"count": 54,
			"max": [ 1, 1 ],
			"min": [ 0, 0 ],
			"type": "VEC2"
		},
		{
			"bufferView": 4,
			"byteOffset": 1728,
			"componentType": 5126,
			"count": 54,
			"max": [ 1, 1, 0.08001678, 1 ],
			"min": [ -1, -1, -0.08001678, 1 ],
			"type": "VEC4"
		},
		{
			"bufferView": 0,
			"byteOffset": 576,
			"componentType": 5123,
			"count": 144,
			"max": [ 53 ],
			"min": [ 0 ],
			"type": "SCALAR"
		}
	],
	"animations": [
		{
			"name": "",
			"channels": [
				{
					"sampler": 0,
					"target": {
						"node": 7,
						"path": "translation"
					}
				},
				{
					"sampler": 1,
					"target": {
						"node": 7,
						"path": "rotation"
					}
				},
				{
					"sampler": 2,
					"target": {
						"node": 7,
						"path": "scale"
					}
				},
				{
					"sampler": 3,
					"target": {
						"node": 4,
						"path": "translation"
					}
				},
				{
					"sampler": 4,
					"target": {
						"node": 4,
						"path": "rotation"
					}
				},
				{
					"sampler": 5,
					"target": {
						"node": 4,
						"path": "scale"
					}
				},
				{
					"sampler": 6,
					"target": {
						"node": 2,
						"path": "translation"
					}
				},
				{
					"sampler": 7,
					"target": {
						"node": 2,
						"path": "rotation"
					}
				},
				{
					"sampler": 8,
					"target": {
						"node": 2,
						"path": "scale"
					}
				}
			],
			"samplers": [
				{
					"input": 10,
					"interpolation": "LINEAR",
					"output": 11
				},
				{
					"input": 10,
					"interpolation": "LINEAR",
					"output": 12
				},
				{
					"input": 10,
					"interpolation": "LINEAR",
					"output": 13
				},
				{
					"input": 14,
					"interpolation": "LINEAR",
					"output": 15
				},
				{
					"input": 14,
					"interpolation": "LINEAR",
					"output": 16
				},
				{
					"input": 14,
					"interpolation": "LINEAR",
					"output": 17
				},
				{
					"input": 18,
					"interpolation": "LINEAR",
					"output": 19
				},
				{
					"input": 18,
					"interpolation": "LINEAR",
					"output": 20
				},
				{
					"input": 18,
					"interpolation": "LINEAR",
					"output": 21
				}
			]
		}
	],
	"buffers": [
		{
			"byteLength": 12600,
			"uri": "建筑公司.bin"
		}
	],
	"bufferViews": [
		{
			"buffer": 0,
			"byteLength": 864,
			"target": 34963,
			"byteOffset": 8136
		},
		{
			"buffer": 0,
			"byteLength": 360,
			"byteOffset": 0
		},
		{
			"buffer": 0,
			"byteLength": 1296,
			"target": 34962,
			"byteStride": 8,
			"byteOffset": 360
		},
		{
			"buffer": 0,
			"byteLength": 3888,
			"target": 34962,
			"byteStride": 12,
			"byteOffset": 1656
		},
		{
			"buffer": 0,
			"byteLength": 2592,
			"target": 34962,
			"byteStride": 16,
			"byteOffset": 5544
		},
		{
			"buffer": 0,
			"byteLength": 2160,
			"byteStride": 12,
			"byteOffset": 9000
		},
		{
			"buffer": 0,
			"byteLength": 1440,
			"byteStride": 16,
			"byteOffset": 11160
		}
	],
	"images": [
		{
			"uri": "/Assets/商用楼纹理.jpg"
		}
	],
	"materials": [
		{
			"pbrMetallicRoughness": {
				"baseColorTexture" : {
					"index" : 0,
					"texCoord" : 0
				},
				"baseColorFactor": [1, 1, 1, 1],
				"metallicFactor": 0,
				"roughnessFactor": 0.5
			},
			"emissiveFactor": [0, 0, 0],
			"doubleSided": false,
			"name": ""
		}
	],
	"meshes": [
		{
			"name": "mesh_Box019_14412Box019",
			"primitives": [
				{
					"attributes": {
						"POSITION": 0,
						"NORMAL": 1,
						"TEXCOORD_0": 2,
						"TANGENT": 3
					},
					"indices": 4,
					"material": 0,
					"mode": 4
				}
			]
		},
		{
			"name": "mesh_Box018_14410Box018",
			"primitives": [
				{
					"attributes": {
						"POSITION": 5,
						"NORMAL": 6,
						"TEXCOORD_0": 7,
						"TANGENT": 8
					},
					"indices": 9,
					"material": 0,
					"mode": 4
				}
			]
		},
		{
			"name": "mesh_Box020_14414Box020",
			"primitives": [
				{
					"attributes": {
						"POSITION": 22,
						"NORMAL": 23,
						"TEXCOORD_0": 24,
						"TANGENT": 25
					},
					"indices": 26,
					"material": 0,
					"mode": 4
				}
			]
		}
	],
	"nodes": [
		{
			"name": "UnityGlTF_root",
			"children": [
				5
			]
		},
		{
			"name": "node_Box019_-49258",
			"mesh": 0,
			"translation": [ 0.001181313, 0, 0.005262375],
			"scale": [ 0.5957047, 1, 1.226073],
			"rotation": [-0.7054518, 0.04834974, 0.04834974, -0.7054518]
		},
		{
			"name": "node__-49266",
			"children": [
				6
			],
			"translation": [ -0.0174, 0, 0]
		},
		{
			"name": "node_Box018_-49246",
			"mesh": 1,
			"translation": [ 0.0006660512, 0, 0.005262375],
			"scale": [ 1, 1, 1.736148],
			"rotation": [-0.7071068, 0, 0, -0.7071068]
		},
		{
			"name": "node__-49254",
			"children": [
				1
			],
			"translation": [ -0.0039, 0, 0]
		},
		{
			"name": "node__-49236",
			"children": [
				7,
				4,
				2
			],
			"matrix": [1, 0, 0, 0, 0, 1, 0, 0, 0, 0, 1, 0, -0.07941508, -8.681234, 27.27319, 1]
		},
		{
			"name": "node_Box020_-49270",
			"mesh": 2,
			"translation": [ -0.0006530546, 0, 0.005262375],
			"scale": [ 0.5957047, 1, 1.226073],
			"rotation": [-0.03760038, 0.7061064, -0.7061064, 0.03760032]
		},
		{
			"name": "node__-49242",
			"children": [
				3
			],
			"translation": [ -0.0106, 0, 0]
		}
	],
	"samplers": [
		{
			"magFilter": 9729,
			"minFilter": 9985,
			"wrapS": 10497,
			"wrapT": 10497
		}
	],
	"scenes": [
		{
			"name":"defaultScene",
			"nodes": [
				0
			]
		}
	],
	"scene": 0,
	"textures": [
		{
			"sampler": 0,
			"source": 0
		}
	]
}