{
	"asset": {
		"generator": "Unity 2018.3.11f1",
		"extras": {
			"exporterVersion" : "2.2.1"
		},
		"version": "2.0"
	},
	"accessors": [
		{
			"bufferView": 3,
			"byteOffset": 0,
			"componentType": 5126,
			"count": 8268,
			"max": [ 1.27, 1.27, 0.1866372 ],
			"min": [ -1.27, -1.27, -1.366596 ],
			"type": "VEC3"
		},
		{
			"bufferView": 3,
			"byteOffset": 99216,
			"componentType": 5126,
			"count": 8268,
			"max": [ 1, 1, 1 ],
			"min": [ -1, -1, -0.999903 ],
			"type": "VEC3"
		},
		{
			"bufferView": 2,
			"byteOffset": 0,
			"componentType": 5126,
			"count": 8268,
			"max": [ 1, 1 ],
			"min": [ 0, 0 ],
			"type": "VEC2"
		},
		{
			"bufferView": 4,
			"byteOffset": 0,
			"componentType": 5126,
			"count": 8268,
			"max": [ 1, 1, 1, 1 ],
			"min": [ -1, -1, -1, 1 ],
			"type": "VEC4"
		},
		{
			"bufferView": 0,
			"byteOffset": 0,
			"componentType": 5123,
			"count": 32253,
			"max": [ 5907 ],
			"min": [ 0 ],
			"type": "SCALAR"
		},
		{
			"bufferView": 0,
			"byteOffset": 64506,
			"componentType": 5123,
			"count": 5943,
			"max": [ 8267 ],
			"min": [ 5217 ],
			"type": "SCALAR"
		},
		{
			"bufferView": 1,
			"byteOffset": 0,
			"componentType": 5126,
			"count": 90,
			"max": [ 2.966667 ],
			"min": [ 0 ],
			"type": "SCALAR"
		},
		{
			"bufferView": 5,
			"byteOffset": 0,
			"componentType": 5126,
			"count": 90,
			"max": [ 0, 0, 0 ],
			"min": [ 0, 0, 0 ],
			"type": "VEC3"
		},
		{
			"bufferView": 6,
			"byteOffset": 0,
			"componentType": 5126,
			"count": 90,
			"max": [ -0.7071068, 0, 0, -0.7071068 ],
			"min": [ -0.7071068, 0, 0, -0.7071068 ],
			"type": "VEC4"
		},
		{
			"bufferView": 5,
			"byteOffset": 1080,
			"componentType": 5126,
			"count": 90,
			"max": [ 1, 1, 1.2876 ],
			"min": [ 1, 1, 0.2110248 ],
			"type": "VEC3"
		},
		{
			"bufferView": 1,
			"byteOffset": 360,
			"componentType": 5126,
			"count": 90,
			"max": [ 2.966667 ],
			"min": [ 0 ],
			"type": "SCALAR"
		},
		{
			"bufferView": 5,
			"byteOffset": 2160,
			"componentType": 5126,
			"count": 90,
			"max": [ 0, 0, 0 ],
			"min": [ 0, 0, 0 ],
			"type": "VEC3"
		},
		{
			"bufferView": 6,
			"byteOffset": 1440,
			"componentType": 5126,
			"count": 90,
			"max": [ -0.7071068, 0, 0, -0.7071068 ],
			"min": [ -0.7071068, 0, 0, -0.7071068 ],
			"type": "VEC4"
		},
		{
			"bufferView": 5,
			"byteOffset": 3240,
			"componentType": 5126,
			"count": 90,
			"max": [ 1, 1, 1.1 ],
			"min": [ 1, 1, 0.5460578 ],
			"type": "VEC3"
		},
		{
			"bufferView": 3,
			"byteOffset": 198432,
			"componentType": 5126,
			"count": 2780,
			"max": [ 1.27, 1.27, 0 ],
			"min": [ -1.27, -1.27, -1.620882 ],
			"type": "VEC3"
		},
		{
			"bufferView": 3,
			"byteOffset": 231792,
			"componentType": 5126,
			"count": 2780,
			"max": [ 1, 1, 1 ],
			"min": [ -1, -1, -0.9999251 ],
			"type": "VEC3"
		},
		{
			"bufferView": 2,
			"byteOffset": 66144,
			"componentType": 5126,
			"count": 2780,
			"max": [ 1, 1.335474 ],
			"min": [ 0, 0 ],
			"type": "VEC2"
		},
		{
			"bufferView": 4,
			"byteOffset": 132288,
			"componentType": 5126,
			"count": 2780,
			"max": [ 1, 1, 1, 1 ],
			"min": [ -0.9999981, -0.9999931, -1, -1 ],
			"type": "VEC4"
		},
		{
			"bufferView": 0,
			"byteOffset": 76392,
			"componentType": 5123,
			"count": 513,
			"max": [ 360 ],
			"min": [ 0 ],
			"type": "SCALAR"
		},
		{
			"bufferView": 0,
			"byteOffset": 77418,
			"componentType": 5123,
			"count": 8745,
			"max": [ 2779 ],
			"min": [ 361 ],
			"type": "SCALAR"
		},
		{
			"bufferView": 3,
			"byteOffset": 265152,
			"componentType": 5126,
			"count": 2854,
			"max": [ 1.27, 1.27, 0 ],
			"min": [ -1.27, -1.27, -1.848404 ],
			"type": "VEC3"
		},
		{
			"bufferView": 3,
			"byteOffset": 299400,
			"componentType": 5126,
			"count": 2854,
			"max": [ 1, 1, 1 ],
			"min": [ -1, -1, -0.9998417 ],
			"type": "VEC3"
		},
		{
			"bufferView": 2,
			"byteOffset": 88384,
			"componentType": 5126,
			"count": 2854,
			"max": [ 1, 1 ],
			"min": [ 0, 0 ],
			"type": "VEC2"
		},
		{
			"bufferView": 4,
			"byteOffset": 176768,
			"componentType": 5126,
			"count": 2854,
			"max": [ 1, 0.9999799, 1, 1 ],
			"min": [ -1, -1, -1, 1 ],
			"type": "VEC4"
		},
		{
			"bufferView": 0,
			"byteOffset": 94908,
			"componentType": 5123,
			"count": 567,
			"max": [ 468 ],
			"min": [ 0 ],
			"type": "SCALAR"
		},
		{
			"bufferView": 0,
			"byteOffset": 96042,
			"componentType": 5123,
			"count": 9345,
			"max": [ 2853 ],
			"min": [ 469 ],
			"type": "SCALAR"
		},
		{
			"bufferView": 3,
			"byteOffset": 333648,
			"componentType": 5126,
			"count": 121,
			"max": [ 5, 1.110223E-16, 5 ],
			"min": [ -5, -1.110223E-16, -5 ],
			"type": "VEC3"
		},
		{
			"bufferView": 3,
			"byteOffset": 335100,
			"componentType": 5126,
			"count": 121,
			"max": [ 0, 1, 0 ],
			"min": [ 0, 1, 0 ],
			"type": "VEC3"
		},
		{
			"bufferView": 2,
			"byteOffset": 111216,
			"componentType": 5126,
			"count": 121,
			"max": [ 1, 1 ],
			"min": [ 0, 0 ],
			"type": "VEC2"
		},
		{
			"bufferView": 4,
			"byteOffset": 222432,
			"componentType": 5126,
			"count": 121,
			"max": [ -1, 0, 0, 1 ],
			"min": [ -1, 0, 0, 1 ],
			"type": "VEC4"
		},
		{
			"bufferView": 0,
			"byteOffset": 114732,
			"componentType": 5123,
			"count": 600,
			"max": [ 120 ],
			"min": [ 0 ],
			"type": "SCALAR"
		},
		{
			"bufferView": 3,
			"byteOffset": 336552,
			"componentType": 5126,
			"count": 121,
			"max": [ 5, 1.110223E-16, 5 ],
			"min": [ -5, -1.110223E-16, -5 ],
			"type": "VEC3"
		},
		{
			"bufferView": 3,
			"byteOffset": 338004,
			"componentType": 5126,
			"count": 121,
			"max": [ 0, 1, 0 ],
			"min": [ 0, 1, 0 ],
			"type": "VEC3"
		},
		{
			"bufferView": 2,
			"byteOffset": 112184,
			"componentType": 5126,
			"count": 121,
			"max": [ 1, 1 ],
			"min": [ 0, 0 ],
			"type": "VEC2"
		},
		{
			"bufferView": 4,
			"byteOffset": 224368,
			"componentType": 5126,
			"count": 121,
			"max": [ -1, 0, 0, 1 ],
			"min": [ -1, 0, 0, 1 ],
			"type": "VEC4"
		},
		{
			"bufferView": 0,
			"byteOffset": 115932,
			"componentType": 5123,
			"count": 600,
			"max": [ 120 ],
			"min": [ 0 ],
			"type": "SCALAR"
		},
		{
			"bufferView": 3,
			"byteOffset": 339456,
			"componentType": 5126,
			"count": 121,
			"max": [ 5, 1.110223E-16, 5 ],
			"min": [ -5, -1.110223E-16, -5 ],
			"type": "VEC3"
		},
		{
			"bufferView": 3,
			"byteOffset": 340908,
			"componentType": 5126,
			"count": 121,
			"max": [ 0, 1, 0 ],
			"min": [ 0, 1, 0 ],
			"type": "VEC3"
		},
		{
			"bufferView": 2,
			"byteOffset": 113152,
			"componentType": 5126,
			"count": 121,
			"max": [ 1, 1 ],
			"min": [ 0, 0 ],
			"type": "VEC2"
		},
		{
			"bufferView": 4,
			"byteOffset": 226304,
			"componentType": 5126,
			"count": 121,
			"max": [ -1, 0, 0, 1 ],
			"min": [ -1, 0, 0, 1 ],
			"type": "VEC4"
		},
		{
			"bufferView": 0,
			"byteOffset": 117132,
			"componentType": 5123,
			"count": 600,
			"max": [ 120 ],
			"min": [ 0 ],
			"type": "SCALAR"
		}
	],
	"animations": [
		{
			"name": "",
			"channels": [
				{
					"sampler": 0,
					"target": {
						"node": 3,
						"path": "translation"
					}
				},
				{
					"sampler": 1,
					"target": {
						"node": 3,
						"path": "rotation"
					}
				},
				{
					"sampler": 2,
					"target": {
						"node": 3,
						"path": "scale"
					}
				},
				{
					"sampler": 3,
					"target": {
						"node": 4,
						"path": "translation"
					}
				},
				{
					"sampler": 4,
					"target": {
						"node": 4,
						"path": "rotation"
					}
				},
				{
					"sampler": 5,
					"target": {
						"node": 4,
						"path": "scale"
					}
				}
			],
			"samplers": [
				{
					"input": 6,
					"interpolation": "LINEAR",
					"output": 7
				},
				{
					"input": 6,
					"interpolation": "LINEAR",
					"output": 8
				},
				{
					"input": 6,
					"interpolation": "LINEAR",
					"output": 9
				},
				{
					"input": 10,
					"interpolation": "LINEAR",
					"output": 11
				},
				{
					"input": 10,
					"interpolation": "LINEAR",
					"output": 12
				},
				{
					"input": 10,
					"interpolation": "LINEAR",
					"output": 13
				}
			]
		}
	],
	"buffers": [
		{
			"byteLength": 810972,
			"uri": "河谷变换.bin"
		}
	],
	"bufferViews": [
		{
			"buffer": 0,
			"byteLength": 118332,
			"target": 34963,
			"byteOffset": 685440
		},
		{
			"buffer": 0,
			"byteLength": 720,
			"byteOffset": 0
		},
		{
			"buffer": 0,
			"byteLength": 114120,
			"target": 34962,
			"byteStride": 8,
			"byteOffset": 720
		},
		{
			"buffer": 0,
			"byteLength": 342360,
			"target": 34962,
			"byteStride": 12,
			"byteOffset": 114840
		},
		{
			"buffer": 0,
			"byteLength": 228240,
			"target": 34962,
			"byteStride": 16,
			"byteOffset": 457200
		},
		{
			"buffer": 0,
			"byteLength": 4320,
			"byteStride": 12,
			"byteOffset": 803772
		},
		{
			"buffer": 0,
			"byteLength": 2880,
			"byteStride": 16,
			"byteOffset": 808092
		}
	],
	"images": [
		{
			"uri": "/Assets/Models/Lucy/TexturesCom_Soil3_3x3_1K_albedo.jpg"
		},
		{
			"uri": "/Assets/Models/Lucy/TexturesCom_Grass0120_1_seamless_S.jpg"
		}
	],
	"materials": [
		{
			"pbrMetallicRoughness": {
				"baseColorTexture" : {
					"index" : 0,
					"texCoord" : 0
				},
				"baseColorFactor": [0.5882353, 0.5882353, 0.5882353, 1],
				"metallicFactor": 0,
				"roughnessFactor": 1
			},
			"emissiveFactor": [0, 0, 0],
			"doubleSided": false,
			"name": "02 - Default"
		},
		{
			"pbrMetallicRoughness": {
				"baseColorTexture" : {
					"index" : 1,
					"texCoord" : 0
				},
				"baseColorFactor": [0.5882353, 0.5882353, 0.5882353, 1],
				"metallicFactor": 0,
				"roughnessFactor": 1
			},
			"emissiveFactor": [0, 0, 0],
			"doubleSided": false,
			"name": "01 - Default"
		},
		{
			"pbrMetallicRoughness": {
				"baseColorFactor": [0.1762193, 0.4596904, 0.6792453, 1],
				"metallicFactor": 0,
				"roughnessFactor": 0.5
			},
			"emissiveFactor": [0, 0, 0],
			"doubleSided": false,
			"name": "New Material"
		}
	],
	"meshes": [
		{
			"name": "mesh_Box003_12268Box003",
			"primitives": [
				{
					"attributes": {
						"POSITION": 0,
						"NORMAL": 1,
						"TEXCOORD_0": 2,
						"TANGENT": 3
					},
					"indices": 4,
					"material": 0,
					"mode": 4
				},
				{
					"attributes": {
						"POSITION": 0,
						"NORMAL": 1,
						"TEXCOORD_0": 2,
						"TANGENT": 3
					},
					"indices": 5,
					"material": 1,
					"mode": 4
				}
			]
		},
		{
			"name": "mesh_Box001_12264Box001",
			"primitives": [
				{
					"attributes": {
						"POSITION": 14,
						"NORMAL": 15,
						"TEXCOORD_0": 16,
						"TANGENT": 17
					},
					"indices": 18,
					"material": 0,
					"mode": 4
				},
				{
					"attributes": {
						"POSITION": 14,
						"NORMAL": 15,
						"TEXCOORD_0": 16,
						"TANGENT": 17
					},
					"indices": 19,
					"material": 1,
					"mode": 4
				}
			]
		},
		{
			"name": "mesh_Box002_12266Box002",
			"primitives": [
				{
					"attributes": {
						"POSITION": 20,
						"NORMAL": 21,
						"TEXCOORD_0": 22,
						"TANGENT": 23
					},
					"indices": 24,
					"material": 0,
					"mode": 4
				},
				{
					"attributes": {
						"POSITION": 20,
						"NORMAL": 21,
						"TEXCOORD_0": 22,
						"TANGENT": 23
					},
					"indices": 25,
					"material": 1,
					"mode": 4
				}
			]
		},
		{
			"name": "mesh_Plane_580Plane",
			"primitives": [
				{
					"attributes": {
						"POSITION": 26,
						"NORMAL": 27,
						"TEXCOORD_0": 28,
						"TANGENT": 29
					},
					"indices": 30,
					"material": 2,
					"mode": 4
				}
			]
		},
		{
			"name": "mesh_Plane_580Plane (1)",
			"primitives": [
				{
					"attributes": {
						"POSITION": 31,
						"NORMAL": 32,
						"TEXCOORD_0": 33,
						"TANGENT": 34
					},
					"indices": 35,
					"material": 2,
					"mode": 4
				}
			]
		},
		{
			"name": "mesh_Plane_580Plane (2)",
			"primitives": [
				{
					"attributes": {
						"POSITION": 36,
						"NORMAL": 37,
						"TEXCOORD_0": 38,
						"TANGENT": 39
					},
					"indices": 40,
					"material": 2,
					"mode": 4
				}
			]
		}
	],
	"nodes": [
		{
			"name": "UnityGlTF_root",
			"children": [
				2
			]
		},
		{
			"name": "node_Box003_-2868",
			"mesh": 0,
			"scale": [ 1, 1, 1.2577],
			"rotation": [-0.7071068, 0, 0, -0.7071068]
		},
		{
			"name": "node__-2870",
			"children": [
				3,
				4,
				1,
				5,
				6,
				7
			],
			"matrix": [1, 0, 0, 0, 0, 1, 0, 0, 0, 0, 1, 0, 34744.24, 5635.663, -9322.642, 1]
		},
		{
			"name": "node_Box001_-2864",
			"mesh": 1,
			"scale": [ 1, 1, 0.883638],
			"rotation": [-0.7071068, 0, 0, -0.7071068]
		},
		{
			"name": "node_Box002_-2866",
			"mesh": 2,
			"scale": [ 1, 1, 1.1],
			"rotation": [-0.7071068, 0, 0, -0.7071068]
		},
		{
			"name": "node_Plane_-6052",
			"mesh": 3,
			"translation": [ 0, 1.2, 0],
			"scale": [ 0.097495, 1, 0.2506801]
		},
		{
			"name": "node_Plane (1)_-9392",
			"mesh": 4,
			"translation": [ 0, 0.739, 1.265],
			"scale": [ 0.0975, 1, 0.09521157],
			"rotation": [-0.7071068, 0, 0, -0.7071068]
		},
		{
			"name": "node_Plane (2)_-10562",
			"mesh": 5,
			"translation": [ 0, 0.739, -1.261],
			"scale": [ 0.0975, 1, 0.09521006],
			"rotation": [0, 0.7071068, -0.7071068, 0]
		}
	],
	"samplers": [
		{
			"magFilter": 9729,
			"minFilter": 9985,
			"wrapS": 10497,
			"wrapT": 10497
		}
	],
	"scenes": [
		{
			"name":"defaultScene",
			"nodes": [
				0
			]
		}
	],
	"scene": 0,
	"textures": [
		{
			"sampler": 0,
			"source": 0
		},
		{
			"sampler": 0,
			"source": 1
		}
	]
}