{
	"asset": {
		"generator": "Unity 2018.3.11f1",
		"extras": {
			"exporterVersion" : "2.2.1"
		},
		"version": "2.0"
	},
	"accessors": [
		{
			"bufferView": 3,
			"byteOffset": 0,
			"componentType": 5126,
			"count": 121,
			"max": [ 5, 1.110223E-16, 5 ],
			"min": [ -5, -1.110223E-16, -5 ],
			"type": "VEC3"
		},
		{
			"bufferView": 3,
			"byteOffset": 1452,
			"componentType": 5126,
			"count": 121,
			"max": [ 0, 1, 0 ],
			"min": [ 0, 1, 0 ],
			"type": "VEC3"
		},
		{
			"bufferView": 2,
			"byteOffset": 0,
			"componentType": 5126,
			"count": 121,
			"max": [ 1, 1 ],
			"min": [ 0, 0 ],
			"type": "VEC2"
		},
		{
			"bufferView": 4,
			"byteOffset": 0,
			"componentType": 5126,
			"count": 121,
			"max": [ -1, 0, 0, 1 ],
			"min": [ -1, 0, 0, 1 ],
			"type": "VEC4"
		},
		{
			"bufferView": 0,
			"byteOffset": 0,
			"componentType": 5123,
			"count": 600,
			"max": [ 120 ],
			"min": [ 0 ],
			"type": "SCALAR"
		},
		{
			"bufferView": 3,
			"byteOffset": 2904,
			"componentType": 5126,
			"count": 121,
			"max": [ 5, 1.110223E-16, 5 ],
			"min": [ -5, -1.110223E-16, -5 ],
			"type": "VEC3"
		},
		{
			"bufferView": 3,
			"byteOffset": 4356,
			"componentType": 5126,
			"count": 121,
			"max": [ 0, 1, 0 ],
			"min": [ 0, 1, 0 ],
			"type": "VEC3"
		},
		{
			"bufferView": 2,
			"byteOffset": 968,
			"componentType": 5126,
			"count": 121,
			"max": [ 1, 1 ],
			"min": [ 0, 0 ],
			"type": "VEC2"
		},
		{
			"bufferView": 4,
			"byteOffset": 1936,
			"componentType": 5126,
			"count": 121,
			"max": [ -1, 0, 0, 1 ],
			"min": [ -1, 0, 0, 1 ],
			"type": "VEC4"
		},
		{
			"bufferView": 0,
			"byteOffset": 1200,
			"componentType": 5123,
			"count": 600,
			"max": [ 120 ],
			"min": [ 0 ],
			"type": "SCALAR"
		},
		{
			"bufferView": 1,
			"byteOffset": 0,
			"componentType": 5126,
			"count": 120,
			"max": [ 3.966667 ],
			"min": [ 0 ],
			"type": "SCALAR"
		},
		{
			"bufferView": 5,
			"byteOffset": 0,
			"componentType": 5126,
			"count": 120,
			"max": [ 0, 0, 0 ],
			"min": [ 0, -0.9, 0 ],
			"type": "VEC3"
		},
		{
			"bufferView": 6,
			"byteOffset": 0,
			"componentType": 5126,
			"count": 120,
			"max": [ -0.7071068, 0, 0, -0.7071068 ],
			"min": [ -0.7071068, 0, 0, -0.7071068 ],
			"type": "VEC4"
		},
		{
			"bufferView": 5,
			"byteOffset": 1440,
			"componentType": 5126,
			"count": 120,
			"max": [ 1, 1, 1 ],
			"min": [ 1, 1, 0 ],
			"type": "VEC3"
		},
		{
			"bufferView": 1,
			"byteOffset": 480,
			"componentType": 5126,
			"count": 120,
			"max": [ 3.966667 ],
			"min": [ 0 ],
			"type": "SCALAR"
		},
		{
			"bufferView": 5,
			"byteOffset": 2880,
			"componentType": 5126,
			"count": 120,
			"max": [ 0, 0, 0 ],
			"min": [ 0, -0.8372623, 0 ],
			"type": "VEC3"
		},
		{
			"bufferView": 6,
			"byteOffset": 1920,
			"componentType": 5126,
			"count": 120,
			"max": [ -0.7071068, 0, 0, -0.7071068 ],
			"min": [ -0.7071068, 0, 0, -0.7071068 ],
			"type": "VEC4"
		},
		{
			"bufferView": 5,
			"byteOffset": 4320,
			"componentType": 5126,
			"count": 120,
			"max": [ 1, 1, 1 ],
			"min": [ 1, 1, 0.003259182 ],
			"type": "VEC3"
		},
		{
			"bufferView": 3,
			"byteOffset": 5808,
			"componentType": 5126,
			"count": 7116,
			"max": [ 3.81, 1.27, 1.038862 ],
			"min": [ -3.81, -1.27, -1.038862 ],
			"type": "VEC3"
		},
		{
			"bufferView": 3,
			"byteOffset": 91200,
			"componentType": 5126,
			"count": 7116,
			"max": [ 1, 1, 1 ],
			"min": [ -1, -1, -0.9999666 ],
			"type": "VEC3"
		},
		{
			"bufferView": 2,
			"byteOffset": 1936,
			"componentType": 5126,
			"count": 7116,
			"max": [ 1, 1 ],
			"min": [ 0, 0 ],
			"type": "VEC2"
		},
		{
			"bufferView": 4,
			"byteOffset": 3872,
			"componentType": 5126,
			"count": 7116,
			"max": [ 1, 1, 0.9226847, 1 ],
			"min": [ -1, -1, -0.9816788, 1 ],
			"type": "VEC4"
		},
		{
			"bufferView": 0,
			"byteOffset": 2400,
			"componentType": 5123,
			"count": 15801,
			"max": [ 3506 ],
			"min": [ 0 ],
			"type": "SCALAR"
		},
		{
			"bufferView": 0,
			"byteOffset": 34002,
			"componentType": 5123,
			"count": 19200,
			"max": [ 7115 ],
			"min": [ 3507 ],
			"type": "SCALAR"
		},
		{
			"bufferView": 3,
			"byteOffset": 176592,
			"componentType": 5126,
			"count": 799,
			"max": [ 3.81, 1.27, 0.9997154 ],
			"min": [ -3.81, -1.27, -0.9997154 ],
			"type": "VEC3"
		},
		{
			"bufferView": 3,
			"byteOffset": 186180,
			"componentType": 5126,
			"count": 799,
			"max": [ 1, 1, 1 ],
			"min": [ -1, -1, -0.9963388 ],
			"type": "VEC3"
		},
		{
			"bufferView": 2,
			"byteOffset": 58864,
			"componentType": 5126,
			"count": 799,
			"max": [ 1, 1 ],
			"min": [ 0, 0 ],
			"type": "VEC2"
		},
		{
			"bufferView": 4,
			"byteOffset": 117728,
			"componentType": 5126,
			"count": 799,
			"max": [ 1, 1, 0.9562843, 1 ],
			"min": [ -1, -1, -0.9820275, 1 ],
			"type": "VEC4"
		},
		{
			"bufferView": 0,
			"byteOffset": 72402,
			"componentType": 5123,
			"count": 966,
			"max": [ 337 ],
			"min": [ 0 ],
			"type": "SCALAR"
		},
		{
			"bufferView": 0,
			"byteOffset": 74334,
			"componentType": 5123,
			"count": 2406,
			"max": [ 798 ],
			"min": [ 334 ],
			"type": "SCALAR"
		},
		{
			"bufferView": 3,
			"byteOffset": 195768,
			"componentType": 5126,
			"count": 121,
			"max": [ 5, 1.110223E-16, 5 ],
			"min": [ -5, -1.110223E-16, -5 ],
			"type": "VEC3"
		},
		{
			"bufferView": 3,
			"byteOffset": 197220,
			"componentType": 5126,
			"count": 121,
			"max": [ 0, 1, 0 ],
			"min": [ 0, 1, 0 ],
			"type": "VEC3"
		},
		{
			"bufferView": 2,
			"byteOffset": 65256,
			"componentType": 5126,
			"count": 121,
			"max": [ 1, 1 ],
			"min": [ 0, 0 ],
			"type": "VEC2"
		},
		{
			"bufferView": 4,
			"byteOffset": 130512,
			"componentType": 5126,
			"count": 121,
			"max": [ -1, 0, 0, 1 ],
			"min": [ -1, 0, 0, 1 ],
			"type": "VEC4"
		},
		{
			"bufferView": 0,
			"byteOffset": 79146,
			"componentType": 5123,
			"count": 600,
			"max": [ 120 ],
			"min": [ 0 ],
			"type": "SCALAR"
		},
		{
			"bufferView": 3,
			"byteOffset": 198672,
			"componentType": 5126,
			"count": 787,
			"max": [ 3.81, 1.27, 0 ],
			"min": [ -3.81, -1.27, -1.342836 ],
			"type": "VEC3"
		},
		{
			"bufferView": 3,
			"byteOffset": 208116,
			"componentType": 5126,
			"count": 787,
			"max": [ 1, 1, 1 ],
			"min": [ -1, -1, -0.9999362 ],
			"type": "VEC3"
		},
		{
			"bufferView": 2,
			"byteOffset": 66224,
			"componentType": 5126,
			"count": 787,
			"max": [ 1, 1 ],
			"min": [ 0, 0 ],
			"type": "VEC2"
		},
		{
			"bufferView": 4,
			"byteOffset": 132448,
			"componentType": 5126,
			"count": 787,
			"max": [ 1, 1, 0.8559856, 1 ],
			"min": [ -1, -1, -0.8132439, 1 ],
			"type": "VEC4"
		},
		{
			"bufferView": 0,
			"byteOffset": 80346,
			"componentType": 5123,
			"count": 954,
			"max": [ 327 ],
			"min": [ 0 ],
			"type": "SCALAR"
		},
		{
			"bufferView": 0,
			"byteOffset": 82254,
			"componentType": 5123,
			"count": 2400,
			"max": [ 786 ],
			"min": [ 328 ],
			"type": "SCALAR"
		},
		{
			"bufferView": 3,
			"byteOffset": 217560,
			"componentType": 5126,
			"count": 121,
			"max": [ 5, 1.110223E-16, 5 ],
			"min": [ -5, -1.110223E-16, -5 ],
			"type": "VEC3"
		},
		{
			"bufferView": 3,
			"byteOffset": 219012,
			"componentType": 5126,
			"count": 121,
			"max": [ 0, 1, 0 ],
			"min": [ 0, 1, 0 ],
			"type": "VEC3"
		},
		{
			"bufferView": 2,
			"byteOffset": 72520,
			"componentType": 5126,
			"count": 121,
			"max": [ 1, 1 ],
			"min": [ 0, 0 ],
			"type": "VEC2"
		},
		{
			"bufferView": 4,
			"byteOffset": 145040,
			"componentType": 5126,
			"count": 121,
			"max": [ -1, 0, 0, 1 ],
			"min": [ -1, 0, 0, 1 ],
			"type": "VEC4"
		},
		{
			"bufferView": 0,
			"byteOffset": 87054,
			"componentType": 5123,
			"count": 600,
			"max": [ 120 ],
			"min": [ 0 ],
			"type": "SCALAR"
		},
		{
			"bufferView": 3,
			"byteOffset": 220464,
			"componentType": 5126,
			"count": 121,
			"max": [ 5, 1.110223E-16, 5 ],
			"min": [ -5, -1.110223E-16, -5 ],
			"type": "VEC3"
		},
		{
			"bufferView": 3,
			"byteOffset": 221916,
			"componentType": 5126,
			"count": 121,
			"max": [ 0, 1, 0 ],
			"min": [ 0, 1, 0 ],
			"type": "VEC3"
		},
		{
			"bufferView": 2,
			"byteOffset": 73488,
			"componentType": 5126,
			"count": 121,
			"max": [ 1, 1 ],
			"min": [ 0, 0 ],
			"type": "VEC2"
		},
		{
			"bufferView": 4,
			"byteOffset": 146976,
			"componentType": 5126,
			"count": 121,
			"max": [ -1, 0, 0, 1 ],
			"min": [ -1, 0, 0, 1 ],
			"type": "VEC4"
		},
		{
			"bufferView": 0,
			"byteOffset": 88254,
			"componentType": 5123,
			"count": 600,
			"max": [ 120 ],
			"min": [ 0 ],
			"type": "SCALAR"
		},
		{
			"bufferView": 3,
			"byteOffset": 223368,
			"componentType": 5126,
			"count": 121,
			"max": [ 5, 1.110223E-16, 5 ],
			"min": [ -5, -1.110223E-16, -5 ],
			"type": "VEC3"
		},
		{
			"bufferView": 3,
			"byteOffset": 224820,
			"componentType": 5126,
			"count": 121,
			"max": [ 0, 1, 0 ],
			"min": [ 0, 1, 0 ],
			"type": "VEC3"
		},
		{
			"bufferView": 2,
			"byteOffset": 74456,
			"componentType": 5126,
			"count": 121,
			"max": [ 1, 1 ],
			"min": [ 0, 0 ],
			"type": "VEC2"
		},
		{
			"bufferView": 4,
			"byteOffset": 148912,
			"componentType": 5126,
			"count": 121,
			"max": [ -1, 0, 0, 1 ],
			"min": [ -1, 0, 0, 1 ],
			"type": "VEC4"
		},
		{
			"bufferView": 0,
			"byteOffset": 89454,
			"componentType": 5123,
			"count": 600,
			"max": [ 120 ],
			"min": [ 0 ],
			"type": "SCALAR"
		},
		{
			"bufferView": 3,
			"byteOffset": 226272,
			"componentType": 5126,
			"count": 121,
			"max": [ 5, 1.110223E-16, 5 ],
			"min": [ -5, -1.110223E-16, -5 ],
			"type": "VEC3"
		},
		{
			"bufferView": 3,
			"byteOffset": 227724,
			"componentType": 5126,
			"count": 121,
			"max": [ 0, 1, 0 ],
			"min": [ 0, 1, 0 ],
			"type": "VEC3"
		},
		{
			"bufferView": 2,
			"byteOffset": 75424,
			"componentType": 5126,
			"count": 121,
			"max": [ 1, 1 ],
			"min": [ 0, 0 ],
			"type": "VEC2"
		},
		{
			"bufferView": 4,
			"byteOffset": 150848,
			"componentType": 5126,
			"count": 121,
			"max": [ -1, 0, 0, 1 ],
			"min": [ -1, 0, 0, 1 ],
			"type": "VEC4"
		},
		{
			"bufferView": 0,
			"byteOffset": 90654,
			"componentType": 5123,
			"count": 600,
			"max": [ 120 ],
			"min": [ 0 ],
			"type": "SCALAR"
		},
		{
			"bufferView": 3,
			"byteOffset": 229176,
			"componentType": 5126,
			"count": 121,
			"max": [ 5, 1.110223E-16, 5 ],
			"min": [ -5, -1.110223E-16, -5 ],
			"type": "VEC3"
		},
		{
			"bufferView": 3,
			"byteOffset": 230628,
			"componentType": 5126,
			"count": 121,
			"max": [ 0, 1, 0 ],
			"min": [ 0, 1, 0 ],
			"type": "VEC3"
		},
		{
			"bufferView": 2,
			"byteOffset": 76392,
			"componentType": 5126,
			"count": 121,
			"max": [ 1, 1 ],
			"min": [ 0, 0 ],
			"type": "VEC2"
		},
		{
			"bufferView": 4,
			"byteOffset": 152784,
			"componentType": 5126,
			"count": 121,
			"max": [ -1, 0, 0, 1 ],
			"min": [ -1, 0, 0, 1 ],
			"type": "VEC4"
		},
		{
			"bufferView": 0,
			"byteOffset": 91854,
			"componentType": 5123,
			"count": 600,
			"max": [ 120 ],
			"min": [ 0 ],
			"type": "SCALAR"
		},
		{
			"bufferView": 3,
			"byteOffset": 232080,
			"componentType": 5126,
			"count": 121,
			"max": [ 5, 1.110223E-16, 5 ],
			"min": [ -5, -1.110223E-16, -5 ],
			"type": "VEC3"
		},
		{
			"bufferView": 3,
			"byteOffset": 233532,
			"componentType": 5126,
			"count": 121,
			"max": [ 0, 1, 0 ],
			"min": [ 0, 1, 0 ],
			"type": "VEC3"
		},
		{
			"bufferView": 2,
			"byteOffset": 77360,
			"componentType": 5126,
			"count": 121,
			"max": [ 1, 1 ],
			"min": [ 0, 0 ],
			"type": "VEC2"
		},
		{
			"bufferView": 4,
			"byteOffset": 154720,
			"componentType": 5126,
			"count": 121,
			"max": [ -1, 0, 0, 1 ],
			"min": [ -1, 0, 0, 1 ],
			"type": "VEC4"
		},
		{
			"bufferView": 0,
			"byteOffset": 93054,
			"componentType": 5123,
			"count": 600,
			"max": [ 120 ],
			"min": [ 0 ],
			"type": "SCALAR"
		}
	],
	"animations": [
		{
			"name": "",
			"channels": [
				{
					"sampler": 0,
					"target": {
						"node": 6,
						"path": "translation"
					}
				},
				{
					"sampler": 1,
					"target": {
						"node": 6,
						"path": "rotation"
					}
				},
				{
					"sampler": 2,
					"target": {
						"node": 6,
						"path": "scale"
					}
				},
				{
					"sampler": 3,
					"target": {
						"node": 7,
						"path": "translation"
					}
				},
				{
					"sampler": 4,
					"target": {
						"node": 7,
						"path": "rotation"
					}
				},
				{
					"sampler": 5,
					"target": {
						"node": 7,
						"path": "scale"
					}
				}
			],
			"samplers": [
				{
					"input": 10,
					"interpolation": "LINEAR",
					"output": 11
				},
				{
					"input": 10,
					"interpolation": "LINEAR",
					"output": 12
				},
				{
					"input": 10,
					"interpolation": "LINEAR",
					"output": 13
				},
				{
					"input": 14,
					"interpolation": "LINEAR",
					"output": 15
				},
				{
					"input": 14,
					"interpolation": "LINEAR",
					"output": 16
				},
				{
					"input": 14,
					"interpolation": "LINEAR",
					"output": 17
				}
			]
		}
	],
	"buffers": [
		{
			"byteLength": 574782,
			"uri": "河谷变换.bin"
		}
	],
	"bufferViews": [
		{
			"buffer": 0,
			"byteLength": 94254,
			"target": 34963,
			"byteOffset": 470928
		},
		{
			"buffer": 0,
			"byteLength": 960,
			"byteOffset": 0
		},
		{
			"buffer": 0,
			"byteLength": 78328,
			"target": 34962,
			"byteStride": 8,
			"byteOffset": 960
		},
		{
			"buffer": 0,
			"byteLength": 234984,
			"target": 34962,
			"byteStride": 12,
			"byteOffset": 79288
		},
		{
			"buffer": 0,
			"byteLength": 156656,
			"target": 34962,
			"byteStride": 16,
			"byteOffset": 314272
		},
		{
			"buffer": 0,
			"byteLength": 5760,
			"byteStride": 12,
			"byteOffset": 565182
		},
		{
			"buffer": 0,
			"byteLength": 3840,
			"byteStride": 16,
			"byteOffset": 570942
		}
	],
	"images": [
		{
			"uri": "/Assets/河谷流水地貌/河谷/Textures/Sand (Beach).jpg"
		},
		{
			"uri": "/Assets/河谷流水地貌/河谷/Textures/Grass (Hill)(1).jpg"
		}
	],
	"materials": [
		{
			"pbrMetallicRoughness": {
				"baseColorFactor": [0.01361692, 0.2982111, 0.9622642, 1],
				"metallicFactor": 0,
				"roughnessFactor": 0.5
			},
			"emissiveFactor": [0, 0, 0],
			"doubleSided": false,
			"name": ""
		},
		{
			"pbrMetallicRoughness": {
				"baseColorTexture" : {
					"index" : 0,
					"texCoord" : 0
				},
				"baseColorFactor": [1, 1, 1, 1],
				"metallicFactor": 0,
				"roughnessFactor": 0.5
			},
			"emissiveFactor": [0, 0, 0],
			"doubleSided": false,
			"name": "Sand (Beach)"
		},
		{
			"pbrMetallicRoughness": {
				"baseColorTexture" : {
					"index" : 1,
					"texCoord" : 0
				},
				"baseColorFactor": [1, 1, 1, 1],
				"metallicFactor": 0,
				"roughnessFactor": 0.5
			},
			"emissiveFactor": [0, 0, 0],
			"doubleSided": false,
			"name": "Grass (Hill)(1)"
		}
	],
	"meshes": [
		{
			"name": "mesh_Plane_536Plane (1)",
			"primitives": [
				{
					"attributes": {
						"POSITION": 0,
						"NORMAL": 1,
						"TEXCOORD_0": 2,
						"TANGENT": 3
					},
					"indices": 4,
					"material": 0,
					"mode": 4
				}
			]
		},
		{
			"name": "mesh_Plane_536Plane",
			"primitives": [
				{
					"attributes": {
						"POSITION": 5,
						"NORMAL": 6,
						"TEXCOORD_0": 7,
						"TANGENT": 8
					},
					"indices": 9,
					"material": 0,
					"mode": 4
				}
			]
		},
		{
			"name": "mesh_Box001_11422V",
			"primitives": [
				{
					"attributes": {
						"POSITION": 18,
						"NORMAL": 19,
						"TEXCOORD_0": 20,
						"TANGENT": 21
					},
					"indices": 22,
					"material": 1,
					"mode": 4
				},
				{
					"attributes": {
						"POSITION": 18,
						"NORMAL": 19,
						"TEXCOORD_0": 20,
						"TANGENT": 21
					},
					"indices": 23,
					"material": 2,
					"mode": 4
				}
			]
		},
		{
			"name": "mesh_Box002_11418",
			"primitives": [
				{
					"attributes": {
						"POSITION": 24,
						"NORMAL": 25,
						"TEXCOORD_0": 26,
						"TANGENT": 27
					},
					"indices": 28,
					"material": 1,
					"mode": 4
				},
				{
					"attributes": {
						"POSITION": 24,
						"NORMAL": 25,
						"TEXCOORD_0": 26,
						"TANGENT": 27
					},
					"indices": 29,
					"material": 2,
					"mode": 4
				}
			]
		},
		{
			"name": "mesh_Plane_536Plane",
			"primitives": [
				{
					"attributes": {
						"POSITION": 30,
						"NORMAL": 31,
						"TEXCOORD_0": 32,
						"TANGENT": 33
					},
					"indices": 34,
					"material": 0,
					"mode": 4
				}
			]
		},
		{
			"name": "mesh_Box003_11420",
			"primitives": [
				{
					"attributes": {
						"POSITION": 35,
						"NORMAL": 36,
						"TEXCOORD_0": 37,
						"TANGENT": 38
					},
					"indices": 39,
					"material": 1,
					"mode": 4
				},
				{
					"attributes": {
						"POSITION": 35,
						"NORMAL": 36,
						"TEXCOORD_0": 37,
						"TANGENT": 38
					},
					"indices": 40,
					"material": 2,
					"mode": 4
				}
			]
		},
		{
			"name": "mesh_Plane_536Plane",
			"primitives": [
				{
					"attributes": {
						"POSITION": 41,
						"NORMAL": 42,
						"TEXCOORD_0": 43,
						"TANGENT": 44
					},
					"indices": 45,
					"material": 0,
					"mode": 4
				}
			]
		},
		{
			"name": "mesh_Plane_536Plane (1)",
			"primitives": [
				{
					"attributes": {
						"POSITION": 46,
						"NORMAL": 47,
						"TEXCOORD_0": 48,
						"TANGENT": 49
					},
					"indices": 50,
					"material": 0,
					"mode": 4
				}
			]
		},
		{
			"name": "mesh_Plane_536Plane",
			"primitives": [
				{
					"attributes": {
						"POSITION": 51,
						"NORMAL": 52,
						"TEXCOORD_0": 53,
						"TANGENT": 54
					},
					"indices": 55,
					"material": 0,
					"mode": 4
				}
			]
		},
		{
			"name": "mesh_Plane_536Plane (1)",
			"primitives": [
				{
					"attributes": {
						"POSITION": 56,
						"NORMAL": 57,
						"TEXCOORD_0": 58,
						"TANGENT": 59
					},
					"indices": 60,
					"material": 0,
					"mode": 4
				}
			]
		},
		{
			"name": "mesh_Plane_536Plane",
			"primitives": [
				{
					"attributes": {
						"POSITION": 61,
						"NORMAL": 62,
						"TEXCOORD_0": 63,
						"TANGENT": 64
					},
					"indices": 65,
					"material": 0,
					"mode": 4
				}
			]
		},
		{
			"name": "mesh_Plane_536Plane",
			"primitives": [
				{
					"attributes": {
						"POSITION": 66,
						"NORMAL": 67,
						"TEXCOORD_0": 68,
						"TANGENT": 69
					},
					"indices": 70,
					"material": 0,
					"mode": 4
				}
			]
		}
	],
	"nodes": [
		{
			"name": "UnityGlTF_root",
			"children": [
				5
			]
		},
		{
			"name": "node_Plane (1)_-2598",
			"mesh": 0,
			"translation": [ -0.19, -0.192, -1.264],
			"scale": [ 0.0724, 1, 0.11191],
			"rotation": [0.5, 0.5, -0.5, -0.5]
		},
		{
			"name": "node__-2570",
			"children": [
				11,
				9,
				1
			],
			"translation": [ 0, 0, 0.198],
			"rotation": [0.7071068, 0, 0, -0.7071068]
		},
		{
			"name": "node_Plane_-2604",
			"mesh": 1,
			"translation": [ 0, 0.17, 0],
			"scale": [ 0.14132, 1, 0.2530573]
		},
		{
			"name": "node__-2578",
			"children": [
				13,
				3,
				12
			],
			"rotation": [0.7071068, 0, 0, -0.7071068]
		},
		{
			"name": "node__-2558",
			"children": [
				6,
				7,
				8
			],
			"matrix": [-1.192093E-07, 0, 1, 0, 0, 1, 0, 0, -1, 0, -1.192093E-07, 0, 0, 0, -17.07, 1]
		},
		{
			"name": "node_V_-2562",
			"mesh": 2,
			"children": [
				4
			],
			"rotation": [-0.7071068, 0, 0, -0.7071068]
		},
		{
			"name": "node__-2564",
			"mesh": 3,
			"children": [
				2
			],
			"rotation": [-0.7071068, 0, 0, -0.7071068]
		},
		{
			"name": "node__-2566",
			"children": [
				10
			]
		},
		{
			"name": "node_Plane_-2596",
			"mesh": 4,
			"translation": [ 0, 0.17, 0],
			"scale": [ 0.14132, 1, 0.2530573]
		},
		{
			"name": "node__-2574",
			"mesh": 5,
			"children": [
				14
			],
			"translation": [ 0, -0.97, 0],
			"rotation": [-0.7071068, 0, 0, -0.7071068]
		},
		{
			"name": "node_Plane_-2594",
			"mesh": 6,
			"translation": [ -0.19, -0.192, 1.26],
			"scale": [ 0.07239541, 1, 0.1119095],
			"rotation": [-0.5, -0.5, -0.5, -0.5]
		},
		{
			"name": "node_Plane (1)_-2606",
			"mesh": 7,
			"translation": [ -0.19, -0.192, -1.264],
			"scale": [ 0.0724, 1, 0.11191],
			"rotation": [0.5, 0.5, -0.5, -0.5]
		},
		{
			"name": "node_Plane_-2602",
			"mesh": 8,
			"translation": [ -0.19, -0.192, 1.26],
			"scale": [ 0.07239541, 1, 0.1119095],
			"rotation": [-0.5, -0.5, -0.5, -0.5]
		},
		{
			"name": "node__-2586",
			"children": [
				16,
				17,
				15
			],
			"translation": [ 0, 0, -0.5],
			"rotation": [0.7071068, 0, 0, -0.7071068]
		},
		{
			"name": "node_Plane (1)_-2626",
			"mesh": 9,
			"translation": [ -0.19, -0.09, -1.264],
			"scale": [ 0.0550059, 1, 0.11191],
			"rotation": [0.5, 0.5, -0.5, -0.5]
		},
		{
			"name": "node_Plane_-2622",
			"mesh": 10,
			"translation": [ -0.19, -0.09, 1.26],
			"scale": [ 0.05500242, 1, 0.1119095],
			"rotation": [-0.5, -0.5, -0.5, -0.5]
		},
		{
			"name": "node_Plane_-2624",
			"mesh": 11,
			"translation": [ 0, 0.17, 0],
			"scale": [ 0.14132, 1, 0.2530573]
		}
	],
	"samplers": [
		{
			"magFilter": 9729,
			"minFilter": 9985,
			"wrapS": 10497,
			"wrapT": 10497
		}
	],
	"scenes": [
		{
			"name":"defaultScene",
			"nodes": [
				0
			]
		}
	],
	"scene": 0,
	"textures": [
		{
			"sampler": 0,
			"source": 0
		},
		{
			"sampler": 0,
			"source": 1
		}
	]
}