{
	"asset": {
		"generator": "Unity 2018.3.11f1",
		"extras": {
			"exporterVersion" : "2.2.1"
		},
		"version": "2.0"
	},
	"accessors": [
		{
			"bufferView": 3,
			"byteOffset": 0,
			"componentType": 5126,
			"count": 121,
			"max": [ 5, 1.110223E-16, 5 ],
			"min": [ -5, -1.110223E-16, -5 ],
			"type": "VEC3"
		},
		{
			"bufferView": 3,
			"byteOffset": 1452,
			"componentType": 5126,
			"count": 121,
			"max": [ 0, 1, 0 ],
			"min": [ 0, 1, 0 ],
			"type": "VEC3"
		},
		{
			"bufferView": 2,
			"byteOffset": 0,
			"componentType": 5126,
			"count": 121,
			"max": [ 1, 1 ],
			"min": [ 0, 0 ],
			"type": "VEC2"
		},
		{
			"bufferView": 4,
			"byteOffset": 0,
			"componentType": 5126,
			"count": 121,
			"max": [ -1, 0, 0, 1 ],
			"min": [ -1, 0, 0, 1 ],
			"type": "VEC4"
		},
		{
			"bufferView": 0,
			"byteOffset": 0,
			"componentType": 5123,
			"count": 600,
			"max": [ 120 ],
			"min": [ 0 ],
			"type": "SCALAR"
		},
		{
			"bufferView": 3,
			"byteOffset": 2904,
			"componentType": 5126,
			"count": 799,
			"max": [ 3.81, 1.27, 0.9997154 ],
			"min": [ -3.81, -1.27, -0.9997154 ],
			"type": "VEC3"
		},
		{
			"bufferView": 3,
			"byteOffset": 12492,
			"componentType": 5126,
			"count": 799,
			"max": [ 1, 1, 1 ],
			"min": [ -1, -1, -0.9963388 ],
			"type": "VEC3"
		},
		{
			"bufferView": 2,
			"byteOffset": 968,
			"componentType": 5126,
			"count": 799,
			"max": [ 1, 1 ],
			"min": [ 0, 0 ],
			"type": "VEC2"
		},
		{
			"bufferView": 4,
			"byteOffset": 1936,
			"componentType": 5126,
			"count": 799,
			"max": [ 1, 1, 0.9562843, 1 ],
			"min": [ -1, -1, -0.9820275, 1 ],
			"type": "VEC4"
		},
		{
			"bufferView": 0,
			"byteOffset": 1200,
			"componentType": 5123,
			"count": 966,
			"max": [ 337 ],
			"min": [ 0 ],
			"type": "SCALAR"
		},
		{
			"bufferView": 0,
			"byteOffset": 3132,
			"componentType": 5123,
			"count": 2406,
			"max": [ 798 ],
			"min": [ 334 ],
			"type": "SCALAR"
		},
		{
			"bufferView": 3,
			"byteOffset": 22080,
			"componentType": 5126,
			"count": 7116,
			"max": [ 3.81, 1.27, 1.038862 ],
			"min": [ -3.81, -1.27, -1.038862 ],
			"type": "VEC3"
		},
		{
			"bufferView": 3,
			"byteOffset": 107472,
			"componentType": 5126,
			"count": 7116,
			"max": [ 1, 1, 1 ],
			"min": [ -1, -1, -0.9999666 ],
			"type": "VEC3"
		},
		{
			"bufferView": 2,
			"byteOffset": 7360,
			"componentType": 5126,
			"count": 7116,
			"max": [ 1, 1 ],
			"min": [ 0, 0 ],
			"type": "VEC2"
		},
		{
			"bufferView": 4,
			"byteOffset": 14720,
			"componentType": 5126,
			"count": 7116,
			"max": [ 1, 1, 0.9226847, 1 ],
			"min": [ -1, -1, -0.9816788, 1 ],
			"type": "VEC4"
		},
		{
			"bufferView": 0,
			"byteOffset": 7944,
			"componentType": 5123,
			"count": 15801,
			"max": [ 3506 ],
			"min": [ 0 ],
			"type": "SCALAR"
		},
		{
			"bufferView": 0,
			"byteOffset": 39546,
			"componentType": 5123,
			"count": 19200,
			"max": [ 7115 ],
			"min": [ 3507 ],
			"type": "SCALAR"
		},
		{
			"bufferView": 1,
			"byteOffset": 0,
			"componentType": 5126,
			"count": 216,
			"max": [ 7.199845 ],
			"min": [ 0 ],
			"type": "SCALAR"
		},
		{
			"bufferView": 5,
			"byteOffset": 0,
			"componentType": 5126,
			"count": 216,
			"max": [ 0, 0, 0 ],
			"min": [ 0, -0.9, 0 ],
			"type": "VEC3"
		},
		{
			"bufferView": 6,
			"byteOffset": 0,
			"componentType": 5126,
			"count": 216,
			"max": [ -0.7071068, 0, 0, -0.7071068 ],
			"min": [ -0.7071068, 0, 0, -0.7071068 ],
			"type": "VEC4"
		},
		{
			"bufferView": 5,
			"byteOffset": 2592,
			"componentType": 5126,
			"count": 216,
			"max": [ 1, 1, 1 ],
			"min": [ 1, 1, 0 ],
			"type": "VEC3"
		},
		{
			"bufferView": 1,
			"byteOffset": 864,
			"componentType": 5126,
			"count": 216,
			"max": [ 7.199845 ],
			"min": [ 0 ],
			"type": "SCALAR"
		},
		{
			"bufferView": 5,
			"byteOffset": 5184,
			"componentType": 5126,
			"count": 216,
			"max": [ 0, 0, 0 ],
			"min": [ 0, -0.84, 0 ],
			"type": "VEC3"
		},
		{
			"bufferView": 6,
			"byteOffset": 3456,
			"componentType": 5126,
			"count": 216,
			"max": [ -0.7071068, 0, 0, -0.7071068 ],
			"min": [ -0.7071068, 0, 0, -0.7071068 ],
			"type": "VEC4"
		},
		{
			"bufferView": 5,
			"byteOffset": 7776,
			"componentType": 5126,
			"count": 216,
			"max": [ 1, 1, 1 ],
			"min": [ 1, 1, 0 ],
			"type": "VEC3"
		},
		{
			"bufferView": 1,
			"byteOffset": 1728,
			"componentType": 5126,
			"count": 216,
			"max": [ 7.199845 ],
			"min": [ 0 ],
			"type": "SCALAR"
		},
		{
			"bufferView": 5,
			"byteOffset": 10368,
			"componentType": 5126,
			"count": 216,
			"max": [ 0, -0.99, 0 ],
			"min": [ 0, -0.99, 0 ],
			"type": "VEC3"
		},
		{
			"bufferView": 6,
			"byteOffset": 6912,
			"componentType": 5126,
			"count": 216,
			"max": [ -0.7071068, 0, 0, -0.7071068 ],
			"min": [ -0.7071068, 0, 0, -0.7071068 ],
			"type": "VEC4"
		},
		{
			"bufferView": 5,
			"byteOffset": 12960,
			"componentType": 5126,
			"count": 216,
			"max": [ 1, 1, 1 ],
			"min": [ 1, 1, 1 ],
			"type": "VEC3"
		},
		{
			"bufferView": 3,
			"byteOffset": 192864,
			"componentType": 5126,
			"count": 787,
			"max": [ 3.81, 1.27, 0 ],
			"min": [ -3.81, -1.27, -1.342836 ],
			"type": "VEC3"
		},
		{
			"bufferView": 3,
			"byteOffset": 202308,
			"componentType": 5126,
			"count": 787,
			"max": [ 1, 1, 1 ],
			"min": [ -1, -1, -0.9999362 ],
			"type": "VEC3"
		},
		{
			"bufferView": 2,
			"byteOffset": 64288,
			"componentType": 5126,
			"count": 787,
			"max": [ 1, 1 ],
			"min": [ 0, 0 ],
			"type": "VEC2"
		},
		{
			"bufferView": 4,
			"byteOffset": 128576,
			"componentType": 5126,
			"count": 787,
			"max": [ 1, 1, 0.8559856, 1 ],
			"min": [ -1, -1, -0.8132439, 1 ],
			"type": "VEC4"
		},
		{
			"bufferView": 0,
			"byteOffset": 77946,
			"componentType": 5123,
			"count": 954,
			"max": [ 327 ],
			"min": [ 0 ],
			"type": "SCALAR"
		},
		{
			"bufferView": 0,
			"byteOffset": 79854,
			"componentType": 5123,
			"count": 2400,
			"max": [ 786 ],
			"min": [ 328 ],
			"type": "SCALAR"
		},
		{
			"bufferView": 3,
			"byteOffset": 211752,
			"componentType": 5126,
			"count": 121,
			"max": [ 5, 1.110223E-16, 5 ],
			"min": [ -5, -1.110223E-16, -5 ],
			"type": "VEC3"
		},
		{
			"bufferView": 3,
			"byteOffset": 213204,
			"componentType": 5126,
			"count": 121,
			"max": [ 0, 1, 0 ],
			"min": [ 0, 1, 0 ],
			"type": "VEC3"
		},
		{
			"bufferView": 2,
			"byteOffset": 70584,
			"componentType": 5126,
			"count": 121,
			"max": [ 1, 1 ],
			"min": [ 0, 0 ],
			"type": "VEC2"
		},
		{
			"bufferView": 4,
			"byteOffset": 141168,
			"componentType": 5126,
			"count": 121,
			"max": [ -1, 0, 0, 1 ],
			"min": [ -1, 0, 0, 1 ],
			"type": "VEC4"
		},
		{
			"bufferView": 0,
			"byteOffset": 84654,
			"componentType": 5123,
			"count": 600,
			"max": [ 120 ],
			"min": [ 0 ],
			"type": "SCALAR"
		},
		{
			"bufferView": 3,
			"byteOffset": 214656,
			"componentType": 5126,
			"count": 121,
			"max": [ 5, 1.110223E-16, 5 ],
			"min": [ -5, -1.110223E-16, -5 ],
			"type": "VEC3"
		},
		{
			"bufferView": 3,
			"byteOffset": 216108,
			"componentType": 5126,
			"count": 121,
			"max": [ 0, 1, 0 ],
			"min": [ 0, 1, 0 ],
			"type": "VEC3"
		},
		{
			"bufferView": 2,
			"byteOffset": 71552,
			"componentType": 5126,
			"count": 121,
			"max": [ 1, 1 ],
			"min": [ 0, 0 ],
			"type": "VEC2"
		},
		{
			"bufferView": 4,
			"byteOffset": 143104,
			"componentType": 5126,
			"count": 121,
			"max": [ -1, 0, 0, 1 ],
			"min": [ -1, 0, 0, 1 ],
			"type": "VEC4"
		},
		{
			"bufferView": 0,
			"byteOffset": 85854,
			"componentType": 5123,
			"count": 600,
			"max": [ 120 ],
			"min": [ 0 ],
			"type": "SCALAR"
		},
		{
			"bufferView": 3,
			"byteOffset": 217560,
			"componentType": 5126,
			"count": 121,
			"max": [ 5, 1.110223E-16, 5 ],
			"min": [ -5, -1.110223E-16, -5 ],
			"type": "VEC3"
		},
		{
			"bufferView": 3,
			"byteOffset": 219012,
			"componentType": 5126,
			"count": 121,
			"max": [ 0, 1, 0 ],
			"min": [ 0, 1, 0 ],
			"type": "VEC3"
		},
		{
			"bufferView": 2,
			"byteOffset": 72520,
			"componentType": 5126,
			"count": 121,
			"max": [ 1, 1 ],
			"min": [ 0, 0 ],
			"type": "VEC2"
		},
		{
			"bufferView": 4,
			"byteOffset": 145040,
			"componentType": 5126,
			"count": 121,
			"max": [ -1, 0, 0, 1 ],
			"min": [ -1, 0, 0, 1 ],
			"type": "VEC4"
		},
		{
			"bufferView": 0,
			"byteOffset": 87054,
			"componentType": 5123,
			"count": 600,
			"max": [ 120 ],
			"min": [ 0 ],
			"type": "SCALAR"
		},
		{
			"bufferView": 3,
			"byteOffset": 220464,
			"componentType": 5126,
			"count": 121,
			"max": [ 5, 1.110223E-16, 5 ],
			"min": [ -5, -1.110223E-16, -5 ],
			"type": "VEC3"
		},
		{
			"bufferView": 3,
			"byteOffset": 221916,
			"componentType": 5126,
			"count": 121,
			"max": [ 0, 1, 0 ],
			"min": [ 0, 1, 0 ],
			"type": "VEC3"
		},
		{
			"bufferView": 2,
			"byteOffset": 73488,
			"componentType": 5126,
			"count": 121,
			"max": [ 1, 1 ],
			"min": [ 0, 0 ],
			"type": "VEC2"
		},
		{
			"bufferView": 4,
			"byteOffset": 146976,
			"componentType": 5126,
			"count": 121,
			"max": [ -1, 0, 0, 1 ],
			"min": [ -1, 0, 0, 1 ],
			"type": "VEC4"
		},
		{
			"bufferView": 0,
			"byteOffset": 88254,
			"componentType": 5123,
			"count": 600,
			"max": [ 120 ],
			"min": [ 0 ],
			"type": "SCALAR"
		},
		{
			"bufferView": 3,
			"byteOffset": 223368,
			"componentType": 5126,
			"count": 121,
			"max": [ 5, 1.110223E-16, 5 ],
			"min": [ -5, -1.110223E-16, -5 ],
			"type": "VEC3"
		},
		{
			"bufferView": 3,
			"byteOffset": 224820,
			"componentType": 5126,
			"count": 121,
			"max": [ 0, 1, 0 ],
			"min": [ 0, 1, 0 ],
			"type": "VEC3"
		},
		{
			"bufferView": 2,
			"byteOffset": 74456,
			"componentType": 5126,
			"count": 121,
			"max": [ 1, 1 ],
			"min": [ 0, 0 ],
			"type": "VEC2"
		},
		{
			"bufferView": 4,
			"byteOffset": 148912,
			"componentType": 5126,
			"count": 121,
			"max": [ -1, 0, 0, 1 ],
			"min": [ -1, 0, 0, 1 ],
			"type": "VEC4"
		},
		{
			"bufferView": 0,
			"byteOffset": 89454,
			"componentType": 5123,
			"count": 600,
			"max": [ 120 ],
			"min": [ 0 ],
			"type": "SCALAR"
		},
		{
			"bufferView": 3,
			"byteOffset": 226272,
			"componentType": 5126,
			"count": 121,
			"max": [ 5, 1.110223E-16, 5 ],
			"min": [ -5, -1.110223E-16, -5 ],
			"type": "VEC3"
		},
		{
			"bufferView": 3,
			"byteOffset": 227724,
			"componentType": 5126,
			"count": 121,
			"max": [ 0, 1, 0 ],
			"min": [ 0, 1, 0 ],
			"type": "VEC3"
		},
		{
			"bufferView": 2,
			"byteOffset": 75424,
			"componentType": 5126,
			"count": 121,
			"max": [ 1, 1 ],
			"min": [ 0, 0 ],
			"type": "VEC2"
		},
		{
			"bufferView": 4,
			"byteOffset": 150848,
			"componentType": 5126,
			"count": 121,
			"max": [ -1, 0, 0, 1 ],
			"min": [ -1, 0, 0, 1 ],
			"type": "VEC4"
		},
		{
			"bufferView": 0,
			"byteOffset": 90654,
			"componentType": 5123,
			"count": 600,
			"max": [ 120 ],
			"min": [ 0 ],
			"type": "SCALAR"
		},
		{
			"bufferView": 3,
			"byteOffset": 229176,
			"componentType": 5126,
			"count": 121,
			"max": [ 5, 1.110223E-16, 5 ],
			"min": [ -5, -1.110223E-16, -5 ],
			"type": "VEC3"
		},
		{
			"bufferView": 3,
			"byteOffset": 230628,
			"componentType": 5126,
			"count": 121,
			"max": [ 0, 1, 0 ],
			"min": [ 0, 1, 0 ],
			"type": "VEC3"
		},
		{
			"bufferView": 2,
			"byteOffset": 76392,
			"componentType": 5126,
			"count": 121,
			"max": [ 1, 1 ],
			"min": [ 0, 0 ],
			"type": "VEC2"
		},
		{
			"bufferView": 4,
			"byteOffset": 152784,
			"componentType": 5126,
			"count": 121,
			"max": [ -1, 0, 0, 1 ],
			"min": [ -1, 0, 0, 1 ],
			"type": "VEC4"
		},
		{
			"bufferView": 0,
			"byteOffset": 91854,
			"componentType": 5123,
			"count": 600,
			"max": [ 120 ],
			"min": [ 0 ],
			"type": "SCALAR"
		},
		{
			"bufferView": 3,
			"byteOffset": 232080,
			"componentType": 5126,
			"count": 121,
			"max": [ 5, 1.110223E-16, 5 ],
			"min": [ -5, -1.110223E-16, -5 ],
			"type": "VEC3"
		},
		{
			"bufferView": 3,
			"byteOffset": 233532,
			"componentType": 5126,
			"count": 121,
			"max": [ 0, 1, 0 ],
			"min": [ 0, 1, 0 ],
			"type": "VEC3"
		},
		{
			"bufferView": 2,
			"byteOffset": 77360,
			"componentType": 5126,
			"count": 121,
			"max": [ 1, 1 ],
			"min": [ 0, 0 ],
			"type": "VEC2"
		},
		{
			"bufferView": 4,
			"byteOffset": 154720,
			"componentType": 5126,
			"count": 121,
			"max": [ -1, 0, 0, 1 ],
			"min": [ -1, 0, 0, 1 ],
			"type": "VEC4"
		},
		{
			"bufferView": 0,
			"byteOffset": 93054,
			"componentType": 5123,
			"count": 600,
			"max": [ 120 ],
			"min": [ 0 ],
			"type": "SCALAR"
		}
	],
	"animations": [
		{
			"name": "",
			"channels": [
				{
					"sampler": 0,
					"target": {
						"node": 5,
						"path": "translation"
					}
				},
				{
					"sampler": 1,
					"target": {
						"node": 5,
						"path": "rotation"
					}
				},
				{
					"sampler": 2,
					"target": {
						"node": 5,
						"path": "scale"
					}
				},
				{
					"sampler": 3,
					"target": {
						"node": 4,
						"path": "translation"
					}
				},
				{
					"sampler": 4,
					"target": {
						"node": 4,
						"path": "rotation"
					}
				},
				{
					"sampler": 5,
					"target": {
						"node": 4,
						"path": "scale"
					}
				},
				{
					"sampler": 6,
					"target": {
						"node": 7,
						"path": "translation"
					}
				},
				{
					"sampler": 7,
					"target": {
						"node": 7,
						"path": "rotation"
					}
				},
				{
					"sampler": 8,
					"target": {
						"node": 7,
						"path": "scale"
					}
				}
			],
			"samplers": [
				{
					"input": 17,
					"interpolation": "LINEAR",
					"output": 18
				},
				{
					"input": 17,
					"interpolation": "LINEAR",
					"output": 19
				},
				{
					"input": 17,
					"interpolation": "LINEAR",
					"output": 20
				},
				{
					"input": 21,
					"interpolation": "LINEAR",
					"output": 22
				},
				{
					"input": 21,
					"interpolation": "LINEAR",
					"output": 23
				},
				{
					"input": 21,
					"interpolation": "LINEAR",
					"output": 24
				},
				{
					"input": 25,
					"interpolation": "LINEAR",
					"output": 26
				},
				{
					"input": 25,
					"interpolation": "LINEAR",
					"output": 27
				},
				{
					"input": 25,
					"interpolation": "LINEAR",
					"output": 28
				}
			]
		}
	],
	"buffers": [
		{
			"byteLength": 592734,
			"uri": "河谷变换.bin"
		}
	],
	"bufferViews": [
		{
			"buffer": 0,
			"byteLength": 94254,
			"target": 34963,
			"byteOffset": 472560
		},
		{
			"buffer": 0,
			"byteLength": 2592,
			"byteOffset": 0
		},
		{
			"buffer": 0,
			"byteLength": 78328,
			"target": 34962,
			"byteStride": 8,
			"byteOffset": 2592
		},
		{
			"buffer": 0,
			"byteLength": 234984,
			"target": 34962,
			"byteStride": 12,
			"byteOffset": 80920
		},
		{
			"buffer": 0,
			"byteLength": 156656,
			"target": 34962,
			"byteStride": 16,
			"byteOffset": 315904
		},
		{
			"buffer": 0,
			"byteLength": 15552,
			"byteStride": 12,
			"byteOffset": 566814
		},
		{
			"buffer": 0,
			"byteLength": 10368,
			"byteStride": 16,
			"byteOffset": 582366
		}
	],
	"images": [
		{
			"uri": "/Assets/Models/前方，需要勇气！/TexturesCom_Soil3_3x3_1K_albedo.jpg"
		},
		{
			"uri": "/Assets/Models/前方，需要勇气！/TexturesCom_Grass0120_1_seamless_S.jpg"
		}
	],
	"materials": [
		{
			"pbrMetallicRoughness": {
				"baseColorFactor": [0.1294118, 0.2, 0.3647059, 1],
				"metallicFactor": 0,
				"roughnessFactor": 0.5
			},
			"emissiveFactor": [0, 0, 0],
			"doubleSided": false,
			"name": ""
		},
		{
			"pbrMetallicRoughness": {
				"baseColorTexture" : {
					"index" : 0,
					"texCoord" : 0
				},
				"baseColorFactor": [0.5882353, 0.5882353, 0.5882353, 1],
				"metallicFactor": 0,
				"roughnessFactor": 1
			},
			"emissiveFactor": [0, 0, 0],
			"doubleSided": false,
			"name": "02 - Default"
		},
		{
			"pbrMetallicRoughness": {
				"baseColorTexture" : {
					"index" : 1,
					"texCoord" : 0
				},
				"baseColorFactor": [0.5882353, 0.5882353, 0.5882353, 1],
				"metallicFactor": 0,
				"roughnessFactor": 1
			},
			"emissiveFactor": [0, 0, 0],
			"doubleSided": false,
			"name": "01 - Default"
		}
	],
	"meshes": [
		{
			"name": "mesh_Plane_580Plane (1)",
			"primitives": [
				{
					"attributes": {
						"POSITION": 0,
						"NORMAL": 1,
						"TEXCOORD_0": 2,
						"TANGENT": 3
					},
					"indices": 4,
					"material": 0,
					"mode": 4
				}
			]
		},
		{
			"name": "mesh_Box002_2780",
			"primitives": [
				{
					"attributes": {
						"POSITION": 5,
						"NORMAL": 6,
						"TEXCOORD_0": 7,
						"TANGENT": 8
					},
					"indices": 9,
					"material": 1,
					"mode": 4
				},
				{
					"attributes": {
						"POSITION": 5,
						"NORMAL": 6,
						"TEXCOORD_0": 7,
						"TANGENT": 8
					},
					"indices": 10,
					"material": 2,
					"mode": 4
				}
			]
		},
		{
			"name": "mesh_Box001_2778V",
			"primitives": [
				{
					"attributes": {
						"POSITION": 11,
						"NORMAL": 12,
						"TEXCOORD_0": 13,
						"TANGENT": 14
					},
					"indices": 15,
					"material": 1,
					"mode": 4
				},
				{
					"attributes": {
						"POSITION": 11,
						"NORMAL": 12,
						"TEXCOORD_0": 13,
						"TANGENT": 14
					},
					"indices": 16,
					"material": 2,
					"mode": 4
				}
			]
		},
		{
			"name": "mesh_Box003_2782",
			"primitives": [
				{
					"attributes": {
						"POSITION": 29,
						"NORMAL": 30,
						"TEXCOORD_0": 31,
						"TANGENT": 32
					},
					"indices": 33,
					"material": 1,
					"mode": 4
				},
				{
					"attributes": {
						"POSITION": 29,
						"NORMAL": 30,
						"TEXCOORD_0": 31,
						"TANGENT": 32
					},
					"indices": 34,
					"material": 2,
					"mode": 4
				}
			]
		},
		{
			"name": "mesh_Plane_580Plane",
			"primitives": [
				{
					"attributes": {
						"POSITION": 35,
						"NORMAL": 36,
						"TEXCOORD_0": 37,
						"TANGENT": 38
					},
					"indices": 39,
					"material": 0,
					"mode": 4
				}
			]
		},
		{
			"name": "mesh_Plane_580Plane",
			"primitives": [
				{
					"attributes": {
						"POSITION": 40,
						"NORMAL": 41,
						"TEXCOORD_0": 42,
						"TANGENT": 43
					},
					"indices": 44,
					"material": 0,
					"mode": 4
				}
			]
		},
		{
			"name": "mesh_Plane_580Plane",
			"primitives": [
				{
					"attributes": {
						"POSITION": 45,
						"NORMAL": 46,
						"TEXCOORD_0": 47,
						"TANGENT": 48
					},
					"indices": 49,
					"material": 0,
					"mode": 4
				}
			]
		},
		{
			"name": "mesh_Plane_580Plane",
			"primitives": [
				{
					"attributes": {
						"POSITION": 50,
						"NORMAL": 51,
						"TEXCOORD_0": 52,
						"TANGENT": 53
					},
					"indices": 54,
					"material": 0,
					"mode": 4
				}
			]
		},
		{
			"name": "mesh_Plane_580Plane",
			"primitives": [
				{
					"attributes": {
						"POSITION": 55,
						"NORMAL": 56,
						"TEXCOORD_0": 57,
						"TANGENT": 58
					},
					"indices": 59,
					"material": 0,
					"mode": 4
				}
			]
		},
		{
			"name": "mesh_Plane_580Plane (1)",
			"primitives": [
				{
					"attributes": {
						"POSITION": 60,
						"NORMAL": 61,
						"TEXCOORD_0": 62,
						"TANGENT": 63
					},
					"indices": 64,
					"material": 0,
					"mode": 4
				}
			]
		},
		{
			"name": "mesh_Plane_580Plane (1)",
			"primitives": [
				{
					"attributes": {
						"POSITION": 65,
						"NORMAL": 66,
						"TEXCOORD_0": 67,
						"TANGENT": 68
					},
					"indices": 69,
					"material": 0,
					"mode": 4
				}
			]
		},
		{
			"name": "mesh_Plane_580Plane",
			"primitives": [
				{
					"attributes": {
						"POSITION": 70,
						"NORMAL": 71,
						"TEXCOORD_0": 72,
						"TANGENT": 73
					},
					"indices": 74,
					"material": 0,
					"mode": 4
				}
			]
		}
	],
	"nodes": [
		{
			"name": "UnityGlTF_root",
			"children": [
				6
			]
		},
		{
			"name": "node__-1112",
			"children": [
				16,
				10,
				2
			],
			"translation": [ 0, 0, -0.5],
			"rotation": [0.7071068, 0, 0, -0.7071068]
		},
		{
			"name": "node_Plane (1)_-1132",
			"mesh": 0,
			"translation": [ -0.19, -0.09, -1.264],
			"scale": [ 0.0550059, 1, 0.11191],
			"rotation": [0.5, 0.5, -0.5, -0.5]
		},
		{
			"name": "node__-1104",
			"children": [
				11,
				12,
				13
			],
			"rotation": [0.7071068, 0, 0, -0.7071068]
		},
		{
			"name": "node__-1098",
			"mesh": 1,
			"children": [
				15
			],
			"rotation": [-0.7071068, 0, 0, -0.7071068]
		},
		{
			"name": "node_V_-1096",
			"mesh": 2,
			"children": [
				3
			],
			"rotation": [-0.7071068, 0, 0, -0.7071068]
		},
		{
			"name": "node__-1092",
			"children": [
				5,
				4,
				7
			],
			"matrix": [1, 0, 0, 0, 0, 1, 0, 0, 0, 0, 1, 0, 0, 0, 0, 1]
		},
		{
			"name": "node__-1100",
			"mesh": 3,
			"children": [
				1
			],
			"translation": [ 0, -0.99, 0],
			"rotation": [-0.7071068, 0, 0, -0.7071068]
		},
		{
			"name": "node_Plane_-1136",
			"mesh": 4,
			"translation": [ -0.19, -0.192, 1.26],
			"scale": [ 0.07239541, 1, 0.1119095],
			"rotation": [-0.5, -0.5, -0.5, -0.5]
		},
		{
			"name": "node_Plane_-1138",
			"mesh": 5,
			"translation": [ 0, 0.17, 0],
			"scale": [ 0.14132, 1, 0.2530573]
		},
		{
			"name": "node_Plane_-1130",
			"mesh": 6,
			"translation": [ 0, 0.17, 0],
			"scale": [ 0.14132, 1, 0.2530573]
		},
		{
			"name": "node_Plane_-1144",
			"mesh": 7,
			"translation": [ -0.19, -0.192, 1.26],
			"scale": [ 0.07239541, 1, 0.1119095],
			"rotation": [-0.5, -0.5, -0.5, -0.5]
		},
		{
			"name": "node_Plane_-1146",
			"mesh": 8,
			"translation": [ 0, 0.17, 0],
			"scale": [ 0.14132, 1, 0.2530573]
		},
		{
			"name": "node_Plane (1)_-1148",
			"mesh": 9,
			"translation": [ -0.19, -0.192, -1.264],
			"scale": [ 0.0724, 1, 0.11191],
			"rotation": [0.5, 0.5, -0.5, -0.5]
		},
		{
			"name": "node_Plane (1)_-1140",
			"mesh": 10,
			"translation": [ -0.19, -0.192, -1.264],
			"scale": [ 0.0724, 1, 0.11191],
			"rotation": [0.5, 0.5, -0.5, -0.5]
		},
		{
			"name": "node__-1108",
			"children": [
				8,
				9,
				14
			],
			"translation": [ 0, 0, 0.198],
			"rotation": [0.7071068, 0, 0, -0.7071068]
		},
		{
			"name": "node_Plane_-1128",
			"mesh": 11,
			"translation": [ -0.19, -0.09, 1.26],
			"scale": [ 0.05500242, 1, 0.1119095],
			"rotation": [-0.5, -0.5, -0.5, -0.5]
		}
	],
	"samplers": [
		{
			"magFilter": 9729,
			"minFilter": 9985,
			"wrapS": 10497,
			"wrapT": 10497
		}
	],
	"scenes": [
		{
			"name":"defaultScene",
			"nodes": [
				0
			]
		}
	],
	"scene": 0,
	"textures": [
		{
			"sampler": 0,
			"source": 0
		},
		{
			"sampler": 0,
			"source": 1
		}
	]
}