{
	"asset": {
		"generator": "Unity 2018.3.11f1",
		"extras": {
			"exporterVersion" : "2.2.1"
		},
		"version": "2.0"
	},
	"accessors": [
		{
			"bufferView": 3,
			"byteOffset": 0,
			"componentType": 5126,
			"count": 515,
			"max": [ 0.5, 0.5, 0.5 ],
			"min": [ -0.5, -0.5, -0.5 ],
			"type": "VEC3"
		},
		{
			"bufferView": 3,
			"byteOffset": 6180,
			"componentType": 5126,
			"count": 515,
			"max": [ 0.999975, 1, 0.9999735 ],
			"min": [ -0.999975, -1, -0.999977 ],
			"type": "VEC3"
		},
		{
			"bufferView": 2,
			"byteOffset": 0,
			"componentType": 5126,
			"count": 515,
			"max": [ 0.9983337, 0.9758912 ],
			"min": [ -0.0009213686, 0.01762898 ],
			"type": "VEC2"
		},
		{
			"bufferView": 2,
			"byteOffset": 4120,
			"componentType": 5126,
			"count": 515,
			"max": [ 1, 0.6538535 ],
			"min": [ 0, 0 ],
			"type": "VEC2"
		},
		{
			"bufferView": 4,
			"byteOffset": 0,
			"componentType": 5126,
			"count": 515,
			"max": [ 1, 0.056131, 1, 1 ],
			"min": [ -1, -0.06598339, -1, -1 ],
			"type": "VEC4"
		},
		{
			"bufferView": 0,
			"byteOffset": 0,
			"componentType": 5123,
			"count": 2304,
			"max": [ 514 ],
			"min": [ 0 ],
			"type": "SCALAR"
		},
		{
			"bufferView": 1,
			"byteOffset": 0,
			"componentType": 5126,
			"count": 30,
			"max": [ 0.9666667 ],
			"min": [ 0 ],
			"type": "SCALAR"
		},
		{
			"bufferView": 5,
			"byteOffset": 0,
			"componentType": 5126,
			"count": 30,
			"max": [ -7.15, -0.18, -12.36 ],
			"min": [ -7.15, -0.4790222, -12.36 ],
			"type": "VEC3"
		},
		{
			"bufferView": 6,
			"byteOffset": 0,
			"componentType": 5126,
			"count": 30,
			"max": [ 0, 0, 0, -1 ],
			"min": [ 0, 0, 0, -1 ],
			"type": "VEC4"
		},
		{
			"bufferView": 5,
			"byteOffset": 360,
			"componentType": 5126,
			"count": 30,
			"max": [ 1.5, 1.5, 1.5 ],
			"min": [ 1.5, 1.5, 1.5 ],
			"type": "VEC3"
		},
		{
			"bufferView": 3,
			"byteOffset": 12360,
			"componentType": 5126,
			"count": 515,
			"max": [ 0.5, 0.5, 0.5 ],
			"min": [ -0.5, -0.5, -0.5 ],
			"type": "VEC3"
		},
		{
			"bufferView": 3,
			"byteOffset": 18540,
			"componentType": 5126,
			"count": 515,
			"max": [ 0.999975, 1, 0.9999735 ],
			"min": [ -0.999975, -1, -0.999977 ],
			"type": "VEC3"
		},
		{
			"bufferView": 2,
			"byteOffset": 8240,
			"componentType": 5126,
			"count": 515,
			"max": [ 0.9983337, 0.9758912 ],
			"min": [ -0.0009213686, 0.01762898 ],
			"type": "VEC2"
		},
		{
			"bufferView": 2,
			"byteOffset": 12360,
			"componentType": 5126,
			"count": 515,
			"max": [ 1, 0.6538535 ],
			"min": [ 0, 0 ],
			"type": "VEC2"
		},
		{
			"bufferView": 4,
			"byteOffset": 8240,
			"componentType": 5126,
			"count": 515,
			"max": [ 1, 0.056131, 1, 1 ],
			"min": [ -1, -0.06598339, -1, -1 ],
			"type": "VEC4"
		},
		{
			"bufferView": 0,
			"byteOffset": 4608,
			"componentType": 5123,
			"count": 2304,
			"max": [ 514 ],
			"min": [ 0 ],
			"type": "SCALAR"
		},
		{
			"bufferView": 1,
			"byteOffset": 120,
			"componentType": 5126,
			"count": 30,
			"max": [ 0.9666667 ],
			"min": [ 0 ],
			"type": "SCALAR"
		},
		{
			"bufferView": 5,
			"byteOffset": 720,
			"componentType": 5126,
			"count": 30,
			"max": [ -3.24, -1.15, -12.36 ],
			"min": [ -3.24, -1.449022, -12.36 ],
			"type": "VEC3"
		},
		{
			"bufferView": 6,
			"byteOffset": 480,
			"componentType": 5126,
			"count": 30,
			"max": [ 0, 0, 0, -1 ],
			"min": [ 0, 0, 0, -1 ],
			"type": "VEC4"
		},
		{
			"bufferView": 5,
			"byteOffset": 1080,
			"componentType": 5126,
			"count": 30,
			"max": [ 1.5, 1.5, 1.5 ],
			"min": [ 1.5, 1.5, 1.5 ],
			"type": "VEC3"
		},
		{
			"bufferView": 3,
			"byteOffset": 24720,
			"componentType": 5126,
			"count": 515,
			"max": [ 0.5, 0.5, 0.5 ],
			"min": [ -0.5, -0.5, -0.5 ],
			"type": "VEC3"
		},
		{
			"bufferView": 3,
			"byteOffset": 30900,
			"componentType": 5126,
			"count": 515,
			"max": [ 0.999975, 1, 0.9999735 ],
			"min": [ -0.999975, -1, -0.999977 ],
			"type": "VEC3"
		},
		{
			"bufferView": 2,
			"byteOffset": 16480,
			"componentType": 5126,
			"count": 515,
			"max": [ 0.9983337, 0.9758912 ],
			"min": [ -0.0009213686, 0.01762898 ],
			"type": "VEC2"
		},
		{
			"bufferView": 2,
			"byteOffset": 20600,
			"componentType": 5126,
			"count": 515,
			"max": [ 1, 0.6538535 ],
			"min": [ 0, 0 ],
			"type": "VEC2"
		},
		{
			"bufferView": 4,
			"byteOffset": 16480,
			"componentType": 5126,
			"count": 515,
			"max": [ 1, 0.056131, 1, 1 ],
			"min": [ -1, -0.06598339, -1, -1 ],
			"type": "VEC4"
		},
		{
			"bufferView": 0,
			"byteOffset": 9216,
			"componentType": 5123,
			"count": 2304,
			"max": [ 514 ],
			"min": [ 0 ],
			"type": "SCALAR"
		},
		{
			"bufferView": 1,
			"byteOffset": 240,
			"componentType": 5126,
			"count": 30,
			"max": [ 0.9666667 ],
			"min": [ 0 ],
			"type": "SCALAR"
		},
		{
			"bufferView": 5,
			"byteOffset": 1440,
			"componentType": 5126,
			"count": 30,
			"max": [ -7.13, 3.89, -12.36 ],
			"min": [ -7.13, 3.590978, -12.36 ],
			"type": "VEC3"
		},
		{
			"bufferView": 6,
			"byteOffset": 960,
			"componentType": 5126,
			"count": 30,
			"max": [ 0, 0, 0, -1 ],
			"min": [ 0, 0, 0, -1 ],
			"type": "VEC4"
		},
		{
			"bufferView": 5,
			"byteOffset": 1800,
			"componentType": 5126,
			"count": 30,
			"max": [ 1.5, 1.5, 1.5 ],
			"min": [ 1.5, 1.5, 1.5 ],
			"type": "VEC3"
		},
		{
			"bufferView": 3,
			"byteOffset": 37080,
			"componentType": 5126,
			"count": 515,
			"max": [ 0.5, 0.5, 0.5 ],
			"min": [ -0.5, -0.5, -0.5 ],
			"type": "VEC3"
		},
		{
			"bufferView": 3,
			"byteOffset": 43260,
			"componentType": 5126,
			"count": 515,
			"max": [ 0.999975, 1, 0.9999735 ],
			"min": [ -0.999975, -1, -0.999977 ],
			"type": "VEC3"
		},
		{
			"bufferView": 2,
			"byteOffset": 24720,
			"componentType": 5126,
			"count": 515,
			"max": [ 0.9983337, 0.9758912 ],
			"min": [ -0.0009213686, 0.01762898 ],
			"type": "VEC2"
		},
		{
			"bufferView": 2,
			"byteOffset": 28840,
			"componentType": 5126,
			"count": 515,
			"max": [ 1, 0.6538535 ],
			"min": [ 0, 0 ],
			"type": "VEC2"
		},
		{
			"bufferView": 4,
			"byteOffset": 24720,
			"componentType": 5126,
			"count": 515,
			"max": [ 1, 0.056131, 1, 1 ],
			"min": [ -1, -0.06598339, -1, -1 ],
			"type": "VEC4"
		},
		{
			"bufferView": 0,
			"byteOffset": 13824,
			"componentType": 5123,
			"count": 2304,
			"max": [ 514 ],
			"min": [ 0 ],
			"type": "SCALAR"
		},
		{
			"bufferView": 1,
			"byteOffset": 360,
			"componentType": 5126,
			"count": 30,
			"max": [ 0.9666667 ],
			"min": [ 0 ],
			"type": "SCALAR"
		},
		{
			"bufferView": 5,
			"byteOffset": 2160,
			"componentType": 5126,
			"count": 30,
			"max": [ 0.89, -0.07, -12.36 ],
			"min": [ 0.89, -0.3690222, -12.36 ],
			"type": "VEC3"
		},
		{
			"bufferView": 6,
			"byteOffset": 1440,
			"componentType": 5126,
			"count": 30,
			"max": [ 0, 0, -0.01308958, -0.9999143 ],
			"min": [ 0, 0, -0.01308958, -0.9999143 ],
			"type": "VEC4"
		},
		{
			"bufferView": 5,
			"byteOffset": 2520,
			"componentType": 5126,
			"count": 30,
			"max": [ 1.5, 1.5, 1.5 ],
			"min": [ 1.5, 1.5, 1.5 ],
			"type": "VEC3"
		},
		{
			"bufferView": 3,
			"byteOffset": 49440,
			"componentType": 5126,
			"count": 24,
			"max": [ 0.5, 0.5, 0.5 ],
			"min": [ -0.5, -0.5, -0.5 ],
			"type": "VEC3"
		},
		{
			"bufferView": 3,
			"byteOffset": 49728,
			"componentType": 5126,
			"count": 24,
			"max": [ 1, 1, 1 ],
			"min": [ -1, -1, -1 ],
			"type": "VEC3"
		},
		{
			"bufferView": 2,
			"byteOffset": 32960,
			"componentType": 5126,
			"count": 24,
			"max": [ 1, 1 ],
			"min": [ 0, 0 ],
			"type": "VEC2"
		},
		{
			"bufferView": 2,
			"byteOffset": 33152,
			"componentType": 5126,
			"count": 24,
			"max": [ 0.9966581, 0.6528358 ],
			"min": [ 0.004055766, 0.004055766 ],
			"type": "VEC2"
		},
		{
			"bufferView": 4,
			"byteOffset": 32960,
			"componentType": 5126,
			"count": 24,
			"max": [ 0, 0, 1, 1 ],
			"min": [ -1, 0, -1, 1 ],
			"type": "VEC4"
		},
		{
			"bufferView": 0,
			"byteOffset": 18432,
			"componentType": 5123,
			"count": 36,
			"max": [ 23 ],
			"min": [ 0 ],
			"type": "SCALAR"
		},
		{
			"bufferView": 3,
			"byteOffset": 50016,
			"componentType": 5126,
			"count": 515,
			"max": [ 0.5, 0.5, 0.5 ],
			"min": [ -0.5, -0.5, -0.5 ],
			"type": "VEC3"
		},
		{
			"bufferView": 3,
			"byteOffset": 56196,
			"componentType": 5126,
			"count": 515,
			"max": [ 0.999975, 1, 0.9999735 ],
			"min": [ -0.999975, -1, -0.999977 ],
			"type": "VEC3"
		},
		{
			"bufferView": 2,
			"byteOffset": 33344,
			"componentType": 5126,
			"count": 515,
			"max": [ 0.9983337, 0.9758912 ],
			"min": [ -0.0009213686, 0.01762898 ],
			"type": "VEC2"
		},
		{
			"bufferView": 2,
			"byteOffset": 37464,
			"componentType": 5126,
			"count": 515,
			"max": [ 1, 0.6538535 ],
			"min": [ 0, 0 ],
			"type": "VEC2"
		},
		{
			"bufferView": 4,
			"byteOffset": 33344,
			"componentType": 5126,
			"count": 515,
			"max": [ 1, 0.056131, 1, 1 ],
			"min": [ -1, -0.06598339, -1, -1 ],
			"type": "VEC4"
		},
		{
			"bufferView": 0,
			"byteOffset": 18504,
			"componentType": 5123,
			"count": 2304,
			"max": [ 514 ],
			"min": [ 0 ],
			"type": "SCALAR"
		},
		{
			"bufferView": 1,
			"byteOffset": 480,
			"componentType": 5126,
			"count": 30,
			"max": [ 0.9666667 ],
			"min": [ 0 ],
			"type": "SCALAR"
		},
		{
			"bufferView": 5,
			"byteOffset": 2880,
			"componentType": 5126,
			"count": 30,
			"max": [ -3.24, 2.61, -12.35 ],
			"min": [ -3.24, 2.310978, -12.35 ],
			"type": "VEC3"
		},
		{
			"bufferView": 6,
			"byteOffset": 1920,
			"componentType": 5126,
			"count": 30,
			"max": [ 0, 0, 0, -1 ],
			"min": [ 0, 0, 0, -1 ],
			"type": "VEC4"
		},
		{
			"bufferView": 5,
			"byteOffset": 3240,
			"componentType": 5126,
			"count": 30,
			"max": [ 1.5, 1.5, 1.5 ],
			"min": [ 1.5, 1.5, 1.5 ],
			"type": "VEC3"
		},
		{
			"bufferView": 3,
			"byteOffset": 62376,
			"componentType": 5126,
			"count": 515,
			"max": [ 0.5, 0.5, 0.5 ],
			"min": [ -0.5, -0.5, -0.5 ],
			"type": "VEC3"
		},
		{
			"bufferView": 3,
			"byteOffset": 68556,
			"componentType": 5126,
			"count": 515,
			"max": [ 0.999975, 1, 0.9999735 ],
			"min": [ -0.999975, -1, -0.999977 ],
			"type": "VEC3"
		},
		{
			"bufferView": 2,
			"byteOffset": 41584,
			"componentType": 5126,
			"count": 515,
			"max": [ 0.9983337, 0.9758912 ],
			"min": [ -0.0009213686, 0.01762898 ],
			"type": "VEC2"
		},
		{
			"bufferView": 2,
			"byteOffset": 45704,
			"componentType": 5126,
			"count": 515,
			"max": [ 1, 0.6538535 ],
			"min": [ 0, 0 ],
			"type": "VEC2"
		},
		{
			"bufferView": 4,
			"byteOffset": 41584,
			"componentType": 5126,
			"count": 515,
			"max": [ 1, 0.056131, 1, 1 ],
			"min": [ -1, -0.06598339, -1, -1 ],
			"type": "VEC4"
		},
		{
			"bufferView": 0,
			"byteOffset": 23112,
			"componentType": 5123,
			"count": 2304,
			"max": [ 514 ],
			"min": [ 0 ],
			"type": "SCALAR"
		},
		{
			"bufferView": 1,
			"byteOffset": 600,
			"componentType": 5126,
			"count": 30,
			"max": [ 0.9666667 ],
			"min": [ 0 ],
			"type": "SCALAR"
		},
		{
			"bufferView": 5,
			"byteOffset": 3600,
			"componentType": 5126,
			"count": 30,
			"max": [ 1.1, 3.71, -12.36 ],
			"min": [ 1.1, 3.410978, -12.36 ],
			"type": "VEC3"
		},
		{
			"bufferView": 6,
			"byteOffset": 2400,
			"componentType": 5126,
			"count": 30,
			"max": [ 0, 0, 0, -1 ],
			"min": [ 0, 0, 0, -1 ],
			"type": "VEC4"
		},
		{
			"bufferView": 5,
			"byteOffset": 3960,
			"componentType": 5126,
			"count": 30,
			"max": [ 1.5, 1.5, 1.5 ],
			"min": [ 1.5, 1.5, 1.5 ],
			"type": "VEC3"
		}
	],
	"animations": [
		{
			"name": "Sphere (2)",
			"channels": [
				{
					"sampler": 0,
					"target": {
						"node": 2,
						"path": "translation"
					}
				},
				{
					"sampler": 1,
					"target": {
						"node": 2,
						"path": "rotation"
					}
				},
				{
					"sampler": 2,
					"target": {
						"node": 2,
						"path": "scale"
					}
				}
			],
			"samplers": [
				{
					"input": 6,
					"interpolation": "LINEAR",
					"output": 7
				},
				{
					"input": 6,
					"interpolation": "LINEAR",
					"output": 8
				},
				{
					"input": 6,
					"interpolation": "LINEAR",
					"output": 9
				}
			]
		},
		{
			"name": "Sphere (3)",
			"channels": [
				{
					"sampler": 0,
					"target": {
						"node": 3,
						"path": "translation"
					}
				},
				{
					"sampler": 1,
					"target": {
						"node": 3,
						"path": "rotation"
					}
				},
				{
					"sampler": 2,
					"target": {
						"node": 3,
						"path": "scale"
					}
				}
			],
			"samplers": [
				{
					"input": 16,
					"interpolation": "LINEAR",
					"output": 17
				},
				{
					"input": 16,
					"interpolation": "LINEAR",
					"output": 18
				},
				{
					"input": 16,
					"interpolation": "LINEAR",
					"output": 19
				}
			]
		},
		{
			"name": "Sphere (5)",
			"channels": [
				{
					"sampler": 0,
					"target": {
						"node": 4,
						"path": "translation"
					}
				},
				{
					"sampler": 1,
					"target": {
						"node": 4,
						"path": "rotation"
					}
				},
				{
					"sampler": 2,
					"target": {
						"node": 4,
						"path": "scale"
					}
				}
			],
			"samplers": [
				{
					"input": 26,
					"interpolation": "LINEAR",
					"output": 27
				},
				{
					"input": 26,
					"interpolation": "LINEAR",
					"output": 28
				},
				{
					"input": 26,
					"interpolation": "LINEAR",
					"output": 29
				}
			]
		},
		{
			"name": "Sphere (4)",
			"channels": [
				{
					"sampler": 0,
					"target": {
						"node": 5,
						"path": "translation"
					}
				},
				{
					"sampler": 1,
					"target": {
						"node": 5,
						"path": "rotation"
					}
				},
				{
					"sampler": 2,
					"target": {
						"node": 5,
						"path": "scale"
					}
				}
			],
			"samplers": [
				{
					"input": 36,
					"interpolation": "LINEAR",
					"output": 37
				},
				{
					"input": 36,
					"interpolation": "LINEAR",
					"output": 38
				},
				{
					"input": 36,
					"interpolation": "LINEAR",
					"output": 39
				}
			]
		},
		{
			"name": "Sphere",
			"channels": [
				{
					"sampler": 0,
					"target": {
						"node": 7,
						"path": "translation"
					}
				},
				{
					"sampler": 1,
					"target": {
						"node": 7,
						"path": "rotation"
					}
				},
				{
					"sampler": 2,
					"target": {
						"node": 7,
						"path": "scale"
					}
				}
			],
			"samplers": [
				{
					"input": 52,
					"interpolation": "LINEAR",
					"output": 53
				},
				{
					"input": 52,
					"interpolation": "LINEAR",
					"output": 54
				},
				{
					"input": 52,
					"interpolation": "LINEAR",
					"output": 55
				}
			]
		},
		{
			"name": "Sphere (1)",
			"channels": [
				{
					"sampler": 0,
					"target": {
						"node": 8,
						"path": "translation"
					}
				},
				{
					"sampler": 1,
					"target": {
						"node": 8,
						"path": "rotation"
					}
				},
				{
					"sampler": 2,
					"target": {
						"node": 8,
						"path": "scale"
					}
				}
			],
			"samplers": [
				{
					"input": 62,
					"interpolation": "LINEAR",
					"output": 63
				},
				{
					"input": 62,
					"interpolation": "LINEAR",
					"output": 64
				},
				{
					"input": 62,
					"interpolation": "LINEAR",
					"output": 65
				}
			]
		}
	],
	"buffers": [
		{
			"byteLength": 210024,
			"uri": "浮尘.bin"
		}
	],
	"bufferViews": [
		{
			"buffer": 0,
			"byteLength": 27720,
			"target": 34963,
			"byteOffset": 175104
		},
		{
			"buffer": 0,
			"byteLength": 720,
			"byteOffset": 0
		},
		{
			"buffer": 0,
			"byteLength": 49824,
			"target": 34962,
			"byteStride": 8,
			"byteOffset": 720
		},
		{
			"buffer": 0,
			"byteLength": 74736,
			"target": 34962,
			"byteStride": 12,
			"byteOffset": 50544
		},
		{
			"buffer": 0,
			"byteLength": 49824,
			"target": 34962,
			"byteStride": 16,
			"byteOffset": 125280
		},
		{
			"buffer": 0,
			"byteLength": 4320,
			"byteStride": 12,
			"byteOffset": 202824
		},
		{
			"buffer": 0,
			"byteLength": 2880,
			"byteStride": 16,
			"byteOffset": 207144
		}
	],
	"materials": [
		{
			"pbrMetallicRoughness": {
				"baseColorFactor": [0.9716981, 0.725779, 0.06875221, 1],
				"metallicFactor": 0,
				"roughnessFactor": 0.5
			},
			"emissiveFactor": [0, 0, 0],
			"doubleSided": false,
			"name": "New Material"
		}
	],
	"meshes": [
		{
			"name": "mesh_Sphere_90Sphere (2)",
			"primitives": [
				{
					"attributes": {
						"POSITION": 0,
						"NORMAL": 1,
						"TEXCOORD_0": 2,
						"TEXCOORD_1": 3,
						"TANGENT": 4
					},
					"indices": 5,
					"material": 0,
					"mode": 4
				}
			]
		},
		{
			"name": "mesh_Sphere_90Sphere (3)",
			"primitives": [
				{
					"attributes": {
						"POSITION": 10,
						"NORMAL": 11,
						"TEXCOORD_0": 12,
						"TEXCOORD_1": 13,
						"TANGENT": 14
					},
					"indices": 15,
					"material": 0,
					"mode": 4
				}
			]
		},
		{
			"name": "mesh_Sphere_90Sphere (5)",
			"primitives": [
				{
					"attributes": {
						"POSITION": 20,
						"NORMAL": 21,
						"TEXCOORD_0": 22,
						"TEXCOORD_1": 23,
						"TANGENT": 24
					},
					"indices": 25,
					"material": 0,
					"mode": 4
				}
			]
		},
		{
			"name": "mesh_Sphere_90Sphere (4)",
			"primitives": [
				{
					"attributes": {
						"POSITION": 30,
						"NORMAL": 31,
						"TEXCOORD_0": 32,
						"TEXCOORD_1": 33,
						"TANGENT": 34
					},
					"indices": 35,
					"material": 0,
					"mode": 4
				}
			]
		},
		{
			"name": "mesh_Cube_86Cube",
			"primitives": [
				{
					"attributes": {
						"POSITION": 40,
						"NORMAL": 41,
						"TEXCOORD_0": 42,
						"TEXCOORD_1": 43,
						"TANGENT": 44
					},
					"indices": 45,
					"material": 0,
					"mode": 4
				}
			]
		},
		{
			"name": "mesh_Sphere_90Sphere",
			"primitives": [
				{
					"attributes": {
						"POSITION": 46,
						"NORMAL": 47,
						"TEXCOORD_0": 48,
						"TEXCOORD_1": 49,
						"TANGENT": 50
					},
					"indices": 51,
					"material": 0,
					"mode": 4
				}
			]
		},
		{
			"name": "mesh_Sphere_90Sphere (1)",
			"primitives": [
				{
					"attributes": {
						"POSITION": 56,
						"NORMAL": 57,
						"TEXCOORD_0": 58,
						"TEXCOORD_1": 59,
						"TANGENT": 60
					},
					"indices": 61,
					"material": 0,
					"mode": 4
				}
			]
		}
	],
	"nodes": [
		{
			"name": "UnityGlTF_root",
			"children": [
				1
			]
		},
		{
			"name": "node_1_-91214",
			"children": [
				6,
				7,
				8,
				2,
				3,
				5,
				4
			],
			"matrix": [1, 0, 0, 0, 0, 1, 0, 0, 0, 0, 1, 0, 10.51685, -5.661743, -1.417969, 1]
		},
		{
			"name": "node_Sphere (2)_-88222",
			"mesh": 0,
			"translation": [ -6.745953, -0.1249204, -12.3603],
			"scale": [ 1.5, 1.5, 1.5]
		},
		{
			"name": "node_Sphere (3)_-88224",
			"mesh": 1,
			"translation": [ -2.835953, -1.09492, -12.3603],
			"scale": [ 1.5, 1.5, 1.5]
		},
		{
			"name": "node_Sphere (5)_-88228",
			"mesh": 2,
			"translation": [ -6.725953, 3.94508, -12.3603],
			"scale": [ 1.5, 1.5, 1.5]
		},
		{
			"name": "node_Sphere (4)_-88226",
			"mesh": 3,
			"translation": [ 1.294046, -0.01492023, -12.3603],
			"scale": [ 1.5, 1.5, 1.5],
			"rotation": [0, 0, -0.01308958, -0.9999143]
		},
		{
			"name": "node_Cube_-88216",
			"mesh": 4,
			"translation": [ -2.985953, -3.34492, -12.30712],
			"scale": [ 10, 1, 10]
		},
		{
			"name": "node_Sphere_-88218",
			"mesh": 5,
			"translation": [ -2.635953, 2.585079, -12.33441],
			"scale": [ 1.5, 1.5, 1.5]
		},
		{
			"name": "node_Sphere (1)_-88220",
			"mesh": 6,
			"translation": [ 1.504046, 3.765079, -12.3603],
			"scale": [ 1.5, 1.5, 1.5]
		}
	],
	"scenes": [
		{
			"name":"defaultScene",
			"nodes": [
				0
			]
		}
	],
	"scene": 0
}