{
	"asset": {
		"generator": "Unity 2018.3.11f1",
		"extras": {
			"exporterVersion" : "2.2.1"
		},
		"version": "2.0"
	},
	"accessors": [
		{
			"bufferView": 1,
			"byteOffset": 0,
			"componentType": 5126,
			"count": 30,
			"max": [ 0.9666667 ],
			"min": [ 0 ],
			"type": "SCALAR"
		},
		{
			"bufferView": 5,
			"byteOffset": 0,
			"componentType": 5126,
			"count": 30,
			"max": [ 0, 0, 0 ],
			"min": [ -0.08970667, -0.7774577, 0 ],
			"type": "VEC3"
		},
		{
			"bufferView": 6,
			"byteOffset": 0,
			"componentType": 5126,
			"count": 30,
			"max": [ 0, 0, 0, -1 ],
			"min": [ 0, 0, 0, -1 ],
			"type": "VEC4"
		},
		{
			"bufferView": 5,
			"byteOffset": 360,
			"componentType": 5126,
			"count": 30,
			"max": [ 1, 1, 1 ],
			"min": [ 1, 1, 1 ],
			"type": "VEC3"
		},
		{
			"bufferView": 1,
			"byteOffset": 120,
			"componentType": 5126,
			"count": 30,
			"max": [ 0.9666667 ],
			"min": [ 0 ],
			"type": "SCALAR"
		},
		{
			"bufferView": 5,
			"byteOffset": 720,
			"componentType": 5126,
			"count": 30,
			"max": [ 0, -1.18, 0 ],
			"min": [ 0, -1.768077, 0 ],
			"type": "VEC3"
		},
		{
			"bufferView": 6,
			"byteOffset": 480,
			"componentType": 5126,
			"count": 30,
			"max": [ 0, 0, 0, -1 ],
			"min": [ 0, 0, 0, -1 ],
			"type": "VEC4"
		},
		{
			"bufferView": 5,
			"byteOffset": 1080,
			"componentType": 5126,
			"count": 30,
			"max": [ 1, 1, 1 ],
			"min": [ 1, 1, 1 ],
			"type": "VEC3"
		},
		{
			"bufferView": 1,
			"byteOffset": 240,
			"componentType": 5126,
			"count": 30,
			"max": [ 0.9666667 ],
			"min": [ 0 ],
			"type": "SCALAR"
		},
		{
			"bufferView": 5,
			"byteOffset": 1440,
			"componentType": 5126,
			"count": 30,
			"max": [ 0, -3.28, 0 ],
			"min": [ 0, -3.848142, 0 ],
			"type": "VEC3"
		},
		{
			"bufferView": 6,
			"byteOffset": 960,
			"componentType": 5126,
			"count": 30,
			"max": [ 0, 0, 0, -1 ],
			"min": [ 0, 0, 0, -1 ],
			"type": "VEC4"
		},
		{
			"bufferView": 5,
			"byteOffset": 1800,
			"componentType": 5126,
			"count": 30,
			"max": [ 1, 1, 1 ],
			"min": [ 1, 1, 1 ],
			"type": "VEC3"
		},
		{
			"bufferView": 3,
			"byteOffset": 0,
			"componentType": 5126,
			"count": 710,
			"max": [ 0.2373721, 0.2373721, 0.7155267 ],
			"min": [ -0.2373721, -0.2373721, -0.3170822 ],
			"type": "VEC3"
		},
		{
			"bufferView": 3,
			"byteOffset": 8520,
			"componentType": 5126,
			"count": 710,
			"max": [ 0.9999719, 0.9999788, 1 ],
			"min": [ -0.9999859, -0.9999784, -1 ],
			"type": "VEC3"
		},
		{
			"bufferView": 2,
			"byteOffset": 0,
			"componentType": 5126,
			"count": 710,
			"max": [ 2, 1 ],
			"min": [ 0, -1.192093E-07 ],
			"type": "VEC2"
		},
		{
			"bufferView": 4,
			"byteOffset": 0,
			"componentType": 5126,
			"count": 710,
			"max": [ 1, 1, 0.8323646, 1 ],
			"min": [ -1, -1, -0.8642894, -1 ],
			"type": "VEC4"
		},
		{
			"bufferView": 0,
			"byteOffset": 0,
			"componentType": 5123,
			"count": 3417,
			"max": [ 709 ],
			"min": [ 0 ],
			"type": "SCALAR"
		},
		{
			"bufferView": 3,
			"byteOffset": 17040,
			"componentType": 5126,
			"count": 710,
			"max": [ 0.2373721, 0.2373721, 0.7155267 ],
			"min": [ -0.2373721, -0.2373721, -0.3170822 ],
			"type": "VEC3"
		},
		{
			"bufferView": 3,
			"byteOffset": 25560,
			"componentType": 5126,
			"count": 710,
			"max": [ 0.9999719, 0.9999788, 1 ],
			"min": [ -0.9999859, -0.9999784, -1 ],
			"type": "VEC3"
		},
		{
			"bufferView": 2,
			"byteOffset": 5680,
			"componentType": 5126,
			"count": 710,
			"max": [ 2, 1 ],
			"min": [ 0, -1.192093E-07 ],
			"type": "VEC2"
		},
		{
			"bufferView": 4,
			"byteOffset": 11360,
			"componentType": 5126,
			"count": 710,
			"max": [ 1, 1, 0.8323646, 1 ],
			"min": [ -1, -1, -0.8642894, -1 ],
			"type": "VEC4"
		},
		{
			"bufferView": 0,
			"byteOffset": 6834,
			"componentType": 5123,
			"count": 3417,
			"max": [ 709 ],
			"min": [ 0 ],
			"type": "SCALAR"
		},
		{
			"bufferView": 3,
			"byteOffset": 34080,
			"componentType": 5126,
			"count": 710,
			"max": [ 0.2373721, 0.2373721, 0.7155267 ],
			"min": [ -0.2373721, -0.2373721, -0.3170822 ],
			"type": "VEC3"
		},
		{
			"bufferView": 3,
			"byteOffset": 42600,
			"componentType": 5126,
			"count": 710,
			"max": [ 0.9999719, 0.9999788, 1 ],
			"min": [ -0.9999859, -0.9999784, -1 ],
			"type": "VEC3"
		},
		{
			"bufferView": 2,
			"byteOffset": 11360,
			"componentType": 5126,
			"count": 710,
			"max": [ 2, 1 ],
			"min": [ 0, -1.192093E-07 ],
			"type": "VEC2"
		},
		{
			"bufferView": 4,
			"byteOffset": 22720,
			"componentType": 5126,
			"count": 710,
			"max": [ 1, 1, 0.8323646, 1 ],
			"min": [ -1, -1, -0.8642894, -1 ],
			"type": "VEC4"
		},
		{
			"bufferView": 0,
			"byteOffset": 13668,
			"componentType": 5123,
			"count": 3417,
			"max": [ 709 ],
			"min": [ 0 ],
			"type": "SCALAR"
		},
		{
			"bufferView": 3,
			"byteOffset": 51120,
			"componentType": 5126,
			"count": 2329,
			"max": [ 0.3488144, 0.3488377, 0.2335324 ],
			"min": [ -0.3488244, -0.8599577, -1.672723 ],
			"type": "VEC3"
		},
		{
			"bufferView": 3,
			"byteOffset": 79068,
			"componentType": 5126,
			"count": 2329,
			"max": [ 1, 1, 1 ],
			"min": [ -1, -1, -1 ],
			"type": "VEC3"
		},
		{
			"bufferView": 4,
			"byteOffset": 34080,
			"componentType": 5126,
			"count": 2329,
			"max": [ 0, 0, 0, 0 ],
			"min": [ 0, 0, 0, 0 ],
			"type": "VEC4"
		},
		{
			"bufferView": 2,
			"byteOffset": 17040,
			"componentType": 5126,
			"count": 2329,
			"max": [ 1, 1 ],
			"min": [ -4.287548E-18, -1.192093E-07 ],
			"type": "VEC2"
		},
		{
			"bufferView": 4,
			"byteOffset": 71344,
			"componentType": 5126,
			"count": 2329,
			"max": [ 1, 1, 1, 1 ],
			"min": [ -1, -1, -1, -1 ],
			"type": "VEC4"
		},
		{
			"bufferView": 0,
			"byteOffset": 20502,
			"componentType": 5123,
			"count": 8712,
			"max": [ 2328 ],
			"min": [ 0 ],
			"type": "SCALAR"
		}
	],
	"animations": [
		{
			"name": "",
			"channels": [
				{
					"sampler": 0,
					"target": {
						"node": 5,
						"path": "translation"
					}
				},
				{
					"sampler": 1,
					"target": {
						"node": 5,
						"path": "rotation"
					}
				},
				{
					"sampler": 2,
					"target": {
						"node": 5,
						"path": "scale"
					}
				},
				{
					"sampler": 3,
					"target": {
						"node": 3,
						"path": "translation"
					}
				},
				{
					"sampler": 4,
					"target": {
						"node": 3,
						"path": "rotation"
					}
				},
				{
					"sampler": 5,
					"target": {
						"node": 3,
						"path": "scale"
					}
				},
				{
					"sampler": 6,
					"target": {
						"node": 7,
						"path": "translation"
					}
				},
				{
					"sampler": 7,
					"target": {
						"node": 7,
						"path": "rotation"
					}
				},
				{
					"sampler": 8,
					"target": {
						"node": 7,
						"path": "scale"
					}
				}
			],
			"samplers": [
				{
					"input": 0,
					"interpolation": "LINEAR",
					"output": 1
				},
				{
					"input": 0,
					"interpolation": "LINEAR",
					"output": 2
				},
				{
					"input": 0,
					"interpolation": "LINEAR",
					"output": 3
				},
				{
					"input": 4,
					"interpolation": "LINEAR",
					"output": 5
				},
				{
					"input": 4,
					"interpolation": "LINEAR",
					"output": 6
				},
				{
					"input": 4,
					"interpolation": "LINEAR",
					"output": 7
				},
				{
					"input": 8,
					"interpolation": "LINEAR",
					"output": 9
				},
				{
					"input": 8,
					"interpolation": "LINEAR",
					"output": 10
				},
				{
					"input": 8,
					"interpolation": "LINEAR",
					"output": 11
				}
			]
		}
	],
	"buffers": [
		{
			"byteLength": 293182,
			"uri": "小雨.bin"
		}
	],
	"bufferViews": [
		{
			"buffer": 0,
			"byteLength": 37926,
			"target": 34963,
			"byteOffset": 251656
		},
		{
			"buffer": 0,
			"byteLength": 360,
			"byteOffset": 0
		},
		{
			"buffer": 0,
			"byteLength": 35672,
			"target": 34962,
			"byteStride": 8,
			"byteOffset": 360
		},
		{
			"buffer": 0,
			"byteLength": 107016,
			"target": 34962,
			"byteStride": 12,
			"byteOffset": 36032
		},
		{
			"buffer": 0,
			"byteLength": 108608,
			"target": 34962,
			"byteStride": 16,
			"byteOffset": 143048
		},
		{
			"buffer": 0,
			"byteLength": 2160,
			"byteStride": 12,
			"byteOffset": 289582
		},
		{
			"buffer": 0,
			"byteLength": 1440,
			"byteStride": 16,
			"byteOffset": 291742
		}
	],
	"extensionsRequired": [
		"KHR_materials_pbrSpecularGlossiness"
	],
	"extensionsUsed": [
		"KHR_materials_pbrSpecularGlossiness"
	],
	"materials": [
		{
			"pbrMetallicRoughness": {
				"baseColorFactor": [0.03301889, 0.6888822, 1, 1],
				"metallicFactor": 0,
				"roughnessFactor": 0.5
			},
			"emissiveFactor": [0, 0, 0],
			"doubleSided": false,
			"name": ""
		},
		{
			"extensions": {
				"KHR_materials_pbrSpecularGlossiness": {
					"diffuseFactor": [1, 1, 1, 1],
					"specularFactor": [1, 1, 1],
					"glossinessFactor": 0.25				}

			},
			"alphaMode": "MASK",
			"alphaCutoff": 0.5,
			"emissiveFactor": [0, 0, 0],
			"doubleSided": false,
			"name": "-"
		}
	],
	"meshes": [
		{
			"name": "mesh_Cone001_21306 (1)",
			"primitives": [
				{
					"attributes": {
						"POSITION": 12,
						"NORMAL": 13,
						"TEXCOORD_0": 14,
						"TANGENT": 15
					},
					"indices": 16,
					"material": 0,
					"mode": 4
				}
			]
		},
		{
			"name": "mesh_Cone001_21306 (1)",
			"primitives": [
				{
					"attributes": {
						"POSITION": 17,
						"NORMAL": 18,
						"TEXCOORD_0": 19,
						"TANGENT": 20
					},
					"indices": 21,
					"material": 0,
					"mode": 4
				}
			]
		},
		{
			"name": "mesh_Cone001_21306 (1)",
			"primitives": [
				{
					"attributes": {
						"POSITION": 22,
						"NORMAL": 23,
						"TEXCOORD_0": 24,
						"TANGENT": 25
					},
					"indices": 26,
					"material": 0,
					"mode": 4
				}
			]
		},
		{
			"name": "mesh_Capsule001_2968",
			"primitives": [
				{
					"attributes": {
						"POSITION": 27,
						"NORMAL": 28,
						"COLOR_0": 29,
						"TEXCOORD_0": 30,
						"TANGENT": 31
					},
					"indices": 32,
					"material": 1,
					"mode": 4
				}
			]
		}
	],
	"nodes": [
		{
			"name": "UnityGlTF_root",
			"children": [
				1
			]
		},
		{
			"name": "node__-83766",
			"children": [
				2
			],
			"matrix": [1, 0, 0, 0, 0, 1, 0, 0, 0, 0, 1, 0, 0.16, -0.14, 0, 1]
		},
		{
			"name": "node__-83770",
			"children": [
				9,
				5,
				3,
				7
			],
			"translation": [ 0.09999999, 0.14, 0]
		},
		{
			"name": "node__-83796",
			"children": [
				4
			]
		},
		{
			"name": "node_ (1)_-83800",
			"mesh": 0,
			"translation": [ -0.168977, 0.02896655, 0.05381823],
			"scale": [ 0.3964537, 0.3964544, 0.3964544],
			"rotation": [-0.7071068, 0, 0, -0.7071068]
		},
		{
			"name": "node__-83784",
			"children": [
				6
			]
		},
		{
			"name": "node_ (1)_-83788",
			"mesh": 1,
			"translation": [ -0.05897701, -0.38, 0.054],
			"scale": [ 0.39645, 0.3964505, 0.3964505],
			"rotation": [-0.7071068, 0, 0, -0.7071068]
		},
		{
			"name": "node__-83808",
			"children": [
				8
			],
			"translation": [ 0, -1.52, 0]
		},
		{
			"name": "node_ (1)_-83812",
			"mesh": 2,
			"translation": [ -0.168977, 1.548967, 0.05381823],
			"scale": [ 0.39645, 0.3964505, 0.3964505],
			"rotation": [-0.7071068, 0, 0, -0.7071068]
		},
		{
			"name": "node__-83776",
			"mesh": 3,
			"translation": [ 0.85, -0.4410335, 0.05381823],
			"scale": [ 1, 1.097207, 1.451034],
			"rotation": [-0.7071068, 0, -0.7071068, 0]
		}
	],
	"scenes": [
		{
			"name":"defaultScene",
			"nodes": [
				0
			]
		}
	],
	"scene": 0
}