{
	"asset": {
		"generator": "Unity 2018.3.11f1",
		"extras": {
			"exporterVersion" : "2.2.1"
		},
		"version": "2.0"
	},
	"accessors": [
		{
			"bufferView": 3,
			"byteOffset": 0,
			"componentType": 5126,
			"count": 35574,
			"max": [ 2.500002, 2.500193, 0.3194408 ],
			"min": [ -2.500386, -2.500127, -2.697787 ],
			"type": "VEC3"
		},
		{
			"bufferView": 3,
			"byteOffset": 426888,
			"componentType": 5126,
			"count": 35574,
			"max": [ 1, 1, 1 ],
			"min": [ -1, -1, -1 ],
			"type": "VEC3"
		},
		{
			"bufferView": 2,
			"byteOffset": 0,
			"componentType": 5126,
			"count": 35574,
			"max": [ 1, 1 ],
			"min": [ 0, 0 ],
			"type": "VEC2"
		},
		{
			"bufferView": 4,
			"byteOffset": 0,
			"componentType": 5126,
			"count": 35574,
			"max": [ 1, 1, 0.9655748, 1 ],
			"min": [ -1, -1, -0.964369, 1 ],
			"type": "VEC4"
		},
		{
			"bufferView": 0,
			"byteOffset": 0,
			"componentType": 5123,
			"count": 207360,
			"max": [ 35573 ],
			"min": [ 0 ],
			"type": "SCALAR"
		},
		{
			"bufferView": 1,
			"byteOffset": 0,
			"componentType": 5126,
			"count": 90,
			"max": [ 2.966667 ],
			"min": [ 0 ],
			"type": "SCALAR"
		},
		{
			"bufferView": 5,
			"byteOffset": 0,
			"componentType": 5126,
			"count": 90,
			"max": [ 5.346118, 0.01369477, 3.021 ],
			"min": [ 5.346118, -0.9078649, 3.021 ],
			"type": "VEC3"
		},
		{
			"bufferView": 6,
			"byteOffset": 0,
			"componentType": 5126,
			"count": 90,
			"max": [ -0.7071068, 0, 0, -0.7071068 ],
			"min": [ -0.7071068, 0, 0, -0.7071068 ],
			"type": "VEC4"
		},
		{
			"bufferView": 5,
			"byteOffset": 1080,
			"componentType": 5126,
			"count": 90,
			"max": [ 0.9904177, 0.9904177, 1.025152 ],
			"min": [ 0.9904177, 0.9904177, 0.990463 ],
			"type": "VEC3"
		},
		{
			"bufferView": 1,
			"byteOffset": 360,
			"componentType": 5126,
			"count": 90,
			"max": [ 2.966667 ],
			"min": [ 0 ],
			"type": "SCALAR"
		},
		{
			"bufferView": 5,
			"byteOffset": 2160,
			"componentType": 5126,
			"count": 90,
			"max": [ 5.346118, -0.8445163, 3.021 ],
			"min": [ 5.346118, -0.8445163, 3.021 ],
			"type": "VEC3"
		},
		{
			"bufferView": 6,
			"byteOffset": 1440,
			"componentType": 5126,
			"count": 90,
			"max": [ -0.7071068, 0, 0, -0.7071068 ],
			"min": [ -0.7071068, 0, 0, -0.7071068 ],
			"type": "VEC4"
		},
		{
			"bufferView": 5,
			"byteOffset": 3240,
			"componentType": 5126,
			"count": 90,
			"max": [ 1, 1, 1 ],
			"min": [ 1, 1, 1 ],
			"type": "VEC3"
		},
		{
			"bufferView": 1,
			"byteOffset": 720,
			"componentType": 5126,
			"count": 90,
			"max": [ 2.966667 ],
			"min": [ 0 ],
			"type": "SCALAR"
		},
		{
			"bufferView": 5,
			"byteOffset": 4320,
			"componentType": 5126,
			"count": 90,
			"max": [ 5.346118, -0.8759619, 3.021 ],
			"min": [ 5.346118, -0.8759619, 3.021 ],
			"type": "VEC3"
		},
		{
			"bufferView": 6,
			"byteOffset": 2880,
			"componentType": 5126,
			"count": 90,
			"max": [ -0.7071068, 0, 0, -0.7071068 ],
			"min": [ -0.7071068, 0, 0, -0.7071068 ],
			"type": "VEC4"
		},
		{
			"bufferView": 5,
			"byteOffset": 5400,
			"componentType": 5126,
			"count": 90,
			"max": [ 1, 1, 1 ],
			"min": [ 1, 1, 1 ],
			"type": "VEC3"
		},
		{
			"bufferView": 1,
			"byteOffset": 1080,
			"componentType": 5126,
			"count": 90,
			"max": [ 2.966667 ],
			"min": [ 0 ],
			"type": "SCALAR"
		},
		{
			"bufferView": 5,
			"byteOffset": 6480,
			"componentType": 5126,
			"count": 90,
			"max": [ 5.454634, 5E-05, 2.981456 ],
			"min": [ 5.454634, 5E-05, 2.981456 ],
			"type": "VEC3"
		},
		{
			"bufferView": 6,
			"byteOffset": 4320,
			"componentType": 5126,
			"count": 90,
			"max": [ -0.6825735, -0.1846441, 0.1846441, -0.6825735 ],
			"min": [ -0.6825735, -0.1846441, 0.1846441, -0.6825735 ],
			"type": "VEC4"
		},
		{
			"bufferView": 5,
			"byteOffset": 7560,
			"componentType": 5126,
			"count": 90,
			"max": [ 1, 1, 0.9675292 ],
			"min": [ 1, 1, 0.9675292 ],
			"type": "VEC3"
		},
		{
			"bufferView": 1,
			"byteOffset": 1440,
			"componentType": 5126,
			"count": 90,
			"max": [ 2.966667 ],
			"min": [ 0 ],
			"type": "SCALAR"
		},
		{
			"bufferView": 5,
			"byteOffset": 8640,
			"componentType": 5126,
			"count": 90,
			"max": [ 5.346118, 0.4067541, 3.021 ],
			"min": [ 5.346118, -1.232942, 3.021 ],
			"type": "VEC3"
		},
		{
			"bufferView": 6,
			"byteOffset": 5760,
			"componentType": 5126,
			"count": 90,
			"max": [ -0.7071068, 0, 0, -0.7071068 ],
			"min": [ -0.7071068, 0, 0, -0.7071068 ],
			"type": "VEC4"
		},
		{
			"bufferView": 5,
			"byteOffset": 9720,
			"componentType": 5126,
			"count": 90,
			"max": [ 1, 1, 1 ],
			"min": [ 1, 1, 1 ],
			"type": "VEC3"
		},
		{
			"bufferView": 1,
			"byteOffset": 1800,
			"componentType": 5126,
			"count": 90,
			"max": [ 2.966667 ],
			"min": [ 0 ],
			"type": "SCALAR"
		},
		{
			"bufferView": 5,
			"byteOffset": 10800,
			"componentType": 5126,
			"count": 90,
			"max": [ 5.346118, -1.295335, 3.021 ],
			"min": [ 5.346118, -1.295335, 3.021 ],
			"type": "VEC3"
		},
		{
			"bufferView": 6,
			"byteOffset": 7200,
			"componentType": 5126,
			"count": 90,
			"max": [ -0.7071068, 0, 0, -0.7071068 ],
			"min": [ -0.7071068, 0, 0, -0.7071068 ],
			"type": "VEC4"
		},
		{
			"bufferView": 5,
			"byteOffset": 11880,
			"componentType": 5126,
			"count": 90,
			"max": [ 1, 1, 1 ],
			"min": [ 1, 1, 1 ],
			"type": "VEC3"
		},
		{
			"bufferView": 1,
			"byteOffset": 2160,
			"componentType": 5126,
			"count": 90,
			"max": [ 2.966667 ],
			"min": [ 0 ],
			"type": "SCALAR"
		},
		{
			"bufferView": 5,
			"byteOffset": 12960,
			"componentType": 5126,
			"count": 90,
			"max": [ 5.346118, 0.3610764, 3.021 ],
			"min": [ 5.346118, -1.232942, 3.021 ],
			"type": "VEC3"
		},
		{
			"bufferView": 6,
			"byteOffset": 8640,
			"componentType": 5126,
			"count": 90,
			"max": [ -0.7071068, 0, 0, -0.7071068 ],
			"min": [ -0.7071068, 0, 0, -0.7071068 ],
			"type": "VEC4"
		},
		{
			"bufferView": 5,
			"byteOffset": 14040,
			"componentType": 5126,
			"count": 90,
			"max": [ 0.9810173, 0.9810173, 0.9810173 ],
			"min": [ 0.9810173, 0.9810173, 0.9810173 ],
			"type": "VEC3"
		},
		{
			"bufferView": 1,
			"byteOffset": 2520,
			"componentType": 5126,
			"count": 90,
			"max": [ 2.966667 ],
			"min": [ 0 ],
			"type": "SCALAR"
		},
		{
			"bufferView": 5,
			"byteOffset": 15120,
			"componentType": 5126,
			"count": 90,
			"max": [ 5.346118, -0.05828827, 3.021 ],
			"min": [ 5.346118, -1.325637, 3.021 ],
			"type": "VEC3"
		},
		{
			"bufferView": 6,
			"byteOffset": 10080,
			"componentType": 5126,
			"count": 90,
			"max": [ -0.7071068, 0, 0, -0.7071068 ],
			"min": [ -0.7071068, 0, 0, -0.7071068 ],
			"type": "VEC4"
		},
		{
			"bufferView": 5,
			"byteOffset": 16200,
			"componentType": 5126,
			"count": 90,
			"max": [ 1, 1, 1 ],
			"min": [ 1, 1, 1 ],
			"type": "VEC3"
		},
		{
			"bufferView": 3,
			"byteOffset": 853776,
			"componentType": 5126,
			"count": 1661,
			"max": [ 1.953835, 1.751325, 0 ],
			"min": [ -1.953835, -1.781172, -2.735977 ],
			"type": "VEC3"
		},
		{
			"bufferView": 3,
			"byteOffset": 873708,
			"componentType": 5126,
			"count": 1661,
			"max": [ 0.9573369, 0.9642434, 1 ],
			"min": [ -0.9988585, -0.9981228, -0.8994224 ],
			"type": "VEC3"
		},
		{
			"bufferView": 2,
			"byteOffset": 284592,
			"componentType": 5126,
			"count": 1661,
			"max": [ 1, 1 ],
			"min": [ -0.05781603, 0 ],
			"type": "VEC2"
		},
		{
			"bufferView": 4,
			"byteOffset": 569184,
			"componentType": 5126,
			"count": 1661,
			"max": [ 1, 1, 0.5132793, 1 ],
			"min": [ -1, -1, -0.4950728, 1 ],
			"type": "VEC4"
		},
		{
			"bufferView": 0,
			"byteOffset": 414720,
			"componentType": 5123,
			"count": 9156,
			"max": [ 1660 ],
			"min": [ 0 ],
			"type": "SCALAR"
		},
		{
			"bufferView": 3,
			"byteOffset": 893640,
			"componentType": 5126,
			"count": 35574,
			"max": [ 2.750053, 2.753902, 0.3194408 ],
			"min": [ -2.742635, -2.700274, -2.697772 ],
			"type": "VEC3"
		},
		{
			"bufferView": 3,
			"byteOffset": 1320528,
			"componentType": 5126,
			"count": 35574,
			"max": [ 0.9999644, 0.9999716, 1 ],
			"min": [ -0.9999868, -0.99998, -0.9999894 ],
			"type": "VEC3"
		},
		{
			"bufferView": 2,
			"byteOffset": 297880,
			"componentType": 5126,
			"count": 35574,
			"max": [ 1, 1 ],
			"min": [ 0, 0 ],
			"type": "VEC2"
		},
		{
			"bufferView": 4,
			"byteOffset": 595760,
			"componentType": 5126,
			"count": 35574,
			"max": [ 1, 1, 0.9177729, 1 ],
			"min": [ -1, -1, -0.965677, 1 ],
			"type": "VEC4"
		},
		{
			"bufferView": 0,
			"byteOffset": 433032,
			"componentType": 5123,
			"count": 207360,
			"max": [ 35573 ],
			"min": [ 0 ],
			"type": "SCALAR"
		},
		{
			"bufferView": 3,
			"byteOffset": 1747416,
			"componentType": 5126,
			"count": 35574,
			"max": [ 2.500002, 2.500193, 0.3194408 ],
			"min": [ -2.500386, -2.500127, -2.697772 ],
			"type": "VEC3"
		},
		{
			"bufferView": 3,
			"byteOffset": 2174304,
			"componentType": 5126,
			"count": 35574,
			"max": [ 1, 1, 1 ],
			"min": [ -1, -1, -1 ],
			"type": "VEC3"
		},
		{
			"bufferView": 2,
			"byteOffset": 582472,
			"componentType": 5126,
			"count": 35574,
			"max": [ 1, 1 ],
			"min": [ 0, 0 ],
			"type": "VEC2"
		},
		{
			"bufferView": 4,
			"byteOffset": 1164944,
			"componentType": 5126,
			"count": 35574,
			"max": [ 1, 1, 0.8861021, 1 ],
			"min": [ -1, -1, -0.955857, 1 ],
			"type": "VEC4"
		},
		{
			"bufferView": 0,
			"byteOffset": 847752,
			"componentType": 5123,
			"count": 207360,
			"max": [ 35573 ],
			"min": [ 0 ],
			"type": "SCALAR"
		},
		{
			"bufferView": 3,
			"byteOffset": 2601192,
			"componentType": 5126,
			"count": 35574,
			"max": [ 2.500002, 2.500193, 0.3194408 ],
			"min": [ -2.500386, -2.500127, -2.697772 ],
			"type": "VEC3"
		},
		{
			"bufferView": 3,
			"byteOffset": 3028080,
			"componentType": 5126,
			"count": 35574,
			"max": [ 1, 1, 1 ],
			"min": [ -1, -1, -1 ],
			"type": "VEC3"
		},
		{
			"bufferView": 2,
			"byteOffset": 867064,
			"componentType": 5126,
			"count": 35574,
			"max": [ 1, 1 ],
			"min": [ 0, 0 ],
			"type": "VEC2"
		},
		{
			"bufferView": 4,
			"byteOffset": 1734128,
			"componentType": 5126,
			"count": 35574,
			"max": [ 1, 1, 0.7735857, 1 ],
			"min": [ -1, -1, -0.8783226, 1 ],
			"type": "VEC4"
		},
		{
			"bufferView": 0,
			"byteOffset": 1262472,
			"componentType": 5123,
			"count": 207360,
			"max": [ 35573 ],
			"min": [ 0 ],
			"type": "SCALAR"
		},
		{
			"bufferView": 3,
			"byteOffset": 3454968,
			"componentType": 5126,
			"count": 35574,
			"max": [ 2.557609, 2.527643, 0.3194408 ],
			"min": [ -2.501912, -2.551685, -2.770067 ],
			"type": "VEC3"
		},
		{
			"bufferView": 3,
			"byteOffset": 3881856,
			"componentType": 5126,
			"count": 35574,
			"max": [ 1, 1, 1 ],
			"min": [ -1, -1, -1 ],
			"type": "VEC3"
		},
		{
			"bufferView": 2,
			"byteOffset": 1151656,
			"componentType": 5126,
			"count": 35574,
			"max": [ 1, 1 ],
			"min": [ 0, 0 ],
			"type": "VEC2"
		},
		{
			"bufferView": 4,
			"byteOffset": 2303312,
			"componentType": 5126,
			"count": 35574,
			"max": [ 1, 1, 0.9162376, 1 ],
			"min": [ -1, -1, -0.9060442, 1 ],
			"type": "VEC4"
		},
		{
			"bufferView": 0,
			"byteOffset": 1677192,
			"componentType": 5123,
			"count": 207360,
			"max": [ 35573 ],
			"min": [ 0 ],
			"type": "SCALAR"
		},
		{
			"bufferView": 3,
			"byteOffset": 4308744,
			"componentType": 5126,
			"count": 35574,
			"max": [ 2.500002, 2.500193, 0.3194408 ],
			"min": [ -2.500386, -2.500127, -2.739926 ],
			"type": "VEC3"
		},
		{
			"bufferView": 3,
			"byteOffset": 4735632,
			"componentType": 5126,
			"count": 35574,
			"max": [ 1, 1, 1 ],
			"min": [ -1, -1, -1 ],
			"type": "VEC3"
		},
		{
			"bufferView": 2,
			"byteOffset": 1436248,
			"componentType": 5126,
			"count": 35574,
			"max": [ 1, 1 ],
			"min": [ 0, 0 ],
			"type": "VEC2"
		},
		{
			"bufferView": 4,
			"byteOffset": 2872496,
			"componentType": 5126,
			"count": 35574,
			"max": [ 1, 1, 0.9200959, 1 ],
			"min": [ -1, -1, -0.8991063, 1 ],
			"type": "VEC4"
		},
		{
			"bufferView": 0,
			"byteOffset": 2091912,
			"componentType": 5123,
			"count": 207360,
			"max": [ 35573 ],
			"min": [ 0 ],
			"type": "SCALAR"
		},
		{
			"bufferView": 3,
			"byteOffset": 5162520,
			"componentType": 5126,
			"count": 35574,
			"max": [ 2.500002, 2.500193, 0.3194408 ],
			"min": [ -2.500386, -2.500127, -2.697772 ],
			"type": "VEC3"
		},
		{
			"bufferView": 3,
			"byteOffset": 5589408,
			"componentType": 5126,
			"count": 35574,
			"max": [ 1, 1, 1 ],
			"min": [ -1, -1, -1 ],
			"type": "VEC3"
		},
		{
			"bufferView": 2,
			"byteOffset": 1720840,
			"componentType": 5126,
			"count": 35574,
			"max": [ 1, 1 ],
			"min": [ 0, 0 ],
			"type": "VEC2"
		},
		{
			"bufferView": 4,
			"byteOffset": 3441680,
			"componentType": 5126,
			"count": 35574,
			"max": [ 1, 1, 0.7735857, 1 ],
			"min": [ -1, -1, -0.8783226, 1 ],
			"type": "VEC4"
		},
		{
			"bufferView": 0,
			"byteOffset": 2506632,
			"componentType": 5123,
			"count": 207360,
			"max": [ 35573 ],
			"min": [ 0 ],
			"type": "SCALAR"
		}
	],
	"animations": [
		{
			"name": " (1)",
			"channels": [
				{
					"sampler": 0,
					"target": {
						"node": 1,
						"path": "translation"
					}
				},
				{
					"sampler": 1,
					"target": {
						"node": 1,
						"path": "rotation"
					}
				},
				{
					"sampler": 2,
					"target": {
						"node": 1,
						"path": "scale"
					}
				},
				{
					"sampler": 3,
					"target": {
						"node": 9,
						"path": "translation"
					}
				},
				{
					"sampler": 4,
					"target": {
						"node": 9,
						"path": "rotation"
					}
				},
				{
					"sampler": 5,
					"target": {
						"node": 9,
						"path": "scale"
					}
				},
				{
					"sampler": 6,
					"target": {
						"node": 5,
						"path": "translation"
					}
				},
				{
					"sampler": 7,
					"target": {
						"node": 5,
						"path": "rotation"
					}
				},
				{
					"sampler": 8,
					"target": {
						"node": 5,
						"path": "scale"
					}
				},
				{
					"sampler": 9,
					"target": {
						"node": 3,
						"path": "translation"
					}
				},
				{
					"sampler": 10,
					"target": {
						"node": 3,
						"path": "rotation"
					}
				},
				{
					"sampler": 11,
					"target": {
						"node": 3,
						"path": "scale"
					}
				},
				{
					"sampler": 12,
					"target": {
						"node": 6,
						"path": "translation"
					}
				},
				{
					"sampler": 13,
					"target": {
						"node": 6,
						"path": "rotation"
					}
				},
				{
					"sampler": 14,
					"target": {
						"node": 6,
						"path": "scale"
					}
				},
				{
					"sampler": 15,
					"target": {
						"node": 7,
						"path": "translation"
					}
				},
				{
					"sampler": 16,
					"target": {
						"node": 7,
						"path": "rotation"
					}
				},
				{
					"sampler": 17,
					"target": {
						"node": 7,
						"path": "scale"
					}
				},
				{
					"sampler": 18,
					"target": {
						"node": 8,
						"path": "translation"
					}
				},
				{
					"sampler": 19,
					"target": {
						"node": 8,
						"path": "rotation"
					}
				},
				{
					"sampler": 20,
					"target": {
						"node": 8,
						"path": "scale"
					}
				},
				{
					"sampler": 21,
					"target": {
						"node": 4,
						"path": "translation"
					}
				},
				{
					"sampler": 22,
					"target": {
						"node": 4,
						"path": "rotation"
					}
				},
				{
					"sampler": 23,
					"target": {
						"node": 4,
						"path": "scale"
					}
				}
			],
			"samplers": [
				{
					"input": 5,
					"interpolation": "LINEAR",
					"output": 6
				},
				{
					"input": 5,
					"interpolation": "LINEAR",
					"output": 7
				},
				{
					"input": 5,
					"interpolation": "LINEAR",
					"output": 8
				},
				{
					"input": 9,
					"interpolation": "LINEAR",
					"output": 10
				},
				{
					"input": 9,
					"interpolation": "LINEAR",
					"output": 11
				},
				{
					"input": 9,
					"interpolation": "LINEAR",
					"output": 12
				},
				{
					"input": 13,
					"interpolation": "LINEAR",
					"output": 14
				},
				{
					"input": 13,
					"interpolation": "LINEAR",
					"output": 15
				},
				{
					"input": 13,
					"interpolation": "LINEAR",
					"output": 16
				},
				{
					"input": 17,
					"interpolation": "LINEAR",
					"output": 18
				},
				{
					"input": 17,
					"interpolation": "LINEAR",
					"output": 19
				},
				{
					"input": 17,
					"interpolation": "LINEAR",
					"output": 20
				},
				{
					"input": 21,
					"interpolation": "LINEAR",
					"output": 22
				},
				{
					"input": 21,
					"interpolation": "LINEAR",
					"output": 23
				},
				{
					"input": 21,
					"interpolation": "LINEAR",
					"output": 24
				},
				{
					"input": 25,
					"interpolation": "LINEAR",
					"output": 26
				},
				{
					"input": 25,
					"interpolation": "LINEAR",
					"output": 27
				},
				{
					"input": 25,
					"interpolation": "LINEAR",
					"output": 28
				},
				{
					"input": 29,
					"interpolation": "LINEAR",
					"output": 30
				},
				{
					"input": 29,
					"interpolation": "LINEAR",
					"output": 31
				},
				{
					"input": 29,
					"interpolation": "LINEAR",
					"output": 32
				},
				{
					"input": 33,
					"interpolation": "LINEAR",
					"output": 34
				},
				{
					"input": 33,
					"interpolation": "LINEAR",
					"output": 35
				},
				{
					"input": 33,
					"interpolation": "LINEAR",
					"output": 36
				}
			]
		}
	],
	"buffers": [
		{
			"byteLength": 14985624,
			"uri": "角峰.bin"
		}
	],
	"bufferViews": [
		{
			"buffer": 0,
			"byteLength": 2921352,
			"target": 34963,
			"byteOffset": 12035472
		},
		{
			"buffer": 0,
			"byteLength": 2880,
			"byteOffset": 0
		},
		{
			"buffer": 0,
			"byteLength": 2005432,
			"target": 34962,
			"byteStride": 8,
			"byteOffset": 2880
		},
		{
			"buffer": 0,
			"byteLength": 6016296,
			"target": 34962,
			"byteStride": 12,
			"byteOffset": 2008312
		},
		{
			"buffer": 0,
			"byteLength": 4010864,
			"target": 34962,
			"byteStride": 16,
			"byteOffset": 8024608
		},
		{
			"buffer": 0,
			"byteLength": 17280,
			"byteStride": 12,
			"byteOffset": 14956824
		},
		{
			"buffer": 0,
			"byteLength": 11520,
			"byteStride": 16,
			"byteOffset": 14974104
		}
	],
	"images": [
		{
			"uri": "/Assets/冰蚀地貌/Textures/冰川谷谷0805.fbm/timg3.jpg"
		}
	],
	"materials": [
		{
			"pbrMetallicRoughness": {
				"baseColorTexture" : {
					"index" : 0,
					"texCoord" : 0
				},
				"baseColorFactor": [0.5882353, 0.5882353, 0.5882353, 1],
				"metallicFactor": 0,
				"roughnessFactor": 1
			},
			"emissiveFactor": [0, 0, 0],
			"doubleSided": false,
			"name": "timg3"
		},
		{
			"pbrMetallicRoughness": {
				"baseColorFactor": [0.9490197, 0.9490197, 0.9490197, 1],
				"metallicFactor": 0,
				"roughnessFactor": 1
			},
			"emissiveFactor": [0, 0, 0],
			"doubleSided": false,
			"name": "snow"
		}
	],
	"meshes": [
		{
			"name": "mesh_Box002_26122Box002",
			"primitives": [
				{
					"attributes": {
						"POSITION": 0,
						"NORMAL": 1,
						"TEXCOORD_0": 2,
						"TANGENT": 3
					},
					"indices": 4,
					"material": 0,
					"mode": 4
				}
			]
		},
		{
			"name": "mesh_Pyramid003_26118Pyramid003",
			"primitives": [
				{
					"attributes": {
						"POSITION": 37,
						"NORMAL": 38,
						"TEXCOORD_0": 39,
						"TANGENT": 40
					},
					"indices": 41,
					"material": 0,
					"mode": 4
				}
			]
		},
		{
			"name": "mesh_Box005_26126Box005",
			"primitives": [
				{
					"attributes": {
						"POSITION": 42,
						"NORMAL": 43,
						"TEXCOORD_0": 44,
						"TANGENT": 45
					},
					"indices": 46,
					"material": 1,
					"mode": 4
				}
			]
		},
		{
			"name": "mesh_Box004_26124Box004",
			"primitives": [
				{
					"attributes": {
						"POSITION": 47,
						"NORMAL": 48,
						"TEXCOORD_0": 49,
						"TANGENT": 50
					},
					"indices": 51,
					"material": 1,
					"mode": 4
				}
			]
		},
		{
			"name": "mesh_original mountain_26128original mountain",
			"primitives": [
				{
					"attributes": {
						"POSITION": 52,
						"NORMAL": 53,
						"TEXCOORD_0": 54,
						"TANGENT": 55
					},
					"indices": 56,
					"material": 1,
					"mode": 4
				}
			]
		},
		{
			"name": "mesh_original mountain's snow_26114original mountain's snow",
			"primitives": [
				{
					"attributes": {
						"POSITION": 57,
						"NORMAL": 58,
						"TEXCOORD_0": 59,
						"TANGENT": 60
					},
					"indices": 61,
					"material": 1,
					"mode": 4
				}
			]
		},
		{
			"name": "mesh_original mountain001_26116original mountain001",
			"primitives": [
				{
					"attributes": {
						"POSITION": 62,
						"NORMAL": 63,
						"TEXCOORD_0": 64,
						"TANGENT": 65
					},
					"indices": 66,
					"material": 0,
					"mode": 4
				}
			]
		},
		{
			"name": "mesh_snow_26120snow",
			"primitives": [
				{
					"attributes": {
						"POSITION": 67,
						"NORMAL": 68,
						"TEXCOORD_0": 69,
						"TANGENT": 70
					},
					"indices": 71,
					"material": 1,
					"mode": 4
				}
			]
		}
	],
	"nodes": [
		{
			"name": "UnityGlTF_root",
			"children": [
				10
			]
		},
		{
			"name": "node_Box002_-123808",
			"mesh": 0,
			"translation": [ 5.346118, -0.1208798, 3.021],
			"scale": [ 0.9904177, 0.9904177, 1.025152],
			"rotation": [-0.7071068, 0, 0, -0.7071068]
		},
		{
			"name": "node_ (1)_-123802",
			"children": [
				1,
				5,
				4,
				6,
				7,
				8,
				3,
				9
			],
			"translation": [ -5.43, -0.07, -2.76]
		},
		{
			"name": "node_Pyramid003_-123856",
			"mesh": 1,
			"translation": [ 5.454634, 5E-05, 2.981456],
			"scale": [ 1, 1, 0.9675292],
			"rotation": [-0.6825735, -0.1846441, 0.1846441, -0.6825735]
		},
		{
			"name": "node_Box005_-123824",
			"mesh": 2,
			"translation": [ 5.346118, -0.1844946, 3.021],
			"rotation": [-0.7071068, 0, 0, -0.7071068]
		},
		{
			"name": "node_Box004_-123816",
			"mesh": 3,
			"translation": [ 5.346118, -0.8759619, 3.021],
			"rotation": [-0.7071068, 0, 0, -0.7071068]
		},
		{
			"name": "node_original mountain_-123832",
			"mesh": 4,
			"translation": [ 5.346118, 0.4067541, 3.021],
			"rotation": [-0.7071068, 0, 0, -0.7071068]
		},
		{
			"name": "node_original mountain's snow_-123840",
			"mesh": 5,
			"translation": [ 5.346118, -1.295335, 3.021],
			"rotation": [-0.7071068, 0, 0, -0.7071068]
		},
		{
			"name": "node_original mountain001_-123848",
			"mesh": 6,
			"translation": [ 5.346118, 0.3610764, 3.021],
			"scale": [ 0.9810173, 0.9810173, 0.9810173],
			"rotation": [-0.7071068, 0, 0, -0.7071068]
		},
		{
			"name": "node_snow_-123864",
			"mesh": 7,
			"translation": [ 5.346118, -0.8445163, 3.021],
			"rotation": [-0.7071068, 0, 0, -0.7071068]
		},
		{
			"name": "node__-123798",
			"children": [
				2
			],
			"matrix": [0.4, 0, 0, 0, 0, 0.4, 0, 0, 0, 0, 0.4, 0, 20, 0, 0, 1]
		}
	],
	"samplers": [
		{
			"magFilter": 9729,
			"minFilter": 9985,
			"wrapS": 10497,
			"wrapT": 10497
		}
	],
	"scenes": [
		{
			"name":"defaultScene",
			"nodes": [
				0
			]
		}
	],
	"scene": 0,
	"textures": [
		{
			"sampler": 0,
			"source": 0
		}
	]
}