{
	"asset": {
		"generator": "Unity 2018.3.11f1",
		"extras": {
			"exporterVersion" : "2.2.1"
		},
		"version": "2.0"
	},
	"accessors": [
		{
			"bufferView": 1,
			"byteOffset": 0,
			"componentType": 5126,
			"count": 30,
			"max": [ 0.9666667 ],
			"min": [ 0 ],
			"type": "SCALAR"
		},
		{
			"bufferView": 5,
			"byteOffset": 0,
			"componentType": 5126,
			"count": 30,
			"max": [ 1, 8.3, 0 ],
			"min": [ 1, 8.3, 0 ],
			"type": "VEC3"
		},
		{
			"bufferView": 6,
			"byteOffset": 0,
			"componentType": 5126,
			"count": 30,
			"max": [ 0, 0, 0, 1 ],
			"min": [ 0, -1, 0, -0.9945219 ],
			"type": "VEC4"
		},
		{
			"bufferView": 5,
			"byteOffset": 360,
			"componentType": 5126,
			"count": 30,
			"max": [ 1, 1, 1 ],
			"min": [ 1, 1, 1 ],
			"type": "VEC3"
		},
		{
			"bufferView": 3,
			"byteOffset": 0,
			"componentType": 5126,
			"count": 60,
			"max": [ 0.9578482, 1.007141, 0.1181828 ],
			"min": [ -0.9578482, -1.007141, -0.1181828 ],
			"type": "VEC3"
		},
		{
			"bufferView": 3,
			"byteOffset": 720,
			"componentType": 5126,
			"count": 60,
			"max": [ 0.9936481, 0.9797899, 1 ],
			"min": [ -0.870023, -0.9797899, -1 ],
			"type": "VEC3"
		},
		{
			"bufferView": 4,
			"byteOffset": 0,
			"componentType": 5126,
			"count": 60,
			"max": [ 1, 0, 0, 1 ],
			"min": [ 1, 0, 0, 1 ],
			"type": "VEC4"
		},
		{
			"bufferView": 0,
			"byteOffset": 0,
			"componentType": 5123,
			"count": 108,
			"max": [ 59 ],
			"min": [ 0 ],
			"type": "SCALAR"
		},
		{
			"bufferView": 3,
			"byteOffset": 1440,
			"componentType": 5126,
			"count": 60,
			"max": [ 0.9578482, 1.007141, 0.1181828 ],
			"min": [ -0.9578482, -1.007141, -0.1181828 ],
			"type": "VEC3"
		},
		{
			"bufferView": 3,
			"byteOffset": 2160,
			"componentType": 5126,
			"count": 60,
			"max": [ 0.9936481, 0.9797899, 1 ],
			"min": [ -0.870023, -0.9797899, -1 ],
			"type": "VEC3"
		},
		{
			"bufferView": 4,
			"byteOffset": 960,
			"componentType": 5126,
			"count": 60,
			"max": [ 1, 0, 0, 1 ],
			"min": [ 1, 0, 0, 1 ],
			"type": "VEC4"
		},
		{
			"bufferView": 0,
			"byteOffset": 216,
			"componentType": 5123,
			"count": 108,
			"max": [ 59 ],
			"min": [ 0 ],
			"type": "SCALAR"
		},
		{
			"bufferView": 3,
			"byteOffset": 2880,
			"componentType": 5126,
			"count": 3543,
			"max": [ 5.197209, 7.083377, 2.721552 ],
			"min": [ -5.361435, 0.08397018, -2.914099 ],
			"type": "VEC3"
		},
		{
			"bufferView": 3,
			"byteOffset": 45396,
			"componentType": 5126,
			"count": 3543,
			"max": [ 1, 1, 1 ],
			"min": [ -1, -1, -1 ],
			"type": "VEC3"
		},
		{
			"bufferView": 2,
			"byteOffset": 0,
			"componentType": 5126,
			"count": 3543,
			"max": [ 1.339106, 0.9963619 ],
			"min": [ 0.001809448, -0.4818364 ],
			"type": "VEC2"
		},
		{
			"bufferView": 4,
			"byteOffset": 1920,
			"componentType": 5126,
			"count": 3543,
			"max": [ 1, 1, 1, 1 ],
			"min": [ -1, -1, -1, -1 ],
			"type": "VEC4"
		},
		{
			"bufferView": 0,
			"byteOffset": 432,
			"componentType": 5123,
			"count": 6486,
			"max": [ 3542 ],
			"min": [ 0 ],
			"type": "SCALAR"
		},
		{
			"bufferView": 1,
			"byteOffset": 120,
			"componentType": 5126,
			"count": 30,
			"max": [ 0.9666667 ],
			"min": [ 0 ],
			"type": "SCALAR"
		},
		{
			"bufferView": 5,
			"byteOffset": 720,
			"componentType": 5126,
			"count": 30,
			"max": [ -1, 8.3, 0 ],
			"min": [ -1, 8.3, 0 ],
			"type": "VEC3"
		},
		{
			"bufferView": 6,
			"byteOffset": 480,
			"componentType": 5126,
			"count": 30,
			"max": [ 0, 0, 0, 1 ],
			"min": [ 0, -1, 0, -0.9945219 ],
			"type": "VEC4"
		},
		{
			"bufferView": 5,
			"byteOffset": 1080,
			"componentType": 5126,
			"count": 30,
			"max": [ 1, 1, 1 ],
			"min": [ 1, 1, 1 ],
			"type": "VEC3"
		}
	],
	"animations": [
		{
			"name": "star (2)",
			"channels": [
				{
					"sampler": 0,
					"target": {
						"node": 1,
						"path": "translation"
					}
				},
				{
					"sampler": 1,
					"target": {
						"node": 1,
						"path": "rotation"
					}
				},
				{
					"sampler": 2,
					"target": {
						"node": 1,
						"path": "scale"
					}
				}
			],
			"samplers": [
				{
					"input": 0,
					"interpolation": "LINEAR",
					"output": 1
				},
				{
					"input": 0,
					"interpolation": "LINEAR",
					"output": 2
				},
				{
					"input": 0,
					"interpolation": "LINEAR",
					"output": 3
				}
			]
		},
		{
			"name": "star (1)",
			"channels": [
				{
					"sampler": 0,
					"target": {
						"node": 5,
						"path": "translation"
					}
				},
				{
					"sampler": 1,
					"target": {
						"node": 5,
						"path": "rotation"
					}
				},
				{
					"sampler": 2,
					"target": {
						"node": 5,
						"path": "scale"
					}
				}
			],
			"samplers": [
				{
					"input": 17,
					"interpolation": "LINEAR",
					"output": 18
				},
				{
					"input": 17,
					"interpolation": "LINEAR",
					"output": 19
				},
				{
					"input": 17,
					"interpolation": "LINEAR",
					"output": 20
				}
			]
		}
	],
	"buffers": [
		{
			"byteLength": 190908,
			"uri": "一二星级酒店.bin"
		}
	],
	"bufferViews": [
		{
			"buffer": 0,
			"byteLength": 13404,
			"target": 34963,
			"byteOffset": 175104
		},
		{
			"buffer": 0,
			"byteLength": 240,
			"byteOffset": 0
		},
		{
			"buffer": 0,
			"byteLength": 28344,
			"target": 34962,
			"byteStride": 8,
			"byteOffset": 240
		},
		{
			"buffer": 0,
			"byteLength": 87912,
			"target": 34962,
			"byteStride": 12,
			"byteOffset": 28584
		},
		{
			"buffer": 0,
			"byteLength": 58608,
			"target": 34962,
			"byteStride": 16,
			"byteOffset": 116496
		},
		{
			"buffer": 0,
			"byteLength": 1440,
			"byteStride": 12,
			"byteOffset": 188508
		},
		{
			"buffer": 0,
			"byteLength": 960,
			"byteStride": 16,
			"byteOffset": 189948
		}
	],
	"images": [
		{
			"uri": "/Assets/Building Apartment/Texture/Building_Apartment_10.jpg"
		}
	],
	"materials": [
		{
			"pbrMetallicRoughness": {
				"baseColorFactor": [1, 0.9475499, 0.1273585, 1],
				"metallicFactor": 0,
				"roughnessFactor": 0.5
			},
			"emissiveFactor": [0, 0, 0],
			"doubleSided": false,
			"name": "New Material"
		},
		{
			"pbrMetallicRoughness": {
				"baseColorTexture" : {
					"index" : 0,
					"texCoord" : 0
				},
				"baseColorFactor": [0.5882353, 0.5882353, 0.5882353, 1],
				"metallicFactor": 0,
				"roughnessFactor": 0.5
			},
			"emissiveFactor": [0, 0, 0],
			"doubleSided": false,
			"name": "Building_Apartment_10_2048"
		}
	],
	"meshes": [
		{
			"name": "mesh_Star001_19096 1",
			"primitives": [
				{
					"attributes": {
						"POSITION": 4,
						"NORMAL": 5,
						"TANGENT": 6
					},
					"indices": 7,
					"material": 0,
					"mode": 4
				}
			]
		},
		{
			"name": "mesh_Star001_19096 1",
			"primitives": [
				{
					"attributes": {
						"POSITION": 8,
						"NORMAL": 9,
						"TANGENT": 10
					},
					"indices": 11,
					"material": 0,
					"mode": 4
				}
			]
		},
		{
			"name": "mesh_Building_Apartment_10_19082",
			"primitives": [
				{
					"attributes": {
						"POSITION": 12,
						"NORMAL": 13,
						"TEXCOORD_0": 14,
						"TANGENT": 15
					},
					"indices": 16,
					"material": 1,
					"mode": 4
				}
			]
		}
	],
	"nodes": [
		{
			"name": "UnityGlTF_root",
			"children": [
				4
			]
		},
		{
			"name": "node_star (2)_-13676",
			"children": [
				3
			],
			"translation": [ 1, 8.3, 0]
		},
		{
			"name": "node_ 1_-13680",
			"mesh": 0,
			"rotation": [0, 0, -0.1436498, -0.9896286]
		},
		{
			"name": "node_ 1_-13684",
			"mesh": 1,
			"translation": [ 0, -0.047, 0],
			"rotation": [0, 0, -0.1436498, -0.9896286]
		},
		{
			"name": "node__-13666",
			"mesh": 2,
			"children": [
				5,
				1
			],
			"matrix": [1, 0, 0, 0, 0, 1, -1.331581E-07, 0, 0, 1.331581E-07, 1, 0, 162.6319, 372.5658, -318.6869, 1]
		},
		{
			"name": "node_star (1)_-13674",
			"children": [
				2
			],
			"translation": [ -1, 8.3, 0]
		}
	],
	"samplers": [
		{
			"magFilter": 9729,
			"minFilter": 9985,
			"wrapS": 10497,
			"wrapT": 10497
		}
	],
	"scenes": [
		{
			"name":"defaultScene",
			"nodes": [
				0
			]
		}
	],
	"scene": 0,
	"textures": [
		{
			"sampler": 0,
			"source": 0
		}
	]
}