{
	"asset": {
		"generator": "Unity 2018.3.11f1",
		"extras": {
			"exporterVersion" : "2.2.1"
		},
		"version": "2.0"
	},
	"accessors": [
		{
			"bufferView": 3,
			"byteOffset": 0,
			"componentType": 5126,
			"count": 174,
			"max": [ 0.287066, 0.2929946, 0 ],
			"min": [ -0.2975145, -0.1061315, -0.3200104 ],
			"type": "VEC3"
		},
		{
			"bufferView": 3,
			"byteOffset": 2088,
			"componentType": 5126,
			"count": 174,
			"max": [ 1, 0.9910362, 1 ],
			"min": [ -0.9848077, -0.9911924, -0.8941544 ],
			"type": "VEC3"
		},
		{
			"bufferView": 2,
			"byteOffset": 0,
			"componentType": 5126,
			"count": 174,
			"max": [ 1.027778, 1 ],
			"min": [ 0.007596105, 0 ],
			"type": "VEC2"
		},
		{
			"bufferView": 4,
			"byteOffset": 0,
			"componentType": 5126,
			"count": 174,
			"max": [ 0.9848077, 1, 0.9957552, 1 ],
			"min": [ -0.9479357, -1, -0.9978021, -1 ],
			"type": "VEC4"
		},
		{
			"bufferView": 0,
			"byteOffset": 0,
			"componentType": 5123,
			"count": 354,
			"max": [ 173 ],
			"min": [ 0 ],
			"type": "SCALAR"
		},
		{
			"bufferView": 3,
			"byteOffset": 4176,
			"componentType": 5126,
			"count": 515,
			"max": [ 0.5, 0.5, 0.5 ],
			"min": [ -0.5, -0.5, -0.5 ],
			"type": "VEC3"
		},
		{
			"bufferView": 3,
			"byteOffset": 10356,
			"componentType": 5126,
			"count": 515,
			"max": [ 0.999975, 1, 0.9999735 ],
			"min": [ -0.999975, -1, -0.999977 ],
			"type": "VEC3"
		},
		{
			"bufferView": 2,
			"byteOffset": 1392,
			"componentType": 5126,
			"count": 515,
			"max": [ 0.9983337, 0.9758912 ],
			"min": [ -0.0009213686, 0.01762898 ],
			"type": "VEC2"
		},
		{
			"bufferView": 2,
			"byteOffset": 5512,
			"componentType": 5126,
			"count": 515,
			"max": [ 1, 0.6538535 ],
			"min": [ 0, 0 ],
			"type": "VEC2"
		},
		{
			"bufferView": 4,
			"byteOffset": 2784,
			"componentType": 5126,
			"count": 515,
			"max": [ 1, 0.056131, 1, 1 ],
			"min": [ -1, -0.06598339, -1, -1 ],
			"type": "VEC4"
		},
		{
			"bufferView": 0,
			"byteOffset": 708,
			"componentType": 5123,
			"count": 2304,
			"max": [ 514 ],
			"min": [ 0 ],
			"type": "SCALAR"
		},
		{
			"bufferView": 3,
			"byteOffset": 16536,
			"componentType": 5126,
			"count": 515,
			"max": [ 0.5, 0.5, 0.5 ],
			"min": [ -0.5, -0.5, -0.5 ],
			"type": "VEC3"
		},
		{
			"bufferView": 3,
			"byteOffset": 22716,
			"componentType": 5126,
			"count": 515,
			"max": [ 0.999975, 1, 0.9999735 ],
			"min": [ -0.999975, -1, -0.999977 ],
			"type": "VEC3"
		},
		{
			"bufferView": 2,
			"byteOffset": 9632,
			"componentType": 5126,
			"count": 515,
			"max": [ 0.9983337, 0.9758912 ],
			"min": [ -0.0009213686, 0.01762898 ],
			"type": "VEC2"
		},
		{
			"bufferView": 2,
			"byteOffset": 13752,
			"componentType": 5126,
			"count": 515,
			"max": [ 1, 0.6538535 ],
			"min": [ 0, 0 ],
			"type": "VEC2"
		},
		{
			"bufferView": 4,
			"byteOffset": 11024,
			"componentType": 5126,
			"count": 515,
			"max": [ 1, 0.056131, 1, 1 ],
			"min": [ -1, -0.06598339, -1, -1 ],
			"type": "VEC4"
		},
		{
			"bufferView": 0,
			"byteOffset": 5316,
			"componentType": 5123,
			"count": 2304,
			"max": [ 514 ],
			"min": [ 0 ],
			"type": "SCALAR"
		},
		{
			"bufferView": 3,
			"byteOffset": 28896,
			"componentType": 5126,
			"count": 174,
			"max": [ 0.287066, 0.2929946, 0 ],
			"min": [ -0.2975145, -0.1061315, -0.3200104 ],
			"type": "VEC3"
		},
		{
			"bufferView": 3,
			"byteOffset": 30984,
			"componentType": 5126,
			"count": 174,
			"max": [ 1, 0.9910362, 1 ],
			"min": [ -0.9848077, -0.9911924, -0.8941544 ],
			"type": "VEC3"
		},
		{
			"bufferView": 2,
			"byteOffset": 17872,
			"componentType": 5126,
			"count": 174,
			"max": [ 1.027778, 1 ],
			"min": [ 0.007596105, 0 ],
			"type": "VEC2"
		},
		{
			"bufferView": 4,
			"byteOffset": 19264,
			"componentType": 5126,
			"count": 174,
			"max": [ 0.9848077, 1, 0.9957552, 1 ],
			"min": [ -0.9479357, -1, -0.9978021, -1 ],
			"type": "VEC4"
		},
		{
			"bufferView": 0,
			"byteOffset": 9924,
			"componentType": 5123,
			"count": 354,
			"max": [ 173 ],
			"min": [ 0 ],
			"type": "SCALAR"
		},
		{
			"bufferView": 3,
			"byteOffset": 33072,
			"componentType": 5126,
			"count": 515,
			"max": [ 0.5, 0.5, 0.5 ],
			"min": [ -0.5, -0.5, -0.5 ],
			"type": "VEC3"
		},
		{
			"bufferView": 3,
			"byteOffset": 39252,
			"componentType": 5126,
			"count": 515,
			"max": [ 0.999975, 1, 0.9999735 ],
			"min": [ -0.999975, -1, -0.999977 ],
			"type": "VEC3"
		},
		{
			"bufferView": 2,
			"byteOffset": 19264,
			"componentType": 5126,
			"count": 515,
			"max": [ 0.9983337, 0.9758912 ],
			"min": [ -0.0009213686, 0.01762898 ],
			"type": "VEC2"
		},
		{
			"bufferView": 2,
			"byteOffset": 23384,
			"componentType": 5126,
			"count": 515,
			"max": [ 1, 0.6538535 ],
			"min": [ 0, 0 ],
			"type": "VEC2"
		},
		{
			"bufferView": 4,
			"byteOffset": 22048,
			"componentType": 5126,
			"count": 515,
			"max": [ 1, 0.056131, 1, 1 ],
			"min": [ -1, -0.06598339, -1, -1 ],
			"type": "VEC4"
		},
		{
			"bufferView": 0,
			"byteOffset": 10632,
			"componentType": 5123,
			"count": 2304,
			"max": [ 514 ],
			"min": [ 0 ],
			"type": "SCALAR"
		},
		{
			"bufferView": 3,
			"byteOffset": 45432,
			"componentType": 5126,
			"count": 515,
			"max": [ 0.5, 0.5, 0.5 ],
			"min": [ -0.5, -0.5, -0.5 ],
			"type": "VEC3"
		},
		{
			"bufferView": 3,
			"byteOffset": 51612,
			"componentType": 5126,
			"count": 515,
			"max": [ 0.999975, 1, 0.9999735 ],
			"min": [ -0.999975, -1, -0.999977 ],
			"type": "VEC3"
		},
		{
			"bufferView": 2,
			"byteOffset": 27504,
			"componentType": 5126,
			"count": 515,
			"max": [ 0.9983337, 0.9758912 ],
			"min": [ -0.0009213686, 0.01762898 ],
			"type": "VEC2"
		},
		{
			"bufferView": 2,
			"byteOffset": 31624,
			"componentType": 5126,
			"count": 515,
			"max": [ 1, 0.6538535 ],
			"min": [ 0, 0 ],
			"type": "VEC2"
		},
		{
			"bufferView": 4,
			"byteOffset": 30288,
			"componentType": 5126,
			"count": 515,
			"max": [ 1, 0.056131, 1, 1 ],
			"min": [ -1, -0.06598339, -1, -1 ],
			"type": "VEC4"
		},
		{
			"bufferView": 0,
			"byteOffset": 15240,
			"componentType": 5123,
			"count": 2304,
			"max": [ 514 ],
			"min": [ 0 ],
			"type": "SCALAR"
		},
		{
			"bufferView": 1,
			"byteOffset": 0,
			"componentType": 5126,
			"count": 30,
			"max": [ 0.9666667 ],
			"min": [ 0 ],
			"type": "SCALAR"
		},
		{
			"bufferView": 5,
			"byteOffset": 0,
			"componentType": 5126,
			"count": 30,
			"max": [ 0, 0.2551656, -0.302 ],
			"min": [ 0, 0, -0.302 ],
			"type": "VEC3"
		},
		{
			"bufferView": 6,
			"byteOffset": 0,
			"componentType": 5126,
			"count": 30,
			"max": [ 0, 0, 0, -1 ],
			"min": [ 0, 0, 0, -1 ],
			"type": "VEC4"
		},
		{
			"bufferView": 5,
			"byteOffset": 360,
			"componentType": 5126,
			"count": 30,
			"max": [ 1, 1, 1 ],
			"min": [ 1, 1, 1 ],
			"type": "VEC3"
		},
		{
			"bufferView": 3,
			"byteOffset": 57792,
			"componentType": 5126,
			"count": 515,
			"max": [ 0.5, 0.5, 0.5 ],
			"min": [ -0.5, -0.5, -0.5 ],
			"type": "VEC3"
		},
		{
			"bufferView": 3,
			"byteOffset": 63972,
			"componentType": 5126,
			"count": 515,
			"max": [ 0.999975, 1, 0.9999735 ],
			"min": [ -0.999975, -1, -0.999977 ],
			"type": "VEC3"
		},
		{
			"bufferView": 2,
			"byteOffset": 35744,
			"componentType": 5126,
			"count": 515,
			"max": [ 0.9983337, 0.9758912 ],
			"min": [ -0.0009213686, 0.01762898 ],
			"type": "VEC2"
		},
		{
			"bufferView": 2,
			"byteOffset": 39864,
			"componentType": 5126,
			"count": 515,
			"max": [ 1, 0.6538535 ],
			"min": [ 0, 0 ],
			"type": "VEC2"
		},
		{
			"bufferView": 4,
			"byteOffset": 38528,
			"componentType": 5126,
			"count": 515,
			"max": [ 1, 0.056131, 1, 1 ],
			"min": [ -1, -0.06598339, -1, -1 ],
			"type": "VEC4"
		},
		{
			"bufferView": 0,
			"byteOffset": 19848,
			"componentType": 5123,
			"count": 2304,
			"max": [ 514 ],
			"min": [ 0 ],
			"type": "SCALAR"
		},
		{
			"bufferView": 3,
			"byteOffset": 70152,
			"componentType": 5126,
			"count": 174,
			"max": [ 0.287066, 0.2929946, 0 ],
			"min": [ -0.2975145, -0.1061315, -0.3200104 ],
			"type": "VEC3"
		},
		{
			"bufferView": 3,
			"byteOffset": 72240,
			"componentType": 5126,
			"count": 174,
			"max": [ 1, 0.9910362, 1 ],
			"min": [ -0.9848077, -0.9911924, -0.8941544 ],
			"type": "VEC3"
		},
		{
			"bufferView": 2,
			"byteOffset": 43984,
			"componentType": 5126,
			"count": 174,
			"max": [ 1.027778, 1 ],
			"min": [ 0.007596105, 0 ],
			"type": "VEC2"
		},
		{
			"bufferView": 4,
			"byteOffset": 46768,
			"componentType": 5126,
			"count": 174,
			"max": [ 0.9848077, 1, 0.9957552, 1 ],
			"min": [ -0.9479357, -1, -0.9978021, -1 ],
			"type": "VEC4"
		},
		{
			"bufferView": 0,
			"byteOffset": 24456,
			"componentType": 5123,
			"count": 354,
			"max": [ 173 ],
			"min": [ 0 ],
			"type": "SCALAR"
		},
		{
			"bufferView": 3,
			"byteOffset": 74328,
			"componentType": 5126,
			"count": 515,
			"max": [ 0.5, 0.5, 0.5 ],
			"min": [ -0.5, -0.5, -0.5 ],
			"type": "VEC3"
		},
		{
			"bufferView": 3,
			"byteOffset": 80508,
			"componentType": 5126,
			"count": 515,
			"max": [ 0.999975, 1, 0.9999735 ],
			"min": [ -0.999975, -1, -0.999977 ],
			"type": "VEC3"
		},
		{
			"bufferView": 2,
			"byteOffset": 45376,
			"componentType": 5126,
			"count": 515,
			"max": [ 0.9983337, 0.9758912 ],
			"min": [ -0.0009213686, 0.01762898 ],
			"type": "VEC2"
		},
		{
			"bufferView": 2,
			"byteOffset": 49496,
			"componentType": 5126,
			"count": 515,
			"max": [ 1, 0.6538535 ],
			"min": [ 0, 0 ],
			"type": "VEC2"
		},
		{
			"bufferView": 4,
			"byteOffset": 49552,
			"componentType": 5126,
			"count": 515,
			"max": [ 1, 0.056131, 1, 1 ],
			"min": [ -1, -0.06598339, -1, -1 ],
			"type": "VEC4"
		},
		{
			"bufferView": 0,
			"byteOffset": 25164,
			"componentType": 5123,
			"count": 2304,
			"max": [ 514 ],
			"min": [ 0 ],
			"type": "SCALAR"
		},
		{
			"bufferView": 3,
			"byteOffset": 86688,
			"componentType": 5126,
			"count": 515,
			"max": [ 0.5, 0.5, 0.5 ],
			"min": [ -0.5, -0.5, -0.5 ],
			"type": "VEC3"
		},
		{
			"bufferView": 3,
			"byteOffset": 92868,
			"componentType": 5126,
			"count": 515,
			"max": [ 0.999975, 1, 0.9999735 ],
			"min": [ -0.999975, -1, -0.999977 ],
			"type": "VEC3"
		},
		{
			"bufferView": 2,
			"byteOffset": 53616,
			"componentType": 5126,
			"count": 515,
			"max": [ 0.9983337, 0.9758912 ],
			"min": [ -0.0009213686, 0.01762898 ],
			"type": "VEC2"
		},
		{
			"bufferView": 2,
			"byteOffset": 57736,
			"componentType": 5126,
			"count": 515,
			"max": [ 1, 0.6538535 ],
			"min": [ 0, 0 ],
			"type": "VEC2"
		},
		{
			"bufferView": 4,
			"byteOffset": 57792,
			"componentType": 5126,
			"count": 515,
			"max": [ 1, 0.056131, 1, 1 ],
			"min": [ -1, -0.06598339, -1, -1 ],
			"type": "VEC4"
		},
		{
			"bufferView": 0,
			"byteOffset": 29772,
			"componentType": 5123,
			"count": 2304,
			"max": [ 514 ],
			"min": [ 0 ],
			"type": "SCALAR"
		}
	],
	"animations": [
		{
			"name": "GameObject",
			"channels": [
				{
					"sampler": 0,
					"target": {
						"node": 9,
						"path": "translation"
					}
				},
				{
					"sampler": 1,
					"target": {
						"node": 9,
						"path": "rotation"
					}
				},
				{
					"sampler": 2,
					"target": {
						"node": 9,
						"path": "scale"
					}
				}
			],
			"samplers": [
				{
					"input": 34,
					"interpolation": "LINEAR",
					"output": 35
				},
				{
					"input": 34,
					"interpolation": "LINEAR",
					"output": 36
				},
				{
					"input": 34,
					"interpolation": "LINEAR",
					"output": 37
				}
			]
		}
	],
	"buffers": [
		{
			"byteLength": 262636,
			"uri": "扬沙.bin"
		}
	],
	"bufferViews": [
		{
			"buffer": 0,
			"byteLength": 34380,
			"target": 34963,
			"byteOffset": 227056
		},
		{
			"buffer": 0,
			"byteLength": 120,
			"byteOffset": 0
		},
		{
			"buffer": 0,
			"byteLength": 61856,
			"target": 34962,
			"byteStride": 8,
			"byteOffset": 120
		},
		{
			"buffer": 0,
			"byteLength": 99048,
			"target": 34962,
			"byteStride": 12,
			"byteOffset": 61976
		},
		{
			"buffer": 0,
			"byteLength": 66032,
			"target": 34962,
			"byteStride": 16,
			"byteOffset": 161024
		},
		{
			"buffer": 0,
			"byteLength": 720,
			"byteStride": 12,
			"byteOffset": 261436
		},
		{
			"buffer": 0,
			"byteLength": 480,
			"byteStride": 16,
			"byteOffset": 262156
		}
	],
	"materials": [
		{
			"pbrMetallicRoughness": {
				"baseColorFactor": [0.654902, 0.654902, 0.654902, 1],
				"metallicFactor": 0,
				"roughnessFactor": 1
			},
			"emissiveFactor": [0, 0, 0],
			"doubleSided": false,
			"name": ""
		}
	],
	"meshes": [
		{
			"name": "mesh_Cylinder003_28082Cylinder003",
			"primitives": [
				{
					"attributes": {
						"POSITION": 0,
						"NORMAL": 1,
						"TEXCOORD_0": 2,
						"TANGENT": 3
					},
					"indices": 4,
					"material": 0,
					"mode": 4
				}
			]
		},
		{
			"name": "mesh_Sphere_528Sphere",
			"primitives": [
				{
					"attributes": {
						"POSITION": 5,
						"NORMAL": 6,
						"TEXCOORD_0": 7,
						"TEXCOORD_1": 8,
						"TANGENT": 9
					},
					"indices": 10,
					"material": 0,
					"mode": 4
				}
			]
		},
		{
			"name": "mesh_Sphere_528Sphere (6)",
			"primitives": [
				{
					"attributes": {
						"POSITION": 11,
						"NORMAL": 12,
						"TEXCOORD_0": 13,
						"TEXCOORD_1": 14,
						"TANGENT": 15
					},
					"indices": 16,
					"material": 0,
					"mode": 4
				}
			]
		},
		{
			"name": "mesh_Cylinder001_28080Cylinder001",
			"primitives": [
				{
					"attributes": {
						"POSITION": 17,
						"NORMAL": 18,
						"TEXCOORD_0": 19,
						"TANGENT": 20
					},
					"indices": 21,
					"material": 0,
					"mode": 4
				}
			]
		},
		{
			"name": "mesh_Sphere_528Sphere (3)",
			"primitives": [
				{
					"attributes": {
						"POSITION": 22,
						"NORMAL": 23,
						"TEXCOORD_0": 24,
						"TEXCOORD_1": 25,
						"TANGENT": 26
					},
					"indices": 27,
					"material": 0,
					"mode": 4
				}
			]
		},
		{
			"name": "mesh_Sphere_528Sphere (4)",
			"primitives": [
				{
					"attributes": {
						"POSITION": 28,
						"NORMAL": 29,
						"TEXCOORD_0": 30,
						"TEXCOORD_1": 31,
						"TANGENT": 32
					},
					"indices": 33,
					"material": 0,
					"mode": 4
				}
			]
		},
		{
			"name": "mesh_Sphere_528Sphere (2)",
			"primitives": [
				{
					"attributes": {
						"POSITION": 38,
						"NORMAL": 39,
						"TEXCOORD_0": 40,
						"TEXCOORD_1": 41,
						"TANGENT": 42
					},
					"indices": 43,
					"material": 0,
					"mode": 4
				}
			]
		},
		{
			"name": "mesh_Cylinder002_28078Cylinder002",
			"primitives": [
				{
					"attributes": {
						"POSITION": 44,
						"NORMAL": 45,
						"TEXCOORD_0": 46,
						"TANGENT": 47
					},
					"indices": 48,
					"material": 0,
					"mode": 4
				}
			]
		},
		{
			"name": "mesh_Sphere_528Sphere (1)",
			"primitives": [
				{
					"attributes": {
						"POSITION": 49,
						"NORMAL": 50,
						"TEXCOORD_0": 51,
						"TEXCOORD_1": 52,
						"TANGENT": 53
					},
					"indices": 54,
					"material": 0,
					"mode": 4
				}
			]
		},
		{
			"name": "mesh_Sphere_528Sphere (5)",
			"primitives": [
				{
					"attributes": {
						"POSITION": 55,
						"NORMAL": 56,
						"TEXCOORD_0": 57,
						"TEXCOORD_1": 58,
						"TANGENT": 59
					},
					"indices": 60,
					"material": 0,
					"mode": 4
				}
			]
		}
	],
	"nodes": [
		{
			"name": "UnityGlTF_root",
			"children": [
				5
			]
		},
		{
			"name": "node_Cylinder003_-53624",
			"mesh": 0,
			"translation": [ 1.833134, 0.3469468, 0.3078426],
			"rotation": [-0.7071068, 0, 0, -0.7071068]
		},
		{
			"name": "node_Sphere_-53632",
			"mesh": 1,
			"translation": [ 0.1498356, -0.1500611, -0.1083431],
			"scale": [ 0.1, 0.1, 0.1]
		},
		{
			"name": "node_Sphere (6)_-53568",
			"mesh": 2,
			"translation": [ 0.3268356, -0.09706116, -0.1083431],
			"scale": [ 0.1, 0.1, 0.1]
		},
		{
			"name": "node_Cylinder001_-53584",
			"mesh": 3,
			"translation": [ 1.833134, 0.05818007, 0.3078426],
			"rotation": [-0.7071068, 0, 0, -0.7071068]
		},
		{
			"name": "node__-53570",
			"children": [
				9,
				8
			],
			"matrix": [1, 0, 0, 0, 0, 1, 0, 0, 0, 0, 1, 0, -12.60068, 4.752564, 23.30701, 1]
		},
		{
			"name": "node_Sphere (3)_-53660",
			"mesh": 4,
			"translation": [ 0.1498356, -0.1500611, -0.3213444],
			"scale": [ 0.1, 0.1, 0.1]
		},
		{
			"name": "node_Sphere (4)_-53580",
			"mesh": 5,
			"translation": [ -0.03216457, -0.2740612, -0.1053448],
			"scale": [ 0.1, 0.1, 0.1]
		},
		{
			"name": "node_1222_-53614",
			"children": [
				4,
				11,
				1
			],
			"translation": [ -1.765, -0.2878003, -0.3863339]
		},
		{
			"name": "node_GameObject_-53618",
			"children": [
				2,
				12,
				10,
				6,
				7,
				13,
				3
			],
			"translation": [ 0, 0, -0.302]
		},
		{
			"name": "node_Sphere (2)_-53564",
			"mesh": 6,
			"translation": [ -0.1461639, -0.1500611, -0.1083431],
			"scale": [ 0.1, 0.1, 0.1]
		},
		{
			"name": "node_Cylinder002_-53594",
			"mesh": 7,
			"translation": [ 1.833134, 0.2068826, 0.3078426],
			"rotation": [-0.7071068, 0, 0, -0.7071068]
		},
		{
			"name": "node_Sphere (1)_-53582",
			"mesh": 8,
			"translation": [ -0.09616375, -0.1500611, -0.3483448],
			"scale": [ 0.1, 0.1, 0.1]
		},
		{
			"name": "node_Sphere (5)_-53578",
			"mesh": 9,
			"translation": [ 0.183836, 0.05993891, -0.3993435],
			"scale": [ 0.1, 0.1, 0.1]
		}
	],
	"scenes": [
		{
			"name":"defaultScene",
			"nodes": [
				0
			]
		}
	],
	"scene": 0
}