{
	"asset": {
		"generator": "Unity 2018.3.11f1",
		"extras": {
			"exporterVersion" : "2.2.1"
		},
		"version": "2.0"
	},
	"accessors": [
		{
			"bufferView": 3,
			"byteOffset": 0,
			"componentType": 5126,
			"count": 606,
			"max": [ 0.21875, 0.684, 0 ],
			"min": [ -0.21875, 0.016, -0.03406 ],
			"type": "VEC3"
		},
		{
			"bufferView": 3,
			"byteOffset": 7272,
			"componentType": 5126,
			"count": 606,
			"max": [ 1, 1, 0 ],
			"min": [ -1, -1, -1 ],
			"type": "VEC3"
		},
		{
			"bufferView": 4,
			"byteOffset": 0,
			"componentType": 5126,
			"count": 606,
			"max": [ 1, 0, 0, 1 ],
			"min": [ 1, 0, 0, 1 ],
			"type": "VEC4"
		},
		{
			"bufferView": 0,
			"byteOffset": 0,
			"componentType": 5123,
			"count": 1134,
			"max": [ 605 ],
			"min": [ 0 ],
			"type": "SCALAR"
		},
		{
			"bufferView": 1,
			"byteOffset": 0,
			"componentType": 5126,
			"count": 100,
			"max": [ 3.333 ],
			"min": [ 0 ],
			"type": "SCALAR"
		},
		{
			"bufferView": 5,
			"byteOffset": 0,
			"componentType": 5126,
			"count": 100,
			"max": [ -0.06541687, 0.09997021, -1.647256 ],
			"min": [ -0.06541687, 0, -1.647256 ],
			"type": "VEC3"
		},
		{
			"bufferView": 6,
			"byteOffset": 0,
			"componentType": 5126,
			"count": 100,
			"max": [ -2.164891E-17, 0.7071067, -2.16489E-17, -0.7071068 ],
			"min": [ -2.164891E-17, 0.7071067, -2.16489E-17, -0.7071068 ],
			"type": "VEC4"
		},
		{
			"bufferView": 5,
			"byteOffset": 1200,
			"componentType": 5126,
			"count": 100,
			"max": [ 1, 1, 1 ],
			"min": [ 1, 1, 1 ],
			"type": "VEC3"
		},
		{
			"bufferView": 1,
			"byteOffset": 400,
			"componentType": 5126,
			"count": 100,
			"max": [ 3.333 ],
			"min": [ 0 ],
			"type": "SCALAR"
		},
		{
			"bufferView": 5,
			"byteOffset": 2400,
			"componentType": 5126,
			"count": 100,
			"max": [ -0.01488718, 0.5842403, -2.740381 ],
			"min": [ -0.01488718, 0.4842689, -2.740381 ],
			"type": "VEC3"
		},
		{
			"bufferView": 6,
			"byteOffset": 1600,
			"componentType": 5126,
			"count": 100,
			"max": [ 6.123234E-17, 1, 6.123234E-17, 6.123234E-17 ],
			"min": [ 6.123234E-17, 1, 6.123234E-17, 6.123234E-17 ],
			"type": "VEC4"
		},
		{
			"bufferView": 5,
			"byteOffset": 3600,
			"componentType": 5126,
			"count": 100,
			"max": [ 3.99175, 3.978445, 3.326459 ],
			"min": [ 3.99175, 3.978445, 3.326459 ],
			"type": "VEC3"
		},
		{
			"bufferView": 3,
			"byteOffset": 14544,
			"componentType": 5126,
			"count": 21109,
			"max": [ 0.03300507, 0.1068513, 0.03163742 ],
			"min": [ -0.03232147, -0.1210478, -0.185088 ],
			"type": "VEC3"
		},
		{
			"bufferView": 3,
			"byteOffset": 267852,
			"componentType": 5126,
			"count": 21109,
			"max": [ 1, 1, 1 ],
			"min": [ -1, -1, -1 ],
			"type": "VEC3"
		},
		{
			"bufferView": 2,
			"byteOffset": 0,
			"componentType": 5126,
			"count": 21109,
			"max": [ 207.6508, 75 ],
			"min": [ -207.6508, -101.3 ],
			"type": "VEC2"
		},
		{
			"bufferView": 4,
			"byteOffset": 9696,
			"componentType": 5126,
			"count": 21109,
			"max": [ 1, 1, 1, 1 ],
			"min": [ -1, -1, -1, -1 ],
			"type": "VEC4"
		},
		{
			"bufferView": 0,
			"byteOffset": 2268,
			"componentType": 5123,
			"count": 66963,
			"max": [ 21108 ],
			"min": [ 0 ],
			"type": "SCALAR"
		}
	],
	"animations": [
		{
			"name": "",
			"channels": [
				{
					"sampler": 0,
					"target": {
						"node": 1,
						"path": "translation"
					}
				},
				{
					"sampler": 1,
					"target": {
						"node": 1,
						"path": "rotation"
					}
				},
				{
					"sampler": 2,
					"target": {
						"node": 1,
						"path": "scale"
					}
				},
				{
					"sampler": 3,
					"target": {
						"node": 3,
						"path": "translation"
					}
				},
				{
					"sampler": 4,
					"target": {
						"node": 3,
						"path": "rotation"
					}
				},
				{
					"sampler": 5,
					"target": {
						"node": 3,
						"path": "scale"
					}
				}
			],
			"samplers": [
				{
					"input": 4,
					"interpolation": "LINEAR",
					"output": 5
				},
				{
					"input": 4,
					"interpolation": "LINEAR",
					"output": 6
				},
				{
					"input": 4,
					"interpolation": "LINEAR",
					"output": 7
				},
				{
					"input": 8,
					"interpolation": "LINEAR",
					"output": 9
				},
				{
					"input": 8,
					"interpolation": "LINEAR",
					"output": 10
				},
				{
					"input": 8,
					"interpolation": "LINEAR",
					"output": 11
				}
			]
		}
	],
	"buffers": [
		{
			"byteLength": 1182466,
			"uri": "高速加油站服务区.bin"
		}
	],
	"bufferViews": [
		{
			"buffer": 0,
			"byteLength": 136194,
			"target": 34963,
			"byteOffset": 1038272
		},
		{
			"buffer": 0,
			"byteLength": 800,
			"byteOffset": 0
		},
		{
			"buffer": 0,
			"byteLength": 168872,
			"target": 34962,
			"byteStride": 8,
			"byteOffset": 800
		},
		{
			"buffer": 0,
			"byteLength": 521160,
			"target": 34962,
			"byteStride": 12,
			"byteOffset": 169672
		},
		{
			"buffer": 0,
			"byteLength": 347440,
			"target": 34962,
			"byteStride": 16,
			"byteOffset": 690832
		},
		{
			"buffer": 0,
			"byteLength": 4800,
			"byteStride": 12,
			"byteOffset": 1174466
		},
		{
			"buffer": 0,
			"byteLength": 3200,
			"byteStride": 16,
			"byteOffset": 1179266
		}
	],
	"images": [
		{
			"uri": "/Assets/ToGLTF/高速停车区.fbm/green.jpg"
		}
	],
	"materials": [
		{
			"pbrMetallicRoughness": {
				"baseColorTexture" : {
					"index" : 0,
					"texCoord" : 0
				},
				"baseColorFactor": [0.5882353, 0.5882353, 0.5882353, 1],
				"metallicFactor": 0,
				"roughnessFactor": 1
			},
			"emissiveFactor": [0, 0, 0],
			"doubleSided": false,
			"name": "01 - Default"
		},
		{
			"pbrMetallicRoughness": {
				"baseColorFactor": [0.5882353, 0.5882353, 0.5882353, 1],
				"metallicFactor": 0,
				"roughnessFactor": 1
			},
			"emissiveFactor": [0, 0, 0],
			"doubleSided": false,
			"name": "03 - Default"
		}
	],
	"meshes": [
		{
			"name": "mesh_Text002_19944Text002",
			"primitives": [
				{
					"attributes": {
						"POSITION": 0,
						"NORMAL": 1,
						"TANGENT": 2
					},
					"indices": 3,
					"material": 0,
					"mode": 4
				}
			]
		},
		{
			"name": "mesh_Obj3d66-452126-1-299_19946Obj3d66-452126-1-299",
			"primitives": [
				{
					"attributes": {
						"POSITION": 12,
						"NORMAL": 13,
						"TEXCOORD_0": 14,
						"TANGENT": 15
					},
					"indices": 16,
					"material": 1,
					"mode": 4
				}
			]
		}
	],
	"nodes": [
		{
			"name": "UnityGlTF_root",
			"children": [
				2
			]
		},
		{
			"name": "node_Text002_-17090",
			"mesh": 0,
			"translation": [ -0.06541687, 0, -1.647256],
			"rotation": [-2.164891E-17, 0.7071067, -2.16489E-17, -0.7071068]
		},
		{
			"name": "node__-17092",
			"children": [
				3,
				1
			],
			"matrix": [1, 0, 0, 0, 0, 1, 0, 0, 0, 0, 1, 0, 166.0961, 399.0867, -297.005, 1]
		},
		{
			"name": "node_Obj3d66-452126-1-299_-17088",
			"mesh": 1,
			"translation": [ -0.01488718, 0.4842689, -2.740381],
			"scale": [ 3.99175, 3.978445, 3.326459],
			"rotation": [6.123234E-17, 1, 6.123234E-17, 6.123234E-17]
		}
	],
	"samplers": [
		{
			"magFilter": 9729,
			"minFilter": 9985,
			"wrapS": 10497,
			"wrapT": 10497
		}
	],
	"scenes": [
		{
			"name":"defaultScene",
			"nodes": [
				0
			]
		}
	],
	"scene": 0,
	"textures": [
		{
			"sampler": 0,
			"source": 0
		}
	]
}