{
	"asset": {
		"generator": "Unity 2018.3.11f1",
		"extras": {
			"exporterVersion" : "2.2.1"
		},
		"version": "2.0"
	},
	"accessors": [
		{
			"bufferView": 3,
			"byteOffset": 0,
			"componentType": 5126,
			"count": 2178,
			"max": [ 0.009999997, 0.009999997, 0.009999994 ],
			"min": [ -0.01, -0.01, -0.01 ],
			"type": "VEC3"
		},
		{
			"bufferView": 3,
			"byteOffset": 26136,
			"componentType": 5126,
			"count": 2178,
			"max": [ 1, 1, 1 ],
			"min": [ -1, -1, -1 ],
			"type": "VEC3"
		},
		{
			"bufferView": 2,
			"byteOffset": 0,
			"componentType": 5126,
			"count": 2178,
			"max": [ 1, 1 ],
			"min": [ 0, 0 ],
			"type": "VEC2"
		},
		{
			"bufferView": 4,
			"byteOffset": 0,
			"componentType": 5126,
			"count": 2178,
			"max": [ 0.9217121, 1, 0.9217121, 1 ],
			"min": [ -0.957379, -0.386142, -0.9217122, 1 ],
			"type": "VEC4"
		},
		{
			"bufferView": 0,
			"byteOffset": 0,
			"componentType": 5123,
			"count": 1536,
			"max": [ 1023 ],
			"min": [ 0 ],
			"type": "SCALAR"
		},
		{
			"bufferView": 0,
			"byteOffset": 3072,
			"componentType": 5123,
			"count": 768,
			"max": [ 1535 ],
			"min": [ 1024 ],
			"type": "SCALAR"
		},
		{
			"bufferView": 0,
			"byteOffset": 4608,
			"componentType": 5123,
			"count": 576,
			"max": [ 1665 ],
			"min": [ 1536 ],
			"type": "SCALAR"
		},
		{
			"bufferView": 0,
			"byteOffset": 5760,
			"componentType": 5123,
			"count": 384,
			"max": [ 1921 ],
			"min": [ 1666 ],
			"type": "SCALAR"
		},
		{
			"bufferView": 0,
			"byteOffset": 6528,
			"componentType": 5123,
			"count": 384,
			"max": [ 2177 ],
			"min": [ 1922 ],
			"type": "SCALAR"
		},
		{
			"bufferView": 1,
			"byteOffset": 0,
			"componentType": 5126,
			"count": 30,
			"max": [ 0.9666667 ],
			"min": [ 0 ],
			"type": "SCALAR"
		},
		{
			"bufferView": 5,
			"byteOffset": 0,
			"componentType": 5126,
			"count": 30,
			"max": [ 17.52789, -18.73646, 13.20406 ],
			"min": [ 13.95, -18.73646, 13.20406 ],
			"type": "VEC3"
		},
		{
			"bufferView": 6,
			"byteOffset": 0,
			"componentType": 5126,
			"count": 30,
			"max": [ -0.7071068, 0, 0, -0.7071067 ],
			"min": [ -0.7071068, 0, 0, -0.7071067 ],
			"type": "VEC4"
		},
		{
			"bufferView": 5,
			"byteOffset": 360,
			"componentType": 5126,
			"count": 30,
			"max": [ 40.872, 40.872, 40.872 ],
			"min": [ 40.872, 40.872, 40.872 ],
			"type": "VEC3"
		}
	],
	"animations": [
		{
			"name": "Ball",
			"channels": [
				{
					"sampler": 0,
					"target": {
						"node": 1,
						"path": "translation"
					}
				},
				{
					"sampler": 1,
					"target": {
						"node": 1,
						"path": "rotation"
					}
				},
				{
					"sampler": 2,
					"target": {
						"node": 1,
						"path": "scale"
					}
				}
			],
			"samplers": [
				{
					"input": 9,
					"interpolation": "LINEAR",
					"output": 10
				},
				{
					"input": 9,
					"interpolation": "LINEAR",
					"output": 11
				},
				{
					"input": 9,
					"interpolation": "LINEAR",
					"output": 12
				}
			]
		}
	],
	"buffers": [
		{
			"byteLength": 113160,
			"uri": "台球厅.bin"
		}
	],
	"bufferViews": [
		{
			"buffer": 0,
			"byteLength": 7296,
			"target": 34963,
			"byteOffset": 104664
		},
		{
			"buffer": 0,
			"byteLength": 120,
			"byteOffset": 0
		},
		{
			"buffer": 0,
			"byteLength": 17424,
			"target": 34962,
			"byteStride": 8,
			"byteOffset": 120
		},
		{
			"buffer": 0,
			"byteLength": 52272,
			"target": 34962,
			"byteStride": 12,
			"byteOffset": 17544
		},
		{
			"buffer": 0,
			"byteLength": 34848,
			"target": 34962,
			"byteStride": 16,
			"byteOffset": 69816
		},
		{
			"buffer": 0,
			"byteLength": 720,
			"byteStride": 12,
			"byteOffset": 111960
		},
		{
			"buffer": 0,
			"byteLength": 480,
			"byteStride": 16,
			"byteOffset": 112680
		}
	],
	"images": [
		{
			"uri": "/Assets/BarcadeGamesAssetPack/Materials/PoolBallsMaps/Ball11.jpg"
		}
	],
	"materials": [
		{
			"pbrMetallicRoughness": {
				"baseColorFactor": [0.7907625, 0.8000001, 0.6475432, 1],
				"metallicFactor": 0,
				"roughnessFactor": 1
			},
			"emissiveFactor": [0, 0, 0],
			"doubleSided": false,
			"name": "White"
		},
		{
			"pbrMetallicRoughness": {
				"baseColorFactor": [0, 0.0002516108, 0.3505551, 1],
				"metallicFactor": 0,
				"roughnessFactor": 1
			},
			"emissiveFactor": [0, 0, 0],
			"doubleSided": false,
			"name": "Color"
		},
		{
			"pbrMetallicRoughness": {
				"baseColorTexture" : {
					"index" : 0,
					"texCoord" : 0
				},
				"baseColorFactor": [0.8, 0.8, 0.8, 1],
				"metallicFactor": 0,
				"roughnessFactor": 1
			},
			"emissiveFactor": [0, 0, 0],
			"doubleSided": false,
			"name": "Number"
		},
		{
			"pbrMetallicRoughness": {
				"baseColorFactor": [0, 0, 0, 1],
				"metallicFactor": 0,
				"roughnessFactor": 1
			},
			"emissiveFactor": [0, 0, 0],
			"doubleSided": false,
			"name": "InnerRing"
		},
		{
			"pbrMetallicRoughness": {
				"baseColorFactor": [0.009018122, 0.009018122, 0.009018122, 1],
				"metallicFactor": 0,
				"roughnessFactor": 1
			},
			"emissiveFactor": [0, 0, 0],
			"doubleSided": false,
			"name": "Black"
		}
	],
	"meshes": [
		{
			"name": "mesh_Sphere_23174Ball",
			"primitives": [
				{
					"attributes": {
						"POSITION": 0,
						"NORMAL": 1,
						"TEXCOORD_0": 2,
						"TANGENT": 3
					},
					"indices": 4,
					"material": 0,
					"mode": 4
				},
				{
					"attributes": {
						"POSITION": 0,
						"NORMAL": 1,
						"TEXCOORD_0": 2,
						"TANGENT": 3
					},
					"indices": 5,
					"material": 1,
					"mode": 4
				},
				{
					"attributes": {
						"POSITION": 0,
						"NORMAL": 1,
						"TEXCOORD_0": 2,
						"TANGENT": 3
					},
					"indices": 6,
					"material": 2,
					"mode": 4
				},
				{
					"attributes": {
						"POSITION": 0,
						"NORMAL": 1,
						"TEXCOORD_0": 2,
						"TANGENT": 3
					},
					"indices": 7,
					"material": 3,
					"mode": 4
				},
				{
					"attributes": {
						"POSITION": 0,
						"NORMAL": 1,
						"TEXCOORD_0": 2,
						"TANGENT": 3
					},
					"indices": 8,
					"material": 4,
					"mode": 4
				}
			]
		}
	],
	"nodes": [
		{
			"name": "UnityGlTF_root",
			"children": [
				1
			]
		},
		{
			"name": "node_Ball_-60724",
			"mesh": 0,
			"matrix": [40.872, 0, 0, 0, 0, -4.872321E-06, 40.87199, 0, 0, -40.87199, -4.872321E-06, 0, 17.53959, -18.73646, 13.20406, 1]
		}
	],
	"samplers": [
		{
			"magFilter": 9729,
			"minFilter": 9985,
			"wrapS": 10497,
			"wrapT": 10497
		}
	],
	"scenes": [
		{
			"name":"defaultScene",
			"nodes": [
				0
			]
		}
	],
	"scene": 0,
	"textures": [
		{
			"sampler": 0,
			"source": 0
		}
	]
}