{
	"asset": {
		"generator": "Unity 2018.3.11f1",
		"extras": {
			"exporterVersion" : "2.2.1"
		},
		"version": "2.0"
	},
	"accessors": [
		{
			"bufferView": 3,
			"byteOffset": 0,
			"componentType": 5126,
			"count": 1233,
			"max": [ 0.381, 0.381, 0.0006410301 ],
			"min": [ -0.381, -0.381, -1.016 ],
			"type": "VEC3"
		},
		{
			"bufferView": 3,
			"byteOffset": 14796,
			"componentType": 5126,
			"count": 1233,
			"max": [ 1, 1, 1 ],
			"min": [ -1, -0.9875474, -1 ],
			"type": "VEC3"
		},
		{
			"bufferView": 2,
			"byteOffset": 0,
			"componentType": 5126,
			"count": 1233,
			"max": [ 1, 1 ],
			"min": [ 0, 0 ],
			"type": "VEC2"
		},
		{
			"bufferView": 4,
			"byteOffset": 0,
			"componentType": 5126,
			"count": 1233,
			"max": [ 1, 1, 0.4195943, 1 ],
			"min": [ -1, -1, -0.3566184, 1 ],
			"type": "VEC4"
		},
		{
			"bufferView": 0,
			"byteOffset": 0,
			"componentType": 5123,
			"count": 6546,
			"max": [ 1232 ],
			"min": [ 0 ],
			"type": "SCALAR"
		},
		{
			"bufferView": 3,
			"byteOffset": 29592,
			"componentType": 5126,
			"count": 121,
			"max": [ 5, 1.110223E-16, 5 ],
			"min": [ -5, -1.110223E-16, -5 ],
			"type": "VEC3"
		},
		{
			"bufferView": 3,
			"byteOffset": 31044,
			"componentType": 5126,
			"count": 121,
			"max": [ 0, 1, 0 ],
			"min": [ 0, 1, 0 ],
			"type": "VEC3"
		},
		{
			"bufferView": 2,
			"byteOffset": 9864,
			"componentType": 5126,
			"count": 121,
			"max": [ 1, 1 ],
			"min": [ 0, 0 ],
			"type": "VEC2"
		},
		{
			"bufferView": 4,
			"byteOffset": 19728,
			"componentType": 5126,
			"count": 121,
			"max": [ -1, 0, 0, 1 ],
			"min": [ -1, 0, 0, 1 ],
			"type": "VEC4"
		},
		{
			"bufferView": 0,
			"byteOffset": 13092,
			"componentType": 5123,
			"count": 600,
			"max": [ 120 ],
			"min": [ 0 ],
			"type": "SCALAR"
		},
		{
			"bufferView": 1,
			"byteOffset": 0,
			"componentType": 5126,
			"count": 30,
			"max": [ 0.9666667 ],
			"min": [ 0 ],
			"type": "SCALAR"
		},
		{
			"bufferView": 5,
			"byteOffset": 0,
			"componentType": 5126,
			"count": 30,
			"max": [ 0.01619148, 0.5355883, -0.2088375 ],
			"min": [ 0.01619148, 0.4562594, -0.2648169 ],
			"type": "VEC3"
		},
		{
			"bufferView": 6,
			"byteOffset": 0,
			"componentType": 5126,
			"count": 30,
			"max": [ 0.4613077, 0, 0, -0.8872403 ],
			"min": [ 0.4613077, 0, 0, -0.8872403 ],
			"type": "VEC4"
		},
		{
			"bufferView": 5,
			"byteOffset": 360,
			"componentType": 5126,
			"count": 30,
			"max": [ -0.038738, 1, 0.1125234 ],
			"min": [ -0.038738, 1, 0.1125234 ],
			"type": "VEC3"
		},
		{
			"bufferView": 3,
			"byteOffset": 32496,
			"componentType": 5126,
			"count": 497,
			"max": [ -0.9190368, 0.3752217, -0.791715 ],
			"min": [ -1.133349, 0.2656739, -0.9335096 ],
			"type": "VEC3"
		},
		{
			"bufferView": 3,
			"byteOffset": 38460,
			"componentType": 5126,
			"count": 497,
			"max": [ 0.9031724, -0.07225899, 0.2880924 ],
			"min": [ -0.8714784, -0.9936167, -0.9826331 ],
			"type": "VEC3"
		},
		{
			"bufferView": 2,
			"byteOffset": 10832,
			"componentType": 5126,
			"count": 497,
			"max": [ 0.65625, 0.875 ],
			"min": [ 0.375, 0.75 ],
			"type": "VEC2"
		},
		{
			"bufferView": 4,
			"byteOffset": 21664,
			"componentType": 5126,
			"count": 497,
			"max": [ -0.4292645, 0.7241479, 0.5536361, 1 ],
			"min": [ -1, -0.7341536, -0.538047, 1 ],
			"type": "VEC4"
		},
		{
			"bufferView": 0,
			"byteOffset": 14292,
			"componentType": 5123,
			"count": 2664,
			"max": [ 496 ],
			"min": [ 0 ],
			"type": "SCALAR"
		},
		{
			"bufferView": 3,
			"byteOffset": 44424,
			"componentType": 5126,
			"count": 5449,
			"max": [ 2.398568, 0.8940284, 0.2149924 ],
			"min": [ -2.398568, -0.8940284, -0.2149924 ],
			"type": "VEC3"
		},
		{
			"bufferView": 3,
			"byteOffset": 109812,
			"componentType": 5126,
			"count": 5449,
			"max": [ 0.9999999, 1, 1 ],
			"min": [ -0.9995974, -1, -1 ],
			"type": "VEC3"
		},
		{
			"bufferView": 2,
			"byteOffset": 14808,
			"componentType": 5126,
			"count": 5449,
			"max": [ 0.8234839, 0.9968836 ],
			"min": [ 0.00311644, 0.003116488 ],
			"type": "VEC2"
		},
		{
			"bufferView": 4,
			"byteOffset": 29616,
			"componentType": 5126,
			"count": 5449,
			"max": [ 0.9999999, 1, 0.3788593, 1 ],
			"min": [ -0.9999951, -1, -0.9999522, -1 ],
			"type": "VEC4"
		},
		{
			"bufferView": 0,
			"byteOffset": 19620,
			"componentType": 5123,
			"count": 17742,
			"max": [ 5448 ],
			"min": [ 0 ],
			"type": "SCALAR"
		},
		{
			"bufferView": 1,
			"byteOffset": 120,
			"componentType": 5126,
			"count": 30,
			"max": [ 0.9666667 ],
			"min": [ 0 ],
			"type": "SCALAR"
		},
		{
			"bufferView": 5,
			"byteOffset": 720,
			"componentType": 5126,
			"count": 30,
			"max": [ 0.2736993, 0.7761418, -0.0890125 ],
			"min": [ 0.2736993, 0.63546, -0.1876774 ],
			"type": "VEC3"
		},
		{
			"bufferView": 6,
			"byteOffset": 480,
			"componentType": 5126,
			"count": 30,
			"max": [ -0.2126311, 0.2126311, -0.6743798, -0.6743798 ],
			"min": [ -0.2126311, 0.2126311, -0.6743798, -0.6743798 ],
			"type": "VEC4"
		},
		{
			"bufferView": 5,
			"byteOffset": 1080,
			"componentType": 5126,
			"count": 30,
			"max": [ 0.05000002, 0.05000003, 0.05000001 ],
			"min": [ 0.05000002, 0.05000003, 0.05000001 ],
			"type": "VEC3"
		},
		{
			"bufferView": 3,
			"byteOffset": 175200,
			"componentType": 5126,
			"count": 118,
			"max": [ -0.7900376, -0.1289923, -0.002953714 ],
			"min": [ -1.242475, -0.3021482, -0.1940947 ],
			"type": "VEC3"
		},
		{
			"bufferView": 3,
			"byteOffset": 176616,
			"componentType": 5126,
			"count": 118,
			"max": [ 0.4650681, -0.1753431, -0.1640618 ],
			"min": [ -0.474321, -0.9864494, -0.9838955 ],
			"type": "VEC3"
		},
		{
			"bufferView": 2,
			"byteOffset": 58400,
			"componentType": 5126,
			"count": 118,
			"max": [ 0.84375, 0.1875 ],
			"min": [ 0.25, 0 ],
			"type": "VEC2"
		},
		{
			"bufferView": 4,
			"byteOffset": 116800,
			"componentType": 5126,
			"count": 118,
			"max": [ -0.8708985, 0.4384811, 0.3197314, 1 ],
			"min": [ -0.9999994, -0.4301909, -0.2842845, 1 ],
			"type": "VEC4"
		},
		{
			"bufferView": 0,
			"byteOffset": 55104,
			"componentType": 5123,
			"count": 552,
			"max": [ 117 ],
			"min": [ 0 ],
			"type": "SCALAR"
		},
		{
			"bufferView": 1,
			"byteOffset": 240,
			"componentType": 5126,
			"count": 30,
			"max": [ 0.9666667 ],
			"min": [ 0 ],
			"type": "SCALAR"
		},
		{
			"bufferView": 5,
			"byteOffset": 1440,
			"componentType": 5126,
			"count": 30,
			"max": [ 0.963, 0.001967407, -0.3 ],
			"min": [ 0.963, -0.008, -0.3129576 ],
			"type": "VEC3"
		},
		{
			"bufferView": 6,
			"byteOffset": 960,
			"componentType": 5126,
			"count": 30,
			"max": [ -0.7071068, 0, 0, -0.7071068 ],
			"min": [ -0.7071068, 0, 0, -0.7071068 ],
			"type": "VEC4"
		},
		{
			"bufferView": 5,
			"byteOffset": 1800,
			"componentType": 5126,
			"count": 30,
			"max": [ 1, 1, 1 ],
			"min": [ 1, 1, 1 ],
			"type": "VEC3"
		}
	],
	"animations": [
		{
			"name": "Plane",
			"channels": [
				{
					"sampler": 0,
					"target": {
						"node": 2,
						"path": "translation"
					}
				},
				{
					"sampler": 1,
					"target": {
						"node": 2,
						"path": "rotation"
					}
				},
				{
					"sampler": 2,
					"target": {
						"node": 2,
						"path": "scale"
					}
				}
			],
			"samplers": [
				{
					"input": 10,
					"interpolation": "LINEAR",
					"output": 11
				},
				{
					"input": 10,
					"interpolation": "LINEAR",
					"output": 12
				},
				{
					"input": 10,
					"interpolation": "LINEAR",
					"output": 13
				}
			]
		},
		{
			"name": "arrow_1",
			"channels": [
				{
					"sampler": 0,
					"target": {
						"node": 5,
						"path": "translation"
					}
				},
				{
					"sampler": 1,
					"target": {
						"node": 5,
						"path": "rotation"
					}
				},
				{
					"sampler": 2,
					"target": {
						"node": 5,
						"path": "scale"
					}
				}
			],
			"samplers": [
				{
					"input": 24,
					"interpolation": "LINEAR",
					"output": 25
				},
				{
					"input": 24,
					"interpolation": "LINEAR",
					"output": 26
				},
				{
					"input": 24,
					"interpolation": "LINEAR",
					"output": 27
				}
			]
		},
		{
			"name": "003",
			"channels": [
				{
					"sampler": 0,
					"target": {
						"node": 6,
						"path": "translation"
					}
				},
				{
					"sampler": 1,
					"target": {
						"node": 6,
						"path": "rotation"
					}
				},
				{
					"sampler": 2,
					"target": {
						"node": 6,
						"path": "scale"
					}
				}
			],
			"samplers": [
				{
					"input": 33,
					"interpolation": "LINEAR",
					"output": 34
				},
				{
					"input": 33,
					"interpolation": "LINEAR",
					"output": 35
				},
				{
					"input": 33,
					"interpolation": "LINEAR",
					"output": 36
				}
			]
		}
	],
	"buffers": [
		{
			"byteLength": 416232,
			"uri": "标准型泥石流.bin"
		}
	],
	"bufferViews": [
		{
			"buffer": 0,
			"byteLength": 56208,
			"target": 34963,
			"byteOffset": 356424
		},
		{
			"buffer": 0,
			"byteLength": 360,
			"byteOffset": 0
		},
		{
			"buffer": 0,
			"byteLength": 59344,
			"target": 34962,
			"byteStride": 8,
			"byteOffset": 360
		},
		{
			"buffer": 0,
			"byteLength": 178032,
			"target": 34962,
			"byteStride": 12,
			"byteOffset": 59704
		},
		{
			"buffer": 0,
			"byteLength": 118688,
			"target": 34962,
			"byteStride": 16,
			"byteOffset": 237736
		},
		{
			"buffer": 0,
			"byteLength": 2160,
			"byteStride": 12,
			"byteOffset": 412632
		},
		{
			"buffer": 0,
			"byteLength": 1440,
			"byteStride": 16,
			"byteOffset": 414792
		}
	],
	"images": [
		{
			"uri": "/Assets/泥石流-标准/Textures/tur2.jpg"
		},
		{
			"uri": "/Assets/泥石流-标准/Textures/mud.jpg"
		},
		{
			"uri": "/Assets/泥石流-标准/Textures/shanti4 - 副本.jpg"
		},
		{
			"uri": "/Assets/泥石流-标准/Textures/tur6.jpg"
		}
	],
	"materials": [
		{
			"pbrMetallicRoughness": {
				"baseColorTexture" : {
					"index" : 0,
					"texCoord" : 0
				},
				"baseColorFactor": [1, 1, 1, 1],
				"metallicFactor": 0,
				"roughnessFactor": 0.5
			},
			"emissiveFactor": [0, 0, 0],
			"doubleSided": false,
			"name": "tur2"
		},
		{
			"pbrMetallicRoughness": {
				"baseColorTexture" : {
					"index" : 1,
					"texCoord" : 0
				},
				"baseColorFactor": [1, 1, 1, 1],
				"metallicFactor": 0,
				"roughnessFactor": 0.5
			},
			"emissiveFactor": [0, 0, 0],
			"doubleSided": false,
			"name": "mud"
		},
		{
			"pbrMetallicRoughness": {
				"baseColorTexture" : {
					"index" : 2,
					"texCoord" : 0
				},
				"baseColorFactor": [1, 1, 1, 1],
				"metallicFactor": 0,
				"roughnessFactor": 0.5
			},
			"emissiveFactor": [0, 0, 0],
			"doubleSided": false,
			"name": "shanti4 - "
		},
		{
			"pbrMetallicRoughness": {
				"baseColorFactor": [1, 0.1259843, 0.3736221, 1],
				"metallicFactor": 0,
				"roughnessFactor": 0.5
			},
			"emissiveFactor": [0, 0, 0],
			"doubleSided": false,
			"name": "Arrow Material"
		},
		{
			"pbrMetallicRoughness": {
				"baseColorTexture" : {
					"index" : 3,
					"texCoord" : 0
				},
				"baseColorFactor": [1, 1, 1, 1],
				"metallicFactor": 0,
				"roughnessFactor": 0.5
			},
			"emissiveFactor": [0, 0, 0],
			"doubleSided": false,
			"name": "tur6"
		}
	],
	"meshes": [
		{
			"name": "mesh_Box001_2964Box001",
			"primitives": [
				{
					"attributes": {
						"POSITION": 0,
						"NORMAL": 1,
						"TEXCOORD_0": 2,
						"TANGENT": 3
					},
					"indices": 4,
					"material": 0,
					"mode": 4
				}
			]
		},
		{
			"name": "mesh_Plane_536Plane",
			"primitives": [
				{
					"attributes": {
						"POSITION": 5,
						"NORMAL": 6,
						"TEXCOORD_0": 7,
						"TANGENT": 8
					},
					"indices": 9,
					"material": 1,
					"mode": 4
				}
			]
		},
		{
			"name": "mesh_001_3060001",
			"primitives": [
				{
					"attributes": {
						"POSITION": 14,
						"NORMAL": 15,
						"TEXCOORD_0": 16,
						"TANGENT": 17
					},
					"indices": 18,
					"material": 2,
					"mode": 4
				}
			]
		},
		{
			"name": "mesh_arrow_1_2520arrow_1",
			"primitives": [
				{
					"attributes": {
						"POSITION": 19,
						"NORMAL": 20,
						"TEXCOORD_0": 21,
						"TANGENT": 22
					},
					"indices": 23,
					"material": 3,
					"mode": 4
				}
			]
		},
		{
			"name": "mesh_003_2970003",
			"primitives": [
				{
					"attributes": {
						"POSITION": 28,
						"NORMAL": 29,
						"TEXCOORD_0": 30,
						"TANGENT": 31
					},
					"indices": 32,
					"material": 4,
					"mode": 4
				}
			]
		}
	],
	"nodes": [
		{
			"name": "UnityGlTF_root",
			"children": [
				3
			]
		},
		{
			"name": "node_Box001_-1096",
			"mesh": 0,
			"translation": [ -0.01251137, 0, -0.2190155],
			"rotation": [-0.7071068, 0, 0, -0.7071068]
		},
		{
			"name": "node_Plane_-1102",
			"mesh": 1,
			"translation": [ 0.01619148, 0.5355883, -0.2088375],
			"scale": [ -0.038738, 1, 0.1125234],
			"rotation": [0.4613077, 0, 0, -0.8872403]
		},
		{
			"name": "node_-_-1092",
			"children": [
				4,
				1,
				6,
				5,
				2
			],
			"matrix": [1, 0, 0, 0, 0, 1, 0, 0, 0, 0, 1, 0, 22.44281, 9.701412, -11.31516, 1]
		},
		{
			"name": "node_001_-1094",
			"mesh": 2,
			"translation": [ 0.9876993, -0.04671627, -0.3597902],
			"rotation": [-0.7071068, 0, 0, -0.7071068]
		},
		{
			"name": "node_arrow_1_-1100",
			"mesh": 3,
			"translation": [ 0.2736993, 0.7761418, -0.0890125],
			"scale": [ 0.05000002, 0.05000003, 0.05000001],
			"rotation": [-0.2126311, 0.2126311, -0.6743798, -0.6743798]
		},
		{
			"name": "node_003_-1098",
			"mesh": 4,
			"translation": [ 0.963, -0.008, -0.3],
			"rotation": [-0.7071068, 0, 0, -0.7071068]
		}
	],
	"samplers": [
		{
			"magFilter": 9729,
			"minFilter": 9985,
			"wrapS": 10497,
			"wrapT": 10497
		}
	],
	"scenes": [
		{
			"name":"defaultScene",
			"nodes": [
				0
			]
		}
	],
	"scene": 0,
	"textures": [
		{
			"sampler": 0,
			"source": 0
		},
		{
			"sampler": 0,
			"source": 1
		},
		{
			"sampler": 0,
			"source": 2
		},
		{
			"sampler": 0,
			"source": 3
		}
	]
}