{
	"asset": {
		"generator": "Unity 2018.3.11f1",
		"extras": {
			"exporterVersion" : "2.2.1"
		},
		"version": "2.0"
	},
	"accessors": [
		{
			"bufferView": 3,
			"byteOffset": 0,
			"componentType": 5126,
			"count": 118,
			"max": [ -0.7900376, -0.1289923, -0.002953714 ],
			"min": [ -1.242475, -0.3021482, -0.1940947 ],
			"type": "VEC3"
		},
		{
			"bufferView": 3,
			"byteOffset": 1416,
			"componentType": 5126,
			"count": 118,
			"max": [ 0.4650681, -0.1753431, -0.1640618 ],
			"min": [ -0.474321, -0.9864494, -0.9838955 ],
			"type": "VEC3"
		},
		{
			"bufferView": 2,
			"byteOffset": 0,
			"componentType": 5126,
			"count": 118,
			"max": [ 0.84375, 0.1875 ],
			"min": [ 0.25, 0 ],
			"type": "VEC2"
		},
		{
			"bufferView": 4,
			"byteOffset": 0,
			"componentType": 5126,
			"count": 118,
			"max": [ -0.8708985, 0.4384811, 0.3197314, 1 ],
			"min": [ -0.9999994, -0.4301909, -0.2842845, 1 ],
			"type": "VEC4"
		},
		{
			"bufferView": 0,
			"byteOffset": 0,
			"componentType": 5123,
			"count": 552,
			"max": [ 117 ],
			"min": [ 0 ],
			"type": "SCALAR"
		},
		{
			"bufferView": 3,
			"byteOffset": 2832,
			"componentType": 5126,
			"count": 497,
			"max": [ -0.9190368, 0.3752217, -0.791715 ],
			"min": [ -1.133349, 0.2656739, -0.9335096 ],
			"type": "VEC3"
		},
		{
			"bufferView": 3,
			"byteOffset": 8796,
			"componentType": 5126,
			"count": 497,
			"max": [ 0.9031724, -0.07225899, 0.2880924 ],
			"min": [ -0.8714784, -0.9936167, -0.9826331 ],
			"type": "VEC3"
		},
		{
			"bufferView": 2,
			"byteOffset": 944,
			"componentType": 5126,
			"count": 497,
			"max": [ 0.65625, 0.875 ],
			"min": [ 0.375, 0.75 ],
			"type": "VEC2"
		},
		{
			"bufferView": 4,
			"byteOffset": 1888,
			"componentType": 5126,
			"count": 497,
			"max": [ -0.4292645, 0.7241479, 0.5536361, 1 ],
			"min": [ -1, -0.7341536, -0.538047, 1 ],
			"type": "VEC4"
		},
		{
			"bufferView": 0,
			"byteOffset": 1104,
			"componentType": 5123,
			"count": 2664,
			"max": [ 496 ],
			"min": [ 0 ],
			"type": "SCALAR"
		},
		{
			"bufferView": 3,
			"byteOffset": 14760,
			"componentType": 5126,
			"count": 1233,
			"max": [ 0.381, 0.381, 0.0006410301 ],
			"min": [ -0.381, -0.381, -1.016 ],
			"type": "VEC3"
		},
		{
			"bufferView": 3,
			"byteOffset": 29556,
			"componentType": 5126,
			"count": 1233,
			"max": [ 1, 1, 1 ],
			"min": [ -1, -0.9875474, -1 ],
			"type": "VEC3"
		},
		{
			"bufferView": 2,
			"byteOffset": 4920,
			"componentType": 5126,
			"count": 1233,
			"max": [ 1, 1 ],
			"min": [ 0, 0 ],
			"type": "VEC2"
		},
		{
			"bufferView": 4,
			"byteOffset": 9840,
			"componentType": 5126,
			"count": 1233,
			"max": [ 1, 1, 0.4195943, 1 ],
			"min": [ -1, -1, -0.3566184, 1 ],
			"type": "VEC4"
		},
		{
			"bufferView": 0,
			"byteOffset": 6432,
			"componentType": 5123,
			"count": 6546,
			"max": [ 1232 ],
			"min": [ 0 ],
			"type": "SCALAR"
		},
		{
			"bufferView": 3,
			"byteOffset": 44352,
			"componentType": 5126,
			"count": 121,
			"max": [ 5, 1.110223E-16, 5 ],
			"min": [ -5, -1.110223E-16, -5 ],
			"type": "VEC3"
		},
		{
			"bufferView": 3,
			"byteOffset": 45804,
			"componentType": 5126,
			"count": 121,
			"max": [ 0, 1, 0 ],
			"min": [ 0, 1, 0 ],
			"type": "VEC3"
		},
		{
			"bufferView": 2,
			"byteOffset": 14784,
			"componentType": 5126,
			"count": 121,
			"max": [ 1, 1 ],
			"min": [ 0, 0 ],
			"type": "VEC2"
		},
		{
			"bufferView": 4,
			"byteOffset": 29568,
			"componentType": 5126,
			"count": 121,
			"max": [ -1, 0, 0, 1 ],
			"min": [ -1, 0, 0, 1 ],
			"type": "VEC4"
		},
		{
			"bufferView": 0,
			"byteOffset": 19524,
			"componentType": 5123,
			"count": 600,
			"max": [ 120 ],
			"min": [ 0 ],
			"type": "SCALAR"
		},
		{
			"bufferView": 1,
			"byteOffset": 0,
			"componentType": 5126,
			"count": 30,
			"max": [ 0.9666667 ],
			"min": [ 0 ],
			"type": "SCALAR"
		},
		{
			"bufferView": 5,
			"byteOffset": 0,
			"componentType": 5126,
			"count": 30,
			"max": [ 0.01619148, 0.5355883, -0.2088375 ],
			"min": [ 0.01619148, 0.4562594, -0.2648169 ],
			"type": "VEC3"
		},
		{
			"bufferView": 6,
			"byteOffset": 0,
			"componentType": 5126,
			"count": 30,
			"max": [ 0.4613077, 0, 0, -0.8872403 ],
			"min": [ 0.4613077, 0, 0, -0.8872403 ],
			"type": "VEC4"
		},
		{
			"bufferView": 5,
			"byteOffset": 360,
			"componentType": 5126,
			"count": 30,
			"max": [ -0.038738, 1, 0.1125234 ],
			"min": [ -0.038738, 1, 0.1125234 ],
			"type": "VEC3"
		}
	],
	"animations": [
		{
			"name": "Plane",
			"channels": [
				{
					"sampler": 0,
					"target": {
						"node": 5,
						"path": "translation"
					}
				},
				{
					"sampler": 1,
					"target": {
						"node": 5,
						"path": "rotation"
					}
				},
				{
					"sampler": 2,
					"target": {
						"node": 5,
						"path": "scale"
					}
				}
			],
			"samplers": [
				{
					"input": 20,
					"interpolation": "LINEAR",
					"output": 21
				},
				{
					"input": 20,
					"interpolation": "LINEAR",
					"output": 22
				},
				{
					"input": 20,
					"interpolation": "LINEAR",
					"output": 23
				}
			]
		}
	],
	"buffers": [
		{
			"byteLength": 116556,
			"uri": "标准型泥石流.bin"
		}
	],
	"bufferViews": [
		{
			"buffer": 0,
			"byteLength": 20724,
			"target": 34963,
			"byteOffset": 94632
		},
		{
			"buffer": 0,
			"byteLength": 120,
			"byteOffset": 0
		},
		{
			"buffer": 0,
			"byteLength": 15752,
			"target": 34962,
			"byteStride": 8,
			"byteOffset": 120
		},
		{
			"buffer": 0,
			"byteLength": 47256,
			"target": 34962,
			"byteStride": 12,
			"byteOffset": 15872
		},
		{
			"buffer": 0,
			"byteLength": 31504,
			"target": 34962,
			"byteStride": 16,
			"byteOffset": 63128
		},
		{
			"buffer": 0,
			"byteLength": 720,
			"byteStride": 12,
			"byteOffset": 115356
		},
		{
			"buffer": 0,
			"byteLength": 480,
			"byteStride": 16,
			"byteOffset": 116076
		}
	],
	"images": [
		{
			"uri": "/Assets/沟谷流水地貌/泥石流/Textures/tur6.jpg"
		},
		{
			"uri": "/Assets/沟谷流水地貌/泥石流/Textures/shanti4 - 副本.jpg"
		},
		{
			"uri": "/Assets/沟谷流水地貌/泥石流/Textures/tur2.jpg"
		},
		{
			"uri": "/Assets/沟谷流水地貌/泥石流/Textures/mud.jpg"
		}
	],
	"materials": [
		{
			"pbrMetallicRoughness": {
				"baseColorTexture" : {
					"index" : 0,
					"texCoord" : 0
				},
				"baseColorFactor": [1, 1, 1, 1],
				"metallicFactor": 0,
				"roughnessFactor": 0.5
			},
			"emissiveFactor": [0, 0, 0],
			"doubleSided": false,
			"name": "tur6"
		},
		{
			"pbrMetallicRoughness": {
				"baseColorTexture" : {
					"index" : 1,
					"texCoord" : 0
				},
				"baseColorFactor": [1, 1, 1, 1],
				"metallicFactor": 0,
				"roughnessFactor": 0.5
			},
			"emissiveFactor": [0, 0, 0],
			"doubleSided": false,
			"name": "shanti4 - "
		},
		{
			"pbrMetallicRoughness": {
				"baseColorTexture" : {
					"index" : 2,
					"texCoord" : 0
				},
				"baseColorFactor": [1, 1, 1, 1],
				"metallicFactor": 0,
				"roughnessFactor": 0.5
			},
			"emissiveFactor": [0, 0, 0],
			"doubleSided": false,
			"name": "tur2"
		},
		{
			"pbrMetallicRoughness": {
				"baseColorTexture" : {
					"index" : 3,
					"texCoord" : 0
				},
				"baseColorFactor": [1, 1, 1, 1],
				"metallicFactor": 0,
				"roughnessFactor": 0.5
			},
			"emissiveFactor": [0, 0, 0],
			"doubleSided": false,
			"name": "mud"
		}
	],
	"meshes": [
		{
			"name": "mesh_003_12724003",
			"primitives": [
				{
					"attributes": {
						"POSITION": 0,
						"NORMAL": 1,
						"TEXCOORD_0": 2,
						"TANGENT": 3
					},
					"indices": 4,
					"material": 0,
					"mode": 4
				}
			]
		},
		{
			"name": "mesh_001_12728001",
			"primitives": [
				{
					"attributes": {
						"POSITION": 5,
						"NORMAL": 6,
						"TEXCOORD_0": 7,
						"TANGENT": 8
					},
					"indices": 9,
					"material": 1,
					"mode": 4
				}
			]
		},
		{
			"name": "mesh_Box001_12726Box001",
			"primitives": [
				{
					"attributes": {
						"POSITION": 10,
						"NORMAL": 11,
						"TEXCOORD_0": 12,
						"TANGENT": 13
					},
					"indices": 14,
					"material": 2,
					"mode": 4
				}
			]
		},
		{
			"name": "mesh_Plane_94Plane",
			"primitives": [
				{
					"attributes": {
						"POSITION": 15,
						"NORMAL": 16,
						"TEXCOORD_0": 17,
						"TANGENT": 18
					},
					"indices": 19,
					"material": 3,
					"mode": 4
				}
			]
		}
	],
	"nodes": [
		{
			"name": "UnityGlTF_root",
			"children": [
				2
			]
		},
		{
			"name": "node_003_-6844",
			"mesh": 0,
			"translation": [ 0.963, -0.008, -0.3],
			"rotation": [-0.7071068, 0, 0, -0.7071068]
		},
		{
			"name": "node__-6838",
			"children": [
				3,
				4,
				1,
				5
			],
			"matrix": [1, 0, 0, 0, 0, 1, 0, 0, 0, 0, 1, 0, 1.07, 0, 0, 1]
		},
		{
			"name": "node_001_-6840",
			"mesh": 1,
			"translation": [ 0.9876993, -0.04671627, -0.169],
			"rotation": [-0.7071068, 0, 0, -0.7071068]
		},
		{
			"name": "node_Box001_-6842",
			"mesh": 2,
			"translation": [ -0.01251137, 0, -0.2190155],
			"rotation": [-0.7071068, 0, 0, -0.7071068]
		},
		{
			"name": "node_Plane_-6846",
			"mesh": 3,
			"translation": [ 0.01619148, 0.5355883, -0.2088375],
			"scale": [ -0.038738, 1, 0.1125234],
			"rotation": [0.4613077, 0, 0, -0.8872403]
		}
	],
	"samplers": [
		{
			"magFilter": 9729,
			"minFilter": 9985,
			"wrapS": 10497,
			"wrapT": 10497
		}
	],
	"scenes": [
		{
			"name":"defaultScene",
			"nodes": [
				0
			]
		}
	],
	"scene": 0,
	"textures": [
		{
			"sampler": 0,
			"source": 0
		},
		{
			"sampler": 0,
			"source": 1
		},
		{
			"sampler": 0,
			"source": 2
		},
		{
			"sampler": 0,
			"source": 3
		}
	]
}