{
	"asset": {
		"generator": "Unity 2018.3.11f1",
		"extras": {
			"exporterVersion" : "2.2.1"
		},
		"version": "2.0"
	},
	"accessors": [
		{
			"bufferView": 3,
			"byteOffset": 0,
			"componentType": 5126,
			"count": 230,
			"max": [ 0.5139167, 1.096, 0 ],
			"min": [ -0.5290185, -1.096, -1.034633 ],
			"type": "VEC3"
		},
		{
			"bufferView": 3,
			"byteOffset": 2760,
			"componentType": 5126,
			"count": 230,
			"max": [ 1, 1, 1 ],
			"min": [ -1, -1, -0.9999318 ],
			"type": "VEC3"
		},
		{
			"bufferView": 2,
			"byteOffset": 0,
			"componentType": 5126,
			"count": 230,
			"max": [ 1, 1 ],
			"min": [ 0, 0 ],
			"type": "VEC2"
		},
		{
			"bufferView": 4,
			"byteOffset": 0,
			"componentType": 5126,
			"count": 230,
			"max": [ 1, 1, 0.7952915, 1 ],
			"min": [ -1, -1, -0.7952916, 1 ],
			"type": "VEC4"
		},
		{
			"bufferView": 0,
			"byteOffset": 0,
			"componentType": 5123,
			"count": 960,
			"max": [ 229 ],
			"min": [ 0 ],
			"type": "SCALAR"
		},
		{
			"bufferView": 3,
			"byteOffset": 5520,
			"componentType": 5126,
			"count": 2822,
			"max": [ 0.8946473, 1.095941, 0 ],
			"min": [ -0.8946473, -1.095941, -1.025349 ],
			"type": "VEC3"
		},
		{
			"bufferView": 3,
			"byteOffset": 39384,
			"componentType": 5126,
			"count": 2822,
			"max": [ 1, 1, 1 ],
			"min": [ -1, -1, -0.9989699 ],
			"type": "VEC3"
		},
		{
			"bufferView": 2,
			"byteOffset": 1840,
			"componentType": 5126,
			"count": 2822,
			"max": [ 1, 1 ],
			"min": [ 0, 0 ],
			"type": "VEC2"
		},
		{
			"bufferView": 4,
			"byteOffset": 3680,
			"componentType": 5126,
			"count": 2822,
			"max": [ 1, 1, 0.87067, 1 ],
			"min": [ -0.9999752, -1, -0.8182085, 1 ],
			"type": "VEC4"
		},
		{
			"bufferView": 0,
			"byteOffset": 1920,
			"componentType": 5123,
			"count": 15360,
			"max": [ 2821 ],
			"min": [ 0 ],
			"type": "SCALAR"
		},
		{
			"bufferView": 3,
			"byteOffset": 73248,
			"componentType": 5126,
			"count": 2822,
			"max": [ 0.8946473, 1.095941, 0 ],
			"min": [ -0.8946473, -1.095941, -1.029428 ],
			"type": "VEC3"
		},
		{
			"bufferView": 3,
			"byteOffset": 107112,
			"componentType": 5126,
			"count": 2822,
			"max": [ 1, 1, 1 ],
			"min": [ -1, -1, -0.9996114 ],
			"type": "VEC3"
		},
		{
			"bufferView": 2,
			"byteOffset": 24416,
			"componentType": 5126,
			"count": 2822,
			"max": [ 1, 1 ],
			"min": [ 0, 0 ],
			"type": "VEC2"
		},
		{
			"bufferView": 4,
			"byteOffset": 48832,
			"componentType": 5126,
			"count": 2822,
			"max": [ 1, 1, 0.7721079, 1 ],
			"min": [ -0.9999999, -1, -0.7561595, 1 ],
			"type": "VEC4"
		},
		{
			"bufferView": 0,
			"byteOffset": 32640,
			"componentType": 5123,
			"count": 15360,
			"max": [ 2821 ],
			"min": [ 0 ],
			"type": "SCALAR"
		},
		{
			"bufferView": 1,
			"byteOffset": 0,
			"componentType": 5126,
			"count": 30,
			"max": [ 0.9666667 ],
			"min": [ 0 ],
			"type": "SCALAR"
		},
		{
			"bufferView": 5,
			"byteOffset": 0,
			"componentType": 5126,
			"count": 30,
			"max": [ 0, 0.3271928, 0 ],
			"min": [ 0, 0.09077308, 0 ],
			"type": "VEC3"
		},
		{
			"bufferView": 6,
			"byteOffset": 0,
			"componentType": 5126,
			"count": 30,
			"max": [ -0.7071068, 0, 0, -0.7071068 ],
			"min": [ -0.7071068, 0, 0, -0.7071068 ],
			"type": "VEC4"
		},
		{
			"bufferView": 5,
			"byteOffset": 360,
			"componentType": 5126,
			"count": 30,
			"max": [ 1, 1, 1 ],
			"min": [ 1, 1, 1 ],
			"type": "VEC3"
		},
		{
			"bufferView": 3,
			"byteOffset": 140976,
			"componentType": 5126,
			"count": 32,
			"max": [ 1.098, 0.8965, 0 ],
			"min": [ -1.098, -0.8965, -0.6244912 ],
			"type": "VEC3"
		},
		{
			"bufferView": 3,
			"byteOffset": 141360,
			"componentType": 5126,
			"count": 32,
			"max": [ 1, 1, 1 ],
			"min": [ -1, -1, -1 ],
			"type": "VEC3"
		},
		{
			"bufferView": 2,
			"byteOffset": 46992,
			"componentType": 5126,
			"count": 32,
			"max": [ 1, 1 ],
			"min": [ 0, 0 ],
			"type": "VEC2"
		},
		{
			"bufferView": 4,
			"byteOffset": 93984,
			"componentType": 5126,
			"count": 32,
			"max": [ 1, 1, 0, 1 ],
			"min": [ -1, -1, 0, 1 ],
			"type": "VEC4"
		},
		{
			"bufferView": 0,
			"byteOffset": 63360,
			"componentType": 5123,
			"count": 60,
			"max": [ 31 ],
			"min": [ 0 ],
			"type": "SCALAR"
		}
	],
	"animations": [
		{
			"name": "Box006",
			"channels": [
				{
					"sampler": 0,
					"target": {
						"node": 5,
						"path": "translation"
					}
				},
				{
					"sampler": 1,
					"target": {
						"node": 5,
						"path": "rotation"
					}
				},
				{
					"sampler": 2,
					"target": {
						"node": 5,
						"path": "scale"
					}
				}
			],
			"samplers": [
				{
					"input": 15,
					"interpolation": "LINEAR",
					"output": 16
				},
				{
					"input": 15,
					"interpolation": "LINEAR",
					"output": 17
				},
				{
					"input": 15,
					"interpolation": "LINEAR",
					"output": 18
				}
			]
		}
	],
	"buffers": [
		{
			"byteLength": 348288,
			"uri": "刃脊.bin"
		}
	],
	"bufferViews": [
		{
			"buffer": 0,
			"byteLength": 63480,
			"target": 34963,
			"byteOffset": 283608
		},
		{
			"buffer": 0,
			"byteLength": 120,
			"byteOffset": 0
		},
		{
			"buffer": 0,
			"byteLength": 47248,
			"target": 34962,
			"byteStride": 8,
			"byteOffset": 120
		},
		{
			"buffer": 0,
			"byteLength": 141744,
			"target": 34962,
			"byteStride": 12,
			"byteOffset": 47368
		},
		{
			"buffer": 0,
			"byteLength": 94496,
			"target": 34962,
			"byteStride": 16,
			"byteOffset": 189112
		},
		{
			"buffer": 0,
			"byteLength": 720,
			"byteStride": 12,
			"byteOffset": 347088
		},
		{
			"buffer": 0,
			"byteLength": 480,
			"byteStride": 16,
			"byteOffset": 347808
		}
	],
	"images": [
		{
			"uri": "/Assets/Textures/刃脊脊0805.fbm/timg3.jpg"
		}
	],
	"materials": [
		{
			"pbrMetallicRoughness": {
				"baseColorTexture" : {
					"index" : 0,
					"texCoord" : 0
				},
				"baseColorFactor": [0.5882353, 0.5882353, 0.5882353, 1],
				"metallicFactor": 0,
				"roughnessFactor": 1
			},
			"emissiveFactor": [0, 0, 0],
			"doubleSided": false,
			"name": "timg3"
		},
		{
			"pbrMetallicRoughness": {
				"baseColorFactor": [1, 1, 1, 1],
				"metallicFactor": 0,
				"roughnessFactor": 1
			},
			"alphaMode": "BLEND",
			"alphaCutoff": 0.5,
			"emissiveFactor": [0, 0, 0],
			"doubleSided": false,
			"name": "No Name"
		}
	],
	"meshes": [
		{
			"name": "mesh_Box010_12434Box010",
			"primitives": [
				{
					"attributes": {
						"POSITION": 0,
						"NORMAL": 1,
						"TEXCOORD_0": 2,
						"TANGENT": 3
					},
					"indices": 4,
					"material": 0,
					"mode": 4
				}
			]
		},
		{
			"name": "mesh_Box009_12432Box009",
			"primitives": [
				{
					"attributes": {
						"POSITION": 5,
						"NORMAL": 6,
						"TEXCOORD_0": 7,
						"TANGENT": 8
					},
					"indices": 9,
					"material": 1,
					"mode": 4
				}
			]
		},
		{
			"name": "mesh_Box006_12428Box006",
			"primitives": [
				{
					"attributes": {
						"POSITION": 10,
						"NORMAL": 11,
						"TEXCOORD_0": 12,
						"TANGENT": 13
					},
					"indices": 14,
					"material": 1,
					"mode": 4
				}
			]
		},
		{
			"name": "mesh_Box007_12430Box007",
			"primitives": [
				{
					"attributes": {
						"POSITION": 19,
						"NORMAL": 20,
						"TEXCOORD_0": 21,
						"TANGENT": 22
					},
					"indices": 23,
					"material": 1,
					"mode": 4
				}
			]
		}
	],
	"nodes": [
		{
			"name": "UnityGlTF_root",
			"children": [
				4
			]
		},
		{
			"name": "node_rj_-5716",
			"children": [
				2,
				3
			],
			"translation": [ -0.4311655, -0.76, 3.803985]
		},
		{
			"name": "node_Box010_-4680",
			"mesh": 0,
			"translation": [ 0.4311655, 1.013313, -3.803985],
			"rotation": [-0.7071068, 0, 0, -0.7071068]
		},
		{
			"name": "node_Box009_-4678",
			"mesh": 1,
			"translation": [ 0.4311655, 1.013313, -3.803985],
			"rotation": [-0.7071068, 0, 0, -0.7071068]
		},
		{
			"name": "node_0805_-4682",
			"children": [
				5,
				6,
				1
			],
			"matrix": [1, 0, 0, 0, 0, 1, 0, 0, 0, 0, 1, 0, 2.415431, -0.7534714, 1.394832, 1]
		},
		{
			"name": "node_Box006_-4674",
			"mesh": 2,
			"translation": [ 0, 0.3271928, 0],
			"rotation": [-0.7071068, 0, 0, -0.7071068]
		},
		{
			"name": "node_Box007_-4676",
			"mesh": 3,
			"rotation": [-0.5000001, 0.5, -0.5, -0.5000001]
		}
	],
	"samplers": [
		{
			"magFilter": 9729,
			"minFilter": 9985,
			"wrapS": 10497,
			"wrapT": 10497
		}
	],
	"scenes": [
		{
			"name":"defaultScene",
			"nodes": [
				0
			]
		}
	],
	"scene": 0,
	"textures": [
		{
			"sampler": 0,
			"source": 0
		}
	]
}