{
	"asset": {
		"generator": "Unity 2018.3.11f1",
		"extras": {
			"exporterVersion" : "2.2.1"
		},
		"version": "2.0"
	},
	"accessors": [
		{
			"bufferView": 3,
			"byteOffset": 0,
			"componentType": 5126,
			"count": 196,
			"max": [ 0.3533969, 0.8146477, -0.4452597 ],
			"min": [ -0.4290915, 0.1620099, -0.9677979 ],
			"type": "VEC3"
		},
		{
			"bufferView": 3,
			"byteOffset": 2352,
			"componentType": 5126,
			"count": 196,
			"max": [ 0.9999201, 0.7894832, 0.7894838 ],
			"min": [ -0.9999081, -0.7881327, -0.7894894 ],
			"type": "VEC3"
		},
		{
			"bufferView": 2,
			"byteOffset": 0,
			"componentType": 5126,
			"count": 196,
			"max": [ 0.8319678, 1 ],
			"min": [ 0.09971711, 0.6214893 ],
			"type": "VEC2"
		},
		{
			"bufferView": 4,
			"byteOffset": 0,
			"componentType": 5126,
			"count": 196,
			"max": [ 1, 0, 0, 1 ],
			"min": [ -1, 0, 0, -1 ],
			"type": "VEC4"
		},
		{
			"bufferView": 0,
			"byteOffset": 0,
			"componentType": 5123,
			"count": 384,
			"max": [ 195 ],
			"min": [ 0 ],
			"type": "SCALAR"
		},
		{
			"bufferView": 1,
			"byteOffset": 0,
			"componentType": 5126,
			"count": 30,
			"max": [ 0.9666667 ],
			"min": [ 0 ],
			"type": "SCALAR"
		},
		{
			"bufferView": 5,
			"byteOffset": 0,
			"componentType": 5126,
			"count": 30,
			"max": [ -1.828252, -0.2128318, -1.237824 ],
			"min": [ -1.828252, -0.3156638, -1.237824 ],
			"type": "VEC3"
		},
		{
			"bufferView": 6,
			"byteOffset": 0,
			"componentType": 5126,
			"count": 30,
			"max": [ -0.7071068, 0, 0, -0.7071068 ],
			"min": [ -0.7071068, 0, 0, -0.7071068 ],
			"type": "VEC4"
		},
		{
			"bufferView": 5,
			"byteOffset": 360,
			"componentType": 5126,
			"count": 30,
			"max": [ 1, 1, 1 ],
			"min": [ 1, 1, 1 ],
			"type": "VEC3"
		},
		{
			"bufferView": 3,
			"byteOffset": 4704,
			"componentType": 5126,
			"count": 100,
			"max": [ 0.232487, 0.8119401, -0.5707529 ],
			"min": [ -0.3383933, 0.2485056, -1.025319 ],
			"type": "VEC3"
		},
		{
			"bufferView": 3,
			"byteOffset": 5904,
			"componentType": 5126,
			"count": 100,
			"max": [ 0.9999081, 0.7894835, 0.789484 ],
			"min": [ -0.9999201, -0.7894767, -0.7894837 ],
			"type": "VEC3"
		},
		{
			"bufferView": 2,
			"byteOffset": 1568,
			"componentType": 5126,
			"count": 100,
			"max": [ 0.6687177, 1 ],
			"min": [ 0.3840855, 0.6773437 ],
			"type": "VEC2"
		},
		{
			"bufferView": 4,
			"byteOffset": 3136,
			"componentType": 5126,
			"count": 100,
			"max": [ 1, 0, 0, 1 ],
			"min": [ -1, 0, 0, -1 ],
			"type": "VEC4"
		},
		{
			"bufferView": 0,
			"byteOffset": 768,
			"componentType": 5123,
			"count": 192,
			"max": [ 99 ],
			"min": [ 0 ],
			"type": "SCALAR"
		},
		{
			"bufferView": 3,
			"byteOffset": 7104,
			"componentType": 5126,
			"count": 104,
			"max": [ 0.2885242, -0.2184096, -0.4840564 ],
			"min": [ -0.3035277, -0.8092326, -0.9626709 ],
			"type": "VEC3"
		},
		{
			"bufferView": 3,
			"byteOffset": 8352,
			"componentType": 5126,
			"count": 104,
			"max": [ 0.9999714, 0.7873442, 0.789484 ],
			"min": [ -0.9996279, -0.7894835, -0.7894846 ],
			"type": "VEC3"
		},
		{
			"bufferView": 2,
			"byteOffset": 2368,
			"componentType": 5126,
			"count": 104,
			"max": [ 0.6513343, 0.3360095 ],
			"min": [ 0.3561462, 0 ],
			"type": "VEC2"
		},
		{
			"bufferView": 4,
			"byteOffset": 4736,
			"componentType": 5126,
			"count": 104,
			"max": [ 1, 0, 0, 1 ],
			"min": [ -1, 0, 0, -1 ],
			"type": "VEC4"
		},
		{
			"bufferView": 0,
			"byteOffset": 1152,
			"componentType": 5123,
			"count": 204,
			"max": [ 103 ],
			"min": [ 0 ],
			"type": "SCALAR"
		},
		{
			"bufferView": 3,
			"byteOffset": 9600,
			"componentType": 5126,
			"count": 36,
			"max": [ 0.09492759, 0.07792489, 0 ],
			"min": [ -0.0956817, -0.08464503, -0.03970197 ],
			"type": "VEC3"
		},
		{
			"bufferView": 3,
			"byteOffset": 10032,
			"componentType": 5126,
			"count": 36,
			"max": [ 0.9405003, 0.9991426, 1 ],
			"min": [ -0.9399747, -0.9575751, -1 ],
			"type": "VEC3"
		},
		{
			"bufferView": 4,
			"byteOffset": 6400,
			"componentType": 5126,
			"count": 36,
			"max": [ 1, 0, 0, 1 ],
			"min": [ 1, 0, 0, 1 ],
			"type": "VEC4"
		},
		{
			"bufferView": 0,
			"byteOffset": 1560,
			"componentType": 5123,
			"count": 60,
			"max": [ 35 ],
			"min": [ 0 ],
			"type": "SCALAR"
		},
		{
			"bufferView": 3,
			"byteOffset": 10464,
			"componentType": 5126,
			"count": 30,
			"max": [ 0.07287214, 0.06436118, 0 ],
			"min": [ -0.08436827, -0.06362286, -0.03529062 ],
			"type": "VEC3"
		},
		{
			"bufferView": 3,
			"byteOffset": 10824,
			"componentType": 5126,
			"count": 30,
			"max": [ 0.9915742, 0.9574823, 1 ],
			"min": [ -0.8317439, -0.9999882, -1 ],
			"type": "VEC3"
		},
		{
			"bufferView": 4,
			"byteOffset": 6976,
			"componentType": 5126,
			"count": 30,
			"max": [ 1, 0, 0, 1 ],
			"min": [ 1, 0, 0, 1 ],
			"type": "VEC4"
		},
		{
			"bufferView": 0,
			"byteOffset": 1680,
			"componentType": 5123,
			"count": 48,
			"max": [ 29 ],
			"min": [ 0 ],
			"type": "SCALAR"
		},
		{
			"bufferView": 3,
			"byteOffset": 11184,
			"componentType": 5126,
			"count": 24,
			"max": [ 0.06834292, 0.07054492, 0 ],
			"min": [ -0.06550879, -0.09523857, -0.03970198 ],
			"type": "VEC3"
		},
		{
			"bufferView": 3,
			"byteOffset": 11472,
			"componentType": 5126,
			"count": 24,
			"max": [ 0.9943792, 0.9987898, 1 ],
			"min": [ -0.9994742, -0.9106652, -1 ],
			"type": "VEC3"
		},
		{
			"bufferView": 4,
			"byteOffset": 7456,
			"componentType": 5126,
			"count": 24,
			"max": [ 1, 0, 0, 1 ],
			"min": [ 1, 0, 0, 1 ],
			"type": "VEC4"
		},
		{
			"bufferView": 0,
			"byteOffset": 1776,
			"componentType": 5123,
			"count": 36,
			"max": [ 23 ],
			"min": [ 0 ],
			"type": "SCALAR"
		},
		{
			"bufferView": 3,
			"byteOffset": 11760,
			"componentType": 5126,
			"count": 36,
			"max": [ 0.09492759, 0.07792489, 0 ],
			"min": [ -0.0956817, -0.08464503, -0.03970197 ],
			"type": "VEC3"
		},
		{
			"bufferView": 3,
			"byteOffset": 12192,
			"componentType": 5126,
			"count": 36,
			"max": [ 0.9405003, 0.9991426, 1 ],
			"min": [ -0.9399747, -0.9575751, -1 ],
			"type": "VEC3"
		},
		{
			"bufferView": 4,
			"byteOffset": 7840,
			"componentType": 5126,
			"count": 36,
			"max": [ 1, 0, 0, 1 ],
			"min": [ 1, 0, 0, 1 ],
			"type": "VEC4"
		},
		{
			"bufferView": 0,
			"byteOffset": 1848,
			"componentType": 5123,
			"count": 60,
			"max": [ 35 ],
			"min": [ 0 ],
			"type": "SCALAR"
		},
		{
			"bufferView": 3,
			"byteOffset": 12624,
			"componentType": 5126,
			"count": 188,
			"max": [ 0.377616, -0.09400254, -0.4826796 ],
			"min": [ -0.4297177, -0.8173552, -1.06295 ],
			"type": "VEC3"
		},
		{
			"bufferView": 3,
			"byteOffset": 14880,
			"componentType": 5126,
			"count": 188,
			"max": [ 0.9996279, 0.7891811, 0.7894867 ],
			"min": [ -0.9999714, -0.7894832, -0.7894867 ],
			"type": "VEC3"
		},
		{
			"bufferView": 2,
			"byteOffset": 3200,
			"componentType": 5126,
			"count": 188,
			"max": [ 0.8812377, 0.4181935 ],
			"min": [ 0.1662335, 0 ],
			"type": "VEC2"
		},
		{
			"bufferView": 4,
			"byteOffset": 8416,
			"componentType": 5126,
			"count": 188,
			"max": [ 1, 0, 0, 1 ],
			"min": [ -1, 0, 0, -1 ],
			"type": "VEC4"
		},
		{
			"bufferView": 0,
			"byteOffset": 1968,
			"componentType": 5123,
			"count": 372,
			"max": [ 187 ],
			"min": [ 0 ],
			"type": "SCALAR"
		},
		{
			"bufferView": 1,
			"byteOffset": 120,
			"componentType": 5126,
			"count": 30,
			"max": [ 0.9666667 ],
			"min": [ 0 ],
			"type": "SCALAR"
		},
		{
			"bufferView": 5,
			"byteOffset": 720,
			"componentType": 5126,
			"count": 30,
			"max": [ -1.828252, -0.2660326, -1.238 ],
			"min": [ -1.828252, -0.276, -1.238 ],
			"type": "VEC3"
		},
		{
			"bufferView": 6,
			"byteOffset": 480,
			"componentType": 5126,
			"count": 30,
			"max": [ -0.7071068, 0, 0, -0.7071068 ],
			"min": [ -0.7071068, 0, 0, -0.7071068 ],
			"type": "VEC4"
		},
		{
			"bufferView": 5,
			"byteOffset": 1080,
			"componentType": 5126,
			"count": 30,
			"max": [ 1, 1, 1 ],
			"min": [ 1, 1, 1 ],
			"type": "VEC3"
		},
		{
			"bufferView": 3,
			"byteOffset": 17136,
			"componentType": 5126,
			"count": 196,
			"max": [ 0.3533969, 0.8146477, -0.4452597 ],
			"min": [ -0.4290915, 0.1620099, -0.9677979 ],
			"type": "VEC3"
		},
		{
			"bufferView": 3,
			"byteOffset": 19488,
			"componentType": 5126,
			"count": 196,
			"max": [ 0.9999201, 0.7894832, 0.7894838 ],
			"min": [ -0.9999081, -0.7881327, -0.7894894 ],
			"type": "VEC3"
		},
		{
			"bufferView": 2,
			"byteOffset": 4704,
			"componentType": 5126,
			"count": 196,
			"max": [ 0.8319678, 1 ],
			"min": [ 0.09971711, 0.6214893 ],
			"type": "VEC2"
		},
		{
			"bufferView": 4,
			"byteOffset": 11424,
			"componentType": 5126,
			"count": 196,
			"max": [ 1, 0, 0, 1 ],
			"min": [ -1, 0, 0, -1 ],
			"type": "VEC4"
		},
		{
			"bufferView": 0,
			"byteOffset": 2712,
			"componentType": 5123,
			"count": 384,
			"max": [ 195 ],
			"min": [ 0 ],
			"type": "SCALAR"
		},
		{
			"bufferView": 1,
			"byteOffset": 240,
			"componentType": 5126,
			"count": 30,
			"max": [ 0.9666667 ],
			"min": [ 0 ],
			"type": "SCALAR"
		},
		{
			"bufferView": 5,
			"byteOffset": 1440,
			"componentType": 5126,
			"count": 30,
			"max": [ -1.828252, -0.2093781, -1.238 ],
			"min": [ -1.828252, -0.325, -1.238 ],
			"type": "VEC3"
		},
		{
			"bufferView": 6,
			"byteOffset": 960,
			"componentType": 5126,
			"count": 30,
			"max": [ -0.7071068, 0, 0, -0.7071068 ],
			"min": [ -0.7071068, 0, 0, -0.7071068 ],
			"type": "VEC4"
		},
		{
			"bufferView": 5,
			"byteOffset": 1800,
			"componentType": 5126,
			"count": 30,
			"max": [ 1, 1, 1 ],
			"min": [ 1, 1, 1 ],
			"type": "VEC3"
		},
		{
			"bufferView": 3,
			"byteOffset": 21840,
			"componentType": 5126,
			"count": 188,
			"max": [ 0.377616, -0.09400254, -0.4826796 ],
			"min": [ -0.4297177, -0.8173552, -1.06295 ],
			"type": "VEC3"
		},
		{
			"bufferView": 3,
			"byteOffset": 24096,
			"componentType": 5126,
			"count": 188,
			"max": [ 0.9996279, 0.7891811, 0.7894867 ],
			"min": [ -0.9999714, -0.7894832, -0.7894867 ],
			"type": "VEC3"
		},
		{
			"bufferView": 2,
			"byteOffset": 6272,
			"componentType": 5126,
			"count": 188,
			"max": [ 0.8812377, 0.4181935 ],
			"min": [ 0.1662335, 0 ],
			"type": "VEC2"
		},
		{
			"bufferView": 4,
			"byteOffset": 14560,
			"componentType": 5126,
			"count": 188,
			"max": [ 1, 0, 0, 1 ],
			"min": [ -1, 0, 0, -1 ],
			"type": "VEC4"
		},
		{
			"bufferView": 0,
			"byteOffset": 3480,
			"componentType": 5123,
			"count": 372,
			"max": [ 187 ],
			"min": [ 0 ],
			"type": "SCALAR"
		},
		{
			"bufferView": 1,
			"byteOffset": 360,
			"componentType": 5126,
			"count": 30,
			"max": [ 0.9666667 ],
			"min": [ 0 ],
			"type": "SCALAR"
		},
		{
			"bufferView": 5,
			"byteOffset": 2160,
			"componentType": 5126,
			"count": 30,
			"max": [ -1.828252, -0.2712396, -1.237824 ],
			"min": [ -1.828252, -0.3108704, -1.237824 ],
			"type": "VEC3"
		},
		{
			"bufferView": 6,
			"byteOffset": 1440,
			"componentType": 5126,
			"count": 30,
			"max": [ -0.7071068, 0, 0, -0.7071068 ],
			"min": [ -0.7071068, 0, 0, -0.7071068 ],
			"type": "VEC4"
		},
		{
			"bufferView": 5,
			"byteOffset": 2520,
			"componentType": 5126,
			"count": 30,
			"max": [ 1, 1, 1 ],
			"min": [ 1, 1, 1 ],
			"type": "VEC3"
		},
		{
			"bufferView": 3,
			"byteOffset": 26352,
			"componentType": 5126,
			"count": 24,
			"max": [ 0.06834292, 0.07054492, 0 ],
			"min": [ -0.06550879, -0.09523857, -0.03970198 ],
			"type": "VEC3"
		},
		{
			"bufferView": 3,
			"byteOffset": 26640,
			"componentType": 5126,
			"count": 24,
			"max": [ 0.9943792, 0.9987898, 1 ],
			"min": [ -0.9994742, -0.9106652, -1 ],
			"type": "VEC3"
		},
		{
			"bufferView": 4,
			"byteOffset": 17568,
			"componentType": 5126,
			"count": 24,
			"max": [ 1, 0, 0, 1 ],
			"min": [ 1, 0, 0, 1 ],
			"type": "VEC4"
		},
		{
			"bufferView": 0,
			"byteOffset": 4224,
			"componentType": 5123,
			"count": 36,
			"max": [ 23 ],
			"min": [ 0 ],
			"type": "SCALAR"
		},
		{
			"bufferView": 3,
			"byteOffset": 26928,
			"componentType": 5126,
			"count": 552,
			"max": [ 0.4555995, 0.8227703, 0 ],
			"min": [ -0.5303606, -0.8227703, -0.9067341 ],
			"type": "VEC3"
		},
		{
			"bufferView": 3,
			"byteOffset": 33552,
			"componentType": 5126,
			"count": 552,
			"max": [ 1, 1, 1 ],
			"min": [ -1, -1, -1 ],
			"type": "VEC3"
		},
		{
			"bufferView": 2,
			"byteOffset": 7776,
			"componentType": 5126,
			"count": 552,
			"max": [ 1, 1 ],
			"min": [ 0, 0 ],
			"type": "VEC2"
		},
		{
			"bufferView": 4,
			"byteOffset": 17952,
			"componentType": 5126,
			"count": 552,
			"max": [ 1, 1, 0.2831428, 1 ],
			"min": [ -1, -1, -0.6137718, -1 ],
			"type": "VEC4"
		},
		{
			"bufferView": 0,
			"byteOffset": 4296,
			"componentType": 5123,
			"count": 1050,
			"max": [ 551 ],
			"min": [ 0 ],
			"type": "SCALAR"
		}
	],
	"animations": [
		{
			"name": "007",
			"channels": [
				{
					"sampler": 0,
					"target": {
						"node": 1,
						"path": "translation"
					}
				},
				{
					"sampler": 1,
					"target": {
						"node": 1,
						"path": "rotation"
					}
				},
				{
					"sampler": 2,
					"target": {
						"node": 1,
						"path": "scale"
					}
				}
			],
			"samplers": [
				{
					"input": 5,
					"interpolation": "LINEAR",
					"output": 6
				},
				{
					"input": 5,
					"interpolation": "LINEAR",
					"output": 7
				},
				{
					"input": 5,
					"interpolation": "LINEAR",
					"output": 8
				}
			]
		},
		{
			"name": "004",
			"channels": [
				{
					"sampler": 0,
					"target": {
						"node": 8,
						"path": "translation"
					}
				},
				{
					"sampler": 1,
					"target": {
						"node": 8,
						"path": "rotation"
					}
				},
				{
					"sampler": 2,
					"target": {
						"node": 8,
						"path": "scale"
					}
				}
			],
			"samplers": [
				{
					"input": 40,
					"interpolation": "LINEAR",
					"output": 41
				},
				{
					"input": 40,
					"interpolation": "LINEAR",
					"output": 42
				},
				{
					"input": 40,
					"interpolation": "LINEAR",
					"output": 43
				}
			]
		},
		{
			"name": "008",
			"channels": [
				{
					"sampler": 0,
					"target": {
						"node": 9,
						"path": "translation"
					}
				},
				{
					"sampler": 1,
					"target": {
						"node": 9,
						"path": "rotation"
					}
				},
				{
					"sampler": 2,
					"target": {
						"node": 9,
						"path": "scale"
					}
				}
			],
			"samplers": [
				{
					"input": 49,
					"interpolation": "LINEAR",
					"output": 50
				},
				{
					"input": 49,
					"interpolation": "LINEAR",
					"output": 51
				},
				{
					"input": 49,
					"interpolation": "LINEAR",
					"output": 52
				}
			]
		},
		{
			"name": "005",
			"channels": [
				{
					"sampler": 0,
					"target": {
						"node": 10,
						"path": "translation"
					}
				},
				{
					"sampler": 1,
					"target": {
						"node": 10,
						"path": "rotation"
					}
				},
				{
					"sampler": 2,
					"target": {
						"node": 10,
						"path": "scale"
					}
				}
			],
			"samplers": [
				{
					"input": 58,
					"interpolation": "LINEAR",
					"output": 59
				},
				{
					"input": 58,
					"interpolation": "LINEAR",
					"output": 60
				},
				{
					"input": 58,
					"interpolation": "LINEAR",
					"output": 61
				}
			]
		}
	],
	"buffers": [
		{
			"byteLength": 90828,
			"uri": "刃脊.bin"
		}
	],
	"bufferViews": [
		{
			"buffer": 0,
			"byteLength": 6396,
			"target": 34963,
			"byteOffset": 79632
		},
		{
			"buffer": 0,
			"byteLength": 480,
			"byteOffset": 0
		},
		{
			"buffer": 0,
			"byteLength": 12192,
			"target": 34962,
			"byteStride": 8,
			"byteOffset": 480
		},
		{
			"buffer": 0,
			"byteLength": 40176,
			"target": 34962,
			"byteStride": 12,
			"byteOffset": 12672
		},
		{
			"buffer": 0,
			"byteLength": 26784,
			"target": 34962,
			"byteStride": 16,
			"byteOffset": 52848
		},
		{
			"buffer": 0,
			"byteLength": 2880,
			"byteStride": 12,
			"byteOffset": 86028
		},
		{
			"buffer": 0,
			"byteLength": 1920,
			"byteStride": 16,
			"byteOffset": 88908
		}
	],
	"images": [
		{
			"uri": "/Assets/刃脊001.fbm/tur1.jpg"
		},
		{
			"uri": "/Assets/刃脊001.fbm/冰川.jpg"
		},
		{
			"uri": "/Assets/刃脊001.fbm/timg4.jpg"
		},
		{
			"uri": "/Assets/刃脊001.fbm/rock.jpg"
		},
		{
			"uri": "/Assets/刃脊001.fbm/timg1.jpg"
		}
	],
	"materials": [
		{
			"pbrMetallicRoughness": {
				"baseColorTexture" : {
					"index" : 0,
					"texCoord" : 0
				},
				"baseColorFactor": [0.5882353, 0.5882353, 0.5882353, 1],
				"metallicFactor": 0,
				"roughnessFactor": 1
			},
			"emissiveFactor": [0, 0, 0],
			"doubleSided": false,
			"name": "tur1"
		},
		{
			"pbrMetallicRoughness": {
				"baseColorTexture" : {
					"index" : 1,
					"texCoord" : 0
				},
				"baseColorFactor": [0.5882353, 0.5882353, 0.5882353, 1],
				"metallicFactor": 0,
				"roughnessFactor": 1
			},
			"emissiveFactor": [0, 0, 0],
			"doubleSided": false,
			"name": ""
		},
		{
			"pbrMetallicRoughness": {
				"baseColorTexture" : {
					"index" : 2,
					"texCoord" : 0
				},
				"baseColorFactor": [0.5882353, 0.5882353, 0.5882353, 1],
				"metallicFactor": 0,
				"roughnessFactor": 1
			},
			"emissiveFactor": [0, 0, 0],
			"doubleSided": false,
			"name": "timg4"
		},
		{
			"pbrMetallicRoughness": {
				"baseColorTexture" : {
					"index" : 3,
					"texCoord" : 0
				},
				"baseColorFactor": [0.5882353, 0.5882353, 0.5882353, 1],
				"metallicFactor": 0,
				"roughnessFactor": 1
			},
			"emissiveFactor": [0, 0, 0],
			"doubleSided": false,
			"name": "rock"
		},
		{
			"pbrMetallicRoughness": {
				"baseColorTexture" : {
					"index" : 4,
					"texCoord" : 0
				},
				"baseColorFactor": [0.5882353, 0.5882353, 0.5882353, 1],
				"metallicFactor": 0,
				"roughnessFactor": 1
			},
			"emissiveFactor": [0, 0, 0],
			"doubleSided": false,
			"name": "timg1"
		}
	],
	"meshes": [
		{
			"name": "mesh_007_15454007",
			"primitives": [
				{
					"attributes": {
						"POSITION": 0,
						"NORMAL": 1,
						"TEXCOORD_0": 2,
						"TANGENT": 3
					},
					"indices": 4,
					"material": 0,
					"mode": 4
				}
			]
		},
		{
			"name": "mesh_006_15460006",
			"primitives": [
				{
					"attributes": {
						"POSITION": 9,
						"NORMAL": 10,
						"TEXCOORD_0": 11,
						"TANGENT": 12
					},
					"indices": 13,
					"material": 1,
					"mode": 4
				}
			]
		},
		{
			"name": "mesh_003_15446003",
			"primitives": [
				{
					"attributes": {
						"POSITION": 14,
						"NORMAL": 15,
						"TEXCOORD_0": 16,
						"TANGENT": 17
					},
					"indices": 18,
					"material": 1,
					"mode": 4
				}
			]
		},
		{
			"name": "mesh_Line001_15444Line001",
			"primitives": [
				{
					"attributes": {
						"POSITION": 19,
						"NORMAL": 20,
						"TANGENT": 21
					},
					"indices": 22,
					"material": 2,
					"mode": 4
				}
			]
		},
		{
			"name": "mesh_Line003_15440Line003",
			"primitives": [
				{
					"attributes": {
						"POSITION": 23,
						"NORMAL": 24,
						"TANGENT": 25
					},
					"indices": 26,
					"material": 3,
					"mode": 4
				}
			]
		},
		{
			"name": "mesh_Line005_15452Line005",
			"primitives": [
				{
					"attributes": {
						"POSITION": 27,
						"NORMAL": 28,
						"TANGENT": 29
					},
					"indices": 30,
					"material": 4,
					"mode": 4
				}
			]
		},
		{
			"name": "mesh_Line004_15450Line004",
			"primitives": [
				{
					"attributes": {
						"POSITION": 31,
						"NORMAL": 32,
						"TANGENT": 33
					},
					"indices": 34,
					"material": 2,
					"mode": 4
				}
			]
		},
		{
			"name": "mesh_004_15448004",
			"primitives": [
				{
					"attributes": {
						"POSITION": 35,
						"NORMAL": 36,
						"TEXCOORD_0": 37,
						"TANGENT": 38
					},
					"indices": 39,
					"material": 1,
					"mode": 4
				}
			]
		},
		{
			"name": "mesh_008_15456008",
			"primitives": [
				{
					"attributes": {
						"POSITION": 44,
						"NORMAL": 45,
						"TEXCOORD_0": 46,
						"TANGENT": 47
					},
					"indices": 48,
					"material": 1,
					"mode": 4
				}
			]
		},
		{
			"name": "mesh_005_15458005",
			"primitives": [
				{
					"attributes": {
						"POSITION": 53,
						"NORMAL": 54,
						"TEXCOORD_0": 55,
						"TANGENT": 56
					},
					"indices": 57,
					"material": 0,
					"mode": 4
				}
			]
		},
		{
			"name": "mesh_Line002_15438Line002",
			"primitives": [
				{
					"attributes": {
						"POSITION": 62,
						"NORMAL": 63,
						"TANGENT": 64
					},
					"indices": 65,
					"material": 4,
					"mode": 4
				}
			]
		},
		{
			"name": "mesh_Box002_15442Box002",
			"primitives": [
				{
					"attributes": {
						"POSITION": 66,
						"NORMAL": 67,
						"TEXCOORD_0": 68,
						"TANGENT": 69
					},
					"indices": 70,
					"material": 0,
					"mode": 4
				}
			]
		}
	],
	"nodes": [
		{
			"name": "UnityGlTF_root",
			"children": [
				11
			]
		},
		{
			"name": "node_007_-61078",
			"mesh": 0,
			"translation": [ -1.828252, -0.2128318, -1.237824],
			"rotation": [-0.7071068, 0, 0, -0.7071068]
		},
		{
			"name": "node_006_-61076",
			"mesh": 1,
			"translation": [ -1.828252, -0.3347319, -1.237824],
			"rotation": [-0.7071068, 0, 0, -0.7071068]
		},
		{
			"name": "node_003_-61070",
			"mesh": 2,
			"translation": [ -1.828252, -0.2605163, -1.237824],
			"rotation": [-0.7071068, 0, 0, -0.7071068]
		},
		{
			"name": "node_Line001_-61060",
			"mesh": 3,
			"translation": [ -1.654406, 0.8828195, -1.272903],
			"scale": [ 0.8245043, 0.8245043, 0.8245043],
			"rotation": [-0.4226183, 0, 0, -0.9063078]
		},
		{
			"name": "node_Line003_-61064",
			"mesh": 4,
			"translation": [ -1.883365, 0.8850285, -1.208068],
			"scale": [ 0.9365708, 0.9365708, 0.9365708],
			"rotation": [0.9063078, 0, 0, 0.4226183]
		},
		{
			"name": "node_Line005_-61068",
			"mesh": 5,
			"translation": [ -2.263134, 0.8465505, -1.156455],
			"scale": [ 0.8587561, 0.8587561, 0.8587561],
			"rotation": [0.9063078, 0, 0, 0.4226183]
		},
		{
			"name": "node_Line004_-61066",
			"mesh": 6,
			"translation": [ -1.550279, 0.8617768, -1.173659],
			"scale": [ 0.8587561, 0.8587561, 0.8587561],
			"rotation": [0.8870109, 0, 0, 0.4617486]
		},
		{
			"name": "node_004_-61072",
			"mesh": 7,
			"translation": [ -1.828252, -0.3, -1.238],
			"rotation": [-0.7071068, 0, 0, -0.7071068]
		},
		{
			"name": "node_008_-61080",
			"mesh": 8,
			"translation": [ -1.828252, -0.254, -1.238],
			"rotation": [-0.7071068, 0, 0, -0.7071068]
		},
		{
			"name": "node_005_-61074",
			"mesh": 9,
			"translation": [ -1.828252, -0.2712396, -1.237824],
			"rotation": [-0.7071068, 0, 0, -0.7071068]
		},
		{
			"name": "node_001_-61056",
			"children": [
				13,
				4,
				12,
				5,
				7,
				6,
				3,
				8,
				10,
				2,
				1,
				9
			],
			"matrix": [1, 0, 0, 0, 0, 1, 0, 0, 0, 0, 1, 0, 11.66625, -2.634091, 11.54917, 1]
		},
		{
			"name": "node_Line002_-61062",
			"mesh": 10,
			"translation": [ -2.055405, 0.8843375, -1.263293],
			"scale": [ 0.8447194, 0.8447194, 0.8447194],
			"rotation": [-0.4226183, 0, 0, -0.9063078]
		},
		{
			"name": "node_Box002_-61058",
			"mesh": 11,
			"translation": [ -1.828252, -1.804779E-16, -1.237824],
			"rotation": [-0.7071068, 0, 0, -0.7071068]
		}
	],
	"samplers": [
		{
			"magFilter": 9729,
			"minFilter": 9985,
			"wrapS": 10497,
			"wrapT": 10497
		}
	],
	"scenes": [
		{
			"name":"defaultScene",
			"nodes": [
				0
			]
		}
	],
	"scene": 0,
	"textures": [
		{
			"sampler": 0,
			"source": 0
		},
		{
			"sampler": 0,
			"source": 1
		},
		{
			"sampler": 0,
			"source": 2
		},
		{
			"sampler": 0,
			"source": 3
		},
		{
			"sampler": 0,
			"source": 4
		}
	]
}