{
	"asset": {
		"generator": "Unity 2018.3.11f1",
		"extras": {
			"exporterVersion" : "2.2.1"
		},
		"version": "2.0"
	},
	"accessors": [
		{
			"bufferView": 3,
			"byteOffset": 0,
			"componentType": 5126,
			"count": 2267,
			"max": [ 1.094725, 0, 0.008263164 ],
			"min": [ 0.6046979, -1.27, -0.3880736 ],
			"type": "VEC3"
		},
		{
			"bufferView": 3,
			"byteOffset": 27204,
			"componentType": 5126,
			"count": 2267,
			"max": [ 1, 0.9760916, 0.9991742 ],
			"min": [ -0.9625423, -1, -0.9999417 ],
			"type": "VEC3"
		},
		{
			"bufferView": 2,
			"byteOffset": 0,
			"componentType": 5126,
			"count": 2267,
			"max": [ 1, 0.890625 ],
			"min": [ 0, 0.4375 ],
			"type": "VEC2"
		},
		{
			"bufferView": 4,
			"byteOffset": 0,
			"componentType": 5126,
			"count": 2267,
			"max": [ 1, 0.2279823, 0.9929478, 1 ],
			"min": [ -0.974694, -1, -0.9263157, -1 ],
			"type": "VEC4"
		},
		{
			"bufferView": 0,
			"byteOffset": 0,
			"componentType": 5123,
			"count": 11508,
			"max": [ 2266 ],
			"min": [ 0 ],
			"type": "SCALAR"
		},
		{
			"bufferView": 3,
			"byteOffset": 54408,
			"componentType": 5126,
			"count": 2267,
			"max": [ 1.094725, 0, 0.008263164 ],
			"min": [ 0.6046979, -1.27, -0.3880736 ],
			"type": "VEC3"
		},
		{
			"bufferView": 3,
			"byteOffset": 81612,
			"componentType": 5126,
			"count": 2267,
			"max": [ 1, 0.9760916, 0.9991742 ],
			"min": [ -0.9625423, -1, -0.9999417 ],
			"type": "VEC3"
		},
		{
			"bufferView": 2,
			"byteOffset": 18136,
			"componentType": 5126,
			"count": 2267,
			"max": [ 1, 0.890625 ],
			"min": [ 0, 0.4375 ],
			"type": "VEC2"
		},
		{
			"bufferView": 4,
			"byteOffset": 36272,
			"componentType": 5126,
			"count": 2267,
			"max": [ 1, 0.2279823, 0.9929478, 1 ],
			"min": [ -0.974694, -1, -0.9263157, -1 ],
			"type": "VEC4"
		},
		{
			"bufferView": 0,
			"byteOffset": 23016,
			"componentType": 5123,
			"count": 11508,
			"max": [ 2266 ],
			"min": [ 0 ],
			"type": "SCALAR"
		},
		{
			"bufferView": 3,
			"byteOffset": 108816,
			"componentType": 5126,
			"count": 4225,
			"max": [ 50, 0, 0 ],
			"min": [ 0, 0, -50 ],
			"type": "VEC3"
		},
		{
			"bufferView": 3,
			"byteOffset": 159516,
			"componentType": 5126,
			"count": 4225,
			"max": [ 0, 1, 0 ],
			"min": [ 0, 1, 0 ],
			"type": "VEC3"
		},
		{
			"bufferView": 2,
			"byteOffset": 36272,
			"componentType": 5126,
			"count": 4225,
			"max": [ 1, 1 ],
			"min": [ 0, 0 ],
			"type": "VEC2"
		},
		{
			"bufferView": 4,
			"byteOffset": 72544,
			"componentType": 5126,
			"count": 4225,
			"max": [ 0, 0, -1, -1 ],
			"min": [ 0, 0, -1, -1 ],
			"type": "VEC4"
		},
		{
			"bufferView": 0,
			"byteOffset": 46032,
			"componentType": 5123,
			"count": 24576,
			"max": [ 4224 ],
			"min": [ 0 ],
			"type": "SCALAR"
		},
		{
			"bufferView": 3,
			"byteOffset": 210216,
			"componentType": 5126,
			"count": 2269,
			"max": [ 1.069156, 0, 0.008263159 ],
			"min": [ 0.6250792, -1.27, -0.3880736 ],
			"type": "VEC3"
		},
		{
			"bufferView": 3,
			"byteOffset": 237444,
			"componentType": 5126,
			"count": 2269,
			"max": [ 1, 0.9384744, 0.9975922 ],
			"min": [ -0.9886277, -1, -0.9999417 ],
			"type": "VEC3"
		},
		{
			"bufferView": 2,
			"byteOffset": 70072,
			"componentType": 5126,
			"count": 2269,
			"max": [ 1, 0.890625 ],
			"min": [ 0, 0.4375 ],
			"type": "VEC2"
		},
		{
			"bufferView": 4,
			"byteOffset": 140144,
			"componentType": 5126,
			"count": 2269,
			"max": [ 1, 0.3312848, 0.9929478, 1 ],
			"min": [ -0.9783159, -1, -0.9263157, -1 ],
			"type": "VEC4"
		},
		{
			"bufferView": 0,
			"byteOffset": 95184,
			"componentType": 5123,
			"count": 11508,
			"max": [ 2268 ],
			"min": [ 0 ],
			"type": "SCALAR"
		},
		{
			"bufferView": 3,
			"byteOffset": 264672,
			"componentType": 5126,
			"count": 2269,
			"max": [ 1.069156, 0, 0.008263159 ],
			"min": [ 0.6250792, -1.27, -0.3880736 ],
			"type": "VEC3"
		},
		{
			"bufferView": 3,
			"byteOffset": 291900,
			"componentType": 5126,
			"count": 2269,
			"max": [ 1, 0.9384744, 0.9975922 ],
			"min": [ -0.9886277, -1, -0.9999417 ],
			"type": "VEC3"
		},
		{
			"bufferView": 2,
			"byteOffset": 88224,
			"componentType": 5126,
			"count": 2269,
			"max": [ 1, 0.890625 ],
			"min": [ 0, 0.4375 ],
			"type": "VEC2"
		},
		{
			"bufferView": 4,
			"byteOffset": 176448,
			"componentType": 5126,
			"count": 2269,
			"max": [ 1, 0.3312848, 0.9929478, 1 ],
			"min": [ -0.9783159, -1, -0.9263157, -1 ],
			"type": "VEC4"
		},
		{
			"bufferView": 0,
			"byteOffset": 118200,
			"componentType": 5123,
			"count": 11508,
			"max": [ 2268 ],
			"min": [ 0 ],
			"type": "SCALAR"
		},
		{
			"bufferView": 1,
			"byteOffset": 0,
			"componentType": 5126,
			"count": 60,
			"max": [ 1.966667 ],
			"min": [ 0 ],
			"type": "SCALAR"
		},
		{
			"bufferView": 5,
			"byteOffset": 0,
			"componentType": 5126,
			"count": 60,
			"max": [ 50, 0, -51 ],
			"min": [ 40.00824, -4.99588, -51 ],
			"type": "VEC3"
		},
		{
			"bufferView": 6,
			"byteOffset": 0,
			"componentType": 5126,
			"count": 60,
			"max": [ 0, 0.7071068, -0.7071068, 0 ],
			"min": [ 0, 0.7071068, -0.7071068, 0 ],
			"type": "VEC4"
		},
		{
			"bufferView": 5,
			"byteOffset": 720,
			"componentType": 5126,
			"count": 60,
			"max": [ 40.00004, 40.00002, 40.00002 ],
			"min": [ 28.00989, 40.00002, 40.00002 ],
			"type": "VEC3"
		},
		{
			"bufferView": 1,
			"byteOffset": 240,
			"componentType": 5126,
			"count": 60,
			"max": [ 1.966667 ],
			"min": [ 0 ],
			"type": "SCALAR"
		},
		{
			"bufferView": 5,
			"byteOffset": 1440,
			"componentType": 5126,
			"count": 60,
			"max": [ 9.99176, 0, 0 ],
			"min": [ 0, -4.99588, 0 ],
			"type": "VEC3"
		},
		{
			"bufferView": 6,
			"byteOffset": 960,
			"componentType": 5126,
			"count": 60,
			"max": [ -0.7071068, 0, 0, -0.7071068 ],
			"min": [ -0.7071068, 0, 0, -0.7071068 ],
			"type": "VEC4"
		},
		{
			"bufferView": 5,
			"byteOffset": 2160,
			"componentType": 5126,
			"count": 60,
			"max": [ 40, 40.00002, 40.00002 ],
			"min": [ 30.00824, 40.00002, 40.00002 ],
			"type": "VEC3"
		},
		{
			"bufferView": 3,
			"byteOffset": 319128,
			"componentType": 5126,
			"count": 24,
			"max": [ 0.5, 0.5, 0.5 ],
			"min": [ -0.5, -0.5, -0.5 ],
			"type": "VEC3"
		},
		{
			"bufferView": 3,
			"byteOffset": 319416,
			"componentType": 5126,
			"count": 24,
			"max": [ 1, 1, 1 ],
			"min": [ -1, -1, -1 ],
			"type": "VEC3"
		},
		{
			"bufferView": 2,
			"byteOffset": 106376,
			"componentType": 5126,
			"count": 24,
			"max": [ 1, 1 ],
			"min": [ 0, 0 ],
			"type": "VEC2"
		},
		{
			"bufferView": 2,
			"byteOffset": 106568,
			"componentType": 5126,
			"count": 24,
			"max": [ 0.9966581, 0.6528358 ],
			"min": [ 0.004055766, 0.004055766 ],
			"type": "VEC2"
		},
		{
			"bufferView": 4,
			"byteOffset": 212752,
			"componentType": 5126,
			"count": 24,
			"max": [ 0, 0, 1, 1 ],
			"min": [ -1, 0, -1, 1 ],
			"type": "VEC4"
		},
		{
			"bufferView": 0,
			"byteOffset": 141216,
			"componentType": 5123,
			"count": 36,
			"max": [ 23 ],
			"min": [ 0 ],
			"type": "SCALAR"
		}
	],
	"animations": [
		{
			"name": "",
			"channels": [
				{
					"sampler": 0,
					"target": {
						"node": 8,
						"path": "translation"
					}
				},
				{
					"sampler": 1,
					"target": {
						"node": 8,
						"path": "rotation"
					}
				},
				{
					"sampler": 2,
					"target": {
						"node": 8,
						"path": "scale"
					}
				},
				{
					"sampler": 3,
					"target": {
						"node": 7,
						"path": "translation"
					}
				},
				{
					"sampler": 4,
					"target": {
						"node": 7,
						"path": "rotation"
					}
				},
				{
					"sampler": 5,
					"target": {
						"node": 7,
						"path": "scale"
					}
				}
			],
			"samplers": [
				{
					"input": 25,
					"interpolation": "LINEAR",
					"output": 26
				},
				{
					"input": 25,
					"interpolation": "LINEAR",
					"output": 27
				},
				{
					"input": 25,
					"interpolation": "LINEAR",
					"output": 28
				},
				{
					"input": 29,
					"interpolation": "LINEAR",
					"output": 30
				},
				{
					"input": 29,
					"interpolation": "LINEAR",
					"output": 31
				},
				{
					"input": 29,
					"interpolation": "LINEAR",
					"output": 32
				}
			]
		}
	],
	"buffers": [
		{
			"byteLength": 786168,
			"uri": "风蚀谷（丘）.bin"
		}
	],
	"bufferViews": [
		{
			"buffer": 0,
			"byteLength": 141288,
			"target": 34963,
			"byteOffset": 640080
		},
		{
			"buffer": 0,
			"byteLength": 480,
			"byteOffset": 0
		},
		{
			"buffer": 0,
			"byteLength": 106760,
			"target": 34962,
			"byteStride": 8,
			"byteOffset": 480
		},
		{
			"buffer": 0,
			"byteLength": 319704,
			"target": 34962,
			"byteStride": 12,
			"byteOffset": 107240
		},
		{
			"buffer": 0,
			"byteLength": 213136,
			"target": 34962,
			"byteStride": 16,
			"byteOffset": 426944
		},
		{
			"buffer": 0,
			"byteLength": 2880,
			"byteStride": 12,
			"byteOffset": 781368
		},
		{
			"buffer": 0,
			"byteLength": 1920,
			"byteStride": 16,
			"byteOffset": 784248
		}
	],
	"images": [
		{
			"uri": "/Assets/风沙地貌/风蚀地貌/Textures/timg (1).jpg"
		},
		{
			"uri": "/Assets/风沙地貌/风蚀地貌/Textures/GoodDirt.jpg"
		}
	],
	"materials": [
		{
			"pbrMetallicRoughness": {
				"baseColorTexture" : {
					"index" : 0,
					"texCoord" : 0
				},
				"baseColorFactor": [1, 1, 1, 1],
				"metallicFactor": 0,
				"roughnessFactor": 0.5
			},
			"emissiveFactor": [0, 0, 0],
			"doubleSided": false,
			"name": ""
		},
		{
			"pbrMetallicRoughness": {
				"baseColorTexture" : {
					"index" : 1,
					"texCoord" : 0
				},
				"baseColorFactor": [1, 1, 1, 1],
				"metallicFactor": 0,
				"roughnessFactor": 0.5
			},
			"emissiveFactor": [0, 0, 0],
			"doubleSided": false,
			"name": ""
		}
	],
	"meshes": [
		{
			"name": "mesh_default_128461",
			"primitives": [
				{
					"attributes": {
						"POSITION": 0,
						"NORMAL": 1,
						"TEXCOORD_0": 2,
						"TANGENT": 3
					},
					"indices": 4,
					"material": 0,
					"mode": 4
				}
			]
		},
		{
			"name": "mesh_default_128461 (1)",
			"primitives": [
				{
					"attributes": {
						"POSITION": 5,
						"NORMAL": 6,
						"TEXCOORD_0": 7,
						"TANGENT": 8
					},
					"indices": 9,
					"material": 0,
					"mode": 4
				}
			]
		},
		{
			"name": "mesh_default_12562default",
			"primitives": [
				{
					"attributes": {
						"POSITION": 10,
						"NORMAL": 11,
						"TEXCOORD_0": 12,
						"TANGENT": 13
					},
					"indices": 14,
					"material": 1,
					"mode": 4
				}
			]
		},
		{
			"name": "mesh_default_128500",
			"primitives": [
				{
					"attributes": {
						"POSITION": 15,
						"NORMAL": 16,
						"TEXCOORD_0": 17,
						"TANGENT": 18
					},
					"indices": 19,
					"material": 0,
					"mode": 4
				}
			]
		},
		{
			"name": "mesh_default_128500 (1)",
			"primitives": [
				{
					"attributes": {
						"POSITION": 20,
						"NORMAL": 21,
						"TEXCOORD_0": 22,
						"TANGENT": 23
					},
					"indices": 24,
					"material": 0,
					"mode": 4
				}
			]
		},
		{
			"name": "mesh_Cube_86Cube (1)",
			"primitives": [
				{
					"attributes": {
						"POSITION": 33,
						"NORMAL": 34,
						"TEXCOORD_0": 35,
						"TEXCOORD_1": 36,
						"TANGENT": 37
					},
					"indices": 38,
					"material": 1,
					"mode": 4
				}
			]
		}
	],
	"nodes": [
		{
			"name": "UnityGlTF_root",
			"children": [
				4
			]
		},
		{
			"name": "node_1_-58482",
			"mesh": 0,
			"translation": [ 4.3, 0, 0],
			"scale": [ 35, 40.00002, 40.00002],
			"rotation": [-0.7071068, 0, 0, -0.7071068]
		},
		{
			"name": "node_1 (1)_-58484",
			"mesh": 1,
			"translation": [ 45.1, 0, -51],
			"scale": [ 35, 40.00002, 40.00002],
			"rotation": [0, 0.7071068, -0.7071068, 0]
		},
		{
			"name": "node_default_-58488",
			"mesh": 2
		},
		{
			"name": "node__-58462",
			"children": [
				9,
				10
			],
			"matrix": [0.05, 0, 0, 0, 0, 0.05, 0, 0, 0, 0, 0.05, 0, 1, 0, 0, 1]
		},
		{
			"name": "node_0_-58474",
			"children": [
				7,
				8
			]
		},
		{
			"name": "node_1_-58476",
			"children": [
				1,
				2
			]
		},
		{
			"name": "node_0_-58492",
			"mesh": 3,
			"scale": [ 40, 40.00002, 40.00002],
			"rotation": [-0.7071068, 0, 0, -0.7071068]
		},
		{
			"name": "node_0 (1)_-58494",
			"mesh": 4,
			"translation": [ 50, 0, -51],
			"scale": [ 40.00004, 40.00002, 40.00002],
			"rotation": [0, 0.7071068, -0.7071068, 0]
		},
		{
			"name": "node__-58466",
			"children": [
				11,
				5,
				6
			],
			"translation": [ -25.3, 0.2800003, 26.2]
		},
		{
			"name": "node_Cube (1)_-58468",
			"mesh": 5,
			"translation": [ 0.1999998, -3.16, -0.04],
			"scale": [ 51.30742, 6.656291, 54.18784]
		},
		{
			"name": "node__-58472",
			"children": [
				3
			]
		}
	],
	"samplers": [
		{
			"magFilter": 9729,
			"minFilter": 9985,
			"wrapS": 10497,
			"wrapT": 10497
		}
	],
	"scenes": [
		{
			"name":"defaultScene",
			"nodes": [
				0
			]
		}
	],
	"scene": 0,
	"textures": [
		{
			"sampler": 0,
			"source": 0
		},
		{
			"sampler": 0,
			"source": 1
		}
	]
}