{
	"asset": {
		"generator": "Unity 2018.3.11f1",
		"extras": {
			"exporterVersion" : "2.2.1"
		},
		"version": "2.0"
	},
	"accessors": [
		{
			"bufferView": 1,
			"byteOffset": 0,
			"componentType": 5126,
			"count": 30,
			"max": [ 0.9666667 ],
			"min": [ 0 ],
			"type": "SCALAR"
		},
		{
			"bufferView": 5,
			"byteOffset": 0,
			"componentType": 5126,
			"count": 30,
			"max": [ 50, 0, -51 ],
			"min": [ 40.03259, -4.983704, -51 ],
			"type": "VEC3"
		},
		{
			"bufferView": 6,
			"byteOffset": 0,
			"componentType": 5126,
			"count": 30,
			"max": [ 0, 0.7071068, -0.7071068, 0 ],
			"min": [ 0, 0.7071068, -0.7071068, 0 ],
			"type": "VEC4"
		},
		{
			"bufferView": 5,
			"byteOffset": 360,
			"componentType": 5126,
			"count": 30,
			"max": [ 40.00004, 40.00002, 40.00002 ],
			"min": [ 28.03911, 40.00002, 40.00002 ],
			"type": "VEC3"
		},
		{
			"bufferView": 1,
			"byteOffset": 120,
			"componentType": 5126,
			"count": 30,
			"max": [ 0.9666667 ],
			"min": [ 0 ],
			"type": "SCALAR"
		},
		{
			"bufferView": 5,
			"byteOffset": 720,
			"componentType": 5126,
			"count": 30,
			"max": [ 9.967407, 0, 0 ],
			"min": [ 0, -4.983704, 0 ],
			"type": "VEC3"
		},
		{
			"bufferView": 6,
			"byteOffset": 480,
			"componentType": 5126,
			"count": 30,
			"max": [ -0.7071068, 0, 0, -0.7071068 ],
			"min": [ -0.7071068, 0, 0, -0.7071068 ],
			"type": "VEC4"
		},
		{
			"bufferView": 5,
			"byteOffset": 1080,
			"componentType": 5126,
			"count": 30,
			"max": [ 40, 40.00002, 40.00002 ],
			"min": [ 30.03259, 40.00002, 40.00002 ],
			"type": "VEC3"
		},
		{
			"bufferView": 3,
			"byteOffset": 0,
			"componentType": 5126,
			"count": 2267,
			"max": [ 1.094725, 0, 0.008263164 ],
			"min": [ 0.6046979, -1.27, -0.3880736 ],
			"type": "VEC3"
		},
		{
			"bufferView": 3,
			"byteOffset": 27204,
			"componentType": 5126,
			"count": 2267,
			"max": [ 1, 0.9760916, 0.9991742 ],
			"min": [ -0.9625423, -1, -0.9999417 ],
			"type": "VEC3"
		},
		{
			"bufferView": 2,
			"byteOffset": 0,
			"componentType": 5126,
			"count": 2267,
			"max": [ 1, 0.890625 ],
			"min": [ 0, 0.4375 ],
			"type": "VEC2"
		},
		{
			"bufferView": 4,
			"byteOffset": 0,
			"componentType": 5126,
			"count": 2267,
			"max": [ 1, 0.2279823, 0.9929478, 1 ],
			"min": [ -0.974694, -1, -0.9263157, -1 ],
			"type": "VEC4"
		},
		{
			"bufferView": 0,
			"byteOffset": 0,
			"componentType": 5123,
			"count": 11508,
			"max": [ 2266 ],
			"min": [ 0 ],
			"type": "SCALAR"
		},
		{
			"bufferView": 3,
			"byteOffset": 54408,
			"componentType": 5126,
			"count": 2267,
			"max": [ 1.094725, 0, 0.008263164 ],
			"min": [ 0.6046979, -1.27, -0.3880736 ],
			"type": "VEC3"
		},
		{
			"bufferView": 3,
			"byteOffset": 81612,
			"componentType": 5126,
			"count": 2267,
			"max": [ 1, 0.9760916, 0.9991742 ],
			"min": [ -0.9625423, -1, -0.9999417 ],
			"type": "VEC3"
		},
		{
			"bufferView": 2,
			"byteOffset": 18136,
			"componentType": 5126,
			"count": 2267,
			"max": [ 1, 0.890625 ],
			"min": [ 0, 0.4375 ],
			"type": "VEC2"
		},
		{
			"bufferView": 4,
			"byteOffset": 36272,
			"componentType": 5126,
			"count": 2267,
			"max": [ 1, 0.2279823, 0.9929478, 1 ],
			"min": [ -0.974694, -1, -0.9263157, -1 ],
			"type": "VEC4"
		},
		{
			"bufferView": 0,
			"byteOffset": 23016,
			"componentType": 5123,
			"count": 11508,
			"max": [ 2266 ],
			"min": [ 0 ],
			"type": "SCALAR"
		},
		{
			"bufferView": 3,
			"byteOffset": 108816,
			"componentType": 5126,
			"count": 4225,
			"max": [ 50, 0, 0 ],
			"min": [ 0, 0, -50 ],
			"type": "VEC3"
		},
		{
			"bufferView": 3,
			"byteOffset": 159516,
			"componentType": 5126,
			"count": 4225,
			"max": [ 0, 1, 0 ],
			"min": [ 0, 1, 0 ],
			"type": "VEC3"
		},
		{
			"bufferView": 2,
			"byteOffset": 36272,
			"componentType": 5126,
			"count": 4225,
			"max": [ 1, 1 ],
			"min": [ 0, 0 ],
			"type": "VEC2"
		},
		{
			"bufferView": 4,
			"byteOffset": 72544,
			"componentType": 5126,
			"count": 4225,
			"max": [ 0, 0, -1, -1 ],
			"min": [ 0, 0, -1, -1 ],
			"type": "VEC4"
		},
		{
			"bufferView": 0,
			"byteOffset": 46032,
			"componentType": 5123,
			"count": 24576,
			"max": [ 4224 ],
			"min": [ 0 ],
			"type": "SCALAR"
		},
		{
			"bufferView": 3,
			"byteOffset": 210216,
			"componentType": 5126,
			"count": 2269,
			"max": [ 1.069156, 0, 0.008263159 ],
			"min": [ 0.6250792, -1.27, -0.3880736 ],
			"type": "VEC3"
		},
		{
			"bufferView": 3,
			"byteOffset": 237444,
			"componentType": 5126,
			"count": 2269,
			"max": [ 1, 0.9384744, 0.9975922 ],
			"min": [ -0.9886277, -1, -0.9999417 ],
			"type": "VEC3"
		},
		{
			"bufferView": 2,
			"byteOffset": 70072,
			"componentType": 5126,
			"count": 2269,
			"max": [ 1, 0.890625 ],
			"min": [ 0, 0.4375 ],
			"type": "VEC2"
		},
		{
			"bufferView": 4,
			"byteOffset": 140144,
			"componentType": 5126,
			"count": 2269,
			"max": [ 1, 0.3312848, 0.9929478, 1 ],
			"min": [ -0.9783159, -1, -0.9263157, -1 ],
			"type": "VEC4"
		},
		{
			"bufferView": 0,
			"byteOffset": 95184,
			"componentType": 5123,
			"count": 11508,
			"max": [ 2268 ],
			"min": [ 0 ],
			"type": "SCALAR"
		},
		{
			"bufferView": 3,
			"byteOffset": 264672,
			"componentType": 5126,
			"count": 2269,
			"max": [ 1.069156, 0, 0.008263159 ],
			"min": [ 0.6250792, -1.27, -0.3880736 ],
			"type": "VEC3"
		},
		{
			"bufferView": 3,
			"byteOffset": 291900,
			"componentType": 5126,
			"count": 2269,
			"max": [ 1, 0.9384744, 0.9975922 ],
			"min": [ -0.9886277, -1, -0.9999417 ],
			"type": "VEC3"
		},
		{
			"bufferView": 2,
			"byteOffset": 88224,
			"componentType": 5126,
			"count": 2269,
			"max": [ 1, 0.890625 ],
			"min": [ 0, 0.4375 ],
			"type": "VEC2"
		},
		{
			"bufferView": 4,
			"byteOffset": 176448,
			"componentType": 5126,
			"count": 2269,
			"max": [ 1, 0.3312848, 0.9929478, 1 ],
			"min": [ -0.9783159, -1, -0.9263157, -1 ],
			"type": "VEC4"
		},
		{
			"bufferView": 0,
			"byteOffset": 118200,
			"componentType": 5123,
			"count": 11508,
			"max": [ 2268 ],
			"min": [ 0 ],
			"type": "SCALAR"
		}
	],
	"animations": [
		{
			"name": "",
			"channels": [
				{
					"sampler": 0,
					"target": {
						"node": 9,
						"path": "translation"
					}
				},
				{
					"sampler": 1,
					"target": {
						"node": 9,
						"path": "rotation"
					}
				},
				{
					"sampler": 2,
					"target": {
						"node": 9,
						"path": "scale"
					}
				},
				{
					"sampler": 3,
					"target": {
						"node": 8,
						"path": "translation"
					}
				},
				{
					"sampler": 4,
					"target": {
						"node": 8,
						"path": "rotation"
					}
				},
				{
					"sampler": 5,
					"target": {
						"node": 8,
						"path": "scale"
					}
				}
			],
			"samplers": [
				{
					"input": 0,
					"interpolation": "LINEAR",
					"output": 1
				},
				{
					"input": 0,
					"interpolation": "LINEAR",
					"output": 2
				},
				{
					"input": 0,
					"interpolation": "LINEAR",
					"output": 3
				},
				{
					"input": 4,
					"interpolation": "LINEAR",
					"output": 5
				},
				{
					"input": 4,
					"interpolation": "LINEAR",
					"output": 6
				},
				{
					"input": 4,
					"interpolation": "LINEAR",
					"output": 7
				}
			]
		}
	],
	"buffers": [
		{
			"byteLength": 782112,
			"uri": "风蚀谷（丘）.bin"
		}
	],
	"bufferViews": [
		{
			"buffer": 0,
			"byteLength": 141216,
			"target": 34963,
			"byteOffset": 638496
		},
		{
			"buffer": 0,
			"byteLength": 240,
			"byteOffset": 0
		},
		{
			"buffer": 0,
			"byteLength": 106376,
			"target": 34962,
			"byteStride": 8,
			"byteOffset": 240
		},
		{
			"buffer": 0,
			"byteLength": 319128,
			"target": 34962,
			"byteStride": 12,
			"byteOffset": 106616
		},
		{
			"buffer": 0,
			"byteLength": 212752,
			"target": 34962,
			"byteStride": 16,
			"byteOffset": 425744
		},
		{
			"buffer": 0,
			"byteLength": 1440,
			"byteStride": 12,
			"byteOffset": 779712
		},
		{
			"buffer": 0,
			"byteLength": 960,
			"byteStride": 16,
			"byteOffset": 781152
		}
	],
	"images": [
		{
			"uri": "/Assets/风蚀雅丹/Textures/timg (1).jpg"
		},
		{
			"uri": "/Assets/风蚀雅丹/Textures/GoodDirt.jpg"
		}
	],
	"materials": [
		{
			"pbrMetallicRoughness": {
				"baseColorTexture" : {
					"index" : 0,
					"texCoord" : 0
				},
				"baseColorFactor": [1, 1, 1, 1],
				"metallicFactor": 0,
				"roughnessFactor": 0.5
			},
			"emissiveFactor": [0, 0, 0],
			"doubleSided": false,
			"name": "y"
		},
		{
			"pbrMetallicRoughness": {
				"baseColorTexture" : {
					"index" : 1,
					"texCoord" : 0
				},
				"baseColorFactor": [1, 1, 1, 1],
				"metallicFactor": 0,
				"roughnessFactor": 0.5
			},
			"emissiveFactor": [0, 0, 0],
			"doubleSided": false,
			"name": ""
		}
	],
	"meshes": [
		{
			"name": "mesh_default_122641",
			"primitives": [
				{
					"attributes": {
						"POSITION": 8,
						"NORMAL": 9,
						"TEXCOORD_0": 10,
						"TANGENT": 11
					},
					"indices": 12,
					"material": 0,
					"mode": 4
				}
			]
		},
		{
			"name": "mesh_default_122641 (1)",
			"primitives": [
				{
					"attributes": {
						"POSITION": 13,
						"NORMAL": 14,
						"TEXCOORD_0": 15,
						"TANGENT": 16
					},
					"indices": 17,
					"material": 0,
					"mode": 4
				}
			]
		},
		{
			"name": "mesh_default_11792default",
			"primitives": [
				{
					"attributes": {
						"POSITION": 18,
						"NORMAL": 19,
						"TEXCOORD_0": 20,
						"TANGENT": 21
					},
					"indices": 22,
					"material": 1,
					"mode": 4
				}
			]
		},
		{
			"name": "mesh_default_122720",
			"primitives": [
				{
					"attributes": {
						"POSITION": 23,
						"NORMAL": 24,
						"TEXCOORD_0": 25,
						"TANGENT": 26
					},
					"indices": 27,
					"material": 0,
					"mode": 4
				}
			]
		},
		{
			"name": "mesh_default_122720 (1)",
			"primitives": [
				{
					"attributes": {
						"POSITION": 28,
						"NORMAL": 29,
						"TEXCOORD_0": 30,
						"TANGENT": 31
					},
					"indices": 32,
					"material": 0,
					"mode": 4
				}
			]
		}
	],
	"nodes": [
		{
			"name": "UnityGlTF_root",
			"children": [
				1
			]
		},
		{
			"name": "node__-20928",
			"children": [
				2,
				3,
				4
			],
			"matrix": [1, 0, 0, 0, 0, 1, 0, 0, 0, 0, 1, 0, -54.44934, 257.3986, -16.79151, 1]
		},
		{
			"name": "node__-20932",
			"children": [
				7
			]
		},
		{
			"name": "node_0_-20934",
			"children": [
				8,
				9
			]
		},
		{
			"name": "node_1_-20936",
			"children": [
				5,
				6
			]
		},
		{
			"name": "node_1_-20940",
			"mesh": 0,
			"translation": [ 4.3, 0, 0],
			"scale": [ 35, 40.00002, 40.00002],
			"rotation": [-0.7071068, 0, 0, -0.7071068]
		},
		{
			"name": "node_1 (1)_-20942",
			"mesh": 1,
			"translation": [ 45.1, 0, -51],
			"scale": [ 35, 40.00002, 40.00002],
			"rotation": [0, 0.7071068, -0.7071068, 0]
		},
		{
			"name": "node_default_-20946",
			"mesh": 2
		},
		{
			"name": "node_0_-20950",
			"mesh": 3,
			"scale": [ 40, 40.00002, 40.00002],
			"rotation": [-0.7071068, 0, 0, -0.7071068]
		},
		{
			"name": "node_0 (1)_-20952",
			"mesh": 4,
			"translation": [ 50, 0, -51],
			"scale": [ 40.00004, 40.00002, 40.00002],
			"rotation": [0, 0.7071068, -0.7071068, 0]
		}
	],
	"samplers": [
		{
			"magFilter": 9729,
			"minFilter": 9985,
			"wrapS": 10497,
			"wrapT": 10497
		}
	],
	"scenes": [
		{
			"name":"defaultScene",
			"nodes": [
				0
			]
		}
	],
	"scene": 0,
	"textures": [
		{
			"sampler": 0,
			"source": 0
		},
		{
			"sampler": 0,
			"source": 1
		}
	]
}