{
	"asset": {
		"generator": "Unity 2018.3.11f1",
		"extras": {
			"exporterVersion" : "2.2.1"
		},
		"version": "2.0"
	},
	"accessors": [
		{
			"bufferView": 3,
			"byteOffset": 0,
			"componentType": 5126,
			"count": 38,
			"max": [ 0.2218504, -0.00593195, 0 ],
			"min": [ -0.2218504, -0.1364173, -0.1642755 ],
			"type": "VEC3"
		},
		{
			"bufferView": 3,
			"byteOffset": 456,
			"componentType": 5126,
			"count": 38,
			"max": [ 1, 1, 1 ],
			"min": [ -1, -1, -0.974191 ],
			"type": "VEC3"
		},
		{
			"bufferView": 2,
			"byteOffset": 0,
			"componentType": 5126,
			"count": 38,
			"max": [ 1, 1 ],
			"min": [ 0, 0 ],
			"type": "VEC2"
		},
		{
			"bufferView": 4,
			"byteOffset": 0,
			"componentType": 5126,
			"count": 38,
			"max": [ 1, 1, 0.4762725, 1 ],
			"min": [ -1, -1, -0.6593109, 1 ],
			"type": "VEC4"
		},
		{
			"bufferView": 0,
			"byteOffset": 0,
			"componentType": 5123,
			"count": 60,
			"max": [ 37 ],
			"min": [ 0 ],
			"type": "SCALAR"
		},
		{
			"bufferView": 1,
			"byteOffset": 0,
			"componentType": 5126,
			"count": 30,
			"max": [ 0.9666667 ],
			"min": [ 0 ],
			"type": "SCALAR"
		},
		{
			"bufferView": 5,
			"byteOffset": 0,
			"componentType": 5126,
			"count": 30,
			"max": [ -0.759875, 0.007, -0.418 ],
			"min": [ -0.759875, 0.007, -0.502723 ],
			"type": "VEC3"
		},
		{
			"bufferView": 6,
			"byteOffset": 0,
			"componentType": 5126,
			"count": 30,
			"max": [ -0.7071068, 0, 0, -0.7071068 ],
			"min": [ -0.7071068, 0, 0, -0.7071068 ],
			"type": "VEC4"
		},
		{
			"bufferView": 5,
			"byteOffset": 360,
			"componentType": 5126,
			"count": 30,
			"max": [ 2.54, 2.54, 2.54 ],
			"min": [ 2.54, 2.54, 2.54 ],
			"type": "VEC3"
		},
		{
			"bufferView": 3,
			"byteOffset": 912,
			"componentType": 5126,
			"count": 6859,
			"max": [ 0.2218716, 0.1377437, 0.0001550559 ],
			"min": [ -0.2218787, -0.06188713, -0.2017266 ],
			"type": "VEC3"
		},
		{
			"bufferView": 3,
			"byteOffset": 83220,
			"componentType": 5126,
			"count": 6859,
			"max": [ 1, 1, 1 ],
			"min": [ -1, -1, -0.9996141 ],
			"type": "VEC3"
		},
		{
			"bufferView": 2,
			"byteOffset": 304,
			"componentType": 5126,
			"count": 6859,
			"max": [ 1, 1 ],
			"min": [ 0, 0 ],
			"type": "VEC2"
		},
		{
			"bufferView": 4,
			"byteOffset": 608,
			"componentType": 5126,
			"count": 6859,
			"max": [ 1, 1, 0.8056509, 1 ],
			"min": [ -1, -1, -0.5190358, 1 ],
			"type": "VEC4"
		},
		{
			"bufferView": 0,
			"byteOffset": 120,
			"componentType": 5123,
			"count": 37632,
			"max": [ 6858 ],
			"min": [ 0 ],
			"type": "SCALAR"
		},
		{
			"bufferView": 3,
			"byteOffset": 165528,
			"componentType": 5126,
			"count": 6910,
			"max": [ 0.2218716, 0.05162039, 0.001617307 ],
			"min": [ -0.2218716, -0.1366505, -0.2246962 ],
			"type": "VEC3"
		},
		{
			"bufferView": 3,
			"byteOffset": 248448,
			"componentType": 5126,
			"count": 6910,
			"max": [ 1, 1, 1 ],
			"min": [ -1, -1, -0.9999793 ],
			"type": "VEC3"
		},
		{
			"bufferView": 2,
			"byteOffset": 55176,
			"componentType": 5126,
			"count": 6910,
			"max": [ 1, 1 ],
			"min": [ 0, 0 ],
			"type": "VEC2"
		},
		{
			"bufferView": 4,
			"byteOffset": 110352,
			"componentType": 5126,
			"count": 6910,
			"max": [ 1, 1, 0.9105469, 1 ],
			"min": [ -1, -1, -0.5306128, 1 ],
			"type": "VEC4"
		},
		{
			"bufferView": 0,
			"byteOffset": 75384,
			"componentType": 5123,
			"count": 37632,
			"max": [ 6909 ],
			"min": [ 0 ],
			"type": "SCALAR"
		},
		{
			"bufferView": 3,
			"byteOffset": 331368,
			"componentType": 5126,
			"count": 40,
			"max": [ 0.2218504, -0.00593195, 0 ],
			"min": [ -0.2218504, -0.1364173, -0.1645663 ],
			"type": "VEC3"
		},
		{
			"bufferView": 3,
			"byteOffset": 331848,
			"componentType": 5126,
			"count": 40,
			"max": [ 1, 1, 1 ],
			"min": [ -1, -1, -0.974191 ],
			"type": "VEC3"
		},
		{
			"bufferView": 2,
			"byteOffset": 110456,
			"componentType": 5126,
			"count": 40,
			"max": [ 1, 1 ],
			"min": [ 0, 0 ],
			"type": "VEC2"
		},
		{
			"bufferView": 4,
			"byteOffset": 220912,
			"componentType": 5126,
			"count": 40,
			"max": [ 1, 1, 0.6415144, 1 ],
			"min": [ -1, -1, -0.6343917, 1 ],
			"type": "VEC4"
		},
		{
			"bufferView": 0,
			"byteOffset": 150648,
			"componentType": 5123,
			"count": 60,
			"max": [ 39 ],
			"min": [ 0 ],
			"type": "SCALAR"
		},
		{
			"bufferView": 1,
			"byteOffset": 120,
			"componentType": 5126,
			"count": 30,
			"max": [ 0.9666667 ],
			"min": [ 0 ],
			"type": "SCALAR"
		},
		{
			"bufferView": 5,
			"byteOffset": 720,
			"componentType": 5126,
			"count": 30,
			"max": [ -0.759875, 0.004, -0.3422901 ],
			"min": [ -0.759875, 0.004, -0.431 ],
			"type": "VEC3"
		},
		{
			"bufferView": 6,
			"byteOffset": 480,
			"componentType": 5126,
			"count": 30,
			"max": [ -0.7071068, 0, 0, -0.7071068 ],
			"min": [ -0.7071068, 0, 0, -0.7071068 ],
			"type": "VEC4"
		},
		{
			"bufferView": 5,
			"byteOffset": 1080,
			"componentType": 5126,
			"count": 30,
			"max": [ 2.54, 2.54, 2.54 ],
			"min": [ 2.54, 2.54, 2.54 ],
			"type": "VEC3"
		},
		{
			"bufferView": 3,
			"byteOffset": 332328,
			"componentType": 5126,
			"count": 24,
			"max": [ 0.2218504, 0.1364173, -0.3124801 ],
			"min": [ -0.2270043, -0.1364173, -0.4384931 ],
			"type": "VEC3"
		},
		{
			"bufferView": 3,
			"byteOffset": 332616,
			"componentType": 5126,
			"count": 24,
			"max": [ 0.9735973, 1, 0.9735973 ],
			"min": [ -0.9735973, -1, -0.9735973 ],
			"type": "VEC3"
		},
		{
			"bufferView": 2,
			"byteOffset": 110776,
			"componentType": 5126,
			"count": 24,
			"max": [ 1, 1 ],
			"min": [ 0, 0 ],
			"type": "VEC2"
		},
		{
			"bufferView": 4,
			"byteOffset": 221552,
			"componentType": 5126,
			"count": 24,
			"max": [ 1, 0, 0.2282725, 1 ],
			"min": [ -0.9735973, 0, 0, -1 ],
			"type": "VEC4"
		},
		{
			"bufferView": 0,
			"byteOffset": 150768,
			"componentType": 5123,
			"count": 36,
			"max": [ 23 ],
			"min": [ 0 ],
			"type": "SCALAR"
		},
		{
			"bufferView": 3,
			"byteOffset": 332904,
			"componentType": 5126,
			"count": 24,
			"max": [ 0.2095604, 0.1364173, -0.5581396 ],
			"min": [ -0.2412765, -0.1364173, -0.6926069 ],
			"type": "VEC3"
		},
		{
			"bufferView": 3,
			"byteOffset": 333192,
			"componentType": 5126,
			"count": 24,
			"max": [ 0.9735973, 1, 0.9735973 ],
			"min": [ -0.9735974, -1, -0.9735973 ],
			"type": "VEC3"
		},
		{
			"bufferView": 2,
			"byteOffset": 110968,
			"componentType": 5126,
			"count": 24,
			"max": [ 1, 1 ],
			"min": [ 0, 0 ],
			"type": "VEC2"
		},
		{
			"bufferView": 4,
			"byteOffset": 221936,
			"componentType": 5126,
			"count": 24,
			"max": [ 1, 0, 0.2282723, 1 ],
			"min": [ -0.9735973, 0, 0, -1 ],
			"type": "VEC4"
		},
		{
			"bufferView": 0,
			"byteOffset": 150840,
			"componentType": 5123,
			"count": 36,
			"max": [ 23 ],
			"min": [ 0 ],
			"type": "SCALAR"
		}
	],
	"animations": [
		{
			"name": "leftmove",
			"channels": [
				{
					"sampler": 0,
					"target": {
						"node": 1,
						"path": "translation"
					}
				},
				{
					"sampler": 1,
					"target": {
						"node": 1,
						"path": "rotation"
					}
				},
				{
					"sampler": 2,
					"target": {
						"node": 1,
						"path": "scale"
					}
				}
			],
			"samplers": [
				{
					"input": 5,
					"interpolation": "LINEAR",
					"output": 6
				},
				{
					"input": 5,
					"interpolation": "LINEAR",
					"output": 7
				},
				{
					"input": 5,
					"interpolation": "LINEAR",
					"output": 8
				}
			]
		},
		{
			"name": "rightmove",
			"channels": [
				{
					"sampler": 0,
					"target": {
						"node": 5,
						"path": "translation"
					}
				},
				{
					"sampler": 1,
					"target": {
						"node": 5,
						"path": "rotation"
					}
				},
				{
					"sampler": 2,
					"target": {
						"node": 5,
						"path": "scale"
					}
				}
			],
			"samplers": [
				{
					"input": 24,
					"interpolation": "LINEAR",
					"output": 25
				},
				{
					"input": 24,
					"interpolation": "LINEAR",
					"output": 26
				},
				{
					"input": 24,
					"interpolation": "LINEAR",
					"output": 27
				}
			]
		}
	],
	"buffers": [
		{
			"byteLength": 820512,
			"uri": "切沟.bin"
		}
	],
	"bufferViews": [
		{
			"buffer": 0,
			"byteLength": 150912,
			"target": 34963,
			"byteOffset": 667200
		},
		{
			"buffer": 0,
			"byteLength": 240,
			"byteOffset": 0
		},
		{
			"buffer": 0,
			"byteLength": 111160,
			"target": 34962,
			"byteStride": 8,
			"byteOffset": 240
		},
		{
			"buffer": 0,
			"byteLength": 333480,
			"target": 34962,
			"byteStride": 12,
			"byteOffset": 111400
		},
		{
			"buffer": 0,
			"byteLength": 222320,
			"target": 34962,
			"byteStride": 16,
			"byteOffset": 444880
		},
		{
			"buffer": 0,
			"byteLength": 1440,
			"byteStride": 12,
			"byteOffset": 818112
		},
		{
			"buffer": 0,
			"byteLength": 960,
			"byteStride": 16,
			"byteOffset": 819552
		}
	],
	"images": [
		{
			"uri": "/Assets/沟谷流水地貌/沟谷/Textures/沟谷0730.fbm/tur1.jpg"
		},
		{
			"uri": "/Assets/沟谷流水地貌/沟谷/Textures/沟谷0730.fbm/timg3.jpg"
		},
		{
			"uri": "/Assets/沟谷流水地貌/沟谷/Textures/沟谷0730.fbm/水流2.jpg"
		}
	],
	"materials": [
		{
			"pbrMetallicRoughness": {
				"baseColorTexture" : {
					"index" : 0,
					"texCoord" : 0
				},
				"baseColorFactor": [0.5882353, 0.5882353, 0.5882353, 1],
				"metallicFactor": 0,
				"roughnessFactor": 1
			},
			"emissiveFactor": [0, 0, 0],
			"doubleSided": false,
			"name": "tur1"
		},
		{
			"pbrMetallicRoughness": {
				"baseColorTexture" : {
					"index" : 1,
					"texCoord" : 0
				},
				"baseColorFactor": [0.5882353, 0.5882353, 0.5882353, 1],
				"metallicFactor": 0,
				"roughnessFactor": 1
			},
			"emissiveFactor": [0, 0, 0],
			"doubleSided": false,
			"name": "timg3"
		},
		{
			"pbrMetallicRoughness": {
				"baseColorTexture" : {
					"index" : 2,
					"texCoord" : 0
				},
				"baseColorFactor": [0.5882353, 0.5882353, 0.5882353, 1],
				"metallicFactor": 0,
				"roughnessFactor": 1
			},
			"emissiveFactor": [0, 0, 0],
			"doubleSided": false,
			"name": "2"
		}
	],
	"meshes": [
		{
			"name": "mesh_Box010_29342leftmove",
			"primitives": [
				{
					"attributes": {
						"POSITION": 0,
						"NORMAL": 1,
						"TEXCOORD_0": 2,
						"TANGENT": 3
					},
					"indices": 4,
					"material": 0,
					"mode": 4
				}
			]
		},
		{
			"name": "mesh_Box006_29346leftmount",
			"primitives": [
				{
					"attributes": {
						"POSITION": 9,
						"NORMAL": 10,
						"TEXCOORD_0": 11,
						"TANGENT": 12
					},
					"indices": 13,
					"material": 0,
					"mode": 4
				}
			]
		},
		{
			"name": "mesh_Box012_29350rightmount",
			"primitives": [
				{
					"attributes": {
						"POSITION": 14,
						"NORMAL": 15,
						"TEXCOORD_0": 16,
						"TANGENT": 17
					},
					"indices": 18,
					"material": 0,
					"mode": 4
				}
			]
		},
		{
			"name": "mesh_Box013_29340rightmove",
			"primitives": [
				{
					"attributes": {
						"POSITION": 19,
						"NORMAL": 20,
						"TEXCOORD_0": 21,
						"TANGENT": 22
					},
					"indices": 23,
					"material": 0,
					"mode": 4
				}
			]
		},
		{
			"name": "mesh_003_29352stone",
			"primitives": [
				{
					"attributes": {
						"POSITION": 28,
						"NORMAL": 29,
						"TEXCOORD_0": 30,
						"TANGENT": 31
					},
					"indices": 32,
					"material": 1,
					"mode": 4
				}
			]
		},
		{
			"name": "mesh_002_29348water",
			"primitives": [
				{
					"attributes": {
						"POSITION": 33,
						"NORMAL": 34,
						"TEXCOORD_0": 35,
						"TANGENT": 36
					},
					"indices": 37,
					"material": 2,
					"mode": 4
				}
			]
		}
	],
	"nodes": [
		{
			"name": "UnityGlTF_root",
			"children": [
				3
			]
		},
		{
			"name": "node_leftmove_-63070",
			"mesh": 0,
			"translation": [ -0.759875, 0.007, -0.418],
			"scale": [ 2.54, 2.54, 2.54],
			"rotation": [-0.7071068, 0, 0, -0.7071068]
		},
		{
			"name": "node_leftmount_-63068",
			"mesh": 1,
			"translation": [ -0.7604071, 0, -1.115322],
			"scale": [ 2.54, 2.54, 2.54],
			"rotation": [-0.7071068, 0, 0, -0.7071068]
		},
		{
			"name": "node__-63064",
			"children": [
				2,
				1,
				4,
				5,
				7,
				6
			],
			"matrix": [1, 0, 0, 0, 0, 1, 0, 0, 0, 0, 1, 0, 0, 0, -2, 1]
		},
		{
			"name": "node_rightmount_-63072",
			"mesh": 2,
			"translation": [ -0.7604071, 0, -0.09550522],
			"scale": [ 2.54, 2.54, 2.54],
			"rotation": [-0.7071068, 0, 0, -0.7071068]
		},
		{
			"name": "node_rightmove_-63074",
			"mesh": 3,
			"translation": [ -0.759875, 0.004, -0.431],
			"scale": [ 2.54, 2.54, 2.54],
			"rotation": [-0.7071068, 0, 0, -0.7071068]
		},
		{
			"name": "node_stone_-63078",
			"mesh": 4,
			"translation": [ -0.7347367, -0.7512369, -0.5624847],
			"scale": [ 2.54, 2.54, 2.54],
			"rotation": [-0.7071068, 0, 0, -0.7071068]
		},
		{
			"name": "node_water_-63076",
			"mesh": 5,
			"translation": [ -0.7518219, -1.358884, -0.6163039],
			"scale": [ 2.54, 2.54, 2.54],
			"rotation": [-0.7070432, 0.009486914, 0.009486914, -0.7070432]
		}
	],
	"samplers": [
		{
			"magFilter": 9729,
			"minFilter": 9985,
			"wrapS": 10497,
			"wrapT": 10497
		}
	],
	"scenes": [
		{
			"name":"defaultScene",
			"nodes": [
				0
			]
		}
	],
	"scene": 0,
	"textures": [
		{
			"sampler": 0,
			"source": 0
		},
		{
			"sampler": 0,
			"source": 1
		},
		{
			"sampler": 0,
			"source": 2
		}
	]
}