{
	"asset": {
		"generator": "Unity 2018.3.11f1",
		"extras": {
			"exporterVersion" : "2.2.1"
		},
		"version": "2.0"
	},
	"accessors": [
		{
			"bufferView": 3,
			"byteOffset": 0,
			"componentType": 5126,
			"count": 24,
			"max": [ 0.5, 0.5, 0.5 ],
			"min": [ -0.5, -0.5, -0.5 ],
			"type": "VEC3"
		},
		{
			"bufferView": 3,
			"byteOffset": 288,
			"componentType": 5126,
			"count": 24,
			"max": [ 1, 1, 1 ],
			"min": [ -1, -1, -1 ],
			"type": "VEC3"
		},
		{
			"bufferView": 2,
			"byteOffset": 0,
			"componentType": 5126,
			"count": 24,
			"max": [ 1, 1 ],
			"min": [ 0, 0 ],
			"type": "VEC2"
		},
		{
			"bufferView": 2,
			"byteOffset": 192,
			"componentType": 5126,
			"count": 24,
			"max": [ 0.9966581, 0.6528358 ],
			"min": [ 0.004055766, 0.004055766 ],
			"type": "VEC2"
		},
		{
			"bufferView": 4,
			"byteOffset": 0,
			"componentType": 5126,
			"count": 24,
			"max": [ 0, 0, 1, 1 ],
			"min": [ -1, 0, -1, 1 ],
			"type": "VEC4"
		},
		{
			"bufferView": 0,
			"byteOffset": 0,
			"componentType": 5123,
			"count": 36,
			"max": [ 23 ],
			"min": [ 0 ],
			"type": "SCALAR"
		},
		{
			"bufferView": 3,
			"byteOffset": 576,
			"componentType": 5126,
			"count": 24,
			"max": [ 0.5, 0.5, 0.5 ],
			"min": [ -0.5, -0.5, -0.5 ],
			"type": "VEC3"
		},
		{
			"bufferView": 3,
			"byteOffset": 864,
			"componentType": 5126,
			"count": 24,
			"max": [ 1, 1, 1 ],
			"min": [ -1, -1, -1 ],
			"type": "VEC3"
		},
		{
			"bufferView": 2,
			"byteOffset": 384,
			"componentType": 5126,
			"count": 24,
			"max": [ 1, 1 ],
			"min": [ 0, 0 ],
			"type": "VEC2"
		},
		{
			"bufferView": 2,
			"byteOffset": 576,
			"componentType": 5126,
			"count": 24,
			"max": [ 0.9966581, 0.6528358 ],
			"min": [ 0.004055766, 0.004055766 ],
			"type": "VEC2"
		},
		{
			"bufferView": 4,
			"byteOffset": 384,
			"componentType": 5126,
			"count": 24,
			"max": [ 0, 0, 1, 1 ],
			"min": [ -1, 0, -1, 1 ],
			"type": "VEC4"
		},
		{
			"bufferView": 0,
			"byteOffset": 72,
			"componentType": 5123,
			"count": 36,
			"max": [ 23 ],
			"min": [ 0 ],
			"type": "SCALAR"
		},
		{
			"bufferView": 3,
			"byteOffset": 1152,
			"componentType": 5126,
			"count": 6442,
			"max": [ 1.27, 1.27, 0.05317702 ],
			"min": [ -1.27, -1.27, -0.5345921 ],
			"type": "VEC3"
		},
		{
			"bufferView": 3,
			"byteOffset": 78456,
			"componentType": 5126,
			"count": 6442,
			"max": [ 1, 1, 1 ],
			"min": [ -1, -1, -1 ],
			"type": "VEC3"
		},
		{
			"bufferView": 2,
			"byteOffset": 768,
			"componentType": 5126,
			"count": 6442,
			"max": [ 1, 1 ],
			"min": [ 0, 0 ],
			"type": "VEC2"
		},
		{
			"bufferView": 4,
			"byteOffset": 768,
			"componentType": 5126,
			"count": 6442,
			"max": [ 1, 1, 0.9890026, 1 ],
			"min": [ -1, -1, -0.9133425, 1 ],
			"type": "VEC4"
		},
		{
			"bufferView": 0,
			"byteOffset": 144,
			"componentType": 5123,
			"count": 35994,
			"max": [ 6441 ],
			"min": [ 0 ],
			"type": "SCALAR"
		},
		{
			"bufferView": 3,
			"byteOffset": 155760,
			"componentType": 5126,
			"count": 6442,
			"max": [ 1.27, 1.27, 0.02513975 ],
			"min": [ -1.27, -1.27, -0.6559882 ],
			"type": "VEC3"
		},
		{
			"bufferView": 3,
			"byteOffset": 233064,
			"componentType": 5126,
			"count": 6442,
			"max": [ 1, 1, 1 ],
			"min": [ -1, -1, -1 ],
			"type": "VEC3"
		},
		{
			"bufferView": 2,
			"byteOffset": 52304,
			"componentType": 5126,
			"count": 6442,
			"max": [ 1, 1 ],
			"min": [ 0, 0 ],
			"type": "VEC2"
		},
		{
			"bufferView": 4,
			"byteOffset": 103840,
			"componentType": 5126,
			"count": 6442,
			"max": [ 1, 1, 0.9964873, 1 ],
			"min": [ -1, -1, -0.9101878, 1 ],
			"type": "VEC4"
		},
		{
			"bufferView": 0,
			"byteOffset": 72132,
			"componentType": 5123,
			"count": 35994,
			"max": [ 6441 ],
			"min": [ 0 ],
			"type": "SCALAR"
		},
		{
			"bufferView": 1,
			"byteOffset": 0,
			"componentType": 5126,
			"count": 182,
			"max": [ 6.066483 ],
			"min": [ 0 ],
			"type": "SCALAR"
		},
		{
			"bufferView": 5,
			"byteOffset": 0,
			"componentType": 5126,
			"count": 182,
			"max": [ 0, 0.01721931, 0 ],
			"min": [ 0, -0.2722965, 0 ],
			"type": "VEC3"
		},
		{
			"bufferView": 6,
			"byteOffset": 0,
			"componentType": 5126,
			"count": 182,
			"max": [ -0.7071068, 0, 0, -0.7071068 ],
			"min": [ -0.7071068, 0, 0, -0.7071068 ],
			"type": "VEC4"
		},
		{
			"bufferView": 5,
			"byteOffset": 2184,
			"componentType": 5126,
			"count": 182,
			"max": [ 1, 1, 1 ],
			"min": [ 1, 1, 1 ],
			"type": "VEC3"
		},
		{
			"bufferView": 3,
			"byteOffset": 310368,
			"componentType": 5126,
			"count": 6442,
			"max": [ 1.27, 1.27, 0.02513975 ],
			"min": [ -1.27, -1.27, -0.508 ],
			"type": "VEC3"
		},
		{
			"bufferView": 3,
			"byteOffset": 387672,
			"componentType": 5126,
			"count": 6442,
			"max": [ 1, 1, 1 ],
			"min": [ -1, -1, -1 ],
			"type": "VEC3"
		},
		{
			"bufferView": 2,
			"byteOffset": 103840,
			"componentType": 5126,
			"count": 6442,
			"max": [ 1, 1 ],
			"min": [ 0, 0 ],
			"type": "VEC2"
		},
		{
			"bufferView": 4,
			"byteOffset": 206912,
			"componentType": 5126,
			"count": 6442,
			"max": [ 1, 1, 0.8537042, 1 ],
			"min": [ -1, -1, -0.8545017, 1 ],
			"type": "VEC4"
		},
		{
			"bufferView": 0,
			"byteOffset": 144120,
			"componentType": 5123,
			"count": 35994,
			"max": [ 6441 ],
			"min": [ 0 ],
			"type": "SCALAR"
		},
		{
			"bufferView": 1,
			"byteOffset": 728,
			"componentType": 5126,
			"count": 180,
			"max": [ 5.966667 ],
			"min": [ 0 ],
			"type": "SCALAR"
		},
		{
			"bufferView": 5,
			"byteOffset": 4368,
			"componentType": 5126,
			"count": 180,
			"max": [ 0, 0.01680738, 0 ],
			"min": [ 0, -0.243751, 0 ],
			"type": "VEC3"
		},
		{
			"bufferView": 6,
			"byteOffset": 2912,
			"componentType": 5126,
			"count": 180,
			"max": [ -0.7071068, 0, 0, -0.7071068 ],
			"min": [ -0.7071068, 0, 0, -0.7071068 ],
			"type": "VEC4"
		},
		{
			"bufferView": 5,
			"byteOffset": 6528,
			"componentType": 5126,
			"count": 180,
			"max": [ 1, 1, 1 ],
			"min": [ 1, 1, 1 ],
			"type": "VEC3"
		},
		{
			"bufferView": 3,
			"byteOffset": 464976,
			"componentType": 5126,
			"count": 6442,
			"max": [ 1.27, 1.27, 0.02513975 ],
			"min": [ -1.27, -1.27, -0.7198477 ],
			"type": "VEC3"
		},
		{
			"bufferView": 3,
			"byteOffset": 542280,
			"componentType": 5126,
			"count": 6442,
			"max": [ 1, 1, 1 ],
			"min": [ -1, -1, -1 ],
			"type": "VEC3"
		},
		{
			"bufferView": 2,
			"byteOffset": 155376,
			"componentType": 5126,
			"count": 6442,
			"max": [ 1, 1 ],
			"min": [ 0, 0 ],
			"type": "VEC2"
		},
		{
			"bufferView": 4,
			"byteOffset": 309984,
			"componentType": 5126,
			"count": 6442,
			"max": [ 1, 1, 0.9989254, 1 ],
			"min": [ -1, -1, -0.9133425, 1 ],
			"type": "VEC4"
		},
		{
			"bufferView": 0,
			"byteOffset": 216108,
			"componentType": 5123,
			"count": 35994,
			"max": [ 6441 ],
			"min": [ 0 ],
			"type": "SCALAR"
		},
		{
			"bufferView": 1,
			"byteOffset": 1448,
			"componentType": 5126,
			"count": 180,
			"max": [ 5.966667 ],
			"min": [ 0 ],
			"type": "SCALAR"
		},
		{
			"bufferView": 5,
			"byteOffset": 8688,
			"componentType": 5126,
			"count": 180,
			"max": [ 0, 8.795783E-05, 0 ],
			"min": [ 0, -0.2211113, 0 ],
			"type": "VEC3"
		},
		{
			"bufferView": 6,
			"byteOffset": 5792,
			"componentType": 5126,
			"count": 180,
			"max": [ -0.7071068, 0, 0, -0.7071068 ],
			"min": [ -0.7071068, 0, 0, -0.7071068 ],
			"type": "VEC4"
		},
		{
			"bufferView": 5,
			"byteOffset": 10848,
			"componentType": 5126,
			"count": 180,
			"max": [ 1, 1, 1 ],
			"min": [ 1, 1, 1 ],
			"type": "VEC3"
		},
		{
			"bufferView": 3,
			"byteOffset": 619584,
			"componentType": 5126,
			"count": 121,
			"max": [ 5, 1.110223E-16, 5 ],
			"min": [ -5, -1.110223E-16, -5 ],
			"type": "VEC3"
		},
		{
			"bufferView": 3,
			"byteOffset": 621036,
			"componentType": 5126,
			"count": 121,
			"max": [ 0, 1, 0 ],
			"min": [ 0, 1, 0 ],
			"type": "VEC3"
		},
		{
			"bufferView": 2,
			"byteOffset": 206912,
			"componentType": 5126,
			"count": 121,
			"max": [ 1, 1 ],
			"min": [ 0, 0 ],
			"type": "VEC2"
		},
		{
			"bufferView": 4,
			"byteOffset": 413056,
			"componentType": 5126,
			"count": 121,
			"max": [ -1, 0, 0, 1 ],
			"min": [ -1, 0, 0, 1 ],
			"type": "VEC4"
		},
		{
			"bufferView": 0,
			"byteOffset": 288096,
			"componentType": 5123,
			"count": 600,
			"max": [ 120 ],
			"min": [ 0 ],
			"type": "SCALAR"
		}
	],
	"animations": [
		{
			"name": "Box003",
			"channels": [
				{
					"sampler": 0,
					"target": {
						"node": 5,
						"path": "translation"
					}
				},
				{
					"sampler": 1,
					"target": {
						"node": 5,
						"path": "rotation"
					}
				},
				{
					"sampler": 2,
					"target": {
						"node": 5,
						"path": "scale"
					}
				}
			],
			"samplers": [
				{
					"input": 22,
					"interpolation": "LINEAR",
					"output": 23
				},
				{
					"input": 22,
					"interpolation": "LINEAR",
					"output": 24
				},
				{
					"input": 22,
					"interpolation": "LINEAR",
					"output": 25
				}
			]
		},
		{
			"name": "Box002",
			"channels": [
				{
					"sampler": 0,
					"target": {
						"node": 6,
						"path": "translation"
					}
				},
				{
					"sampler": 1,
					"target": {
						"node": 6,
						"path": "rotation"
					}
				},
				{
					"sampler": 2,
					"target": {
						"node": 6,
						"path": "scale"
					}
				}
			],
			"samplers": [
				{
					"input": 31,
					"interpolation": "LINEAR",
					"output": 32
				},
				{
					"input": 31,
					"interpolation": "LINEAR",
					"output": 33
				},
				{
					"input": 31,
					"interpolation": "LINEAR",
					"output": 34
				}
			]
		},
		{
			"name": "Box004",
			"channels": [
				{
					"sampler": 0,
					"target": {
						"node": 7,
						"path": "translation"
					}
				},
				{
					"sampler": 1,
					"target": {
						"node": 7,
						"path": "rotation"
					}
				},
				{
					"sampler": 2,
					"target": {
						"node": 7,
						"path": "scale"
					}
				}
			],
			"samplers": [
				{
					"input": 40,
					"interpolation": "LINEAR",
					"output": 41
				},
				{
					"input": 40,
					"interpolation": "LINEAR",
					"output": 42
				},
				{
					"input": 40,
					"interpolation": "LINEAR",
					"output": 43
				}
			]
		}
	],
	"buffers": [
		{
			"byteLength": 1558504,
			"uri": "弯曲型河床.bin"
		}
	],
	"bufferViews": [
		{
			"buffer": 0,
			"byteLength": 289296,
			"target": 34963,
			"byteOffset": 1247528
		},
		{
			"buffer": 0,
			"byteLength": 2168,
			"byteOffset": 0
		},
		{
			"buffer": 0,
			"byteLength": 207880,
			"target": 34962,
			"byteStride": 8,
			"byteOffset": 2168
		},
		{
			"buffer": 0,
			"byteLength": 622488,
			"target": 34962,
			"byteStride": 12,
			"byteOffset": 210048
		},
		{
			"buffer": 0,
			"byteLength": 414992,
			"target": 34962,
			"byteStride": 16,
			"byteOffset": 832536
		},
		{
			"buffer": 0,
			"byteLength": 13008,
			"byteStride": 12,
			"byteOffset": 1536824
		},
		{
			"buffer": 0,
			"byteLength": 8672,
			"byteStride": 16,
			"byteOffset": 1549832
		}
	],
	"images": [
		{
			"uri": "/Assets/河谷流水地貌/河床地貌/Textures/Grass (Hill).jpg"
		}
	],
	"materials": [
		{
			"pbrMetallicRoughness": {
				"baseColorFactor": [0, 0.5208681, 1, 1],
				"metallicFactor": 0,
				"roughnessFactor": 0.5
			},
			"emissiveFactor": [0, 0, 0],
			"doubleSided": false,
			"name": "water_plane"
		},
		{
			"pbrMetallicRoughness": {
				"baseColorTexture" : {
					"index" : 0,
					"texCoord" : 0
				},
				"baseColorFactor": [1, 1, 1, 1],
				"metallicFactor": 0,
				"roughnessFactor": 0.5
			},
			"emissiveFactor": [0, 0, 0],
			"doubleSided": false,
			"name": "Grass (Hill)"
		}
	],
	"meshes": [
		{
			"name": "mesh_Cube_528Cube (1)",
			"primitives": [
				{
					"attributes": {
						"POSITION": 0,
						"NORMAL": 1,
						"TEXCOORD_0": 2,
						"TEXCOORD_1": 3,
						"TANGENT": 4
					},
					"indices": 5,
					"material": 0,
					"mode": 4
				}
			]
		},
		{
			"name": "mesh_Cube_528Cube",
			"primitives": [
				{
					"attributes": {
						"POSITION": 6,
						"NORMAL": 7,
						"TEXCOORD_0": 8,
						"TEXCOORD_1": 9,
						"TANGENT": 10
					},
					"indices": 11,
					"material": 1,
					"mode": 4
				}
			]
		},
		{
			"name": "mesh_Box004_2892",
			"primitives": [
				{
					"attributes": {
						"POSITION": 12,
						"NORMAL": 13,
						"TEXCOORD_0": 14,
						"TANGENT": 15
					},
					"indices": 16,
					"material": 1,
					"mode": 4
				}
			]
		},
		{
			"name": "mesh_Box003_2946Box003",
			"primitives": [
				{
					"attributes": {
						"POSITION": 17,
						"NORMAL": 18,
						"TEXCOORD_0": 19,
						"TANGENT": 20
					},
					"indices": 21,
					"material": 1,
					"mode": 4
				}
			]
		},
		{
			"name": "mesh_Box002_2944Box002",
			"primitives": [
				{
					"attributes": {
						"POSITION": 26,
						"NORMAL": 27,
						"TEXCOORD_0": 28,
						"TANGENT": 29
					},
					"indices": 30,
					"material": 1,
					"mode": 4
				}
			]
		},
		{
			"name": "mesh_Box004_2948Box004",
			"primitives": [
				{
					"attributes": {
						"POSITION": 35,
						"NORMAL": 36,
						"TEXCOORD_0": 37,
						"TANGENT": 38
					},
					"indices": 39,
					"material": 1,
					"mode": 4
				}
			]
		},
		{
			"name": "mesh_Plane_536Plane",
			"primitives": [
				{
					"attributes": {
						"POSITION": 44,
						"NORMAL": 45,
						"TEXCOORD_0": 46,
						"TANGENT": 47
					},
					"indices": 48,
					"material": 0,
					"mode": 4
				}
			]
		}
	],
	"nodes": [
		{
			"name": "UnityGlTF_root",
			"children": [
				3
			]
		},
		{
			"name": "node_Cube (1)_3318",
			"mesh": 0,
			"translation": [ 0, 0.185, -0.01],
			"scale": [ 2.526025, 0.4646912, 2.152794]
		},
		{
			"name": "node_Cube_3244",
			"mesh": 1,
			"translation": [ 0, -0.08, -0.01],
			"scale": [ 2.558, 0.4177, 2.5705]
		},
		{
			"name": "node__3410",
			"children": [
				6,
				5,
				7,
				8,
				4,
				2,
				1
			],
			"matrix": [1, 0, 0, 0, 0, 1, 0, 0, 0, 0, 1, 0, 1.78, 0, 0, 1]
		},
		{
			"name": "node__3386",
			"mesh": 2,
			"scale": [ 1.001, 1.001, 1.001],
			"rotation": [-0.7071068, 0, 0, -0.7071068]
		},
		{
			"name": "node_Box003_3406",
			"mesh": 3,
			"rotation": [-0.7071068, 0, 0, -0.7071068]
		},
		{
			"name": "node_Box002_3408",
			"mesh": 4,
			"rotation": [-0.7071068, 0, 0, -0.7071068]
		},
		{
			"name": "node_Box004_3412",
			"mesh": 5,
			"rotation": [-0.7071068, 0, 0, -0.7071068]
		},
		{
			"name": "node_Plane_3432",
			"mesh": 6,
			"translation": [ 0, 0.39, 0],
			"scale": [ 0.2481353, 0.2481353, 0.2481353]
		}
	],
	"samplers": [
		{
			"magFilter": 9729,
			"minFilter": 9985,
			"wrapS": 10497,
			"wrapT": 10497
		}
	],
	"scenes": [
		{
			"name":"defaultScene",
			"nodes": [
				0
			]
		}
	],
	"scene": 0,
	"textures": [
		{
			"sampler": 0,
			"source": 0
		}
	]
}