{
	"asset": {
		"generator": "Unity 2018.3.11f1",
		"extras": {
			"exporterVersion" : "2.2.1"
		},
		"version": "2.0"
	},
	"accessors": [
		{
			"bufferView": 3,
			"byteOffset": 0,
			"componentType": 5126,
			"count": 61265,
			"max": [ 1.27, 1.27, 0 ],
			"min": [ -1.27, -1.27, -0.2859702 ],
			"type": "VEC3"
		},
		{
			"bufferView": 3,
			"byteOffset": 735180,
			"componentType": 5126,
			"count": 61265,
			"max": [ 1, 1, 1 ],
			"min": [ -1, -1, -0.9999973 ],
			"type": "VEC3"
		},
		{
			"bufferView": 2,
			"byteOffset": 0,
			"componentType": 5126,
			"count": 61265,
			"max": [ 1, 0.9999993 ],
			"min": [ 0, 0 ],
			"type": "VEC2"
		},
		{
			"bufferView": 4,
			"byteOffset": 0,
			"componentType": 5126,
			"count": 61265,
			"max": [ 1, 1, 0.3900966, 1 ],
			"min": [ -1, -1, -0.3533279, 1 ],
			"type": "VEC4"
		},
		{
			"bufferView": 0,
			"byteOffset": 0,
			"componentType": 5123,
			"count": 201588,
			"max": [ 61071 ],
			"min": [ 0 ],
			"type": "SCALAR"
		},
		{
			"bufferView": 0,
			"byteOffset": 403176,
			"componentType": 5123,
			"count": 158412,
			"max": [ 61264 ],
			"min": [ 10201 ],
			"type": "SCALAR"
		},
		{
			"bufferView": 1,
			"byteOffset": 0,
			"componentType": 5126,
			"count": 90,
			"max": [ 2.983148 ],
			"min": [ 0 ],
			"type": "SCALAR"
		},
		{
			"bufferView": 5,
			"byteOffset": 0,
			"componentType": 5126,
			"count": 90,
			"max": [ 0, 0, 0 ],
			"min": [ 0, 0, 0 ],
			"type": "VEC3"
		},
		{
			"bufferView": 6,
			"byteOffset": 0,
			"componentType": 5126,
			"count": 90,
			"max": [ -0.7071068, 0, 0, -0.7071068 ],
			"min": [ -0.7071068, 0, 0, -0.7071068 ],
			"type": "VEC4"
		},
		{
			"bufferView": 5,
			"byteOffset": 1080,
			"componentType": 5126,
			"count": 90,
			"max": [ 1, 1, 1.13187 ],
			"min": [ 1, 1, 0.99 ],
			"type": "VEC3"
		},
		{
			"bufferView": 3,
			"byteOffset": 1470360,
			"componentType": 5126,
			"count": 61265,
			"max": [ 1.27, 1.27, 0 ],
			"min": [ -1.27, -1.27, -0.2859702 ],
			"type": "VEC3"
		},
		{
			"bufferView": 3,
			"byteOffset": 2205540,
			"componentType": 5126,
			"count": 61265,
			"max": [ 1, 1, 1 ],
			"min": [ -1, -1, -0.9999973 ],
			"type": "VEC3"
		},
		{
			"bufferView": 2,
			"byteOffset": 490120,
			"componentType": 5126,
			"count": 61265,
			"max": [ 1, 0.9999993 ],
			"min": [ 0, 0 ],
			"type": "VEC2"
		},
		{
			"bufferView": 4,
			"byteOffset": 980240,
			"componentType": 5126,
			"count": 61265,
			"max": [ 1, 1, 0.3900966, 1 ],
			"min": [ -1, -1, -0.3533279, 1 ],
			"type": "VEC4"
		},
		{
			"bufferView": 0,
			"byteOffset": 720000,
			"componentType": 5123,
			"count": 201582,
			"max": [ 61071 ],
			"min": [ 0 ],
			"type": "SCALAR"
		},
		{
			"bufferView": 0,
			"byteOffset": 1123164,
			"componentType": 5123,
			"count": 93786,
			"max": [ 61264 ],
			"min": [ 10201 ],
			"type": "SCALAR"
		},
		{
			"bufferView": 0,
			"byteOffset": 1310736,
			"componentType": 5123,
			"count": 64632,
			"max": [ 61110 ],
			"min": [ 39235 ],
			"type": "SCALAR"
		}
	],
	"animations": [
		{
			"name": "",
			"channels": [
				{
					"sampler": 0,
					"target": {
						"node": 3,
						"path": "translation"
					}
				},
				{
					"sampler": 1,
					"target": {
						"node": 3,
						"path": "rotation"
					}
				},
				{
					"sampler": 2,
					"target": {
						"node": 3,
						"path": "scale"
					}
				}
			],
			"samplers": [
				{
					"input": 6,
					"interpolation": "LINEAR",
					"output": 7
				},
				{
					"input": 6,
					"interpolation": "LINEAR",
					"output": 8
				},
				{
					"input": 6,
					"interpolation": "LINEAR",
					"output": 9
				}
			]
		}
	],
	"buffers": [
		{
			"byteLength": 7325400,
			"uri": "砾漠.bin"
		}
	],
	"bufferViews": [
		{
			"buffer": 0,
			"byteLength": 1440000,
			"target": 34963,
			"byteOffset": 5881800
		},
		{
			"buffer": 0,
			"byteLength": 360,
			"byteOffset": 0
		},
		{
			"buffer": 0,
			"byteLength": 980240,
			"target": 34962,
			"byteStride": 8,
			"byteOffset": 360
		},
		{
			"buffer": 0,
			"byteLength": 2940720,
			"target": 34962,
			"byteStride": 12,
			"byteOffset": 980600
		},
		{
			"buffer": 0,
			"byteLength": 1960480,
			"target": 34962,
			"byteStride": 16,
			"byteOffset": 3921320
		},
		{
			"buffer": 0,
			"byteLength": 2160,
			"byteStride": 12,
			"byteOffset": 7321800
		},
		{
			"buffer": 0,
			"byteLength": 1440,
			"byteStride": 16,
			"byteOffset": 7323960
		}
	],
	"images": [
		{
			"uri": "/Assets/Textures/TexturesCom_Rock_CliffGranite_1K_albedo.png"
		},
		{
			"uri": "/Assets/Textures/TexturesCom_Rock_CliffDesert3_1K_albedo.png"
		},
		{
			"uri": "/Assets/Textures/TexturesCom_Cliffs0176_1_seamless_S.png"
		}
	],
	"materials": [
		{
			"pbrMetallicRoughness": {
				"baseColorTexture" : {
					"index" : 0,
					"texCoord" : 0
				},
				"baseColorFactor": [0.5882353, 0.5882353, 0.5882353, 1],
				"metallicFactor": 0,
				"roughnessFactor": 1
			},
			"alphaMode": "BLEND",
			"alphaCutoff": 0.5,
			"emissiveFactor": [0, 0, 0],
			"doubleSided": false,
			"name": "TexturesCom_Rock_CliffGranite_1K_albedo"
		},
		{
			"pbrMetallicRoughness": {
				"baseColorTexture" : {
					"index" : 1,
					"texCoord" : 0
				},
				"baseColorFactor": [0.5882353, 0.5882353, 0.5882353, 1],
				"metallicFactor": 0,
				"roughnessFactor": 1
			},
			"alphaMode": "BLEND",
			"alphaCutoff": 0.5,
			"emissiveFactor": [0, 0, 0],
			"doubleSided": false,
			"name": "TexturesCom_Rock_CliffDesert3_1K_albedo"
		},
		{
			"pbrMetallicRoughness": {
				"baseColorTexture" : {
					"index" : 2,
					"texCoord" : 0
				},
				"baseColorFactor": [0.5882353, 0.5882353, 0.5882353, 1],
				"metallicFactor": 0,
				"roughnessFactor": 1
			},
			"alphaMode": "BLEND",
			"alphaCutoff": 0.5,
			"emissiveFactor": [0, 0, 0],
			"doubleSided": false,
			"name": "TexturesCom_Cliffs0176_1_seamless_S"
		}
	],
	"meshes": [
		{
			"name": "mesh_Box003_2790Box003",
			"primitives": [
				{
					"attributes": {
						"POSITION": 0,
						"NORMAL": 1,
						"TEXCOORD_0": 2,
						"TANGENT": 3
					},
					"indices": 4,
					"material": 0,
					"mode": 4
				},
				{
					"attributes": {
						"POSITION": 0,
						"NORMAL": 1,
						"TEXCOORD_0": 2,
						"TANGENT": 3
					},
					"indices": 5,
					"material": 1,
					"mode": 4
				}
			]
		},
		{
			"name": "mesh_Box004_2792Box004",
			"primitives": [
				{
					"attributes": {
						"POSITION": 10,
						"NORMAL": 11,
						"TEXCOORD_0": 12,
						"TANGENT": 13
					},
					"indices": 14,
					"material": 0,
					"mode": 4
				},
				{
					"attributes": {
						"POSITION": 10,
						"NORMAL": 11,
						"TEXCOORD_0": 12,
						"TANGENT": 13
					},
					"indices": 15,
					"material": 2,
					"mode": 4
				},
				{
					"attributes": {
						"POSITION": 10,
						"NORMAL": 11,
						"TEXCOORD_0": 12,
						"TANGENT": 13
					},
					"indices": 16,
					"material": 1,
					"mode": 4
				}
			]
		}
	],
	"nodes": [
		{
			"name": "UnityGlTF_root",
			"children": [
				2
			]
		},
		{
			"name": "node_Box003_-1096",
			"mesh": 0,
			"rotation": [-0.7071068, 0, 0, -0.7071068]
		},
		{
			"name": "node__-1092",
			"children": [
				1,
				3
			],
			"matrix": [1, 0, 0, 0, 0, 1, 0, 0, 0, 0, 1, 0, 0, 0, 0, 1]
		},
		{
			"name": "node_Box004_-1098",
			"mesh": 1,
			"scale": [ 1, 1, 0.99],
			"rotation": [-0.7071068, 0, 0, -0.7071068]
		}
	],
	"samplers": [
		{
			"magFilter": 9729,
			"minFilter": 9985,
			"wrapS": 10497,
			"wrapT": 10497
		}
	],
	"scenes": [
		{
			"name":"defaultScene",
			"nodes": [
				0
			]
		}
	],
	"scene": 0,
	"textures": [
		{
			"sampler": 0,
			"source": 0
		},
		{
			"sampler": 0,
			"source": 1
		},
		{
			"sampler": 0,
			"source": 2
		}
	]
}