{
	"asset": {
		"generator": "Unity 2018.3.11f1",
		"extras": {
			"exporterVersion" : "2.2.1"
		},
		"version": "2.0"
	},
	"accessors": [
		{
			"bufferView": 3,
			"byteOffset": 0,
			"componentType": 5126,
			"count": 121,
			"max": [ 5, 1.110223E-16, 5 ],
			"min": [ -5, -1.110223E-16, -5 ],
			"type": "VEC3"
		},
		{
			"bufferView": 3,
			"byteOffset": 1452,
			"componentType": 5126,
			"count": 121,
			"max": [ 0, 1, 0 ],
			"min": [ 0, 1, 0 ],
			"type": "VEC3"
		},
		{
			"bufferView": 2,
			"byteOffset": 0,
			"componentType": 5126,
			"count": 121,
			"max": [ 1, 1 ],
			"min": [ 0, 0 ],
			"type": "VEC2"
		},
		{
			"bufferView": 4,
			"byteOffset": 0,
			"componentType": 5126,
			"count": 121,
			"max": [ -1, 0, 0, 1 ],
			"min": [ -1, 0, 0, 1 ],
			"type": "VEC4"
		},
		{
			"bufferView": 0,
			"byteOffset": 0,
			"componentType": 5123,
			"count": 600,
			"max": [ 120 ],
			"min": [ 0 ],
			"type": "SCALAR"
		},
		{
			"bufferView": 1,
			"byteOffset": 0,
			"componentType": 5126,
			"count": 30,
			"max": [ 0.9666667 ],
			"min": [ 0 ],
			"type": "SCALAR"
		},
		{
			"bufferView": 5,
			"byteOffset": 0,
			"componentType": 5126,
			"count": 30,
			"max": [ 4.288, 1.108, 3.368 ],
			"min": [ 4.288, 1.108, 3.032098 ],
			"type": "VEC3"
		},
		{
			"bufferView": 6,
			"byteOffset": 0,
			"componentType": 5126,
			"count": 30,
			"max": [ 0, 0, 0, -1 ],
			"min": [ 0, 0, 0, -1 ],
			"type": "VEC4"
		},
		{
			"bufferView": 5,
			"byteOffset": 360,
			"componentType": 5126,
			"count": 30,
			"max": [ 0.1, 0.1, 0.1 ],
			"min": [ 0.1, 0.1, 0.1 ],
			"type": "VEC3"
		},
		{
			"bufferView": 3,
			"byteOffset": 2904,
			"componentType": 5126,
			"count": 10,
			"max": [ 0.508, -0.06876542, -0.1597222 ],
			"min": [ -0.508, -0.508, -0.8083767 ],
			"type": "VEC3"
		},
		{
			"bufferView": 3,
			"byteOffset": 3024,
			"componentType": 5126,
			"count": 10,
			"max": [ 2.84725E-06, -0.82802, -0.5606934 ],
			"min": [ -8.148256E-07, -0.8280234, -0.5606986 ],
			"type": "VEC3"
		},
		{
			"bufferView": 2,
			"byteOffset": 968,
			"componentType": 5126,
			"count": 10,
			"max": [ 1, 0.5107515 ],
			"min": [ 0, 0 ],
			"type": "VEC2"
		},
		{
			"bufferView": 4,
			"byteOffset": 1936,
			"componentType": 5126,
			"count": 10,
			"max": [ -1, 0, 0, 1 ],
			"min": [ -1, 0, 0, 1 ],
			"type": "VEC4"
		},
		{
			"bufferView": 0,
			"byteOffset": 1200,
			"componentType": 5123,
			"count": 24,
			"max": [ 9 ],
			"min": [ 0 ],
			"type": "SCALAR"
		},
		{
			"bufferView": 1,
			"byteOffset": 120,
			"componentType": 5126,
			"count": 13,
			"max": [ 0.4269231 ],
			"min": [ 0 ],
			"type": "SCALAR"
		},
		{
			"bufferView": 5,
			"byteOffset": 720,
			"componentType": 5126,
			"count": 13,
			"max": [ 0.1617933, 0.0670087, 0.3332476 ],
			"min": [ 0.1617933, -0.3498592, 0.03215754 ],
			"type": "VEC3"
		},
		{
			"bufferView": 6,
			"byteOffset": 480,
			"componentType": 5126,
			"count": 13,
			"max": [ -0.7071068, 0, 0, -0.7071068 ],
			"min": [ -0.7071068, 0, 0, -0.7071068 ],
			"type": "VEC4"
		},
		{
			"bufferView": 5,
			"byteOffset": 876,
			"componentType": 5126,
			"count": 13,
			"max": [ 1, 1, 1 ],
			"min": [ 1, 1, 1 ],
			"type": "VEC3"
		},
		{
			"bufferView": 3,
			"byteOffset": 3144,
			"componentType": 5126,
			"count": 5,
			"max": [ 0.108857, 0.2950105, -0.8083767 ],
			"min": [ -0.508, -0.06876542, -1.345595 ],
			"type": "VEC3"
		},
		{
			"bufferView": 3,
			"byteOffset": 3204,
			"componentType": 5126,
			"count": 5,
			"max": [ 0, -0.8280233, -0.5606936 ],
			"min": [ 0, -0.8280233, -0.5606937 ],
			"type": "VEC3"
		},
		{
			"bufferView": 2,
			"byteOffset": 1048,
			"componentType": 5126,
			"count": 5,
			"max": [ 1, 0.9337581 ],
			"min": [ 0.3928573, 0.5107515 ],
			"type": "VEC2"
		},
		{
			"bufferView": 4,
			"byteOffset": 2096,
			"componentType": 5126,
			"count": 5,
			"max": [ -1, 0, 0, 1 ],
			"min": [ -1, 0, 0, 1 ],
			"type": "VEC4"
		},
		{
			"bufferView": 0,
			"byteOffset": 1248,
			"componentType": 5123,
			"count": 9,
			"max": [ 4 ],
			"min": [ 0 ],
			"type": "SCALAR"
		},
		{
			"bufferView": 1,
			"byteOffset": 172,
			"componentType": 5126,
			"count": 17,
			"max": [ 0.5529411 ],
			"min": [ 0 ],
			"type": "SCALAR"
		},
		{
			"bufferView": 5,
			"byteOffset": 1032,
			"componentType": 5126,
			"count": 17,
			"max": [ 0.1617933, 0.0670087, 0.3332476 ],
			"min": [ 0.1617933, -0.6774998, -0.2233925 ],
			"type": "VEC3"
		},
		{
			"bufferView": 6,
			"byteOffset": 688,
			"componentType": 5126,
			"count": 17,
			"max": [ -0.7071068, 0, 0, -0.7071068 ],
			"min": [ -0.7071068, 0, 0, -0.7071068 ],
			"type": "VEC4"
		},
		{
			"bufferView": 5,
			"byteOffset": 1236,
			"componentType": 5126,
			"count": 17,
			"max": [ 1, 1, 1 ],
			"min": [ 1, 1, 1 ],
			"type": "VEC3"
		},
		{
			"bufferView": 3,
			"byteOffset": 3264,
			"componentType": 5126,
			"count": 9,
			"max": [ 0.508, 0.09189381, -0.5877932 ],
			"min": [ -0.508, -0.2181329, -1.045636 ],
			"type": "VEC3"
		},
		{
			"bufferView": 3,
			"byteOffset": 3372,
			"componentType": 5126,
			"count": 9,
			"max": [ 0, -0.8280227, -0.5606933 ],
			"min": [ -5.055381E-07, -0.8280236, -0.5606945 ],
			"type": "VEC3"
		},
		{
			"bufferView": 2,
			"byteOffset": 1088,
			"componentType": 5126,
			"count": 9,
			"max": [ 1, 0.6975696 ],
			"min": [ 0, 0.3370638 ],
			"type": "VEC2"
		},
		{
			"bufferView": 4,
			"byteOffset": 2176,
			"componentType": 5126,
			"count": 9,
			"max": [ -1, 0, 0, 1 ],
			"min": [ -1, 0, 0, 1 ],
			"type": "VEC4"
		},
		{
			"bufferView": 0,
			"byteOffset": 1266,
			"componentType": 5123,
			"count": 21,
			"max": [ 8 ],
			"min": [ 0 ],
			"type": "SCALAR"
		},
		{
			"bufferView": 1,
			"byteOffset": 240,
			"componentType": 5126,
			"count": 36,
			"max": [ 1.166667 ],
			"min": [ 0 ],
			"type": "SCALAR"
		},
		{
			"bufferView": 5,
			"byteOffset": 1440,
			"componentType": 5126,
			"count": 36,
			"max": [ 0.1617933, 0.0670087, 0.3332476 ],
			"min": [ 0.1617933, -0.4588026, -0.03416339 ],
			"type": "VEC3"
		},
		{
			"bufferView": 6,
			"byteOffset": 960,
			"componentType": 5126,
			"count": 36,
			"max": [ -0.7071068, 0, 0, -0.7071068 ],
			"min": [ -0.7071068, 0, 0, -0.7071068 ],
			"type": "VEC4"
		},
		{
			"bufferView": 5,
			"byteOffset": 1872,
			"componentType": 5126,
			"count": 36,
			"max": [ 1, 1, 1 ],
			"min": [ 1, 1, 1 ],
			"type": "VEC3"
		},
		{
			"bufferView": 3,
			"byteOffset": 3480,
			"componentType": 5126,
			"count": 5,
			"max": [ 0.508, -0.3561507, -0.1597222 ],
			"min": [ -0.508, -0.508, -0.383971 ],
			"type": "VEC3"
		},
		{
			"bufferView": 3,
			"byteOffset": 3540,
			"componentType": 5126,
			"count": 5,
			"max": [ 5.240404E-07, -0.828023, -0.5606933 ],
			"min": [ 0, -0.8280236, -0.5606941 ],
			"type": "VEC3"
		},
		{
			"bufferView": 2,
			"byteOffset": 1160,
			"componentType": 5126,
			"count": 5,
			"max": [ 1, 0.1765738 ],
			"min": [ 0, 0 ],
			"type": "VEC2"
		},
		{
			"bufferView": 4,
			"byteOffset": 2320,
			"componentType": 5126,
			"count": 5,
			"max": [ -1, 0, 0, 1 ],
			"min": [ -1, 0, 0, 1 ],
			"type": "VEC4"
		},
		{
			"bufferView": 0,
			"byteOffset": 1308,
			"componentType": 5123,
			"count": 9,
			"max": [ 4 ],
			"min": [ 0 ],
			"type": "SCALAR"
		},
		{
			"bufferView": 1,
			"byteOffset": 384,
			"componentType": 5126,
			"count": 12,
			"max": [ 0.3819444 ],
			"min": [ 0 ],
			"type": "SCALAR"
		},
		{
			"bufferView": 5,
			"byteOffset": 2304,
			"componentType": 5126,
			"count": 12,
			"max": [ 0.1617933, 0.0670087, 0.3332476 ],
			"min": [ 0.1617933, -0.1084778, 0.2369331 ],
			"type": "VEC3"
		},
		{
			"bufferView": 6,
			"byteOffset": 1536,
			"componentType": 5126,
			"count": 12,
			"max": [ -0.7071068, 0, 0, -0.7071068 ],
			"min": [ -0.7071068, 0, 0, -0.7071068 ],
			"type": "VEC4"
		},
		{
			"bufferView": 5,
			"byteOffset": 2448,
			"componentType": 5126,
			"count": 12,
			"max": [ 1, 1, 1 ],
			"min": [ 1, 1, 1 ],
			"type": "VEC3"
		},
		{
			"bufferView": 3,
			"byteOffset": 3600,
			"componentType": 5126,
			"count": 6,
			"max": [ 0.508, 0.2950105, -1.000315 ],
			"min": [ -0.508, 0.06120526, -1.345595 ],
			"type": "VEC3"
		},
		{
			"bufferView": 3,
			"byteOffset": 3672,
			"componentType": 5126,
			"count": 6,
			"max": [ 0, -0.8280227, -0.5606936 ],
			"min": [ 0, -0.8280234, -0.5606946 ],
			"type": "VEC3"
		},
		{
			"bufferView": 2,
			"byteOffset": 1200,
			"componentType": 5126,
			"count": 6,
			"max": [ 1, 0.9337581 ],
			"min": [ 0, 0.6618843 ],
			"type": "VEC2"
		},
		{
			"bufferView": 4,
			"byteOffset": 2400,
			"componentType": 5126,
			"count": 6,
			"max": [ -1, 0, 0, 1 ],
			"min": [ -1, 0, 0, 1 ],
			"type": "VEC4"
		},
		{
			"bufferView": 0,
			"byteOffset": 1326,
			"componentType": 5123,
			"count": 12,
			"max": [ 5 ],
			"min": [ 0 ],
			"type": "SCALAR"
		},
		{
			"bufferView": 1,
			"byteOffset": 432,
			"componentType": 5126,
			"count": 30,
			"max": [ 0.9666667 ],
			"min": [ 0 ],
			"type": "SCALAR"
		},
		{
			"bufferView": 5,
			"byteOffset": 2592,
			"componentType": 5126,
			"count": 30,
			"max": [ 0.1819341, 0.0670087, 0.3332476 ],
			"min": [ 0.1617933, -0.9377148, -0.3497666 ],
			"type": "VEC3"
		},
		{
			"bufferView": 6,
			"byteOffset": 1728,
			"componentType": 5126,
			"count": 30,
			"max": [ -0.7071068, 0, 0, -0.7071068 ],
			"min": [ -0.7071068, 0, 0, -0.7071068 ],
			"type": "VEC4"
		},
		{
			"bufferView": 5,
			"byteOffset": 2952,
			"componentType": 5126,
			"count": 30,
			"max": [ 1, 1, 1 ],
			"min": [ 1, 1, 1 ],
			"type": "VEC3"
		},
		{
			"bufferView": 3,
			"byteOffset": 3744,
			"componentType": 5126,
			"count": 154,
			"max": [ 0.508, 0.508, 0 ],
			"min": [ -0.508, -0.508, -1.27 ],
			"type": "VEC3"
		},
		{
			"bufferView": 3,
			"byteOffset": 5592,
			"componentType": 5126,
			"count": 154,
			"max": [ 1, 1, 1 ],
			"min": [ -1, -0.8280233, -1 ],
			"type": "VEC3"
		},
		{
			"bufferView": 2,
			"byteOffset": 1248,
			"componentType": 5126,
			"count": 154,
			"max": [ 1, 1.23929 ],
			"min": [ -4.885124E-08, 0 ],
			"type": "VEC2"
		},
		{
			"bufferView": 4,
			"byteOffset": 2496,
			"componentType": 5126,
			"count": 154,
			"max": [ 1, 1, 0.002229296, 1 ],
			"min": [ -1, -1, -0.001427383, 1 ],
			"type": "VEC4"
		},
		{
			"bufferView": 0,
			"byteOffset": 1350,
			"componentType": 5123,
			"count": 372,
			"max": [ 153 ],
			"min": [ 0 ],
			"type": "SCALAR"
		},
		{
			"bufferView": 3,
			"byteOffset": 7440,
			"componentType": 5126,
			"count": 24,
			"max": [ 0.5, 0.5, 0.5 ],
			"min": [ -0.5, -0.5, -0.5 ],
			"type": "VEC3"
		},
		{
			"bufferView": 3,
			"byteOffset": 7728,
			"componentType": 5126,
			"count": 24,
			"max": [ 1, 1, 1 ],
			"min": [ -1, -1, -1 ],
			"type": "VEC3"
		},
		{
			"bufferView": 2,
			"byteOffset": 2480,
			"componentType": 5126,
			"count": 24,
			"max": [ 1, 1 ],
			"min": [ 0, 0 ],
			"type": "VEC2"
		},
		{
			"bufferView": 2,
			"byteOffset": 2672,
			"componentType": 5126,
			"count": 24,
			"max": [ 0.9966581, 0.6528358 ],
			"min": [ 0.004055766, 0.004055766 ],
			"type": "VEC2"
		},
		{
			"bufferView": 4,
			"byteOffset": 4960,
			"componentType": 5126,
			"count": 24,
			"max": [ 0, 0, 1, 1 ],
			"min": [ -1, 0, -1, 1 ],
			"type": "VEC4"
		},
		{
			"bufferView": 0,
			"byteOffset": 2094,
			"componentType": 5123,
			"count": 36,
			"max": [ 23 ],
			"min": [ 0 ],
			"type": "SCALAR"
		}
	],
	"animations": [
		{
			"name": "Plane (1)",
			"channels": [
				{
					"sampler": 0,
					"target": {
						"node": 1,
						"path": "translation"
					}
				},
				{
					"sampler": 1,
					"target": {
						"node": 1,
						"path": "rotation"
					}
				},
				{
					"sampler": 2,
					"target": {
						"node": 1,
						"path": "scale"
					}
				}
			],
			"samplers": [
				{
					"input": 5,
					"interpolation": "LINEAR",
					"output": 6
				},
				{
					"input": 5,
					"interpolation": "LINEAR",
					"output": 7
				},
				{
					"input": 5,
					"interpolation": "LINEAR",
					"output": 8
				}
			]
		},
		{
			"name": "005",
			"channels": [
				{
					"sampler": 0,
					"target": {
						"node": 3,
						"path": "translation"
					}
				},
				{
					"sampler": 1,
					"target": {
						"node": 3,
						"path": "rotation"
					}
				},
				{
					"sampler": 2,
					"target": {
						"node": 3,
						"path": "scale"
					}
				}
			],
			"samplers": [
				{
					"input": 14,
					"interpolation": "LINEAR",
					"output": 15
				},
				{
					"input": 14,
					"interpolation": "LINEAR",
					"output": 16
				},
				{
					"input": 14,
					"interpolation": "LINEAR",
					"output": 17
				}
			]
		},
		{
			"name": "002",
			"channels": [
				{
					"sampler": 0,
					"target": {
						"node": 5,
						"path": "translation"
					}
				},
				{
					"sampler": 1,
					"target": {
						"node": 5,
						"path": "rotation"
					}
				},
				{
					"sampler": 2,
					"target": {
						"node": 5,
						"path": "scale"
					}
				}
			],
			"samplers": [
				{
					"input": 23,
					"interpolation": "LINEAR",
					"output": 24
				},
				{
					"input": 23,
					"interpolation": "LINEAR",
					"output": 25
				},
				{
					"input": 23,
					"interpolation": "LINEAR",
					"output": 26
				}
			]
		},
		{
			"name": "004",
			"channels": [
				{
					"sampler": 0,
					"target": {
						"node": 6,
						"path": "translation"
					}
				},
				{
					"sampler": 1,
					"target": {
						"node": 6,
						"path": "rotation"
					}
				},
				{
					"sampler": 2,
					"target": {
						"node": 6,
						"path": "scale"
					}
				}
			],
			"samplers": [
				{
					"input": 32,
					"interpolation": "LINEAR",
					"output": 33
				},
				{
					"input": 32,
					"interpolation": "LINEAR",
					"output": 34
				},
				{
					"input": 32,
					"interpolation": "LINEAR",
					"output": 35
				}
			]
		},
		{
			"name": "006",
			"channels": [
				{
					"sampler": 0,
					"target": {
						"node": 7,
						"path": "translation"
					}
				},
				{
					"sampler": 1,
					"target": {
						"node": 7,
						"path": "rotation"
					}
				},
				{
					"sampler": 2,
					"target": {
						"node": 7,
						"path": "scale"
					}
				}
			],
			"samplers": [
				{
					"input": 41,
					"interpolation": "LINEAR",
					"output": 42
				},
				{
					"input": 41,
					"interpolation": "LINEAR",
					"output": 43
				},
				{
					"input": 41,
					"interpolation": "LINEAR",
					"output": 44
				}
			]
		},
		{
			"name": "007",
			"channels": [
				{
					"sampler": 0,
					"target": {
						"node": 8,
						"path": "translation"
					}
				},
				{
					"sampler": 1,
					"target": {
						"node": 8,
						"path": "rotation"
					}
				},
				{
					"sampler": 2,
					"target": {
						"node": 8,
						"path": "scale"
					}
				}
			],
			"samplers": [
				{
					"input": 50,
					"interpolation": "LINEAR",
					"output": 51
				},
				{
					"input": 50,
					"interpolation": "LINEAR",
					"output": 52
				},
				{
					"input": 50,
					"interpolation": "LINEAR",
					"output": 53
				}
			]
		}
	],
	"buffers": [
		{
			"byteLength": 24462,
			"uri": "沉积物崩塌.bin"
		}
	],
	"bufferViews": [
		{
			"buffer": 0,
			"byteLength": 2166,
			"target": 34963,
			"byteOffset": 16776
		},
		{
			"buffer": 0,
			"byteLength": 552,
			"byteOffset": 0
		},
		{
			"buffer": 0,
			"byteLength": 2864,
			"target": 34962,
			"byteStride": 8,
			"byteOffset": 552
		},
		{
			"buffer": 0,
			"byteLength": 8016,
			"target": 34962,
			"byteStride": 12,
			"byteOffset": 3416
		},
		{
			"buffer": 0,
			"byteLength": 5344,
			"target": 34962,
			"byteStride": 16,
			"byteOffset": 11432
		},
		{
			"buffer": 0,
			"byteLength": 3312,
			"byteStride": 12,
			"byteOffset": 18942
		},
		{
			"buffer": 0,
			"byteLength": 2208,
			"byteStride": 16,
			"byteOffset": 22254
		}
	],
	"images": [
		{
			"uri": "/Assets/坡地重力地貌/崩塌/Textures/shanti4.jpg"
		},
		{
			"uri": "/Assets/坡地重力地貌/崩塌/Textures/timg2.jpg"
		},
		{
			"uri": "/Assets/坡地重力地貌/崩塌/Textures/timg1.jpg"
		},
		{
			"uri": "/Assets/坡地重力地貌/崩塌/Textures/timg.jpg"
		},
		{
			"uri": "/Assets/坡地重力地貌/崩塌/Textures/shanti3.jpg"
		},
		{
			"uri": "/Assets/坡地重力地貌/崩塌/Textures/土纹理1.jpg"
		}
	],
	"materials": [
		{
			"pbrMetallicRoughness": {
				"baseColorTexture" : {
					"index" : 0,
					"texCoord" : 0
				},
				"baseColorFactor": [1, 1, 1, 1],
				"metallicFactor": 0,
				"roughnessFactor": 0.5
			},
			"emissiveFactor": [0, 0, 0],
			"doubleSided": false,
			"name": "shanti4"
		},
		{
			"pbrMetallicRoughness": {
				"baseColorTexture" : {
					"index" : 1,
					"texCoord" : 0
				},
				"baseColorFactor": [1, 1, 1, 1],
				"metallicFactor": 0,
				"roughnessFactor": 0.5
			},
			"emissiveFactor": [0, 0, 0],
			"doubleSided": false,
			"name": "timg2"
		},
		{
			"pbrMetallicRoughness": {
				"baseColorTexture" : {
					"index" : 2,
					"texCoord" : 0
				},
				"baseColorFactor": [1, 1, 1, 1],
				"metallicFactor": 0,
				"roughnessFactor": 0.5
			},
			"emissiveFactor": [0, 0, 0],
			"doubleSided": false,
			"name": "timg1"
		},
		{
			"pbrMetallicRoughness": {
				"baseColorTexture" : {
					"index" : 3,
					"texCoord" : 0
				},
				"baseColorFactor": [1, 1, 1, 1],
				"metallicFactor": 0,
				"roughnessFactor": 0.5
			},
			"emissiveFactor": [0, 0, 0],
			"doubleSided": false,
			"name": "timg"
		},
		{
			"pbrMetallicRoughness": {
				"baseColorTexture" : {
					"index" : 4,
					"texCoord" : 0
				},
				"baseColorFactor": [1, 1, 1, 1],
				"metallicFactor": 0,
				"roughnessFactor": 0.5
			},
			"emissiveFactor": [0, 0, 0],
			"doubleSided": false,
			"name": "shanti3"
		},
		{
			"pbrMetallicRoughness": {
				"baseColorTexture" : {
					"index" : 5,
					"texCoord" : 0
				},
				"baseColorFactor": [0.5882353, 0.5882353, 0.5882353, 1],
				"metallicFactor": 0,
				"roughnessFactor": 1
			},
			"emissiveFactor": [0, 0, 0],
			"doubleSided": false,
			"name": "1"
		}
	],
	"meshes": [
		{
			"name": "mesh_Plane_536Plane (1)",
			"primitives": [
				{
					"attributes": {
						"POSITION": 0,
						"NORMAL": 1,
						"TEXCOORD_0": 2,
						"TANGENT": 3
					},
					"indices": 4,
					"material": 0,
					"mode": 4
				}
			]
		},
		{
			"name": "mesh_005_39138005",
			"primitives": [
				{
					"attributes": {
						"POSITION": 9,
						"NORMAL": 10,
						"TEXCOORD_0": 11,
						"TANGENT": 12
					},
					"indices": 13,
					"material": 1,
					"mode": 4
				}
			]
		},
		{
			"name": "mesh_002_39148002",
			"primitives": [
				{
					"attributes": {
						"POSITION": 18,
						"NORMAL": 19,
						"TEXCOORD_0": 20,
						"TANGENT": 21
					},
					"indices": 22,
					"material": 2,
					"mode": 4
				}
			]
		},
		{
			"name": "mesh_004_39146004",
			"primitives": [
				{
					"attributes": {
						"POSITION": 27,
						"NORMAL": 28,
						"TEXCOORD_0": 29,
						"TANGENT": 30
					},
					"indices": 31,
					"material": 3,
					"mode": 4
				}
			]
		},
		{
			"name": "mesh_006_39144006",
			"primitives": [
				{
					"attributes": {
						"POSITION": 36,
						"NORMAL": 37,
						"TEXCOORD_0": 38,
						"TANGENT": 39
					},
					"indices": 40,
					"material": 1,
					"mode": 4
				}
			]
		},
		{
			"name": "mesh_007_39142007",
			"primitives": [
				{
					"attributes": {
						"POSITION": 45,
						"NORMAL": 46,
						"TEXCOORD_0": 47,
						"TANGENT": 48
					},
					"indices": 49,
					"material": 2,
					"mode": 4
				}
			]
		},
		{
			"name": "mesh_Box001_39140Box001",
			"primitives": [
				{
					"attributes": {
						"POSITION": 54,
						"NORMAL": 55,
						"TEXCOORD_0": 56,
						"TANGENT": 57
					},
					"indices": 58,
					"material": 4,
					"mode": 4
				}
			]
		},
		{
			"name": "mesh_Cube_528Cube (2)",
			"primitives": [
				{
					"attributes": {
						"POSITION": 59,
						"NORMAL": 60,
						"TEXCOORD_0": 61,
						"TEXCOORD_1": 62,
						"TANGENT": 63
					},
					"indices": 64,
					"material": 5,
					"mode": 4
				}
			]
		}
	],
	"nodes": [
		{
			"name": "UnityGlTF_root",
			"children": [
				2
			]
		},
		{
			"name": "node_Plane (1)_-130116",
			"mesh": 0,
			"translation": [ 4.288, 1.108, 3.368],
			"scale": [ 0.1, 0.1, 0.1]
		},
		{
			"name": "node__-130114",
			"children": [
				1,
				4,
				9,
				10
			],
			"matrix": [-1.546383E-07, 0, 1.2972, 0, 0, 1.2972, 0, 0, -1.2972, 0, -1.546383E-07, 0, 534.41, 471.38, 46.77, 1]
		},
		{
			"name": "node_005_-130138",
			"mesh": 1,
			"translation": [ 0.1617933, 0.0670087, 0.3332476],
			"rotation": [-0.7071068, 0, 0, -0.7071068]
		},
		{
			"name": "node_bengta2_-130118",
			"children": [
				5,
				6,
				3,
				7,
				8
			],
			"translation": [ 4.113, 0.86, 3.11]
		},
		{
			"name": "node_002_-130134",
			"mesh": 2,
			"translation": [ 0.1617933, 0.0670087, 0.3332476],
			"rotation": [-0.7071068, 0, 0, -0.7071068]
		},
		{
			"name": "node_004_-130136",
			"mesh": 3,
			"translation": [ 0.1617933, 0.0670087, 0.3332476],
			"rotation": [-0.7071068, 0, 0, -0.7071068]
		},
		{
			"name": "node_006_-130140",
			"mesh": 4,
			"translation": [ 0.1617933, 0.0670087, 0.3332476],
			"rotation": [-0.7071068, 0, 0, -0.7071068]
		},
		{
			"name": "node_007_-130142",
			"mesh": 5,
			"translation": [ 0.1617933, 0.0670087, 0.3332476],
			"rotation": [-0.7071068, 0, 0, -0.7071068]
		},
		{
			"name": "node_Box001_-130120",
			"mesh": 6,
			"translation": [ 4.29562, 1.085166, 3.464435],
			"rotation": [-0.7071068, 0, 0, -0.7071068]
		},
		{
			"name": "node_Cube (2)_-134100",
			"mesh": 7,
			"translation": [ 4.424914, 0.979, 2.667253],
			"scale": [ 3.858928, -0.2129254, 3.858928],
			"rotation": [0, -0.7071068, 0, -0.7071068]
		}
	],
	"samplers": [
		{
			"magFilter": 9729,
			"minFilter": 9985,
			"wrapS": 10497,
			"wrapT": 10497
		}
	],
	"scenes": [
		{
			"name":"defaultScene",
			"nodes": [
				0
			]
		}
	],
	"scene": 0,
	"textures": [
		{
			"sampler": 0,
			"source": 0
		},
		{
			"sampler": 0,
			"source": 1
		},
		{
			"sampler": 0,
			"source": 2
		},
		{
			"sampler": 0,
			"source": 3
		},
		{
			"sampler": 0,
			"source": 4
		},
		{
			"sampler": 0,
			"source": 5
		}
	]
}