{
	"asset": {
		"generator": "Unity 2018.3.11f1",
		"extras": {
			"exporterVersion" : "2.2.1"
		},
		"version": "2.0"
	},
	"accessors": [
		{
			"bufferView": 3,
			"byteOffset": 0,
			"componentType": 5126,
			"count": 428,
			"max": [ 0.6125928, 0.265821, 0 ],
			"min": [ -0.539543, -0.3370542, -1.329644 ],
			"type": "VEC3"
		},
		{
			"bufferView": 3,
			"byteOffset": 5136,
			"componentType": 5126,
			"count": 428,
			"max": [ 1, 1, 1 ],
			"min": [ -1, -1, -1 ],
			"type": "VEC3"
		},
		{
			"bufferView": 4,
			"byteOffset": 0,
			"componentType": 5126,
			"count": 428,
			"max": [ 1, 0, 0, 1 ],
			"min": [ 1, 0, 0, 1 ],
			"type": "VEC4"
		},
		{
			"bufferView": 0,
			"byteOffset": 0,
			"componentType": 5123,
			"count": 936,
			"max": [ 427 ],
			"min": [ 0 ],
			"type": "SCALAR"
		},
		{
			"bufferView": 3,
			"byteOffset": 10272,
			"componentType": 5126,
			"count": 642,
			"max": [ 0.4839467, 0.1658793, 0 ],
			"min": [ -0.3852688, -0.2885585, -1.329644 ],
			"type": "VEC3"
		},
		{
			"bufferView": 3,
			"byteOffset": 17976,
			"componentType": 5126,
			"count": 642,
			"max": [ 1, 1, 1 ],
			"min": [ -1, -1, -1 ],
			"type": "VEC3"
		},
		{
			"bufferView": 4,
			"byteOffset": 6848,
			"componentType": 5126,
			"count": 642,
			"max": [ 1, 0, 0, 1 ],
			"min": [ 1, 0, 0, 1 ],
			"type": "VEC4"
		},
		{
			"bufferView": 0,
			"byteOffset": 1872,
			"componentType": 5123,
			"count": 1608,
			"max": [ 641 ],
			"min": [ 0 ],
			"type": "SCALAR"
		},
		{
			"bufferView": 3,
			"byteOffset": 25680,
			"componentType": 5126,
			"count": 372,
			"max": [ 0.2684463, 0.09470957, 0 ],
			"min": [ -0.225827, -0.1611908, -1.327753 ],
			"type": "VEC3"
		},
		{
			"bufferView": 3,
			"byteOffset": 30144,
			"componentType": 5126,
			"count": 372,
			"max": [ 1, 1, 1 ],
			"min": [ -1, -1, -1 ],
			"type": "VEC3"
		},
		{
			"bufferView": 4,
			"byteOffset": 17120,
			"componentType": 5126,
			"count": 372,
			"max": [ 1, 0, 0, 1 ],
			"min": [ 1, 0, 0, 1 ],
			"type": "VEC4"
		},
		{
			"bufferView": 0,
			"byteOffset": 5088,
			"componentType": 5123,
			"count": 804,
			"max": [ 371 ],
			"min": [ 0 ],
			"type": "SCALAR"
		},
		{
			"bufferView": 3,
			"byteOffset": 34608,
			"componentType": 5126,
			"count": 168,
			"max": [ 0.6545242, 0.1359866, 0 ],
			"min": [ -0.5259978, -0.4813209, -1.339101 ],
			"type": "VEC3"
		},
		{
			"bufferView": 3,
			"byteOffset": 36624,
			"componentType": 5126,
			"count": 168,
			"max": [ 0.9999782, 0.9996144, 1 ],
			"min": [ -1, -1, -1 ],
			"type": "VEC3"
		},
		{
			"bufferView": 4,
			"byteOffset": 23072,
			"componentType": 5126,
			"count": 168,
			"max": [ 1, 0, 0, 1 ],
			"min": [ 1, 0, 0, 1 ],
			"type": "VEC4"
		},
		{
			"bufferView": 0,
			"byteOffset": 6696,
			"componentType": 5123,
			"count": 384,
			"max": [ 167 ],
			"min": [ 0 ],
			"type": "SCALAR"
		},
		{
			"bufferView": 1,
			"byteOffset": 0,
			"componentType": 5126,
			"count": 60,
			"max": [ 1.966667 ],
			"min": [ 0 ],
			"type": "SCALAR"
		},
		{
			"bufferView": 5,
			"byteOffset": 0,
			"componentType": 5126,
			"count": 60,
			"max": [ -0.78, 1.51, 0 ],
			"min": [ -0.78, -0.9, 0 ],
			"type": "VEC3"
		},
		{
			"bufferView": 6,
			"byteOffset": 0,
			"componentType": 5126,
			"count": 60,
			"max": [ 2.185569E-08, 0, 0, -1 ],
			"min": [ 2.185569E-08, 0, 0, -1 ],
			"type": "VEC4"
		},
		{
			"bufferView": 5,
			"byteOffset": 720,
			"componentType": 5126,
			"count": 60,
			"max": [ 8, 8, 8 ],
			"min": [ 8, 8, 8 ],
			"type": "VEC3"
		},
		{
			"bufferView": 3,
			"byteOffset": 38640,
			"componentType": 5126,
			"count": 323,
			"max": [ 0.2983966, 0.0708477, 0 ],
			"min": [ -0.2905247, -0.3019021, -1.329644 ],
			"type": "VEC3"
		},
		{
			"bufferView": 3,
			"byteOffset": 42516,
			"componentType": 5126,
			"count": 323,
			"max": [ 0.9996856, 1, 1 ],
			"min": [ -1, -1, -1 ],
			"type": "VEC3"
		},
		{
			"bufferView": 4,
			"byteOffset": 25760,
			"componentType": 5126,
			"count": 323,
			"max": [ 1, 0, 0, 1 ],
			"min": [ 1, 0, 0, 1 ],
			"type": "VEC4"
		},
		{
			"bufferView": 0,
			"byteOffset": 7464,
			"componentType": 5123,
			"count": 762,
			"max": [ 322 ],
			"min": [ 0 ],
			"type": "SCALAR"
		},
		{
			"bufferView": 1,
			"byteOffset": 240,
			"componentType": 5126,
			"count": 60,
			"max": [ 1.966667 ],
			"min": [ 0 ],
			"type": "SCALAR"
		},
		{
			"bufferView": 5,
			"byteOffset": 1440,
			"componentType": 5126,
			"count": 60,
			"max": [ -0.55, 0.31, 0 ],
			"min": [ -0.55, -1.329393, 0 ],
			"type": "VEC3"
		},
		{
			"bufferView": 6,
			"byteOffset": 960,
			"componentType": 5126,
			"count": 60,
			"max": [ 2.185569E-08, 0, 0, -1 ],
			"min": [ 2.185569E-08, 0, 0, -1 ],
			"type": "VEC4"
		},
		{
			"bufferView": 5,
			"byteOffset": 2160,
			"componentType": 5126,
			"count": 60,
			"max": [ 8, 8, 8 ],
			"min": [ 8, 8, 8 ],
			"type": "VEC3"
		},
		{
			"bufferView": 3,
			"byteOffset": 46392,
			"componentType": 5126,
			"count": 121,
			"max": [ 5, 1.110223E-16, 5 ],
			"min": [ -5, -1.110223E-16, -5 ],
			"type": "VEC3"
		},
		{
			"bufferView": 3,
			"byteOffset": 47844,
			"componentType": 5126,
			"count": 121,
			"max": [ 0, 1, 0 ],
			"min": [ 0, 1, 0 ],
			"type": "VEC3"
		},
		{
			"bufferView": 2,
			"byteOffset": 0,
			"componentType": 5126,
			"count": 121,
			"max": [ 1, 1 ],
			"min": [ 0, 0 ],
			"type": "VEC2"
		},
		{
			"bufferView": 4,
			"byteOffset": 30928,
			"componentType": 5126,
			"count": 121,
			"max": [ -1, 0, 0, 1 ],
			"min": [ -1, 0, 0, 1 ],
			"type": "VEC4"
		},
		{
			"bufferView": 0,
			"byteOffset": 8988,
			"componentType": 5123,
			"count": 600,
			"max": [ 120 ],
			"min": [ 0 ],
			"type": "SCALAR"
		},
		{
			"bufferView": 3,
			"byteOffset": 49296,
			"componentType": 5126,
			"count": 121,
			"max": [ 5, 1.110223E-16, 5 ],
			"min": [ -5, -1.110223E-16, -5 ],
			"type": "VEC3"
		},
		{
			"bufferView": 3,
			"byteOffset": 50748,
			"componentType": 5126,
			"count": 121,
			"max": [ 0, 1, 0 ],
			"min": [ 0, 1, 0 ],
			"type": "VEC3"
		},
		{
			"bufferView": 2,
			"byteOffset": 968,
			"componentType": 5126,
			"count": 121,
			"max": [ 1, 1 ],
			"min": [ 0, 0 ],
			"type": "VEC2"
		},
		{
			"bufferView": 4,
			"byteOffset": 32864,
			"componentType": 5126,
			"count": 121,
			"max": [ -1, 0, 0, 1 ],
			"min": [ -1, 0, 0, 1 ],
			"type": "VEC4"
		},
		{
			"bufferView": 0,
			"byteOffset": 10188,
			"componentType": 5123,
			"count": 600,
			"max": [ 120 ],
			"min": [ 0 ],
			"type": "SCALAR"
		},
		{
			"bufferView": 3,
			"byteOffset": 52200,
			"componentType": 5126,
			"count": 121,
			"max": [ 5, 1.110223E-16, 5 ],
			"min": [ -5, -1.110223E-16, -5 ],
			"type": "VEC3"
		},
		{
			"bufferView": 3,
			"byteOffset": 53652,
			"componentType": 5126,
			"count": 121,
			"max": [ 0, 1, 0 ],
			"min": [ 0, 1, 0 ],
			"type": "VEC3"
		},
		{
			"bufferView": 2,
			"byteOffset": 1936,
			"componentType": 5126,
			"count": 121,
			"max": [ 1, 1 ],
			"min": [ 0, 0 ],
			"type": "VEC2"
		},
		{
			"bufferView": 4,
			"byteOffset": 34800,
			"componentType": 5126,
			"count": 121,
			"max": [ -1, 0, 0, 1 ],
			"min": [ -1, 0, 0, 1 ],
			"type": "VEC4"
		},
		{
			"bufferView": 0,
			"byteOffset": 11388,
			"componentType": 5123,
			"count": 600,
			"max": [ 120 ],
			"min": [ 0 ],
			"type": "SCALAR"
		},
		{
			"bufferView": 3,
			"byteOffset": 55104,
			"componentType": 5126,
			"count": 121,
			"max": [ 5, 1.110223E-16, 5 ],
			"min": [ -5, -1.110223E-16, -5 ],
			"type": "VEC3"
		},
		{
			"bufferView": 3,
			"byteOffset": 56556,
			"componentType": 5126,
			"count": 121,
			"max": [ 0, 1, 0 ],
			"min": [ 0, 1, 0 ],
			"type": "VEC3"
		},
		{
			"bufferView": 2,
			"byteOffset": 2904,
			"componentType": 5126,
			"count": 121,
			"max": [ 1, 1 ],
			"min": [ 0, 0 ],
			"type": "VEC2"
		},
		{
			"bufferView": 4,
			"byteOffset": 36736,
			"componentType": 5126,
			"count": 121,
			"max": [ -1, 0, 0, 1 ],
			"min": [ -1, 0, 0, 1 ],
			"type": "VEC4"
		},
		{
			"bufferView": 0,
			"byteOffset": 12588,
			"componentType": 5123,
			"count": 600,
			"max": [ 120 ],
			"min": [ 0 ],
			"type": "SCALAR"
		},
		{
			"bufferView": 3,
			"byteOffset": 58008,
			"componentType": 5126,
			"count": 121,
			"max": [ 5, 1.110223E-16, 5 ],
			"min": [ -5, -1.110223E-16, -5 ],
			"type": "VEC3"
		},
		{
			"bufferView": 3,
			"byteOffset": 59460,
			"componentType": 5126,
			"count": 121,
			"max": [ 0, 1, 0 ],
			"min": [ 0, 1, 0 ],
			"type": "VEC3"
		},
		{
			"bufferView": 2,
			"byteOffset": 3872,
			"componentType": 5126,
			"count": 121,
			"max": [ 1, 1 ],
			"min": [ 0, 0 ],
			"type": "VEC2"
		},
		{
			"bufferView": 4,
			"byteOffset": 38672,
			"componentType": 5126,
			"count": 121,
			"max": [ -1, 0, 0, 1 ],
			"min": [ -1, 0, 0, 1 ],
			"type": "VEC4"
		},
		{
			"bufferView": 0,
			"byteOffset": 13788,
			"componentType": 5123,
			"count": 600,
			"max": [ 120 ],
			"min": [ 0 ],
			"type": "SCALAR"
		},
		{
			"bufferView": 3,
			"byteOffset": 60912,
			"componentType": 5126,
			"count": 121,
			"max": [ 5, 1.110223E-16, 5 ],
			"min": [ -5, -1.110223E-16, -5 ],
			"type": "VEC3"
		},
		{
			"bufferView": 3,
			"byteOffset": 62364,
			"componentType": 5126,
			"count": 121,
			"max": [ 0, 1, 0 ],
			"min": [ 0, 1, 0 ],
			"type": "VEC3"
		},
		{
			"bufferView": 2,
			"byteOffset": 4840,
			"componentType": 5126,
			"count": 121,
			"max": [ 1, 1 ],
			"min": [ 0, 0 ],
			"type": "VEC2"
		},
		{
			"bufferView": 4,
			"byteOffset": 40608,
			"componentType": 5126,
			"count": 121,
			"max": [ -1, 0, 0, 1 ],
			"min": [ -1, 0, 0, 1 ],
			"type": "VEC4"
		},
		{
			"bufferView": 0,
			"byteOffset": 14988,
			"componentType": 5123,
			"count": 600,
			"max": [ 120 ],
			"min": [ 0 ],
			"type": "SCALAR"
		},
		{
			"bufferView": 3,
			"byteOffset": 63816,
			"componentType": 5126,
			"count": 121,
			"max": [ 5, 1.110223E-16, 5 ],
			"min": [ -5, -1.110223E-16, -5 ],
			"type": "VEC3"
		},
		{
			"bufferView": 3,
			"byteOffset": 65268,
			"componentType": 5126,
			"count": 121,
			"max": [ 0, 1, 0 ],
			"min": [ 0, 1, 0 ],
			"type": "VEC3"
		},
		{
			"bufferView": 2,
			"byteOffset": 5808,
			"componentType": 5126,
			"count": 121,
			"max": [ 1, 1 ],
			"min": [ 0, 0 ],
			"type": "VEC2"
		},
		{
			"bufferView": 4,
			"byteOffset": 42544,
			"componentType": 5126,
			"count": 121,
			"max": [ -1, 0, 0, 1 ],
			"min": [ -1, 0, 0, 1 ],
			"type": "VEC4"
		},
		{
			"bufferView": 0,
			"byteOffset": 16188,
			"componentType": 5123,
			"count": 600,
			"max": [ 120 ],
			"min": [ 0 ],
			"type": "SCALAR"
		},
		{
			"bufferView": 3,
			"byteOffset": 66720,
			"componentType": 5126,
			"count": 121,
			"max": [ 5, 1.110223E-16, 5 ],
			"min": [ -5, -1.110223E-16, -5 ],
			"type": "VEC3"
		},
		{
			"bufferView": 3,
			"byteOffset": 68172,
			"componentType": 5126,
			"count": 121,
			"max": [ 0, 1, 0 ],
			"min": [ 0, 1, 0 ],
			"type": "VEC3"
		},
		{
			"bufferView": 2,
			"byteOffset": 6776,
			"componentType": 5126,
			"count": 121,
			"max": [ 1, 1 ],
			"min": [ 0, 0 ],
			"type": "VEC2"
		},
		{
			"bufferView": 4,
			"byteOffset": 44480,
			"componentType": 5126,
			"count": 121,
			"max": [ -1, 0, 0, 1 ],
			"min": [ -1, 0, 0, 1 ],
			"type": "VEC4"
		},
		{
			"bufferView": 0,
			"byteOffset": 17388,
			"componentType": 5123,
			"count": 600,
			"max": [ 120 ],
			"min": [ 0 ],
			"type": "SCALAR"
		},
		{
			"bufferView": 3,
			"byteOffset": 69624,
			"componentType": 5126,
			"count": 121,
			"max": [ 5, 1.110223E-16, 5 ],
			"min": [ -5, -1.110223E-16, -5 ],
			"type": "VEC3"
		},
		{
			"bufferView": 3,
			"byteOffset": 71076,
			"componentType": 5126,
			"count": 121,
			"max": [ 0, 1, 0 ],
			"min": [ 0, 1, 0 ],
			"type": "VEC3"
		},
		{
			"bufferView": 2,
			"byteOffset": 7744,
			"componentType": 5126,
			"count": 121,
			"max": [ 1, 1 ],
			"min": [ 0, 0 ],
			"type": "VEC2"
		},
		{
			"bufferView": 4,
			"byteOffset": 46416,
			"componentType": 5126,
			"count": 121,
			"max": [ -1, 0, 0, 1 ],
			"min": [ -1, 0, 0, 1 ],
			"type": "VEC4"
		},
		{
			"bufferView": 0,
			"byteOffset": 18588,
			"componentType": 5123,
			"count": 600,
			"max": [ 120 ],
			"min": [ 0 ],
			"type": "SCALAR"
		},
		{
			"bufferView": 3,
			"byteOffset": 72528,
			"componentType": 5126,
			"count": 588,
			"max": [ 0.7108043, 0.3737386, 0 ],
			"min": [ -0.76851, -0.3320323, -1.329644 ],
			"type": "VEC3"
		},
		{
			"bufferView": 3,
			"byteOffset": 79584,
			"componentType": 5126,
			"count": 588,
			"max": [ 0.9999944, 1, 1 ],
			"min": [ -1, -1, -1 ],
			"type": "VEC3"
		},
		{
			"bufferView": 4,
			"byteOffset": 48352,
			"componentType": 5126,
			"count": 588,
			"max": [ 1, 0, 0, 1 ],
			"min": [ 1, 0, 0, 1 ],
			"type": "VEC4"
		},
		{
			"bufferView": 0,
			"byteOffset": 19788,
			"componentType": 5123,
			"count": 1392,
			"max": [ 587 ],
			"min": [ 0 ],
			"type": "SCALAR"
		}
	],
	"animations": [
		{
			"name": "1",
			"channels": [
				{
					"sampler": 0,
					"target": {
						"node": 4,
						"path": "translation"
					}
				},
				{
					"sampler": 1,
					"target": {
						"node": 4,
						"path": "rotation"
					}
				},
				{
					"sampler": 2,
					"target": {
						"node": 4,
						"path": "scale"
					}
				}
			],
			"samplers": [
				{
					"input": 16,
					"interpolation": "LINEAR",
					"output": 17
				},
				{
					"input": 16,
					"interpolation": "LINEAR",
					"output": 18
				},
				{
					"input": 16,
					"interpolation": "LINEAR",
					"output": 19
				}
			]
		},
		{
			"name": "2",
			"channels": [
				{
					"sampler": 0,
					"target": {
						"node": 5,
						"path": "translation"
					}
				},
				{
					"sampler": 1,
					"target": {
						"node": 5,
						"path": "rotation"
					}
				},
				{
					"sampler": 2,
					"target": {
						"node": 5,
						"path": "scale"
					}
				}
			],
			"samplers": [
				{
					"input": 24,
					"interpolation": "LINEAR",
					"output": 25
				},
				{
					"input": 24,
					"interpolation": "LINEAR",
					"output": 26
				},
				{
					"input": 24,
					"interpolation": "LINEAR",
					"output": 27
				}
			]
		}
	],
	"buffers": [
		{
			"byteLength": 180964,
			"uri": "内叠阶地.bin"
		}
	],
	"bufferViews": [
		{
			"buffer": 0,
			"byteLength": 22572,
			"target": 34963,
			"byteOffset": 153592
		},
		{
			"buffer": 0,
			"byteLength": 480,
			"byteOffset": 0
		},
		{
			"buffer": 0,
			"byteLength": 8712,
			"target": 34962,
			"byteStride": 8,
			"byteOffset": 480
		},
		{
			"buffer": 0,
			"byteLength": 86640,
			"target": 34962,
			"byteStride": 12,
			"byteOffset": 9192
		},
		{
			"buffer": 0,
			"byteLength": 57760,
			"target": 34962,
			"byteStride": 16,
			"byteOffset": 95832
		},
		{
			"buffer": 0,
			"byteLength": 2880,
			"byteStride": 12,
			"byteOffset": 176164
		},
		{
			"buffer": 0,
			"byteLength": 1920,
			"byteStride": 16,
			"byteOffset": 179044
		}
	],
	"images": [
		{
			"uri": "/Assets/河谷流水地貌/河流阶地地貌/Models/傻不啦叽的河谷类型/Textures/Grass (Meadows).jpg"
		},
		{
			"uri": "/Assets/河谷流水地貌/河流阶地地貌/Models/傻不啦叽的河谷类型/Textures/GoodDirt.jpg"
		}
	],
	"materials": [
		{
			"pbrMetallicRoughness": {
				"baseColorTexture" : {
					"index" : 0,
					"texCoord" : 0
				},
				"baseColorFactor": [0.5882353, 0.5882353, 0.5882353, 1],
				"metallicFactor": 0,
				"roughnessFactor": 1
			},
			"emissiveFactor": [0, 0, 0],
			"doubleSided": false,
			"name": "02 - Default"
		},
		{
			"pbrMetallicRoughness": {
				"baseColorTexture" : {
					"index" : 1,
					"texCoord" : 0
				},
				"baseColorFactor": [0.5882353, 0.5882353, 0.5882353, 1],
				"metallicFactor": 0,
				"roughnessFactor": 1
			},
			"emissiveFactor": [0, 0, 0],
			"doubleSided": false,
			"name": "01 - Default"
		},
		{
			"pbrMetallicRoughness": {
				"baseColorFactor": [0.1294118, 0.2, 0.3647059, 1],
				"metallicFactor": 0,
				"roughnessFactor": 0.5
			},
			"emissiveFactor": [0, 0, 0],
			"doubleSided": false,
			"name": ""
		}
	],
	"meshes": [
		{
			"name": "mesh_Line023_123422",
			"primitives": [
				{
					"attributes": {
						"POSITION": 0,
						"NORMAL": 1,
						"TANGENT": 2
					},
					"indices": 3,
					"material": 0,
					"mode": 4
				}
			]
		},
		{
			"name": "mesh_Line024_123303",
			"primitives": [
				{
					"attributes": {
						"POSITION": 4,
						"NORMAL": 5,
						"TANGENT": 6
					},
					"indices": 7,
					"material": 1,
					"mode": 4
				}
			]
		},
		{
			"name": "mesh_Line025_123184",
			"primitives": [
				{
					"attributes": {
						"POSITION": 8,
						"NORMAL": 9,
						"TANGENT": 10
					},
					"indices": 11,
					"material": 0,
					"mode": 4
				}
			]
		},
		{
			"name": "mesh_Line026_123121",
			"primitives": [
				{
					"attributes": {
						"POSITION": 12,
						"NORMAL": 13,
						"TANGENT": 14
					},
					"indices": 15,
					"material": 0,
					"mode": 4
				}
			]
		},
		{
			"name": "mesh_Line027_123482",
			"primitives": [
				{
					"attributes": {
						"POSITION": 20,
						"NORMAL": 21,
						"TANGENT": 22
					},
					"indices": 23,
					"material": 0,
					"mode": 4
				}
			]
		},
		{
			"name": "mesh__12324 (1)",
			"primitives": [
				{
					"attributes": {
						"POSITION": 28,
						"NORMAL": 29,
						"TEXCOORD_0": 30,
						"TANGENT": 31
					},
					"indices": 32,
					"material": 2,
					"mode": 4
				}
			]
		},
		{
			"name": "mesh__12324 (2)",
			"primitives": [
				{
					"attributes": {
						"POSITION": 33,
						"NORMAL": 34,
						"TEXCOORD_0": 35,
						"TANGENT": 36
					},
					"indices": 37,
					"material": 2,
					"mode": 4
				}
			]
		},
		{
			"name": "mesh__12324",
			"primitives": [
				{
					"attributes": {
						"POSITION": 38,
						"NORMAL": 39,
						"TEXCOORD_0": 40,
						"TANGENT": 41
					},
					"indices": 42,
					"material": 2,
					"mode": 4
				}
			]
		},
		{
			"name": "mesh__12324",
			"primitives": [
				{
					"attributes": {
						"POSITION": 43,
						"NORMAL": 44,
						"TEXCOORD_0": 45,
						"TANGENT": 46
					},
					"indices": 47,
					"material": 2,
					"mode": 4
				}
			]
		},
		{
			"name": "mesh__12324 (3)",
			"primitives": [
				{
					"attributes": {
						"POSITION": 48,
						"NORMAL": 49,
						"TEXCOORD_0": 50,
						"TANGENT": 51
					},
					"indices": 52,
					"material": 2,
					"mode": 4
				}
			]
		},
		{
			"name": "mesh__12324",
			"primitives": [
				{
					"attributes": {
						"POSITION": 53,
						"NORMAL": 54,
						"TEXCOORD_0": 55,
						"TANGENT": 56
					},
					"indices": 57,
					"material": 2,
					"mode": 4
				}
			]
		},
		{
			"name": "mesh__12324",
			"primitives": [
				{
					"attributes": {
						"POSITION": 58,
						"NORMAL": 59,
						"TEXCOORD_0": 60,
						"TANGENT": 61
					},
					"indices": 62,
					"material": 2,
					"mode": 4
				}
			]
		},
		{
			"name": "mesh__12324",
			"primitives": [
				{
					"attributes": {
						"POSITION": 63,
						"NORMAL": 64,
						"TEXCOORD_0": 65,
						"TANGENT": 66
					},
					"indices": 67,
					"material": 2,
					"mode": 4
				}
			]
		},
		{
			"name": "mesh__12324",
			"primitives": [
				{
					"attributes": {
						"POSITION": 68,
						"NORMAL": 69,
						"TEXCOORD_0": 70,
						"TANGENT": 71
					},
					"indices": 72,
					"material": 2,
					"mode": 4
				}
			]
		},
		{
			"name": "mesh_Line022_123361",
			"primitives": [
				{
					"attributes": {
						"POSITION": 73,
						"NORMAL": 74,
						"TANGENT": 75
					},
					"indices": 76,
					"material": 1,
					"mode": 4
				}
			]
		}
	],
	"nodes": [
		{
			"name": "UnityGlTF_root",
			"children": [
				15
			]
		},
		{
			"name": "node_2_-9038",
			"mesh": 0,
			"translation": [ -0.52, 0, 0],
			"scale": [ 8, 8, 8]
		},
		{
			"name": "node_3_-9040",
			"mesh": 1,
			"translation": [ -0.79, 0, 0],
			"scale": [ 8, 8, 8]
		},
		{
			"name": "node_4_-9042",
			"mesh": 2,
			"translation": [ -0.79, -0.65, 0],
			"scale": [ 8, 8, 8]
		},
		{
			"name": "node_1_-9044",
			"mesh": 3,
			"children": [
				7
			],
			"translation": [ -0.78, 1.51, 0],
			"scale": [ 8, 8, 8]
		},
		{
			"name": "node_2_-9046",
			"mesh": 4,
			"children": [
				10
			],
			"translation": [ -0.55, -1.33, 0],
			"scale": [ 8, 8, 8]
		},
		{
			"name": "node_ (1)_-9048",
			"mesh": 5,
			"children": [
				8,
				9
			],
			"translation": [ -0.85, -1.01, -5.32],
			"scale": [ 1.063155, 0.09999999, 0.16],
			"rotation": [0, -0.7071068, 0, -0.7071068]
		},
		{
			"name": "node_ (2)_-9052",
			"mesh": 6,
			"children": [
				13,
				14
			],
			"translation": [ 0.062, -0.024, -0.665],
			"scale": [ 0.1328939, 0.0125, 0.02000001],
			"rotation": [-1.545431E-08, -0.7071068, -1.545431E-08, -0.7071068]
		},
		{
			"name": "node__-9058",
			"mesh": 7,
			"translation": [ 4.96, -4, 0.5],
			"scale": [ 0.7528046, 0.1855011, 0.7868782],
			"rotation": [0.4994745, 0.500525, 0.500525, -0.4994745]
		},
		{
			"name": "node__-9060",
			"mesh": 8,
			"translation": [ -4.989, -3.91, 0.43],
			"scale": [ 0.7528356, 0.1855011, 0.7869003],
			"rotation": [0.5009074, -0.499091, -0.499091, -0.5009074]
		},
		{
			"name": "node_ (3)_-9070",
			"mesh": 9,
			"children": [
				11,
				12
			],
			"translation": [ 0.038, 0.003, -0.665],
			"scale": [ 0.1328939, 0.0125, 0.02000001],
			"rotation": [-1.545431E-08, -0.7071068, -1.545431E-08, -0.7071068]
		},
		{
			"name": "node__-9086",
			"mesh": 10,
			"translation": [ 4.96, -4, -0.63],
			"scale": [ 0.7528046, 0.1855011, 0.7868782],
			"rotation": [0.4994745, 0.500525, 0.500525, -0.4994745]
		},
		{
			"name": "node__-9088",
			"mesh": 11,
			"translation": [ -4.989, -3.91, -0.86],
			"scale": [ 0.7528356, 0.1855011, 0.7869003],
			"rotation": [0.5009074, -0.499091, -0.499091, -0.5009074]
		},
		{
			"name": "node__-9104",
			"mesh": 12,
			"translation": [ 5.027, -3.68, -0.62],
			"scale": [ 0.7528046, 0.1855011, 0.7868782],
			"rotation": [0.4994745, 0.500525, 0.500525, -0.4994745]
		},
		{
			"name": "node__-9106",
			"mesh": 13,
			"translation": [ -4.989, -3.91, 0.43],
			"scale": [ 0.7528356, 0.1855011, 0.7869003],
			"rotation": [0.5009074, -0.499091, -0.499091, -0.5009074]
		},
		{
			"name": "node__-9034",
			"children": [
				16,
				1,
				2,
				3,
				4,
				5,
				6
			],
			"matrix": [0.7, 0, 0, 0, 0, 0.7, 0, 0, 0, 0, 0.7, 0, 0, 0, 0, 1]
		},
		{
			"name": "node_1_-9036",
			"mesh": 14,
			"scale": [ 8, 8, 8]
		}
	],
	"samplers": [
		{
			"magFilter": 9729,
			"minFilter": 9985,
			"wrapS": 10497,
			"wrapT": 10497
		}
	],
	"scenes": [
		{
			"name":"defaultScene",
			"nodes": [
				0
			]
		}
	],
	"scene": 0,
	"textures": [
		{
			"sampler": 0,
			"source": 0
		},
		{
			"sampler": 0,
			"source": 1
		}
	]
}