{
	"asset": {
		"generator": "Unity 2018.3.11f1",
		"extras": {
			"exporterVersion" : "2.2.1"
		},
		"version": "2.0"
	},
	"accessors": [
		{
			"bufferView": 3,
			"byteOffset": 0,
			"componentType": 5126,
			"count": 426,
			"max": [ 0.1058422, 0.2260347, 0.08038739 ],
			"min": [ -0.1058422, -3.133351E-08, -0.08038737 ],
			"type": "VEC3"
		},
		{
			"bufferView": 3,
			"byteOffset": 5112,
			"componentType": 5126,
			"count": 426,
			"max": [ 0.9993948, 1, 1 ],
			"min": [ -0.9993948, -1, -1 ],
			"type": "VEC3"
		},
		{
			"bufferView": 2,
			"byteOffset": 0,
			"componentType": 5126,
			"count": 426,
			"max": [ 0.9890419, 0.993413 ],
			"min": [ 0.005608006, 0.01551745 ],
			"type": "VEC2"
		},
		{
			"bufferView": 4,
			"byteOffset": 0,
			"componentType": 5126,
			"count": 426,
			"max": [ 1, 0.9356845, 0.9997124, 1 ],
			"min": [ -0.7994229, -0.9366288, -0.9997125, -1 ],
			"type": "VEC4"
		},
		{
			"bufferView": 0,
			"byteOffset": 0,
			"componentType": 5123,
			"count": 1008,
			"max": [ 425 ],
			"min": [ 0 ],
			"type": "SCALAR"
		},
		{
			"bufferView": 1,
			"byteOffset": 0,
			"componentType": 5126,
			"count": 120,
			"max": [ 3.966667 ],
			"min": [ 0 ],
			"type": "SCALAR"
		},
		{
			"bufferView": 5,
			"byteOffset": 0,
			"componentType": 5126,
			"count": 120,
			"max": [ 14.5283, -22.02563, 29.0896 ],
			"min": [ 14.5283, -22.02563, 29.0896 ],
			"type": "VEC3"
		},
		{
			"bufferView": 6,
			"byteOffset": 0,
			"componentType": 5126,
			"count": 120,
			"max": [ 0, 8.742278E-08, 0, 0.9994859 ],
			"min": [ 0, -1, 0, -1 ],
			"type": "VEC4"
		},
		{
			"bufferView": 5,
			"byteOffset": 1440,
			"componentType": 5126,
			"count": 120,
			"max": [ 1.334534, 1.334534, 1.334534 ],
			"min": [ 1.334534, 1.334534, 1.334534 ],
			"type": "VEC3"
		}
	],
	"animations": [
		{
			"name": "Cake",
			"channels": [
				{
					"sampler": 0,
					"target": {
						"node": 1,
						"path": "translation"
					}
				},
				{
					"sampler": 1,
					"target": {
						"node": 1,
						"path": "rotation"
					}
				},
				{
					"sampler": 2,
					"target": {
						"node": 1,
						"path": "scale"
					}
				}
			],
			"samplers": [
				{
					"input": 5,
					"interpolation": "LINEAR",
					"output": 6
				},
				{
					"input": 5,
					"interpolation": "LINEAR",
					"output": 7
				},
				{
					"input": 5,
					"interpolation": "LINEAR",
					"output": 8
				}
			]
		}
	],
	"buffers": [
		{
			"byteLength": 27744,
			"uri": "甜品店.bin"
		}
	],
	"bufferViews": [
		{
			"buffer": 0,
			"byteLength": 2016,
			"target": 34963,
			"byteOffset": 20928
		},
		{
			"buffer": 0,
			"byteLength": 480,
			"byteOffset": 0
		},
		{
			"buffer": 0,
			"byteLength": 3408,
			"target": 34962,
			"byteStride": 8,
			"byteOffset": 480
		},
		{
			"buffer": 0,
			"byteLength": 10224,
			"target": 34962,
			"byteStride": 12,
			"byteOffset": 3888
		},
		{
			"buffer": 0,
			"byteLength": 6816,
			"target": 34962,
			"byteStride": 16,
			"byteOffset": 14112
		},
		{
			"buffer": 0,
			"byteLength": 2880,
			"byteStride": 12,
			"byteOffset": 22944
		},
		{
			"buffer": 0,
			"byteLength": 1920,
			"byteStride": 16,
			"byteOffset": 25824
		}
	],
	"images": [
		{
			"uri": "/Assets/01_3D/ETC/3D Bakery Object/FBX/Texture/Cake.jpg"
		}
	],
	"materials": [
		{
			"pbrMetallicRoughness": {
				"baseColorTexture" : {
					"index" : 0,
					"texCoord" : 0
				},
				"baseColorFactor": [0.588, 0.588, 0.588, 1],
				"metallicFactor": 0,
				"roughnessFactor": 0.5
			},
			"emissiveFactor": [0, 0, 0],
			"doubleSided": false,
			"name": "Cake"
		}
	],
	"meshes": [
		{
			"name": "mesh_Cake_15486Cake",
			"primitives": [
				{
					"attributes": {
						"POSITION": 0,
						"NORMAL": 1,
						"TEXCOORD_0": 2,
						"TANGENT": 3
					},
					"indices": 4,
					"material": 0,
					"mode": 4
				}
			]
		}
	],
	"nodes": [
		{
			"name": "UnityGlTF_root",
			"children": [
				1
			]
		},
		{
			"name": "node_Cake_-29298",
			"mesh": 0,
			"matrix": [0.8090269, 0, 1.061346, 0, 0, 1.334534, 0, 0, -1.061346, 0, 0.8090269, 0, 14.5283, -22.02563, 29.0896, 1]
		}
	],
	"samplers": [
		{
			"magFilter": 9729,
			"minFilter": 9985,
			"wrapS": 10497,
			"wrapT": 10497
		}
	],
	"scenes": [
		{
			"name":"defaultScene",
			"nodes": [
				0
			]
		}
	],
	"scene": 0,
	"textures": [
		{
			"sampler": 0,
			"source": 0
		}
	]
}