{
	"asset": {
		"generator": "Unity 2018.3.11f1",
		"extras": {
			"exporterVersion" : "2.2.1"
		},
		"version": "2.0"
	},
	"accessors": [
		{
			"bufferView": 3,
			"byteOffset": 0,
			"componentType": 5126,
			"count": 99333,
			"max": [ 0.5028724, 0.5033888, 0.0164521 ],
			"min": [ -0.5032753, -0.4953967, -0.3778484 ],
			"type": "VEC3"
		},
		{
			"bufferView": 3,
			"byteOffset": 1191996,
			"componentType": 5126,
			"count": 99333,
			"max": [ 0.9999831, 0.9999547, 1 ],
			"min": [ -0.9999985, -0.9996918, -0.9999071 ],
			"type": "VEC3"
		},
		{
			"bufferView": 2,
			"byteOffset": 0,
			"componentType": 5126,
			"count": 99333,
			"max": [ 1, 1 ],
			"min": [ 0, 0 ],
			"type": "VEC2"
		},
		{
			"bufferView": 4,
			"byteOffset": 0,
			"componentType": 5126,
			"count": 99333,
			"max": [ 1, 1, 0.9979116, 1 ],
			"min": [ -1, -1, -0.9975306, 1 ],
			"type": "VEC4"
		},
		{
			"bufferView": 0,
			"byteOffset": 0,
			"componentType": 5123,
			"count": 589824,
			"max": [ 99332 ],
			"min": [ 0 ],
			"type": "SCALAR"
		},
		{
			"bufferView": 3,
			"byteOffset": 2383992,
			"componentType": 5126,
			"count": 121,
			"max": [ 5, 1.110223E-16, 5 ],
			"min": [ -5, -1.110223E-16, -5 ],
			"type": "VEC3"
		},
		{
			"bufferView": 3,
			"byteOffset": 2385444,
			"componentType": 5126,
			"count": 121,
			"max": [ 0, 1, 0 ],
			"min": [ 0, 1, 0 ],
			"type": "VEC3"
		},
		{
			"bufferView": 2,
			"byteOffset": 794664,
			"componentType": 5126,
			"count": 121,
			"max": [ 1, 1 ],
			"min": [ 0, 0 ],
			"type": "VEC2"
		},
		{
			"bufferView": 4,
			"byteOffset": 1589328,
			"componentType": 5126,
			"count": 121,
			"max": [ -1, 0, 0, 1 ],
			"min": [ -1, 0, 0, 1 ],
			"type": "VEC4"
		},
		{
			"bufferView": 0,
			"byteOffset": 1179648,
			"componentType": 5123,
			"count": 600,
			"max": [ 120 ],
			"min": [ 0 ],
			"type": "SCALAR"
		},
		{
			"bufferView": 3,
			"byteOffset": 2386896,
			"componentType": 5126,
			"count": 99333,
			"max": [ 0.4960675, 0.4954733, 0.005373599 ],
			"min": [ -0.4964687, -0.4995247, -0.3778484 ],
			"type": "VEC3"
		},
		{
			"bufferView": 3,
			"byteOffset": 3578892,
			"componentType": 5126,
			"count": 99333,
			"max": [ 0.9682238, 0.8939912, 1 ],
			"min": [ -0.9818929, -0.999785, -0.9999175 ],
			"type": "VEC3"
		},
		{
			"bufferView": 2,
			"byteOffset": 795632,
			"componentType": 5126,
			"count": 99333,
			"max": [ 1, 1 ],
			"min": [ 0, 0 ],
			"type": "VEC2"
		},
		{
			"bufferView": 4,
			"byteOffset": 1591264,
			"componentType": 5126,
			"count": 99333,
			"max": [ 1, 1, 0.5568429, 1 ],
			"min": [ -1, -1, -0.7474585, 1 ],
			"type": "VEC4"
		},
		{
			"bufferView": 0,
			"byteOffset": 1180848,
			"componentType": 5123,
			"count": 589824,
			"max": [ 99332 ],
			"min": [ 0 ],
			"type": "SCALAR"
		},
		{
			"bufferView": 1,
			"byteOffset": 0,
			"componentType": 5126,
			"count": 180,
			"max": [ 5.966667 ],
			"min": [ 0 ],
			"type": "SCALAR"
		},
		{
			"bufferView": 5,
			"byteOffset": 0,
			"componentType": 5126,
			"count": 180,
			"max": [ -3.345573, -2.259149, -0.6830406 ],
			"min": [ -3.345573, -9.459149, -0.6830406 ],
			"type": "VEC3"
		},
		{
			"bufferView": 6,
			"byteOffset": 0,
			"componentType": 5126,
			"count": 180,
			"max": [ -0.7071068, 0, 0, -0.7071068 ],
			"min": [ -0.7071068, 0, 0, -0.7071068 ],
			"type": "VEC4"
		},
		{
			"bufferView": 5,
			"byteOffset": 2160,
			"componentType": 5126,
			"count": 180,
			"max": [ 30.62817, 30.6282, 30.6282 ],
			"min": [ 30.62817, 30.6282, 30.6282 ],
			"type": "VEC3"
		},
		{
			"bufferView": 3,
			"byteOffset": 4770888,
			"componentType": 5126,
			"count": 66049,
			"max": [ 50, 14.83245, 0 ],
			"min": [ 0, 0, -50 ],
			"type": "VEC3"
		},
		{
			"bufferView": 3,
			"byteOffset": 5563476,
			"componentType": 5126,
			"count": 66049,
			"max": [ 0.7727536, 1, 0.7816845 ],
			"min": [ -0.7706501, 0.6077294, -0.7703293 ],
			"type": "VEC3"
		},
		{
			"bufferView": 2,
			"byteOffset": 1590296,
			"componentType": 5126,
			"count": 66049,
			"max": [ 1, 1 ],
			"min": [ 0, 0 ],
			"type": "VEC2"
		},
		{
			"bufferView": 4,
			"byteOffset": 3180592,
			"componentType": 5126,
			"count": 66049,
			"max": [ 0.05579749, 0.781703, -0.6236509, -1 ],
			"min": [ -0.05310005, -0.7709611, -1, -1 ],
			"type": "VEC4"
		},
		{
			"bufferView": 0,
			"byteOffset": 2360496,
			"componentType": 5123,
			"count": 393216,
			"max": [ 66048 ],
			"min": [ 0 ],
			"type": "SCALAR"
		},
		{
			"bufferView": 1,
			"byteOffset": 720,
			"componentType": 5126,
			"count": 180,
			"max": [ 5.966667 ],
			"min": [ 0 ],
			"type": "SCALAR"
		},
		{
			"bufferView": 5,
			"byteOffset": 4320,
			"componentType": 5126,
			"count": 180,
			"max": [ 0, 3.200001, 0 ],
			"min": [ 0, -11.8, 0 ],
			"type": "VEC3"
		},
		{
			"bufferView": 6,
			"byteOffset": 2880,
			"componentType": 5126,
			"count": 180,
			"max": [ 0, 0, 0, -1 ],
			"min": [ 0, 0, 0, -1 ],
			"type": "VEC4"
		},
		{
			"bufferView": 5,
			"byteOffset": 6480,
			"componentType": 5126,
			"count": 180,
			"max": [ 1, 1, 1 ],
			"min": [ 1, 1, 1 ],
			"type": "VEC3"
		}
	],
	"animations": [
		{
			"name": "",
			"channels": [
				{
					"sampler": 0,
					"target": {
						"node": 5,
						"path": "translation"
					}
				},
				{
					"sampler": 1,
					"target": {
						"node": 5,
						"path": "rotation"
					}
				},
				{
					"sampler": 2,
					"target": {
						"node": 5,
						"path": "scale"
					}
				}
			],
			"samplers": [
				{
					"input": 15,
					"interpolation": "LINEAR",
					"output": 16
				},
				{
					"input": 15,
					"interpolation": "LINEAR",
					"output": 17
				},
				{
					"input": 15,
					"interpolation": "LINEAR",
					"output": 18
				}
			]
		},
		{
			"name": "default",
			"channels": [
				{
					"sampler": 0,
					"target": {
						"node": 6,
						"path": "translation"
					}
				},
				{
					"sampler": 1,
					"target": {
						"node": 6,
						"path": "rotation"
					}
				},
				{
					"sampler": 2,
					"target": {
						"node": 6,
						"path": "scale"
					}
				}
			],
			"samplers": [
				{
					"input": 24,
					"interpolation": "LINEAR",
					"output": 25
				},
				{
					"input": 24,
					"interpolation": "LINEAR",
					"output": 26
				},
				{
					"input": 24,
					"interpolation": "LINEAR",
					"output": 27
				}
			]
		}
	],
	"buffers": [
		{
			"byteLength": 15874896,
			"uri": "干扰型沙丘.bin"
		}
	],
	"bufferViews": [
		{
			"buffer": 0,
			"byteLength": 3146928,
			"target": 34963,
			"byteOffset": 12713568
		},
		{
			"buffer": 0,
			"byteLength": 1440,
			"byteOffset": 0
		},
		{
			"buffer": 0,
			"byteLength": 2118688,
			"target": 34962,
			"byteStride": 8,
			"byteOffset": 1440
		},
		{
			"buffer": 0,
			"byteLength": 6356064,
			"target": 34962,
			"byteStride": 12,
			"byteOffset": 2120128
		},
		{
			"buffer": 0,
			"byteLength": 4237376,
			"target": 34962,
			"byteStride": 16,
			"byteOffset": 8476192
		},
		{
			"buffer": 0,
			"byteLength": 8640,
			"byteStride": 12,
			"byteOffset": 15860496
		},
		{
			"buffer": 0,
			"byteLength": 5760,
			"byteStride": 16,
			"byteOffset": 15869136
		}
	],
	"images": [
		{
			"uri": "/Assets/Sand (Beach2).png"
		}
	],
	"materials": [
		{
			"pbrMetallicRoughness": {
				"baseColorTexture" : {
					"index" : 0,
					"texCoord" : 0
				},
				"baseColorFactor": [1, 1, 1, 1],
				"metallicFactor": 0,
				"roughnessFactor": 0.5
			},
			"alphaMode": "BLEND",
			"alphaCutoff": 0.5,
			"emissiveFactor": [0, 0, 0],
			"doubleSided": false,
			"name": "Sand (Beach2)"
		}
	],
	"meshes": [
		{
			"name": "mesh_Pyramid001_3612better",
			"primitives": [
				{
					"attributes": {
						"POSITION": 0,
						"NORMAL": 1,
						"TEXCOORD_0": 2,
						"TANGENT": 3
					},
					"indices": 4,
					"material": 0,
					"mode": 4
				}
			]
		},
		{
			"name": "mesh_Plane_582Plane",
			"primitives": [
				{
					"attributes": {
						"POSITION": 5,
						"NORMAL": 6,
						"TEXCOORD_0": 7,
						"TANGENT": 8
					},
					"indices": 9,
					"material": 0,
					"mode": 4
				}
			]
		},
		{
			"name": "mesh_Pyramid001_3746",
			"primitives": [
				{
					"attributes": {
						"POSITION": 10,
						"NORMAL": 11,
						"TEXCOORD_0": 12,
						"TANGENT": 13
					},
					"indices": 14,
					"material": 0,
					"mode": 4
				}
			]
		},
		{
			"name": "mesh_default_3540default",
			"primitives": [
				{
					"attributes": {
						"POSITION": 19,
						"NORMAL": 20,
						"TEXCOORD_0": 21,
						"TANGENT": 22
					},
					"indices": 23,
					"material": 0,
					"mode": 4
				}
			]
		}
	],
	"nodes": [
		{
			"name": "UnityGlTF_root",
			"children": [
				1
			]
		},
		{
			"name": "node__-1104",
			"children": [
				2,
				3,
				4,
				5
			],
			"matrix": [1, 0, 0, 0, 0, 1, 0, 0, 0, 0, 1, 0, 54.3, 2.307899, -43.7, 1]
		},
		{
			"name": "node_better_-1106",
			"mesh": 0,
			"translation": [ -3.5, -2.5079, -2],
			"scale": [ 23.26731, 23.26731, 23.26731],
			"rotation": [-0.7071068, 0, 0, -0.7071068]
		},
		{
			"name": "node_Terraing1_-1108",
			"children": [
				6
			],
			"translation": [ -29.9661, -2.83182, 25.0661],
			"scale": [ 1.0706, 1.0706, 1.0706]
		},
		{
			"name": "node_Plane_-1110",
			"mesh": 1,
			"translation": [ -2.5, -1.907899, -2],
			"scale": [ 5.262787, 5.262787, 5.262787]
		},
		{
			"name": "node__-1112",
			"mesh": 2,
			"translation": [ -3.345573, -2.259149, -0.6830406],
			"scale": [ 30.62817, 30.6282, 30.6282],
			"rotation": [-0.7071068, 0, 0, -0.7071068]
		},
		{
			"name": "node_default_-1116",
			"mesh": 3
		}
	],
	"samplers": [
		{
			"magFilter": 9729,
			"minFilter": 9985,
			"wrapS": 10497,
			"wrapT": 10497
		}
	],
	"scenes": [
		{
			"name":"defaultScene",
			"nodes": [
				0
			]
		}
	],
	"scene": 0,
	"textures": [
		{
			"sampler": 0,
			"source": 0
		}
	]
}