{
	"asset": {
		"generator": "Unity 2018.3.11f1",
		"extras": {
			"exporterVersion" : "2.2.1"
		},
		"version": "2.0"
	},
	"accessors": [
		{
			"bufferView": 3,
			"byteOffset": 0,
			"componentType": 5126,
			"count": 99333,
			"max": [ 0.5028724, 0.5033888, 0.0164521 ],
			"min": [ -0.5032753, -0.4953967, -0.3778484 ],
			"type": "VEC3"
		},
		{
			"bufferView": 3,
			"byteOffset": 1191996,
			"componentType": 5126,
			"count": 99333,
			"max": [ 0.9999831, 0.9999547, 1 ],
			"min": [ -0.9999985, -0.9996918, -0.9999071 ],
			"type": "VEC3"
		},
		{
			"bufferView": 2,
			"byteOffset": 0,
			"componentType": 5126,
			"count": 99333,
			"max": [ 1, 1 ],
			"min": [ 0, 0 ],
			"type": "VEC2"
		},
		{
			"bufferView": 4,
			"byteOffset": 0,
			"componentType": 5126,
			"count": 99333,
			"max": [ 1, 1, 0.9979116, 1 ],
			"min": [ -1, -1, -0.9975306, 1 ],
			"type": "VEC4"
		},
		{
			"bufferView": 0,
			"byteOffset": 0,
			"componentType": 5123,
			"count": 589824,
			"max": [ 99332 ],
			"min": [ 0 ],
			"type": "SCALAR"
		},
		{
			"bufferView": 1,
			"byteOffset": 0,
			"componentType": 5126,
			"count": 180,
			"max": [ 5.966667 ],
			"min": [ 0 ],
			"type": "SCALAR"
		},
		{
			"bufferView": 5,
			"byteOffset": 0,
			"componentType": 5126,
			"count": 180,
			"max": [ -3.4, -2.5079, -0.5 ],
			"min": [ -3.4, -2.5079, -0.5 ],
			"type": "VEC3"
		},
		{
			"bufferView": 6,
			"byteOffset": 0,
			"componentType": 5126,
			"count": 180,
			"max": [ -0.7071068, 0, 0, -0.7071068 ],
			"min": [ -0.7071068, 0, 0, -0.7071068 ],
			"type": "VEC4"
		},
		{
			"bufferView": 5,
			"byteOffset": 2160,
			"componentType": 5126,
			"count": 180,
			"max": [ 30, 30, 30 ],
			"min": [ 23.00145, 23.00145, 23.00145 ],
			"type": "VEC3"
		},
		{
			"bufferView": 3,
			"byteOffset": 2383992,
			"componentType": 5126,
			"count": 121,
			"max": [ 5, 1.110223E-16, 5 ],
			"min": [ -5, -1.110223E-16, -5 ],
			"type": "VEC3"
		},
		{
			"bufferView": 3,
			"byteOffset": 2385444,
			"componentType": 5126,
			"count": 121,
			"max": [ 0, 1, 0 ],
			"min": [ 0, 1, 0 ],
			"type": "VEC3"
		},
		{
			"bufferView": 2,
			"byteOffset": 794664,
			"componentType": 5126,
			"count": 121,
			"max": [ 1, 1 ],
			"min": [ 0, 0 ],
			"type": "VEC2"
		},
		{
			"bufferView": 4,
			"byteOffset": 1589328,
			"componentType": 5126,
			"count": 121,
			"max": [ -1, 0, 0, 1 ],
			"min": [ -1, 0, 0, 1 ],
			"type": "VEC4"
		},
		{
			"bufferView": 0,
			"byteOffset": 1179648,
			"componentType": 5123,
			"count": 600,
			"max": [ 120 ],
			"min": [ 0 ],
			"type": "SCALAR"
		},
		{
			"bufferView": 3,
			"byteOffset": 2386896,
			"componentType": 5126,
			"count": 24,
			"max": [ 0.5, 0.5, 0.5 ],
			"min": [ -0.5, -0.5, -0.5 ],
			"type": "VEC3"
		},
		{
			"bufferView": 3,
			"byteOffset": 2387184,
			"componentType": 5126,
			"count": 24,
			"max": [ 1, 1, 1 ],
			"min": [ -1, -1, -1 ],
			"type": "VEC3"
		},
		{
			"bufferView": 2,
			"byteOffset": 795632,
			"componentType": 5126,
			"count": 24,
			"max": [ 1, 1 ],
			"min": [ 0, 0 ],
			"type": "VEC2"
		},
		{
			"bufferView": 2,
			"byteOffset": 795824,
			"componentType": 5126,
			"count": 24,
			"max": [ 0.9966581, 0.6528358 ],
			"min": [ 0.004055766, 0.004055766 ],
			"type": "VEC2"
		},
		{
			"bufferView": 4,
			"byteOffset": 1591264,
			"componentType": 5126,
			"count": 24,
			"max": [ 0, 0, 1, 1 ],
			"min": [ -1, 0, -1, 1 ],
			"type": "VEC4"
		},
		{
			"bufferView": 0,
			"byteOffset": 1180848,
			"componentType": 5123,
			"count": 36,
			"max": [ 23 ],
			"min": [ 0 ],
			"type": "SCALAR"
		},
		{
			"bufferView": 3,
			"byteOffset": 2387472,
			"componentType": 5126,
			"count": 66049,
			"max": [ 50, 14.83245, 0 ],
			"min": [ 0, 0, -50 ],
			"type": "VEC3"
		},
		{
			"bufferView": 3,
			"byteOffset": 3180060,
			"componentType": 5126,
			"count": 66049,
			"max": [ 0.7727536, 1, 0.7816845 ],
			"min": [ -0.7706501, 0.6077294, -0.7703293 ],
			"type": "VEC3"
		},
		{
			"bufferView": 2,
			"byteOffset": 796016,
			"componentType": 5126,
			"count": 66049,
			"max": [ 1, 1 ],
			"min": [ 0, 0 ],
			"type": "VEC2"
		},
		{
			"bufferView": 4,
			"byteOffset": 1591648,
			"componentType": 5126,
			"count": 66049,
			"max": [ 0.05579749, 0.781703, -0.6236509, -1 ],
			"min": [ -0.05310005, -0.7709611, -1, -1 ],
			"type": "VEC4"
		},
		{
			"bufferView": 0,
			"byteOffset": 1180920,
			"componentType": 5123,
			"count": 393216,
			"max": [ 66048 ],
			"min": [ 0 ],
			"type": "SCALAR"
		},
		{
			"bufferView": 1,
			"byteOffset": 720,
			"componentType": 5126,
			"count": 180,
			"max": [ 5.966667 ],
			"min": [ 0 ],
			"type": "SCALAR"
		},
		{
			"bufferView": 5,
			"byteOffset": 4320,
			"componentType": 5126,
			"count": 180,
			"max": [ 0, 1.97, 0 ],
			"min": [ 0, -1.55508, 0 ],
			"type": "VEC3"
		},
		{
			"bufferView": 6,
			"byteOffset": 2880,
			"componentType": 5126,
			"count": 180,
			"max": [ 0, 0, 0, -1 ],
			"min": [ 0, 0, 0, -1 ],
			"type": "VEC4"
		},
		{
			"bufferView": 5,
			"byteOffset": 6480,
			"componentType": 5126,
			"count": 180,
			"max": [ 1, 1, 1 ],
			"min": [ 1, 0.07508814, 1 ],
			"type": "VEC3"
		}
	],
	"animations": [
		{
			"name": "better",
			"channels": [
				{
					"sampler": 0,
					"target": {
						"node": 1,
						"path": "translation"
					}
				},
				{
					"sampler": 1,
					"target": {
						"node": 1,
						"path": "rotation"
					}
				},
				{
					"sampler": 2,
					"target": {
						"node": 1,
						"path": "scale"
					}
				}
			],
			"samplers": [
				{
					"input": 5,
					"interpolation": "LINEAR",
					"output": 6
				},
				{
					"input": 5,
					"interpolation": "LINEAR",
					"output": 7
				},
				{
					"input": 5,
					"interpolation": "LINEAR",
					"output": 8
				}
			]
		},
		{
			"name": "default",
			"channels": [
				{
					"sampler": 0,
					"target": {
						"node": 6,
						"path": "translation"
					}
				},
				{
					"sampler": 1,
					"target": {
						"node": 6,
						"path": "rotation"
					}
				},
				{
					"sampler": 2,
					"target": {
						"node": 6,
						"path": "scale"
					}
				}
			],
			"samplers": [
				{
					"input": 25,
					"interpolation": "LINEAR",
					"output": 26
				},
				{
					"input": 25,
					"interpolation": "LINEAR",
					"output": 27
				},
				{
					"input": 25,
					"interpolation": "LINEAR",
					"output": 28
				}
			]
		}
	],
	"buffers": [
		{
			"byteLength": 9928680,
			"uri": "干扰型沙丘.bin"
		}
	],
	"bufferViews": [
		{
			"buffer": 0,
			"byteLength": 1967352,
			"target": 34963,
			"byteOffset": 7946928
		},
		{
			"buffer": 0,
			"byteLength": 1440,
			"byteOffset": 0
		},
		{
			"buffer": 0,
			"byteLength": 1324408,
			"target": 34962,
			"byteStride": 8,
			"byteOffset": 1440
		},
		{
			"buffer": 0,
			"byteLength": 3972648,
			"target": 34962,
			"byteStride": 12,
			"byteOffset": 1325848
		},
		{
			"buffer": 0,
			"byteLength": 2648432,
			"target": 34962,
			"byteStride": 16,
			"byteOffset": 5298496
		},
		{
			"buffer": 0,
			"byteLength": 8640,
			"byteStride": 12,
			"byteOffset": 9914280
		},
		{
			"buffer": 0,
			"byteLength": 5760,
			"byteStride": 16,
			"byteOffset": 9922920
		}
	],
	"images": [
		{
			"uri": "/Assets/风沙地貌/风积地貌/Textures/Sand (Beach2).png"
		}
	],
	"materials": [
		{
			"pbrMetallicRoughness": {
				"baseColorTexture" : {
					"index" : 0,
					"texCoord" : 0
				},
				"baseColorFactor": [1, 1, 1, 1],
				"metallicFactor": 0,
				"roughnessFactor": 0.5
			},
			"alphaMode": "BLEND",
			"alphaCutoff": 0.5,
			"emissiveFactor": [0, 0, 0],
			"doubleSided": false,
			"name": "Sand (Beach2)"
		}
	],
	"meshes": [
		{
			"name": "mesh_Pyramid001_22828better",
			"primitives": [
				{
					"attributes": {
						"POSITION": 0,
						"NORMAL": 1,
						"TEXCOORD_0": 2,
						"TANGENT": 3
					},
					"indices": 4,
					"material": 0,
					"mode": 4
				}
			]
		},
		{
			"name": "mesh_Plane_94Plane",
			"primitives": [
				{
					"attributes": {
						"POSITION": 9,
						"NORMAL": 10,
						"TEXCOORD_0": 11,
						"TANGENT": 12
					},
					"indices": 13,
					"material": 0,
					"mode": 4
				}
			]
		},
		{
			"name": "mesh_Cube_86Cube (1)",
			"primitives": [
				{
					"attributes": {
						"POSITION": 14,
						"NORMAL": 15,
						"TEXCOORD_0": 16,
						"TEXCOORD_1": 17,
						"TANGENT": 18
					},
					"indices": 19,
					"material": 0,
					"mode": 4
				}
			]
		},
		{
			"name": "mesh_default_22608default",
			"primitives": [
				{
					"attributes": {
						"POSITION": 20,
						"NORMAL": 21,
						"TEXCOORD_0": 22,
						"TANGENT": 23
					},
					"indices": 24,
					"material": 0,
					"mode": 4
				}
			]
		}
	],
	"nodes": [
		{
			"name": "UnityGlTF_root",
			"children": [
				4
			]
		},
		{
			"name": "node_better_-69674",
			"mesh": 0,
			"translation": [ -3.4, -2.5079, -0.5],
			"scale": [ 23.26731, 23.26731, 23.26731],
			"rotation": [-0.7071068, 0, 0, -0.7071068]
		},
		{
			"name": "node_Terraing1_-69676",
			"children": [
				6
			],
			"translation": [ -29.9661, -2.83182, 25.0661],
			"scale": [ 1.0706, 1.0706, 1.0706]
		},
		{
			"name": "node_Plane_-69678",
			"mesh": 1,
			"translation": [ -2.5, -1.907899, -2],
			"scale": [ 5.262787, 5.262787, 5.262787]
		},
		{
			"name": "node__-69672",
			"children": [
				5,
				1,
				2,
				3
			],
			"matrix": [1, 0, 0, 0, 0, 1, 0, 0, 0, 0, 1, 0, 0, 0, 0, 1]
		},
		{
			"name": "node_Cube (1)_-75212",
			"mesh": 2,
			"translation": [ -3.2, -2.8, -1.2],
			"scale": [ 53.95329, 4.220278, 53.10814]
		},
		{
			"name": "node_default_-69686",
			"mesh": 3
		}
	],
	"samplers": [
		{
			"magFilter": 9729,
			"minFilter": 9985,
			"wrapS": 10497,
			"wrapT": 10497
		}
	],
	"scenes": [
		{
			"name":"defaultScene",
			"nodes": [
				0
			]
		}
	],
	"scene": 0,
	"textures": [
		{
			"sampler": 0,
			"source": 0
		}
	]
}