{
	"asset": {
		"generator": "Unity 2018.3.11f1",
		"extras": {
			"exporterVersion" : "2.2.1"
		},
		"version": "2.0"
	},
	"accessors": [
		{
			"bufferView": 3,
			"byteOffset": 0,
			"componentType": 5126,
			"count": 1328,
			"max": [ 1.833055, 0.03394386, 0.8358346 ],
			"min": [ -1.509545, -2.470702, -1.772264 ],
			"type": "VEC3"
		},
		{
			"bufferView": 3,
			"byteOffset": 15936,
			"componentType": 5126,
			"count": 1328,
			"max": [ 1, 1, 0.9999912 ],
			"min": [ -1, -1, -1 ],
			"type": "VEC3"
		},
		{
			"bufferView": 2,
			"byteOffset": 0,
			"componentType": 5126,
			"count": 1328,
			"max": [ 1, 1 ],
			"min": [ 0, 0 ],
			"type": "VEC2"
		},
		{
			"bufferView": 4,
			"byteOffset": 0,
			"componentType": 5126,
			"count": 1328,
			"max": [ 1, 1, 0.9994136, 1 ],
			"min": [ -1, -0.9997776, -0.9994136, -1 ],
			"type": "VEC4"
		},
		{
			"bufferView": 0,
			"byteOffset": 0,
			"componentType": 5123,
			"count": 4944,
			"max": [ 1327 ],
			"min": [ 0 ],
			"type": "SCALAR"
		},
		{
			"bufferView": 3,
			"byteOffset": 31872,
			"componentType": 5126,
			"count": 1321,
			"max": [ 1.833055, 0.03394385, 0.8358346 ],
			"min": [ -1.509545, -2.470702, -1.772264 ],
			"type": "VEC3"
		},
		{
			"bufferView": 3,
			"byteOffset": 47724,
			"componentType": 5126,
			"count": 1321,
			"max": [ 1, 1, 0.9999912 ],
			"min": [ -1, -1, -1 ],
			"type": "VEC3"
		},
		{
			"bufferView": 2,
			"byteOffset": 10624,
			"componentType": 5126,
			"count": 1321,
			"max": [ 1, 1 ],
			"min": [ 0, 0 ],
			"type": "VEC2"
		},
		{
			"bufferView": 4,
			"byteOffset": 21248,
			"componentType": 5126,
			"count": 1321,
			"max": [ 1, 1, 0.9994136, 1 ],
			"min": [ -1, -1, -0.9994136, -1 ],
			"type": "VEC4"
		},
		{
			"bufferView": 0,
			"byteOffset": 9888,
			"componentType": 5123,
			"count": 4944,
			"max": [ 1320 ],
			"min": [ 0 ],
			"type": "SCALAR"
		},
		{
			"bufferView": 1,
			"byteOffset": 0,
			"componentType": 5126,
			"count": 60,
			"max": [ 1.966667 ],
			"min": [ 0 ],
			"type": "SCALAR"
		},
		{
			"bufferView": 5,
			"byteOffset": 0,
			"componentType": 5126,
			"count": 60,
			"max": [ -0.1417457, -0.07828242, 0.4796768 ],
			"min": [ -0.1417457, -0.07828242, 0.4796768 ],
			"type": "VEC3"
		},
		{
			"bufferView": 6,
			"byteOffset": 0,
			"componentType": 5126,
			"count": 60,
			"max": [ -0.7071068, 0, 0, -0.7071068 ],
			"min": [ -0.7071068, 0, 0, -0.7071068 ],
			"type": "VEC4"
		},
		{
			"bufferView": 5,
			"byteOffset": 720,
			"componentType": 5126,
			"count": 60,
			"max": [ 0.3937008, 0.3937015, 0.3937015 ],
			"min": [ 0, 0, 0 ],
			"type": "VEC3"
		},
		{
			"bufferView": 1,
			"byteOffset": 240,
			"componentType": 5126,
			"count": 60,
			"max": [ 1.966667 ],
			"min": [ 0 ],
			"type": "SCALAR"
		},
		{
			"bufferView": 5,
			"byteOffset": 1440,
			"componentType": 5126,
			"count": 60,
			"max": [ -0.1417457, -0.07828242, 0.4796768 ],
			"min": [ -0.1417457, -0.07828242, 0.4796768 ],
			"type": "VEC3"
		},
		{
			"bufferView": 6,
			"byteOffset": 960,
			"componentType": 5126,
			"count": 60,
			"max": [ -0.7071068, 0, 0, -0.7071068 ],
			"min": [ -0.7071068, 0, 0, -0.7071068 ],
			"type": "VEC4"
		},
		{
			"bufferView": 5,
			"byteOffset": 2160,
			"componentType": 5126,
			"count": 60,
			"max": [ 0.3937, 0.3937, 0.3937 ],
			"min": [ 0, 0, 0 ],
			"type": "VEC3"
		},
		{
			"bufferView": 1,
			"byteOffset": 480,
			"componentType": 5126,
			"count": 60,
			"max": [ 1.966667 ],
			"min": [ 0 ],
			"type": "SCALAR"
		},
		{
			"bufferView": 5,
			"byteOffset": 2880,
			"componentType": 5126,
			"count": 60,
			"max": [ -0.1417457, -0.07828242, 0.4796768 ],
			"min": [ -0.1417457, -0.07828242, 0.4796768 ],
			"type": "VEC3"
		},
		{
			"bufferView": 6,
			"byteOffset": 1920,
			"componentType": 5126,
			"count": 60,
			"max": [ -0.7071068, 0, 0, -0.7071068 ],
			"min": [ -0.7071068, 0, 0, -0.7071068 ],
			"type": "VEC4"
		},
		{
			"bufferView": 5,
			"byteOffset": 3600,
			"componentType": 5126,
			"count": 60,
			"max": [ 0.3937008, 0.3937015, 0.3937015 ],
			"min": [ 0, 0, 0 ],
			"type": "VEC3"
		},
		{
			"bufferView": 3,
			"byteOffset": 63576,
			"componentType": 5126,
			"count": 1335,
			"max": [ 1.833055, 0.03394387, 0.8358346 ],
			"min": [ -1.509545, -2.470702, -1.772264 ],
			"type": "VEC3"
		},
		{
			"bufferView": 3,
			"byteOffset": 79596,
			"componentType": 5126,
			"count": 1335,
			"max": [ 1, 1, 0.9999912 ],
			"min": [ -1, -1, -1 ],
			"type": "VEC3"
		},
		{
			"bufferView": 2,
			"byteOffset": 21192,
			"componentType": 5126,
			"count": 1335,
			"max": [ 1, 1 ],
			"min": [ 0, 0 ],
			"type": "VEC2"
		},
		{
			"bufferView": 4,
			"byteOffset": 42384,
			"componentType": 5126,
			"count": 1335,
			"max": [ 1, 1, 0.9994136, 1 ],
			"min": [ -1, -0.9997776, -0.9994136, -1 ],
			"type": "VEC4"
		},
		{
			"bufferView": 0,
			"byteOffset": 19776,
			"componentType": 5123,
			"count": 4944,
			"max": [ 1334 ],
			"min": [ 0 ],
			"type": "SCALAR"
		}
	],
	"animations": [
		{
			"name": "",
			"channels": [
				{
					"sampler": 0,
					"target": {
						"node": 4,
						"path": "translation"
					}
				},
				{
					"sampler": 1,
					"target": {
						"node": 4,
						"path": "rotation"
					}
				},
				{
					"sampler": 2,
					"target": {
						"node": 4,
						"path": "scale"
					}
				},
				{
					"sampler": 3,
					"target": {
						"node": 1,
						"path": "translation"
					}
				},
				{
					"sampler": 4,
					"target": {
						"node": 1,
						"path": "rotation"
					}
				},
				{
					"sampler": 5,
					"target": {
						"node": 1,
						"path": "scale"
					}
				},
				{
					"sampler": 6,
					"target": {
						"node": 2,
						"path": "translation"
					}
				},
				{
					"sampler": 7,
					"target": {
						"node": 2,
						"path": "rotation"
					}
				},
				{
					"sampler": 8,
					"target": {
						"node": 2,
						"path": "scale"
					}
				}
			],
			"samplers": [
				{
					"input": 10,
					"interpolation": "LINEAR",
					"output": 11
				},
				{
					"input": 10,
					"interpolation": "LINEAR",
					"output": 12
				},
				{
					"input": 10,
					"interpolation": "LINEAR",
					"output": 13
				},
				{
					"input": 14,
					"interpolation": "LINEAR",
					"output": 15
				},
				{
					"input": 14,
					"interpolation": "LINEAR",
					"output": 16
				},
				{
					"input": 14,
					"interpolation": "LINEAR",
					"output": 17
				},
				{
					"input": 18,
					"interpolation": "LINEAR",
					"output": 19
				},
				{
					"input": 18,
					"interpolation": "LINEAR",
					"output": 20
				},
				{
					"input": 18,
					"interpolation": "LINEAR",
					"output": 21
				}
			]
		}
	],
	"buffers": [
		{
			"byteLength": 228816,
			"uri": "风蚀城堡.bin"
		}
	],
	"bufferViews": [
		{
			"buffer": 0,
			"byteLength": 29664,
			"target": 34963,
			"byteOffset": 191952
		},
		{
			"buffer": 0,
			"byteLength": 720,
			"byteOffset": 0
		},
		{
			"buffer": 0,
			"byteLength": 31872,
			"target": 34962,
			"byteStride": 8,
			"byteOffset": 720
		},
		{
			"buffer": 0,
			"byteLength": 95616,
			"target": 34962,
			"byteStride": 12,
			"byteOffset": 32592
		},
		{
			"buffer": 0,
			"byteLength": 63744,
			"target": 34962,
			"byteStride": 16,
			"byteOffset": 128208
		},
		{
			"buffer": 0,
			"byteLength": 4320,
			"byteStride": 12,
			"byteOffset": 221616
		},
		{
			"buffer": 0,
			"byteLength": 2880,
			"byteStride": 16,
			"byteOffset": 225936
		}
	],
	"images": [
		{
			"uri": "/Assets/风沙地貌/风蚀地貌/Textures/timg (1).jpg"
		}
	],
	"materials": [
		{
			"pbrMetallicRoughness": {
				"baseColorTexture" : {
					"index" : 0,
					"texCoord" : 0
				},
				"baseColorFactor": [1, 1, 1, 1],
				"metallicFactor": 0,
				"roughnessFactor": 0.5
			},
			"emissiveFactor": [0, 0, 0],
			"doubleSided": false,
			"name": ""
		}
	],
	"meshes": [
		{
			"name": "mesh_Box012_131362",
			"primitives": [
				{
					"attributes": {
						"POSITION": 0,
						"NORMAL": 1,
						"TEXCOORD_0": 2,
						"TANGENT": 3
					},
					"indices": 4,
					"material": 0,
					"mode": 4
				}
			]
		},
		{
			"name": "mesh_Box012_130461",
			"primitives": [
				{
					"attributes": {
						"POSITION": 5,
						"NORMAL": 6,
						"TEXCOORD_0": 7,
						"TANGENT": 8
					},
					"indices": 9,
					"material": 0,
					"mode": 4
				}
			]
		},
		{
			"name": "mesh_Box012_131763",
			"primitives": [
				{
					"attributes": {
						"POSITION": 22,
						"NORMAL": 23,
						"TEXCOORD_0": 24,
						"TANGENT": 25
					},
					"indices": 26,
					"material": 0,
					"mode": 4
				}
			]
		}
	],
	"nodes": [
		{
			"name": "UnityGlTF_root",
			"children": [
				3
			]
		},
		{
			"name": "node_2_-58432",
			"mesh": 0,
			"translation": [ -0.1417457, -0.07828242, 0.4796768],
			"scale": [ 0.3937008, 0.3937015, 0.3937015],
			"rotation": [-0.7071068, 0, 0, -0.7071068]
		},
		{
			"name": "node_1_-58434",
			"mesh": 1,
			"translation": [ -0.1417457, -0.07828242, 0.4796768],
			"scale": [ 0.3937008, 0.3937015, 0.3937015],
			"rotation": [-0.7071068, 0, 0, -0.7071068]
		},
		{
			"name": "node__-58426",
			"children": [
				4,
				1,
				2
			],
			"matrix": [1, 0, 0, 0, 0, 1, 0, 0, 0, 0, 1, 0, 10, 0, -2, 1]
		},
		{
			"name": "node_3_-58430",
			"mesh": 2,
			"translation": [ -0.1417457, -0.07828242, 0.4796768],
			"scale": [ 0.3937008, 0.3937015, 0.3937015],
			"rotation": [-0.7071068, 0, 0, -0.7071068]
		}
	],
	"samplers": [
		{
			"magFilter": 9729,
			"minFilter": 9985,
			"wrapS": 10497,
			"wrapT": 10497
		}
	],
	"scenes": [
		{
			"name":"defaultScene",
			"nodes": [
				0
			]
		}
	],
	"scene": 0,
	"textures": [
		{
			"sampler": 0,
			"source": 0
		}
	]
}