{
	"asset": {
		"generator": "Unity 2018.3.11f1",
		"extras": {
			"exporterVersion" : "2.2.1"
		},
		"version": "2.0"
	},
	"accessors": [
		{
			"bufferView": 3,
			"byteOffset": 0,
			"componentType": 5126,
			"count": 2329,
			"max": [ 0.3488144, 0.3488377, 0.2335324 ],
			"min": [ -0.3488244, -0.8599577, -1.672723 ],
			"type": "VEC3"
		},
		{
			"bufferView": 3,
			"byteOffset": 27948,
			"componentType": 5126,
			"count": 2329,
			"max": [ 1, 1, 1 ],
			"min": [ -1, -1, -1 ],
			"type": "VEC3"
		},
		{
			"bufferView": 4,
			"byteOffset": 0,
			"componentType": 5126,
			"count": 2329,
			"max": [ 0, 0, 0, 0 ],
			"min": [ 0, 0, 0, 0 ],
			"type": "VEC4"
		},
		{
			"bufferView": 2,
			"byteOffset": 0,
			"componentType": 5126,
			"count": 2329,
			"max": [ 1, 1 ],
			"min": [ -4.287548E-18, -1.192093E-07 ],
			"type": "VEC2"
		},
		{
			"bufferView": 4,
			"byteOffset": 37264,
			"componentType": 5126,
			"count": 2329,
			"max": [ 1, 1, 1, 1 ],
			"min": [ -1, -1, -1, -1 ],
			"type": "VEC4"
		},
		{
			"bufferView": 0,
			"byteOffset": 0,
			"componentType": 5123,
			"count": 8712,
			"max": [ 2328 ],
			"min": [ 0 ],
			"type": "SCALAR"
		},
		{
			"bufferView": 3,
			"byteOffset": 55896,
			"componentType": 5126,
			"count": 710,
			"max": [ 0.2373721, 0.2373721, 0.7155267 ],
			"min": [ -0.2373721, -0.2373721, -0.3170822 ],
			"type": "VEC3"
		},
		{
			"bufferView": 3,
			"byteOffset": 64416,
			"componentType": 5126,
			"count": 710,
			"max": [ 0.9999719, 0.9999788, 1 ],
			"min": [ -0.9999859, -0.9999784, -1 ],
			"type": "VEC3"
		},
		{
			"bufferView": 2,
			"byteOffset": 18632,
			"componentType": 5126,
			"count": 710,
			"max": [ 2, 1 ],
			"min": [ 0, -1.192093E-07 ],
			"type": "VEC2"
		},
		{
			"bufferView": 4,
			"byteOffset": 74528,
			"componentType": 5126,
			"count": 710,
			"max": [ 1, 1, 0.8323646, 1 ],
			"min": [ -1, -1, -0.8642894, -1 ],
			"type": "VEC4"
		},
		{
			"bufferView": 0,
			"byteOffset": 17424,
			"componentType": 5123,
			"count": 3417,
			"max": [ 709 ],
			"min": [ 0 ],
			"type": "SCALAR"
		},
		{
			"bufferView": 1,
			"byteOffset": 0,
			"componentType": 5126,
			"count": 30,
			"max": [ 0.9666667 ],
			"min": [ 0 ],
			"type": "SCALAR"
		},
		{
			"bufferView": 5,
			"byteOffset": 0,
			"componentType": 5126,
			"count": 30,
			"max": [ 0, 0, 0 ],
			"min": [ -0.08970667, -0.7774577, 0 ],
			"type": "VEC3"
		},
		{
			"bufferView": 6,
			"byteOffset": 0,
			"componentType": 5126,
			"count": 30,
			"max": [ 0, 0, 0, -1 ],
			"min": [ 0, 0, 0, -1 ],
			"type": "VEC4"
		},
		{
			"bufferView": 5,
			"byteOffset": 360,
			"componentType": 5126,
			"count": 30,
			"max": [ 1, 1, 1 ],
			"min": [ 1, 1, 1 ],
			"type": "VEC3"
		},
		{
			"bufferView": 1,
			"byteOffset": 120,
			"componentType": 5126,
			"count": 30,
			"max": [ 0.9666667 ],
			"min": [ 0 ],
			"type": "SCALAR"
		},
		{
			"bufferView": 5,
			"byteOffset": 720,
			"componentType": 5126,
			"count": 30,
			"max": [ 0, -1.18, 0 ],
			"min": [ 0, -1.768077, 0 ],
			"type": "VEC3"
		},
		{
			"bufferView": 6,
			"byteOffset": 480,
			"componentType": 5126,
			"count": 30,
			"max": [ 0, 0, 0, -1 ],
			"min": [ 0, 0, 0, -1 ],
			"type": "VEC4"
		},
		{
			"bufferView": 5,
			"byteOffset": 1080,
			"componentType": 5126,
			"count": 30,
			"max": [ 1, 1, 1 ],
			"min": [ 1, 1, 1 ],
			"type": "VEC3"
		},
		{
			"bufferView": 1,
			"byteOffset": 240,
			"componentType": 5126,
			"count": 30,
			"max": [ 0.9666667 ],
			"min": [ 0 ],
			"type": "SCALAR"
		},
		{
			"bufferView": 5,
			"byteOffset": 1440,
			"componentType": 5126,
			"count": 30,
			"max": [ 0, -3.28, 0 ],
			"min": [ 0, -3.848142, 0 ],
			"type": "VEC3"
		},
		{
			"bufferView": 6,
			"byteOffset": 960,
			"componentType": 5126,
			"count": 30,
			"max": [ 0, 0, 0, -1 ],
			"min": [ 0, 0, 0, -1 ],
			"type": "VEC4"
		},
		{
			"bufferView": 5,
			"byteOffset": 1800,
			"componentType": 5126,
			"count": 30,
			"max": [ 1, 1, 1 ],
			"min": [ 1, 1, 1 ],
			"type": "VEC3"
		},
		{
			"bufferView": 3,
			"byteOffset": 72936,
			"componentType": 5126,
			"count": 710,
			"max": [ 0.2373721, 0.2373721, 0.7155267 ],
			"min": [ -0.2373721, -0.2373721, -0.3170822 ],
			"type": "VEC3"
		},
		{
			"bufferView": 3,
			"byteOffset": 81456,
			"componentType": 5126,
			"count": 710,
			"max": [ 0.9999719, 0.9999788, 1 ],
			"min": [ -0.9999859, -0.9999784, -1 ],
			"type": "VEC3"
		},
		{
			"bufferView": 2,
			"byteOffset": 24312,
			"componentType": 5126,
			"count": 710,
			"max": [ 2, 1 ],
			"min": [ 0, -1.192093E-07 ],
			"type": "VEC2"
		},
		{
			"bufferView": 4,
			"byteOffset": 85888,
			"componentType": 5126,
			"count": 710,
			"max": [ 1, 1, 0.8323646, 1 ],
			"min": [ -1, -1, -0.8642894, -1 ],
			"type": "VEC4"
		},
		{
			"bufferView": 0,
			"byteOffset": 24258,
			"componentType": 5123,
			"count": 3417,
			"max": [ 709 ],
			"min": [ 0 ],
			"type": "SCALAR"
		},
		{
			"bufferView": 3,
			"byteOffset": 89976,
			"componentType": 5126,
			"count": 710,
			"max": [ 0.2373721, 0.2373721, 0.7155267 ],
			"min": [ -0.2373721, -0.2373721, -0.3170822 ],
			"type": "VEC3"
		},
		{
			"bufferView": 3,
			"byteOffset": 98496,
			"componentType": 5126,
			"count": 710,
			"max": [ 0.9999719, 0.9999788, 1 ],
			"min": [ -0.9999859, -0.9999784, -1 ],
			"type": "VEC3"
		},
		{
			"bufferView": 2,
			"byteOffset": 29992,
			"componentType": 5126,
			"count": 710,
			"max": [ 2, 1 ],
			"min": [ 0, -1.192093E-07 ],
			"type": "VEC2"
		},
		{
			"bufferView": 4,
			"byteOffset": 97248,
			"componentType": 5126,
			"count": 710,
			"max": [ 1, 1, 0.8323646, 1 ],
			"min": [ -1, -1, -0.8642894, -1 ],
			"type": "VEC4"
		},
		{
			"bufferView": 0,
			"byteOffset": 31092,
			"componentType": 5123,
			"count": 3417,
			"max": [ 709 ],
			"min": [ 0 ],
			"type": "SCALAR"
		},
		{
			"bufferView": 3,
			"byteOffset": 107016,
			"componentType": 5126,
			"count": 710,
			"max": [ 0.2373721, 0.2373721, 0.7155267 ],
			"min": [ -0.2373721, -0.2373721, -0.3170822 ],
			"type": "VEC3"
		},
		{
			"bufferView": 3,
			"byteOffset": 115536,
			"componentType": 5126,
			"count": 710,
			"max": [ 0.9999719, 0.9999788, 1 ],
			"min": [ -0.9999859, -0.9999784, -1 ],
			"type": "VEC3"
		},
		{
			"bufferView": 2,
			"byteOffset": 35672,
			"componentType": 5126,
			"count": 710,
			"max": [ 2, 1 ],
			"min": [ 0, -1.192093E-07 ],
			"type": "VEC2"
		},
		{
			"bufferView": 4,
			"byteOffset": 108608,
			"componentType": 5126,
			"count": 710,
			"max": [ 1, 1, 0.8323646, 1 ],
			"min": [ -1, -1, -0.8642894, -1 ],
			"type": "VEC4"
		},
		{
			"bufferView": 0,
			"byteOffset": 37926,
			"componentType": 5123,
			"count": 3417,
			"max": [ 709 ],
			"min": [ 0 ],
			"type": "SCALAR"
		}
	],
	"animations": [
		{
			"name": "-",
			"channels": [
				{
					"sampler": 0,
					"target": {
						"node": 6,
						"path": "translation"
					}
				},
				{
					"sampler": 1,
					"target": {
						"node": 6,
						"path": "rotation"
					}
				},
				{
					"sampler": 2,
					"target": {
						"node": 6,
						"path": "scale"
					}
				},
				{
					"sampler": 3,
					"target": {
						"node": 9,
						"path": "translation"
					}
				},
				{
					"sampler": 4,
					"target": {
						"node": 9,
						"path": "rotation"
					}
				},
				{
					"sampler": 5,
					"target": {
						"node": 9,
						"path": "scale"
					}
				},
				{
					"sampler": 6,
					"target": {
						"node": 8,
						"path": "translation"
					}
				},
				{
					"sampler": 7,
					"target": {
						"node": 8,
						"path": "rotation"
					}
				},
				{
					"sampler": 8,
					"target": {
						"node": 8,
						"path": "scale"
					}
				}
			],
			"samplers": [
				{
					"input": 11,
					"interpolation": "LINEAR",
					"output": 12
				},
				{
					"input": 11,
					"interpolation": "LINEAR",
					"output": 13
				},
				{
					"input": 11,
					"interpolation": "LINEAR",
					"output": 14
				},
				{
					"input": 15,
					"interpolation": "LINEAR",
					"output": 16
				},
				{
					"input": 15,
					"interpolation": "LINEAR",
					"output": 17
				},
				{
					"input": 15,
					"interpolation": "LINEAR",
					"output": 18
				},
				{
					"input": 19,
					"interpolation": "LINEAR",
					"output": 20
				},
				{
					"input": 19,
					"interpolation": "LINEAR",
					"output": 21
				},
				{
					"input": 19,
					"interpolation": "LINEAR",
					"output": 22
				}
			]
		}
	],
	"buffers": [
		{
			"byteLength": 334096,
			"uri": "小雨-中雨.bin"
		}
	],
	"bufferViews": [
		{
			"buffer": 0,
			"byteLength": 44760,
			"target": 34963,
			"byteOffset": 285736
		},
		{
			"buffer": 0,
			"byteLength": 360,
			"byteOffset": 0
		},
		{
			"buffer": 0,
			"byteLength": 41352,
			"target": 34962,
			"byteStride": 8,
			"byteOffset": 360
		},
		{
			"buffer": 0,
			"byteLength": 124056,
			"target": 34962,
			"byteStride": 12,
			"byteOffset": 41712
		},
		{
			"buffer": 0,
			"byteLength": 119968,
			"target": 34962,
			"byteStride": 16,
			"byteOffset": 165768
		},
		{
			"buffer": 0,
			"byteLength": 2160,
			"byteStride": 12,
			"byteOffset": 330496
		},
		{
			"buffer": 0,
			"byteLength": 1440,
			"byteStride": 16,
			"byteOffset": 332656
		}
	],
	"extensionsRequired": [
		"KHR_materials_pbrSpecularGlossiness"
	],
	"extensionsUsed": [
		"KHR_materials_pbrSpecularGlossiness"
	],
	"materials": [
		{
			"extensions": {
				"KHR_materials_pbrSpecularGlossiness": {
					"diffuseFactor": [1, 1, 1, 1],
					"specularFactor": [1, 1, 1],
					"glossinessFactor": 0.25				}

			},
			"alphaMode": "MASK",
			"alphaCutoff": 0.5,
			"emissiveFactor": [0, 0, 0],
			"doubleSided": false,
			"name": "-"
		},
		{
			"pbrMetallicRoughness": {
				"baseColorFactor": [0.03301889, 0.6888822, 1, 1],
				"metallicFactor": 0,
				"roughnessFactor": 0.5
			},
			"emissiveFactor": [0, 0, 0],
			"doubleSided": false,
			"name": ""
		}
	],
	"meshes": [
		{
			"name": "mesh_Capsule001_11218",
			"primitives": [
				{
					"attributes": {
						"POSITION": 0,
						"NORMAL": 1,
						"COLOR_0": 2,
						"TEXCOORD_0": 3,
						"TANGENT": 4
					},
					"indices": 5,
					"material": 0,
					"mode": 4
				}
			]
		},
		{
			"name": "mesh_Cone001_11012 (1)",
			"primitives": [
				{
					"attributes": {
						"POSITION": 6,
						"NORMAL": 7,
						"TEXCOORD_0": 8,
						"TANGENT": 9
					},
					"indices": 10,
					"material": 1,
					"mode": 4
				}
			]
		},
		{
			"name": "mesh_Cone001_11012",
			"primitives": [
				{
					"attributes": {
						"POSITION": 23,
						"NORMAL": 24,
						"TEXCOORD_0": 25,
						"TANGENT": 26
					},
					"indices": 27,
					"material": 1,
					"mode": 4
				}
			]
		},
		{
			"name": "mesh_Cone001_11012 (1)",
			"primitives": [
				{
					"attributes": {
						"POSITION": 28,
						"NORMAL": 29,
						"TEXCOORD_0": 30,
						"TANGENT": 31
					},
					"indices": 32,
					"material": 1,
					"mode": 4
				}
			]
		},
		{
			"name": "mesh_Cone001_11012 (1)",
			"primitives": [
				{
					"attributes": {
						"POSITION": 33,
						"NORMAL": 34,
						"TEXCOORD_0": 35,
						"TANGENT": 36
					},
					"indices": 37,
					"material": 1,
					"mode": 4
				}
			]
		}
	],
	"nodes": [
		{
			"name": "UnityGlTF_root",
			"children": [
				3
			]
		},
		{
			"name": "node__-30164",
			"mesh": 0,
			"translation": [ 0.85, -0.4410335, 0.05381823],
			"scale": [ 1, 1.097207, 1.451034],
			"rotation": [-0.7071068, 0, -0.7071068, 0]
		},
		{
			"name": "node_ (1)_-30156",
			"mesh": 1,
			"translation": [ -0.168977, 0.02896655, 0.05381823],
			"scale": [ 0.3964537, 0.3964544, 0.3964544],
			"rotation": [-0.7071068, 0, 0, -0.7071068]
		},
		{
			"name": "node_-_-30168",
			"children": [
				1,
				6,
				9,
				8
			],
			"matrix": [1, 0, 0, 0, 0, 1, 0, 0, 0, 0, 1, 0, -5.924027, 5.245964, 7.334476, 1]
		},
		{
			"name": "node__-30238",
			"mesh": 2,
			"translation": [ 0.3340232, -0.3800001, 0.0539999],
			"scale": [ 0.39645, 0.3964509, 0.3964509],
			"rotation": [-0.7071068, 0, 0, -0.7071068]
		},
		{
			"name": "node_ (1)_-30240",
			"mesh": 3,
			"translation": [ -0.5359772, -0.3800001, 0.0539999],
			"scale": [ 0.39645, 0.3964509, 0.3964509],
			"rotation": [-0.7071068, 0, 0, -0.7071068]
		},
		{
			"name": "node__-30250",
			"children": [
				5,
				4
			],
			"translation": [ -0.213, 0, 0]
		},
		{
			"name": "node_ (1)_-30152",
			"mesh": 4,
			"translation": [ -0.168977, 1.548967, 0.05381823],
			"scale": [ 0.39645, 0.3964505, 0.3964505],
			"rotation": [-0.7071068, 0, 0, -0.7071068]
		},
		{
			"name": "node__-30158",
			"children": [
				7
			],
			"translation": [ 0, -1.52, 0]
		},
		{
			"name": "node__-30160",
			"children": [
				2
			]
		}
	],
	"scenes": [
		{
			"name":"defaultScene",
			"nodes": [
				0
			]
		}
	],
	"scene": 0
}