{
	"asset": {
		"generator": "Unity 2018.3.11f1",
		"extras": {
			"exporterVersion" : "2.2.1"
		},
		"version": "2.0"
	},
	"accessors": [
		{
			"bufferView": 1,
			"byteOffset": 0,
			"componentType": 5126,
			"count": 60,
			"max": [ 1.966667 ],
			"min": [ 0 ],
			"type": "SCALAR"
		},
		{
			"bufferView": 5,
			"byteOffset": 0,
			"componentType": 5126,
			"count": 60,
			"max": [ -0.211298, 0.01404876, -0.2931218 ],
			"min": [ -0.211298, 0.01404876, -0.2931218 ],
			"type": "VEC3"
		},
		{
			"bufferView": 6,
			"byteOffset": 0,
			"componentType": 5126,
			"count": 60,
			"max": [ -0.7071068, 0, 0, -0.7071068 ],
			"min": [ -0.7071068, 0, 0, -0.7071068 ],
			"type": "VEC4"
		},
		{
			"bufferView": 5,
			"byteOffset": 720,
			"componentType": 5126,
			"count": 60,
			"max": [ 1, 1, 1 ],
			"min": [ 1, 1, 0.645862 ],
			"type": "VEC3"
		},
		{
			"bufferView": 3,
			"byteOffset": 0,
			"componentType": 5126,
			"count": 32,
			"max": [ 0.6530866, 1.134043, 0 ],
			"min": [ -0.6530866, -1.134043, -1.232152 ],
			"type": "VEC3"
		},
		{
			"bufferView": 3,
			"byteOffset": 384,
			"componentType": 5126,
			"count": 32,
			"max": [ 1, 1, 1 ],
			"min": [ -1, -1, -1 ],
			"type": "VEC3"
		},
		{
			"bufferView": 2,
			"byteOffset": 0,
			"componentType": 5126,
			"count": 32,
			"max": [ 1, 1 ],
			"min": [ 0, 0 ],
			"type": "VEC2"
		},
		{
			"bufferView": 4,
			"byteOffset": 0,
			"componentType": 5126,
			"count": 32,
			"max": [ 1, 1, 0.6856058, 1 ],
			"min": [ -1, -1, -0.6856058, 1 ],
			"type": "VEC4"
		},
		{
			"bufferView": 0,
			"byteOffset": 0,
			"componentType": 5123,
			"count": 48,
			"max": [ 25 ],
			"min": [ 0 ],
			"type": "SCALAR"
		},
		{
			"bufferView": 0,
			"byteOffset": 96,
			"componentType": 5123,
			"count": 12,
			"max": [ 31 ],
			"min": [ 26 ],
			"type": "SCALAR"
		},
		{
			"bufferView": 3,
			"byteOffset": 768,
			"componentType": 5126,
			"count": 121,
			"max": [ 5, 1.110223E-16, 5 ],
			"min": [ -5, -1.110223E-16, -5 ],
			"type": "VEC3"
		},
		{
			"bufferView": 3,
			"byteOffset": 2220,
			"componentType": 5126,
			"count": 121,
			"max": [ 0, 1, 0 ],
			"min": [ 0, 1, 0 ],
			"type": "VEC3"
		},
		{
			"bufferView": 2,
			"byteOffset": 256,
			"componentType": 5126,
			"count": 121,
			"max": [ 1, 1 ],
			"min": [ 0, 0 ],
			"type": "VEC2"
		},
		{
			"bufferView": 4,
			"byteOffset": 512,
			"componentType": 5126,
			"count": 121,
			"max": [ -1, 0, 0, 1 ],
			"min": [ -1, 0, 0, 1 ],
			"type": "VEC4"
		},
		{
			"bufferView": 0,
			"byteOffset": 120,
			"componentType": 5123,
			"count": 600,
			"max": [ 120 ],
			"min": [ 0 ],
			"type": "SCALAR"
		},
		{
			"bufferView": 3,
			"byteOffset": 3672,
			"componentType": 5126,
			"count": 32,
			"max": [ 0.6530866, 1.134043, 0 ],
			"min": [ -0.6530866, -1.134043, -1.232152 ],
			"type": "VEC3"
		},
		{
			"bufferView": 3,
			"byteOffset": 4056,
			"componentType": 5126,
			"count": 32,
			"max": [ 1, 1, 1 ],
			"min": [ -1, -1, -1 ],
			"type": "VEC3"
		},
		{
			"bufferView": 2,
			"byteOffset": 1224,
			"componentType": 5126,
			"count": 32,
			"max": [ 1, 1 ],
			"min": [ 0, 0 ],
			"type": "VEC2"
		},
		{
			"bufferView": 4,
			"byteOffset": 2448,
			"componentType": 5126,
			"count": 32,
			"max": [ 1, 1, 0.7750502, 1 ],
			"min": [ -1, -1, -0.7750502, 1 ],
			"type": "VEC4"
		},
		{
			"bufferView": 0,
			"byteOffset": 1320,
			"componentType": 5123,
			"count": 48,
			"max": [ 25 ],
			"min": [ 0 ],
			"type": "SCALAR"
		},
		{
			"bufferView": 0,
			"byteOffset": 1416,
			"componentType": 5123,
			"count": 12,
			"max": [ 31 ],
			"min": [ 26 ],
			"type": "SCALAR"
		},
		{
			"bufferView": 3,
			"byteOffset": 4440,
			"componentType": 5126,
			"count": 3,
			"max": [ 0.2804916, 0.1146095, -2.194309 ],
			"min": [ -0.2850156, -0.2292189, -2.220811 ],
			"type": "VEC3"
		},
		{
			"bufferView": 3,
			"byteOffset": 4476,
			"componentType": 5126,
			"count": 3,
			"max": [ -0.04677849, 0.03754588, -0.9981993 ],
			"min": [ -0.04677849, 0.03754588, -0.9981993 ],
			"type": "VEC3"
		},
		{
			"bufferView": 4,
			"byteOffset": 2960,
			"componentType": 5126,
			"count": 3,
			"max": [ 1, 0, 0, 1 ],
			"min": [ 1, 0, 0, 1 ],
			"type": "VEC4"
		},
		{
			"bufferView": 0,
			"byteOffset": 1440,
			"componentType": 5123,
			"count": 3,
			"max": [ 2 ],
			"min": [ 0 ],
			"type": "SCALAR"
		},
		{
			"bufferView": 3,
			"byteOffset": 4512,
			"componentType": 5126,
			"count": 3,
			"max": [ 0.2804916, 0.1146095, 0.03710185 ],
			"min": [ -0.2850156, -0.2292189, 0.03710185 ],
			"type": "VEC3"
		},
		{
			"bufferView": 3,
			"byteOffset": 4548,
			"componentType": 5126,
			"count": 3,
			"max": [ 0, 0, 1 ],
			"min": [ 0, 0, 1 ],
			"type": "VEC3"
		},
		{
			"bufferView": 4,
			"byteOffset": 3008,
			"componentType": 5126,
			"count": 3,
			"max": [ 1, 0, 0, 1 ],
			"min": [ 1, 0, 0, 1 ],
			"type": "VEC4"
		},
		{
			"bufferView": 0,
			"byteOffset": 1446,
			"componentType": 5123,
			"count": 3,
			"max": [ 2 ],
			"min": [ 0 ],
			"type": "SCALAR"
		},
		{
			"bufferView": 3,
			"byteOffset": 4584,
			"componentType": 5126,
			"count": 121,
			"max": [ 5, 1.110223E-16, 5 ],
			"min": [ -5, -1.110223E-16, -5 ],
			"type": "VEC3"
		},
		{
			"bufferView": 3,
			"byteOffset": 6036,
			"componentType": 5126,
			"count": 121,
			"max": [ 0, 1, 0 ],
			"min": [ 0, 1, 0 ],
			"type": "VEC3"
		},
		{
			"bufferView": 2,
			"byteOffset": 1480,
			"componentType": 5126,
			"count": 121,
			"max": [ 1, 1 ],
			"min": [ 0, 0 ],
			"type": "VEC2"
		},
		{
			"bufferView": 4,
			"byteOffset": 3056,
			"componentType": 5126,
			"count": 121,
			"max": [ -1, 0, 0, 1 ],
			"min": [ -1, 0, 0, 1 ],
			"type": "VEC4"
		},
		{
			"bufferView": 0,
			"byteOffset": 1452,
			"componentType": 5123,
			"count": 600,
			"max": [ 120 ],
			"min": [ 0 ],
			"type": "SCALAR"
		},
		{
			"bufferView": 3,
			"byteOffset": 7488,
			"componentType": 5126,
			"count": 121,
			"max": [ 5, 1.110223E-16, 5 ],
			"min": [ -5, -1.110223E-16, -5 ],
			"type": "VEC3"
		},
		{
			"bufferView": 3,
			"byteOffset": 8940,
			"componentType": 5126,
			"count": 121,
			"max": [ 0, 1, 0 ],
			"min": [ 0, 1, 0 ],
			"type": "VEC3"
		},
		{
			"bufferView": 2,
			"byteOffset": 2448,
			"componentType": 5126,
			"count": 121,
			"max": [ 1, 1 ],
			"min": [ 0, 0 ],
			"type": "VEC2"
		},
		{
			"bufferView": 4,
			"byteOffset": 4992,
			"componentType": 5126,
			"count": 121,
			"max": [ -1, 0, 0, 1 ],
			"min": [ -1, 0, 0, 1 ],
			"type": "VEC4"
		},
		{
			"bufferView": 0,
			"byteOffset": 2652,
			"componentType": 5123,
			"count": 600,
			"max": [ 120 ],
			"min": [ 0 ],
			"type": "SCALAR"
		},
		{
			"bufferView": 1,
			"byteOffset": 240,
			"componentType": 5126,
			"count": 30,
			"max": [ 0.9666667 ],
			"min": [ 0 ],
			"type": "SCALAR"
		},
		{
			"bufferView": 5,
			"byteOffset": 1440,
			"componentType": 5126,
			"count": 30,
			"max": [ -0.2087109, 0.8520947, -1.497424 ],
			"min": [ -0.2087109, 0.6317206, -1.497424 ],
			"type": "VEC3"
		},
		{
			"bufferView": 6,
			"byteOffset": 960,
			"componentType": 5126,
			"count": 30,
			"max": [ 0, 0.7071068, -0.7071068, 0 ],
			"min": [ 0, 0.7071068, -0.7071068, 0 ],
			"type": "VEC4"
		},
		{
			"bufferView": 5,
			"byteOffset": 1800,
			"componentType": 5126,
			"count": 30,
			"max": [ 0.02250702, 0.02250701, 0.05234811 ],
			"min": [ 0.02250702, 0.02250701, 0.05234811 ],
			"type": "VEC3"
		},
		{
			"bufferView": 3,
			"byteOffset": 10392,
			"componentType": 5126,
			"count": 121,
			"max": [ 5, 1.110223E-16, 5 ],
			"min": [ -5, -1.110223E-16, -5 ],
			"type": "VEC3"
		},
		{
			"bufferView": 3,
			"byteOffset": 11844,
			"componentType": 5126,
			"count": 121,
			"max": [ 0, 1, 0 ],
			"min": [ 0, 1, 0 ],
			"type": "VEC3"
		},
		{
			"bufferView": 2,
			"byteOffset": 3416,
			"componentType": 5126,
			"count": 121,
			"max": [ 1, 1 ],
			"min": [ 0, 0 ],
			"type": "VEC2"
		},
		{
			"bufferView": 4,
			"byteOffset": 6928,
			"componentType": 5126,
			"count": 121,
			"max": [ -1, 0, 0, 1 ],
			"min": [ -1, 0, 0, 1 ],
			"type": "VEC4"
		},
		{
			"bufferView": 0,
			"byteOffset": 3852,
			"componentType": 5123,
			"count": 600,
			"max": [ 120 ],
			"min": [ 0 ],
			"type": "SCALAR"
		},
		{
			"bufferView": 1,
			"byteOffset": 360,
			"componentType": 5126,
			"count": 30,
			"max": [ 0.9666667 ],
			"min": [ 0 ],
			"type": "SCALAR"
		},
		{
			"bufferView": 5,
			"byteOffset": 2160,
			"componentType": 5126,
			"count": 30,
			"max": [ -0.2087109, 0.8520947, 0.9225 ],
			"min": [ -0.2087109, 0.6317206, 0.9225 ],
			"type": "VEC3"
		},
		{
			"bufferView": 6,
			"byteOffset": 1440,
			"componentType": 5126,
			"count": 30,
			"max": [ -0.7071068, 0, 0, -0.7071068 ],
			"min": [ -0.7071068, 0, 0, -0.7071068 ],
			"type": "VEC4"
		},
		{
			"bufferView": 5,
			"byteOffset": 2520,
			"componentType": 5126,
			"count": 30,
			"max": [ 0.022507, 0.02250701, 0.05234811 ],
			"min": [ 0.022507, 0.02250701, 0.05234811 ],
			"type": "VEC3"
		}
	],
	"animations": [
		{
			"name": "V",
			"channels": [
				{
					"sampler": 0,
					"target": {
						"node": 2,
						"path": "translation"
					}
				},
				{
					"sampler": 1,
					"target": {
						"node": 2,
						"path": "rotation"
					}
				},
				{
					"sampler": 2,
					"target": {
						"node": 2,
						"path": "scale"
					}
				}
			],
			"samplers": [
				{
					"input": 0,
					"interpolation": "LINEAR",
					"output": 1
				},
				{
					"input": 0,
					"interpolation": "LINEAR",
					"output": 2
				},
				{
					"input": 0,
					"interpolation": "LINEAR",
					"output": 3
				}
			]
		},
		{
			"name": "Plane",
			"channels": [
				{
					"sampler": 0,
					"target": {
						"node": 8,
						"path": "translation"
					}
				},
				{
					"sampler": 1,
					"target": {
						"node": 8,
						"path": "rotation"
					}
				},
				{
					"sampler": 2,
					"target": {
						"node": 8,
						"path": "scale"
					}
				}
			],
			"samplers": [
				{
					"input": 39,
					"interpolation": "LINEAR",
					"output": 40
				},
				{
					"input": 39,
					"interpolation": "LINEAR",
					"output": 41
				},
				{
					"input": 39,
					"interpolation": "LINEAR",
					"output": 42
				}
			]
		},
		{
			"name": "Plane (1)",
			"channels": [
				{
					"sampler": 0,
					"target": {
						"node": 10,
						"path": "translation"
					}
				},
				{
					"sampler": 1,
					"target": {
						"node": 10,
						"path": "rotation"
					}
				},
				{
					"sampler": 2,
					"target": {
						"node": 10,
						"path": "scale"
					}
				}
			],
			"samplers": [
				{
					"input": 48,
					"interpolation": "LINEAR",
					"output": 49
				},
				{
					"input": 48,
					"interpolation": "LINEAR",
					"output": 50
				},
				{
					"input": 48,
					"interpolation": "LINEAR",
					"output": 51
				}
			]
		}
	],
	"buffers": [
		{
			"byteLength": 36876,
			"uri": "V字形河谷.bin"
		}
	],
	"bufferViews": [
		{
			"buffer": 0,
			"byteLength": 5052,
			"target": 34963,
			"byteOffset": 27024
		},
		{
			"buffer": 0,
			"byteLength": 480,
			"byteOffset": 0
		},
		{
			"buffer": 0,
			"byteLength": 4384,
			"target": 34962,
			"byteStride": 8,
			"byteOffset": 480
		},
		{
			"buffer": 0,
			"byteLength": 13296,
			"target": 34962,
			"byteStride": 12,
			"byteOffset": 4864
		},
		{
			"buffer": 0,
			"byteLength": 8864,
			"target": 34962,
			"byteStride": 16,
			"byteOffset": 18160
		},
		{
			"buffer": 0,
			"byteLength": 2880,
			"byteStride": 12,
			"byteOffset": 32076
		},
		{
			"buffer": 0,
			"byteLength": 1920,
			"byteStride": 16,
			"byteOffset": 34956
		}
	],
	"images": [
		{
			"uri": "/Assets/Models/傻不啦叽的河谷类型/Textures/GoodDirt.jpg"
		},
		{
			"uri": "/Assets/Models/傻不啦叽的河谷类型/Textures/Grass (Meadows).jpg"
		},
		{
			"uri": "/Assets/Textures/图片1.png"
		},
		{
			"uri": "/Assets/Textures/图片2.png"
		}
	],
	"materials": [
		{
			"pbrMetallicRoughness": {
				"baseColorTexture" : {
					"index" : 0,
					"texCoord" : 0
				},
				"baseColorFactor": [0.5882353, 0.5882353, 0.5882353, 1],
				"metallicFactor": 0,
				"roughnessFactor": 1
			},
			"emissiveFactor": [0, 0, 0],
			"doubleSided": false,
			"name": "GoodDirt"
		},
		{
			"pbrMetallicRoughness": {
				"baseColorTexture" : {
					"index" : 1,
					"texCoord" : 0
				},
				"baseColorFactor": [0.5882353, 0.5882353, 0.5882353, 1],
				"metallicFactor": 0,
				"roughnessFactor": 1
			},
			"emissiveFactor": [0, 0, 0],
			"doubleSided": false,
			"name": "Grass (Meadows)"
		},
		{
			"pbrMetallicRoughness": {
				"baseColorFactor": [0.1294118, 0.2, 0.3647059, 1],
				"metallicFactor": 0,
				"roughnessFactor": 0.5
			},
			"emissiveFactor": [0, 0, 0],
			"doubleSided": false,
			"name": "RAM_River_Material_Linear"
		},
		{
			"pbrMetallicRoughness": {
				"baseColorFactor": [0.1294118, 0.2, 0.3647059, 1],
				"metallicFactor": 0,
				"roughnessFactor": 0.5
			},
			"emissiveFactor": [0, 0, 0],
			"doubleSided": false,
			"name": ""
		},
		{
			"pbrMetallicRoughness": {
				"baseColorTexture" : {
					"index" : 2,
					"texCoord" : 0
				},
				"baseColorFactor": [1, 1, 1, 1],
				"metallicFactor": 0,
				"roughnessFactor": 0.5
			},
			"alphaMode": "BLEND",
			"alphaCutoff": 0.5,
			"emissiveFactor": [0, 0, 0],
			"doubleSided": false,
			"name": "1"
		},
		{
			"pbrMetallicRoughness": {
				"baseColorTexture" : {
					"index" : 3,
					"texCoord" : 0
				},
				"baseColorFactor": [1, 1, 1, 1],
				"metallicFactor": 0,
				"roughnessFactor": 0.5
			},
			"alphaMode": "BLEND",
			"alphaCutoff": 0.5,
			"emissiveFactor": [0, 0, 0],
			"doubleSided": false,
			"name": "2"
		}
	],
	"meshes": [
		{
			"name": "mesh_Box007_2710V",
			"primitives": [
				{
					"attributes": {
						"POSITION": 4,
						"NORMAL": 5,
						"TEXCOORD_0": 6,
						"TANGENT": 7
					},
					"indices": 8,
					"material": 0,
					"mode": 4
				},
				{
					"attributes": {
						"POSITION": 4,
						"NORMAL": 5,
						"TEXCOORD_0": 6,
						"TANGENT": 7
					},
					"indices": 9,
					"material": 1,
					"mode": 4
				}
			]
		},
		{
			"name": "mesh_Plane_580Sea Example",
			"primitives": [
				{
					"attributes": {
						"POSITION": 10,
						"NORMAL": 11,
						"TEXCOORD_0": 12,
						"TANGENT": 13
					},
					"indices": 14,
					"material": 2,
					"mode": 4
				}
			]
		},
		{
			"name": "mesh_Box007_3106Box007",
			"primitives": [
				{
					"attributes": {
						"POSITION": 15,
						"NORMAL": 16,
						"TEXCOORD_0": 17,
						"TANGENT": 18
					},
					"indices": 19,
					"material": 0,
					"mode": 4
				},
				{
					"attributes": {
						"POSITION": 15,
						"NORMAL": 16,
						"TEXCOORD_0": 17,
						"TANGENT": 18
					},
					"indices": 20,
					"material": 1,
					"mode": 4
				}
			]
		},
		{
			"name": "mesh_002_3112002",
			"primitives": [
				{
					"attributes": {
						"POSITION": 21,
						"NORMAL": 22,
						"TANGENT": 23
					},
					"indices": 24,
					"material": 3,
					"mode": 4
				}
			]
		},
		{
			"name": "mesh_003_3114003",
			"primitives": [
				{
					"attributes": {
						"POSITION": 25,
						"NORMAL": 26,
						"TANGENT": 27
					},
					"indices": 28,
					"material": 3,
					"mode": 4
				}
			]
		},
		{
			"name": "mesh_Plane_580",
			"primitives": [
				{
					"attributes": {
						"POSITION": 29,
						"NORMAL": 30,
						"TEXCOORD_0": 31,
						"TANGENT": 32
					},
					"indices": 33,
					"material": 4,
					"mode": 4
				}
			]
		},
		{
			"name": "mesh_Plane_580Plane",
			"primitives": [
				{
					"attributes": {
						"POSITION": 34,
						"NORMAL": 35,
						"TEXCOORD_0": 36,
						"TANGENT": 37
					},
					"indices": 38,
					"material": 5,
					"mode": 4
				}
			]
		},
		{
			"name": "mesh_Plane_580Plane (1)",
			"primitives": [
				{
					"attributes": {
						"POSITION": 43,
						"NORMAL": 44,
						"TEXCOORD_0": 45,
						"TANGENT": 46
					},
					"indices": 47,
					"material": 5,
					"mode": 4
				}
			]
		}
	],
	"nodes": [
		{
			"name": "UnityGlTF_root",
			"children": [
				1
			]
		},
		{
			"name": "node_V_-1640",
			"children": [
				2,
				3,
				4,
				5,
				6,
				7,
				8,
				9,
				10,
				11,
				12
			],
			"matrix": [100, 0, 0, 0, 0, 100, 0, 0, 0, 0, 100, 0, 47039.22, 5111.091, -10958.1, 1]
		},
		{
			"name": "node_V_-1644",
			"mesh": 0,
			"translation": [ -0.211298, 0.01404876, -0.2931218],
			"scale": [ 1, 1, 0.9631393],
			"rotation": [-0.7071068, 0, 0, -0.7071068]
		},
		{
			"name": "node_Sea Example_-1646",
			"mesh": 1,
			"translation": [ -0.3174219, 0.752, -0.2908496],
			"scale": [ 0.2219415, 0.09999999, 0.1],
			"rotation": [0, -0.7071068, 0, -0.7071068]
		},
		{
			"name": "node_Box007_-1648",
			"mesh": 2,
			"translation": [ -0.211298, 0.01404876, -0.2931218],
			"rotation": [-0.7071068, 0, 0, -0.7071068]
		},
		{
			"name": "node_002_-1650",
			"mesh": 3,
			"translation": [ -0.2219256, 0.631414, 0.832]
		},
		{
			"name": "node_003_-1652",
			"mesh": 4,
			"translation": [ -0.2219256, 0.631414, 0.839]
		},
		{
			"name": "node__-1654",
			"mesh": 5,
			"translation": [ -0.226, 0.89, -0.289],
			"scale": [ 0.05, 0.05, 0.175],
			"rotation": [0, 1, 0, 0]
		},
		{
			"name": "node_Plane_-1656",
			"mesh": 6,
			"translation": [ -0.2087109, 0.8520947, -1.497424],
			"scale": [ 0.02250702, 0.02250701, 0.05234811],
			"rotation": [0, 0.7071068, -0.7071068, 0]
		},
		{
			"name": "node_New Text_-1658",
			"translation": [ -1.54, 1.22, -0.16],
			"rotation": [0, 1, 0, 0]
		},
		{
			"name": "node_Plane (1)_-1660",
			"mesh": 7,
			"translation": [ -0.2087109, 0.8520947, 0.9225],
			"scale": [ 0.022507, 0.02250701, 0.05234811],
			"rotation": [-0.7071068, 0, 0, -0.7071068]
		},
		{
			"name": "node_New Text (1)_-1662",
			"translation": [ 0.158, 0.858, -1.495],
			"rotation": [0, 1, 0, 0]
		},
		{
			"name": "node_New Text (2)_-1664",
			"translation": [ -0.543, 0.8580005, 0.923]
		}
	],
	"samplers": [
		{
			"magFilter": 9729,
			"minFilter": 9985,
			"wrapS": 10497,
			"wrapT": 10497
		}
	],
	"scenes": [
		{
			"name":"defaultScene",
			"nodes": [
				0
			]
		}
	],
	"scene": 0,
	"textures": [
		{
			"sampler": 0,
			"source": 0
		},
		{
			"sampler": 0,
			"source": 1
		},
		{
			"sampler": 0,
			"source": 2
		},
		{
			"sampler": 0,
			"source": 3
		}
	]
}