{
	"asset": {
		"generator": "Unity 2018.3.11f1",
		"extras": {
			"exporterVersion" : "2.2.1"
		},
		"version": "2.0"
	},
	"accessors": [
		{
			"bufferView": 3,
			"byteOffset": 0,
			"componentType": 5126,
			"count": 175,
			"max": [ 0.9405, 0.3266542, -0.6945404 ],
			"min": [ -0.9405, -0.3260768, -0.8178807 ],
			"type": "VEC3"
		},
		{
			"bufferView": 3,
			"byteOffset": 2100,
			"componentType": 5126,
			"count": 175,
			"max": [ 1, 0.76605, 1 ],
			"min": [ -1, -0.7660467, -1 ],
			"type": "VEC3"
		},
		{
			"bufferView": 2,
			"byteOffset": 0,
			"componentType": 5126,
			"count": 175,
			"max": [ 1, 1 ],
			"min": [ 0, 0.1586352 ],
			"type": "VEC2"
		},
		{
			"bufferView": 4,
			"byteOffset": 0,
			"componentType": 5126,
			"count": 175,
			"max": [ 0, 1, 0.7660466, 1 ],
			"min": [ -1, -1, -0.76605, -1 ],
			"type": "VEC4"
		},
		{
			"bufferView": 0,
			"byteOffset": 0,
			"componentType": 5123,
			"count": 450,
			"max": [ 171 ],
			"min": [ 0 ],
			"type": "SCALAR"
		},
		{
			"bufferView": 0,
			"byteOffset": 900,
			"componentType": 5123,
			"count": 204,
			"max": [ 174 ],
			"min": [ 18 ],
			"type": "SCALAR"
		},
		{
			"bufferView": 3,
			"byteOffset": 4200,
			"componentType": 5126,
			"count": 116,
			"max": [ 0.9911981, 0.9404046, 0.3093548 ],
			"min": [ -0.9911981, -0.9404046, -0.8377471 ],
			"type": "VEC3"
		},
		{
			"bufferView": 3,
			"byteOffset": 5592,
			"componentType": 5126,
			"count": 116,
			"max": [ 1, 1, 1 ],
			"min": [ -1, -1, -1 ],
			"type": "VEC3"
		},
		{
			"bufferView": 2,
			"byteOffset": 1400,
			"componentType": 5126,
			"count": 116,
			"max": [ 1, 1 ],
			"min": [ 0, 0 ],
			"type": "VEC2"
		},
		{
			"bufferView": 4,
			"byteOffset": 2800,
			"componentType": 5126,
			"count": 116,
			"max": [ 1, 1, 0.9997202, 1 ],
			"min": [ -1, -1, -0.9997203, -1 ],
			"type": "VEC4"
		},
		{
			"bufferView": 0,
			"byteOffset": 1308,
			"componentType": 5123,
			"count": 360,
			"max": [ 115 ],
			"min": [ 0 ],
			"type": "SCALAR"
		},
		{
			"bufferView": 3,
			"byteOffset": 6984,
			"componentType": 5126,
			"count": 102,
			"max": [ -2.456814, 0.416622, -0.1928858 ],
			"min": [ -4.337814, -0.4178314, -0.6546658 ],
			"type": "VEC3"
		},
		{
			"bufferView": 3,
			"byteOffset": 8208,
			"componentType": 5126,
			"count": 102,
			"max": [ 1, 0.9411485, 0.9795241 ],
			"min": [ -1, -0.951503, -1 ],
			"type": "VEC3"
		},
		{
			"bufferView": 2,
			"byteOffset": 2328,
			"componentType": 5126,
			"count": 102,
			"max": [ 1, 1 ],
			"min": [ 0, 0.02975661 ],
			"type": "VEC2"
		},
		{
			"bufferView": 4,
			"byteOffset": 4656,
			"componentType": 5126,
			"count": 102,
			"max": [ 0, 1, 0.9411485, 1 ],
			"min": [ -1, -1, -0.951503, 1 ],
			"type": "VEC4"
		},
		{
			"bufferView": 0,
			"byteOffset": 2028,
			"componentType": 5123,
			"count": 252,
			"max": [ 101 ],
			"min": [ 0 ],
			"type": "SCALAR"
		},
		{
			"bufferView": 1,
			"byteOffset": 0,
			"componentType": 5126,
			"count": 30,
			"max": [ 0.9666667 ],
			"min": [ 0 ],
			"type": "SCALAR"
		},
		{
			"bufferView": 5,
			"byteOffset": 0,
			"componentType": 5126,
			"count": 30,
			"max": [ 0.02163841, 1.628237, 0 ],
			"min": [ 0.02163841, 1.190432, 0 ],
			"type": "VEC3"
		},
		{
			"bufferView": 6,
			"byteOffset": 0,
			"componentType": 5126,
			"count": 30,
			"max": [ -0.7071068, 0, 0, -0.7071068 ],
			"min": [ -0.7071068, 0, 0, -0.7071068 ],
			"type": "VEC4"
		},
		{
			"bufferView": 5,
			"byteOffset": 360,
			"componentType": 5126,
			"count": 30,
			"max": [ 1, 1, 1 ],
			"min": [ 1, 1, 1 ],
			"type": "VEC3"
		}
	],
	"animations": [
		{
			"name": "Box003",
			"channels": [
				{
					"sampler": 0,
					"target": {
						"node": 4,
						"path": "translation"
					}
				},
				{
					"sampler": 1,
					"target": {
						"node": 4,
						"path": "rotation"
					}
				},
				{
					"sampler": 2,
					"target": {
						"node": 4,
						"path": "scale"
					}
				}
			],
			"samplers": [
				{
					"input": 16,
					"interpolation": "LINEAR",
					"output": 17
				},
				{
					"input": 16,
					"interpolation": "LINEAR",
					"output": 18
				},
				{
					"input": 16,
					"interpolation": "LINEAR",
					"output": 19
				}
			]
		}
	],
	"buffers": [
		{
			"byteLength": 22716,
			"uri": "冰川谷.bin"
		}
	],
	"bufferViews": [
		{
			"buffer": 0,
			"byteLength": 2532,
			"target": 34963,
			"byteOffset": 18984
		},
		{
			"buffer": 0,
			"byteLength": 120,
			"byteOffset": 0
		},
		{
			"buffer": 0,
			"byteLength": 3144,
			"target": 34962,
			"byteStride": 8,
			"byteOffset": 120
		},
		{
			"buffer": 0,
			"byteLength": 9432,
			"target": 34962,
			"byteStride": 12,
			"byteOffset": 3264
		},
		{
			"buffer": 0,
			"byteLength": 6288,
			"target": 34962,
			"byteStride": 16,
			"byteOffset": 12696
		},
		{
			"buffer": 0,
			"byteLength": 720,
			"byteStride": 12,
			"byteOffset": 21516
		},
		{
			"buffer": 0,
			"byteLength": 480,
			"byteStride": 16,
			"byteOffset": 22236
		}
	],
	"images": [
		{
			"uri": "/Assets/U形谷.fbm/tur4.jpg"
		},
		{
			"uri": "/Assets/U形谷.fbm/水流2.jpg"
		},
		{
			"uri": "/Assets/U形谷.fbm/冰川.jpg"
		}
	],
	"materials": [
		{
			"pbrMetallicRoughness": {
				"baseColorTexture" : {
					"index" : 0,
					"texCoord" : 0
				},
				"baseColorFactor": [0.5882353, 0.5882353, 0.5882353, 1],
				"metallicFactor": 0,
				"roughnessFactor": 1
			},
			"emissiveFactor": [0, 0, 0],
			"doubleSided": false,
			"name": "tur4"
		},
		{
			"pbrMetallicRoughness": {
				"baseColorTexture" : {
					"index" : 1,
					"texCoord" : 0
				},
				"baseColorFactor": [0.5882353, 0.5882353, 0.5882353, 1],
				"metallicFactor": 0,
				"roughnessFactor": 1
			},
			"emissiveFactor": [0, 0, 0],
			"doubleSided": false,
			"name": "2"
		},
		{
			"pbrMetallicRoughness": {
				"baseColorTexture" : {
					"index" : 2,
					"texCoord" : 0
				},
				"baseColorFactor": [0.5882353, 0.5882353, 0.5882353, 1],
				"metallicFactor": 0,
				"roughnessFactor": 1
			},
			"emissiveFactor": [0, 0, 0],
			"doubleSided": false,
			"name": ""
		}
	],
	"meshes": [
		{
			"name": "mesh_Box005_15790Box005",
			"primitives": [
				{
					"attributes": {
						"POSITION": 0,
						"NORMAL": 1,
						"TEXCOORD_0": 2,
						"TANGENT": 3
					},
					"indices": 4,
					"material": 0,
					"mode": 4
				},
				{
					"attributes": {
						"POSITION": 0,
						"NORMAL": 1,
						"TEXCOORD_0": 2,
						"TANGENT": 3
					},
					"indices": 5,
					"material": 1,
					"mode": 4
				}
			]
		},
		{
			"name": "mesh_Box004_15794Box004",
			"primitives": [
				{
					"attributes": {
						"POSITION": 6,
						"NORMAL": 7,
						"TEXCOORD_0": 8,
						"TANGENT": 9
					},
					"indices": 10,
					"material": 0,
					"mode": 4
				}
			]
		},
		{
			"name": "mesh_Box003_15792Box003",
			"primitives": [
				{
					"attributes": {
						"POSITION": 11,
						"NORMAL": 12,
						"TEXCOORD_0": 13,
						"TANGENT": 14
					},
					"indices": 15,
					"material": 2,
					"mode": 4
				}
			]
		}
	],
	"nodes": [
		{
			"name": "UnityGlTF_root",
			"children": [
				2
			]
		},
		{
			"name": "node_Box005_-62150",
			"mesh": 0,
			"translation": [ -3.372091, 1.050307, -0.01826682],
			"rotation": [-0.7071068, 0, 0, -0.7071068]
		},
		{
			"name": "node_U_-62144",
			"children": [
				4,
				3,
				1
			],
			"matrix": [1, 0, 0, 0, 0, 1, 0, 0, 0, 0, 1, 0, 13.98176, -4.554164, 7.682966, 1]
		},
		{
			"name": "node_Box004_-62148",
			"mesh": 1,
			"translation": [ -3.416509, 1.545908, 0],
			"rotation": [-0.7071068, 0, 0, -0.7071068]
		},
		{
			"name": "node_Box003_-62146",
			"mesh": 2,
			"translation": [ 0.02163841, 1.628237, 0],
			"rotation": [-0.7071068, 0, 0, -0.7071068]
		}
	],
	"samplers": [
		{
			"magFilter": 9729,
			"minFilter": 9985,
			"wrapS": 10497,
			"wrapT": 10497
		}
	],
	"scenes": [
		{
			"name":"defaultScene",
			"nodes": [
				0
			]
		}
	],
	"scene": 0,
	"textures": [
		{
			"sampler": 0,
			"source": 0
		},
		{
			"sampler": 0,
			"source": 1
		},
		{
			"sampler": 0,
			"source": 2
		}
	]
}