{
	"asset": {
		"generator": "Unity 2018.3.11f1",
		"extras": {
			"exporterVersion" : "2.2.1"
		},
		"version": "2.0"
	},
	"accessors": [
		{
			"bufferView": 3,
			"byteOffset": 0,
			"componentType": 5126,
			"count": 5766,
			"max": [ 0.7152351, 1.022199, 0.2870166 ],
			"min": [ -0.7447804, 0.3862294, 0.09268892 ],
			"type": "VEC3"
		},
		{
			"bufferView": 3,
			"byteOffset": 69192,
			"componentType": 5126,
			"count": 5766,
			"max": [ 1, 1, 1 ],
			"min": [ -1, -1, -1 ],
			"type": "VEC3"
		},
		{
			"bufferView": 2,
			"byteOffset": 0,
			"componentType": 5126,
			"count": 5766,
			"max": [ 1, 1 ],
			"min": [ -3.650784E-07, 0 ],
			"type": "VEC2"
		},
		{
			"bufferView": 4,
			"byteOffset": 0,
			"componentType": 5126,
			"count": 5766,
			"max": [ 1, 1, 0, -1 ],
			"min": [ -1, -1, 0, -1 ],
			"type": "VEC4"
		},
		{
			"bufferView": 0,
			"byteOffset": 0,
			"componentType": 5123,
			"count": 32400,
			"max": [ 5765 ],
			"min": [ 0 ],
			"type": "SCALAR"
		},
		{
			"bufferView": 3,
			"byteOffset": 138384,
			"componentType": 5126,
			"count": 5782,
			"max": [ 0.762, 1.057869, 0.2330779 ],
			"min": [ -0.762, -1.016, -0.5043386 ],
			"type": "VEC3"
		},
		{
			"bufferView": 3,
			"byteOffset": 207768,
			"componentType": 5126,
			"count": 5782,
			"max": [ 1, 1, 1 ],
			"min": [ -1, -1, -1 ],
			"type": "VEC3"
		},
		{
			"bufferView": 2,
			"byteOffset": 46128,
			"componentType": 5126,
			"count": 5782,
			"max": [ 1, 1 ],
			"min": [ -3.650784E-07, 0 ],
			"type": "VEC2"
		},
		{
			"bufferView": 4,
			"byteOffset": 92256,
			"componentType": 5126,
			"count": 5782,
			"max": [ 1, 1, 0.8013387, 1 ],
			"min": [ -1, -1, -0.8210125, -1 ],
			"type": "VEC4"
		},
		{
			"bufferView": 0,
			"byteOffset": 64800,
			"componentType": 5123,
			"count": 32394,
			"max": [ 5781 ],
			"min": [ 0 ],
			"type": "SCALAR"
		},
		{
			"bufferView": 3,
			"byteOffset": 277152,
			"componentType": 5126,
			"count": 4225,
			"max": [ 0.4062255, 0.3931122, 0.1129225 ],
			"min": [ -0.4107201, -0.3678371, 0.02160591 ],
			"type": "VEC3"
		},
		{
			"bufferView": 3,
			"byteOffset": 327852,
			"componentType": 5126,
			"count": 4225,
			"max": [ 0.9776238, 0.9208138, 0.5250832 ],
			"min": [ -0.9765295, -0.8736745, -1 ],
			"type": "VEC3"
		},
		{
			"bufferView": 2,
			"byteOffset": 92384,
			"componentType": 5126,
			"count": 4225,
			"max": [ 1, 1 ],
			"min": [ 0, 0 ],
			"type": "VEC2"
		},
		{
			"bufferView": 4,
			"byteOffset": 184768,
			"componentType": 5126,
			"count": 4225,
			"max": [ 0.3867979, 0.9981217, 0.9898977, 1 ],
			"min": [ -1, -0.8204281, -0.9770281, 1 ],
			"type": "VEC4"
		},
		{
			"bufferView": 0,
			"byteOffset": 129588,
			"componentType": 5123,
			"count": 24576,
			"max": [ 4224 ],
			"min": [ 0 ],
			"type": "SCALAR"
		},
		{
			"bufferView": 1,
			"byteOffset": 0,
			"componentType": 5126,
			"count": 30,
			"max": [ 0.9666667 ],
			"min": [ 0 ],
			"type": "SCALAR"
		},
		{
			"bufferView": 5,
			"byteOffset": 0,
			"componentType": 5126,
			"count": 30,
			"max": [ 0.2058891, 0.1335466, -0.6095319 ],
			"min": [ 0.2058891, 0.091, -0.6095319 ],
			"type": "VEC3"
		},
		{
			"bufferView": 6,
			"byteOffset": 0,
			"componentType": 5126,
			"count": 30,
			"max": [ -0.7071068, 0, 0, -0.7071068 ],
			"min": [ -0.7071068, 0, 0, -0.7071068 ],
			"type": "VEC4"
		},
		{
			"bufferView": 5,
			"byteOffset": 360,
			"componentType": 5126,
			"count": 30,
			"max": [ 1, 1, 1 ],
			"min": [ 1, 1, 1 ],
			"type": "VEC3"
		},
		{
			"bufferView": 3,
			"byteOffset": 378552,
			"componentType": 5126,
			"count": 5766,
			"max": [ 0.762, 1.016, 0 ],
			"min": [ -0.762, -1.016, -0.127 ],
			"type": "VEC3"
		},
		{
			"bufferView": 3,
			"byteOffset": 447744,
			"componentType": 5126,
			"count": 5766,
			"max": [ 1, 1, 1 ],
			"min": [ -1, -1, -1 ],
			"type": "VEC3"
		},
		{
			"bufferView": 2,
			"byteOffset": 126184,
			"componentType": 5126,
			"count": 5766,
			"max": [ 1, 1 ],
			"min": [ -3.650784E-07, 0 ],
			"type": "VEC2"
		},
		{
			"bufferView": 4,
			"byteOffset": 252368,
			"componentType": 5126,
			"count": 5766,
			"max": [ 1, 1, 0, 1 ],
			"min": [ -1, -1, 0, 1 ],
			"type": "VEC4"
		},
		{
			"bufferView": 0,
			"byteOffset": 178740,
			"componentType": 5123,
			"count": 32400,
			"max": [ 5765 ],
			"min": [ 0 ],
			"type": "SCALAR"
		},
		{
			"bufferView": 3,
			"byteOffset": 516936,
			"componentType": 5126,
			"count": 24,
			"max": [ -0.39481, 0.7027644, -0.01849538 ],
			"min": [ -1.13753, -0.6818443, -0.05996648 ],
			"type": "VEC3"
		},
		{
			"bufferView": 3,
			"byteOffset": 517224,
			"componentType": 5126,
			"count": 24,
			"max": [ 1, 1, 1 ],
			"min": [ -1, -1, -1 ],
			"type": "VEC3"
		},
		{
			"bufferView": 2,
			"byteOffset": 172312,
			"componentType": 5126,
			"count": 24,
			"max": [ 1, 1 ],
			"min": [ 0, 0 ],
			"type": "VEC2"
		},
		{
			"bufferView": 4,
			"byteOffset": 344624,
			"componentType": 5126,
			"count": 24,
			"max": [ 1, 1, 0, 1 ],
			"min": [ -1, -1, 0, 1 ],
			"type": "VEC4"
		},
		{
			"bufferView": 0,
			"byteOffset": 243540,
			"componentType": 5123,
			"count": 36,
			"max": [ 23 ],
			"min": [ 0 ],
			"type": "SCALAR"
		}
	],
	"animations": [
		{
			"name": "Plane005",
			"channels": [
				{
					"sampler": 0,
					"target": {
						"node": 4,
						"path": "translation"
					}
				},
				{
					"sampler": 1,
					"target": {
						"node": 4,
						"path": "rotation"
					}
				},
				{
					"sampler": 2,
					"target": {
						"node": 4,
						"path": "scale"
					}
				}
			],
			"samplers": [
				{
					"input": 15,
					"interpolation": "LINEAR",
					"output": 16
				},
				{
					"input": 15,
					"interpolation": "LINEAR",
					"output": 17
				},
				{
					"input": 15,
					"interpolation": "LINEAR",
					"output": 18
				}
			]
		}
	],
	"buffers": [
		{
			"byteLength": 1279956,
			"uri": "扇形三角洲.bin"
		}
	],
	"bufferViews": [
		{
			"buffer": 0,
			"byteLength": 243612,
			"target": 34963,
			"byteOffset": 1035144
		},
		{
			"buffer": 0,
			"byteLength": 120,
			"byteOffset": 0
		},
		{
			"buffer": 0,
			"byteLength": 172504,
			"target": 34962,
			"byteStride": 8,
			"byteOffset": 120
		},
		{
			"buffer": 0,
			"byteLength": 517512,
			"target": 34962,
			"byteStride": 12,
			"byteOffset": 172624
		},
		{
			"buffer": 0,
			"byteLength": 345008,
			"target": 34962,
			"byteStride": 16,
			"byteOffset": 690136
		},
		{
			"buffer": 0,
			"byteLength": 720,
			"byteStride": 12,
			"byteOffset": 1278756
		},
		{
			"buffer": 0,
			"byteLength": 480,
			"byteStride": 16,
			"byteOffset": 1279476
		}
	],
	"images": [
		{
			"uri": "/Assets/等待重做的的扇形三角洲3.fbm/xzg-4海.jpg"
		},
		{
			"uri": "/Assets/等待重做的的扇形三角洲3.fbm/xzg-2.jpg"
		},
		{
			"uri": "/Assets/等待重做的的扇形三角洲3.fbm/xzg-3.jpg"
		}
	],
	"materials": [
		{
			"pbrMetallicRoughness": {
				"baseColorTexture" : {
					"index" : 0,
					"texCoord" : 0
				},
				"baseColorFactor": [0.5882353, 0.5882353, 0.5882353, 1],
				"metallicFactor": 0,
				"roughnessFactor": 1
			},
			"emissiveFactor": [0, 0, 0],
			"doubleSided": false,
			"name": "xzg-4"
		},
		{
			"pbrMetallicRoughness": {
				"baseColorTexture" : {
					"index" : 1,
					"texCoord" : 0
				},
				"baseColorFactor": [0.5882353, 0.5882353, 0.5882353, 1],
				"metallicFactor": 0,
				"roughnessFactor": 1
			},
			"emissiveFactor": [0, 0, 0],
			"doubleSided": false,
			"name": "xzg-2"
		},
		{
			"pbrMetallicRoughness": {
				"baseColorTexture" : {
					"index" : 2,
					"texCoord" : 0
				},
				"baseColorFactor": [0.5882353, 0.5882353, 0.5882353, 1],
				"metallicFactor": 0,
				"roughnessFactor": 1
			},
			"emissiveFactor": [0, 0, 0],
			"doubleSided": false,
			"name": "xzg-3"
		}
	],
	"meshes": [
		{
			"name": "mesh_Box005_12442Box005",
			"primitives": [
				{
					"attributes": {
						"POSITION": 0,
						"NORMAL": 1,
						"TEXCOORD_0": 2,
						"TANGENT": 3
					},
					"indices": 4,
					"material": 0,
					"mode": 4
				}
			]
		},
		{
			"name": "mesh_Box002_12438Box002",
			"primitives": [
				{
					"attributes": {
						"POSITION": 5,
						"NORMAL": 6,
						"TEXCOORD_0": 7,
						"TANGENT": 8
					},
					"indices": 9,
					"material": 1,
					"mode": 4
				}
			]
		},
		{
			"name": "mesh_Plane005_12446Plane005",
			"primitives": [
				{
					"attributes": {
						"POSITION": 10,
						"NORMAL": 11,
						"TEXCOORD_0": 12,
						"TANGENT": 13
					},
					"indices": 14,
					"material": 2,
					"mode": 4
				}
			]
		},
		{
			"name": "mesh_Box003_12440Box003",
			"primitives": [
				{
					"attributes": {
						"POSITION": 19,
						"NORMAL": 20,
						"TEXCOORD_0": 21,
						"TANGENT": 22
					},
					"indices": 23,
					"material": 1,
					"mode": 4
				}
			]
		},
		{
			"name": "mesh_Box006_12444Box006",
			"primitives": [
				{
					"attributes": {
						"POSITION": 24,
						"NORMAL": 25,
						"TEXCOORD_0": 26,
						"TANGENT": 27
					},
					"indices": 28,
					"material": 2,
					"mode": 4
				}
			]
		}
	],
	"nodes": [
		{
			"name": "UnityGlTF_root",
			"children": [
				2
			]
		},
		{
			"name": "node_Box005_-5716",
			"mesh": 0,
			"translation": [ -0.1037905, 0.1185694, -1.420816],
			"rotation": [-0.7071068, 0, 0, -0.7071068]
		},
		{
			"name": "node_3_-5724",
			"children": [
				3,
				6,
				1,
				7,
				5,
				4
			],
			"matrix": [1, 0, 0, 0, 0, 1, 0, 0, 0, 0, 1, 0, 1.543295, -1.679966, 0.1184225, 1]
		},
		{
			"name": "node_Box002_-5712",
			"mesh": 1,
			"translation": [ -0.1400178, -0.1949798, -0.03202595],
			"rotation": [-0.7071068, 0, 0, -0.7071068]
		},
		{
			"name": "node_Plane005_-5722",
			"mesh": 2,
			"translation": [ 0.2058891, 0.1336857, -0.6095319],
			"rotation": [-0.7071068, 0, 0, -0.7071068]
		},
		{
			"name": "node_Line001_-5720",
			"translation": [ 0.1998494, 0, -0.3620143],
			"rotation": [-0.7071068, 0, 0, -0.7071068]
		},
		{
			"name": "node_Box003_-5714",
			"mesh": 3,
			"translation": [ -0.1329904, -0.2909342, -0.03185164],
			"rotation": [-0.7071068, 0, 0, -0.7071068]
		},
		{
			"name": "node_Box006_-5718",
			"mesh": 4,
			"translation": [ 0.9825861, -0.01393946, 0.2802659],
			"rotation": [-0.7071068, 0, 0, -0.7071068]
		}
	],
	"samplers": [
		{
			"magFilter": 9729,
			"minFilter": 9985,
			"wrapS": 10497,
			"wrapT": 10497
		}
	],
	"scenes": [
		{
			"name":"defaultScene",
			"nodes": [
				0
			]
		}
	],
	"scene": 0,
	"textures": [
		{
			"sampler": 0,
			"source": 0
		},
		{
			"sampler": 0,
			"source": 1
		},
		{
			"sampler": 0,
			"source": 2
		}
	]
}