{
	"asset": {
		"generator": "Unity 2018.3.11f1",
		"extras": {
			"exporterVersion" : "2.2.1"
		},
		"version": "2.0"
	},
	"accessors": [
		{
			"bufferView": 1,
			"byteOffset": 0,
			"componentType": 5126,
			"count": 30,
			"max": [ 0.9666667 ],
			"min": [ 0 ],
			"type": "SCALAR"
		},
		{
			"bufferView": 5,
			"byteOffset": 0,
			"componentType": 5126,
			"count": 30,
			"max": [ 0.4262543, -1.008282, 0.4796768 ],
			"min": [ 0.4262543, -1.008282, 0.4796768 ],
			"type": "VEC3"
		},
		{
			"bufferView": 6,
			"byteOffset": 0,
			"componentType": 5126,
			"count": 30,
			"max": [ -0.7071068, 0, 0, -0.7071068 ],
			"min": [ -0.7071068, 0, 0, -0.7071068 ],
			"type": "VEC4"
		},
		{
			"bufferView": 5,
			"byteOffset": 360,
			"componentType": 5126,
			"count": 30,
			"max": [ 0.4, 0.4, 0.4 ],
			"min": [ 0, 0, 0 ],
			"type": "VEC3"
		},
		{
			"bufferView": 1,
			"byteOffset": 120,
			"componentType": 5126,
			"count": 30,
			"max": [ 0.9666667 ],
			"min": [ 0 ],
			"type": "SCALAR"
		},
		{
			"bufferView": 5,
			"byteOffset": 720,
			"componentType": 5126,
			"count": 30,
			"max": [ 0.4262543, -1.008282, 0.4796768 ],
			"min": [ 0.4262543, -1.008282, 0.4796768 ],
			"type": "VEC3"
		},
		{
			"bufferView": 6,
			"byteOffset": 480,
			"componentType": 5126,
			"count": 30,
			"max": [ -0.7071068, 0, 0, -0.7071068 ],
			"min": [ -0.7071068, 0, 0, -0.7071068 ],
			"type": "VEC4"
		},
		{
			"bufferView": 5,
			"byteOffset": 1080,
			"componentType": 5126,
			"count": 30,
			"max": [ 0.4, 0.4, 0.4 ],
			"min": [ 0, 0, 0 ],
			"type": "VEC3"
		},
		{
			"bufferView": 1,
			"byteOffset": 240,
			"componentType": 5126,
			"count": 30,
			"max": [ 0.9666667 ],
			"min": [ 0 ],
			"type": "SCALAR"
		},
		{
			"bufferView": 5,
			"byteOffset": 1440,
			"componentType": 5126,
			"count": 30,
			"max": [ 0.4262543, -1.008282, 0.4796768 ],
			"min": [ 0.4262543, -1.008282, 0.4796768 ],
			"type": "VEC3"
		},
		{
			"bufferView": 6,
			"byteOffset": 960,
			"componentType": 5126,
			"count": 30,
			"max": [ -0.7071068, 0, 0, -0.7071068 ],
			"min": [ -0.7071068, 0, 0, -0.7071068 ],
			"type": "VEC4"
		},
		{
			"bufferView": 5,
			"byteOffset": 1800,
			"componentType": 5126,
			"count": 30,
			"max": [ 0.4, 0.4, 0.4 ],
			"min": [ 0, 0, 0 ],
			"type": "VEC3"
		},
		{
			"bufferView": 3,
			"byteOffset": 0,
			"componentType": 5126,
			"count": 1335,
			"max": [ 1.833055, 0.03394387, 0.8358346 ],
			"min": [ -1.509545, -2.470702, -1.772264 ],
			"type": "VEC3"
		},
		{
			"bufferView": 3,
			"byteOffset": 16020,
			"componentType": 5126,
			"count": 1335,
			"max": [ 1, 1, 0.9999912 ],
			"min": [ -1, -1, -1 ],
			"type": "VEC3"
		},
		{
			"bufferView": 2,
			"byteOffset": 0,
			"componentType": 5126,
			"count": 1335,
			"max": [ 1, 1 ],
			"min": [ 0, 0 ],
			"type": "VEC2"
		},
		{
			"bufferView": 4,
			"byteOffset": 0,
			"componentType": 5126,
			"count": 1335,
			"max": [ 1, 1, 0.9994136, 1 ],
			"min": [ -1, -0.9997776, -0.9994136, -1 ],
			"type": "VEC4"
		},
		{
			"bufferView": 0,
			"byteOffset": 0,
			"componentType": 5123,
			"count": 4944,
			"max": [ 1334 ],
			"min": [ 0 ],
			"type": "SCALAR"
		},
		{
			"bufferView": 3,
			"byteOffset": 32040,
			"componentType": 5126,
			"count": 1328,
			"max": [ 1.833055, 0.03394386, 0.8358346 ],
			"min": [ -1.509545, -2.470702, -1.772264 ],
			"type": "VEC3"
		},
		{
			"bufferView": 3,
			"byteOffset": 47976,
			"componentType": 5126,
			"count": 1328,
			"max": [ 1, 1, 0.9999912 ],
			"min": [ -1, -1, -1 ],
			"type": "VEC3"
		},
		{
			"bufferView": 2,
			"byteOffset": 10680,
			"componentType": 5126,
			"count": 1328,
			"max": [ 1, 1 ],
			"min": [ 0, 0 ],
			"type": "VEC2"
		},
		{
			"bufferView": 4,
			"byteOffset": 21360,
			"componentType": 5126,
			"count": 1328,
			"max": [ 1, 1, 0.9994136, 1 ],
			"min": [ -1, -0.9997776, -0.9994136, -1 ],
			"type": "VEC4"
		},
		{
			"bufferView": 0,
			"byteOffset": 9888,
			"componentType": 5123,
			"count": 4944,
			"max": [ 1327 ],
			"min": [ 0 ],
			"type": "SCALAR"
		},
		{
			"bufferView": 3,
			"byteOffset": 63912,
			"componentType": 5126,
			"count": 1321,
			"max": [ 1.833055, 0.03394385, 0.8358346 ],
			"min": [ -1.509545, -2.470702, -1.772264 ],
			"type": "VEC3"
		},
		{
			"bufferView": 3,
			"byteOffset": 79764,
			"componentType": 5126,
			"count": 1321,
			"max": [ 1, 1, 0.9999912 ],
			"min": [ -1, -1, -1 ],
			"type": "VEC3"
		},
		{
			"bufferView": 2,
			"byteOffset": 21304,
			"componentType": 5126,
			"count": 1321,
			"max": [ 1, 1 ],
			"min": [ 0, 0 ],
			"type": "VEC2"
		},
		{
			"bufferView": 4,
			"byteOffset": 42608,
			"componentType": 5126,
			"count": 1321,
			"max": [ 1, 1, 0.9994136, 1 ],
			"min": [ -1, -1, -0.9994136, -1 ],
			"type": "VEC4"
		},
		{
			"bufferView": 0,
			"byteOffset": 19776,
			"componentType": 5123,
			"count": 4944,
			"max": [ 1320 ],
			"min": [ 0 ],
			"type": "SCALAR"
		}
	],
	"animations": [
		{
			"name": "",
			"channels": [
				{
					"sampler": 0,
					"target": {
						"node": 2,
						"path": "translation"
					}
				},
				{
					"sampler": 1,
					"target": {
						"node": 2,
						"path": "rotation"
					}
				},
				{
					"sampler": 2,
					"target": {
						"node": 2,
						"path": "scale"
					}
				},
				{
					"sampler": 3,
					"target": {
						"node": 3,
						"path": "translation"
					}
				},
				{
					"sampler": 4,
					"target": {
						"node": 3,
						"path": "rotation"
					}
				},
				{
					"sampler": 5,
					"target": {
						"node": 3,
						"path": "scale"
					}
				},
				{
					"sampler": 6,
					"target": {
						"node": 4,
						"path": "translation"
					}
				},
				{
					"sampler": 7,
					"target": {
						"node": 4,
						"path": "rotation"
					}
				},
				{
					"sampler": 8,
					"target": {
						"node": 4,
						"path": "scale"
					}
				}
			],
			"samplers": [
				{
					"input": 0,
					"interpolation": "LINEAR",
					"output": 1
				},
				{
					"input": 0,
					"interpolation": "LINEAR",
					"output": 2
				},
				{
					"input": 0,
					"interpolation": "LINEAR",
					"output": 3
				},
				{
					"input": 4,
					"interpolation": "LINEAR",
					"output": 5
				},
				{
					"input": 4,
					"interpolation": "LINEAR",
					"output": 6
				},
				{
					"input": 4,
					"interpolation": "LINEAR",
					"output": 7
				},
				{
					"input": 8,
					"interpolation": "LINEAR",
					"output": 9
				},
				{
					"input": 8,
					"interpolation": "LINEAR",
					"output": 10
				},
				{
					"input": 8,
					"interpolation": "LINEAR",
					"output": 11
				}
			]
		}
	],
	"buffers": [
		{
			"byteLength": 224856,
			"uri": "风蚀城堡.bin"
		}
	],
	"bufferViews": [
		{
			"buffer": 0,
			"byteLength": 29664,
			"target": 34963,
			"byteOffset": 191592
		},
		{
			"buffer": 0,
			"byteLength": 360,
			"byteOffset": 0
		},
		{
			"buffer": 0,
			"byteLength": 31872,
			"target": 34962,
			"byteStride": 8,
			"byteOffset": 360
		},
		{
			"buffer": 0,
			"byteLength": 95616,
			"target": 34962,
			"byteStride": 12,
			"byteOffset": 32232
		},
		{
			"buffer": 0,
			"byteLength": 63744,
			"target": 34962,
			"byteStride": 16,
			"byteOffset": 127848
		},
		{
			"buffer": 0,
			"byteLength": 2160,
			"byteStride": 12,
			"byteOffset": 221256
		},
		{
			"buffer": 0,
			"byteLength": 1440,
			"byteStride": 16,
			"byteOffset": 223416
		}
	],
	"images": [
		{
			"uri": "/Assets/风蚀柱/Texturs/timg (1).jpg"
		}
	],
	"materials": [
		{
			"pbrMetallicRoughness": {
				"baseColorTexture" : {
					"index" : 0,
					"texCoord" : 0
				},
				"baseColorFactor": [1, 1, 1, 1],
				"metallicFactor": 0,
				"roughnessFactor": 0.5
			},
			"emissiveFactor": [0, 0, 0],
			"doubleSided": false,
			"name": ""
		}
	],
	"meshes": [
		{
			"name": "mesh_Box012_109443",
			"primitives": [
				{
					"attributes": {
						"POSITION": 12,
						"NORMAL": 13,
						"TEXCOORD_0": 14,
						"TANGENT": 15
					},
					"indices": 16,
					"material": 0,
					"mode": 4
				}
			]
		},
		{
			"name": "mesh_Box012_108962",
			"primitives": [
				{
					"attributes": {
						"POSITION": 17,
						"NORMAL": 18,
						"TEXCOORD_0": 19,
						"TANGENT": 20
					},
					"indices": 21,
					"material": 0,
					"mode": 4
				}
			]
		},
		{
			"name": "mesh_Box012_105781",
			"primitives": [
				{
					"attributes": {
						"POSITION": 22,
						"NORMAL": 23,
						"TEXCOORD_0": 24,
						"TANGENT": 25
					},
					"indices": 26,
					"material": 0,
					"mode": 4
				}
			]
		}
	],
	"nodes": [
		{
			"name": "UnityGlTF_root",
			"children": [
				1
			]
		},
		{
			"name": "node__-5968",
			"children": [
				2,
				3,
				4
			],
			"matrix": [1, 0, 0, 0, 0, 1, 0, 0, 0, 0, 1, 0, -0.4262543, 1.008282, -0.4796768, 1]
		},
		{
			"name": "node_3_-5972",
			"mesh": 0,
			"translation": [ 0.4262543, -1.008282, 0.4796768],
			"scale": [ 0.3937008, 0.393701, 0.393701],
			"rotation": [-0.7071068, 0, 0, -0.7071068]
		},
		{
			"name": "node_2_-5974",
			"mesh": 1,
			"translation": [ 0.4262543, -1.008282, 0.4796768],
			"scale": [ 0.3937008, 0.393701, 0.393701],
			"rotation": [-0.7071068, 0, 0, -0.7071068]
		},
		{
			"name": "node_1_-5976",
			"mesh": 2,
			"translation": [ 0.4262543, -1.008282, 0.4796768],
			"scale": [ 0.3937008, 0.393701, 0.393701],
			"rotation": [-0.7071068, 0, 0, -0.7071068]
		}
	],
	"samplers": [
		{
			"magFilter": 9729,
			"minFilter": 9985,
			"wrapS": 10497,
			"wrapT": 10497
		}
	],
	"scenes": [
		{
			"name":"defaultScene",
			"nodes": [
				0
			]
		}
	],
	"scene": 0,
	"textures": [
		{
			"sampler": 0,
			"source": 0
		}
	]
}