{
	"asset": {
		"generator": "Unity 2018.3.11f1",
		"extras": {
			"exporterVersion" : "2.2.1"
		},
		"version": "2.0"
	},
	"accessors": [
		{
			"bufferView": 3,
			"byteOffset": 0,
			"componentType": 5126,
			"count": 22,
			"max": [ -0.32322, 0.02446506, 0.002466293 ],
			"min": [ -0.33088, 0.01719394, -0.002466291 ],
			"type": "VEC3"
		},
		{
			"bufferView": 3,
			"byteOffset": 264,
			"componentType": 5126,
			"count": 22,
			"max": [ 1, 9.427514E-05, 0 ],
			"min": [ -1, -1, -8.412687E-06 ],
			"type": "VEC3"
		},
		{
			"bufferView": 2,
			"byteOffset": 0,
			"componentType": 5126,
			"count": 22,
			"max": [ 0.6182747, 0.4051407 ],
			"min": [ -0.6182632, -0.3385346 ],
			"type": "VEC2"
		},
		{
			"bufferView": 4,
			"byteOffset": 0,
			"componentType": 5126,
			"count": 22,
			"max": [ 1, 0, 0, 1 ],
			"min": [ 1, 0, 0, 1 ],
			"type": "VEC4"
		},
		{
			"bufferView": 0,
			"byteOffset": 0,
			"componentType": 5123,
			"count": 36,
			"max": [ 21 ],
			"min": [ 0 ],
			"type": "SCALAR"
		},
		{
			"bufferView": 3,
			"byteOffset": 528,
			"componentType": 5126,
			"count": 60,
			"max": [ 0.005759563, 0.01680243, 0.01638116 ],
			"min": [ -0.005759563, -0.01680243, -0.01638116 ],
			"type": "VEC3"
		},
		{
			"bufferView": 3,
			"byteOffset": 1248,
			"componentType": 5126,
			"count": 60,
			"max": [ 1, 1, 0.9749279 ],
			"min": [ -1, -1, -0.9749281 ],
			"type": "VEC3"
		},
		{
			"bufferView": 2,
			"byteOffset": 176,
			"componentType": 5126,
			"count": 60,
			"max": [ 0.3575006, 0.2056934 ],
			"min": [ 0.01177341, 0.004982471 ],
			"type": "VEC2"
		},
		{
			"bufferView": 4,
			"byteOffset": 352,
			"componentType": 5126,
			"count": 60,
			"max": [ 0.013571, 0.9749278, 1, -1 ],
			"min": [ -0.006081099, -0.9749281, -1, -1 ],
			"type": "VEC4"
		},
		{
			"bufferView": 0,
			"byteOffset": 72,
			"componentType": 5123,
			"count": 168,
			"max": [ 59 ],
			"min": [ 0 ],
			"type": "SCALAR"
		},
		{
			"bufferView": 1,
			"byteOffset": 0,
			"componentType": 5126,
			"count": 30,
			"max": [ 0.9666667 ],
			"min": [ 0 ],
			"type": "SCALAR"
		},
		{
			"bufferView": 5,
			"byteOffset": 0,
			"componentType": 5126,
			"count": 30,
			"max": [ -4.13, -0.27, 5.91 ],
			"min": [ -7.734375, -0.27, -5.626035 ],
			"type": "VEC3"
		},
		{
			"bufferView": 6,
			"byteOffset": 0,
			"componentType": 5126,
			"count": 30,
			"max": [ 0, -0.1508364, 0, -0.9885588 ],
			"min": [ 0, -0.1508364, 0, -0.9885588 ],
			"type": "VEC4"
		},
		{
			"bufferView": 5,
			"byteOffset": 360,
			"componentType": 5126,
			"count": 30,
			"max": [ 20, 20, 20 ],
			"min": [ 20, 20, 20 ],
			"type": "VEC3"
		},
		{
			"bufferView": 3,
			"byteOffset": 1968,
			"componentType": 5126,
			"count": 136,
			"max": [ 0.01277389, 0.02948822, 0.2326293 ],
			"min": [ -0.01277379, 0.02756319, 0.2264306 ],
			"type": "VEC3"
		},
		{
			"bufferView": 3,
			"byteOffset": 3600,
			"componentType": 5126,
			"count": 136,
			"max": [ 1, 1, 1 ],
			"min": [ -1, -1, -1 ],
			"type": "VEC3"
		},
		{
			"bufferView": 2,
			"byteOffset": 656,
			"componentType": 5126,
			"count": 136,
			"max": [ 1, 1 ],
			"min": [ 0, 0 ],
			"type": "VEC2"
		},
		{
			"bufferView": 4,
			"byteOffset": 1312,
			"componentType": 5126,
			"count": 136,
			"max": [ 1, 1, 1, 1 ],
			"min": [ -1, -1, -1, -1 ],
			"type": "VEC4"
		},
		{
			"bufferView": 0,
			"byteOffset": 408,
			"componentType": 5123,
			"count": 336,
			"max": [ 135 ],
			"min": [ 0 ],
			"type": "SCALAR"
		},
		{
			"bufferView": 3,
			"byteOffset": 5232,
			"componentType": 5126,
			"count": 226,
			"max": [ -0.3223315, 0.0376261, 0.006466355 ],
			"min": [ -0.3317338, 0.01719376, -0.006466355 ],
			"type": "VEC3"
		},
		{
			"bufferView": 3,
			"byteOffset": 7944,
			"componentType": 5126,
			"count": 226,
			"max": [ 1, 1, 1 ],
			"min": [ -1, -1, 0 ],
			"type": "VEC3"
		},
		{
			"bufferView": 2,
			"byteOffset": 1744,
			"componentType": 5126,
			"count": 226,
			"max": [ 1, 0.995 ],
			"min": [ 0.1198105, 0 ],
			"type": "VEC2"
		},
		{
			"bufferView": 4,
			"byteOffset": 3488,
			"componentType": 5126,
			"count": 226,
			"max": [ 1, 0, 0.01964796, 1 ],
			"min": [ -0.535481, -1, -0.9340829, -1 ],
			"type": "VEC4"
		},
		{
			"bufferView": 0,
			"byteOffset": 1080,
			"componentType": 5123,
			"count": 408,
			"max": [ 225 ],
			"min": [ 0 ],
			"type": "SCALAR"
		},
		{
			"bufferView": 3,
			"byteOffset": 10656,
			"componentType": 5126,
			"count": 1263,
			"max": [ -0.3231196, 0.02468638, 0.002564778 ],
			"min": [ -0.3309796, 0.01709472, -0.002564779 ],
			"type": "VEC3"
		},
		{
			"bufferView": 3,
			"byteOffset": 25812,
			"componentType": 5126,
			"count": 1263,
			"max": [ 0.9921514, 0.997763, 0.9999957 ],
			"min": [ -0.9957135, -0.9977672, -0.9984956 ],
			"type": "VEC3"
		},
		{
			"bufferView": 4,
			"byteOffset": 7104,
			"componentType": 5126,
			"count": 1263,
			"max": [ 1, 0, 0, 1 ],
			"min": [ 1, 0, 0, 1 ],
			"type": "VEC4"
		},
		{
			"bufferView": 0,
			"byteOffset": 1896,
			"componentType": 5123,
			"count": 3648,
			"max": [ 1262 ],
			"min": [ 0 ],
			"type": "SCALAR"
		},
		{
			"bufferView": 3,
			"byteOffset": 40968,
			"componentType": 5126,
			"count": 798,
			"max": [ -0.3221831, 0.03742628, 0.006466364 ],
			"min": [ -0.3318477, 0.01328664, -0.006466366 ],
			"type": "VEC3"
		},
		{
			"bufferView": 3,
			"byteOffset": 50544,
			"componentType": 5126,
			"count": 798,
			"max": [ 1, 1, 1 ],
			"min": [ -1, -1, -1 ],
			"type": "VEC3"
		},
		{
			"bufferView": 2,
			"byteOffset": 3552,
			"componentType": 5126,
			"count": 798,
			"max": [ 1, 1 ],
			"min": [ 0, 0 ],
			"type": "VEC2"
		},
		{
			"bufferView": 4,
			"byteOffset": 27312,
			"componentType": 5126,
			"count": 798,
			"max": [ 1, 1, 0.6445761, 1 ],
			"min": [ -1, -1, -0.9225552, -1 ],
			"type": "VEC4"
		},
		{
			"bufferView": 0,
			"byteOffset": 9192,
			"componentType": 5123,
			"count": 1482,
			"max": [ 797 ],
			"min": [ 0 ],
			"type": "SCALAR"
		},
		{
			"bufferView": 3,
			"byteOffset": 60120,
			"componentType": 5126,
			"count": 235,
			"max": [ 0.04021854, 0.01651607, 0.0614409 ],
			"min": [ -0.04021854, -0.01651607, -0.0614409 ],
			"type": "VEC3"
		},
		{
			"bufferView": 3,
			"byteOffset": 62940,
			"componentType": 5126,
			"count": 235,
			"max": [ 0.9746349, 0.9032389, 0.9998789 ],
			"min": [ -0.9749829, -0.9999932, -0.9998636 ],
			"type": "VEC3"
		},
		{
			"bufferView": 2,
			"byteOffset": 9936,
			"componentType": 5126,
			"count": 235,
			"max": [ 0.6705228, 0.7582099 ],
			"min": [ 0.004417121, 0.02036285 ],
			"type": "VEC2"
		},
		{
			"bufferView": 4,
			"byteOffset": 40080,
			"componentType": 5126,
			"count": 235,
			"max": [ 0.999819, 0.9961378, 0.8186848, 1 ],
			"min": [ -0.9998537, -0.9893541, -0.6848071, -1 ],
			"type": "VEC4"
		},
		{
			"bufferView": 0,
			"byteOffset": 12156,
			"componentType": 5123,
			"count": 864,
			"max": [ 234 ],
			"min": [ 0 ],
			"type": "SCALAR"
		},
		{
			"bufferView": 3,
			"byteOffset": 65760,
			"componentType": 5126,
			"count": 60,
			"max": [ 0.005759563, 0.01680243, 0.01638116 ],
			"min": [ -0.005759563, -0.01680243, -0.01638116 ],
			"type": "VEC3"
		},
		{
			"bufferView": 3,
			"byteOffset": 66480,
			"componentType": 5126,
			"count": 60,
			"max": [ 1, 1, 0.9749279 ],
			"min": [ -1, -1, -0.9749279 ],
			"type": "VEC3"
		},
		{
			"bufferView": 2,
			"byteOffset": 11816,
			"componentType": 5126,
			"count": 60,
			"max": [ 0.3575006, 0.2056934 ],
			"min": [ 0.01177341, 0.004982471 ],
			"type": "VEC2"
		},
		{
			"bufferView": 4,
			"byteOffset": 43840,
			"componentType": 5126,
			"count": 60,
			"max": [ 0.013571, 0.9749278, 1, -1 ],
			"min": [ -0.006081099, -0.9749278, -1, -1 ],
			"type": "VEC4"
		},
		{
			"bufferView": 0,
			"byteOffset": 13884,
			"componentType": 5123,
			"count": 168,
			"max": [ 59 ],
			"min": [ 0 ],
			"type": "SCALAR"
		},
		{
			"bufferView": 3,
			"byteOffset": 67200,
			"componentType": 5126,
			"count": 60,
			"max": [ 0.005759563, 0.01680243, 0.01638117 ],
			"min": [ -0.005759563, -0.01680243, -0.01638117 ],
			"type": "VEC3"
		},
		{
			"bufferView": 3,
			"byteOffset": 67920,
			"componentType": 5126,
			"count": 60,
			"max": [ 1, 1, 0.9749279 ],
			"min": [ -1, -1, -0.974928 ],
			"type": "VEC3"
		},
		{
			"bufferView": 2,
			"byteOffset": 12296,
			"componentType": 5126,
			"count": 60,
			"max": [ 0.3575006, 0.2056934 ],
			"min": [ 0.01177341, 0.004982471 ],
			"type": "VEC2"
		},
		{
			"bufferView": 4,
			"byteOffset": 44800,
			"componentType": 5126,
			"count": 60,
			"max": [ 0.013571, 0.9749278, 1, -1 ],
			"min": [ -0.006081099, -0.974928, -1, -1 ],
			"type": "VEC4"
		},
		{
			"bufferView": 0,
			"byteOffset": 14220,
			"componentType": 5123,
			"count": 168,
			"max": [ 59 ],
			"min": [ 0 ],
			"type": "SCALAR"
		},
		{
			"bufferView": 3,
			"byteOffset": 68640,
			"componentType": 5126,
			"count": 60,
			"max": [ 0.005759563, 0.01680243, 0.01638117 ],
			"min": [ -0.005759563, -0.01680243, -0.01638117 ],
			"type": "VEC3"
		},
		{
			"bufferView": 3,
			"byteOffset": 69360,
			"componentType": 5126,
			"count": 60,
			"max": [ 1, 1, 0.9749281 ],
			"min": [ -1, -1, -0.9749277 ],
			"type": "VEC3"
		},
		{
			"bufferView": 2,
			"byteOffset": 12776,
			"componentType": 5126,
			"count": 60,
			"max": [ 0.3575006, 0.2056934 ],
			"min": [ 0.01177341, 0.004982471 ],
			"type": "VEC2"
		},
		{
			"bufferView": 4,
			"byteOffset": 45760,
			"componentType": 5126,
			"count": 60,
			"max": [ 0.013571, 0.9749281, 1, -1 ],
			"min": [ -0.006081101, -0.9749277, -1, -1 ],
			"type": "VEC4"
		},
		{
			"bufferView": 0,
			"byteOffset": 14556,
			"componentType": 5123,
			"count": 168,
			"max": [ 59 ],
			"min": [ 0 ],
			"type": "SCALAR"
		},
		{
			"bufferView": 3,
			"byteOffset": 70080,
			"componentType": 5126,
			"count": 214,
			"max": [ 0.03987609, 0.03265438, 0.06490888 ],
			"min": [ -0.03987609, -0.03265438, -0.06490888 ],
			"type": "VEC3"
		},
		{
			"bufferView": 3,
			"byteOffset": 72648,
			"componentType": 5126,
			"count": 214,
			"max": [ 0.9994854, 0.9998415, 0.9999996 ],
			"min": [ -0.9994868, -1, -0.9974485 ],
			"type": "VEC3"
		},
		{
			"bufferView": 2,
			"byteOffset": 13256,
			"componentType": 5126,
			"count": 214,
			"max": [ 0.9930481, 0.9886649 ],
			"min": [ 0.008814871, 0.007176876 ],
			"type": "VEC2"
		},
		{
			"bufferView": 4,
			"byteOffset": 46720,
			"componentType": 5126,
			"count": 214,
			"max": [ 1, 0.9148163, 0.9998031, 1 ],
			"min": [ -1, -0.9148168, -0.999997, -1 ],
			"type": "VEC4"
		},
		{
			"bufferView": 0,
			"byteOffset": 14892,
			"componentType": 5123,
			"count": 678,
			"max": [ 213 ],
			"min": [ 0 ],
			"type": "SCALAR"
		}
	],
	"animations": [
		{
			"name": "jeep",
			"channels": [
				{
					"sampler": 0,
					"target": {
						"node": 3,
						"path": "translation"
					}
				},
				{
					"sampler": 1,
					"target": {
						"node": 3,
						"path": "rotation"
					}
				},
				{
					"sampler": 2,
					"target": {
						"node": 3,
						"path": "scale"
					}
				}
			],
			"samplers": [
				{
					"input": 10,
					"interpolation": "LINEAR",
					"output": 11
				},
				{
					"input": 10,
					"interpolation": "LINEAR",
					"output": 12
				},
				{
					"input": 10,
					"interpolation": "LINEAR",
					"output": 13
				}
			]
		}
	],
	"buffers": [
		{
			"byteLength": 157896,
			"uri": "高速路收费站.bin"
		}
	],
	"bufferViews": [
		{
			"buffer": 0,
			"byteLength": 16248,
			"target": 34963,
			"byteOffset": 140448
		},
		{
			"buffer": 0,
			"byteLength": 120,
			"byteOffset": 0
		},
		{
			"buffer": 0,
			"byteLength": 14968,
			"target": 34962,
			"byteStride": 8,
			"byteOffset": 120
		},
		{
			"buffer": 0,
			"byteLength": 75216,
			"target": 34962,
			"byteStride": 12,
			"byteOffset": 15088
		},
		{
			"buffer": 0,
			"byteLength": 50144,
			"target": 34962,
			"byteStride": 16,
			"byteOffset": 90304
		},
		{
			"buffer": 0,
			"byteLength": 720,
			"byteStride": 12,
			"byteOffset": 156696
		},
		{
			"buffer": 0,
			"byteLength": 480,
			"byteStride": 16,
			"byteOffset": 157416
		}
	],
	"images": [
		{
			"uri": "/Assets/交通设施/Assets/Vehicles/Jeep/Final_Jeep/Textures/jeep-texture6.jpg"
		}
	],
	"materials": [
		{
			"pbrMetallicRoughness": {
				"baseColorFactor": [0.2313726, 0.3294118, 0.4431373, 0.8694902],
				"metallicFactor": 0,
				"roughnessFactor": 1
			},
			"alphaMode": "BLEND",
			"alphaCutoff": 0.5,
			"emissiveFactor": [0, 0, 0],
			"doubleSided": false,
			"name": "JZ_05"
		},
		{
			"pbrMetallicRoughness": {
				"baseColorTexture" : {
					"index" : 0,
					"texCoord" : 0
				},
				"baseColorFactor": [1, 1, 1, 1],
				"metallicFactor": 0,
				"roughnessFactor": 0.5
			},
			"emissiveFactor": [0, 0, 0],
			"doubleSided": false,
			"name": "jeep texture5"
		},
		{
			"pbrMetallicRoughness": {
				"baseColorFactor": [0.7686276, 0.4235295, 0.1333333, 1],
				"metallicFactor": 0,
				"roughnessFactor": 1
			},
			"emissiveFactor": [0, 0, 0],
			"doubleSided": false,
			"name": "JZ_04__"
		},
		{
			"pbrMetallicRoughness": {
				"baseColorFactor": [0.7686276, 0.1333333, 0.1333333, 1],
				"metallicFactor": 0,
				"roughnessFactor": 1
			},
			"emissiveFactor": [0, 0, 0],
			"doubleSided": false,
			"name": "JZ_04_"
		},
		{
			"pbrMetallicRoughness": {
				"baseColorFactor": [0, 0, 0, 1],
				"metallicFactor": 0,
				"roughnessFactor": 1
			},
			"emissiveFactor": [0, 0, 0],
			"doubleSided": false,
			"name": "14 - Default"
		},
		{
			"pbrMetallicRoughness": {
				"baseColorFactor": [0.7686276, 0.4235295, 0.1333333, 1],
				"metallicFactor": 0,
				"roughnessFactor": 1
			},
			"emissiveFactor": [0, 0, 0],
			"doubleSided": false,
			"name": "JZ_04_"
		}
	],
	"meshes": [
		{
			"name": "mesh_Object01_04_13116Object01_04",
			"primitives": [
				{
					"attributes": {
						"POSITION": 0,
						"NORMAL": 1,
						"TEXCOORD_0": 2,
						"TANGENT": 3
					},
					"indices": 4,
					"material": 0,
					"mode": 4
				}
			]
		},
		{
			"name": "mesh_back_rhs_wheel1_13170back_rhs_wheel1",
			"primitives": [
				{
					"attributes": {
						"POSITION": 5,
						"NORMAL": 6,
						"TEXCOORD_0": 7,
						"TANGENT": 8
					},
					"indices": 9,
					"material": 1,
					"mode": 4
				}
			]
		},
		{
			"name": "mesh_Cylinder03_13108Cylinder03",
			"primitives": [
				{
					"attributes": {
						"POSITION": 14,
						"NORMAL": 15,
						"TEXCOORD_0": 16,
						"TANGENT": 17
					},
					"indices": 18,
					"material": 2,
					"mode": 4
				}
			]
		},
		{
			"name": "mesh_Object01_02_13114Object01_02",
			"primitives": [
				{
					"attributes": {
						"POSITION": 19,
						"NORMAL": 20,
						"TEXCOORD_0": 21,
						"TANGENT": 22
					},
					"indices": 23,
					"material": 3,
					"mode": 4
				}
			]
		},
		{
			"name": "mesh_Line01_13110Line01",
			"primitives": [
				{
					"attributes": {
						"POSITION": 24,
						"NORMAL": 25,
						"TANGENT": 26
					},
					"indices": 27,
					"material": 4,
					"mode": 4
				}
			]
		},
		{
			"name": "mesh_Object01_01_13112Object01_01",
			"primitives": [
				{
					"attributes": {
						"POSITION": 28,
						"NORMAL": 29,
						"TEXCOORD_0": 30,
						"TANGENT": 31
					},
					"indices": 32,
					"material": 5,
					"mode": 4
				}
			]
		},
		{
			"name": "mesh_side_object_13178side_object",
			"primitives": [
				{
					"attributes": {
						"POSITION": 33,
						"NORMAL": 34,
						"TEXCOORD_0": 35,
						"TANGENT": 36
					},
					"indices": 37,
					"material": 1,
					"mode": 4
				}
			]
		},
		{
			"name": "mesh_back_lhs_wheel1_13168back_lhs_wheel1",
			"primitives": [
				{
					"attributes": {
						"POSITION": 38,
						"NORMAL": 39,
						"TEXCOORD_0": 40,
						"TANGENT": 41
					},
					"indices": 42,
					"material": 1,
					"mode": 4
				}
			]
		},
		{
			"name": "mesh_front_lhs_wheel1_13172front_lhs_wheel1",
			"primitives": [
				{
					"attributes": {
						"POSITION": 43,
						"NORMAL": 44,
						"TEXCOORD_0": 45,
						"TANGENT": 46
					},
					"indices": 47,
					"material": 1,
					"mode": 4
				}
			]
		},
		{
			"name": "mesh_front_rhs__wheel1_13174front_rhs__wheel1",
			"primitives": [
				{
					"attributes": {
						"POSITION": 48,
						"NORMAL": 49,
						"TEXCOORD_0": 50,
						"TANGENT": 51
					},
					"indices": 52,
					"material": 1,
					"mode": 4
				}
			]
		},
		{
			"name": "mesh_JEEP_BODY_13176JEEP_BODY",
			"primitives": [
				{
					"attributes": {
						"POSITION": 53,
						"NORMAL": 54,
						"TEXCOORD_0": 55,
						"TANGENT": 56
					},
					"indices": 57,
					"material": 1,
					"mode": 4
				}
			]
		}
	],
	"nodes": [
		{
			"name": "UnityGlTF_root",
			"children": [
				9
			]
		},
		{
			"name": "node_Object01_04_-57690",
			"mesh": 0,
			"translation": [ 60.75747, 0.2619403, -22.8113],
			"scale": [ 198.1168, 198.1168, 198.1168],
			"rotation": [-0.7001371, -0.09903537, 0.09903537, -0.7001371]
		},
		{
			"name": "node_back_rhs_wheel1_-57612",
			"mesh": 1,
			"translation": [ -0.03383827, -0.02319936, 0.04177275]
		},
		{
			"name": "node_jeep_-57598",
			"children": [
				11,
				2,
				12,
				13,
				14,
				10
			],
			"translation": [ -5.819157, -0.27, 5.91],
			"scale": [ 20, 20, 20],
			"rotation": [0, -0.1508364, 0, -0.9885588]
		},
		{
			"name": "node_Cylinder03_-57658",
			"mesh": 2,
			"translation": [ 60.75747, 2.563476E-05, -22.8113],
			"scale": [ 109.2293, 109.2294, 282.2902],
			"rotation": [-0.4250433, 0.425043, 0.5651003, -0.5651003]
		},
		{
			"name": "node_Object01_02_-57682",
			"mesh": 3,
			"translation": [ 60.75747, -0.07521759, -22.8113],
			"scale": [ 198.1168, 198.1168, 198.1168],
			"rotation": [-0.7001371, -0.09903537, 0.09903537, -0.7001371]
		},
		{
			"name": "node__-57652",
			"children": [
				4,
				7,
				8,
				5,
				1
			],
			"translation": [ 0.2121582, 0.54, -2.35]
		},
		{
			"name": "node_Line01_-57666",
			"mesh": 4,
			"translation": [ 60.75747, 0.2616379, -22.8113],
			"scale": [ 198.1168, 198.1168, 198.1168],
			"rotation": [-0.7001371, -0.09903537, 0.09903537, -0.7001371]
		},
		{
			"name": "node_Object01_01_-57674",
			"mesh": 5,
			"translation": [ 60.75747, -0.07521759, -22.8113],
			"scale": [ 198.1168, 198.1168, 198.1168],
			"rotation": [-0.7001371, -0.09903537, 0.09903537, -0.7001371]
		},
		{
			"name": "node__-57594",
			"children": [
				3,
				6
			],
			"matrix": [0.483398, 0, 0.1277746, 0, 0, 0.5, 0, 0, -0.1277746, 0, 0.483398, 0, -0.02, 0, 10.7, 1]
		},
		{
			"name": "node_side_object_-57644",
			"mesh": 6,
			"translation": [ 0, -0.01142971, 0.001817247]
		},
		{
			"name": "node_back_lhs_wheel1_-57604",
			"mesh": 7,
			"translation": [ 0.03401184, -0.02319936, 0.04177275]
		},
		{
			"name": "node_front_lhs_wheel1_-57620",
			"mesh": 8,
			"translation": [ 0.03054977, -0.02319936, -0.03970756]
		},
		{
			"name": "node_front_rhs__wheel1_-57628",
			"mesh": 9,
			"translation": [ -0.0328743, -0.02319936, -0.03970756]
		},
		{
			"name": "node_JEEP_BODY_-57636",
			"mesh": 10,
			"translation": [ -1.502504E-09, 0.007347411, 0]
		}
	],
	"samplers": [
		{
			"magFilter": 9729,
			"minFilter": 9985,
			"wrapS": 10497,
			"wrapT": 10497
		}
	],
	"scenes": [
		{
			"name":"defaultScene",
			"nodes": [
				0
			]
		}
	],
	"scene": 0,
	"textures": [
		{
			"sampler": 0,
			"source": 0
		}
	]
}