{
	"asset": {
		"generator": "Unity 2018.3.11f1",
		"extras": {
			"exporterVersion" : "2.2.1"
		},
		"version": "2.0"
	},
	"accessors": [
		{
			"bufferView": 3,
			"byteOffset": 0,
			"componentType": 5126,
			"count": 183,
			"max": [ 0.2810515, 1.157305, -1.09018 ],
			"min": [ -0.2810515, -0.7555243, -1.642592 ],
			"type": "VEC3"
		},
		{
			"bufferView": 3,
			"byteOffset": 2196,
			"componentType": 5126,
			"count": 183,
			"max": [ 1, 0.966898, 0.9669037 ],
			"min": [ -1, -0.9529202, -0.9669034 ],
			"type": "VEC3"
		},
		{
			"bufferView": 2,
			"byteOffset": 0,
			"componentType": 5126,
			"count": 183,
			"max": [ 0.625, 1 ],
			"min": [ 0.375, 0.1794202 ],
			"type": "VEC2"
		},
		{
			"bufferView": 4,
			"byteOffset": 0,
			"componentType": 5126,
			"count": 183,
			"max": [ 1, 0, 0, 1 ],
			"min": [ -1, 0, 0, -1 ],
			"type": "VEC4"
		},
		{
			"bufferView": 0,
			"byteOffset": 0,
			"componentType": 5123,
			"count": 462,
			"max": [ 182 ],
			"min": [ 0 ],
			"type": "SCALAR"
		},
		{
			"bufferView": 1,
			"byteOffset": 0,
			"componentType": 5126,
			"count": 30,
			"max": [ 0.9666667 ],
			"min": [ 0 ],
			"type": "SCALAR"
		},
		{
			"bufferView": 5,
			"byteOffset": 0,
			"componentType": 5126,
			"count": 30,
			"max": [ -0.1807322, -0.3781021, 0.01130508 ],
			"min": [ -0.1807322, -0.4258439, 0.01130508 ],
			"type": "VEC3"
		},
		{
			"bufferView": 6,
			"byteOffset": 0,
			"componentType": 5126,
			"count": 30,
			"max": [ -0.7071068, 0, 0, -0.7071068 ],
			"min": [ -0.7071068, 0, 0, -0.7071068 ],
			"type": "VEC4"
		},
		{
			"bufferView": 5,
			"byteOffset": 360,
			"componentType": 5126,
			"count": 30,
			"max": [ 1, 1, 1 ],
			"min": [ 1, 1, 1 ],
			"type": "VEC3"
		},
		{
			"bufferView": 3,
			"byteOffset": 4392,
			"componentType": 5126,
			"count": 70,
			"max": [ 0.2552379, 0.3780251, -0.4159646 ],
			"min": [ 0.2091646, -0.6414644, -0.7088162 ],
			"type": "VEC3"
		},
		{
			"bufferView": 3,
			"byteOffset": 5232,
			"componentType": 5126,
			"count": 70,
			"max": [ 0.9999343, 0.9666766, 0.9668983 ],
			"min": [ -0.9996339, -0.7060612, -0.9668981 ],
			"type": "VEC3"
		},
		{
			"bufferView": 2,
			"byteOffset": 1464,
			"componentType": 5126,
			"count": 70,
			"max": [ 0.4069723, 0.6633214 ],
			"min": [ 0.3864808, 0.2257806 ],
			"type": "VEC2"
		},
		{
			"bufferView": 4,
			"byteOffset": 2928,
			"componentType": 5126,
			"count": 70,
			"max": [ 1, 0, 0, 1 ],
			"min": [ -1, 0, 0, -1 ],
			"type": "VEC4"
		},
		{
			"bufferView": 0,
			"byteOffset": 924,
			"componentType": 5123,
			"count": 168,
			"max": [ 69 ],
			"min": [ 0 ],
			"type": "SCALAR"
		},
		{
			"bufferView": 3,
			"byteOffset": 6072,
			"componentType": 5126,
			"count": 188,
			"max": [ 0.2810515, -0.5786524, -1.020554 ],
			"min": [ -0.2810515, -0.8421617, -1.133745 ],
			"type": "VEC3"
		},
		{
			"bufferView": 3,
			"byteOffset": 8328,
			"componentType": 5126,
			"count": 188,
			"max": [ 1, 0.9529202, 0.9669028 ],
			"min": [ -1, -0.9662815, -0.9669831 ],
			"type": "VEC3"
		},
		{
			"bufferView": 2,
			"byteOffset": 2024,
			"componentType": 5126,
			"count": 188,
			"max": [ 0.625, 0.25 ],
			"min": [ 0.375, 0.1415033 ],
			"type": "VEC2"
		},
		{
			"bufferView": 4,
			"byteOffset": 4048,
			"componentType": 5126,
			"count": 188,
			"max": [ 1, 0, 0, 1 ],
			"min": [ -1, 0, 0, -1 ],
			"type": "VEC4"
		},
		{
			"bufferView": 0,
			"byteOffset": 1260,
			"componentType": 5123,
			"count": 372,
			"max": [ 187 ],
			"min": [ 0 ],
			"type": "SCALAR"
		},
		{
			"bufferView": 3,
			"byteOffset": 10584,
			"componentType": 5126,
			"count": 70,
			"max": [ 0.2552379, 0.3780251, -0.4159646 ],
			"min": [ 0.2091646, -0.6414644, -0.7088162 ],
			"type": "VEC3"
		},
		{
			"bufferView": 3,
			"byteOffset": 11424,
			"componentType": 5126,
			"count": 70,
			"max": [ 0.9999343, 0.9666766, 0.9668983 ],
			"min": [ -0.9996339, -0.7060612, -0.9668981 ],
			"type": "VEC3"
		},
		{
			"bufferView": 2,
			"byteOffset": 3528,
			"componentType": 5126,
			"count": 70,
			"max": [ 0.4069723, 0.6633214 ],
			"min": [ 0.3864808, 0.2257806 ],
			"type": "VEC2"
		},
		{
			"bufferView": 4,
			"byteOffset": 7056,
			"componentType": 5126,
			"count": 70,
			"max": [ 1, 0, 0, 1 ],
			"min": [ -1, 0, 0, -1 ],
			"type": "VEC4"
		},
		{
			"bufferView": 0,
			"byteOffset": 2004,
			"componentType": 5123,
			"count": 168,
			"max": [ 69 ],
			"min": [ 0 ],
			"type": "SCALAR"
		},
		{
			"bufferView": 3,
			"byteOffset": 12264,
			"componentType": 5126,
			"count": 539,
			"max": [ 1.124206, 1.157305, 0 ],
			"min": [ -1.124206, -1.157305, -1.077829 ],
			"type": "VEC3"
		},
		{
			"bufferView": 3,
			"byteOffset": 18732,
			"componentType": 5126,
			"count": 539,
			"max": [ 1, 1, 1 ],
			"min": [ -1, -1, -0.9895111 ],
			"type": "VEC3"
		},
		{
			"bufferView": 2,
			"byteOffset": 4088,
			"componentType": 5126,
			"count": 539,
			"max": [ 1, 1 ],
			"min": [ 0, 0 ],
			"type": "VEC2"
		},
		{
			"bufferView": 4,
			"byteOffset": 8176,
			"componentType": 5126,
			"count": 539,
			"max": [ 1, 1, 0.50306, 1 ],
			"min": [ -1, -1, -0.6189752, 1 ],
			"type": "VEC4"
		},
		{
			"bufferView": 0,
			"byteOffset": 2340,
			"componentType": 5123,
			"count": 2220,
			"max": [ 480 ],
			"min": [ 0 ],
			"type": "SCALAR"
		},
		{
			"bufferView": 0,
			"byteOffset": 6780,
			"componentType": 5123,
			"count": 396,
			"max": [ 538 ],
			"min": [ 96 ],
			"type": "SCALAR"
		}
	],
	"animations": [
		{
			"name": "004",
			"channels": [
				{
					"sampler": 0,
					"target": {
						"node": 2,
						"path": "translation"
					}
				},
				{
					"sampler": 1,
					"target": {
						"node": 2,
						"path": "rotation"
					}
				},
				{
					"sampler": 2,
					"target": {
						"node": 2,
						"path": "scale"
					}
				}
			],
			"samplers": [
				{
					"input": 5,
					"interpolation": "LINEAR",
					"output": 6
				},
				{
					"input": 5,
					"interpolation": "LINEAR",
					"output": 7
				},
				{
					"input": 5,
					"interpolation": "LINEAR",
					"output": 8
				}
			]
		}
	],
	"buffers": [
		{
			"byteLength": 59292,
			"uri": "侧碛堤.bin"
		}
	],
	"bufferViews": [
		{
			"buffer": 0,
			"byteLength": 7572,
			"target": 34963,
			"byteOffset": 50520
		},
		{
			"buffer": 0,
			"byteLength": 120,
			"byteOffset": 0
		},
		{
			"buffer": 0,
			"byteLength": 8400,
			"target": 34962,
			"byteStride": 8,
			"byteOffset": 120
		},
		{
			"buffer": 0,
			"byteLength": 25200,
			"target": 34962,
			"byteStride": 12,
			"byteOffset": 8520
		},
		{
			"buffer": 0,
			"byteLength": 16800,
			"target": 34962,
			"byteStride": 16,
			"byteOffset": 33720
		},
		{
			"buffer": 0,
			"byteLength": 720,
			"byteStride": 12,
			"byteOffset": 58092
		},
		{
			"buffer": 0,
			"byteLength": 480,
			"byteStride": 16,
			"byteOffset": 58812
		}
	],
	"images": [
		{
			"uri": "/Assets/冰川5_侧碛堤.fbm/冰川.jpg"
		},
		{
			"uri": "/Assets/冰川5_侧碛堤.fbm/rock.jpg"
		},
		{
			"uri": "/Assets/冰川5_侧碛堤.fbm/雪地1.jpg"
		}
	],
	"materials": [
		{
			"pbrMetallicRoughness": {
				"baseColorTexture" : {
					"index" : 0,
					"texCoord" : 0
				},
				"baseColorFactor": [0.5882353, 0.5882353, 0.5882353, 1],
				"metallicFactor": 0,
				"roughnessFactor": 1
			},
			"emissiveFactor": [0, 0, 0],
			"doubleSided": false,
			"name": ""
		},
		{
			"pbrMetallicRoughness": {
				"baseColorTexture" : {
					"index" : 1,
					"texCoord" : 0
				},
				"baseColorFactor": [0.5882353, 0.5882353, 0.5882353, 1],
				"metallicFactor": 0,
				"roughnessFactor": 1
			},
			"emissiveFactor": [0, 0, 0],
			"doubleSided": false,
			"name": "rock"
		},
		{
			"pbrMetallicRoughness": {
				"baseColorTexture" : {
					"index" : 2,
					"texCoord" : 0
				},
				"baseColorFactor": [0.5882353, 0.5882353, 0.5882353, 1],
				"metallicFactor": 0,
				"roughnessFactor": 1
			},
			"emissiveFactor": [0, 0, 0],
			"doubleSided": false,
			"name": "1"
		}
	],
	"meshes": [
		{
			"name": "mesh_004_17136004",
			"primitives": [
				{
					"attributes": {
						"POSITION": 0,
						"NORMAL": 1,
						"TEXCOORD_0": 2,
						"TANGENT": 3
					},
					"indices": 4,
					"material": 0,
					"mode": 4
				}
			]
		},
		{
			"name": "mesh_006_17130006",
			"primitives": [
				{
					"attributes": {
						"POSITION": 9,
						"NORMAL": 10,
						"TEXCOORD_0": 11,
						"TANGENT": 12
					},
					"indices": 13,
					"material": 1,
					"mode": 4
				}
			]
		},
		{
			"name": "mesh_003_17134003",
			"primitives": [
				{
					"attributes": {
						"POSITION": 14,
						"NORMAL": 15,
						"TEXCOORD_0": 16,
						"TANGENT": 17
					},
					"indices": 18,
					"material": 1,
					"mode": 4
				}
			]
		},
		{
			"name": "mesh_005_17138005",
			"primitives": [
				{
					"attributes": {
						"POSITION": 19,
						"NORMAL": 20,
						"TEXCOORD_0": 21,
						"TANGENT": 22
					},
					"indices": 23,
					"material": 1,
					"mode": 4
				}
			]
		},
		{
			"name": "mesh_Box001_17132Box001",
			"primitives": [
				{
					"attributes": {
						"POSITION": 24,
						"NORMAL": 25,
						"TEXCOORD_0": 26,
						"TANGENT": 27
					},
					"indices": 28,
					"material": 0,
					"mode": 4
				},
				{
					"attributes": {
						"POSITION": 24,
						"NORMAL": 25,
						"TEXCOORD_0": 26,
						"TANGENT": 27
					},
					"indices": 29,
					"material": 2,
					"mode": 4
				}
			]
		}
	],
	"nodes": [
		{
			"name": "UnityGlTF_root",
			"children": [
				1
			]
		},
		{
			"name": "node_5__-66202",
			"children": [
				6,
				4,
				2,
				5,
				3
			],
			"matrix": [1, 0, 0, 0, 0, 1, 0, 0, 0, 0, 1, 0, 7.663976, -8.143332, 14.66948, 1]
		},
		{
			"name": "node_004_-66208",
			"mesh": 0,
			"translation": [ -0.1807322, -0.3781021, 0.01130508],
			"rotation": [-0.7071068, 0, 0, -0.7071068]
		},
		{
			"name": "node_006_-66212",
			"mesh": 1,
			"translation": [ -0.6380396, 0.3320352, 0.01130508],
			"rotation": [-0.7071068, 0, 0, -0.7071068]
		},
		{
			"name": "node_003_-66206",
			"mesh": 2,
			"translation": [ -0.1807322, -0.325465, 0.01130508],
			"rotation": [-0.7071068, 0, 0, -0.7071068]
		},
		{
			"name": "node_005_-66210",
			"mesh": 3,
			"translation": [ -0.1807322, 0.3333642, 0.01130508],
			"rotation": [-0.7071068, 0, 0, -0.7071068]
		},
		{
			"name": "node_Box001_-66204",
			"mesh": 4,
			"translation": [ -0.1807322, 0.4430784, 0.01130508],
			"rotation": [-0.7071068, 0, 0, -0.7071068]
		}
	],
	"samplers": [
		{
			"magFilter": 9729,
			"minFilter": 9985,
			"wrapS": 10497,
			"wrapT": 10497
		}
	],
	"scenes": [
		{
			"name":"defaultScene",
			"nodes": [
				0
			]
		}
	],
	"scene": 0,
	"textures": [
		{
			"sampler": 0,
			"source": 0
		},
		{
			"sampler": 0,
			"source": 1
		},
		{
			"sampler": 0,
			"source": 2
		}
	]
}