{
	"asset": {
		"generator": "Unity 2018.3.11f1",
		"extras": {
			"exporterVersion" : "2.2.1"
		},
		"version": "2.0"
	},
	"accessors": [
		{
			"bufferView": 2,
			"byteOffset": 0,
			"componentType": 5126,
			"count": 168,
			"max": [ 0.1312604, 0.1312604, 0 ],
			"min": [ -0.1312604, -0.1312604, -0.01538194 ],
			"type": "VEC3"
		},
		{
			"bufferView": 2,
			"byteOffset": 2016,
			"componentType": 5126,
			"count": 168,
			"max": [ 0.9934098, 0.9934098, 1 ],
			"min": [ -0.9934098, -0.9934098, -1 ],
			"type": "VEC3"
		},
		{
			"bufferView": 3,
			"byteOffset": 0,
			"componentType": 5126,
			"count": 168,
			"max": [ 1, 0, 0, 1 ],
			"min": [ 1, 0, 0, 1 ],
			"type": "VEC4"
		},
		{
			"bufferView": 0,
			"byteOffset": 0,
			"componentType": 5123,
			"count": 324,
			"max": [ 167 ],
			"min": [ 0 ],
			"type": "SCALAR"
		},
		{
			"bufferView": 2,
			"byteOffset": 4032,
			"componentType": 5126,
			"count": 8648,
			"max": [ 2.841069, 1.805521, 2.346426 ],
			"min": [ -2.870694, -1.805521, -2.147127 ],
			"type": "VEC3"
		},
		{
			"bufferView": 2,
			"byteOffset": 107808,
			"componentType": 5126,
			"count": 8648,
			"max": [ 0.9994907, 1, 0.9998425 ],
			"min": [ -0.9999835, -1, -0.9994907 ],
			"type": "VEC3"
		},
		{
			"bufferView": 3,
			"byteOffset": 2688,
			"componentType": 5126,
			"count": 8648,
			"max": [ 1, 0, 0, 1 ],
			"min": [ 1, 0, 0, 1 ],
			"type": "VEC4"
		},
		{
			"bufferView": 0,
			"byteOffset": 648,
			"componentType": 5123,
			"count": 51888,
			"max": [ 8647 ],
			"min": [ 0 ],
			"type": "SCALAR"
		},
		{
			"bufferView": 2,
			"byteOffset": 211584,
			"componentType": 5126,
			"count": 606,
			"max": [ 0.21875, 0.684, 0 ],
			"min": [ -0.21875, 0.016, -0.03406 ],
			"type": "VEC3"
		},
		{
			"bufferView": 2,
			"byteOffset": 218856,
			"componentType": 5126,
			"count": 606,
			"max": [ 1, 1, 0 ],
			"min": [ -1, -1, -1 ],
			"type": "VEC3"
		},
		{
			"bufferView": 3,
			"byteOffset": 141056,
			"componentType": 5126,
			"count": 606,
			"max": [ 1, 0, 0, 1 ],
			"min": [ 1, 0, 0, 1 ],
			"type": "VEC4"
		},
		{
			"bufferView": 0,
			"byteOffset": 104424,
			"componentType": 5123,
			"count": 1134,
			"max": [ 605 ],
			"min": [ 0 ],
			"type": "SCALAR"
		},
		{
			"bufferView": 1,
			"byteOffset": 0,
			"componentType": 5126,
			"count": 100,
			"max": [ 3.3 ],
			"min": [ 0 ],
			"type": "SCALAR"
		},
		{
			"bufferView": 4,
			"byteOffset": 0,
			"componentType": 5126,
			"count": 100,
			"max": [ -0.06541687, 0.09999999, -1.647256 ],
			"min": [ -0.06541687, 0, -1.647256 ],
			"type": "VEC3"
		},
		{
			"bufferView": 5,
			"byteOffset": 0,
			"componentType": 5126,
			"count": 100,
			"max": [ -2.164891E-17, 0.7071067, -2.16489E-17, -0.7071068 ],
			"min": [ -2.164891E-17, 0.7071067, -2.16489E-17, -0.7071068 ],
			"type": "VEC4"
		},
		{
			"bufferView": 4,
			"byteOffset": 1200,
			"componentType": 5126,
			"count": 100,
			"max": [ 1, 1, 1 ],
			"min": [ 1, 1, 1 ],
			"type": "VEC3"
		},
		{
			"bufferView": 1,
			"byteOffset": 400,
			"componentType": 5126,
			"count": 100,
			"max": [ 3.3 ],
			"min": [ 0 ],
			"type": "SCALAR"
		},
		{
			"bufferView": 4,
			"byteOffset": 2400,
			"componentType": 5126,
			"count": 100,
			"max": [ 0.04272831, 0.09999999, -2.400696 ],
			"min": [ 0.04272831, 0, -2.400696 ],
			"type": "VEC3"
		},
		{
			"bufferView": 5,
			"byteOffset": 1600,
			"componentType": 5126,
			"count": 100,
			"max": [ -0.7071068, 0, 0, -0.7071068 ],
			"min": [ -0.7071068, 0, 0, -0.7071068 ],
			"type": "VEC4"
		},
		{
			"bufferView": 4,
			"byteOffset": 3600,
			"componentType": 5126,
			"count": 100,
			"max": [ 2.0836, 2.0836, 2.0836 ],
			"min": [ 2.0836, 2.0836, 2.0836 ],
			"type": "VEC3"
		},
		{
			"bufferView": 1,
			"byteOffset": 800,
			"componentType": 5126,
			"count": 100,
			"max": [ 3.3 ],
			"min": [ 0 ],
			"type": "SCALAR"
		},
		{
			"bufferView": 4,
			"byteOffset": 4800,
			"componentType": 5126,
			"count": 100,
			"max": [ 0.04027313, 0.33925, -2.471475 ],
			"min": [ 0.04027313, 0.239248, -2.471475 ],
			"type": "VEC3"
		},
		{
			"bufferView": 5,
			"byteOffset": 3200,
			"componentType": 5126,
			"count": 100,
			"max": [ 0.4845195, 0.5150155, -0.5150155, 0.4845195 ],
			"min": [ 0.4845195, 0.5150155, -0.5150155, 0.4845195 ],
			"type": "VEC4"
		},
		{
			"bufferView": 4,
			"byteOffset": 6000,
			"componentType": 5126,
			"count": 100,
			"max": [ 0.1148207, 0.1148207, 0.1148207 ],
			"min": [ 0.1148207, 0.1148207, 0.1148207 ],
			"type": "VEC3"
		}
	],
	"animations": [
		{
			"name": "",
			"channels": [
				{
					"sampler": 0,
					"target": {
						"node": 3,
						"path": "translation"
					}
				},
				{
					"sampler": 1,
					"target": {
						"node": 3,
						"path": "rotation"
					}
				},
				{
					"sampler": 2,
					"target": {
						"node": 3,
						"path": "scale"
					}
				},
				{
					"sampler": 3,
					"target": {
						"node": 1,
						"path": "translation"
					}
				},
				{
					"sampler": 4,
					"target": {
						"node": 1,
						"path": "rotation"
					}
				},
				{
					"sampler": 5,
					"target": {
						"node": 1,
						"path": "scale"
					}
				},
				{
					"sampler": 6,
					"target": {
						"node": 4,
						"path": "translation"
					}
				},
				{
					"sampler": 7,
					"target": {
						"node": 4,
						"path": "rotation"
					}
				},
				{
					"sampler": 8,
					"target": {
						"node": 4,
						"path": "scale"
					}
				}
			],
			"samplers": [
				{
					"input": 12,
					"interpolation": "LINEAR",
					"output": 13
				},
				{
					"input": 12,
					"interpolation": "LINEAR",
					"output": 14
				},
				{
					"input": 12,
					"interpolation": "LINEAR",
					"output": 15
				},
				{
					"input": 16,
					"interpolation": "LINEAR",
					"output": 17
				},
				{
					"input": 16,
					"interpolation": "LINEAR",
					"output": 18
				},
				{
					"input": 16,
					"interpolation": "LINEAR",
					"output": 19
				},
				{
					"input": 20,
					"interpolation": "LINEAR",
					"output": 21
				},
				{
					"input": 20,
					"interpolation": "LINEAR",
					"output": 22
				},
				{
					"input": 20,
					"interpolation": "LINEAR",
					"output": 23
				}
			]
		}
	],
	"buffers": [
		{
			"byteLength": 496772,
			"uri": "高速停车区.bin"
		}
	],
	"bufferViews": [
		{
			"buffer": 0,
			"byteLength": 106692,
			"target": 34963,
			"byteOffset": 378080
		},
		{
			"buffer": 0,
			"byteLength": 1200,
			"byteOffset": 0
		},
		{
			"buffer": 0,
			"byteLength": 226128,
			"target": 34962,
			"byteStride": 12,
			"byteOffset": 1200
		},
		{
			"buffer": 0,
			"byteLength": 150752,
			"target": 34962,
			"byteStride": 16,
			"byteOffset": 227328
		},
		{
			"buffer": 0,
			"byteLength": 7200,
			"byteStride": 12,
			"byteOffset": 484772
		},
		{
			"buffer": 0,
			"byteLength": 4800,
			"byteStride": 16,
			"byteOffset": 491972
		}
	],
	"images": [
		{
			"uri": "/Assets/ToGLTF/高速停车区/green.jpg"
		}
	],
	"materials": [
		{
			"pbrMetallicRoughness": {
				"baseColorTexture" : {
					"index" : 0,
					"texCoord" : 0
				},
				"baseColorFactor": [0.5882353, 0.5882353, 0.5882353, 1],
				"metallicFactor": 0,
				"roughnessFactor": 1
			},
			"emissiveFactor": [0, 0, 0],
			"doubleSided": false,
			"name": "green"
		}
	],
	"meshes": [
		{
			"name": "mesh_Circle001_17470Circle001",
			"primitives": [
				{
					"attributes": {
						"POSITION": 0,
						"NORMAL": 1,
						"TANGENT": 2
					},
					"indices": 3,
					"material": 0,
					"mode": 4
				}
			]
		},
		{
			"name": "mesh_Small Cup_17472Small Cup",
			"primitives": [
				{
					"attributes": {
						"POSITION": 4,
						"NORMAL": 5,
						"TANGENT": 6
					},
					"indices": 7,
					"material": 0,
					"mode": 4
				}
			]
		},
		{
			"name": "mesh_Text002_17468Text002",
			"primitives": [
				{
					"attributes": {
						"POSITION": 8,
						"NORMAL": 9,
						"TANGENT": 10
					},
					"indices": 11,
					"material": 0,
					"mode": 4
				}
			]
		}
	],
	"nodes": [
		{
			"name": "UnityGlTF_root",
			"children": [
				5
			]
		},
		{
			"name": "node_Circle001_-2906",
			"mesh": 0,
			"translation": [ 0.04272831, 0, -2.400696],
			"scale": [ 2.0836, 2.0836, 2.0836],
			"rotation": [-0.7071068, 0, 0, -0.7071068]
		},
		{
			"name": "node_Small Cup_-2908",
			"mesh": 1,
			"translation": [ -0.01509277, 0.08414643, 0],
			"rotation": [0.009203571, 0.707047, -0.7070469, -0.009203565]
		},
		{
			"name": "node_Text002_-2910",
			"mesh": 2,
			"translation": [ -0.06541687, 0, -1.647256],
			"rotation": [-2.164891E-17, 0.7071067, -2.16489E-17, -0.7071068]
		},
		{
			"name": "node_ww_-2912",
			"children": [
				2
			],
			"translation": [ 0.04027313, 0.239248, -2.471475],
			"scale": [ 0.1148207, 0.1148207, 0.1148207],
			"rotation": [0.4845195, 0.5150155, -0.5150155, 0.4845195]
		},
		{
			"name": "node__-2914",
			"children": [
				1,
				3,
				4
			],
			"matrix": [1, 0, 0, 0, 0, 1, 0, 0, 0, 0, 1, 0, 163.2904, 375.7303, -307.0228, 1]
		}
	],
	"samplers": [
		{
			"magFilter": 9729,
			"minFilter": 9985,
			"wrapS": 10497,
			"wrapT": 10497
		}
	],
	"scenes": [
		{
			"name":"defaultScene",
			"nodes": [
				0
			]
		}
	],
	"scene": 0,
	"textures": [
		{
			"sampler": 0,
			"source": 0
		}
	]
}