{
	"asset": {
		"generator": "Unity 2018.3.11f1",
		"extras": {
			"exporterVersion" : "2.2.1"
		},
		"version": "2.0"
	},
	"accessors": [
		{
			"bufferView": 2,
			"byteOffset": 0,
			"componentType": 5126,
			"count": 154,
			"max": [ 0.004669804, 0.00459886, 0 ],
			"min": [ -0.004669804, -0.00459886, -0.0490284 ],
			"type": "VEC3"
		},
		{
			"bufferView": 2,
			"byteOffset": 1848,
			"componentType": 5126,
			"count": 154,
			"max": [ 1, 0.9848077, 1 ],
			"min": [ -1, -0.9848078, -1 ],
			"type": "VEC3"
		},
		{
			"bufferView": 1,
			"byteOffset": 0,
			"componentType": 5126,
			"count": 154,
			"max": [ 0.9722222, 0.9999999 ],
			"min": [ -0.02777779, 0 ],
			"type": "VEC2"
		},
		{
			"bufferView": 3,
			"byteOffset": 0,
			"componentType": 5126,
			"count": 154,
			"max": [ 1, 1, 0, 1 ],
			"min": [ -0.9848078, -1, 0, 1 ],
			"type": "VEC4"
		},
		{
			"bufferView": 0,
			"byteOffset": 0,
			"componentType": 5123,
			"count": 648,
			"max": [ 153 ],
			"min": [ 0 ],
			"type": "SCALAR"
		},
		{
			"bufferView": 2,
			"byteOffset": 3696,
			"componentType": 5126,
			"count": 154,
			"max": [ 0.004669804, 0.00459886, 0 ],
			"min": [ -0.004669804, -0.00459886, -0.0490284 ],
			"type": "VEC3"
		},
		{
			"bufferView": 2,
			"byteOffset": 5544,
			"componentType": 5126,
			"count": 154,
			"max": [ 1, 0.9848077, 1 ],
			"min": [ -1, -0.9848078, -1 ],
			"type": "VEC3"
		},
		{
			"bufferView": 1,
			"byteOffset": 1232,
			"componentType": 5126,
			"count": 154,
			"max": [ 0.9722222, 0.9999999 ],
			"min": [ -0.02777779, 0 ],
			"type": "VEC2"
		},
		{
			"bufferView": 3,
			"byteOffset": 2464,
			"componentType": 5126,
			"count": 154,
			"max": [ 1, 1, 0, 1 ],
			"min": [ -0.9848078, -1, 0, 1 ],
			"type": "VEC4"
		},
		{
			"bufferView": 0,
			"byteOffset": 1296,
			"componentType": 5123,
			"count": 648,
			"max": [ 153 ],
			"min": [ 0 ],
			"type": "SCALAR"
		},
		{
			"bufferView": 2,
			"byteOffset": 7392,
			"componentType": 5126,
			"count": 24,
			"max": [ 0.03956667, 0.03492995, 0 ],
			"min": [ -0.03956667, -0.03492995, -0.008346097 ],
			"type": "VEC3"
		},
		{
			"bufferView": 2,
			"byteOffset": 7680,
			"componentType": 5126,
			"count": 24,
			"max": [ 1, 1, 1 ],
			"min": [ -1, -1, -1 ],
			"type": "VEC3"
		},
		{
			"bufferView": 1,
			"byteOffset": 2464,
			"componentType": 5126,
			"count": 24,
			"max": [ 1, 1 ],
			"min": [ 0, 0 ],
			"type": "VEC2"
		},
		{
			"bufferView": 3,
			"byteOffset": 4928,
			"componentType": 5126,
			"count": 24,
			"max": [ 1, 1, 0, 1 ],
			"min": [ -1, -1, 0, 1 ],
			"type": "VEC4"
		},
		{
			"bufferView": 0,
			"byteOffset": 2592,
			"componentType": 5123,
			"count": 36,
			"max": [ 23 ],
			"min": [ 0 ],
			"type": "SCALAR"
		},
		{
			"bufferView": 2,
			"byteOffset": 7968,
			"componentType": 5126,
			"count": 24,
			"max": [ 0.03019432, 0.0245142, 0 ],
			"min": [ -0.03019432, -0.0245142, -0.01315396 ],
			"type": "VEC3"
		},
		{
			"bufferView": 2,
			"byteOffset": 8256,
			"componentType": 5126,
			"count": 24,
			"max": [ 1, 1, 1 ],
			"min": [ -1, -1, -1 ],
			"type": "VEC3"
		},
		{
			"bufferView": 1,
			"byteOffset": 2656,
			"componentType": 5126,
			"count": 24,
			"max": [ 1, 1 ],
			"min": [ 0, 0 ],
			"type": "VEC2"
		},
		{
			"bufferView": 3,
			"byteOffset": 5312,
			"componentType": 5126,
			"count": 24,
			"max": [ 1, 1, 0, 1 ],
			"min": [ -1, -1, 0, 1 ],
			"type": "VEC4"
		},
		{
			"bufferView": 0,
			"byteOffset": 2664,
			"componentType": 5123,
			"count": 36,
			"max": [ 23 ],
			"min": [ 0 ],
			"type": "SCALAR"
		},
		{
			"bufferView": 2,
			"byteOffset": 8544,
			"componentType": 5126,
			"count": 154,
			"max": [ 0.004669804, 0.00459886, 0 ],
			"min": [ -0.004669804, -0.00459886, -0.0490284 ],
			"type": "VEC3"
		},
		{
			"bufferView": 2,
			"byteOffset": 10392,
			"componentType": 5126,
			"count": 154,
			"max": [ 1, 0.9848077, 1 ],
			"min": [ -1, -0.9848078, -1 ],
			"type": "VEC3"
		},
		{
			"bufferView": 1,
			"byteOffset": 2848,
			"componentType": 5126,
			"count": 154,
			"max": [ 0.9722222, 0.9999999 ],
			"min": [ -0.02777779, 0 ],
			"type": "VEC2"
		},
		{
			"bufferView": 3,
			"byteOffset": 5696,
			"componentType": 5126,
			"count": 154,
			"max": [ 1, 1, 0, 1 ],
			"min": [ -0.9848078, -1, 0, 1 ],
			"type": "VEC4"
		},
		{
			"bufferView": 0,
			"byteOffset": 2736,
			"componentType": 5123,
			"count": 648,
			"max": [ 153 ],
			"min": [ 0 ],
			"type": "SCALAR"
		},
		{
			"bufferView": 2,
			"byteOffset": 12240,
			"componentType": 5126,
			"count": 154,
			"max": [ 0.004669804, 0.00459886, 0 ],
			"min": [ -0.004669804, -0.00459886, -0.0490284 ],
			"type": "VEC3"
		},
		{
			"bufferView": 2,
			"byteOffset": 14088,
			"componentType": 5126,
			"count": 154,
			"max": [ 1, 0.9848077, 1 ],
			"min": [ -1, -0.9848078, -1 ],
			"type": "VEC3"
		},
		{
			"bufferView": 1,
			"byteOffset": 4080,
			"componentType": 5126,
			"count": 154,
			"max": [ 0.9722222, 0.9999999 ],
			"min": [ -0.02777779, 0 ],
			"type": "VEC2"
		},
		{
			"bufferView": 3,
			"byteOffset": 8160,
			"componentType": 5126,
			"count": 154,
			"max": [ 1, 1, 0, 1 ],
			"min": [ -0.9848078, -1, 0, 1 ],
			"type": "VEC4"
		},
		{
			"bufferView": 0,
			"byteOffset": 4032,
			"componentType": 5123,
			"count": 648,
			"max": [ 153 ],
			"min": [ 0 ],
			"type": "SCALAR"
		},
		{
			"bufferView": 2,
			"byteOffset": 15936,
			"componentType": 5126,
			"count": 17,
			"max": [ 0.03079223, 0.02600897, 0 ],
			"min": [ -0.03079223, -0.02600897, -0.02272048 ],
			"type": "VEC3"
		},
		{
			"bufferView": 2,
			"byteOffset": 16140,
			"componentType": 5126,
			"count": 17,
			"max": [ 0.5937319, 0.6578915, 1 ],
			"min": [ -0.5937319, -0.6578915, -0.8046629 ],
			"type": "VEC3"
		},
		{
			"bufferView": 1,
			"byteOffset": 5312,
			"componentType": 5126,
			"count": 17,
			"max": [ 1, 1 ],
			"min": [ -0.09195399, 0 ],
			"type": "VEC2"
		},
		{
			"bufferView": 3,
			"byteOffset": 10624,
			"componentType": 5126,
			"count": 17,
			"max": [ 1, 1, 0, 1 ],
			"min": [ -1, -1, 0, 1 ],
			"type": "VEC4"
		},
		{
			"bufferView": 0,
			"byteOffset": 5328,
			"componentType": 5123,
			"count": 24,
			"max": [ 16 ],
			"min": [ 0 ],
			"type": "SCALAR"
		},
		{
			"bufferView": 2,
			"byteOffset": 16344,
			"componentType": 5126,
			"count": 210,
			"max": [ 0.03412119, 0.0151782, 0.005 ],
			"min": [ -0.0340859, -0.06594986, -0.005 ],
			"type": "VEC3"
		},
		{
			"bufferView": 2,
			"byteOffset": 18864,
			"componentType": 5126,
			"count": 210,
			"max": [ 0.9999738, 0.9999738, 1 ],
			"min": [ -0.9999738, -0.9999738, -1 ],
			"type": "VEC3"
		},
		{
			"bufferView": 3,
			"byteOffset": 10896,
			"componentType": 5126,
			"count": 210,
			"max": [ 1, 0, 0, 1 ],
			"min": [ 1, 0, 0, 1 ],
			"type": "VEC4"
		},
		{
			"bufferView": 0,
			"byteOffset": 5376,
			"componentType": 5123,
			"count": 600,
			"max": [ 209 ],
			"min": [ 0 ],
			"type": "SCALAR"
		},
		{
			"bufferView": 2,
			"byteOffset": 21384,
			"componentType": 5126,
			"count": 808,
			"max": [ 0.01756771, 0.0161, 0 ],
			"min": [ -0.01758229, 0, -0.005 ],
			"type": "VEC3"
		},
		{
			"bufferView": 2,
			"byteOffset": 31080,
			"componentType": 5126,
			"count": 808,
			"max": [ 1, 1, 1 ],
			"min": [ -1, -1, -1 ],
			"type": "VEC3"
		},
		{
			"bufferView": 3,
			"byteOffset": 14256,
			"componentType": 5126,
			"count": 808,
			"max": [ 1, 0, 0, 1 ],
			"min": [ 1, 0, 0, 1 ],
			"type": "VEC4"
		},
		{
			"bufferView": 0,
			"byteOffset": 6576,
			"componentType": 5123,
			"count": 2232,
			"max": [ 807 ],
			"min": [ 0 ],
			"type": "SCALAR"
		}
	],
	"buffers": [
		{
			"byteLength": 84448,
			"uri": "24小时自助银行.bin"
		}
	],
	"bufferViews": [
		{
			"buffer": 0,
			"byteLength": 11040,
			"target": 34963,
			"byteOffset": 73408
		},
		{
			"buffer": 0,
			"byteLength": 5448,
			"target": 34962,
			"byteStride": 8,
			"byteOffset": 0
		},
		{
			"buffer": 0,
			"byteLength": 40776,
			"target": 34962,
			"byteStride": 12,
			"byteOffset": 5448
		},
		{
			"buffer": 0,
			"byteLength": 27184,
			"target": 34962,
			"byteStride": 16,
			"byteOffset": 46224
		}
	],
	"materials": [
		{
			"pbrMetallicRoughness": {
				"baseColorFactor": [0.3973834, 0.6570156, 0.8867924, 1],
				"metallicFactor": 0,
				"roughnessFactor": 0.5
			},
			"emissiveFactor": [0, 0, 0],
			"doubleSided": false,
			"name": ""
		},
		{
			"pbrMetallicRoughness": {
				"baseColorFactor": [1, 1, 1, 1],
				"metallicFactor": 0,
				"roughnessFactor": 1
			},
			"emissiveFactor": [0, 0, 0],
			"doubleSided": false,
			"name": "No Name"
		},
		{
			"pbrMetallicRoughness": {
				"baseColorFactor": [1, 1, 0.4627451, 1],
				"metallicFactor": 0,
				"roughnessFactor": 0.5
			},
			"emissiveFactor": [0, 0, 0],
			"doubleSided": false,
			"name": "money"
		},
		{
			"pbrMetallicRoughness": {
				"baseColorFactor": [0.9056604, 0.212142, 0.1324315, 1],
				"metallicFactor": 0,
				"roughnessFactor": 0.5
			},
			"emissiveFactor": [0, 0, 0],
			"doubleSided": false,
			"name": ""
		}
	],
	"meshes": [
		{
			"name": "mesh_Cylinder002_10928Cylinder002",
			"primitives": [
				{
					"attributes": {
						"POSITION": 0,
						"NORMAL": 1,
						"TEXCOORD_0": 2,
						"TANGENT": 3
					},
					"indices": 4,
					"material": 0,
					"mode": 4
				}
			]
		},
		{
			"name": "mesh_Cylinder003_10930Cylinder003",
			"primitives": [
				{
					"attributes": {
						"POSITION": 5,
						"NORMAL": 6,
						"TEXCOORD_0": 7,
						"TANGENT": 8
					},
					"indices": 9,
					"material": 0,
					"mode": 4
				}
			]
		},
		{
			"name": "mesh_Box001_10922Box001",
			"primitives": [
				{
					"attributes": {
						"POSITION": 10,
						"NORMAL": 11,
						"TEXCOORD_0": 12,
						"TANGENT": 13
					},
					"indices": 14,
					"material": 1,
					"mode": 4
				}
			]
		},
		{
			"name": "mesh_Box002_10924Box002",
			"primitives": [
				{
					"attributes": {
						"POSITION": 15,
						"NORMAL": 16,
						"TEXCOORD_0": 17,
						"TANGENT": 18
					},
					"indices": 19,
					"material": 1,
					"mode": 4
				}
			]
		},
		{
			"name": "mesh_Cylinder004_10932Cylinder004",
			"primitives": [
				{
					"attributes": {
						"POSITION": 20,
						"NORMAL": 21,
						"TEXCOORD_0": 22,
						"TANGENT": 23
					},
					"indices": 24,
					"material": 0,
					"mode": 4
				}
			]
		},
		{
			"name": "mesh_Cylinder001_10926Cylinder001",
			"primitives": [
				{
					"attributes": {
						"POSITION": 25,
						"NORMAL": 26,
						"TEXCOORD_0": 27,
						"TANGENT": 28
					},
					"indices": 29,
					"material": 0,
					"mode": 4
				}
			]
		},
		{
			"name": "mesh_Pyramid001_10934Pyramid001",
			"primitives": [
				{
					"attributes": {
						"POSITION": 30,
						"NORMAL": 31,
						"TEXCOORD_0": 32,
						"TANGENT": 33
					},
					"indices": 34,
					"material": 0,
					"mode": 4
				}
			]
		},
		{
			"name": "mesh_Line001_10952money (1)",
			"primitives": [
				{
					"attributes": {
						"POSITION": 35,
						"NORMAL": 36,
						"TANGENT": 37
					},
					"indices": 38,
					"material": 2,
					"mode": 4
				}
			]
		},
		{
			"name": "mesh_002_1404624h",
			"primitives": [
				{
					"attributes": {
						"POSITION": 39,
						"NORMAL": 40,
						"TANGENT": 41
					},
					"indices": 42,
					"material": 3,
					"mode": 4
				}
			]
		}
	],
	"nodes": [
		{
			"name": "UnityGlTF_root",
			"children": [
				3
			]
		},
		{
			"name": "node_Cylinder002_-49344",
			"mesh": 0,
			"translation": [ -0.02336908, -3.552714E-18, -0.02989537],
			"rotation": [-0.7071068, 0, 0, -0.7071068]
		},
		{
			"name": "node_Cylinder003_-49352",
			"mesh": 1,
			"translation": [ 0.02391629, 0, 0.002492543],
			"rotation": [-0.7071068, 0, 0, -0.7071068]
		},
		{
			"name": "node_24_-49312",
			"children": [
				4,
				11,
				12
			],
			"matrix": [1, 0, 0, 0, 0, 1, 0, 0, 0, 0, 1, 0, -3.674062, -11.60235, 36.05669, 1]
		},
		{
			"name": "node__-49316",
			"children": [
				5,
				6,
				9,
				1,
				2,
				7,
				8,
				10
			],
			"translation": [ -0.01401372, -0.01509741, -0.01661377]
		},
		{
			"name": "node_Box001_-49320",
			"mesh": 2,
			"translation": [ 0.0004363461, 0, -0.01504124],
			"scale": [ 1, 1, 0.4649713],
			"rotation": [-0.7071068, 0, 0, -0.7071068]
		},
		{
			"name": "node_Box002_-49328",
			"mesh": 3,
			"translation": [ 0.0002989531, -1.776357E-18, -0.01434978],
			"scale": [ 1.082377, 1.136219, 0.5437338],
			"rotation": [-0.7071068, 0, 0, -0.7071068]
		},
		{
			"name": "node_Cylinder004_-49360",
			"mesh": 4,
			"translation": [ -0.02277117, 0, 0.003087757],
			"rotation": [-0.7071068, 0, 0, -0.7071068]
		},
		{
			"name": "node_Line001_-49368",
			"translation": [ 0, 0.0358592, -0.01228632],
			"scale": [ 0.3287096, 0.3708061, 1]
		},
		{
			"name": "node_Cylinder001_-49336",
			"mesh": 5,
			"translation": [ 0.02391629, -3.552714E-18, -0.02989537],
			"rotation": [-0.7071068, 0, 0, -0.7071068]
		},
		{
			"name": "node_Pyramid001_-49372",
			"mesh": 6,
			"translation": [ -0.0005979073, 0.04946422, -0.01554559],
			"rotation": [-0.7071068, 0, 0, -0.7071068]
		},
		{
			"name": "node_money (1)_-49380",
			"mesh": 7,
			"translation": [ -0.01501372, 0.02120259, -0.01661377],
			"scale": [ 0.3491255, 0.3795758, 2.0157]
		},
		{
			"name": "node_24h_-49386",
			"mesh": 8,
			"translation": [ -0.0142, 0.0471, -0.0491],
			"scale": [ 0.7956558, 0.7956558, 1.573494]
		}
	],
	"scenes": [
		{
			"name":"defaultScene",
			"nodes": [
				0
			]
		}
	],
	"scene": 0
}