{
	"asset": {
		"generator": "Unity 2018.3.11f1",
		"extras": {
			"exporterVersion" : "2.2.1"
		},
		"version": "2.0"
	},
	"accessors": [
		{
			"bufferView": 3,
			"byteOffset": 0,
			"componentType": 5126,
			"count": 4225,
			"max": [ 50, 11.64073, 0 ],
			"min": [ 0, 0, -50 ],
			"type": "VEC3"
		},
		{
			"bufferView": 3,
			"byteOffset": 50700,
			"componentType": 5126,
			"count": 4225,
			"max": [ 0.8644845, 1, 0.9268712 ],
			"min": [ -0.8854147, 0.37207, -0.9214596 ],
			"type": "VEC3"
		},
		{
			"bufferView": 2,
			"byteOffset": 0,
			"componentType": 5126,
			"count": 4225,
			"max": [ 1, 1 ],
			"min": [ 0, 0 ],
			"type": "VEC2"
		},
		{
			"bufferView": 4,
			"byteOffset": 0,
			"componentType": 5126,
			"count": 4225,
			"max": [ 0.03881714, 0.9280196, -0.3725313, -1 ],
			"min": [ -0.04212112, -0.9216285, -1, -1 ],
			"type": "VEC4"
		},
		{
			"bufferView": 0,
			"byteOffset": 0,
			"componentType": 5123,
			"count": 24576,
			"max": [ 4224 ],
			"min": [ 0 ],
			"type": "SCALAR"
		},
		{
			"bufferView": 3,
			"byteOffset": 101400,
			"componentType": 5126,
			"count": 4225,
			"max": [ 50, 0, 0 ],
			"min": [ 0, 0, -50 ],
			"type": "VEC3"
		},
		{
			"bufferView": 3,
			"byteOffset": 152100,
			"componentType": 5126,
			"count": 4225,
			"max": [ 0, 1, 0 ],
			"min": [ 0, 1, 0 ],
			"type": "VEC3"
		},
		{
			"bufferView": 2,
			"byteOffset": 33800,
			"componentType": 5126,
			"count": 4225,
			"max": [ 1, 1 ],
			"min": [ 0, 0 ],
			"type": "VEC2"
		},
		{
			"bufferView": 4,
			"byteOffset": 67600,
			"componentType": 5126,
			"count": 4225,
			"max": [ 0, 0, -1, -1 ],
			"min": [ 0, 0, -1, -1 ],
			"type": "VEC4"
		},
		{
			"bufferView": 0,
			"byteOffset": 49152,
			"componentType": 5123,
			"count": 24576,
			"max": [ 4224 ],
			"min": [ 0 ],
			"type": "SCALAR"
		},
		{
			"bufferView": 1,
			"byteOffset": 0,
			"componentType": 5126,
			"count": 30,
			"max": [ 0.9666667 ],
			"min": [ 0 ],
			"type": "SCALAR"
		},
		{
			"bufferView": 5,
			"byteOffset": 0,
			"componentType": 5126,
			"count": 30,
			"max": [ 0, -0.6, 0 ],
			"min": [ 0, -4.586963, 0 ],
			"type": "VEC3"
		},
		{
			"bufferView": 6,
			"byteOffset": 0,
			"componentType": 5126,
			"count": 30,
			"max": [ 0, 0, 0, -1 ],
			"min": [ 0, 0, 0, -1 ],
			"type": "VEC4"
		},
		{
			"bufferView": 5,
			"byteOffset": 360,
			"componentType": 5126,
			"count": 30,
			"max": [ 1, 1, 1 ],
			"min": [ 1, 1, 1 ],
			"type": "VEC3"
		},
		{
			"bufferView": 1,
			"byteOffset": 120,
			"componentType": 5126,
			"count": 30,
			"max": [ 0.9666667 ],
			"min": [ 0 ],
			"type": "SCALAR"
		},
		{
			"bufferView": 5,
			"byteOffset": 720,
			"componentType": 5126,
			"count": 30,
			"max": [ 0, 0, 0 ],
			"min": [ 0, 0, 0 ],
			"type": "VEC3"
		},
		{
			"bufferView": 6,
			"byteOffset": 480,
			"componentType": 5126,
			"count": 30,
			"max": [ 0, 0, 0, -1 ],
			"min": [ 0, 0, 0, -1 ],
			"type": "VEC4"
		},
		{
			"bufferView": 5,
			"byteOffset": 1080,
			"componentType": 5126,
			"count": 30,
			"max": [ 1, 1, 1 ],
			"min": [ 1, 1, 1 ],
			"type": "VEC3"
		}
	],
	"animations": [
		{
			"name": "",
			"channels": [
				{
					"sampler": 0,
					"target": {
						"node": 5,
						"path": "translation"
					}
				},
				{
					"sampler": 1,
					"target": {
						"node": 5,
						"path": "rotation"
					}
				},
				{
					"sampler": 2,
					"target": {
						"node": 5,
						"path": "scale"
					}
				},
				{
					"sampler": 3,
					"target": {
						"node": 1,
						"path": "translation"
					}
				},
				{
					"sampler": 4,
					"target": {
						"node": 1,
						"path": "rotation"
					}
				},
				{
					"sampler": 5,
					"target": {
						"node": 1,
						"path": "scale"
					}
				}
			],
			"samplers": [
				{
					"input": 10,
					"interpolation": "LINEAR",
					"output": 11
				},
				{
					"input": 10,
					"interpolation": "LINEAR",
					"output": 12
				},
				{
					"input": 10,
					"interpolation": "LINEAR",
					"output": 13
				},
				{
					"input": 14,
					"interpolation": "LINEAR",
					"output": 15
				},
				{
					"input": 14,
					"interpolation": "LINEAR",
					"output": 16
				},
				{
					"input": 14,
					"interpolation": "LINEAR",
					"output": 17
				}
			]
		}
	],
	"buffers": [
		{
			"byteLength": 506544,
			"uri": "风蚀雅丹.bin"
		}
	],
	"bufferViews": [
		{
			"buffer": 0,
			"byteLength": 98304,
			"target": 34963,
			"byteOffset": 405840
		},
		{
			"buffer": 0,
			"byteLength": 240,
			"byteOffset": 0
		},
		{
			"buffer": 0,
			"byteLength": 67600,
			"target": 34962,
			"byteStride": 8,
			"byteOffset": 240
		},
		{
			"buffer": 0,
			"byteLength": 202800,
			"target": 34962,
			"byteStride": 12,
			"byteOffset": 67840
		},
		{
			"buffer": 0,
			"byteLength": 135200,
			"target": 34962,
			"byteStride": 16,
			"byteOffset": 270640
		},
		{
			"buffer": 0,
			"byteLength": 1440,
			"byteStride": 12,
			"byteOffset": 504144
		},
		{
			"buffer": 0,
			"byteLength": 960,
			"byteStride": 16,
			"byteOffset": 505584
		}
	],
	"images": [
		{
			"uri": "/Assets/河曲型河漫滩/Textures/timg (1).jpg"
		},
		{
			"uri": "/Assets/河曲型河漫滩/Textures/GoodDirt.jpg"
		}
	],
	"materials": [
		{
			"pbrMetallicRoughness": {
				"baseColorTexture" : {
					"index" : 0,
					"texCoord" : 0
				},
				"baseColorFactor": [1, 1, 1, 1],
				"metallicFactor": 0,
				"roughnessFactor": 0.5
			},
			"emissiveFactor": [0, 0, 0],
			"doubleSided": false,
			"name": "y"
		},
		{
			"pbrMetallicRoughness": {
				"baseColorTexture" : {
					"index" : 1,
					"texCoord" : 0
				},
				"baseColorFactor": [1, 1, 1, 1],
				"metallicFactor": 0,
				"roughnessFactor": 0.5
			},
			"emissiveFactor": [0, 0, 0],
			"doubleSided": false,
			"name": ""
		}
	],
	"meshes": [
		{
			"name": "mesh_default_11152default",
			"primitives": [
				{
					"attributes": {
						"POSITION": 0,
						"NORMAL": 1,
						"TEXCOORD_0": 2,
						"TANGENT": 3
					},
					"indices": 4,
					"material": 0,
					"mode": 4
				}
			]
		},
		{
			"name": "mesh_default_11162default",
			"primitives": [
				{
					"attributes": {
						"POSITION": 5,
						"NORMAL": 6,
						"TEXCOORD_0": 7,
						"TANGENT": 8
					},
					"indices": 9,
					"material": 1,
					"mode": 4
				}
			]
		}
	],
	"nodes": [
		{
			"name": "UnityGlTF_root",
			"children": [
				4
			]
		},
		{
			"name": "node__-2096",
			"children": [
				3
			]
		},
		{
			"name": "node_default_-2100",
			"mesh": 0
		},
		{
			"name": "node_default_-2104",
			"mesh": 1
		},
		{
			"name": "node__-2090",
			"children": [
				5,
				1
			],
			"matrix": [1, 0, 0, 0, 0, 1, 0, 0, 0, 0, 1, 0, 37.01531, 140.1198, -393.3663, 1]
		},
		{
			"name": "node_Terrain (1)_-2094",
			"children": [
				2
			],
			"translation": [ 0, -0.6, 0]
		}
	],
	"samplers": [
		{
			"magFilter": 9729,
			"minFilter": 9985,
			"wrapS": 10497,
			"wrapT": 10497
		}
	],
	"scenes": [
		{
			"name":"defaultScene",
			"nodes": [
				0
			]
		}
	],
	"scene": 0,
	"textures": [
		{
			"sampler": 0,
			"source": 0
		},
		{
			"sampler": 0,
			"source": 1
		}
	]
}