{
	"asset": {
		"generator": "Unity 2018.3.11f1",
		"extras": {
			"exporterVersion" : "2.2.1"
		},
		"version": "2.0"
	},
	"accessors": [
		{
			"bufferView": 3,
			"byteOffset": 0,
			"componentType": 5126,
			"count": 1472,
			"max": [ 0.1523438, 0.3857422, 0.04153676 ],
			"min": [ -0.1523438, -0.3857422, -0.04153674 ],
			"type": "VEC3"
		},
		{
			"bufferView": 3,
			"byteOffset": 17664,
			"componentType": 5126,
			"count": 1472,
			"max": [ 0.9999861, 0.9994925, 1 ],
			"min": [ -0.9999703, -0.9983357, -1 ],
			"type": "VEC3"
		},
		{
			"bufferView": 4,
			"byteOffset": 0,
			"componentType": 5126,
			"count": 1472,
			"max": [ 1, 0, 0, 1 ],
			"min": [ 1, 0, 0, 1 ],
			"type": "VEC4"
		},
		{
			"bufferView": 0,
			"byteOffset": 0,
			"componentType": 5123,
			"count": 663,
			"max": [ 218 ],
			"min": [ 0 ],
			"type": "SCALAR"
		},
		{
			"bufferView": 0,
			"byteOffset": 1326,
			"componentType": 5123,
			"count": 2508,
			"max": [ 1471 ],
			"min": [ 219 ],
			"type": "SCALAR"
		},
		{
			"bufferView": 1,
			"byteOffset": 0,
			"componentType": 5126,
			"count": 30,
			"max": [ 0.9666667 ],
			"min": [ 0 ],
			"type": "SCALAR"
		},
		{
			"bufferView": 5,
			"byteOffset": 0,
			"componentType": 5126,
			"count": 30,
			"max": [ 0, 0, 0 ],
			"min": [ 0, 0, 0 ],
			"type": "VEC3"
		},
		{
			"bufferView": 6,
			"byteOffset": 0,
			"componentType": 5126,
			"count": 30,
			"max": [ 0.7071068, 0.7071068, -1.545431E-08, -1.545431E-08 ],
			"min": [ 0.7071068, 0.7071068, -1.545431E-08, -1.545431E-08 ],
			"type": "VEC4"
		},
		{
			"bufferView": 5,
			"byteOffset": 360,
			"componentType": 5126,
			"count": 30,
			"max": [ 1.6, 1.6, 1.6 ],
			"min": [ 1.500001, 1.500001, 1.500001 ],
			"type": "VEC3"
		},
		{
			"bufferView": 3,
			"byteOffset": 35328,
			"componentType": 5126,
			"count": 24,
			"max": [ 0.5, 0.5, 0.5 ],
			"min": [ -0.5, -0.5, -0.5 ],
			"type": "VEC3"
		},
		{
			"bufferView": 3,
			"byteOffset": 35616,
			"componentType": 5126,
			"count": 24,
			"max": [ 1, 1, 1 ],
			"min": [ -1, -1, -1 ],
			"type": "VEC3"
		},
		{
			"bufferView": 2,
			"byteOffset": 0,
			"componentType": 5126,
			"count": 24,
			"max": [ 1, 1 ],
			"min": [ 0, 0 ],
			"type": "VEC2"
		},
		{
			"bufferView": 2,
			"byteOffset": 192,
			"componentType": 5126,
			"count": 24,
			"max": [ 0.9966581, 0.6528358 ],
			"min": [ 0.004055766, 0.004055766 ],
			"type": "VEC2"
		},
		{
			"bufferView": 4,
			"byteOffset": 23552,
			"componentType": 5126,
			"count": 24,
			"max": [ 0, 0, 1, 1 ],
			"min": [ -1, 0, -1, 1 ],
			"type": "VEC4"
		},
		{
			"bufferView": 0,
			"byteOffset": 6342,
			"componentType": 5123,
			"count": 36,
			"max": [ 23 ],
			"min": [ 0 ],
			"type": "SCALAR"
		},
		{
			"bufferView": 3,
			"byteOffset": 35904,
			"componentType": 5126,
			"count": 24,
			"max": [ 0.5, 0.5, 0.5 ],
			"min": [ -0.5, -0.5, -0.5 ],
			"type": "VEC3"
		},
		{
			"bufferView": 3,
			"byteOffset": 36192,
			"componentType": 5126,
			"count": 24,
			"max": [ 1, 1, 1 ],
			"min": [ -1, -1, -1 ],
			"type": "VEC3"
		},
		{
			"bufferView": 2,
			"byteOffset": 384,
			"componentType": 5126,
			"count": 24,
			"max": [ 1, 1 ],
			"min": [ 0, 0 ],
			"type": "VEC2"
		},
		{
			"bufferView": 2,
			"byteOffset": 576,
			"componentType": 5126,
			"count": 24,
			"max": [ 0.9966581, 0.6528358 ],
			"min": [ 0.004055766, 0.004055766 ],
			"type": "VEC2"
		},
		{
			"bufferView": 4,
			"byteOffset": 23936,
			"componentType": 5126,
			"count": 24,
			"max": [ 0, 0, 1, 1 ],
			"min": [ -1, 0, -1, 1 ],
			"type": "VEC4"
		},
		{
			"bufferView": 0,
			"byteOffset": 6414,
			"componentType": 5123,
			"count": 36,
			"max": [ 23 ],
			"min": [ 0 ],
			"type": "SCALAR"
		},
		{
			"bufferView": 3,
			"byteOffset": 36480,
			"componentType": 5126,
			"count": 24,
			"max": [ 0.5, 0.5, 0.5 ],
			"min": [ -0.5, -0.5, -0.5 ],
			"type": "VEC3"
		},
		{
			"bufferView": 3,
			"byteOffset": 36768,
			"componentType": 5126,
			"count": 24,
			"max": [ 1, 1, 1 ],
			"min": [ -1, -1, -1 ],
			"type": "VEC3"
		},
		{
			"bufferView": 2,
			"byteOffset": 768,
			"componentType": 5126,
			"count": 24,
			"max": [ 1, 1 ],
			"min": [ 0, 0 ],
			"type": "VEC2"
		},
		{
			"bufferView": 2,
			"byteOffset": 960,
			"componentType": 5126,
			"count": 24,
			"max": [ 0.9966581, 0.6528358 ],
			"min": [ 0.004055766, 0.004055766 ],
			"type": "VEC2"
		},
		{
			"bufferView": 4,
			"byteOffset": 24320,
			"componentType": 5126,
			"count": 24,
			"max": [ 0, 0, 1, 1 ],
			"min": [ -1, 0, -1, 1 ],
			"type": "VEC4"
		},
		{
			"bufferView": 0,
			"byteOffset": 6486,
			"componentType": 5123,
			"count": 36,
			"max": [ 23 ],
			"min": [ 0 ],
			"type": "SCALAR"
		},
		{
			"bufferView": 3,
			"byteOffset": 37056,
			"componentType": 5126,
			"count": 24,
			"max": [ 0.5, 0.5, 0.5 ],
			"min": [ -0.5, -0.5, -0.5 ],
			"type": "VEC3"
		},
		{
			"bufferView": 3,
			"byteOffset": 37344,
			"componentType": 5126,
			"count": 24,
			"max": [ 1, 1, 1 ],
			"min": [ -1, -1, -1 ],
			"type": "VEC3"
		},
		{
			"bufferView": 2,
			"byteOffset": 1152,
			"componentType": 5126,
			"count": 24,
			"max": [ 1, 1 ],
			"min": [ 0, 0 ],
			"type": "VEC2"
		},
		{
			"bufferView": 2,
			"byteOffset": 1344,
			"componentType": 5126,
			"count": 24,
			"max": [ 0.9966581, 0.6528358 ],
			"min": [ 0.004055766, 0.004055766 ],
			"type": "VEC2"
		},
		{
			"bufferView": 4,
			"byteOffset": 24704,
			"componentType": 5126,
			"count": 24,
			"max": [ 0, 0, 1, 1 ],
			"min": [ -1, 0, -1, 1 ],
			"type": "VEC4"
		},
		{
			"bufferView": 0,
			"byteOffset": 6558,
			"componentType": 5123,
			"count": 36,
			"max": [ 23 ],
			"min": [ 0 ],
			"type": "SCALAR"
		},
		{
			"bufferView": 3,
			"byteOffset": 37632,
			"componentType": 5126,
			"count": 24,
			"max": [ 0.5, 0.5, 0.5 ],
			"min": [ -0.5, -0.5, -0.5 ],
			"type": "VEC3"
		},
		{
			"bufferView": 3,
			"byteOffset": 37920,
			"componentType": 5126,
			"count": 24,
			"max": [ 1, 1, 1 ],
			"min": [ -1, -1, -1 ],
			"type": "VEC3"
		},
		{
			"bufferView": 2,
			"byteOffset": 1536,
			"componentType": 5126,
			"count": 24,
			"max": [ 1, 1 ],
			"min": [ 0, 0 ],
			"type": "VEC2"
		},
		{
			"bufferView": 2,
			"byteOffset": 1728,
			"componentType": 5126,
			"count": 24,
			"max": [ 0.9966581, 0.6528358 ],
			"min": [ 0.004055766, 0.004055766 ],
			"type": "VEC2"
		},
		{
			"bufferView": 4,
			"byteOffset": 25088,
			"componentType": 5126,
			"count": 24,
			"max": [ 0, 0, 1, 1 ],
			"min": [ -1, 0, -1, 1 ],
			"type": "VEC4"
		},
		{
			"bufferView": 0,
			"byteOffset": 6630,
			"componentType": 5123,
			"count": 36,
			"max": [ 23 ],
			"min": [ 0 ],
			"type": "SCALAR"
		},
		{
			"bufferView": 3,
			"byteOffset": 38208,
			"componentType": 5126,
			"count": 24,
			"max": [ 0.5, 0.5, 0.5 ],
			"min": [ -0.5, -0.5, -0.5 ],
			"type": "VEC3"
		},
		{
			"bufferView": 3,
			"byteOffset": 38496,
			"componentType": 5126,
			"count": 24,
			"max": [ 1, 1, 1 ],
			"min": [ -1, -1, -1 ],
			"type": "VEC3"
		},
		{
			"bufferView": 2,
			"byteOffset": 1920,
			"componentType": 5126,
			"count": 24,
			"max": [ 1, 1 ],
			"min": [ 0, 0 ],
			"type": "VEC2"
		},
		{
			"bufferView": 2,
			"byteOffset": 2112,
			"componentType": 5126,
			"count": 24,
			"max": [ 0.9966581, 0.6528358 ],
			"min": [ 0.004055766, 0.004055766 ],
			"type": "VEC2"
		},
		{
			"bufferView": 4,
			"byteOffset": 25472,
			"componentType": 5126,
			"count": 24,
			"max": [ 0, 0, 1, 1 ],
			"min": [ -1, 0, -1, 1 ],
			"type": "VEC4"
		},
		{
			"bufferView": 0,
			"byteOffset": 6702,
			"componentType": 5123,
			"count": 36,
			"max": [ 23 ],
			"min": [ 0 ],
			"type": "SCALAR"
		}
	],
	"animations": [
		{
			"name": "",
			"channels": [
				{
					"sampler": 0,
					"target": {
						"node": 2,
						"path": "translation"
					}
				},
				{
					"sampler": 1,
					"target": {
						"node": 2,
						"path": "rotation"
					}
				},
				{
					"sampler": 2,
					"target": {
						"node": 2,
						"path": "scale"
					}
				}
			],
			"samplers": [
				{
					"input": 5,
					"interpolation": "LINEAR",
					"output": 6
				},
				{
					"input": 5,
					"interpolation": "LINEAR",
					"output": 7
				},
				{
					"input": 5,
					"interpolation": "LINEAR",
					"output": 8
				}
			]
		}
	],
	"buffers": [
		{
			"byteLength": 75038,
			"uri": "中度霾.bin"
		}
	],
	"bufferViews": [
		{
			"buffer": 0,
			"byteLength": 6774,
			"target": 34963,
			"byteOffset": 67064
		},
		{
			"buffer": 0,
			"byteLength": 120,
			"byteOffset": 0
		},
		{
			"buffer": 0,
			"byteLength": 2304,
			"target": 34962,
			"byteStride": 8,
			"byteOffset": 120
		},
		{
			"buffer": 0,
			"byteLength": 38784,
			"target": 34962,
			"byteStride": 12,
			"byteOffset": 2424
		},
		{
			"buffer": 0,
			"byteLength": 25856,
			"target": 34962,
			"byteStride": 16,
			"byteOffset": 41208
		},
		{
			"buffer": 0,
			"byteLength": 720,
			"byteStride": 12,
			"byteOffset": 73838
		},
		{
			"buffer": 0,
			"byteLength": 480,
			"byteStride": 16,
			"byteOffset": 74558
		}
	],
	"materials": [
		{
			"pbrMetallicRoughness": {
				"baseColorFactor": [0.5882353, 0.5882353, 0.5882353, 1],
				"metallicFactor": 0,
				"roughnessFactor": 1
			},
			"emissiveFactor": [0, 0, 0],
			"doubleSided": false,
			"name": "01 - Default"
		},
		{
			"pbrMetallicRoughness": {
				"baseColorFactor": [0.588, 0.588, 0.588, 1],
				"metallicFactor": 0,
				"roughnessFactor": 1
			},
			"emissiveFactor": [0, 0, 0],
			"doubleSided": false,
			"name": "Material #25"
		},
		{
			"pbrMetallicRoughness": {
				"baseColorFactor": [1, 1, 1, 1],
				"metallicFactor": 0,
				"roughnessFactor": 0.5
			},
			"emissiveFactor": [0, 0, 0],
			"doubleSided": false,
			"name": "Default-Material"
		}
	],
	"meshes": [
		{
			"name": "mesh_Text001_10994",
			"primitives": [
				{
					"attributes": {
						"POSITION": 0,
						"NORMAL": 1,
						"TANGENT": 2
					},
					"indices": 3,
					"material": 0,
					"mode": 4
				},
				{
					"attributes": {
						"POSITION": 0,
						"NORMAL": 1,
						"TANGENT": 2
					},
					"indices": 4,
					"material": 1,
					"mode": 4
				}
			]
		},
		{
			"name": "mesh_Cube_526Cube",
			"primitives": [
				{
					"attributes": {
						"POSITION": 9,
						"NORMAL": 10,
						"TEXCOORD_0": 11,
						"TEXCOORD_1": 12,
						"TANGENT": 13
					},
					"indices": 14,
					"material": 2,
					"mode": 4
				}
			]
		},
		{
			"name": "mesh_Cube_526Cube (1)",
			"primitives": [
				{
					"attributes": {
						"POSITION": 15,
						"NORMAL": 16,
						"TEXCOORD_0": 17,
						"TEXCOORD_1": 18,
						"TANGENT": 19
					},
					"indices": 20,
					"material": 2,
					"mode": 4
				}
			]
		},
		{
			"name": "mesh_Cube_526Cube (2)",
			"primitives": [
				{
					"attributes": {
						"POSITION": 21,
						"NORMAL": 22,
						"TEXCOORD_0": 23,
						"TEXCOORD_1": 24,
						"TANGENT": 25
					},
					"indices": 26,
					"material": 2,
					"mode": 4
				}
			]
		},
		{
			"name": "mesh_Cube_526Cube (3)",
			"primitives": [
				{
					"attributes": {
						"POSITION": 27,
						"NORMAL": 28,
						"TEXCOORD_0": 29,
						"TEXCOORD_1": 30,
						"TANGENT": 31
					},
					"indices": 32,
					"material": 2,
					"mode": 4
				}
			]
		},
		{
			"name": "mesh_Cube_526Cube (4)",
			"primitives": [
				{
					"attributes": {
						"POSITION": 33,
						"NORMAL": 34,
						"TEXCOORD_0": 35,
						"TEXCOORD_1": 36,
						"TANGENT": 37
					},
					"indices": 38,
					"material": 2,
					"mode": 4
				}
			]
		},
		{
			"name": "mesh_Cube_526Cube (5)",
			"primitives": [
				{
					"attributes": {
						"POSITION": 39,
						"NORMAL": 40,
						"TEXCOORD_0": 41,
						"TEXCOORD_1": 42,
						"TANGENT": 43
					},
					"indices": 44,
					"material": 2,
					"mode": 4
				}
			]
		}
	],
	"nodes": [
		{
			"name": "UnityGlTF_root",
			"children": [
				1
			]
		},
		{
			"name": "node__-3568",
			"children": [
				2,
				3,
				4,
				5,
				6,
				7,
				8
			],
			"matrix": [-1.192093E-07, 0, -1, 0, 0, 1, 0, 0, 1, 0, -1.192093E-07, 0, -11.78308, -6.000077, 2.119098, 1]
		},
		{
			"name": "node__-3570",
			"mesh": 0,
			"scale": [ 1.500001, 1.500001, 1.500001],
			"rotation": [0.7071068, 0.7071068, -1.545431E-08, -1.545431E-08]
		},
		{
			"name": "node_Cube_-3572",
			"mesh": 1,
			"translation": [ 0.389, -0.286, 0],
			"scale": [ 0.2622476, 0.059448, 0.1]
		},
		{
			"name": "node_Cube (1)_-3574",
			"mesh": 2,
			"translation": [ 0.002, -0.286, 0],
			"scale": [ 0.2622476, 0.059448, 0.1]
		},
		{
			"name": "node_Cube (2)_-3576",
			"mesh": 3,
			"translation": [ -0.394, -0.286, 0],
			"scale": [ 0.2622476, 0.059448, 0.1]
		},
		{
			"name": "node_Cube (3)_-3578",
			"mesh": 4,
			"translation": [ 0.392, 0.303, 0],
			"scale": [ 0.2622476, 0.059448, 0.1]
		},
		{
			"name": "node_Cube (4)_-3580",
			"mesh": 5,
			"translation": [ 0.005, 0.303, 0],
			"scale": [ 0.2622476, 0.059448, 0.1]
		},
		{
			"name": "node_Cube (5)_-3582",
			"mesh": 6,
			"translation": [ -0.391, 0.303, 0],
			"scale": [ 0.2622476, 0.059448, 0.1]
		}
	],
	"scenes": [
		{
			"name":"defaultScene",
			"nodes": [
				0
			]
		}
	],
	"scene": 0
}