{
	"asset": {
		"generator": "Unity 2018.3.11f1",
		"extras": {
			"exporterVersion" : "2.2.1"
		},
		"version": "2.0"
	},
	"accessors": [
		{
			"bufferView": 3,
			"byteOffset": 0,
			"componentType": 5126,
			"count": 24,
			"max": [ 0.5, 0.5, 0.5 ],
			"min": [ -0.5, -0.5, -0.5 ],
			"type": "VEC3"
		},
		{
			"bufferView": 3,
			"byteOffset": 288,
			"componentType": 5126,
			"count": 24,
			"max": [ 1, 1, 1 ],
			"min": [ -1, -1, -1 ],
			"type": "VEC3"
		},
		{
			"bufferView": 2,
			"byteOffset": 0,
			"componentType": 5126,
			"count": 24,
			"max": [ 1, 1 ],
			"min": [ 0, 0 ],
			"type": "VEC2"
		},
		{
			"bufferView": 2,
			"byteOffset": 192,
			"componentType": 5126,
			"count": 24,
			"max": [ 0.9966581, 0.6528358 ],
			"min": [ 0.004055766, 0.004055766 ],
			"type": "VEC2"
		},
		{
			"bufferView": 4,
			"byteOffset": 0,
			"componentType": 5126,
			"count": 24,
			"max": [ 0, 0, 1, 1 ],
			"min": [ -1, 0, -1, 1 ],
			"type": "VEC4"
		},
		{
			"bufferView": 0,
			"byteOffset": 0,
			"componentType": 5123,
			"count": 36,
			"max": [ 23 ],
			"min": [ 0 ],
			"type": "SCALAR"
		},
		{
			"bufferView": 3,
			"byteOffset": 576,
			"componentType": 5126,
			"count": 24,
			"max": [ 0.508, 0.508, 0 ],
			"min": [ -0.508, -0.508, -0.9906 ],
			"type": "VEC3"
		},
		{
			"bufferView": 3,
			"byteOffset": 864,
			"componentType": 5126,
			"count": 24,
			"max": [ 1, 1, 1 ],
			"min": [ -1, -0.7126376, -1 ],
			"type": "VEC3"
		},
		{
			"bufferView": 2,
			"byteOffset": 384,
			"componentType": 5126,
			"count": 24,
			"max": [ 1, 1 ],
			"min": [ 0, 0 ],
			"type": "VEC2"
		},
		{
			"bufferView": 4,
			"byteOffset": 384,
			"componentType": 5126,
			"count": 24,
			"max": [ 1, 1, 0, 1 ],
			"min": [ -1, -1, 0, 1 ],
			"type": "VEC4"
		},
		{
			"bufferView": 0,
			"byteOffset": 72,
			"componentType": 5123,
			"count": 36,
			"max": [ 23 ],
			"min": [ 0 ],
			"type": "SCALAR"
		},
		{
			"bufferView": 3,
			"byteOffset": 1152,
			"componentType": 5126,
			"count": 100,
			"max": [ 0.508, 0.3278717, -0.6095859 ],
			"min": [ -0.508, -0.1315078, -1.072825 ],
			"type": "VEC3"
		},
		{
			"bufferView": 3,
			"byteOffset": 2352,
			"componentType": 5126,
			"count": 100,
			"max": [ 1, 0.7014315, 0.6987422 ],
			"min": [ -1, -0.7126387, -0.712535 ],
			"type": "VEC3"
		},
		{
			"bufferView": 2,
			"byteOffset": 576,
			"componentType": 5126,
			"count": 100,
			"max": [ 1, 0.8571607 ],
			"min": [ 0, 0.4974713 ],
			"type": "VEC2"
		},
		{
			"bufferView": 4,
			"byteOffset": 768,
			"componentType": 5126,
			"count": 100,
			"max": [ 1, 0, 0, 1 ],
			"min": [ -1, 0, 0, 1 ],
			"type": "VEC4"
		},
		{
			"bufferView": 0,
			"byteOffset": 144,
			"componentType": 5123,
			"count": 174,
			"max": [ 99 ],
			"min": [ 0 ],
			"type": "SCALAR"
		},
		{
			"bufferView": 1,
			"byteOffset": 0,
			"componentType": 5126,
			"count": 30,
			"max": [ 0.9666667 ],
			"min": [ 0 ],
			"type": "SCALAR"
		},
		{
			"bufferView": 5,
			"byteOffset": 0,
			"componentType": 5126,
			"count": 30,
			"max": [ 0.5707958, -0.3602314, 0.1227211 ],
			"min": [ 0.5690058, -0.5144956, 0.03741491 ],
			"type": "VEC3"
		},
		{
			"bufferView": 6,
			"byteOffset": 0,
			"componentType": 5126,
			"count": 30,
			"max": [ -0.6253323, 0, 0, -0.7071067 ],
			"min": [ -0.7071068, 0, 0, -0.7803586 ],
			"type": "VEC4"
		},
		{
			"bufferView": 5,
			"byteOffset": 360,
			"componentType": 5126,
			"count": 30,
			"max": [ 1, 1.569438, 1 ],
			"min": [ 1, 1, 1 ],
			"type": "VEC3"
		},
		{
			"bufferView": 3,
			"byteOffset": 3552,
			"componentType": 5126,
			"count": 11,
			"max": [ 0.508, 0.04520092, -0.1167909 ],
			"min": [ -0.508, -0.508, -0.6787487 ],
			"type": "VEC3"
		},
		{
			"bufferView": 3,
			"byteOffset": 3684,
			"componentType": 5126,
			"count": 11,
			"max": [ 5.458393E-07, -0.7126372, -0.7015324 ],
			"min": [ -7.358376E-07, -0.7126376, -0.7015327 ],
			"type": "VEC3"
		},
		{
			"bufferView": 2,
			"byteOffset": 1376,
			"componentType": 5126,
			"count": 11,
			"max": [ 1, 0.5672904 ],
			"min": [ 0, 0 ],
			"type": "VEC2"
		},
		{
			"bufferView": 4,
			"byteOffset": 2368,
			"componentType": 5126,
			"count": 11,
			"max": [ -1, 0, 0, 1 ],
			"min": [ -1, 0, 0, 1 ],
			"type": "VEC4"
		},
		{
			"bufferView": 0,
			"byteOffset": 492,
			"componentType": 5123,
			"count": 27,
			"max": [ 10 ],
			"min": [ 0 ],
			"type": "SCALAR"
		},
		{
			"bufferView": 3,
			"byteOffset": 3816,
			"componentType": 5126,
			"count": 65,
			"max": [ 0.508, 0.4671634, -0.9009429 ],
			"min": [ -0.508, 0.157958, -1.211714 ],
			"type": "VEC3"
		},
		{
			"bufferView": 3,
			"byteOffset": 4596,
			"componentType": 5126,
			"count": 65,
			"max": [ 1, 0.7015323, 0.7125352 ],
			"min": [ -1, -0.7126419, -0.7126378 ],
			"type": "VEC3"
		},
		{
			"bufferView": 2,
			"byteOffset": 1464,
			"componentType": 5126,
			"count": 65,
			"max": [ 1, 1 ],
			"min": [ 0, 0.7915928 ],
			"type": "VEC2"
		},
		{
			"bufferView": 4,
			"byteOffset": 2544,
			"componentType": 5126,
			"count": 65,
			"max": [ 1, 0, 0, 1 ],
			"min": [ -1, 0, 0, 1 ],
			"type": "VEC4"
		},
		{
			"bufferView": 0,
			"byteOffset": 546,
			"componentType": 5123,
			"count": 111,
			"max": [ 64 ],
			"min": [ 0 ],
			"type": "SCALAR"
		}
	],
	"animations": [
		{
			"name": "003",
			"channels": [
				{
					"sampler": 0,
					"target": {
						"node": 4,
						"path": "translation"
					}
				},
				{
					"sampler": 1,
					"target": {
						"node": 4,
						"path": "rotation"
					}
				},
				{
					"sampler": 2,
					"target": {
						"node": 4,
						"path": "scale"
					}
				}
			],
			"samplers": [
				{
					"input": 16,
					"interpolation": "LINEAR",
					"output": 17
				},
				{
					"input": 16,
					"interpolation": "LINEAR",
					"output": 18
				},
				{
					"input": 16,
					"interpolation": "LINEAR",
					"output": 19
				}
			]
		}
	],
	"buffers": [
		{
			"byteLength": 13032,
			"uri": "岩层蠕动.bin"
		}
	],
	"bufferViews": [
		{
			"buffer": 0,
			"byteLength": 768,
			"target": 34963,
			"byteOffset": 11064
		},
		{
			"buffer": 0,
			"byteLength": 120,
			"byteOffset": 0
		},
		{
			"buffer": 0,
			"byteLength": 1984,
			"target": 34962,
			"byteStride": 8,
			"byteOffset": 120
		},
		{
			"buffer": 0,
			"byteLength": 5376,
			"target": 34962,
			"byteStride": 12,
			"byteOffset": 2104
		},
		{
			"buffer": 0,
			"byteLength": 3584,
			"target": 34962,
			"byteStride": 16,
			"byteOffset": 7480
		},
		{
			"buffer": 0,
			"byteLength": 720,
			"byteStride": 12,
			"byteOffset": 11832
		},
		{
			"buffer": 0,
			"byteLength": 480,
			"byteStride": 16,
			"byteOffset": 12552
		}
	],
	"images": [
		{
			"uri": "/Assets/坡地重力地貌/蠕动/Textures/tur4.jpg"
		},
		{
			"uri": "/Assets/坡地重力地貌/蠕动/Textures/shanti1.jpg"
		},
		{
			"uri": "/Assets/坡地重力地貌/蠕动/Textures/creep1.fbm/timg2.jpg"
		}
	],
	"materials": [
		{
			"pbrMetallicRoughness": {
				"baseColorTexture" : {
					"index" : 0,
					"texCoord" : 0
				},
				"baseColorFactor": [1, 1, 1, 1],
				"metallicFactor": 0,
				"roughnessFactor": 0.5
			},
			"emissiveFactor": [0, 0, 0],
			"doubleSided": false,
			"name": "tur4"
		},
		{
			"pbrMetallicRoughness": {
				"baseColorTexture" : {
					"index" : 1,
					"texCoord" : 0
				},
				"baseColorFactor": [1, 1, 1, 1],
				"metallicFactor": 0,
				"roughnessFactor": 0.5
			},
			"emissiveFactor": [0, 0, 0],
			"doubleSided": false,
			"name": "shanti1"
		},
		{
			"pbrMetallicRoughness": {
				"baseColorTexture" : {
					"index" : 2,
					"texCoord" : 0
				},
				"baseColorFactor": [0.5882353, 0.5882353, 0.5882353, 1],
				"metallicFactor": 0,
				"roughnessFactor": 1
			},
			"emissiveFactor": [0, 0, 0],
			"doubleSided": false,
			"name": "timg2"
		},
		{
			"pbrMetallicRoughness": {
				"baseColorFactor": [1, 1, 1, 1],
				"metallicFactor": 0,
				"roughnessFactor": 1
			},
			"emissiveFactor": [0, 0, 0],
			"doubleSided": false,
			"name": "No Name"
		}
	],
	"meshes": [
		{
			"name": "mesh_Cube_528Cube",
			"primitives": [
				{
					"attributes": {
						"POSITION": 0,
						"NORMAL": 1,
						"TEXCOORD_0": 2,
						"TEXCOORD_1": 3,
						"TANGENT": 4
					},
					"indices": 5,
					"material": 0,
					"mode": 4
				}
			]
		},
		{
			"name": "mesh_Box001_36054Box001",
			"primitives": [
				{
					"attributes": {
						"POSITION": 6,
						"NORMAL": 7,
						"TEXCOORD_0": 8,
						"TANGENT": 9
					},
					"indices": 10,
					"material": 1,
					"mode": 4
				}
			]
		},
		{
			"name": "mesh_003_36056003",
			"primitives": [
				{
					"attributes": {
						"POSITION": 11,
						"NORMAL": 12,
						"TEXCOORD_0": 13,
						"TANGENT": 14
					},
					"indices": 15,
					"material": 2,
					"mode": 4
				}
			]
		},
		{
			"name": "mesh_004_36058004",
			"primitives": [
				{
					"attributes": {
						"POSITION": 20,
						"NORMAL": 21,
						"TEXCOORD_0": 22,
						"TANGENT": 23
					},
					"indices": 24,
					"material": 3,
					"mode": 4
				}
			]
		},
		{
			"name": "mesh_002_36062002",
			"primitives": [
				{
					"attributes": {
						"POSITION": 25,
						"NORMAL": 26,
						"TEXCOORD_0": 27,
						"TANGENT": 28
					},
					"indices": 29,
					"material": 2,
					"mode": 4
				}
			]
		}
	],
	"nodes": [
		{
			"name": "UnityGlTF_root",
			"children": [
				2
			]
		},
		{
			"name": "node_Cube_-88718",
			"mesh": 0,
			"translation": [ 0.45, -0.6406679, -0.61],
			"scale": [ 2, 0.09999999, 2]
		},
		{
			"name": "node__-88710",
			"children": [
				5,
				3,
				1
			],
			"matrix": [1, 0, 0, 0, 0, 1, 0, 0, 0, 0, 1, 0, 5.067193, 1.893615, -0.76, 1]
		},
		{
			"name": "node_Box001_-88714",
			"mesh": 1,
			"translation": [ 0.4261537, -0.6650866, -0.5909665],
			"rotation": [-0.7071068, 0, 0, -0.7071068]
		},
		{
			"name": "node_003_-88730",
			"mesh": 2,
			"translation": [ 0.5707958, -0.3602314, 0.03741491],
			"rotation": [-0.7071068, 0, 0, -0.7071068]
		},
		{
			"name": "node_obj_-88712",
			"children": [
				6,
				4,
				7
			],
			"translation": [ -0.1634847, -0.4423681, -0.6283814]
		},
		{
			"name": "node_004_-88728",
			"mesh": 3,
			"translation": [ 0.5707958, -0.3602314, 0.03741491],
			"rotation": [-0.7071068, 0, 0, -0.7071068]
		},
		{
			"name": "node_002_-88732",
			"mesh": 4,
			"translation": [ 0.5707958, -0.3602314, 0.03741491],
			"rotation": [-0.7071068, 0, 0, -0.7071068]
		}
	],
	"samplers": [
		{
			"magFilter": 9729,
			"minFilter": 9985,
			"wrapS": 10497,
			"wrapT": 10497
		}
	],
	"scenes": [
		{
			"name":"defaultScene",
			"nodes": [
				0
			]
		}
	],
	"scene": 0,
	"textures": [
		{
			"sampler": 0,
			"source": 0
		},
		{
			"sampler": 0,
			"source": 1
		},
		{
			"sampler": 0,
			"source": 2
		}
	]
}