{
	"asset": {
		"generator": "Unity 2018.3.11f1",
		"extras": {
			"exporterVersion" : "2.2.1"
		},
		"version": "2.0"
	},
	"accessors": [
		{
			"bufferView": 3,
			"byteOffset": 0,
			"componentType": 5126,
			"count": 24,
			"max": [ -0.39481, 0.7027644, 0.01712028 ],
			"min": [ -1.13753, -0.6818444, -0.02435082 ],
			"type": "VEC3"
		},
		{
			"bufferView": 3,
			"byteOffset": 288,
			"componentType": 5126,
			"count": 24,
			"max": [ 1, 1, 1 ],
			"min": [ -1, -1, -1 ],
			"type": "VEC3"
		},
		{
			"bufferView": 2,
			"byteOffset": 0,
			"componentType": 5126,
			"count": 24,
			"max": [ 1, 1 ],
			"min": [ 0, 0 ],
			"type": "VEC2"
		},
		{
			"bufferView": 4,
			"byteOffset": 0,
			"componentType": 5126,
			"count": 24,
			"max": [ 1, 1, 0, 1 ],
			"min": [ -1, -1, 0, 1 ],
			"type": "VEC4"
		},
		{
			"bufferView": 0,
			"byteOffset": 0,
			"componentType": 5123,
			"count": 36,
			"max": [ 23 ],
			"min": [ 0 ],
			"type": "SCALAR"
		},
		{
			"bufferView": 3,
			"byteOffset": 576,
			"componentType": 5126,
			"count": 16641,
			"max": [ 0.3844289, 0.6776866, -0.01255078 ],
			"min": [ -0.436231, -0.4461909, -0.1560945 ],
			"type": "VEC3"
		},
		{
			"bufferView": 3,
			"byteOffset": 200268,
			"componentType": 5126,
			"count": 16641,
			"max": [ 0.9716704, 0.9312661, -0.1633204 ],
			"min": [ -0.952258, -0.9427039, -1 ],
			"type": "VEC3"
		},
		{
			"bufferView": 2,
			"byteOffset": 192,
			"componentType": 5126,
			"count": 16641,
			"max": [ 1, 1 ],
			"min": [ 0, 0 ],
			"type": "VEC2"
		},
		{
			"bufferView": 4,
			"byteOffset": 384,
			"componentType": 5126,
			"count": 16641,
			"max": [ -0.1892619, 0.9575319, 0.978777, 1 ],
			"min": [ -1, -0.7726583, -0.9818667, 1 ],
			"type": "VEC4"
		},
		{
			"bufferView": 0,
			"byteOffset": 72,
			"componentType": 5123,
			"count": 98304,
			"max": [ 16640 ],
			"min": [ 0 ],
			"type": "SCALAR"
		},
		{
			"bufferView": 1,
			"byteOffset": 0,
			"componentType": 5126,
			"count": 30,
			"max": [ 0.9666667 ],
			"min": [ 0 ],
			"type": "SCALAR"
		},
		{
			"bufferView": 5,
			"byteOffset": 0,
			"componentType": 5126,
			"count": 30,
			"max": [ 0.2289823, -0.01639438, -0.5500001 ],
			"min": [ 0.2289823, -0.137, -0.5500311 ],
			"type": "VEC3"
		},
		{
			"bufferView": 6,
			"byteOffset": 0,
			"componentType": 5126,
			"count": 30,
			"max": [ -0.7071068, 0, 0, -0.7071068 ],
			"min": [ -0.7071068, 0, 0, -0.7071068 ],
			"type": "VEC4"
		},
		{
			"bufferView": 5,
			"byteOffset": 360,
			"componentType": 5126,
			"count": 30,
			"max": [ 1, 1, 1 ],
			"min": [ 1, 1, 1 ],
			"type": "VEC3"
		},
		{
			"bufferView": 3,
			"byteOffset": 399960,
			"componentType": 5126,
			"count": 5782,
			"max": [ 0.762, 1.057869, 0.2330779 ],
			"min": [ -0.762, -1.016, -0.5043386 ],
			"type": "VEC3"
		},
		{
			"bufferView": 3,
			"byteOffset": 469344,
			"componentType": 5126,
			"count": 5782,
			"max": [ 1, 1, 1 ],
			"min": [ -1, -1, -1 ],
			"type": "VEC3"
		},
		{
			"bufferView": 2,
			"byteOffset": 133320,
			"componentType": 5126,
			"count": 5782,
			"max": [ 1, 1 ],
			"min": [ -3.650784E-07, 0 ],
			"type": "VEC2"
		},
		{
			"bufferView": 4,
			"byteOffset": 266640,
			"componentType": 5126,
			"count": 5782,
			"max": [ 1, 1, 0.8013387, 1 ],
			"min": [ -1, -1, -0.8210125, -1 ],
			"type": "VEC4"
		},
		{
			"bufferView": 0,
			"byteOffset": 196680,
			"componentType": 5123,
			"count": 32394,
			"max": [ 5781 ],
			"min": [ 0 ],
			"type": "SCALAR"
		},
		{
			"bufferView": 3,
			"byteOffset": 538728,
			"componentType": 5126,
			"count": 5766,
			"max": [ 0.762, 1.016, 0 ],
			"min": [ -0.762, -1.016, -0.127 ],
			"type": "VEC3"
		},
		{
			"bufferView": 3,
			"byteOffset": 607920,
			"componentType": 5126,
			"count": 5766,
			"max": [ 1, 1, 1 ],
			"min": [ -1, -1, -1 ],
			"type": "VEC3"
		},
		{
			"bufferView": 2,
			"byteOffset": 179576,
			"componentType": 5126,
			"count": 5766,
			"max": [ 1, 1 ],
			"min": [ -3.650784E-07, 0 ],
			"type": "VEC2"
		},
		{
			"bufferView": 4,
			"byteOffset": 359152,
			"componentType": 5126,
			"count": 5766,
			"max": [ 1, 1, 0, 1 ],
			"min": [ -1, -1, 0, 1 ],
			"type": "VEC4"
		},
		{
			"bufferView": 0,
			"byteOffset": 261468,
			"componentType": 5123,
			"count": 32400,
			"max": [ 5765 ],
			"min": [ 0 ],
			"type": "SCALAR"
		},
		{
			"bufferView": 3,
			"byteOffset": 677112,
			"componentType": 5126,
			"count": 5766,
			"max": [ 0.7152351, 1.022199, 0.2870166 ],
			"min": [ -0.7447804, 0.3862294, 0.09268892 ],
			"type": "VEC3"
		},
		{
			"bufferView": 3,
			"byteOffset": 746304,
			"componentType": 5126,
			"count": 5766,
			"max": [ 1, 1, 1 ],
			"min": [ -1, -1, -1 ],
			"type": "VEC3"
		},
		{
			"bufferView": 2,
			"byteOffset": 225704,
			"componentType": 5126,
			"count": 5766,
			"max": [ 1, 1 ],
			"min": [ -3.650784E-07, 0 ],
			"type": "VEC2"
		},
		{
			"bufferView": 4,
			"byteOffset": 451408,
			"componentType": 5126,
			"count": 5766,
			"max": [ 1, 1, 0, -1 ],
			"min": [ -1, -1, 0, -1 ],
			"type": "VEC4"
		},
		{
			"bufferView": 0,
			"byteOffset": 326268,
			"componentType": 5123,
			"count": 32400,
			"max": [ 5765 ],
			"min": [ 0 ],
			"type": "SCALAR"
		}
	],
	"animations": [
		{
			"name": "Plane004",
			"channels": [
				{
					"sampler": 0,
					"target": {
						"node": 2,
						"path": "translation"
					}
				},
				{
					"sampler": 1,
					"target": {
						"node": 2,
						"path": "rotation"
					}
				},
				{
					"sampler": 2,
					"target": {
						"node": 2,
						"path": "scale"
					}
				}
			],
			"samplers": [
				{
					"input": 10,
					"interpolation": "LINEAR",
					"output": 11
				},
				{
					"input": 10,
					"interpolation": "LINEAR",
					"output": 12
				},
				{
					"input": 10,
					"interpolation": "LINEAR",
					"output": 13
				}
			]
		}
	],
	"buffers": [
		{
			"byteLength": 2023380,
			"uri": "鸟爪形三角洲.bin"
		}
	],
	"bufferViews": [
		{
			"buffer": 0,
			"byteLength": 391068,
			"target": 34963,
			"byteOffset": 1631112
		},
		{
			"buffer": 0,
			"byteLength": 120,
			"byteOffset": 0
		},
		{
			"buffer": 0,
			"byteLength": 271832,
			"target": 34962,
			"byteStride": 8,
			"byteOffset": 120
		},
		{
			"buffer": 0,
			"byteLength": 815496,
			"target": 34962,
			"byteStride": 12,
			"byteOffset": 271952
		},
		{
			"buffer": 0,
			"byteLength": 543664,
			"target": 34962,
			"byteStride": 16,
			"byteOffset": 1087448
		},
		{
			"buffer": 0,
			"byteLength": 720,
			"byteStride": 12,
			"byteOffset": 2022180
		},
		{
			"buffer": 0,
			"byteLength": 480,
			"byteStride": 16,
			"byteOffset": 2022900
		}
	],
	"images": [
		{
			"uri": "/Assets/河口地区地貌/三角洲地貌/Textures/鸟爪型三角洲/xzg-3.jpg"
		},
		{
			"uri": "/Assets/河口地区地貌/三角洲地貌/Textures/Grass (Hill).jpg"
		}
	],
	"materials": [
		{
			"pbrMetallicRoughness": {
				"baseColorTexture" : {
					"index" : 0,
					"texCoord" : 0
				},
				"baseColorFactor": [0.5882353, 0.5882353, 0.5882353, 1],
				"metallicFactor": 0,
				"roughnessFactor": 1
			},
			"emissiveFactor": [0, 0, 0],
			"doubleSided": false,
			"name": "xzg-3"
		},
		{
			"pbrMetallicRoughness": {
				"baseColorTexture" : {
					"index" : 1,
					"texCoord" : 0
				},
				"baseColorFactor": [1, 1, 1, 1],
				"metallicFactor": 0,
				"roughnessFactor": 0.5
			},
			"emissiveFactor": [0, 0, 0],
			"doubleSided": false,
			"name": "Grass (Hill)"
		},
		{
			"pbrMetallicRoughness": {
				"baseColorFactor": [0, 0.1529412, 0.5, 1],
				"metallicFactor": 0,
				"roughnessFactor": 1
			},
			"emissiveFactor": [0, 0, 0],
			"doubleSided": false,
			"name": "Water"
		}
	],
	"meshes": [
		{
			"name": "mesh_Box006_3142Box006",
			"primitives": [
				{
					"attributes": {
						"POSITION": 0,
						"NORMAL": 1,
						"TEXCOORD_0": 2,
						"TANGENT": 3
					},
					"indices": 4,
					"material": 0,
					"mode": 4
				}
			]
		},
		{
			"name": "mesh_Plane004_3144Plane004",
			"primitives": [
				{
					"attributes": {
						"POSITION": 5,
						"NORMAL": 6,
						"TEXCOORD_0": 7,
						"TANGENT": 8
					},
					"indices": 9,
					"material": 0,
					"mode": 4
				}
			]
		},
		{
			"name": "mesh_Box002_3136Box002",
			"primitives": [
				{
					"attributes": {
						"POSITION": 14,
						"NORMAL": 15,
						"TEXCOORD_0": 16,
						"TANGENT": 17
					},
					"indices": 18,
					"material": 1,
					"mode": 4
				}
			]
		},
		{
			"name": "mesh_Box003_3138Box003",
			"primitives": [
				{
					"attributes": {
						"POSITION": 19,
						"NORMAL": 20,
						"TEXCOORD_0": 21,
						"TANGENT": 22
					},
					"indices": 23,
					"material": 1,
					"mode": 4
				}
			]
		},
		{
			"name": "mesh_Box005_3140Box005",
			"primitives": [
				{
					"attributes": {
						"POSITION": 24,
						"NORMAL": 25,
						"TEXCOORD_0": 26,
						"TANGENT": 27
					},
					"indices": 28,
					"material": 2,
					"mode": 4
				}
			]
		}
	],
	"nodes": [
		{
			"name": "UnityGlTF_root",
			"children": [
				4
			]
		},
		{
			"name": "node_Box006_-1102",
			"mesh": 0,
			"translation": [ 0.9825861, 4.511946E-17, 0.2802659],
			"rotation": [-0.7071068, 0, 0, -0.7071068]
		},
		{
			"name": "node_Plane004_-1106",
			"mesh": 1,
			"translation": [ 0.2289823, -0.137, -0.5500311],
			"rotation": [-0.7071068, 0, 0, -0.7071068]
		},
		{
			"name": "node_Box002_-1096",
			"mesh": 2,
			"translation": [ -0.1400178, -0.1949798, -0.03202595],
			"rotation": [-0.7071068, 0, 0, -0.7071068]
		},
		{
			"name": "node__-1092",
			"children": [
				3,
				5,
				6,
				1,
				7,
				2
			],
			"matrix": [1, 0, 0, 0, 0, 1, 0, 0, 0, 0, 1, 0, 0, 0, 0, 1]
		},
		{
			"name": "node_Box003_-1098",
			"mesh": 3,
			"translation": [ -0.1329904, -0.2909342, -0.03185164],
			"rotation": [-0.7071068, 0, 0, -0.7071068]
		},
		{
			"name": "node_Box005_-1100",
			"mesh": 4,
			"translation": [ -0.1037905, 0.1185694, -1.420816],
			"rotation": [-0.7071068, 0, 0, -0.7071068]
		},
		{
			"name": "node_Line001_-1104",
			"translation": [ 0.1998494, 0, -0.3620143],
			"rotation": [-0.7071068, 0, 0, -0.7071068]
		}
	],
	"samplers": [
		{
			"magFilter": 9729,
			"minFilter": 9985,
			"wrapS": 10497,
			"wrapT": 10497
		}
	],
	"scenes": [
		{
			"name":"defaultScene",
			"nodes": [
				0
			]
		}
	],
	"scene": 0,
	"textures": [
		{
			"sampler": 0,
			"source": 0
		},
		{
			"sampler": 0,
			"source": 1
		}
	]
}