{
	"asset": {
		"generator": "Unity 2018.3.11f1",
		"extras": {
			"exporterVersion" : "2.2.1"
		},
		"version": "2.0"
	},
	"accessors": [
		{
			"bufferView": 3,
			"byteOffset": 0,
			"componentType": 5126,
			"count": 132,
			"max": [ 0.2064384, 0.3033656, 0.1746676 ],
			"min": [ -0.2064384, 0.01743237, -0.139459 ],
			"type": "VEC3"
		},
		{
			"bufferView": 3,
			"byteOffset": 1584,
			"componentType": 5126,
			"count": 132,
			"max": [ 1, 1, 1 ],
			"min": [ -1, -1, -1 ],
			"type": "VEC3"
		},
		{
			"bufferView": 2,
			"byteOffset": 0,
			"componentType": 5126,
			"count": 132,
			"max": [ 1.000705, 0.9395683 ],
			"min": [ 0.03191867, 0.1855876 ],
			"type": "VEC2"
		},
		{
			"bufferView": 2,
			"byteOffset": 1056,
			"componentType": 5126,
			"count": 132,
			"max": [ 0.8732496, 0.9154209 ],
			"min": [ 0.01702217, 0.09963306 ],
			"type": "VEC2"
		},
		{
			"bufferView": 4,
			"byteOffset": 0,
			"componentType": 5126,
			"count": 132,
			"max": [ 1.982429E-05, 1, 0.7071064, 1 ],
			"min": [ -1, -0.982428, -1, -1 ],
			"type": "VEC4"
		},
		{
			"bufferView": 0,
			"byteOffset": 0,
			"componentType": 5123,
			"count": 234,
			"max": [ 131 ],
			"min": [ 0 ],
			"type": "SCALAR"
		},
		{
			"bufferView": 1,
			"byteOffset": 0,
			"componentType": 5126,
			"count": 30,
			"max": [ 0.9666667 ],
			"min": [ 0 ],
			"type": "SCALAR"
		},
		{
			"bufferView": 5,
			"byteOffset": 0,
			"componentType": 5126,
			"count": 30,
			"max": [ 0, 0, 0 ],
			"min": [ 0, 0, 0 ],
			"type": "VEC3"
		},
		{
			"bufferView": 6,
			"byteOffset": 0,
			"componentType": 5126,
			"count": 30,
			"max": [ 0, 0, 0, 1 ],
			"min": [ 0, -1, 0, -0.9999475 ],
			"type": "VEC4"
		},
		{
			"bufferView": 5,
			"byteOffset": 360,
			"componentType": 5126,
			"count": 30,
			"max": [ 10, 10, 10 ],
			"min": [ 10, 10, 10 ],
			"type": "VEC3"
		}
	],
	"animations": [
		{
			"name": "Laptop_On",
			"channels": [
				{
					"sampler": 0,
					"target": {
						"node": 1,
						"path": "translation"
					}
				},
				{
					"sampler": 1,
					"target": {
						"node": 1,
						"path": "rotation"
					}
				},
				{
					"sampler": 2,
					"target": {
						"node": 1,
						"path": "scale"
					}
				}
			],
			"samplers": [
				{
					"input": 6,
					"interpolation": "LINEAR",
					"output": 7
				},
				{
					"input": 6,
					"interpolation": "LINEAR",
					"output": 8
				},
				{
					"input": 6,
					"interpolation": "LINEAR",
					"output": 9
				}
			]
		}
	],
	"buffers": [
		{
			"byteLength": 9180,
			"uri": "电脑店.bin"
		}
	],
	"bufferViews": [
		{
			"buffer": 0,
			"byteLength": 468,
			"target": 34963,
			"byteOffset": 7512
		},
		{
			"buffer": 0,
			"byteLength": 120,
			"byteOffset": 0
		},
		{
			"buffer": 0,
			"byteLength": 2112,
			"target": 34962,
			"byteStride": 8,
			"byteOffset": 120
		},
		{
			"buffer": 0,
			"byteLength": 3168,
			"target": 34962,
			"byteStride": 12,
			"byteOffset": 2232
		},
		{
			"buffer": 0,
			"byteLength": 2112,
			"target": 34962,
			"byteStride": 16,
			"byteOffset": 5400
		},
		{
			"buffer": 0,
			"byteLength": 720,
			"byteStride": 12,
			"byteOffset": 7980
		},
		{
			"buffer": 0,
			"byteLength": 480,
			"byteStride": 16,
			"byteOffset": 8700
		}
	],
	"images": [
		{
			"uri": "/Assets/LowPolyOfficeProps_LITE/Textures/LPOP_TextureAtlas1_FULL.jpg"
		},
		{
			"uri": "/Assets/LowPolyOfficeProps_LITE/Textures/LPOP_TextureAtlas1_FULL-MetalGloss_converted_metalRoughness.jpg"
		},
		{
			"uri": "/Assets/LowPolyOfficeProps_LITE/Textures/LPOP_TextureAtlas1_FULL-Emissive.jpg"
		}
	],
	"materials": [
		{
			"pbrMetallicRoughness": {
				"baseColorTexture" : {
					"index" : 0,
					"texCoord" : 0
				},
				"baseColorFactor": [1, 1, 1, 1],
				"metallicRoughnessTexture" : {
					"index" : 1,
					"texCoord" : 0
				},
				"metallicFactor": 1,
				"roughnessFactor": 1
			},
			"emissiveTexture" : {
				"index" : 2,
				"texCoord" : 0
			},
			"emissiveFactor": [1.1, 1.1, 1.1],
			"doubleSided": false,
			"name": "LPOP_TextureAtlas1"
		}
	],
	"meshes": [
		{
			"name": "mesh_Laptop_On_22240Laptop_On",
			"primitives": [
				{
					"attributes": {
						"POSITION": 0,
						"NORMAL": 1,
						"TEXCOORD_0": 2,
						"TEXCOORD_1": 3,
						"TANGENT": 4
					},
					"indices": 5,
					"material": 0,
					"mode": 4
				}
			]
		}
	],
	"nodes": [
		{
			"name": "UnityGlTF_root",
			"children": [
				1
			]
		},
		{
			"name": "node_Laptop_On_-48704",
			"mesh": 0,
			"matrix": [10, 0, 0, 0, 0, 10, 0, 0, 0, 0, 10, 0, 0, 0, 0, 1]
		}
	],
	"samplers": [
		{
			"magFilter": 9729,
			"minFilter": 9985,
			"wrapS": 10497,
			"wrapT": 10497
		}
	],
	"scenes": [
		{
			"name":"defaultScene",
			"nodes": [
				0
			]
		}
	],
	"scene": 0,
	"textures": [
		{
			"sampler": 0,
			"source": 0
		},
		{
			"sampler": 0,
			"source": 1
		},
		{
			"sampler": 0,
			"source": 2
		}
	]
}