{
	"asset": {
		"generator": "Unity 2018.3.11f1",
		"extras": {
			"exporterVersion" : "2.2.1"
		},
		"version": "2.0"
	},
	"accessors": [
		{
			"bufferView": 3,
			"byteOffset": 0,
			"componentType": 5126,
			"count": 326,
			"max": [ 0.193964, 0.02899306, 0.193964 ],
			"min": [ -0.193964, 9.139418E-05, -0.193964 ],
			"type": "VEC3"
		},
		{
			"bufferView": 3,
			"byteOffset": 3912,
			"componentType": 5126,
			"count": 326,
			"max": [ 1, 1, 1 ],
			"min": [ -1, -0.8430728, -1 ],
			"type": "VEC3"
		},
		{
			"bufferView": 2,
			"byteOffset": 0,
			"componentType": 5126,
			"count": 326,
			"max": [ 0.9690503, 0.9600968 ],
			"min": [ 0.02846687, 0.03579779 ],
			"type": "VEC2"
		},
		{
			"bufferView": 4,
			"byteOffset": 0,
			"componentType": 5126,
			"count": 326,
			"max": [ 0.7518758, 0.9992114, 0.721815, 1 ],
			"min": [ -0.9833509, -0.9979584, -0.9742526, 1 ],
			"type": "VEC4"
		},
		{
			"bufferView": 0,
			"byteOffset": 0,
			"componentType": 5123,
			"count": 1728,
			"max": [ 325 ],
			"min": [ 0 ],
			"type": "SCALAR"
		},
		{
			"bufferView": 1,
			"byteOffset": 0,
			"componentType": 5126,
			"count": 120,
			"max": [ 3.966667 ],
			"min": [ 0 ],
			"type": "SCALAR"
		},
		{
			"bufferView": 5,
			"byteOffset": 0,
			"componentType": 5126,
			"count": 120,
			"max": [ -2.341523, -52.41875, 69.22613 ],
			"min": [ -2.341523, -52.41875, 69.22613 ],
			"type": "VEC3"
		},
		{
			"bufferView": 6,
			"byteOffset": 0,
			"componentType": 5126,
			"count": 120,
			"max": [ 0, 8.742278E-08, 0, 0.9994859 ],
			"min": [ 0, -1, 0, -1 ],
			"type": "VEC4"
		},
		{
			"bufferView": 5,
			"byteOffset": 1440,
			"componentType": 5126,
			"count": 120,
			"max": [ 1, 1, 1 ],
			"min": [ 1, 1, 1 ],
			"type": "VEC3"
		}
	],
	"animations": [
		{
			"name": "Pizza",
			"channels": [
				{
					"sampler": 0,
					"target": {
						"node": 1,
						"path": "translation"
					}
				},
				{
					"sampler": 1,
					"target": {
						"node": 1,
						"path": "rotation"
					}
				},
				{
					"sampler": 2,
					"target": {
						"node": 1,
						"path": "scale"
					}
				}
			],
			"samplers": [
				{
					"input": 5,
					"interpolation": "LINEAR",
					"output": 6
				},
				{
					"input": 5,
					"interpolation": "LINEAR",
					"output": 7
				},
				{
					"input": 5,
					"interpolation": "LINEAR",
					"output": 8
				}
			]
		}
	],
	"buffers": [
		{
			"byteLength": 24384,
			"uri": "意式菜品餐厅.bin"
		}
	],
	"bufferViews": [
		{
			"buffer": 0,
			"byteLength": 3456,
			"target": 34963,
			"byteOffset": 16128
		},
		{
			"buffer": 0,
			"byteLength": 480,
			"byteOffset": 0
		},
		{
			"buffer": 0,
			"byteLength": 2608,
			"target": 34962,
			"byteStride": 8,
			"byteOffset": 480
		},
		{
			"buffer": 0,
			"byteLength": 7824,
			"target": 34962,
			"byteStride": 12,
			"byteOffset": 3088
		},
		{
			"buffer": 0,
			"byteLength": 5216,
			"target": 34962,
			"byteStride": 16,
			"byteOffset": 10912
		},
		{
			"buffer": 0,
			"byteLength": 2880,
			"byteStride": 12,
			"byteOffset": 19584
		},
		{
			"buffer": 0,
			"byteLength": 1920,
			"byteStride": 16,
			"byteOffset": 22464
		}
	],
	"images": [
		{
			"uri": "/Assets/Pizza/Textures/Pizza_Albedo.jpg"
		},
		{
			"uri": "/Assets/Pizza/Textures/Pizza_Normals.jpg"
		},
		{
			"uri": "/Assets/Pizza/Textures/Pizza_Ao.jpg"
		}
	],
	"materials": [
		{
			"pbrMetallicRoughness": {
				"baseColorTexture" : {
					"index" : 0,
					"texCoord" : 0
				},
				"baseColorFactor": [1, 1, 1, 1],
				"metallicFactor": 0,
				"roughnessFactor": 0.5
			},
			"normalTexture" : {
				"index" : 1,
				"texCoord" : 0,
				"scale" : 1
			},
			"emissiveFactor": [0, 0, 0],
			"occlusionTexture" : {
				"index" : 2,
				"texCoord" : 0,
				"strength" : 1
			},
			"doubleSided": false,
			"name": "Pizza"
		}
	],
	"meshes": [
		{
			"name": "mesh_Cylinder002_21634Pizza",
			"primitives": [
				{
					"attributes": {
						"POSITION": 0,
						"NORMAL": 1,
						"TEXCOORD_0": 2,
						"TANGENT": 3
					},
					"indices": 4,
					"material": 0,
					"mode": 4
				}
			]
		}
	],
	"nodes": [
		{
			"name": "UnityGlTF_root",
			"children": [
				1
			]
		},
		{
			"name": "node_Pizza_-49966",
			"mesh": 0,
			"matrix": [1, 0, 0, 0, 0, 1, -4.371139E-08, 0, 0, 4.371139E-08, 1, 0, -2.341523, -52.41875, 69.22613, 1]
		}
	],
	"samplers": [
		{
			"magFilter": 9729,
			"minFilter": 9985,
			"wrapS": 10497,
			"wrapT": 10497
		}
	],
	"scenes": [
		{
			"name":"defaultScene",
			"nodes": [
				0
			]
		}
	],
	"scene": 0,
	"textures": [
		{
			"sampler": 0,
			"source": 0
		},
		{
			"sampler": 0,
			"source": 1
		},
		{
			"sampler": 0,
			"source": 2
		}
	]
}