{
	"asset": {
		"generator": "Unity 2018.3.11f1",
		"extras": {
			"exporterVersion" : "2.2.1"
		},
		"version": "2.0"
	},
	"accessors": [
		{
			"bufferView": 3,
			"byteOffset": 0,
			"componentType": 5126,
			"count": 1661,
			"max": [ 1.953835, 1.751325, 0 ],
			"min": [ -1.953835, -1.781172, -2.735977 ],
			"type": "VEC3"
		},
		{
			"bufferView": 3,
			"byteOffset": 19932,
			"componentType": 5126,
			"count": 1661,
			"max": [ 0.9573369, 0.9642434, 1 ],
			"min": [ -0.9988585, -0.9981228, -0.8994224 ],
			"type": "VEC3"
		},
		{
			"bufferView": 2,
			"byteOffset": 0,
			"componentType": 5126,
			"count": 1661,
			"max": [ 1, 1 ],
			"min": [ -0.05781603, 0 ],
			"type": "VEC2"
		},
		{
			"bufferView": 4,
			"byteOffset": 0,
			"componentType": 5126,
			"count": 1661,
			"max": [ 1, 1, 0.5132793, 1 ],
			"min": [ -1, -1, -0.4950728, 1 ],
			"type": "VEC4"
		},
		{
			"bufferView": 0,
			"byteOffset": 0,
			"componentType": 5123,
			"count": 9156,
			"max": [ 1660 ],
			"min": [ 0 ],
			"type": "SCALAR"
		},
		{
			"bufferView": 1,
			"byteOffset": 0,
			"componentType": 5126,
			"count": 30,
			"max": [ 0.9666667 ],
			"min": [ 0 ],
			"type": "SCALAR"
		},
		{
			"bufferView": 5,
			"byteOffset": 0,
			"componentType": 5126,
			"count": 30,
			"max": [ 5.454634, 2.305684, 2.981456 ],
			"min": [ 5.454634, 1.801648, 2.980005 ],
			"type": "VEC3"
		},
		{
			"bufferView": 6,
			"byteOffset": 0,
			"componentType": 5126,
			"count": 30,
			"max": [ -0.6825735, -0.1846441, 0.1846441, -0.6825735 ],
			"min": [ -0.6825735, -0.1846441, 0.1846441, -0.6825735 ],
			"type": "VEC4"
		},
		{
			"bufferView": 5,
			"byteOffset": 360,
			"componentType": 5126,
			"count": 30,
			"max": [ 1, 1, 0.9675292 ],
			"min": [ 1, 1, 0.9675292 ],
			"type": "VEC3"
		},
		{
			"bufferView": 3,
			"byteOffset": 39864,
			"componentType": 5126,
			"count": 35574,
			"max": [ 2.500002, 2.500193, 0.3194408 ],
			"min": [ -2.500386, -2.500127, -2.697772 ],
			"type": "VEC3"
		},
		{
			"bufferView": 3,
			"byteOffset": 466752,
			"componentType": 5126,
			"count": 35574,
			"max": [ 1, 1, 1 ],
			"min": [ -1, -1, -1 ],
			"type": "VEC3"
		},
		{
			"bufferView": 2,
			"byteOffset": 13288,
			"componentType": 5126,
			"count": 35574,
			"max": [ 1, 1 ],
			"min": [ 0, 0 ],
			"type": "VEC2"
		},
		{
			"bufferView": 4,
			"byteOffset": 26576,
			"componentType": 5126,
			"count": 35574,
			"max": [ 1, 1, 0.8861021, 1 ],
			"min": [ -1, -1, -0.955857, 1 ],
			"type": "VEC4"
		},
		{
			"bufferView": 0,
			"byteOffset": 18312,
			"componentType": 5123,
			"count": 207360,
			"max": [ 35573 ],
			"min": [ 0 ],
			"type": "SCALAR"
		},
		{
			"bufferView": 3,
			"byteOffset": 893640,
			"componentType": 5126,
			"count": 35574,
			"max": [ 2.500002, 2.500193, 0.3194408 ],
			"min": [ -2.500386, -2.500127, -2.739926 ],
			"type": "VEC3"
		},
		{
			"bufferView": 3,
			"byteOffset": 1320528,
			"componentType": 5126,
			"count": 35574,
			"max": [ 1, 1, 1 ],
			"min": [ -1, -1, -1 ],
			"type": "VEC3"
		},
		{
			"bufferView": 2,
			"byteOffset": 297880,
			"componentType": 5126,
			"count": 35574,
			"max": [ 1, 1 ],
			"min": [ 0, 0 ],
			"type": "VEC2"
		},
		{
			"bufferView": 4,
			"byteOffset": 595760,
			"componentType": 5126,
			"count": 35574,
			"max": [ 1, 1, 0.9200959, 1 ],
			"min": [ -1, -1, -0.8991063, 1 ],
			"type": "VEC4"
		},
		{
			"bufferView": 0,
			"byteOffset": 433032,
			"componentType": 5123,
			"count": 207360,
			"max": [ 35573 ],
			"min": [ 0 ],
			"type": "SCALAR"
		},
		{
			"bufferView": 1,
			"byteOffset": 120,
			"componentType": 5126,
			"count": 30,
			"max": [ 0.9666667 ],
			"min": [ 0 ],
			"type": "SCALAR"
		},
		{
			"bufferView": 5,
			"byteOffset": 720,
			"componentType": 5126,
			"count": 30,
			"max": [ 5.346118, 1.509185, 3.021 ],
			"min": [ 5.346118, 1.26, 3.020003 ],
			"type": "VEC3"
		},
		{
			"bufferView": 6,
			"byteOffset": 480,
			"componentType": 5126,
			"count": 30,
			"max": [ -0.7071068, 0, 0, -0.7071068 ],
			"min": [ -0.7071068, 0, 0, -0.7071068 ],
			"type": "VEC4"
		},
		{
			"bufferView": 5,
			"byteOffset": 1080,
			"componentType": 5126,
			"count": 30,
			"max": [ 1, 1, 1 ],
			"min": [ 1, 1, 1 ],
			"type": "VEC3"
		},
		{
			"bufferView": 3,
			"byteOffset": 1747416,
			"componentType": 5126,
			"count": 35574,
			"max": [ 2.500002, 2.500193, 0.3194408 ],
			"min": [ -2.500386, -2.500127, -2.739926 ],
			"type": "VEC3"
		},
		{
			"bufferView": 3,
			"byteOffset": 2174304,
			"componentType": 5126,
			"count": 35574,
			"max": [ 1, 1, 1 ],
			"min": [ -1, -1, -1 ],
			"type": "VEC3"
		},
		{
			"bufferView": 2,
			"byteOffset": 582472,
			"componentType": 5126,
			"count": 35574,
			"max": [ 1, 1 ],
			"min": [ 0, 0 ],
			"type": "VEC2"
		},
		{
			"bufferView": 4,
			"byteOffset": 1164944,
			"componentType": 5126,
			"count": 35574,
			"max": [ 1, 1, 0.9200959, 1 ],
			"min": [ -1, -1, -0.8991063, 1 ],
			"type": "VEC4"
		},
		{
			"bufferView": 0,
			"byteOffset": 847752,
			"componentType": 5123,
			"count": 207360,
			"max": [ 35573 ],
			"min": [ 0 ],
			"type": "SCALAR"
		},
		{
			"bufferView": 1,
			"byteOffset": 240,
			"componentType": 5126,
			"count": 30,
			"max": [ 0.9666667 ],
			"min": [ 0 ],
			"type": "SCALAR"
		},
		{
			"bufferView": 5,
			"byteOffset": 1440,
			"componentType": 5126,
			"count": 30,
			"max": [ 5.346118, 1.68, 3.02 ],
			"min": [ 5.346118, 1.311206, 3.02 ],
			"type": "VEC3"
		},
		{
			"bufferView": 6,
			"byteOffset": 960,
			"componentType": 5126,
			"count": 30,
			"max": [ -0.7071068, 0, 0, -0.7071068 ],
			"min": [ -0.7071068, 0, 0, -0.7071068 ],
			"type": "VEC4"
		},
		{
			"bufferView": 5,
			"byteOffset": 1800,
			"componentType": 5126,
			"count": 30,
			"max": [ 1, 1, 1 ],
			"min": [ 1, 1, 1 ],
			"type": "VEC3"
		},
		{
			"bufferView": 3,
			"byteOffset": 2601192,
			"componentType": 5126,
			"count": 24,
			"max": [ 2.551843, 2.132217, 0 ],
			"min": [ -2.584277, -2.951978, -3.080372 ],
			"type": "VEC3"
		},
		{
			"bufferView": 3,
			"byteOffset": 2601480,
			"componentType": 5126,
			"count": 24,
			"max": [ 1, 1, 1 ],
			"min": [ -1, -1, -1 ],
			"type": "VEC3"
		},
		{
			"bufferView": 2,
			"byteOffset": 867064,
			"componentType": 5126,
			"count": 24,
			"max": [ 1, 1 ],
			"min": [ 0, 0 ],
			"type": "VEC2"
		},
		{
			"bufferView": 4,
			"byteOffset": 1734128,
			"componentType": 5126,
			"count": 24,
			"max": [ 1, 1, 0, 1 ],
			"min": [ -1, -1, 0, 1 ],
			"type": "VEC4"
		},
		{
			"bufferView": 0,
			"byteOffset": 1262472,
			"componentType": 5123,
			"count": 36,
			"max": [ 23 ],
			"min": [ 0 ],
			"type": "SCALAR"
		}
	],
	"animations": [
		{
			"name": "Pyramid003",
			"channels": [
				{
					"sampler": 0,
					"target": {
						"node": 1,
						"path": "translation"
					}
				},
				{
					"sampler": 1,
					"target": {
						"node": 1,
						"path": "rotation"
					}
				},
				{
					"sampler": 2,
					"target": {
						"node": 1,
						"path": "scale"
					}
				}
			],
			"samplers": [
				{
					"input": 5,
					"interpolation": "LINEAR",
					"output": 6
				},
				{
					"input": 5,
					"interpolation": "LINEAR",
					"output": 7
				},
				{
					"input": 5,
					"interpolation": "LINEAR",
					"output": 8
				}
			]
		},
		{
			"name": "water",
			"channels": [
				{
					"sampler": 0,
					"target": {
						"node": 4,
						"path": "translation"
					}
				},
				{
					"sampler": 1,
					"target": {
						"node": 4,
						"path": "rotation"
					}
				},
				{
					"sampler": 2,
					"target": {
						"node": 4,
						"path": "scale"
					}
				}
			],
			"samplers": [
				{
					"input": 19,
					"interpolation": "LINEAR",
					"output": 20
				},
				{
					"input": 19,
					"interpolation": "LINEAR",
					"output": 21
				},
				{
					"input": 19,
					"interpolation": "LINEAR",
					"output": 22
				}
			]
		},
		{
			"name": "ice",
			"channels": [
				{
					"sampler": 0,
					"target": {
						"node": 5,
						"path": "translation"
					}
				},
				{
					"sampler": 1,
					"target": {
						"node": 5,
						"path": "rotation"
					}
				},
				{
					"sampler": 2,
					"target": {
						"node": 5,
						"path": "scale"
					}
				}
			],
			"samplers": [
				{
					"input": 28,
					"interpolation": "LINEAR",
					"output": 29
				},
				{
					"input": 28,
					"interpolation": "LINEAR",
					"output": 30
				},
				{
					"input": 28,
					"interpolation": "LINEAR",
					"output": 31
				}
			]
		}
	],
	"buffers": [
		{
			"byteLength": 6470040,
			"uri": "冰斗.bin"
		}
	],
	"bufferViews": [
		{
			"buffer": 0,
			"byteLength": 1262544,
			"target": 34963,
			"byteOffset": 5203896
		},
		{
			"buffer": 0,
			"byteLength": 360,
			"byteOffset": 0
		},
		{
			"buffer": 0,
			"byteLength": 867256,
			"target": 34962,
			"byteStride": 8,
			"byteOffset": 360
		},
		{
			"buffer": 0,
			"byteLength": 2601768,
			"target": 34962,
			"byteStride": 12,
			"byteOffset": 867616
		},
		{
			"buffer": 0,
			"byteLength": 1734512,
			"target": 34962,
			"byteStride": 16,
			"byteOffset": 3469384
		},
		{
			"buffer": 0,
			"byteLength": 2160,
			"byteStride": 12,
			"byteOffset": 6466440
		},
		{
			"buffer": 0,
			"byteLength": 1440,
			"byteStride": 16,
			"byteOffset": 6468600
		}
	],
	"images": [
		{
			"uri": "/Assets/Textures/冰斗11111122222.fbm/海水.jpg"
		},
		{
			"uri": "/Assets/Textures/冰斗11111122222.fbm/冰川.jpg"
		}
	],
	"materials": [
		{
			"pbrMetallicRoughness": {
				"baseColorFactor": [0.1137255, 0.1137255, 0.1568628, 1],
				"metallicFactor": 0,
				"roughnessFactor": 1
			},
			"emissiveFactor": [0, 0, 0],
			"doubleSided": false,
			"name": "02 - Default"
		},
		{
			"pbrMetallicRoughness": {
				"baseColorTexture" : {
					"index" : 0,
					"texCoord" : 0
				},
				"baseColorFactor": [0.5882353, 0.5882353, 0.5882353, 1],
				"metallicFactor": 0,
				"roughnessFactor": 1
			},
			"emissiveFactor": [0, 0, 0],
			"doubleSided": false,
			"name": ""
		},
		{
			"pbrMetallicRoughness": {
				"baseColorTexture" : {
					"index" : 1,
					"texCoord" : 0
				},
				"baseColorFactor": [0.5882353, 0.5882353, 0.5882353, 1],
				"metallicFactor": 0,
				"roughnessFactor": 1
			},
			"emissiveFactor": [0, 0, 0],
			"doubleSided": false,
			"name": ""
		}
	],
	"meshes": [
		{
			"name": "mesh_Pyramid003_14306Pyramid003",
			"primitives": [
				{
					"attributes": {
						"POSITION": 0,
						"NORMAL": 1,
						"TEXCOORD_0": 2,
						"TANGENT": 3
					},
					"indices": 4,
					"material": 0,
					"mode": 4
				}
			]
		},
		{
			"name": "mesh_Box004_14314Box004",
			"primitives": [
				{
					"attributes": {
						"POSITION": 9,
						"NORMAL": 10,
						"TEXCOORD_0": 11,
						"TANGENT": 12
					},
					"indices": 13,
					"material": 0,
					"mode": 4
				}
			]
		},
		{
			"name": "mesh_original mountain002_14308water",
			"primitives": [
				{
					"attributes": {
						"POSITION": 14,
						"NORMAL": 15,
						"TEXCOORD_0": 16,
						"TANGENT": 17
					},
					"indices": 18,
					"material": 1,
					"mode": 4
				}
			]
		},
		{
			"name": "mesh_original mountain001_14310ice",
			"primitives": [
				{
					"attributes": {
						"POSITION": 23,
						"NORMAL": 24,
						"TEXCOORD_0": 25,
						"TANGENT": 26
					},
					"indices": 27,
					"material": 2,
					"mode": 4
				}
			]
		},
		{
			"name": "mesh_Box006_14312Box006",
			"primitives": [
				{
					"attributes": {
						"POSITION": 32,
						"NORMAL": 33,
						"TEXCOORD_0": 34,
						"TANGENT": 35
					},
					"indices": 36,
					"material": 0,
					"mode": 4
				}
			]
		}
	],
	"nodes": [
		{
			"name": "UnityGlTF_root",
			"children": [
				2
			]
		},
		{
			"name": "node_Pyramid003_-19824",
			"mesh": 0,
			"translation": [ 5.454634, 2.305684, 2.981456],
			"scale": [ 1, 1, 0.9675292],
			"rotation": [-0.6825735, -0.1846441, 0.1846441, -0.6825735]
		},
		{
			"name": "node_11111122222_-19812",
			"children": [
				3,
				6,
				5,
				4,
				1
			],
			"matrix": [1, 0, 0, 0, 0, 1, 0, 0, 0, 0, 1, 0, 5.158485, -0.8584604, -0.8525574, 1]
		},
		{
			"name": "node_Box004_-19816",
			"mesh": 1,
			"translation": [ 5.346118, 1.746652, 3.021],
			"rotation": [-0.7071068, 0, 0, -0.7071068]
		},
		{
			"name": "node_water_-19822",
			"mesh": 2,
			"translation": [ 5.346118, 1.26, 3.021],
			"rotation": [-0.7071068, 0, 0, -0.7071068]
		},
		{
			"name": "node_ice_-19820",
			"mesh": 3,
			"translation": [ 5.346118, 1.59, 3.02],
			"rotation": [-0.7071068, 0, 0, -0.7071068]
		},
		{
			"name": "node_Box006_-19818",
			"mesh": 4,
			"translation": [ 5.358333, -0.333927, 3.428976],
			"rotation": [-0.7071068, 0, 0, -0.7071068]
		}
	],
	"samplers": [
		{
			"magFilter": 9729,
			"minFilter": 9985,
			"wrapS": 10497,
			"wrapT": 10497
		}
	],
	"scenes": [
		{
			"name":"defaultScene",
			"nodes": [
				0
			]
		}
	],
	"scene": 0,
	"textures": [
		{
			"sampler": 0,
			"source": 0
		},
		{
			"sampler": 0,
			"source": 1
		}
	]
}