{
	"asset": {
		"generator": "Unity 2018.3.11f1",
		"extras": {
			"exporterVersion" : "2.2.1"
		},
		"version": "2.0"
	},
	"accessors": [
		{
			"bufferView": 3,
			"byteOffset": 0,
			"componentType": 5126,
			"count": 458,
			"max": [ 0.7593412, 0.9224129, 0 ],
			"min": [ -0.7593412, -0.9224129, -0.7303432 ],
			"type": "VEC3"
		},
		{
			"bufferView": 3,
			"byteOffset": 5496,
			"componentType": 5126,
			"count": 458,
			"max": [ 1, 1, 1 ],
			"min": [ -1, -1, -1 ],
			"type": "VEC3"
		},
		{
			"bufferView": 2,
			"byteOffset": 0,
			"componentType": 5126,
			"count": 458,
			"max": [ 1, 1 ],
			"min": [ 0, -1.192093E-07 ],
			"type": "VEC2"
		},
		{
			"bufferView": 4,
			"byteOffset": 0,
			"componentType": 5126,
			"count": 458,
			"max": [ 1, 1, 1, 1 ],
			"min": [ -1, -1, -0.9975223, -1 ],
			"type": "VEC4"
		},
		{
			"bufferView": 0,
			"byteOffset": 0,
			"componentType": 5123,
			"count": 1902,
			"max": [ 457 ],
			"min": [ 0 ],
			"type": "SCALAR"
		},
		{
			"bufferView": 3,
			"byteOffset": 10992,
			"componentType": 5126,
			"count": 372,
			"max": [ 0.2457389, 0.6791149, -0.2997326 ],
			"min": [ -0.2109749, 0.2752703, -0.6068598 ],
			"type": "VEC3"
		},
		{
			"bufferView": 3,
			"byteOffset": 15456,
			"componentType": 5126,
			"count": 372,
			"max": [ 1, 1, 1 ],
			"min": [ -1, -1, -0.9198456 ],
			"type": "VEC3"
		},
		{
			"bufferView": 2,
			"byteOffset": 3664,
			"componentType": 5126,
			"count": 372,
			"max": [ 1, 1 ],
			"min": [ 0, -1.192093E-07 ],
			"type": "VEC2"
		},
		{
			"bufferView": 4,
			"byteOffset": 7328,
			"componentType": 5126,
			"count": 372,
			"max": [ 0.9971143, 1, 1, 1 ],
			"min": [ -1, -1, -1, -1 ],
			"type": "VEC4"
		},
		{
			"bufferView": 0,
			"byteOffset": 3804,
			"componentType": 5123,
			"count": 1626,
			"max": [ 371 ],
			"min": [ 0 ],
			"type": "SCALAR"
		},
		{
			"bufferView": 1,
			"byteOffset": 0,
			"componentType": 5126,
			"count": 30,
			"max": [ 0.9666667 ],
			"min": [ 0 ],
			"type": "SCALAR"
		},
		{
			"bufferView": 5,
			"byteOffset": 0,
			"componentType": 5126,
			"count": 30,
			"max": [ -4.066795, 7.917752, 14.124 ],
			"min": [ -4.066795, 7.731608, 14.124 ],
			"type": "VEC3"
		},
		{
			"bufferView": 6,
			"byteOffset": 0,
			"componentType": 5126,
			"count": 30,
			"max": [ -0.7071068, 0, 0, -0.7071068 ],
			"min": [ -0.7071068, 0, 0, -0.7071068 ],
			"type": "VEC4"
		},
		{
			"bufferView": 5,
			"byteOffset": 360,
			"componentType": 5126,
			"count": 30,
			"max": [ 1, 1, 1 ],
			"min": [ 1, 1, 1 ],
			"type": "VEC3"
		},
		{
			"bufferView": 3,
			"byteOffset": 19920,
			"componentType": 5126,
			"count": 24,
			"max": [ 0.7593412, 0.9691367, -0.689161 ],
			"min": [ -0.7593412, 0, -1.192104 ],
			"type": "VEC3"
		},
		{
			"bufferView": 3,
			"byteOffset": 20208,
			"componentType": 5126,
			"count": 24,
			"max": [ 1, 0.9198425, 0.9198424 ],
			"min": [ -1, -0.9198425, -0.9198424 ],
			"type": "VEC3"
		},
		{
			"bufferView": 2,
			"byteOffset": 6640,
			"componentType": 5126,
			"count": 24,
			"max": [ 1, 1 ],
			"min": [ 0, 0.5 ],
			"type": "VEC2"
		},
		{
			"bufferView": 4,
			"byteOffset": 13280,
			"componentType": 5126,
			"count": 24,
			"max": [ 1, 0, 0, 1 ],
			"min": [ -1, 0, 0, -1 ],
			"type": "VEC4"
		},
		{
			"bufferView": 0,
			"byteOffset": 7056,
			"componentType": 5123,
			"count": 36,
			"max": [ 23 ],
			"min": [ 0 ],
			"type": "SCALAR"
		},
		{
			"bufferView": 1,
			"byteOffset": 120,
			"componentType": 5126,
			"count": 30,
			"max": [ 0.9666667 ],
			"min": [ 0 ],
			"type": "SCALAR"
		},
		{
			"bufferView": 5,
			"byteOffset": 720,
			"componentType": 5126,
			"count": 30,
			"max": [ -4.066795, 7.415622, 13.996 ],
			"min": [ -4.066795, 7.3, 13.996 ],
			"type": "VEC3"
		},
		{
			"bufferView": 6,
			"byteOffset": 480,
			"componentType": 5126,
			"count": 30,
			"max": [ -0.7071068, 0, 0, -0.7071068 ],
			"min": [ -0.7071068, 0, 0, -0.7071068 ],
			"type": "VEC4"
		},
		{
			"bufferView": 5,
			"byteOffset": 1080,
			"componentType": 5126,
			"count": 30,
			"max": [ 1, 1, 1 ],
			"min": [ 1, 1, 1 ],
			"type": "VEC3"
		}
	],
	"animations": [
		{
			"name": "22",
			"channels": [
				{
					"sampler": 0,
					"target": {
						"node": 2,
						"path": "translation"
					}
				},
				{
					"sampler": 1,
					"target": {
						"node": 2,
						"path": "rotation"
					}
				},
				{
					"sampler": 2,
					"target": {
						"node": 2,
						"path": "scale"
					}
				}
			],
			"samplers": [
				{
					"input": 10,
					"interpolation": "LINEAR",
					"output": 11
				},
				{
					"input": 10,
					"interpolation": "LINEAR",
					"output": 12
				},
				{
					"input": 10,
					"interpolation": "LINEAR",
					"output": 13
				}
			]
		},
		{
			"name": "33",
			"channels": [
				{
					"sampler": 0,
					"target": {
						"node": 3,
						"path": "translation"
					}
				},
				{
					"sampler": 1,
					"target": {
						"node": 3,
						"path": "rotation"
					}
				},
				{
					"sampler": 2,
					"target": {
						"node": 3,
						"path": "scale"
					}
				}
			],
			"samplers": [
				{
					"input": 19,
					"interpolation": "LINEAR",
					"output": 20
				},
				{
					"input": 19,
					"interpolation": "LINEAR",
					"output": 21
				},
				{
					"input": 19,
					"interpolation": "LINEAR",
					"output": 22
				}
			]
		}
	],
	"buffers": [
		{
			"byteLength": 50760,
			"uri": "冰斗.bin"
		}
	],
	"bufferViews": [
		{
			"buffer": 0,
			"byteLength": 7128,
			"target": 34963,
			"byteOffset": 41232
		},
		{
			"buffer": 0,
			"byteLength": 240,
			"byteOffset": 0
		},
		{
			"buffer": 0,
			"byteLength": 6832,
			"target": 34962,
			"byteStride": 8,
			"byteOffset": 240
		},
		{
			"buffer": 0,
			"byteLength": 20496,
			"target": 34962,
			"byteStride": 12,
			"byteOffset": 7072
		},
		{
			"buffer": 0,
			"byteLength": 13664,
			"target": 34962,
			"byteStride": 16,
			"byteOffset": 27568
		},
		{
			"buffer": 0,
			"byteLength": 1440,
			"byteStride": 12,
			"byteOffset": 48360
		},
		{
			"buffer": 0,
			"byteLength": 960,
			"byteStride": 16,
			"byteOffset": 49800
		}
	],
	"images": [
		{
			"uri": "/Assets/冰斗部件11.fbm/tur4.jpg"
		},
		{
			"uri": "/Assets/冰斗部件22.fbm/冰川.jpg"
		},
		{
			"uri": "/Assets/冰斗部件33.fbm/海水.jpg"
		}
	],
	"materials": [
		{
			"pbrMetallicRoughness": {
				"baseColorTexture" : {
					"index" : 0,
					"texCoord" : 0
				},
				"baseColorFactor": [0.5882353, 0.5882353, 0.5882353, 1],
				"metallicFactor": 0,
				"roughnessFactor": 1
			},
			"emissiveFactor": [0, 0, 0],
			"doubleSided": false,
			"name": "tur4"
		},
		{
			"pbrMetallicRoughness": {
				"baseColorTexture" : {
					"index" : 1,
					"texCoord" : 0
				},
				"baseColorFactor": [0.5882353, 0.5882353, 0.5882353, 1],
				"metallicFactor": 0,
				"roughnessFactor": 1
			},
			"emissiveFactor": [0, 0, 0],
			"doubleSided": false,
			"name": ""
		},
		{
			"pbrMetallicRoughness": {
				"baseColorTexture" : {
					"index" : 2,
					"texCoord" : 0
				},
				"baseColorFactor": [0.5882353, 0.5882353, 0.5882353, 1],
				"metallicFactor": 0,
				"roughnessFactor": 1
			},
			"emissiveFactor": [0, 0, 0],
			"doubleSided": false,
			"name": ""
		}
	],
	"meshes": [
		{
			"name": "mesh_Box001_1513411",
			"primitives": [
				{
					"attributes": {
						"POSITION": 0,
						"NORMAL": 1,
						"TEXCOORD_0": 2,
						"TANGENT": 3
					},
					"indices": 4,
					"material": 0,
					"mode": 4
				}
			]
		},
		{
			"name": "mesh_Box001_1512822",
			"primitives": [
				{
					"attributes": {
						"POSITION": 5,
						"NORMAL": 6,
						"TEXCOORD_0": 7,
						"TANGENT": 8
					},
					"indices": 9,
					"material": 1,
					"mode": 4
				}
			]
		},
		{
			"name": "mesh_001_1512233",
			"primitives": [
				{
					"attributes": {
						"POSITION": 14,
						"NORMAL": 15,
						"TEXCOORD_0": 16,
						"TANGENT": 17
					},
					"indices": 18,
					"material": 2,
					"mode": 4
				}
			]
		}
	],
	"nodes": [
		{
			"name": "UnityGlTF_root",
			"children": [
				4
			]
		},
		{
			"name": "node_11_-59062",
			"mesh": 0,
			"translation": [ -4.066795, 7.917752, 14.124],
			"rotation": [-0.7071068, 0, 0, -0.7071068]
		},
		{
			"name": "node_22_-59064",
			"mesh": 1,
			"translation": [ -4.066795, 7.917752, 14.124],
			"rotation": [-0.7071068, 0, 0, -0.7071068]
		},
		{
			"name": "node_33_-59066",
			"mesh": 2,
			"translation": [ -4.066795, 7.3, 13.996],
			"rotation": [-0.7071068, 0, 0, -0.7071068]
		},
		{
			"name": "node__-59060",
			"children": [
				1,
				2,
				3
			],
			"matrix": [1, 0, 0, 0, 0, 1, 0, 0, 0, 0, 1, 0, 11.53398, -3.910011, 8.492845, 1]
		}
	],
	"samplers": [
		{
			"magFilter": 9729,
			"minFilter": 9985,
			"wrapS": 10497,
			"wrapT": 10497
		}
	],
	"scenes": [
		{
			"name":"defaultScene",
			"nodes": [
				0
			]
		}
	],
	"scene": 0,
	"textures": [
		{
			"sampler": 0,
			"source": 0
		},
		{
			"sampler": 0,
			"source": 1
		},
		{
			"sampler": 0,
			"source": 2
		}
	]
}