{
	"asset": {
		"generator": "Unity 2018.3.11f1",
		"extras": {
			"exporterVersion" : "2.2.1"
		},
		"version": "2.0"
	},
	"accessors": [
		{
			"bufferView": 3,
			"byteOffset": 0,
			"componentType": 5126,
			"count": 182,
			"max": [ 4.310022, 2.133884, 0 ],
			"min": [ -4.244226, -2.186673, -3.744681 ],
			"type": "VEC3"
		},
		{
			"bufferView": 3,
			"byteOffset": 2184,
			"componentType": 5126,
			"count": 182,
			"max": [ 1, 1, 1 ],
			"min": [ -1, -1, -1 ],
			"type": "VEC3"
		},
		{
			"bufferView": 2,
			"byteOffset": 0,
			"componentType": 5126,
			"count": 182,
			"max": [ 0.9732945, 0.9859554 ],
			"min": [ 0.01091473, 0.02030791 ],
			"type": "VEC2"
		},
		{
			"bufferView": 4,
			"byteOffset": 0,
			"componentType": 5126,
			"count": 182,
			"max": [ 1, 1, 0.9511089, 1 ],
			"min": [ -1, -1, -0.9511089, -1 ],
			"type": "VEC4"
		},
		{
			"bufferView": 0,
			"byteOffset": 0,
			"componentType": 5123,
			"count": 444,
			"max": [ 181 ],
			"min": [ 0 ],
			"type": "SCALAR"
		},
		{
			"bufferView": 3,
			"byteOffset": 4368,
			"componentType": 5126,
			"count": 606,
			"max": [ -0.003212077, 0.0017, 0.02922841 ],
			"min": [ -0.03510406, 0, -0.01099829 ],
			"type": "VEC3"
		},
		{
			"bufferView": 3,
			"byteOffset": 11640,
			"componentType": 5126,
			"count": 606,
			"max": [ 1, 1, 1 ],
			"min": [ -1, -1, -1 ],
			"type": "VEC3"
		},
		{
			"bufferView": 2,
			"byteOffset": 1456,
			"componentType": 5126,
			"count": 606,
			"max": [ 138.205, 115.0725 ],
			"min": [ -172.0646, -43.30037 ],
			"type": "VEC2"
		},
		{
			"bufferView": 4,
			"byteOffset": 2912,
			"componentType": 5126,
			"count": 606,
			"max": [ 1, 0, 1, 1 ],
			"min": [ -1, 0, -1, 1 ],
			"type": "VEC4"
		},
		{
			"bufferView": 0,
			"byteOffset": 888,
			"componentType": 5123,
			"count": 1176,
			"max": [ 605 ],
			"min": [ 0 ],
			"type": "SCALAR"
		},
		{
			"bufferView": 1,
			"byteOffset": 0,
			"componentType": 5126,
			"count": 30,
			"max": [ 0.9666667 ],
			"min": [ 0 ],
			"type": "SCALAR"
		},
		{
			"bufferView": 5,
			"byteOffset": 0,
			"componentType": 5126,
			"count": 30,
			"max": [ 0, 0, -5.31245E-05 ],
			"min": [ 0, 0, -0.0163 ],
			"type": "VEC3"
		},
		{
			"bufferView": 6,
			"byteOffset": 0,
			"componentType": 5126,
			"count": 30,
			"max": [ 0, 0, 0, -1 ],
			"min": [ 0, 0, 0, -1 ],
			"type": "VEC4"
		},
		{
			"bufferView": 5,
			"byteOffset": 360,
			"componentType": 5126,
			"count": 30,
			"max": [ 1, 1, 1 ],
			"min": [ 1, 1, 1 ],
			"type": "VEC3"
		}
	],
	"animations": [
		{
			"name": "Mesh1",
			"channels": [
				{
					"sampler": 0,
					"target": {
						"node": 4,
						"path": "translation"
					}
				},
				{
					"sampler": 1,
					"target": {
						"node": 4,
						"path": "rotation"
					}
				},
				{
					"sampler": 2,
					"target": {
						"node": 4,
						"path": "scale"
					}
				}
			],
			"samplers": [
				{
					"input": 10,
					"interpolation": "LINEAR",
					"output": 11
				},
				{
					"input": 10,
					"interpolation": "LINEAR",
					"output": 12
				},
				{
					"input": 10,
					"interpolation": "LINEAR",
					"output": 13
				}
			]
		}
	],
	"buffers": [
		{
			"byteLength": 42384,
			"uri": "中餐厅.bin"
		}
	],
	"bufferViews": [
		{
			"buffer": 0,
			"byteLength": 3240,
			"target": 34963,
			"byteOffset": 37944
		},
		{
			"buffer": 0,
			"byteLength": 120,
			"byteOffset": 0
		},
		{
			"buffer": 0,
			"byteLength": 6304,
			"target": 34962,
			"byteStride": 8,
			"byteOffset": 120
		},
		{
			"buffer": 0,
			"byteLength": 18912,
			"target": 34962,
			"byteStride": 12,
			"byteOffset": 6424
		},
		{
			"buffer": 0,
			"byteLength": 12608,
			"target": 34962,
			"byteStride": 16,
			"byteOffset": 25336
		},
		{
			"buffer": 0,
			"byteLength": 720,
			"byteStride": 12,
			"byteOffset": 41184
		},
		{
			"buffer": 0,
			"byteLength": 480,
			"byteStride": 16,
			"byteOffset": 41904
		}
	],
	"images": [
		{
			"uri": "/Assets/Cartoon City Pack/Textures/Diffuse/CornerShopDiffuse.png"
		},
		{
			"uri": "/Assets/Cartoon City Pack/Textures/Emission/CornerShopEmission.jpg"
		}
	],
	"materials": [
		{
			"pbrMetallicRoughness": {
				"baseColorTexture" : {
					"index" : 0,
					"texCoord" : 0
				},
				"baseColorFactor": [1, 1, 1, 1],
				"metallicFactor": 0.1,
				"roughnessFactor": 0.7
			},
			"alphaMode": "MASK",
			"alphaCutoff": 0.5,
			"emissiveTexture" : {
				"index" : 1,
				"texCoord" : 0
			},
			"emissiveFactor": [1.2, 1.2, 1.2],
			"doubleSided": false,
			"name": "CornerShop"
		},
		{
			"pbrMetallicRoughness": {
				"baseColorFactor": [1, 0.4700872, 0, 1],
				"metallicFactor": 0,
				"roughnessFactor": 0.5
			},
			"emissiveFactor": [0, 0, 0],
			"doubleSided": false,
			"name": "New Material"
		}
	],
	"meshes": [
		{
			"name": "mesh_Cube_5392CornerShop",
			"primitives": [
				{
					"attributes": {
						"POSITION": 0,
						"NORMAL": 1,
						"TEXCOORD_0": 2,
						"TANGENT": 3
					},
					"indices": 4,
					"material": 0,
					"mode": 4
				}
			]
		},
		{
			"name": "mesh_Mesh1_5672Mesh1",
			"primitives": [
				{
					"attributes": {
						"POSITION": 5,
						"NORMAL": 6,
						"TEXCOORD_0": 7,
						"TANGENT": 8
					},
					"indices": 9,
					"material": 1,
					"mode": 4
				}
			]
		}
	],
	"nodes": [
		{
			"name": "UnityGlTF_root",
			"children": [
				1
			]
		},
		{
			"name": "node__-1136",
			"children": [
				2,
				3
			],
			"matrix": [1, 0, 0, 0, 0, 1, 0, 0, 0, 0, 1, 0, 221.56, 626.15, -2571.25, 1]
		},
		{
			"name": "node_CornerShop_-1138",
			"mesh": 0,
			"rotation": [1.152023E-07, 0.7071067, -0.7071068, 1.152023E-07]
		},
		{
			"name": "node__-1306",
			"children": [
				4
			],
			"translation": [ -0.4700012, 4.329956, -0.5500488],
			"scale": [ 39.00101, 39.001, 39.001],
			"rotation": [0, 0.7071068, 0.7071068, 0]
		},
		{
			"name": "node_Mesh1_-1304",
			"mesh": 1
		}
	],
	"samplers": [
		{
			"magFilter": 9729,
			"minFilter": 9985,
			"wrapS": 10497,
			"wrapT": 10497
		}
	],
	"scenes": [
		{
			"name":"defaultScene",
			"nodes": [
				0
			]
		}
	],
	"scene": 0,
	"textures": [
		{
			"sampler": 0,
			"source": 0
		},
		{
			"sampler": 0,
			"source": 1
		}
	]
}