{
	"asset": {
		"generator": "Unity 2018.3.11f1",
		"extras": {
			"exporterVersion" : "2.2.1"
		},
		"version": "2.0"
	},
	"accessors": [
		{
			"bufferView": 1,
			"byteOffset": 0,
			"componentType": 5126,
			"count": 24,
			"max": [ 0.7666667 ],
			"min": [ 0 ],
			"type": "SCALAR"
		},
		{
			"bufferView": 5,
			"byteOffset": 0,
			"componentType": 5126,
			"count": 24,
			"max": [ 0, 1.514395E-17, 0 ],
			"min": [ -2.189221, 1.514395E-17, 0 ],
			"type": "VEC3"
		},
		{
			"bufferView": 6,
			"byteOffset": 0,
			"componentType": 5126,
			"count": 24,
			"max": [ 0, 0, 0, -1 ],
			"min": [ 0, 0, 0, -1 ],
			"type": "VEC4"
		},
		{
			"bufferView": 5,
			"byteOffset": 288,
			"componentType": 5126,
			"count": 24,
			"max": [ 1, 1, 1 ],
			"min": [ 1, 1, 1 ],
			"type": "VEC3"
		},
		{
			"bufferView": 3,
			"byteOffset": 0,
			"componentType": 5126,
			"count": 585,
			"max": [ 2.851379, 2.731956, 1.945343 ],
			"min": [ -3.102363, -1.633238, -1.88972 ],
			"type": "VEC3"
		},
		{
			"bufferView": 3,
			"byteOffset": 7020,
			"componentType": 5126,
			"count": 585,
			"max": [ 0.9945384, 0.9998842, 1 ],
			"min": [ -0.9998872, -0.9031261, -1 ],
			"type": "VEC3"
		},
		{
			"bufferView": 2,
			"byteOffset": 0,
			"componentType": 5126,
			"count": 585,
			"max": [ 5.108438E+26, 3.000995 ],
			"min": [ 0, -1.134222E+16 ],
			"type": "VEC2"
		},
		{
			"bufferView": 4,
			"byteOffset": 0,
			"componentType": 5126,
			"count": 585,
			"max": [ 1, 0, 0, 1 ],
			"min": [ 0.554126, -0.02670438, -0.8320043, -1 ],
			"type": "VEC4"
		},
		{
			"bufferView": 0,
			"byteOffset": 0,
			"componentType": 5123,
			"count": 984,
			"max": [ 550 ],
			"min": [ 0 ],
			"type": "SCALAR"
		},
		{
			"bufferView": 0,
			"byteOffset": 1968,
			"componentType": 5123,
			"count": 96,
			"max": [ 584 ],
			"min": [ 551 ],
			"type": "SCALAR"
		},
		{
			"bufferView": 3,
			"byteOffset": 14040,
			"componentType": 5126,
			"count": 116,
			"max": [ 0.8879473, 1.202085, 0.5510443 ],
			"min": [ -1.125559, -0.7255477, 0.0487501 ],
			"type": "VEC3"
		},
		{
			"bufferView": 3,
			"byteOffset": 15432,
			"componentType": 5126,
			"count": 116,
			"max": [ 0.998772, 0.9985375, 0 ],
			"min": [ -0.9695133, -0.9814874, -1 ],
			"type": "VEC3"
		},
		{
			"bufferView": 4,
			"byteOffset": 9360,
			"componentType": 5126,
			"count": 116,
			"max": [ 1, 0, 0, 1 ],
			"min": [ 1, 0, 0, 1 ],
			"type": "VEC4"
		},
		{
			"bufferView": 0,
			"byteOffset": 2160,
			"componentType": 5123,
			"count": 210,
			"max": [ 115 ],
			"min": [ 0 ],
			"type": "SCALAR"
		},
		{
			"bufferView": 1,
			"byteOffset": 96,
			"componentType": 5126,
			"count": 30,
			"max": [ 0.9666667 ],
			"min": [ 0 ],
			"type": "SCALAR"
		},
		{
			"bufferView": 5,
			"byteOffset": 576,
			"componentType": 5126,
			"count": 30,
			"max": [ 0.160059, 2.782528, 0.28 ],
			"min": [ 0.160059, 1.524115, 0.01087993 ],
			"type": "VEC3"
		},
		{
			"bufferView": 6,
			"byteOffset": 384,
			"componentType": 5126,
			"count": 30,
			"max": [ -0.222887, 0, 0, -0.9748443 ],
			"min": [ -0.222887, 0, 0, -0.9748443 ],
			"type": "VEC4"
		},
		{
			"bufferView": 5,
			"byteOffset": 936,
			"componentType": 5126,
			"count": 30,
			"max": [ 1, 1, 1 ],
			"min": [ 1, 1, 1 ],
			"type": "VEC3"
		},
		{
			"bufferView": 1,
			"byteOffset": 216,
			"componentType": 5126,
			"count": 30,
			"max": [ 0.9666667 ],
			"min": [ 0 ],
			"type": "SCALAR"
		},
		{
			"bufferView": 5,
			"byteOffset": 1296,
			"componentType": 5126,
			"count": 30,
			"max": [ 0.160059, 2.782528, 0.28 ],
			"min": [ 0.160059, 1.524115, 0.01087993 ],
			"type": "VEC3"
		},
		{
			"bufferView": 6,
			"byteOffset": 864,
			"componentType": 5126,
			"count": 30,
			"max": [ -0.222887, 0, 0, -0.9748443 ],
			"min": [ -0.222887, 0, 0, -0.9748443 ],
			"type": "VEC4"
		},
		{
			"bufferView": 5,
			"byteOffset": 1656,
			"componentType": 5126,
			"count": 30,
			"max": [ 1, 1, 1 ],
			"min": [ 1, 1, 1 ],
			"type": "VEC3"
		},
		{
			"bufferView": 3,
			"byteOffset": 16824,
			"componentType": 5126,
			"count": 40,
			"max": [ 0.3509499, 0.2844843, 0.4022621 ],
			"min": [ -0.1627235, -0.2498502, 0.151115 ],
			"type": "VEC3"
		},
		{
			"bufferView": 3,
			"byteOffset": 17304,
			"componentType": 5126,
			"count": 40,
			"max": [ 0.9995641, 0.9741712, 0 ],
			"min": [ -0.9997364, -0.9974623, -1 ],
			"type": "VEC3"
		},
		{
			"bufferView": 4,
			"byteOffset": 11216,
			"componentType": 5126,
			"count": 40,
			"max": [ 1, 0, 0, 1 ],
			"min": [ 1, 0, 0, 1 ],
			"type": "VEC4"
		},
		{
			"bufferView": 0,
			"byteOffset": 2580,
			"componentType": 5123,
			"count": 66,
			"max": [ 39 ],
			"min": [ 0 ],
			"type": "SCALAR"
		},
		{
			"bufferView": 1,
			"byteOffset": 336,
			"componentType": 5126,
			"count": 30,
			"max": [ 0.9666667 ],
			"min": [ 0 ],
			"type": "SCALAR"
		},
		{
			"bufferView": 5,
			"byteOffset": 2016,
			"componentType": 5126,
			"count": 30,
			"max": [ 0.6542848, 1.657973, -0.05375743 ],
			"min": [ 0.6542848, 1.17159, -0.3988715 ],
			"type": "VEC3"
		},
		{
			"bufferView": 6,
			"byteOffset": 1344,
			"componentType": 5126,
			"count": 30,
			"max": [ -0.222887, 0, 0, -0.9748443 ],
			"min": [ -0.222887, 0, 0, -0.9748443 ],
			"type": "VEC4"
		},
		{
			"bufferView": 5,
			"byteOffset": 2376,
			"componentType": 5126,
			"count": 30,
			"max": [ 1, 1, 1 ],
			"min": [ 1, 1, 1 ],
			"type": "VEC3"
		},
		{
			"bufferView": 1,
			"byteOffset": 456,
			"componentType": 5126,
			"count": 30,
			"max": [ 0.9666667 ],
			"min": [ 0 ],
			"type": "SCALAR"
		},
		{
			"bufferView": 5,
			"byteOffset": 2736,
			"componentType": 5126,
			"count": 30,
			"max": [ 0.6542848, 1.657973, -0.05375743 ],
			"min": [ 0.6542848, 1.17159, -0.3988715 ],
			"type": "VEC3"
		},
		{
			"bufferView": 6,
			"byteOffset": 1824,
			"componentType": 5126,
			"count": 30,
			"max": [ -0.222887, 0, 0, -0.9748443 ],
			"min": [ -0.222887, 0, 0, -0.9748443 ],
			"type": "VEC4"
		},
		{
			"bufferView": 5,
			"byteOffset": 3096,
			"componentType": 5126,
			"count": 30,
			"max": [ 1, 1, 1 ],
			"min": [ 1, 1, 1 ],
			"type": "VEC3"
		},
		{
			"bufferView": 3,
			"byteOffset": 17784,
			"componentType": 5126,
			"count": 78,
			"max": [ 0.4490158, 0.3425815, 0.3792956 ],
			"min": [ -0.5248611, -0.4922648, 0.1620874 ],
			"type": "VEC3"
		},
		{
			"bufferView": 3,
			"byteOffset": 18720,
			"componentType": 5126,
			"count": 78,
			"max": [ 0.9999734, 0.9922721, 0 ],
			"min": [ -0.9824647, -0.9668097, -1 ],
			"type": "VEC3"
		},
		{
			"bufferView": 4,
			"byteOffset": 11856,
			"componentType": 5126,
			"count": 78,
			"max": [ 1, 0, 0, 1 ],
			"min": [ 1, 0, 0, 1 ],
			"type": "VEC4"
		},
		{
			"bufferView": 0,
			"byteOffset": 2712,
			"componentType": 5123,
			"count": 138,
			"max": [ 77 ],
			"min": [ 0 ],
			"type": "SCALAR"
		},
		{
			"bufferView": 1,
			"byteOffset": 576,
			"componentType": 5126,
			"count": 30,
			"max": [ 0.9666667 ],
			"min": [ 0 ],
			"type": "SCALAR"
		},
		{
			"bufferView": 5,
			"byteOffset": 3456,
			"componentType": 5126,
			"count": 30,
			"max": [ 0.493133, 1.970813, 0.06072025 ],
			"min": [ 0.493133, 1.352023, -0.1891828 ],
			"type": "VEC3"
		},
		{
			"bufferView": 6,
			"byteOffset": 2304,
			"componentType": 5126,
			"count": 30,
			"max": [ -0.222887, 0, 0, -0.9748443 ],
			"min": [ -0.222887, 0, 0, -0.9748443 ],
			"type": "VEC4"
		},
		{
			"bufferView": 5,
			"byteOffset": 3816,
			"componentType": 5126,
			"count": 30,
			"max": [ 1, 1, 1 ],
			"min": [ 1, 1, 1 ],
			"type": "VEC3"
		},
		{
			"bufferView": 1,
			"byteOffset": 696,
			"componentType": 5126,
			"count": 30,
			"max": [ 0.9666667 ],
			"min": [ 0 ],
			"type": "SCALAR"
		},
		{
			"bufferView": 5,
			"byteOffset": 4176,
			"componentType": 5126,
			"count": 30,
			"max": [ 0.493133, 1.970813, 0.06072025 ],
			"min": [ 0.493133, 1.352023, -0.1891828 ],
			"type": "VEC3"
		},
		{
			"bufferView": 6,
			"byteOffset": 2784,
			"componentType": 5126,
			"count": 30,
			"max": [ -0.222887, 0, 0, -0.9748443 ],
			"min": [ -0.222887, 0, 0, -0.9748443 ],
			"type": "VEC4"
		},
		{
			"bufferView": 5,
			"byteOffset": 4536,
			"componentType": 5126,
			"count": 30,
			"max": [ 1, 1, 1 ],
			"min": [ 1, 1, 1 ],
			"type": "VEC3"
		},
		{
			"bufferView": 3,
			"byteOffset": 19656,
			"componentType": 5126,
			"count": 45,
			"max": [ 0.2960517, 0.2000392, 0 ],
			"min": [ -0.4062028, -0.2215522, -0.2375715 ],
			"type": "VEC3"
		},
		{
			"bufferView": 3,
			"byteOffset": 20196,
			"componentType": 5126,
			"count": 45,
			"max": [ 0.9909697, 0.8549948, 0 ],
			"min": [ -0.7962286, -0.9998848, -1 ],
			"type": "VEC3"
		},
		{
			"bufferView": 4,
			"byteOffset": 13104,
			"componentType": 5126,
			"count": 45,
			"max": [ 1, 0, 0, 1 ],
			"min": [ 1, 0, 0, 1 ],
			"type": "VEC4"
		},
		{
			"bufferView": 0,
			"byteOffset": 2988,
			"componentType": 5123,
			"count": 75,
			"max": [ 44 ],
			"min": [ 0 ],
			"type": "SCALAR"
		},
		{
			"bufferView": 3,
			"byteOffset": 20736,
			"componentType": 5126,
			"count": 70,
			"max": [ 4.677073, 0.3572446, 0.4026535 ],
			"min": [ 3.785126, -0.09700459, 0.1718697 ],
			"type": "VEC3"
		},
		{
			"bufferView": 3,
			"byteOffset": 21576,
			"componentType": 5126,
			"count": 70,
			"max": [ 0.9335334, 0.9962804, 0 ],
			"min": [ -0.9832246, -0.9866347, -1 ],
			"type": "VEC3"
		},
		{
			"bufferView": 4,
			"byteOffset": 13824,
			"componentType": 5126,
			"count": 70,
			"max": [ 1, 0, 0, 1 ],
			"min": [ 1, 0, 0, 1 ],
			"type": "VEC4"
		},
		{
			"bufferView": 0,
			"byteOffset": 3138,
			"componentType": 5123,
			"count": 120,
			"max": [ 69 ],
			"min": [ 0 ],
			"type": "SCALAR"
		},
		{
			"bufferView": 3,
			"byteOffset": 22416,
			"componentType": 5126,
			"count": 60,
			"max": [ 0.3461828, 0.528641, 0 ],
			"min": [ -0.3681569, -0.3899325, -0.2172083 ],
			"type": "VEC3"
		},
		{
			"bufferView": 3,
			"byteOffset": 23136,
			"componentType": 5126,
			"count": 60,
			"max": [ 0.971727, 0.9803545, 0 ],
			"min": [ -0.9924219, -0.9989527, -1 ],
			"type": "VEC3"
		},
		{
			"bufferView": 4,
			"byteOffset": 14944,
			"componentType": 5126,
			"count": 60,
			"max": [ 1, 0, 0, 1 ],
			"min": [ 1, 0, 0, 1 ],
			"type": "VEC4"
		},
		{
			"bufferView": 0,
			"byteOffset": 3378,
			"componentType": 5123,
			"count": 102,
			"max": [ 59 ],
			"min": [ 0 ],
			"type": "SCALAR"
		},
		{
			"bufferView": 1,
			"byteOffset": 816,
			"componentType": 5126,
			"count": 17,
			"max": [ 0.5490196 ],
			"min": [ 0 ],
			"type": "SCALAR"
		},
		{
			"bufferView": 5,
			"byteOffset": 4896,
			"componentType": 5126,
			"count": 17,
			"max": [ -0.3862156, 1.613358, 0.4422051 ],
			"min": [ -0.3862156, 0.9368156, 0.1826151 ],
			"type": "VEC3"
		},
		{
			"bufferView": 6,
			"byteOffset": 3264,
			"componentType": 5126,
			"count": 17,
			"max": [ -0.222887, 0, 0, -0.9748443 ],
			"min": [ -0.222887, 0, 0, -0.9748443 ],
			"type": "VEC4"
		},
		{
			"bufferView": 5,
			"byteOffset": 5100,
			"componentType": 5126,
			"count": 17,
			"max": [ 1, 1, 1 ],
			"min": [ 1, 1, 1 ],
			"type": "VEC3"
		},
		{
			"bufferView": 3,
			"byteOffset": 23856,
			"componentType": 5126,
			"count": 5449,
			"max": [ 2.398568, 0.8940284, 0.2149924 ],
			"min": [ -2.398568, -0.8940284, -0.2149924 ],
			"type": "VEC3"
		},
		{
			"bufferView": 3,
			"byteOffset": 89244,
			"componentType": 5126,
			"count": 5449,
			"max": [ 0.9999999, 1, 1 ],
			"min": [ -0.9995974, -1, -1 ],
			"type": "VEC3"
		},
		{
			"bufferView": 2,
			"byteOffset": 4680,
			"componentType": 5126,
			"count": 5449,
			"max": [ 0.8234839, 0.9968836 ],
			"min": [ 0.00311644, 0.003116488 ],
			"type": "VEC2"
		},
		{
			"bufferView": 4,
			"byteOffset": 15904,
			"componentType": 5126,
			"count": 5449,
			"max": [ 0.9999999, 1, 0.3788593, 1 ],
			"min": [ -0.9999951, -1, -0.9999522, -1 ],
			"type": "VEC4"
		},
		{
			"bufferView": 0,
			"byteOffset": 3582,
			"componentType": 5123,
			"count": 17742,
			"max": [ 5448 ],
			"min": [ 0 ],
			"type": "SCALAR"
		}
	],
	"animations": [
		{
			"name": "animated arrow 1",
			"channels": [
				{
					"sampler": 0,
					"target": {
						"node": 10,
						"path": "translation"
					}
				},
				{
					"sampler": 1,
					"target": {
						"node": 10,
						"path": "rotation"
					}
				},
				{
					"sampler": 2,
					"target": {
						"node": 10,
						"path": "scale"
					}
				}
			],
			"samplers": [
				{
					"input": 0,
					"interpolation": "LINEAR",
					"output": 1
				},
				{
					"input": 0,
					"interpolation": "LINEAR",
					"output": 2
				},
				{
					"input": 0,
					"interpolation": "LINEAR",
					"output": 3
				}
			]
		},
		{
			"name": "Line002",
			"channels": [
				{
					"sampler": 0,
					"target": {
						"node": 4,
						"path": "translation"
					}
				},
				{
					"sampler": 1,
					"target": {
						"node": 4,
						"path": "rotation"
					}
				},
				{
					"sampler": 2,
					"target": {
						"node": 4,
						"path": "scale"
					}
				}
			],
			"samplers": [
				{
					"input": 14,
					"interpolation": "LINEAR",
					"output": 15
				},
				{
					"input": 14,
					"interpolation": "LINEAR",
					"output": 16
				},
				{
					"input": 14,
					"interpolation": "LINEAR",
					"output": 17
				}
			]
		},
		{
			"name": "Line002",
			"channels": [
				{
					"sampler": 0,
					"target": {
						"node": 4,
						"path": "translation"
					}
				},
				{
					"sampler": 1,
					"target": {
						"node": 4,
						"path": "rotation"
					}
				},
				{
					"sampler": 2,
					"target": {
						"node": 4,
						"path": "scale"
					}
				}
			],
			"samplers": [
				{
					"input": 18,
					"interpolation": "LINEAR",
					"output": 19
				},
				{
					"input": 18,
					"interpolation": "LINEAR",
					"output": 20
				},
				{
					"input": 18,
					"interpolation": "LINEAR",
					"output": 21
				}
			]
		},
		{
			"name": "Line003",
			"channels": [
				{
					"sampler": 0,
					"target": {
						"node": 5,
						"path": "translation"
					}
				},
				{
					"sampler": 1,
					"target": {
						"node": 5,
						"path": "rotation"
					}
				},
				{
					"sampler": 2,
					"target": {
						"node": 5,
						"path": "scale"
					}
				}
			],
			"samplers": [
				{
					"input": 26,
					"interpolation": "LINEAR",
					"output": 27
				},
				{
					"input": 26,
					"interpolation": "LINEAR",
					"output": 28
				},
				{
					"input": 26,
					"interpolation": "LINEAR",
					"output": 29
				}
			]
		},
		{
			"name": "Line003",
			"channels": [
				{
					"sampler": 0,
					"target": {
						"node": 5,
						"path": "translation"
					}
				},
				{
					"sampler": 1,
					"target": {
						"node": 5,
						"path": "rotation"
					}
				},
				{
					"sampler": 2,
					"target": {
						"node": 5,
						"path": "scale"
					}
				}
			],
			"samplers": [
				{
					"input": 30,
					"interpolation": "LINEAR",
					"output": 31
				},
				{
					"input": 30,
					"interpolation": "LINEAR",
					"output": 32
				},
				{
					"input": 30,
					"interpolation": "LINEAR",
					"output": 33
				}
			]
		},
		{
			"name": "Line004",
			"channels": [
				{
					"sampler": 0,
					"target": {
						"node": 6,
						"path": "translation"
					}
				},
				{
					"sampler": 1,
					"target": {
						"node": 6,
						"path": "rotation"
					}
				},
				{
					"sampler": 2,
					"target": {
						"node": 6,
						"path": "scale"
					}
				}
			],
			"samplers": [
				{
					"input": 38,
					"interpolation": "LINEAR",
					"output": 39
				},
				{
					"input": 38,
					"interpolation": "LINEAR",
					"output": 40
				},
				{
					"input": 38,
					"interpolation": "LINEAR",
					"output": 41
				}
			]
		},
		{
			"name": "Line004",
			"channels": [
				{
					"sampler": 0,
					"target": {
						"node": 6,
						"path": "translation"
					}
				},
				{
					"sampler": 1,
					"target": {
						"node": 6,
						"path": "rotation"
					}
				},
				{
					"sampler": 2,
					"target": {
						"node": 6,
						"path": "scale"
					}
				}
			],
			"samplers": [
				{
					"input": 42,
					"interpolation": "LINEAR",
					"output": 43
				},
				{
					"input": 42,
					"interpolation": "LINEAR",
					"output": 44
				},
				{
					"input": 42,
					"interpolation": "LINEAR",
					"output": 45
				}
			]
		},
		{
			"name": "Line007",
			"channels": [
				{
					"sampler": 0,
					"target": {
						"node": 9,
						"path": "translation"
					}
				},
				{
					"sampler": 1,
					"target": {
						"node": 9,
						"path": "rotation"
					}
				},
				{
					"sampler": 2,
					"target": {
						"node": 9,
						"path": "scale"
					}
				}
			],
			"samplers": [
				{
					"input": 58,
					"interpolation": "LINEAR",
					"output": 59
				},
				{
					"input": 58,
					"interpolation": "LINEAR",
					"output": 60
				},
				{
					"input": 58,
					"interpolation": "LINEAR",
					"output": 61
				}
			]
		}
	],
	"buffers": [
		{
			"byteLength": 354782,
			"uri": "基岩崩塌.bin"
		}
	],
	"bufferViews": [
		{
			"buffer": 0,
			"byteLength": 39066,
			"target": 34963,
			"byteOffset": 306876
		},
		{
			"buffer": 0,
			"byteLength": 884,
			"byteOffset": 0
		},
		{
			"buffer": 0,
			"byteLength": 48272,
			"target": 34962,
			"byteStride": 8,
			"byteOffset": 884
		},
		{
			"buffer": 0,
			"byteLength": 154632,
			"target": 34962,
			"byteStride": 12,
			"byteOffset": 49156
		},
		{
			"buffer": 0,
			"byteLength": 103088,
			"target": 34962,
			"byteStride": 16,
			"byteOffset": 203788
		},
		{
			"buffer": 0,
			"byteLength": 5304,
			"byteStride": 12,
			"byteOffset": 345942
		},
		{
			"buffer": 0,
			"byteLength": 3536,
			"byteStride": 16,
			"byteOffset": 351246
		}
	],
	"images": [
		{
			"uri": "/Assets/崩塌-基岩/散落型崩塌基底.fbm/深黄纹理2.jpg"
		},
		{
			"uri": "/Assets/崩塌-基岩/散落型崩塌基底.fbm/土纹理1.jpg"
		},
		{
			"uri": "/Assets/崩塌-基岩/散落型崩塌基底.fbm/岩石纹理1.jpg"
		},
		{
			"uri": "/Assets/崩塌-基岩/散落型崩塌基底.fbm/岩石纹理2.jpg"
		}
	],
	"materials": [
		{
			"pbrMetallicRoughness": {
				"baseColorTexture" : {
					"index" : 0,
					"texCoord" : 0
				},
				"baseColorFactor": [0.5882353, 0.5882353, 0.5882353, 1],
				"metallicFactor": 0,
				"roughnessFactor": 1
			},
			"emissiveFactor": [0, 0, 0],
			"doubleSided": false,
			"name": "2"
		},
		{
			"pbrMetallicRoughness": {
				"baseColorTexture" : {
					"index" : 1,
					"texCoord" : 0
				},
				"baseColorFactor": [0.5882353, 0.5882353, 0.5882353, 1],
				"metallicFactor": 0,
				"roughnessFactor": 1
			},
			"emissiveFactor": [0, 0, 0],
			"doubleSided": false,
			"name": "1"
		},
		{
			"pbrMetallicRoughness": {
				"baseColorTexture" : {
					"index" : 2,
					"texCoord" : 0
				},
				"baseColorFactor": [0.5882353, 0.5882353, 0.5882353, 1],
				"metallicFactor": 0,
				"roughnessFactor": 1
			},
			"emissiveFactor": [0, 0, 0],
			"doubleSided": false,
			"name": "1"
		},
		{
			"pbrMetallicRoughness": {
				"baseColorTexture" : {
					"index" : 3,
					"texCoord" : 0
				},
				"baseColorFactor": [0.5882353, 0.5882353, 0.5882353, 1],
				"metallicFactor": 0,
				"roughnessFactor": 1
			},
			"emissiveFactor": [0, 0, 0],
			"doubleSided": false,
			"name": "2"
		},
		{
			"pbrMetallicRoughness": {
				"baseColorFactor": [1, 0.1259843, 0.3736221, 1],
				"metallicFactor": 0,
				"roughnessFactor": 0.5
			},
			"emissiveFactor": [0, 0, 0],
			"doubleSided": false,
			"name": "Arrow Material"
		}
	],
	"meshes": [
		{
			"name": "mesh_Line001_11656Line001",
			"primitives": [
				{
					"attributes": {
						"POSITION": 4,
						"NORMAL": 5,
						"TEXCOORD_0": 6,
						"TANGENT": 7
					},
					"indices": 8,
					"material": 0,
					"mode": 4
				},
				{
					"attributes": {
						"POSITION": 4,
						"NORMAL": 5,
						"TEXCOORD_0": 6,
						"TANGENT": 7
					},
					"indices": 9,
					"material": 1,
					"mode": 4
				}
			]
		},
		{
			"name": "mesh_Line002_11654Line002",
			"primitives": [
				{
					"attributes": {
						"POSITION": 10,
						"NORMAL": 11,
						"TANGENT": 12
					},
					"indices": 13,
					"material": 2,
					"mode": 4
				}
			]
		},
		{
			"name": "mesh_Line003_11652Line003",
			"primitives": [
				{
					"attributes": {
						"POSITION": 22,
						"NORMAL": 23,
						"TANGENT": 24
					},
					"indices": 25,
					"material": 0,
					"mode": 4
				}
			]
		},
		{
			"name": "mesh_Line004_11650Line004",
			"primitives": [
				{
					"attributes": {
						"POSITION": 34,
						"NORMAL": 35,
						"TANGENT": 36
					},
					"indices": 37,
					"material": 3,
					"mode": 4
				}
			]
		},
		{
			"name": "mesh_Line005_11662Line005",
			"primitives": [
				{
					"attributes": {
						"POSITION": 46,
						"NORMAL": 47,
						"TANGENT": 48
					},
					"indices": 49,
					"material": 3,
					"mode": 4
				}
			]
		},
		{
			"name": "mesh_Line006_11660Line006",
			"primitives": [
				{
					"attributes": {
						"POSITION": 50,
						"NORMAL": 51,
						"TANGENT": 52
					},
					"indices": 53,
					"material": 3,
					"mode": 4
				}
			]
		},
		{
			"name": "mesh_Line007_11658Line007",
			"primitives": [
				{
					"attributes": {
						"POSITION": 54,
						"NORMAL": 55,
						"TANGENT": 56
					},
					"indices": 57,
					"material": 3,
					"mode": 4
				}
			]
		},
		{
			"name": "mesh_arrow_1_11682arrow_1",
			"primitives": [
				{
					"attributes": {
						"POSITION": 62,
						"NORMAL": 63,
						"TEXCOORD_0": 64,
						"TANGENT": 65
					},
					"indices": 66,
					"material": 4,
					"mode": 4
				}
			]
		}
	],
	"nodes": [
		{
			"name": "UnityGlTF_root",
			"children": [
				1
			]
		},
		{
			"name": "node__-3080",
			"children": [
				2,
				3,
				4,
				5,
				6,
				7,
				8,
				9
			],
			"matrix": [1, 0, 0, 0, 0, 1, 0, 0, 0, 0, 1, 0, 15.32653, -3.148507, 4.99, 1]
		},
		{
			"name": "node_animated arrow 1_-3082",
			"children": [
				10
			],
			"translation": [ 2.02, 3.36, -1.97],
			"scale": [ 0.3, 0.3, 0.3],
			"rotation": [0, 0, -0.7071068, -0.7071068]
		},
		{
			"name": "node_Line001_-3084",
			"mesh": 0,
			"translation": [ 0.1211698, 2.058531, 1.127499],
			"rotation": [0.3759787, 0.5988657, -0.3759786, -0.5988656]
		},
		{
			"name": "node_Line002_-3086",
			"mesh": 1,
			"translation": [ 0.160059, 2.782528, 0.28],
			"rotation": [-0.222887, 0, 0, -0.9748443]
		},
		{
			"name": "node_Line003_-3088",
			"mesh": 2,
			"translation": [ 0.6542848, 1.657973, -0.05375743],
			"rotation": [-0.222887, 0, 0, -0.9748443]
		},
		{
			"name": "node_Line004_-3090",
			"mesh": 3,
			"translation": [ 0.493133, 1.970813, 0.06072025],
			"rotation": [-0.222887, 0, 0, -0.9748443]
		},
		{
			"name": "node_Line005_-3092",
			"mesh": 4,
			"translation": [ -0.9745101, 0.8491228, -0.1969012],
			"rotation": [-0.6921002, 0.2119898, -0.133056, -0.6770183]
		},
		{
			"name": "node_Line006_-3094",
			"mesh": 5,
			"translation": [ -4.218605, 1.085892, -0.4689649],
			"rotation": [-0.6942116, 0, 0, -0.719771]
		},
		{
			"name": "node_Line007_-3096",
			"mesh": 6,
			"translation": [ -0.3862156, 1.613358, 0.4422051],
			"rotation": [-0.222887, 0, 0, -0.9748443]
		},
		{
			"name": "node_arrow_1_-3114",
			"mesh": 7
		}
	],
	"samplers": [
		{
			"magFilter": 9729,
			"minFilter": 9985,
			"wrapS": 10497,
			"wrapT": 10497
		}
	],
	"scenes": [
		{
			"name":"defaultScene",
			"nodes": [
				0
			]
		}
	],
	"scene": 0,
	"textures": [
		{
			"sampler": 0,
			"source": 0
		},
		{
			"sampler": 0,
			"source": 1
		},
		{
			"sampler": 0,
			"source": 2
		},
		{
			"sampler": 0,
			"source": 3
		}
	]
}