{
	"asset": {
		"generator": "Unity 2018.3.11f1",
		"extras": {
			"exporterVersion" : "2.2.1"
		},
		"version": "2.0"
	},
	"accessors": [
		{
			"bufferView": 3,
			"byteOffset": 0,
			"componentType": 5126,
			"count": 4856,
			"max": [ 8.080814, 0.174625, 8.946546 ],
			"min": [ -8.080814, -0.174625, -8.946546 ],
			"type": "VEC3"
		},
		{
			"bufferView": 3,
			"byteOffset": 58272,
			"componentType": 5126,
			"count": 4856,
			"max": [ 0.9999995, 1, 1 ],
			"min": [ -1, -1, -1 ],
			"type": "VEC3"
		},
		{
			"bufferView": 2,
			"byteOffset": 0,
			"componentType": 5126,
			"count": 4856,
			"max": [ 0, 0 ],
			"min": [ 0, 0 ],
			"type": "VEC2"
		},
		{
			"bufferView": 2,
			"byteOffset": 38848,
			"componentType": 5126,
			"count": 4856,
			"max": [ 0, 0 ],
			"min": [ 0, 0 ],
			"type": "VEC2"
		},
		{
			"bufferView": 4,
			"byteOffset": 0,
			"componentType": 5126,
			"count": 4856,
			"max": [ 1, 0, 0, 1 ],
			"min": [ 1, 0, 0, 1 ],
			"type": "VEC4"
		},
		{
			"bufferView": 0,
			"byteOffset": 0,
			"componentType": 5123,
			"count": 4620,
			"max": [ 1601 ],
			"min": [ 0 ],
			"type": "SCALAR"
		},
		{
			"bufferView": 0,
			"byteOffset": 9240,
			"componentType": 5123,
			"count": 9528,
			"max": [ 4855 ],
			"min": [ 1602 ],
			"type": "SCALAR"
		},
		{
			"bufferView": 1,
			"byteOffset": 0,
			"componentType": 5126,
			"count": 30,
			"max": [ 0.9666667 ],
			"min": [ 0 ],
			"type": "SCALAR"
		},
		{
			"bufferView": 5,
			"byteOffset": 0,
			"componentType": 5126,
			"count": 30,
			"max": [ 0, 0, 0 ],
			"min": [ 0, 0, 0 ],
			"type": "VEC3"
		},
		{
			"bufferView": 6,
			"byteOffset": 0,
			"componentType": 5126,
			"count": 30,
			"max": [ 0, 0, 0, 1 ],
			"min": [ 0, -1, 0, -0.9945219 ],
			"type": "VEC4"
		},
		{
			"bufferView": 5,
			"byteOffset": 360,
			"componentType": 5126,
			"count": 30,
			"max": [ 1, 1, 1 ],
			"min": [ 1, 1, 1 ],
			"type": "VEC3"
		}
	],
	"animations": [
		{
			"name": "",
			"channels": [
				{
					"sampler": 0,
					"target": {
						"node": 2,
						"path": "translation"
					}
				},
				{
					"sampler": 1,
					"target": {
						"node": 2,
						"path": "rotation"
					}
				},
				{
					"sampler": 2,
					"target": {
						"node": 2,
						"path": "scale"
					}
				}
			],
			"samplers": [
				{
					"input": 7,
					"interpolation": "LINEAR",
					"output": 8
				},
				{
					"input": 7,
					"interpolation": "LINEAR",
					"output": 9
				},
				{
					"input": 7,
					"interpolation": "LINEAR",
					"output": 10
				}
			]
		}
	],
	"buffers": [
		{
			"byteLength": 301552,
			"uri": "动物园.bin"
		}
	],
	"bufferViews": [
		{
			"buffer": 0,
			"byteLength": 28296,
			"target": 34963,
			"byteOffset": 272056
		},
		{
			"buffer": 0,
			"byteLength": 120,
			"byteOffset": 0
		},
		{
			"buffer": 0,
			"byteLength": 77696,
			"target": 34962,
			"byteStride": 8,
			"byteOffset": 120
		},
		{
			"buffer": 0,
			"byteLength": 116544,
			"target": 34962,
			"byteStride": 12,
			"byteOffset": 77816
		},
		{
			"buffer": 0,
			"byteLength": 77696,
			"target": 34962,
			"byteStride": 16,
			"byteOffset": 194360
		},
		{
			"buffer": 0,
			"byteLength": 720,
			"byteStride": 12,
			"byteOffset": 300352
		},
		{
			"buffer": 0,
			"byteLength": 480,
			"byteStride": 16,
			"byteOffset": 301072
		}
	],
	"materials": [
		{
			"pbrMetallicRoughness": {
				"baseColorFactor": [0, 0, 0, 1],
				"metallicFactor": 0,
				"roughnessFactor": 1
			},
			"emissiveFactor": [0, 0, 0],
			"doubleSided": false,
			"name": "dbl_Component#1_001"
		},
		{
			"pbrMetallicRoughness": {
				"baseColorFactor": [0, 0, 0, 1],
				"metallicFactor": 0,
				"roughnessFactor": 1
			},
			"emissiveFactor": [0, 0, 0],
			"doubleSided": false,
			"name": "dbl_Component#1_002"
		}
	],
	"meshes": [
		{
			"name": "mesh_Component#1_001_149363d-model",
			"primitives": [
				{
					"attributes": {
						"POSITION": 0,
						"NORMAL": 1,
						"TEXCOORD_0": 2,
						"TEXCOORD_1": 3,
						"TANGENT": 4
					},
					"indices": 5,
					"material": 0,
					"mode": 4
				},
				{
					"attributes": {
						"POSITION": 0,
						"NORMAL": 1,
						"TEXCOORD_0": 2,
						"TEXCOORD_1": 3,
						"TANGENT": 4
					},
					"indices": 6,
					"material": 1,
					"mode": 4
				}
			]
		}
	],
	"nodes": [
		{
			"name": "UnityGlTF_root",
			"children": [
				2
			]
		},
		{
			"name": "node_3d-model_-2108",
			"mesh": 0,
			"rotation": [-0.7071068, 0, 0, -0.7071068]
		},
		{
			"name": "node__-2410",
			"children": [
				1
			],
			"matrix": [-0.2079117, 0, 0.9781476, 0, 0, 1, 0, 0, -0.9781476, 0, -0.2079117, 0, 0, 0, 0, 1]
		}
	],
	"scenes": [
		{
			"name":"defaultScene",
			"nodes": [
				0
			]
		}
	],
	"scene": 0
}