{
	"asset": {
		"generator": "Unity 2018.3.11f1",
		"extras": {
			"exporterVersion" : "2.2.1"
		},
		"version": "2.0"
	},
	"accessors": [
		{
			"bufferView": 2,
			"byteOffset": 0,
			"componentType": 5126,
			"count": 121,
			"max": [ 5, 1.110223E-16, 5 ],
			"min": [ -5, -1.110223E-16, -5 ],
			"type": "VEC3"
		},
		{
			"bufferView": 2,
			"byteOffset": 1452,
			"componentType": 5126,
			"count": 121,
			"max": [ 0, 1, 0 ],
			"min": [ 0, 1, 0 ],
			"type": "VEC3"
		},
		{
			"bufferView": 1,
			"byteOffset": 0,
			"componentType": 5126,
			"count": 121,
			"max": [ 1, 1 ],
			"min": [ 0, 0 ],
			"type": "VEC2"
		},
		{
			"bufferView": 3,
			"byteOffset": 0,
			"componentType": 5126,
			"count": 121,
			"max": [ -1, 0, 0, 1 ],
			"min": [ -1, 0, 0, 1 ],
			"type": "VEC4"
		},
		{
			"bufferView": 0,
			"byteOffset": 0,
			"componentType": 5123,
			"count": 600,
			"max": [ 120 ],
			"min": [ 0 ],
			"type": "SCALAR"
		},
		{
			"bufferView": 2,
			"byteOffset": 2904,
			"componentType": 5126,
			"count": 121,
			"max": [ 5, 1.110223E-16, 5 ],
			"min": [ -5, -1.110223E-16, -5 ],
			"type": "VEC3"
		},
		{
			"bufferView": 2,
			"byteOffset": 4356,
			"componentType": 5126,
			"count": 121,
			"max": [ 0, 1, 0 ],
			"min": [ 0, 1, 0 ],
			"type": "VEC3"
		},
		{
			"bufferView": 1,
			"byteOffset": 968,
			"componentType": 5126,
			"count": 121,
			"max": [ 1, 1 ],
			"min": [ 0, 0 ],
			"type": "VEC2"
		},
		{
			"bufferView": 3,
			"byteOffset": 1936,
			"componentType": 5126,
			"count": 121,
			"max": [ -1, 0, 0, 1 ],
			"min": [ -1, 0, 0, 1 ],
			"type": "VEC4"
		},
		{
			"bufferView": 0,
			"byteOffset": 1200,
			"componentType": 5123,
			"count": 600,
			"max": [ 120 ],
			"min": [ 0 ],
			"type": "SCALAR"
		},
		{
			"bufferView": 2,
			"byteOffset": 5808,
			"componentType": 5126,
			"count": 121,
			"max": [ 5, 1.110223E-16, 5 ],
			"min": [ -5, -1.110223E-16, -5 ],
			"type": "VEC3"
		},
		{
			"bufferView": 2,
			"byteOffset": 7260,
			"componentType": 5126,
			"count": 121,
			"max": [ 0, 1, 0 ],
			"min": [ 0, 1, 0 ],
			"type": "VEC3"
		},
		{
			"bufferView": 1,
			"byteOffset": 1936,
			"componentType": 5126,
			"count": 121,
			"max": [ 1, 1 ],
			"min": [ 0, 0 ],
			"type": "VEC2"
		},
		{
			"bufferView": 3,
			"byteOffset": 3872,
			"componentType": 5126,
			"count": 121,
			"max": [ -1, 0, 0, 1 ],
			"min": [ -1, 0, 0, 1 ],
			"type": "VEC4"
		},
		{
			"bufferView": 0,
			"byteOffset": 2400,
			"componentType": 5123,
			"count": 600,
			"max": [ 120 ],
			"min": [ 0 ],
			"type": "SCALAR"
		},
		{
			"bufferView": 2,
			"byteOffset": 8712,
			"componentType": 5126,
			"count": 799,
			"max": [ 3.81, 1.27, 0.9997154 ],
			"min": [ -3.81, -1.27, -0.9997154 ],
			"type": "VEC3"
		},
		{
			"bufferView": 2,
			"byteOffset": 18300,
			"componentType": 5126,
			"count": 799,
			"max": [ 1, 1, 1 ],
			"min": [ -1, -1, -0.9963388 ],
			"type": "VEC3"
		},
		{
			"bufferView": 1,
			"byteOffset": 2904,
			"componentType": 5126,
			"count": 799,
			"max": [ 1, 1 ],
			"min": [ 0, 0 ],
			"type": "VEC2"
		},
		{
			"bufferView": 3,
			"byteOffset": 5808,
			"componentType": 5126,
			"count": 799,
			"max": [ 1, 1, 0.9562843, 1 ],
			"min": [ -1, -1, -0.9820275, 1 ],
			"type": "VEC4"
		},
		{
			"bufferView": 0,
			"byteOffset": 3600,
			"componentType": 5123,
			"count": 966,
			"max": [ 337 ],
			"min": [ 0 ],
			"type": "SCALAR"
		},
		{
			"bufferView": 0,
			"byteOffset": 5532,
			"componentType": 5123,
			"count": 2406,
			"max": [ 798 ],
			"min": [ 334 ],
			"type": "SCALAR"
		}
	],
	"buffers": [
		{
			"byteLength": 66120,
			"uri": "河漫滩河谷.bin"
		}
	],
	"bufferViews": [
		{
			"buffer": 0,
			"byteLength": 10344,
			"target": 34963,
			"byteOffset": 55776
		},
		{
			"buffer": 0,
			"byteLength": 9296,
			"target": 34962,
			"byteStride": 8,
			"byteOffset": 0
		},
		{
			"buffer": 0,
			"byteLength": 27888,
			"target": 34962,
			"byteStride": 12,
			"byteOffset": 9296
		},
		{
			"buffer": 0,
			"byteLength": 18592,
			"target": 34962,
			"byteStride": 16,
			"byteOffset": 37184
		}
	],
	"images": [
		{
			"uri": "/Assets/河谷流水地貌/河谷/Textures/Sand (Beach).jpg"
		},
		{
			"uri": "/Assets/河谷流水地貌/河谷/Textures/Grass (Hill)(1).jpg"
		}
	],
	"materials": [
		{
			"pbrMetallicRoughness": {
				"baseColorFactor": [0.01361692, 0.2982111, 0.9622642, 1],
				"metallicFactor": 0,
				"roughnessFactor": 0.5
			},
			"emissiveFactor": [0, 0, 0],
			"doubleSided": false,
			"name": ""
		},
		{
			"pbrMetallicRoughness": {
				"baseColorTexture" : {
					"index" : 0,
					"texCoord" : 0
				},
				"baseColorFactor": [1, 1, 1, 1],
				"metallicFactor": 0,
				"roughnessFactor": 0.5
			},
			"emissiveFactor": [0, 0, 0],
			"doubleSided": false,
			"name": "Sand (Beach)"
		},
		{
			"pbrMetallicRoughness": {
				"baseColorTexture" : {
					"index" : 1,
					"texCoord" : 0
				},
				"baseColorFactor": [1, 1, 1, 1],
				"metallicFactor": 0,
				"roughnessFactor": 0.5
			},
			"emissiveFactor": [0, 0, 0],
			"doubleSided": false,
			"name": "Grass (Hill)(1)"
		}
	],
	"meshes": [
		{
			"name": "mesh_Plane_536Plane",
			"primitives": [
				{
					"attributes": {
						"POSITION": 0,
						"NORMAL": 1,
						"TEXCOORD_0": 2,
						"TANGENT": 3
					},
					"indices": 4,
					"material": 0,
					"mode": 4
				}
			]
		},
		{
			"name": "mesh_Plane_536Plane",
			"primitives": [
				{
					"attributes": {
						"POSITION": 5,
						"NORMAL": 6,
						"TEXCOORD_0": 7,
						"TANGENT": 8
					},
					"indices": 9,
					"material": 0,
					"mode": 4
				}
			]
		},
		{
			"name": "mesh_Plane_536Plane (1)",
			"primitives": [
				{
					"attributes": {
						"POSITION": 10,
						"NORMAL": 11,
						"TEXCOORD_0": 12,
						"TANGENT": 13
					},
					"indices": 14,
					"material": 0,
					"mode": 4
				}
			]
		},
		{
			"name": "mesh_Box002_11418",
			"primitives": [
				{
					"attributes": {
						"POSITION": 15,
						"NORMAL": 16,
						"TEXCOORD_0": 17,
						"TANGENT": 18
					},
					"indices": 19,
					"material": 1,
					"mode": 4
				},
				{
					"attributes": {
						"POSITION": 15,
						"NORMAL": 16,
						"TEXCOORD_0": 17,
						"TANGENT": 18
					},
					"indices": 20,
					"material": 2,
					"mode": 4
				}
			]
		}
	],
	"nodes": [
		{
			"name": "UnityGlTF_root",
			"children": [
				5
			]
		},
		{
			"name": "node__-2788",
			"children": [
				2,
				3,
				4
			],
			"translation": [ 0, 0, 0.198],
			"rotation": [0.7071068, 0, 0, -0.7071068]
		},
		{
			"name": "node_Plane_-2792",
			"mesh": 0,
			"translation": [ -0.19, -0.192, 1.26],
			"scale": [ 0.07239541, 1, 0.1119095],
			"rotation": [-0.5, -0.5, -0.5, -0.5]
		},
		{
			"name": "node_Plane_-2794",
			"mesh": 1,
			"translation": [ 0, 0.17, 0],
			"scale": [ 0.14132, 1, 0.2530573]
		},
		{
			"name": "node_Plane (1)_-2796",
			"mesh": 2,
			"translation": [ -0.19, -0.192, -1.264],
			"scale": [ 0.0724, 1, 0.11191],
			"rotation": [0.5, 0.5, -0.5, -0.5]
		},
		{
			"name": "node__-2782",
			"mesh": 3,
			"children": [
				1
			],
			"matrix": [0, 0, 1, 0, -1, 0, 0, 0, 0, -1, 0, 0, 0, 0, 11.44, 1]
		}
	],
	"samplers": [
		{
			"magFilter": 9729,
			"minFilter": 9985,
			"wrapS": 10497,
			"wrapT": 10497
		}
	],
	"scenes": [
		{
			"name":"defaultScene",
			"nodes": [
				0
			]
		}
	],
	"scene": 0,
	"textures": [
		{
			"sampler": 0,
			"source": 0
		},
		{
			"sampler": 0,
			"source": 1
		}
	]
}