{
	"asset": {
		"generator": "Unity 2018.3.11f1",
		"extras": {
			"exporterVersion" : "2.2.1"
		},
		"version": "2.0"
	},
	"accessors": [
		{
			"bufferView": 3,
			"byteOffset": 0,
			"componentType": 5126,
			"count": 66049,
			"max": [ 50, 10.57865, 0 ],
			"min": [ 0, 0, -50 ],
			"type": "VEC3"
		},
		{
			"bufferView": 3,
			"byteOffset": 792588,
			"componentType": 5126,
			"count": 66049,
			"max": [ 0.7337437, 1, 0.9625932 ],
			"min": [ -0.9103452, 0.2646759, -0.9465279 ],
			"type": "VEC3"
		},
		{
			"bufferView": 2,
			"byteOffset": 0,
			"componentType": 5126,
			"count": 66049,
			"max": [ 1, 1 ],
			"min": [ 0, 0 ],
			"type": "VEC2"
		},
		{
			"bufferView": 4,
			"byteOffset": 0,
			"componentType": 5126,
			"count": 66049,
			"max": [ 0.02373331, 0.9641073, -0.2655127, -1 ],
			"min": [ -0.03521751, -0.948721, -1, -1 ],
			"type": "VEC4"
		},
		{
			"bufferView": 0,
			"byteOffset": 0,
			"componentType": 5123,
			"count": 393216,
			"max": [ 66048 ],
			"min": [ 0 ],
			"type": "SCALAR"
		},
		{
			"bufferView": 1,
			"byteOffset": 0,
			"componentType": 5126,
			"count": 30,
			"max": [ 0.9666667 ],
			"min": [ 0 ],
			"type": "SCALAR"
		},
		{
			"bufferView": 5,
			"byteOffset": 0,
			"componentType": 5126,
			"count": 30,
			"max": [ 0, 0, 0 ],
			"min": [ 0, 0, 0 ],
			"type": "VEC3"
		},
		{
			"bufferView": 6,
			"byteOffset": 0,
			"componentType": 5126,
			"count": 30,
			"max": [ 0, 0, 0, -1 ],
			"min": [ 0, 0, 0, -1 ],
			"type": "VEC4"
		},
		{
			"bufferView": 5,
			"byteOffset": 360,
			"componentType": 5126,
			"count": 30,
			"max": [ 1, 1, 1 ],
			"min": [ 0, 0, 0 ],
			"type": "VEC3"
		},
		{
			"bufferView": 1,
			"byteOffset": 120,
			"componentType": 5126,
			"count": 30,
			"max": [ 0.9666667 ],
			"min": [ 0 ],
			"type": "SCALAR"
		},
		{
			"bufferView": 5,
			"byteOffset": 720,
			"componentType": 5126,
			"count": 30,
			"max": [ 0, 0, 0 ],
			"min": [ 0, 0, 0 ],
			"type": "VEC3"
		},
		{
			"bufferView": 6,
			"byteOffset": 480,
			"componentType": 5126,
			"count": 30,
			"max": [ 0, 0, 0, -1 ],
			"min": [ 0, 0, 0, -1 ],
			"type": "VEC4"
		},
		{
			"bufferView": 5,
			"byteOffset": 1080,
			"componentType": 5126,
			"count": 30,
			"max": [ 1, 1, 1 ],
			"min": [ 1, 1, 1 ],
			"type": "VEC3"
		},
		{
			"bufferView": 1,
			"byteOffset": 240,
			"componentType": 5126,
			"count": 30,
			"max": [ 0.9666667 ],
			"min": [ 0 ],
			"type": "SCALAR"
		},
		{
			"bufferView": 5,
			"byteOffset": 1440,
			"componentType": 5126,
			"count": 30,
			"max": [ 0, 0, 0 ],
			"min": [ 0, 0, 0 ],
			"type": "VEC3"
		},
		{
			"bufferView": 6,
			"byteOffset": 960,
			"componentType": 5126,
			"count": 30,
			"max": [ 0, 0, 0, -1 ],
			"min": [ 0, 0, 0, -1 ],
			"type": "VEC4"
		},
		{
			"bufferView": 5,
			"byteOffset": 1800,
			"componentType": 5126,
			"count": 30,
			"max": [ 1, 1, 1 ],
			"min": [ 0, 0, 0 ],
			"type": "VEC3"
		},
		{
			"bufferView": 1,
			"byteOffset": 360,
			"componentType": 5126,
			"count": 30,
			"max": [ 0.9666667 ],
			"min": [ 0 ],
			"type": "SCALAR"
		},
		{
			"bufferView": 5,
			"byteOffset": 2160,
			"componentType": 5126,
			"count": 30,
			"max": [ 0, 0, 0 ],
			"min": [ 0, 0, 0 ],
			"type": "VEC3"
		},
		{
			"bufferView": 6,
			"byteOffset": 1440,
			"componentType": 5126,
			"count": 30,
			"max": [ 0, 0, 0, -1 ],
			"min": [ 0, 0, 0, -1 ],
			"type": "VEC4"
		},
		{
			"bufferView": 5,
			"byteOffset": 2520,
			"componentType": 5126,
			"count": 30,
			"max": [ 1, 1, 1 ],
			"min": [ 0, 0, 0 ],
			"type": "VEC3"
		},
		{
			"bufferView": 3,
			"byteOffset": 1585176,
			"componentType": 5126,
			"count": 66049,
			"max": [ 50, 6.725874, 0 ],
			"min": [ 0, 0.197766, -50 ],
			"type": "VEC3"
		},
		{
			"bufferView": 3,
			"byteOffset": 2377764,
			"componentType": 5126,
			"count": 66049,
			"max": [ 0.7392938, 1, 0.6262949 ],
			"min": [ -0.5487912, 0.666778, -0.6607409 ],
			"type": "VEC3"
		},
		{
			"bufferView": 2,
			"byteOffset": 528392,
			"componentType": 5126,
			"count": 66049,
			"max": [ 1, 1 ],
			"min": [ 0, 0 ],
			"type": "VEC2"
		},
		{
			"bufferView": 4,
			"byteOffset": 1056784,
			"componentType": 5126,
			"count": 66049,
			"max": [ 0.001347838, 0.6423194, -0.7504945, -1 ],
			"min": [ -0.00143085, -0.6608766, -1, -1 ],
			"type": "VEC4"
		},
		{
			"bufferView": 0,
			"byteOffset": 786432,
			"componentType": 5123,
			"count": 393216,
			"max": [ 66048 ],
			"min": [ 0 ],
			"type": "SCALAR"
		},
		{
			"bufferView": 3,
			"byteOffset": 3170352,
			"componentType": 5126,
			"count": 66049,
			"max": [ 50, 11.60227, 0 ],
			"min": [ 0, 0.197766, -50 ],
			"type": "VEC3"
		},
		{
			"bufferView": 3,
			"byteOffset": 3962940,
			"componentType": 5126,
			"count": 66049,
			"max": [ 0.8379238, 0.9999877, 0.8681874 ],
			"min": [ -0.7131298, 0.470314, -0.8819841 ],
			"type": "VEC3"
		},
		{
			"bufferView": 2,
			"byteOffset": 1056784,
			"componentType": 5126,
			"count": 66049,
			"max": [ 1, 1 ],
			"min": [ 0, 0 ],
			"type": "VEC2"
		},
		{
			"bufferView": 4,
			"byteOffset": 2113568,
			"componentType": 5126,
			"count": 66049,
			"max": [ 0.003844128, 0.8684111, -0.470528, -1 ],
			"min": [ -0.00277882, -0.8823851, -1, -1 ],
			"type": "VEC4"
		},
		{
			"bufferView": 0,
			"byteOffset": 1572864,
			"componentType": 5123,
			"count": 393216,
			"max": [ 66048 ],
			"min": [ 0 ],
			"type": "SCALAR"
		},
		{
			"bufferView": 3,
			"byteOffset": 4755528,
			"componentType": 5126,
			"count": 66049,
			"max": [ 50, 15.79015, 0 ],
			"min": [ 0, 0.197766, -50 ],
			"type": "VEC3"
		},
		{
			"bufferView": 3,
			"byteOffset": 5548116,
			"componentType": 5126,
			"count": 66049,
			"max": [ 0.8386726, 0.9999944, 0.9424069 ],
			"min": [ -0.8751737, 0.3154958, -0.9268885 ],
			"type": "VEC3"
		},
		{
			"bufferView": 2,
			"byteOffset": 1585176,
			"componentType": 5126,
			"count": 66049,
			"max": [ 1, 1 ],
			"min": [ 0, 0 ],
			"type": "VEC2"
		},
		{
			"bufferView": 4,
			"byteOffset": 3170352,
			"componentType": 5126,
			"count": 66049,
			"max": [ 0.01370208, 0.9480953, -0.3179864, -1 ],
			"min": [ -0.02996428, -0.9289691, -1, -1 ],
			"type": "VEC4"
		},
		{
			"bufferView": 0,
			"byteOffset": 2359296,
			"componentType": 5123,
			"count": 393216,
			"max": [ 66048 ],
			"min": [ 0 ],
			"type": "SCALAR"
		}
	],
	"animations": [
		{
			"name": "",
			"channels": [
				{
					"sampler": 0,
					"target": {
						"node": 9,
						"path": "translation"
					}
				},
				{
					"sampler": 1,
					"target": {
						"node": 9,
						"path": "rotation"
					}
				},
				{
					"sampler": 2,
					"target": {
						"node": 9,
						"path": "scale"
					}
				},
				{
					"sampler": 3,
					"target": {
						"node": 1,
						"path": "translation"
					}
				},
				{
					"sampler": 4,
					"target": {
						"node": 1,
						"path": "rotation"
					}
				},
				{
					"sampler": 5,
					"target": {
						"node": 1,
						"path": "scale"
					}
				},
				{
					"sampler": 6,
					"target": {
						"node": 7,
						"path": "translation"
					}
				},
				{
					"sampler": 7,
					"target": {
						"node": 7,
						"path": "rotation"
					}
				},
				{
					"sampler": 8,
					"target": {
						"node": 7,
						"path": "scale"
					}
				},
				{
					"sampler": 9,
					"target": {
						"node": 8,
						"path": "translation"
					}
				},
				{
					"sampler": 10,
					"target": {
						"node": 8,
						"path": "rotation"
					}
				},
				{
					"sampler": 11,
					"target": {
						"node": 8,
						"path": "scale"
					}
				}
			],
			"samplers": [
				{
					"input": 5,
					"interpolation": "LINEAR",
					"output": 6
				},
				{
					"input": 5,
					"interpolation": "LINEAR",
					"output": 7
				},
				{
					"input": 5,
					"interpolation": "LINEAR",
					"output": 8
				},
				{
					"input": 9,
					"interpolation": "LINEAR",
					"output": 10
				},
				{
					"input": 9,
					"interpolation": "LINEAR",
					"output": 11
				},
				{
					"input": 9,
					"interpolation": "LINEAR",
					"output": 12
				},
				{
					"input": 13,
					"interpolation": "LINEAR",
					"output": 14
				},
				{
					"input": 13,
					"interpolation": "LINEAR",
					"output": 15
				},
				{
					"input": 13,
					"interpolation": "LINEAR",
					"output": 16
				},
				{
					"input": 17,
					"interpolation": "LINEAR",
					"output": 18
				},
				{
					"input": 17,
					"interpolation": "LINEAR",
					"output": 19
				},
				{
					"input": 17,
					"interpolation": "LINEAR",
					"output": 20
				}
			]
		}
	],
	"buffers": [
		{
			"byteLength": 15832416,
			"uri": "风蚀谷.bin"
		}
	],
	"bufferViews": [
		{
			"buffer": 0,
			"byteLength": 3145728,
			"target": 34963,
			"byteOffset": 12681888
		},
		{
			"buffer": 0,
			"byteLength": 480,
			"byteOffset": 0
		},
		{
			"buffer": 0,
			"byteLength": 2113568,
			"target": 34962,
			"byteStride": 8,
			"byteOffset": 480
		},
		{
			"buffer": 0,
			"byteLength": 6340704,
			"target": 34962,
			"byteStride": 12,
			"byteOffset": 2114048
		},
		{
			"buffer": 0,
			"byteLength": 4227136,
			"target": 34962,
			"byteStride": 16,
			"byteOffset": 8454752
		},
		{
			"buffer": 0,
			"byteLength": 2880,
			"byteStride": 12,
			"byteOffset": 15827616
		},
		{
			"buffer": 0,
			"byteLength": 1920,
			"byteStride": 16,
			"byteOffset": 15830496
		}
	],
	"images": [
		{
			"uri": "/Assets/风蚀柱/Texturs/timg (1).jpg"
		},
		{
			"uri": "/Assets/风蚀柱/Texturs/GoodDirt.jpg"
		}
	],
	"materials": [
		{
			"pbrMetallicRoughness": {
				"baseColorTexture" : {
					"index" : 0,
					"texCoord" : 0
				},
				"baseColorFactor": [1, 1, 1, 1],
				"metallicFactor": 0,
				"roughnessFactor": 0.5
			},
			"emissiveFactor": [0, 0, 0],
			"doubleSided": false,
			"name": ""
		},
		{
			"pbrMetallicRoughness": {
				"baseColorTexture" : {
					"index" : 1,
					"texCoord" : 0
				},
				"baseColorFactor": [1, 1, 1, 1],
				"metallicFactor": 0,
				"roughnessFactor": 0.5
			},
			"emissiveFactor": [0, 0, 0],
			"doubleSided": false,
			"name": ""
		}
	],
	"meshes": [
		{
			"name": "mesh_default_10908default",
			"primitives": [
				{
					"attributes": {
						"POSITION": 0,
						"NORMAL": 1,
						"TEXCOORD_0": 2,
						"TANGENT": 3
					},
					"indices": 4,
					"material": 0,
					"mode": 4
				}
			]
		},
		{
			"name": "mesh_default_10424default",
			"primitives": [
				{
					"attributes": {
						"POSITION": 21,
						"NORMAL": 22,
						"TEXCOORD_0": 23,
						"TANGENT": 24
					},
					"indices": 25,
					"material": 1,
					"mode": 4
				}
			]
		},
		{
			"name": "mesh_default_10540default",
			"primitives": [
				{
					"attributes": {
						"POSITION": 26,
						"NORMAL": 27,
						"TEXCOORD_0": 28,
						"TANGENT": 29
					},
					"indices": 30,
					"material": 0,
					"mode": 4
				}
			]
		},
		{
			"name": "mesh_default_10730default",
			"primitives": [
				{
					"attributes": {
						"POSITION": 31,
						"NORMAL": 32,
						"TEXCOORD_0": 33,
						"TANGENT": 34
					},
					"indices": 35,
					"material": 0,
					"mode": 4
				}
			]
		}
	],
	"nodes": [
		{
			"name": "UnityGlTF_root",
			"children": [
				3
			]
		},
		{
			"name": "node_Terrain_-12008",
			"children": [
				4
			]
		},
		{
			"name": "node_default_-12028",
			"mesh": 0
		},
		{
			"name": "node__-12002",
			"children": [
				9,
				1,
				7,
				8
			],
			"matrix": [1, 0, 0, 0, 0, 1, 0, 0, 0, 0, 1, 0, 1.205693, -7.600052, -10.84321, 1]
		},
		{
			"name": "node_default_-12016",
			"mesh": 1,
			"translation": [ 0, 0.67, 0]
		},
		{
			"name": "node_default_-12020",
			"mesh": 2
		},
		{
			"name": "node_default_-12024",
			"mesh": 3
		},
		{
			"name": "node_1Terrain_-12010",
			"children": [
				5
			],
			"scale": [ 0, 0, 0]
		},
		{
			"name": "node_0-1Terrain_-12012",
			"children": [
				2
			]
		},
		{
			"name": "node_2Terrain_-12006",
			"children": [
				6
			],
			"scale": [ 0, 0, 0]
		}
	],
	"samplers": [
		{
			"magFilter": 9729,
			"minFilter": 9985,
			"wrapS": 10497,
			"wrapT": 10497
		}
	],
	"scenes": [
		{
			"name":"defaultScene",
			"nodes": [
				0
			]
		}
	],
	"scene": 0,
	"textures": [
		{
			"sampler": 0,
			"source": 0
		},
		{
			"sampler": 0,
			"source": 1
		}
	]
}