{
	"asset": {
		"generator": "Unity 2018.3.11f1",
		"extras": {
			"exporterVersion" : "2.2.1"
		},
		"version": "2.0"
	},
	"accessors": [
		{
			"bufferView": 3,
			"byteOffset": 0,
			"componentType": 5126,
			"count": 710,
			"max": [ 0.2373721, 0.2373721, 0.7155267 ],
			"min": [ -0.2373721, -0.2373721, -0.3170822 ],
			"type": "VEC3"
		},
		{
			"bufferView": 3,
			"byteOffset": 8520,
			"componentType": 5126,
			"count": 710,
			"max": [ 0.9999719, 0.9999788, 1 ],
			"min": [ -0.9999859, -0.9999784, -1 ],
			"type": "VEC3"
		},
		{
			"bufferView": 2,
			"byteOffset": 0,
			"componentType": 5126,
			"count": 710,
			"max": [ 2, 1 ],
			"min": [ 0, -1.192093E-07 ],
			"type": "VEC2"
		},
		{
			"bufferView": 4,
			"byteOffset": 0,
			"componentType": 5126,
			"count": 710,
			"max": [ 1, 1, 0.8323646, 1 ],
			"min": [ -1, -1, -0.8642894, -1 ],
			"type": "VEC4"
		},
		{
			"bufferView": 0,
			"byteOffset": 0,
			"componentType": 5123,
			"count": 3417,
			"max": [ 709 ],
			"min": [ 0 ],
			"type": "SCALAR"
		},
		{
			"bufferView": 3,
			"byteOffset": 17040,
			"componentType": 5126,
			"count": 710,
			"max": [ 0.2373721, 0.2373721, 0.7155267 ],
			"min": [ -0.2373721, -0.2373721, -0.3170822 ],
			"type": "VEC3"
		},
		{
			"bufferView": 3,
			"byteOffset": 25560,
			"componentType": 5126,
			"count": 710,
			"max": [ 0.9999719, 0.9999788, 1 ],
			"min": [ -0.9999859, -0.9999784, -1 ],
			"type": "VEC3"
		},
		{
			"bufferView": 2,
			"byteOffset": 5680,
			"componentType": 5126,
			"count": 710,
			"max": [ 2, 1 ],
			"min": [ 0, -1.192093E-07 ],
			"type": "VEC2"
		},
		{
			"bufferView": 4,
			"byteOffset": 11360,
			"componentType": 5126,
			"count": 710,
			"max": [ 1, 1, 0.8323646, 1 ],
			"min": [ -1, -1, -0.8642894, -1 ],
			"type": "VEC4"
		},
		{
			"bufferView": 0,
			"byteOffset": 6834,
			"componentType": 5123,
			"count": 3417,
			"max": [ 709 ],
			"min": [ 0 ],
			"type": "SCALAR"
		},
		{
			"bufferView": 3,
			"byteOffset": 34080,
			"componentType": 5126,
			"count": 710,
			"max": [ 0.2373721, 0.2373721, 0.7155267 ],
			"min": [ -0.2373721, -0.2373721, -0.3170822 ],
			"type": "VEC3"
		},
		{
			"bufferView": 3,
			"byteOffset": 42600,
			"componentType": 5126,
			"count": 710,
			"max": [ 0.9999719, 0.9999788, 1 ],
			"min": [ -0.9999859, -0.9999784, -1 ],
			"type": "VEC3"
		},
		{
			"bufferView": 2,
			"byteOffset": 11360,
			"componentType": 5126,
			"count": 710,
			"max": [ 2, 1 ],
			"min": [ 0, -1.192093E-07 ],
			"type": "VEC2"
		},
		{
			"bufferView": 4,
			"byteOffset": 22720,
			"componentType": 5126,
			"count": 710,
			"max": [ 1, 1, 0.8323646, 1 ],
			"min": [ -1, -1, -0.8642894, -1 ],
			"type": "VEC4"
		},
		{
			"bufferView": 0,
			"byteOffset": 13668,
			"componentType": 5123,
			"count": 3417,
			"max": [ 709 ],
			"min": [ 0 ],
			"type": "SCALAR"
		},
		{
			"bufferView": 1,
			"byteOffset": 0,
			"componentType": 5126,
			"count": 30,
			"max": [ 0.9666667 ],
			"min": [ 0 ],
			"type": "SCALAR"
		},
		{
			"bufferView": 5,
			"byteOffset": 0,
			"componentType": 5126,
			"count": 30,
			"max": [ 0.2922348, 0, 0 ],
			"min": [ 0, -0.7771632, 0 ],
			"type": "VEC3"
		},
		{
			"bufferView": 6,
			"byteOffset": 0,
			"componentType": 5126,
			"count": 30,
			"max": [ 0, 0, 0, -1 ],
			"min": [ 0, 0, 0, -1 ],
			"type": "VEC4"
		},
		{
			"bufferView": 5,
			"byteOffset": 360,
			"componentType": 5126,
			"count": 30,
			"max": [ 1, 1, 1 ],
			"min": [ 1, 1, 1 ],
			"type": "VEC3"
		},
		{
			"bufferView": 1,
			"byteOffset": 120,
			"componentType": 5126,
			"count": 30,
			"max": [ 0.9666667 ],
			"min": [ 0 ],
			"type": "SCALAR"
		},
		{
			"bufferView": 5,
			"byteOffset": 720,
			"componentType": 5126,
			"count": 30,
			"max": [ 0, -1.18, 0 ],
			"min": [ 0, -1.768077, 0 ],
			"type": "VEC3"
		},
		{
			"bufferView": 6,
			"byteOffset": 480,
			"componentType": 5126,
			"count": 30,
			"max": [ 0, 0, 0, -1 ],
			"min": [ 0, 0, 0, -1 ],
			"type": "VEC4"
		},
		{
			"bufferView": 5,
			"byteOffset": 1080,
			"componentType": 5126,
			"count": 30,
			"max": [ 1, 1, 1 ],
			"min": [ 1, 1, 1 ],
			"type": "VEC3"
		},
		{
			"bufferView": 1,
			"byteOffset": 240,
			"componentType": 5126,
			"count": 30,
			"max": [ 0.9666667 ],
			"min": [ 0 ],
			"type": "SCALAR"
		},
		{
			"bufferView": 5,
			"byteOffset": 1440,
			"componentType": 5126,
			"count": 30,
			"max": [ 0, -3.28, 0 ],
			"min": [ 0, -3.848142, 0 ],
			"type": "VEC3"
		},
		{
			"bufferView": 6,
			"byteOffset": 960,
			"componentType": 5126,
			"count": 30,
			"max": [ 0, 0, 0, -1 ],
			"min": [ 0, 0, 0, -1 ],
			"type": "VEC4"
		},
		{
			"bufferView": 5,
			"byteOffset": 1800,
			"componentType": 5126,
			"count": 30,
			"max": [ 1, 1, 1 ],
			"min": [ 1, 1, 1 ],
			"type": "VEC3"
		},
		{
			"bufferView": 3,
			"byteOffset": 51120,
			"componentType": 5126,
			"count": 2329,
			"max": [ 0.3488144, 0.3488377, 0.2335324 ],
			"min": [ -0.3488244, -0.8599577, -1.672723 ],
			"type": "VEC3"
		},
		{
			"bufferView": 3,
			"byteOffset": 79068,
			"componentType": 5126,
			"count": 2329,
			"max": [ 1, 1, 1 ],
			"min": [ -1, -1, -1 ],
			"type": "VEC3"
		},
		{
			"bufferView": 4,
			"byteOffset": 34080,
			"componentType": 5126,
			"count": 2329,
			"max": [ 0, 0, 0, 0 ],
			"min": [ 0, 0, 0, 0 ],
			"type": "VEC4"
		},
		{
			"bufferView": 2,
			"byteOffset": 17040,
			"componentType": 5126,
			"count": 2329,
			"max": [ 1, 1 ],
			"min": [ -4.287548E-18, -1.192093E-07 ],
			"type": "VEC2"
		},
		{
			"bufferView": 4,
			"byteOffset": 71344,
			"componentType": 5126,
			"count": 2329,
			"max": [ 1, 1, 1, 1 ],
			"min": [ -1, -1, -1, -1 ],
			"type": "VEC4"
		},
		{
			"bufferView": 0,
			"byteOffset": 20502,
			"componentType": 5123,
			"count": 8712,
			"max": [ 2328 ],
			"min": [ 0 ],
			"type": "SCALAR"
		},
		{
			"bufferView": 3,
			"byteOffset": 107016,
			"componentType": 5126,
			"count": 710,
			"max": [ 0.2373721, 0.2373721, 0.7155267 ],
			"min": [ -0.2373721, -0.2373721, -0.3170822 ],
			"type": "VEC3"
		},
		{
			"bufferView": 3,
			"byteOffset": 115536,
			"componentType": 5126,
			"count": 710,
			"max": [ 0.9999719, 0.9999788, 1 ],
			"min": [ -0.9999859, -0.9999784, -1 ],
			"type": "VEC3"
		},
		{
			"bufferView": 2,
			"byteOffset": 35672,
			"componentType": 5126,
			"count": 710,
			"max": [ 2, 1 ],
			"min": [ 0, -1.192093E-07 ],
			"type": "VEC2"
		},
		{
			"bufferView": 4,
			"byteOffset": 108608,
			"componentType": 5126,
			"count": 710,
			"max": [ 1, 1, 0.8323646, 1 ],
			"min": [ -1, -1, -0.8642894, -1 ],
			"type": "VEC4"
		},
		{
			"bufferView": 0,
			"byteOffset": 37926,
			"componentType": 5123,
			"count": 3417,
			"max": [ 709 ],
			"min": [ 0 ],
			"type": "SCALAR"
		},
		{
			"bufferView": 3,
			"byteOffset": 124056,
			"componentType": 5126,
			"count": 710,
			"max": [ 0.2373721, 0.2373721, 0.7155267 ],
			"min": [ -0.2373721, -0.2373721, -0.3170822 ],
			"type": "VEC3"
		},
		{
			"bufferView": 3,
			"byteOffset": 132576,
			"componentType": 5126,
			"count": 710,
			"max": [ 0.9999719, 0.9999788, 1 ],
			"min": [ -0.9999859, -0.9999784, -1 ],
			"type": "VEC3"
		},
		{
			"bufferView": 2,
			"byteOffset": 41352,
			"componentType": 5126,
			"count": 710,
			"max": [ 2, 1 ],
			"min": [ 0, -1.192093E-07 ],
			"type": "VEC2"
		},
		{
			"bufferView": 4,
			"byteOffset": 119968,
			"componentType": 5126,
			"count": 710,
			"max": [ 1, 1, 0.8323646, 1 ],
			"min": [ -1, -1, -0.8642894, -1 ],
			"type": "VEC4"
		},
		{
			"bufferView": 0,
			"byteOffset": 44760,
			"componentType": 5123,
			"count": 3417,
			"max": [ 709 ],
			"min": [ 0 ],
			"type": "SCALAR"
		},
		{
			"bufferView": 3,
			"byteOffset": 141096,
			"componentType": 5126,
			"count": 710,
			"max": [ 0.2373721, 0.2373721, 0.7155267 ],
			"min": [ -0.2373721, -0.2373721, -0.3170822 ],
			"type": "VEC3"
		},
		{
			"bufferView": 3,
			"byteOffset": 149616,
			"componentType": 5126,
			"count": 710,
			"max": [ 0.9999719, 0.9999788, 1 ],
			"min": [ -0.9999859, -0.9999784, -1 ],
			"type": "VEC3"
		},
		{
			"bufferView": 2,
			"byteOffset": 47032,
			"componentType": 5126,
			"count": 710,
			"max": [ 2, 1 ],
			"min": [ 0, -1.192093E-07 ],
			"type": "VEC2"
		},
		{
			"bufferView": 4,
			"byteOffset": 131328,
			"componentType": 5126,
			"count": 710,
			"max": [ 1, 1, 0.8323646, 1 ],
			"min": [ -1, -1, -0.8642894, -1 ],
			"type": "VEC4"
		},
		{
			"bufferView": 0,
			"byteOffset": 51594,
			"componentType": 5123,
			"count": 3417,
			"max": [ 709 ],
			"min": [ 0 ],
			"type": "SCALAR"
		},
		{
			"bufferView": 3,
			"byteOffset": 158136,
			"componentType": 5126,
			"count": 710,
			"max": [ 0.2373721, 0.2373721, 0.7155267 ],
			"min": [ -0.2373721, -0.2373721, -0.3170822 ],
			"type": "VEC3"
		},
		{
			"bufferView": 3,
			"byteOffset": 166656,
			"componentType": 5126,
			"count": 710,
			"max": [ 0.9999719, 0.9999788, 1 ],
			"min": [ -0.9999859, -0.9999784, -1 ],
			"type": "VEC3"
		},
		{
			"bufferView": 2,
			"byteOffset": 52712,
			"componentType": 5126,
			"count": 710,
			"max": [ 2, 1 ],
			"min": [ 0, -1.192093E-07 ],
			"type": "VEC2"
		},
		{
			"bufferView": 4,
			"byteOffset": 142688,
			"componentType": 5126,
			"count": 710,
			"max": [ 1, 1, 0.8323646, 1 ],
			"min": [ -1, -1, -0.8642894, -1 ],
			"type": "VEC4"
		},
		{
			"bufferView": 0,
			"byteOffset": 58428,
			"componentType": 5123,
			"count": 3417,
			"max": [ 709 ],
			"min": [ 0 ],
			"type": "SCALAR"
		}
	],
	"animations": [
		{
			"name": "-",
			"channels": [
				{
					"sampler": 0,
					"target": {
						"node": 3,
						"path": "translation"
					}
				},
				{
					"sampler": 1,
					"target": {
						"node": 3,
						"path": "rotation"
					}
				},
				{
					"sampler": 2,
					"target": {
						"node": 3,
						"path": "scale"
					}
				},
				{
					"sampler": 3,
					"target": {
						"node": 1,
						"path": "translation"
					}
				},
				{
					"sampler": 4,
					"target": {
						"node": 1,
						"path": "rotation"
					}
				},
				{
					"sampler": 5,
					"target": {
						"node": 1,
						"path": "scale"
					}
				},
				{
					"sampler": 6,
					"target": {
						"node": 5,
						"path": "translation"
					}
				},
				{
					"sampler": 7,
					"target": {
						"node": 5,
						"path": "rotation"
					}
				},
				{
					"sampler": 8,
					"target": {
						"node": 5,
						"path": "scale"
					}
				}
			],
			"samplers": [
				{
					"input": 15,
					"interpolation": "LINEAR",
					"output": 16
				},
				{
					"input": 15,
					"interpolation": "LINEAR",
					"output": 17
				},
				{
					"input": 15,
					"interpolation": "LINEAR",
					"output": 18
				},
				{
					"input": 19,
					"interpolation": "LINEAR",
					"output": 20
				},
				{
					"input": 19,
					"interpolation": "LINEAR",
					"output": 21
				},
				{
					"input": 19,
					"interpolation": "LINEAR",
					"output": 22
				},
				{
					"input": 23,
					"interpolation": "LINEAR",
					"output": 24
				},
				{
					"input": 23,
					"interpolation": "LINEAR",
					"output": 25
				},
				{
					"input": 23,
					"interpolation": "LINEAR",
					"output": 26
				}
			]
		}
	],
	"buffers": [
		{
			"byteLength": 456838,
			"uri": "中雨-大雨.bin"
		}
	],
	"bufferViews": [
		{
			"buffer": 0,
			"byteLength": 65262,
			"target": 34963,
			"byteOffset": 387976
		},
		{
			"buffer": 0,
			"byteLength": 360,
			"byteOffset": 0
		},
		{
			"buffer": 0,
			"byteLength": 58392,
			"target": 34962,
			"byteStride": 8,
			"byteOffset": 360
		},
		{
			"buffer": 0,
			"byteLength": 175176,
			"target": 34962,
			"byteStride": 12,
			"byteOffset": 58752
		},
		{
			"buffer": 0,
			"byteLength": 154048,
			"target": 34962,
			"byteStride": 16,
			"byteOffset": 233928
		},
		{
			"buffer": 0,
			"byteLength": 2160,
			"byteStride": 12,
			"byteOffset": 453238
		},
		{
			"buffer": 0,
			"byteLength": 1440,
			"byteStride": 16,
			"byteOffset": 455398
		}
	],
	"extensionsRequired": [
		"KHR_materials_pbrSpecularGlossiness"
	],
	"extensionsUsed": [
		"KHR_materials_pbrSpecularGlossiness"
	],
	"materials": [
		{
			"pbrMetallicRoughness": {
				"baseColorFactor": [0.03301889, 0.6888822, 1, 1],
				"metallicFactor": 0,
				"roughnessFactor": 0.5
			},
			"emissiveFactor": [0, 0, 0],
			"doubleSided": false,
			"name": ""
		},
		{
			"extensions": {
				"KHR_materials_pbrSpecularGlossiness": {
					"diffuseFactor": [1, 1, 1, 1],
					"specularFactor": [1, 1, 1],
					"glossinessFactor": 0.25				}

			},
			"alphaMode": "MASK",
			"alphaCutoff": 0.5,
			"emissiveFactor": [0, 0, 0],
			"doubleSided": false,
			"name": "-"
		}
	],
	"meshes": [
		{
			"name": "mesh_Cone001_11012",
			"primitives": [
				{
					"attributes": {
						"POSITION": 0,
						"NORMAL": 1,
						"TEXCOORD_0": 2,
						"TANGENT": 3
					},
					"indices": 4,
					"material": 0,
					"mode": 4
				}
			]
		},
		{
			"name": "mesh_Cone001_11012",
			"primitives": [
				{
					"attributes": {
						"POSITION": 5,
						"NORMAL": 6,
						"TEXCOORD_0": 7,
						"TANGENT": 8
					},
					"indices": 9,
					"material": 0,
					"mode": 4
				}
			]
		},
		{
			"name": "mesh_Cone001_11012 (1)",
			"primitives": [
				{
					"attributes": {
						"POSITION": 10,
						"NORMAL": 11,
						"TEXCOORD_0": 12,
						"TANGENT": 13
					},
					"indices": 14,
					"material": 0,
					"mode": 4
				}
			]
		},
		{
			"name": "mesh_Capsule001_11218",
			"primitives": [
				{
					"attributes": {
						"POSITION": 27,
						"NORMAL": 28,
						"COLOR_0": 29,
						"TEXCOORD_0": 30,
						"TANGENT": 31
					},
					"indices": 32,
					"material": 1,
					"mode": 4
				}
			]
		},
		{
			"name": "mesh_Cone001_11012 (1)",
			"primitives": [
				{
					"attributes": {
						"POSITION": 33,
						"NORMAL": 34,
						"TEXCOORD_0": 35,
						"TANGENT": 36
					},
					"indices": 37,
					"material": 0,
					"mode": 4
				}
			]
		},
		{
			"name": "mesh_Cone001_11012 (1)",
			"primitives": [
				{
					"attributes": {
						"POSITION": 38,
						"NORMAL": 39,
						"TEXCOORD_0": 40,
						"TANGENT": 41
					},
					"indices": 42,
					"material": 0,
					"mode": 4
				}
			]
		},
		{
			"name": "mesh_Cone001_11012",
			"primitives": [
				{
					"attributes": {
						"POSITION": 43,
						"NORMAL": 44,
						"TEXCOORD_0": 45,
						"TANGENT": 46
					},
					"indices": 47,
					"material": 0,
					"mode": 4
				}
			]
		},
		{
			"name": "mesh_Cone001_11012 (2)",
			"primitives": [
				{
					"attributes": {
						"POSITION": 48,
						"NORMAL": 49,
						"TEXCOORD_0": 50,
						"TANGENT": 51
					},
					"indices": 52,
					"material": 0,
					"mode": 4
				}
			]
		}
	],
	"nodes": [
		{
			"name": "UnityGlTF_root",
			"children": [
				7
			]
		},
		{
			"name": "node__-45992",
			"children": [
				10,
				11
			]
		},
		{
			"name": "node__-46108",
			"mesh": 0,
			"translation": [ 0.4726897, -0.3800001, 0.054],
			"scale": [ 0.39645, 0.3964533, 0.3964533],
			"rotation": [-0.7071068, 0, 0, -0.7071068]
		},
		{
			"name": "node__-46122",
			"children": [
				9,
				2,
				12
			],
			"translation": [ 0.338, 0, 0]
		},
		{
			"name": "node__-45986",
			"mesh": 1,
			"translation": [ 0.701023, 1.548967, 0.05381823],
			"scale": [ 0.39645, 0.3964505, 0.3964505],
			"rotation": [-0.7071068, 0, 0, -0.7071068]
		},
		{
			"name": "node__-45990",
			"children": [
				6,
				4
			],
			"translation": [ 0, -1.52, 0]
		},
		{
			"name": "node_ (1)_-45988",
			"mesh": 2,
			"translation": [ -0.168977, 1.548967, 0.05381823],
			"scale": [ 0.39645, 0.3964505, 0.3964505],
			"rotation": [-0.7071068, 0, 0, -0.7071068]
		},
		{
			"name": "node_-_-46000",
			"children": [
				8,
				3,
				1,
				5
			],
			"matrix": [1, 0, 0, 0, 0, 1, 0, 0, 0, 0, 1, 0, 0, 0, 0, 1]
		},
		{
			"name": "node__-45996",
			"mesh": 3,
			"translation": [ 1.27, -0.4410335, 0.05381823],
			"scale": [ 1, 1.097207, 1.451034],
			"rotation": [-0.7071068, 0, -0.7071068, 0]
		},
		{
			"name": "node_ (1)_-46110",
			"mesh": 4,
			"translation": [ -0.3973103, -0.3800001, 0.054],
			"scale": [ 0.39645, 0.3964533, 0.3964533],
			"rotation": [-0.7071068, 0, 0, -0.7071068]
		},
		{
			"name": "node_ (1)_-45980",
			"mesh": 5,
			"translation": [ -0.168977, 0.02896655, 0.05381823],
			"scale": [ 0.3964537, 0.3964544, 0.3964544],
			"rotation": [-0.7071068, 0, 0, -0.7071068]
		},
		{
			"name": "node__-45978",
			"mesh": 6,
			"translation": [ 0.701023, 0.02896655, 0.05381823],
			"scale": [ 0.3964537, 0.3964544, 0.3964544],
			"rotation": [-0.7071068, 0, 0, -0.7071068]
		},
		{
			"name": "node_ (2)_-46106",
			"mesh": 7,
			"translation": [ 0.06268969, -0.22, 0.054],
			"scale": [ 0.39645, 0.3964533, 0.3964533],
			"rotation": [-0.7071068, 0, 0, -0.7071068]
		}
	],
	"scenes": [
		{
			"name":"defaultScene",
			"nodes": [
				0
			]
		}
	],
	"scene": 0
}