{
	"asset": {
		"generator": "Unity 2018.3.11f1",
		"extras": {
			"exporterVersion" : "2.2.1"
		},
		"version": "2.0"
	},
	"accessors": [
		{
			"bufferView": 3,
			"byteOffset": 0,
			"componentType": 5126,
			"count": 2329,
			"max": [ 0.3488144, 0.3488377, 0.2335324 ],
			"min": [ -0.3488244, -0.8599577, -1.672723 ],
			"type": "VEC3"
		},
		{
			"bufferView": 3,
			"byteOffset": 27948,
			"componentType": 5126,
			"count": 2329,
			"max": [ 1, 1, 1 ],
			"min": [ -1, -1, -1 ],
			"type": "VEC3"
		},
		{
			"bufferView": 4,
			"byteOffset": 0,
			"componentType": 5126,
			"count": 2329,
			"max": [ 0, 0, 0, 0 ],
			"min": [ 0, 0, 0, 0 ],
			"type": "VEC4"
		},
		{
			"bufferView": 2,
			"byteOffset": 0,
			"componentType": 5126,
			"count": 2329,
			"max": [ 1, 1 ],
			"min": [ -4.287548E-18, -1.192093E-07 ],
			"type": "VEC2"
		},
		{
			"bufferView": 4,
			"byteOffset": 37264,
			"componentType": 5126,
			"count": 2329,
			"max": [ 1, 1, 1, 1 ],
			"min": [ -1, -1, -1, -1 ],
			"type": "VEC4"
		},
		{
			"bufferView": 0,
			"byteOffset": 0,
			"componentType": 5123,
			"count": 8712,
			"max": [ 2328 ],
			"min": [ 0 ],
			"type": "SCALAR"
		},
		{
			"bufferView": 1,
			"byteOffset": 0,
			"componentType": 5126,
			"count": 30,
			"max": [ 0.9666667 ],
			"min": [ 0 ],
			"type": "SCALAR"
		},
		{
			"bufferView": 5,
			"byteOffset": 0,
			"componentType": 5126,
			"count": 30,
			"max": [ 0.091, -0.641, 0.753 ],
			"min": [ 0.091, -0.82, 0.753 ],
			"type": "VEC3"
		},
		{
			"bufferView": 6,
			"byteOffset": 0,
			"componentType": 5126,
			"count": 30,
			"max": [ 0.538606, -0.5444509, 0.4521915, 0.4571649 ],
			"min": [ 0.538606, -0.5444509, 0.4521915, 0.4571649 ],
			"type": "VEC4"
		},
		{
			"bufferView": 5,
			"byteOffset": 360,
			"componentType": 5126,
			"count": 30,
			"max": [ 58.56301, 60, 65.34 ],
			"min": [ 58.56301, 60, 65.34 ],
			"type": "VEC3"
		},
		{
			"bufferView": 3,
			"byteOffset": 55896,
			"componentType": 5126,
			"count": 144,
			"max": [ 0.002837374, 0.0035, 0.008611519 ],
			"min": [ -0.006860985, 0, -0.008772334 ],
			"type": "VEC3"
		},
		{
			"bufferView": 3,
			"byteOffset": 57624,
			"componentType": 5126,
			"count": 144,
			"max": [ 0.9996178, 1, 0.9698514 ],
			"min": [ -0.993363, -1, -0.9998779 ],
			"type": "VEC3"
		},
		{
			"bufferView": 2,
			"byteOffset": 18632,
			"componentType": 5126,
			"count": 144,
			"max": [ 30.19119, 33.90362 ],
			"min": [ -28.57504, -34.53675 ],
			"type": "VEC2"
		},
		{
			"bufferView": 4,
			"byteOffset": 74528,
			"componentType": 5126,
			"count": 144,
			"max": [ 1, 0, 0.993363, 1 ],
			"min": [ -1, 0, -0.9996178, 1 ],
			"type": "VEC4"
		},
		{
			"bufferView": 0,
			"byteOffset": 17424,
			"componentType": 5123,
			"count": 276,
			"max": [ 143 ],
			"min": [ 0 ],
			"type": "SCALAR"
		}
	],
	"animations": [
		{
			"name": "",
			"channels": [
				{
					"sampler": 0,
					"target": {
						"node": 2,
						"path": "translation"
					}
				},
				{
					"sampler": 1,
					"target": {
						"node": 2,
						"path": "rotation"
					}
				},
				{
					"sampler": 2,
					"target": {
						"node": 2,
						"path": "scale"
					}
				}
			],
			"samplers": [
				{
					"input": 6,
					"interpolation": "LINEAR",
					"output": 7
				},
				{
					"input": 6,
					"interpolation": "LINEAR",
					"output": 8
				},
				{
					"input": 6,
					"interpolation": "LINEAR",
					"output": 9
				}
			]
		}
	],
	"buffers": [
		{
			"byteLength": 175264,
			"uri": "多云-夜间.bin"
		}
	],
	"bufferViews": [
		{
			"buffer": 0,
			"byteLength": 17976,
			"target": 34963,
			"byteOffset": 156088
		},
		{
			"buffer": 0,
			"byteLength": 120,
			"byteOffset": 0
		},
		{
			"buffer": 0,
			"byteLength": 19784,
			"target": 34962,
			"byteStride": 8,
			"byteOffset": 120
		},
		{
			"buffer": 0,
			"byteLength": 59352,
			"target": 34962,
			"byteStride": 12,
			"byteOffset": 19904
		},
		{
			"buffer": 0,
			"byteLength": 76832,
			"target": 34962,
			"byteStride": 16,
			"byteOffset": 79256
		},
		{
			"buffer": 0,
			"byteLength": 720,
			"byteStride": 12,
			"byteOffset": 174064
		},
		{
			"buffer": 0,
			"byteLength": 480,
			"byteStride": 16,
			"byteOffset": 174784
		}
	],
	"extensionsRequired": [
		"KHR_materials_pbrSpecularGlossiness"
	],
	"extensionsUsed": [
		"KHR_materials_pbrSpecularGlossiness"
	],
	"materials": [
		{
			"extensions": {
				"KHR_materials_pbrSpecularGlossiness": {
					"diffuseFactor": [1, 1, 1, 1],
					"specularFactor": [1, 1, 1],
					"glossinessFactor": 0.25				}

			},
			"alphaMode": "MASK",
			"alphaCutoff": 0.5,
			"emissiveFactor": [0, 0, 0],
			"doubleSided": false,
			"name": "-"
		},
		{
			"pbrMetallicRoughness": {
				"baseColorFactor": [0.9803922, 0.7274598, 0.03137255, 1],
				"metallicFactor": 0,
				"roughnessFactor": 0.5
			},
			"emissiveFactor": [0, 0, 0],
			"doubleSided": false,
			"name": "New Material"
		}
	],
	"meshes": [
		{
			"name": "mesh_Capsule001_20298",
			"primitives": [
				{
					"attributes": {
						"POSITION": 0,
						"NORMAL": 1,
						"COLOR_0": 2,
						"TEXCOORD_0": 3,
						"TANGENT": 4
					},
					"indices": 5,
					"material": 0,
					"mode": 4
				}
			]
		},
		{
			"name": "mesh_Mesh1_20316Mesh1",
			"primitives": [
				{
					"attributes": {
						"POSITION": 10,
						"NORMAL": 11,
						"TEXCOORD_0": 12,
						"TANGENT": 13
					},
					"indices": 14,
					"material": 1,
					"mode": 4
				}
			]
		}
	],
	"nodes": [
		{
			"name": "UnityGlTF_root",
			"children": [
				4
			]
		},
		{
			"name": "node__-142322",
			"mesh": 0,
			"translation": [ 0, 0, 0.7]
		},
		{
			"name": "node__-142324",
			"children": [
				3
			],
			"translation": [ 0.091, -0.641, 0.753],
			"scale": [ 58.56301, 60, 65.34],
			"rotation": [0.538606, -0.5444509, 0.4521915, 0.4571649]
		},
		{
			"name": "node_Mesh1_-142330",
			"mesh": 1
		},
		{
			"name": "node_- (1)_-142320",
			"children": [
				1,
				2
			],
			"matrix": [-1, 0, 0, 0, 0, -1, 0, 0, 0, 0, 1, 0, -2.130126, -0.465683, 1.279607, 1]
		}
	],
	"scenes": [
		{
			"name":"defaultScene",
			"nodes": [
				0
			]
		}
	],
	"scene": 0
}