{
	"asset": {
		"generator": "Unity 2018.3.11f1",
		"extras": {
			"exporterVersion" : "2.2.1"
		},
		"version": "2.0"
	},
	"accessors": [
		{
			"bufferView": 3,
			"byteOffset": 0,
			"componentType": 5126,
			"count": 710,
			"max": [ 0.2373721, 0.2373721, 0.7155267 ],
			"min": [ -0.2373721, -0.2373721, -0.3170822 ],
			"type": "VEC3"
		},
		{
			"bufferView": 3,
			"byteOffset": 8520,
			"componentType": 5126,
			"count": 710,
			"max": [ 0.9999719, 0.9999788, 1 ],
			"min": [ -0.9999859, -0.9999784, -1 ],
			"type": "VEC3"
		},
		{
			"bufferView": 2,
			"byteOffset": 0,
			"componentType": 5126,
			"count": 710,
			"max": [ 2, 1 ],
			"min": [ 0, -1.192093E-07 ],
			"type": "VEC2"
		},
		{
			"bufferView": 4,
			"byteOffset": 0,
			"componentType": 5126,
			"count": 710,
			"max": [ 1, 1, 0.8323646, 1 ],
			"min": [ -1, -1, -0.8642894, -1 ],
			"type": "VEC4"
		},
		{
			"bufferView": 0,
			"byteOffset": 0,
			"componentType": 5123,
			"count": 3417,
			"max": [ 709 ],
			"min": [ 0 ],
			"type": "SCALAR"
		},
		{
			"bufferView": 3,
			"byteOffset": 17040,
			"componentType": 5126,
			"count": 710,
			"max": [ 0.2373721, 0.2373721, 0.7155267 ],
			"min": [ -0.2373721, -0.2373721, -0.3170822 ],
			"type": "VEC3"
		},
		{
			"bufferView": 3,
			"byteOffset": 25560,
			"componentType": 5126,
			"count": 710,
			"max": [ 0.9999719, 0.9999788, 1 ],
			"min": [ -0.9999859, -0.9999784, -1 ],
			"type": "VEC3"
		},
		{
			"bufferView": 2,
			"byteOffset": 5680,
			"componentType": 5126,
			"count": 710,
			"max": [ 2, 1 ],
			"min": [ 0, -1.192093E-07 ],
			"type": "VEC2"
		},
		{
			"bufferView": 4,
			"byteOffset": 11360,
			"componentType": 5126,
			"count": 710,
			"max": [ 1, 1, 0.8323646, 1 ],
			"min": [ -1, -1, -0.8642894, -1 ],
			"type": "VEC4"
		},
		{
			"bufferView": 0,
			"byteOffset": 6834,
			"componentType": 5123,
			"count": 3417,
			"max": [ 709 ],
			"min": [ 0 ],
			"type": "SCALAR"
		},
		{
			"bufferView": 3,
			"byteOffset": 34080,
			"componentType": 5126,
			"count": 710,
			"max": [ 0.2373721, 0.2373721, 0.7155267 ],
			"min": [ -0.2373721, -0.2373721, -0.3170822 ],
			"type": "VEC3"
		},
		{
			"bufferView": 3,
			"byteOffset": 42600,
			"componentType": 5126,
			"count": 710,
			"max": [ 0.9999719, 0.9999788, 1 ],
			"min": [ -0.9999859, -0.9999784, -1 ],
			"type": "VEC3"
		},
		{
			"bufferView": 2,
			"byteOffset": 11360,
			"componentType": 5126,
			"count": 710,
			"max": [ 2, 1 ],
			"min": [ 0, -1.192093E-07 ],
			"type": "VEC2"
		},
		{
			"bufferView": 4,
			"byteOffset": 22720,
			"componentType": 5126,
			"count": 710,
			"max": [ 1, 1, 0.8323646, 1 ],
			"min": [ -1, -1, -0.8642894, -1 ],
			"type": "VEC4"
		},
		{
			"bufferView": 0,
			"byteOffset": 13668,
			"componentType": 5123,
			"count": 3417,
			"max": [ 709 ],
			"min": [ 0 ],
			"type": "SCALAR"
		},
		{
			"bufferView": 3,
			"byteOffset": 51120,
			"componentType": 5126,
			"count": 710,
			"max": [ 0.2373721, 0.2373721, 0.7155267 ],
			"min": [ -0.2373721, -0.2373721, -0.3170822 ],
			"type": "VEC3"
		},
		{
			"bufferView": 3,
			"byteOffset": 59640,
			"componentType": 5126,
			"count": 710,
			"max": [ 0.9999719, 0.9999788, 1 ],
			"min": [ -0.9999859, -0.9999784, -1 ],
			"type": "VEC3"
		},
		{
			"bufferView": 2,
			"byteOffset": 17040,
			"componentType": 5126,
			"count": 710,
			"max": [ 2, 1 ],
			"min": [ 0, -1.192093E-07 ],
			"type": "VEC2"
		},
		{
			"bufferView": 4,
			"byteOffset": 34080,
			"componentType": 5126,
			"count": 710,
			"max": [ 1, 1, 0.8323646, 1 ],
			"min": [ -1, -1, -0.8642894, -1 ],
			"type": "VEC4"
		},
		{
			"bufferView": 0,
			"byteOffset": 20502,
			"componentType": 5123,
			"count": 3417,
			"max": [ 709 ],
			"min": [ 0 ],
			"type": "SCALAR"
		},
		{
			"bufferView": 1,
			"byteOffset": 0,
			"componentType": 5126,
			"count": 30,
			"max": [ 0.9666667 ],
			"min": [ 0 ],
			"type": "SCALAR"
		},
		{
			"bufferView": 5,
			"byteOffset": 0,
			"componentType": 5126,
			"count": 30,
			"max": [ 0, 0, 0 ],
			"min": [ -0.08970667, -0.7774577, 0 ],
			"type": "VEC3"
		},
		{
			"bufferView": 6,
			"byteOffset": 0,
			"componentType": 5126,
			"count": 30,
			"max": [ 0, 0, 0, -1 ],
			"min": [ 0, 0, 0, -1 ],
			"type": "VEC4"
		},
		{
			"bufferView": 5,
			"byteOffset": 360,
			"componentType": 5126,
			"count": 30,
			"max": [ 1, 1, 1 ],
			"min": [ 1, 1, 1 ],
			"type": "VEC3"
		},
		{
			"bufferView": 1,
			"byteOffset": 120,
			"componentType": 5126,
			"count": 30,
			"max": [ 0.9666667 ],
			"min": [ 0 ],
			"type": "SCALAR"
		},
		{
			"bufferView": 5,
			"byteOffset": 720,
			"componentType": 5126,
			"count": 30,
			"max": [ 0, -1.18, 0 ],
			"min": [ 0, -1.768077, 0 ],
			"type": "VEC3"
		},
		{
			"bufferView": 6,
			"byteOffset": 480,
			"componentType": 5126,
			"count": 30,
			"max": [ 0, 0, 0, -1 ],
			"min": [ 0, 0, 0, -1 ],
			"type": "VEC4"
		},
		{
			"bufferView": 5,
			"byteOffset": 1080,
			"componentType": 5126,
			"count": 30,
			"max": [ 1, 1, 1 ],
			"min": [ 1, 1, 1 ],
			"type": "VEC3"
		},
		{
			"bufferView": 1,
			"byteOffset": 240,
			"componentType": 5126,
			"count": 30,
			"max": [ 0.9666667 ],
			"min": [ 0 ],
			"type": "SCALAR"
		},
		{
			"bufferView": 5,
			"byteOffset": 1440,
			"componentType": 5126,
			"count": 30,
			"max": [ 0, -3.28, 0 ],
			"min": [ 0, -3.848142, 0 ],
			"type": "VEC3"
		},
		{
			"bufferView": 6,
			"byteOffset": 960,
			"componentType": 5126,
			"count": 30,
			"max": [ 0, 0, 0, -1 ],
			"min": [ 0, 0, 0, -1 ],
			"type": "VEC4"
		},
		{
			"bufferView": 5,
			"byteOffset": 1800,
			"componentType": 5126,
			"count": 30,
			"max": [ 1, 1, 1 ],
			"min": [ 1, 1, 1 ],
			"type": "VEC3"
		},
		{
			"bufferView": 3,
			"byteOffset": 68160,
			"componentType": 5126,
			"count": 2329,
			"max": [ 0.3488144, 0.3488377, 0.2335324 ],
			"min": [ -0.3488244, -0.8599577, -1.672723 ],
			"type": "VEC3"
		},
		{
			"bufferView": 3,
			"byteOffset": 96108,
			"componentType": 5126,
			"count": 2329,
			"max": [ 1, 1, 1 ],
			"min": [ -1, -1, -1 ],
			"type": "VEC3"
		},
		{
			"bufferView": 4,
			"byteOffset": 45440,
			"componentType": 5126,
			"count": 2329,
			"max": [ 0, 0, 0, 0 ],
			"min": [ 0, 0, 0, 0 ],
			"type": "VEC4"
		},
		{
			"bufferView": 2,
			"byteOffset": 22720,
			"componentType": 5126,
			"count": 2329,
			"max": [ 1, 1 ],
			"min": [ -4.287548E-18, -1.192093E-07 ],
			"type": "VEC2"
		},
		{
			"bufferView": 4,
			"byteOffset": 82704,
			"componentType": 5126,
			"count": 2329,
			"max": [ 1, 1, 1, 1 ],
			"min": [ -1, -1, -1, -1 ],
			"type": "VEC4"
		},
		{
			"bufferView": 0,
			"byteOffset": 27336,
			"componentType": 5123,
			"count": 8712,
			"max": [ 2328 ],
			"min": [ 0 ],
			"type": "SCALAR"
		}
	],
	"animations": [
		{
			"name": "-",
			"channels": [
				{
					"sampler": 0,
					"target": {
						"node": 8,
						"path": "translation"
					}
				},
				{
					"sampler": 1,
					"target": {
						"node": 8,
						"path": "rotation"
					}
				},
				{
					"sampler": 2,
					"target": {
						"node": 8,
						"path": "scale"
					}
				},
				{
					"sampler": 3,
					"target": {
						"node": 9,
						"path": "translation"
					}
				},
				{
					"sampler": 4,
					"target": {
						"node": 9,
						"path": "rotation"
					}
				},
				{
					"sampler": 5,
					"target": {
						"node": 9,
						"path": "scale"
					}
				},
				{
					"sampler": 6,
					"target": {
						"node": 1,
						"path": "translation"
					}
				},
				{
					"sampler": 7,
					"target": {
						"node": 1,
						"path": "rotation"
					}
				},
				{
					"sampler": 8,
					"target": {
						"node": 1,
						"path": "scale"
					}
				}
			],
			"samplers": [
				{
					"input": 20,
					"interpolation": "LINEAR",
					"output": 21
				},
				{
					"input": 20,
					"interpolation": "LINEAR",
					"output": 22
				},
				{
					"input": 20,
					"interpolation": "LINEAR",
					"output": 23
				},
				{
					"input": 24,
					"interpolation": "LINEAR",
					"output": 25
				},
				{
					"input": 24,
					"interpolation": "LINEAR",
					"output": 26
				},
				{
					"input": 24,
					"interpolation": "LINEAR",
					"output": 27
				},
				{
					"input": 28,
					"interpolation": "LINEAR",
					"output": 29
				},
				{
					"input": 28,
					"interpolation": "LINEAR",
					"output": 30
				},
				{
					"input": 28,
					"interpolation": "LINEAR",
					"output": 31
				}
			]
		}
	],
	"buffers": [
		{
			"byteLength": 334096,
			"uri": "小雨.bin"
		}
	],
	"bufferViews": [
		{
			"buffer": 0,
			"byteLength": 44760,
			"target": 34963,
			"byteOffset": 285736
		},
		{
			"buffer": 0,
			"byteLength": 360,
			"byteOffset": 0
		},
		{
			"buffer": 0,
			"byteLength": 41352,
			"target": 34962,
			"byteStride": 8,
			"byteOffset": 360
		},
		{
			"buffer": 0,
			"byteLength": 124056,
			"target": 34962,
			"byteStride": 12,
			"byteOffset": 41712
		},
		{
			"buffer": 0,
			"byteLength": 119968,
			"target": 34962,
			"byteStride": 16,
			"byteOffset": 165768
		},
		{
			"buffer": 0,
			"byteLength": 2160,
			"byteStride": 12,
			"byteOffset": 330496
		},
		{
			"buffer": 0,
			"byteLength": 1440,
			"byteStride": 16,
			"byteOffset": 332656
		}
	],
	"extensionsRequired": [
		"KHR_materials_pbrSpecularGlossiness"
	],
	"extensionsUsed": [
		"KHR_materials_pbrSpecularGlossiness"
	],
	"materials": [
		{
			"pbrMetallicRoughness": {
				"baseColorFactor": [0.03301889, 0.6888822, 1, 1],
				"metallicFactor": 0,
				"roughnessFactor": 0.5
			},
			"emissiveFactor": [0, 0, 0],
			"doubleSided": false,
			"name": ""
		},
		{
			"extensions": {
				"KHR_materials_pbrSpecularGlossiness": {
					"diffuseFactor": [1, 1, 1, 1],
					"specularFactor": [1, 1, 1],
					"glossinessFactor": 0.25				}

			},
			"alphaMode": "MASK",
			"alphaCutoff": 0.5,
			"emissiveFactor": [0, 0, 0],
			"doubleSided": false,
			"name": "-"
		}
	],
	"meshes": [
		{
			"name": "mesh_Cone001_24304 (1)",
			"primitives": [
				{
					"attributes": {
						"POSITION": 0,
						"NORMAL": 1,
						"TEXCOORD_0": 2,
						"TANGENT": 3
					},
					"indices": 4,
					"material": 0,
					"mode": 4
				}
			]
		},
		{
			"name": "mesh_Cone001_24304 (1)",
			"primitives": [
				{
					"attributes": {
						"POSITION": 5,
						"NORMAL": 6,
						"TEXCOORD_0": 7,
						"TANGENT": 8
					},
					"indices": 9,
					"material": 0,
					"mode": 4
				}
			]
		},
		{
			"name": "mesh_Cone001_24304",
			"primitives": [
				{
					"attributes": {
						"POSITION": 10,
						"NORMAL": 11,
						"TEXCOORD_0": 12,
						"TANGENT": 13
					},
					"indices": 14,
					"material": 0,
					"mode": 4
				}
			]
		},
		{
			"name": "mesh_Cone001_24304 (1)",
			"primitives": [
				{
					"attributes": {
						"POSITION": 15,
						"NORMAL": 16,
						"TEXCOORD_0": 17,
						"TANGENT": 18
					},
					"indices": 19,
					"material": 0,
					"mode": 4
				}
			]
		},
		{
			"name": "mesh_Capsule001_20298",
			"primitives": [
				{
					"attributes": {
						"POSITION": 32,
						"NORMAL": 33,
						"COLOR_0": 34,
						"TEXCOORD_0": 35,
						"TANGENT": 36
					},
					"indices": 37,
					"material": 1,
					"mode": 4
				}
			]
		}
	],
	"nodes": [
		{
			"name": "UnityGlTF_root",
			"children": [
				6
			]
		},
		{
			"name": "node__-121488",
			"children": [
				2
			],
			"translation": [ 0, -1.52, 0]
		},
		{
			"name": "node_ (1)_-121492",
			"mesh": 0,
			"translation": [ -0.168977, 1.548967, 0.05381823],
			"scale": [ 0.39645, 0.3964505, 0.3964505],
			"rotation": [-0.7071068, 0, 0, -0.7071068]
		},
		{
			"name": "node_ (1)_-121498",
			"mesh": 1,
			"translation": [ -0.5359772, -0.3800001, 0.0539999],
			"scale": [ 0.39645, 0.3964509, 0.3964509],
			"rotation": [-0.7071068, 0, 0, -0.7071068]
		},
		{
			"name": "node__-121500",
			"mesh": 2,
			"translation": [ 0.3340232, -0.3800001, 0.0539999],
			"scale": [ 0.39645, 0.3964509, 0.3964509],
			"rotation": [-0.7071068, 0, 0, -0.7071068]
		},
		{
			"name": "node_ (1)_-121504",
			"mesh": 3,
			"translation": [ -0.168977, 0.02896655, 0.05381823],
			"scale": [ 0.3964537, 0.3964544, 0.3964544],
			"rotation": [-0.7071068, 0, 0, -0.7071068]
		},
		{
			"name": "node_-_-121478",
			"children": [
				7,
				8,
				9,
				1
			],
			"matrix": [1, 0, 0, 0, 0, 1, 0, 0, 0, 0, 1, 0, -17.18461, 11.21295, -22.39956, 1]
		},
		{
			"name": "node__-121482",
			"mesh": 4,
			"translation": [ 0.85, -0.4410335, 0.05381823],
			"scale": [ 1, 1.097207, 1.451034],
			"rotation": [-0.7071068, 0, -0.7071068, 0]
		},
		{
			"name": "node__-121484",
			"children": [
				3,
				4
			],
			"translation": [ -0.213, 0, 0]
		},
		{
			"name": "node__-121486",
			"children": [
				5
			]
		}
	],
	"scenes": [
		{
			"name":"defaultScene",
			"nodes": [
				0
			]
		}
	],
	"scene": 0
}