{
	"asset": {
		"generator": "Unity 2018.3.11f1",
		"extras": {
			"exporterVersion" : "2.2.1"
		},
		"version": "2.0"
	},
	"accessors": [
		{
			"bufferView": 3,
			"byteOffset": 0,
			"componentType": 5126,
			"count": 24,
			"max": [ 0.5, 0.5, 0.5 ],
			"min": [ -0.5, -0.5, -0.5 ],
			"type": "VEC3"
		},
		{
			"bufferView": 3,
			"byteOffset": 288,
			"componentType": 5126,
			"count": 24,
			"max": [ 1, 1, 1 ],
			"min": [ -1, -1, -1 ],
			"type": "VEC3"
		},
		{
			"bufferView": 2,
			"byteOffset": 0,
			"componentType": 5126,
			"count": 24,
			"max": [ 1, 1 ],
			"min": [ 0, 0 ],
			"type": "VEC2"
		},
		{
			"bufferView": 2,
			"byteOffset": 192,
			"componentType": 5126,
			"count": 24,
			"max": [ 0.9966581, 0.6528358 ],
			"min": [ 0.004055766, 0.004055766 ],
			"type": "VEC2"
		},
		{
			"bufferView": 4,
			"byteOffset": 0,
			"componentType": 5126,
			"count": 24,
			"max": [ 0, 0, 1, 1 ],
			"min": [ -1, 0, -1, 1 ],
			"type": "VEC4"
		},
		{
			"bufferView": 0,
			"byteOffset": 0,
			"componentType": 5123,
			"count": 36,
			"max": [ 23 ],
			"min": [ 0 ],
			"type": "SCALAR"
		},
		{
			"bufferView": 1,
			"byteOffset": 0,
			"componentType": 5126,
			"count": 60,
			"max": [ 1.966667 ],
			"min": [ 0 ],
			"type": "SCALAR"
		},
		{
			"bufferView": 5,
			"byteOffset": 0,
			"componentType": 5126,
			"count": 60,
			"max": [ 0, 1.72, 0 ],
			"min": [ 0, -1.14, 0 ],
			"type": "VEC3"
		},
		{
			"bufferView": 6,
			"byteOffset": 0,
			"componentType": 5126,
			"count": 60,
			"max": [ 0, 0, 0, -1 ],
			"min": [ 0, 0, 0, -1 ],
			"type": "VEC4"
		},
		{
			"bufferView": 5,
			"byteOffset": 720,
			"componentType": 5126,
			"count": 60,
			"max": [ 1, 1, 1 ],
			"min": [ 1, 1, 1 ],
			"type": "VEC3"
		},
		{
			"bufferView": 1,
			"byteOffset": 240,
			"componentType": 5126,
			"count": 60,
			"max": [ 1.966667 ],
			"min": [ 0 ],
			"type": "SCALAR"
		},
		{
			"bufferView": 5,
			"byteOffset": 1440,
			"componentType": 5126,
			"count": 60,
			"max": [ 0, 0, 0 ],
			"min": [ 0, -1.066513, 0 ],
			"type": "VEC3"
		},
		{
			"bufferView": 6,
			"byteOffset": 960,
			"componentType": 5126,
			"count": 60,
			"max": [ 0, 0, 0, -1 ],
			"min": [ 0, 0, 0, -1 ],
			"type": "VEC4"
		},
		{
			"bufferView": 5,
			"byteOffset": 2160,
			"componentType": 5126,
			"count": 60,
			"max": [ 1, 1, 1 ],
			"min": [ 1, 1, 1 ],
			"type": "VEC3"
		},
		{
			"bufferView": 3,
			"byteOffset": 576,
			"componentType": 5126,
			"count": 66066,
			"max": [ 50, 4.944149, 0 ],
			"min": [ 0, 0, -50 ],
			"type": "VEC3"
		},
		{
			"bufferView": 3,
			"byteOffset": 793368,
			"componentType": 5126,
			"count": 66066,
			"max": [ 0.805541, 1, 0.9758025 ],
			"min": [ -0.733452, 0.2185256, -0.4470607 ],
			"type": "VEC3"
		},
		{
			"bufferView": 2,
			"byteOffset": 384,
			"componentType": 5126,
			"count": 66066,
			"max": [ 1, 1 ],
			"min": [ 0, 0 ],
			"type": "VEC2"
		},
		{
			"bufferView": 4,
			"byteOffset": 384,
			"componentType": 5126,
			"count": 66066,
			"max": [ 0.1473305, 0.9758127, -0.218608, -1 ],
			"min": [ -0.06977229, -0.447754, -1, -1 ],
			"type": "VEC4"
		},
		{
			"bufferView": 0,
			"byteOffset": 72,
			"componentType": 5123,
			"count": 393216,
			"max": [ 66065 ],
			"min": [ 0 ],
			"type": "SCALAR"
		},
		{
			"bufferView": 3,
			"byteOffset": 1586160,
			"componentType": 5126,
			"count": 66049,
			"max": [ 50, 4.944149, 0 ],
			"min": [ 0, 0, -50 ],
			"type": "VEC3"
		},
		{
			"bufferView": 3,
			"byteOffset": 2378748,
			"componentType": 5126,
			"count": 66049,
			"max": [ 0.7262335, 1, 0.4208843 ],
			"min": [ -0.733452, 0.6796573, -0.4470607 ],
			"type": "VEC3"
		},
		{
			"bufferView": 2,
			"byteOffset": 528912,
			"componentType": 5126,
			"count": 66049,
			"max": [ 1, 1 ],
			"min": [ 0, 0 ],
			"type": "VEC2"
		},
		{
			"bufferView": 4,
			"byteOffset": 1057440,
			"componentType": 5126,
			"count": 66049,
			"max": [ 0.0006090156, 0.4208995, -0.8941568, -1 ],
			"min": [ -0.0007137738, -0.447754, -1, -1 ],
			"type": "VEC4"
		},
		{
			"bufferView": 0,
			"byteOffset": 786504,
			"componentType": 5123,
			"count": 393216,
			"max": [ 66048 ],
			"min": [ 0 ],
			"type": "SCALAR"
		},
		{
			"bufferView": 3,
			"byteOffset": 3171336,
			"componentType": 5126,
			"count": 66100,
			"max": [ 50, 4.944149, 0 ],
			"min": [ 0, 0, -50 ],
			"type": "VEC3"
		},
		{
			"bufferView": 3,
			"byteOffset": 3964536,
			"componentType": 5126,
			"count": 66100,
			"max": [ 0.8907163, 1, 0.9897579 ],
			"min": [ -0.733452, 0.1305864, -0.4470607 ],
			"type": "VEC3"
		},
		{
			"bufferView": 2,
			"byteOffset": 1057304,
			"componentType": 5126,
			"count": 66100,
			"max": [ 1, 1 ],
			"min": [ 0, 0 ],
			"type": "VEC2"
		},
		{
			"bufferView": 4,
			"byteOffset": 2114224,
			"componentType": 5126,
			"count": 66100,
			"max": [ 0.2559997, 0.9908143, -0.1352301, -1 ],
			"min": [ -0.2746878, -0.447754, -1, -1 ],
			"type": "VEC4"
		},
		{
			"bufferView": 0,
			"byteOffset": 1572936,
			"componentType": 5123,
			"count": 393216,
			"max": [ 66099 ],
			"min": [ 0 ],
			"type": "SCALAR"
		}
	],
	"animations": [
		{
			"name": "",
			"channels": [
				{
					"sampler": 0,
					"target": {
						"node": 5,
						"path": "translation"
					}
				},
				{
					"sampler": 1,
					"target": {
						"node": 5,
						"path": "rotation"
					}
				},
				{
					"sampler": 2,
					"target": {
						"node": 5,
						"path": "scale"
					}
				},
				{
					"sampler": 3,
					"target": {
						"node": 3,
						"path": "translation"
					}
				},
				{
					"sampler": 4,
					"target": {
						"node": 3,
						"path": "rotation"
					}
				},
				{
					"sampler": 5,
					"target": {
						"node": 3,
						"path": "scale"
					}
				}
			],
			"samplers": [
				{
					"input": 6,
					"interpolation": "LINEAR",
					"output": 7
				},
				{
					"input": 6,
					"interpolation": "LINEAR",
					"output": 8
				},
				{
					"input": 6,
					"interpolation": "LINEAR",
					"output": 9
				},
				{
					"input": 10,
					"interpolation": "LINEAR",
					"output": 11
				},
				{
					"input": 10,
					"interpolation": "LINEAR",
					"output": 12
				},
				{
					"input": 10,
					"interpolation": "LINEAR",
					"output": 13
				}
			]
		}
	],
	"buffers": [
		{
			"byteLength": 11880312,
			"uri": "新月形沙丘.bin"
		}
	],
	"bufferViews": [
		{
			"buffer": 0,
			"byteLength": 2359368,
			"target": 34963,
			"byteOffset": 9516144
		},
		{
			"buffer": 0,
			"byteLength": 480,
			"byteOffset": 0
		},
		{
			"buffer": 0,
			"byteLength": 1586104,
			"target": 34962,
			"byteStride": 8,
			"byteOffset": 480
		},
		{
			"buffer": 0,
			"byteLength": 4757736,
			"target": 34962,
			"byteStride": 12,
			"byteOffset": 1586584
		},
		{
			"buffer": 0,
			"byteLength": 3171824,
			"target": 34962,
			"byteStride": 16,
			"byteOffset": 6344320
		},
		{
			"buffer": 0,
			"byteLength": 2880,
			"byteStride": 12,
			"byteOffset": 11875512
		},
		{
			"buffer": 0,
			"byteLength": 1920,
			"byteStride": 16,
			"byteOffset": 11878392
		}
	],
	"images": [
		{
			"uri": "/Assets/风沙地貌/风积地貌/Textures/Sand (Beach2).png"
		}
	],
	"materials": [
		{
			"pbrMetallicRoughness": {
				"baseColorTexture" : {
					"index" : 0,
					"texCoord" : 0
				},
				"baseColorFactor": [1, 1, 1, 1],
				"metallicFactor": 0,
				"roughnessFactor": 0.5
			},
			"alphaMode": "BLEND",
			"alphaCutoff": 0.5,
			"emissiveFactor": [0, 0, 0],
			"doubleSided": false,
			"name": "Sand (Beach2)"
		}
	],
	"meshes": [
		{
			"name": "mesh_Cube_86Cube (3)",
			"primitives": [
				{
					"attributes": {
						"POSITION": 0,
						"NORMAL": 1,
						"TEXCOORD_0": 2,
						"TEXCOORD_1": 3,
						"TANGENT": 4
					},
					"indices": 5,
					"material": 0,
					"mode": 4
				}
			]
		},
		{
			"name": "mesh_default_22620default",
			"primitives": [
				{
					"attributes": {
						"POSITION": 14,
						"NORMAL": 15,
						"TEXCOORD_0": 16,
						"TANGENT": 17
					},
					"indices": 18,
					"material": 0,
					"mode": 4
				}
			]
		},
		{
			"name": "mesh_default_22688default",
			"primitives": [
				{
					"attributes": {
						"POSITION": 19,
						"NORMAL": 20,
						"TEXCOORD_0": 21,
						"TANGENT": 22
					},
					"indices": 23,
					"material": 0,
					"mode": 4
				}
			]
		},
		{
			"name": "mesh_default_22700default",
			"primitives": [
				{
					"attributes": {
						"POSITION": 24,
						"NORMAL": 25,
						"TEXCOORD_0": 26,
						"TANGENT": 27
					},
					"indices": 28,
					"material": 0,
					"mode": 4
				}
			]
		}
	],
	"nodes": [
		{
			"name": "UnityGlTF_root",
			"children": [
				2
			]
		},
		{
			"name": "node_Cube (3)_-94598",
			"mesh": 0,
			"translation": [ -0.6000061, -2.8, 0.8],
			"scale": [ 53.95329, 4.22028, 53.10814]
		},
		{
			"name": "node__-69626",
			"children": [
				1,
				8,
				4,
				6
			],
			"matrix": [1, 0, 0, 0, 0, 1, 0, 0, 0, 0, 1, 0, 200, 0, 0, 1]
		},
		{
			"name": "node_default_-69642",
			"mesh": 1
		},
		{
			"name": "node_Terrainx2_-69632",
			"children": [
				3
			],
			"translation": [ -25.8, -2.7, 26.7]
		},
		{
			"name": "node_default_-69638",
			"mesh": 2,
			"translation": [ 0, 1.72, 0]
		},
		{
			"name": "node_Terrainx1_-69634",
			"children": [
				5
			],
			"translation": [ -25.8, -2.7, 26.7]
		},
		{
			"name": "node_default_-69646",
			"mesh": 3,
			"translation": [ 0, -0.05, 0]
		},
		{
			"name": "node_Terrainx3_-69630",
			"children": [
				7
			],
			"translation": [ -25.8, -2.7, 26.7]
		}
	],
	"samplers": [
		{
			"magFilter": 9729,
			"minFilter": 9985,
			"wrapS": 10497,
			"wrapT": 10497
		}
	],
	"scenes": [
		{
			"name":"defaultScene",
			"nodes": [
				0
			]
		}
	],
	"scene": 0,
	"textures": [
		{
			"sampler": 0,
			"source": 0
		}
	]
}