{
	"asset": {
		"generator": "Unity 2018.3.11f1",
		"extras": {
			"exporterVersion" : "2.2.1"
		},
		"version": "2.0"
	},
	"accessors": [
		{
			"bufferView": 3,
			"byteOffset": 0,
			"componentType": 5126,
			"count": 4551,
			"max": [ 191.4, 6.962095, 66.6 ],
			"min": [ 141.4, 0, 16.6 ],
			"type": "VEC3"
		},
		{
			"bufferView": 3,
			"byteOffset": 54612,
			"componentType": 5126,
			"count": 4551,
			"max": [ 0.9396589, 0.9999996, 0.7890317 ],
			"min": [ -0.9544545, 0.2963202, -0.8608673 ],
			"type": "VEC3"
		},
		{
			"bufferView": 2,
			"byteOffset": 0,
			"componentType": 5126,
			"count": 4551,
			"max": [ 1, 1 ],
			"min": [ 0, 0 ],
			"type": "VEC2"
		},
		{
			"bufferView": 4,
			"byteOffset": 0,
			"componentType": 5126,
			"count": 4551,
			"max": [ 0.1559709, 0.8074762, -0.4611149, -1 ],
			"min": [ -0.1091196, -0.8873404, -1, -1 ],
			"type": "VEC4"
		},
		{
			"bufferView": 0,
			"byteOffset": 0,
			"componentType": 5123,
			"count": 24576,
			"max": [ 4550 ],
			"min": [ 0 ],
			"type": "SCALAR"
		},
		{
			"bufferView": 3,
			"byteOffset": 109224,
			"componentType": 5126,
			"count": 4225,
			"max": [ 113.3, 4.696942, -54 ],
			"min": [ 63.3, 0, -104 ],
			"type": "VEC3"
		},
		{
			"bufferView": 3,
			"byteOffset": 159924,
			"componentType": 5126,
			"count": 4225,
			"max": [ 0.7797737, 1, 0.7353286 ],
			"min": [ -0.7010169, 0.5771871, -0.7921751 ],
			"type": "VEC3"
		},
		{
			"bufferView": 2,
			"byteOffset": 36408,
			"componentType": 5126,
			"count": 4225,
			"max": [ 1, 1 ],
			"min": [ 0, 0 ],
			"type": "VEC2"
		},
		{
			"bufferView": 4,
			"byteOffset": 72816,
			"componentType": 5126,
			"count": 4225,
			"max": [ 0.008916412, 0.7356233, -0.607509, -1 ],
			"min": [ -0.01318017, -0.7943129, -1, -1 ],
			"type": "VEC4"
		},
		{
			"bufferView": 0,
			"byteOffset": 49152,
			"componentType": 5123,
			"count": 24576,
			"max": [ 4224 ],
			"min": [ 0 ],
			"type": "SCALAR"
		},
		{
			"bufferView": 3,
			"byteOffset": 210624,
			"componentType": 5126,
			"count": 4478,
			"max": [ 50, 9.503754, 0 ],
			"min": [ 0, 0, -50 ],
			"type": "VEC3"
		},
		{
			"bufferView": 3,
			"byteOffset": 264360,
			"componentType": 5126,
			"count": 4478,
			"max": [ 0.9588104, 1, 0.8285666 ],
			"min": [ -0.9690699, 0.2353115, -0.8756474 ],
			"type": "VEC3"
		},
		{
			"bufferView": 2,
			"byteOffset": 70208,
			"componentType": 5126,
			"count": 4478,
			"max": [ 1, 1 ],
			"min": [ 0, 0 ],
			"type": "VEC2"
		},
		{
			"bufferView": 4,
			"byteOffset": 140416,
			"componentType": 5126,
			"count": 4478,
			"max": [ 0.07687806, 0.8287227, -0.4823977, -1 ],
			"min": [ -0.0907842, -0.8759518, -1, -1 ],
			"type": "VEC4"
		},
		{
			"bufferView": 0,
			"byteOffset": 98304,
			"componentType": 5123,
			"count": 24576,
			"max": [ 4477 ],
			"min": [ 0 ],
			"type": "SCALAR"
		},
		{
			"bufferView": 3,
			"byteOffset": 318096,
			"componentType": 5126,
			"count": 121,
			"max": [ 5, 1.110223E-16, 5 ],
			"min": [ -5, -1.110223E-16, -5 ],
			"type": "VEC3"
		},
		{
			"bufferView": 3,
			"byteOffset": 319548,
			"componentType": 5126,
			"count": 121,
			"max": [ 0, 1, 0 ],
			"min": [ 0, 1, 0 ],
			"type": "VEC3"
		},
		{
			"bufferView": 2,
			"byteOffset": 106032,
			"componentType": 5126,
			"count": 121,
			"max": [ 1, 1 ],
			"min": [ 0, 0 ],
			"type": "VEC2"
		},
		{
			"bufferView": 4,
			"byteOffset": 212064,
			"componentType": 5126,
			"count": 121,
			"max": [ -1, 0, 0, 1 ],
			"min": [ -1, 0, 0, 1 ],
			"type": "VEC4"
		},
		{
			"bufferView": 0,
			"byteOffset": 147456,
			"componentType": 5123,
			"count": 600,
			"max": [ 120 ],
			"min": [ 0 ],
			"type": "SCALAR"
		},
		{
			"bufferView": 1,
			"byteOffset": 0,
			"componentType": 5126,
			"count": 30,
			"max": [ 0.9666667 ],
			"min": [ 0 ],
			"type": "SCALAR"
		},
		{
			"bufferView": 5,
			"byteOffset": 0,
			"componentType": 5126,
			"count": 30,
			"max": [ -81.45581, 9.8, 80.49731 ],
			"min": [ -81.45581, 7.706844, 80.49731 ],
			"type": "VEC3"
		},
		{
			"bufferView": 6,
			"byteOffset": 0,
			"componentType": 5126,
			"count": 30,
			"max": [ 0, 0, 0, -1 ],
			"min": [ 0, 0, 0, -1 ],
			"type": "VEC4"
		},
		{
			"bufferView": 5,
			"byteOffset": 360,
			"componentType": 5126,
			"count": 30,
			"max": [ 1, 1, 1 ],
			"min": [ 1, 1, 1 ],
			"type": "VEC3"
		},
		{
			"bufferView": 1,
			"byteOffset": 120,
			"componentType": 5126,
			"count": 30,
			"max": [ 0.9666667 ],
			"min": [ 0 ],
			"type": "SCALAR"
		},
		{
			"bufferView": 5,
			"byteOffset": 720,
			"componentType": 5126,
			"count": 30,
			"max": [ -17.75581, 10.2, 26.49732 ],
			"min": [ -17.75581, 8.206518, 26.49732 ],
			"type": "VEC3"
		},
		{
			"bufferView": 6,
			"byteOffset": 480,
			"componentType": 5126,
			"count": 30,
			"max": [ 0, 0, 0, -1 ],
			"min": [ 0, 0, 0, -1 ],
			"type": "VEC4"
		},
		{
			"bufferView": 5,
			"byteOffset": 1080,
			"componentType": 5126,
			"count": 30,
			"max": [ 1, 1, 1 ],
			"min": [ 1, 1, 1 ],
			"type": "VEC3"
		},
		{
			"bufferView": 1,
			"byteOffset": 240,
			"componentType": 5126,
			"count": 30,
			"max": [ 0.9666667 ],
			"min": [ 0 ],
			"type": "SCALAR"
		},
		{
			"bufferView": 5,
			"byteOffset": 1440,
			"componentType": 5126,
			"count": 30,
			"max": [ -159.3558, 6.367911, -40.50268 ],
			"min": [ -159.3558, 4.2, -40.50268 ],
			"type": "VEC3"
		},
		{
			"bufferView": 6,
			"byteOffset": 960,
			"componentType": 5126,
			"count": 30,
			"max": [ 0, 0, 0, -1 ],
			"min": [ 0, 0, 0, -1 ],
			"type": "VEC4"
		},
		{
			"bufferView": 5,
			"byteOffset": 1800,
			"componentType": 5126,
			"count": 30,
			"max": [ 1, 1, 1 ],
			"min": [ 1, 1, 1 ],
			"type": "VEC3"
		},
		{
			"bufferView": 1,
			"byteOffset": 360,
			"componentType": 5126,
			"count": 30,
			"max": [ 0.9666667 ],
			"min": [ 0 ],
			"type": "SCALAR"
		},
		{
			"bufferView": 5,
			"byteOffset": 2160,
			"componentType": 5126,
			"count": 30,
			"max": [ -7.044188, -7.974999, -1.39732 ],
			"min": [ -7.044188, -9.295682, -1.39732 ],
			"type": "VEC3"
		},
		{
			"bufferView": 6,
			"byteOffset": 1440,
			"componentType": 5126,
			"count": 30,
			"max": [ 0, 0, 0, -1 ],
			"min": [ 0, 0, 0, -1 ],
			"type": "VEC4"
		},
		{
			"bufferView": 5,
			"byteOffset": 2520,
			"componentType": 5126,
			"count": 30,
			"max": [ 1, 1, 1 ],
			"min": [ 1, 1, 1 ],
			"type": "VEC3"
		}
	],
	"animations": [
		{
			"name": "",
			"channels": [
				{
					"sampler": 0,
					"target": {
						"node": 3,
						"path": "translation"
					}
				},
				{
					"sampler": 1,
					"target": {
						"node": 3,
						"path": "rotation"
					}
				},
				{
					"sampler": 2,
					"target": {
						"node": 3,
						"path": "scale"
					}
				},
				{
					"sampler": 3,
					"target": {
						"node": 5,
						"path": "translation"
					}
				},
				{
					"sampler": 4,
					"target": {
						"node": 5,
						"path": "rotation"
					}
				},
				{
					"sampler": 5,
					"target": {
						"node": 5,
						"path": "scale"
					}
				},
				{
					"sampler": 6,
					"target": {
						"node": 6,
						"path": "translation"
					}
				},
				{
					"sampler": 7,
					"target": {
						"node": 6,
						"path": "rotation"
					}
				},
				{
					"sampler": 8,
					"target": {
						"node": 6,
						"path": "scale"
					}
				},
				{
					"sampler": 9,
					"target": {
						"node": 8,
						"path": "translation"
					}
				},
				{
					"sampler": 10,
					"target": {
						"node": 8,
						"path": "rotation"
					}
				},
				{
					"sampler": 11,
					"target": {
						"node": 8,
						"path": "scale"
					}
				}
			],
			"samplers": [
				{
					"input": 20,
					"interpolation": "LINEAR",
					"output": 21
				},
				{
					"input": 20,
					"interpolation": "LINEAR",
					"output": 22
				},
				{
					"input": 20,
					"interpolation": "LINEAR",
					"output": 23
				},
				{
					"input": 24,
					"interpolation": "LINEAR",
					"output": 25
				},
				{
					"input": 24,
					"interpolation": "LINEAR",
					"output": 26
				},
				{
					"input": 24,
					"interpolation": "LINEAR",
					"output": 27
				},
				{
					"input": 28,
					"interpolation": "LINEAR",
					"output": 29
				},
				{
					"input": 28,
					"interpolation": "LINEAR",
					"output": 30
				},
				{
					"input": 28,
					"interpolation": "LINEAR",
					"output": 31
				},
				{
					"input": 32,
					"interpolation": "LINEAR",
					"output": 33
				},
				{
					"input": 32,
					"interpolation": "LINEAR",
					"output": 34
				},
				{
					"input": 32,
					"interpolation": "LINEAR",
					"output": 35
				}
			]
		}
	],
	"buffers": [
		{
			"byteLength": 795936,
			"uri": "堰堤型河漫滩.bin"
		}
	],
	"bufferViews": [
		{
			"buffer": 0,
			"byteLength": 148656,
			"target": 34963,
			"byteOffset": 642480
		},
		{
			"buffer": 0,
			"byteLength": 480,
			"byteOffset": 0
		},
		{
			"buffer": 0,
			"byteLength": 107000,
			"target": 34962,
			"byteStride": 8,
			"byteOffset": 480
		},
		{
			"buffer": 0,
			"byteLength": 321000,
			"target": 34962,
			"byteStride": 12,
			"byteOffset": 107480
		},
		{
			"buffer": 0,
			"byteLength": 214000,
			"target": 34962,
			"byteStride": 16,
			"byteOffset": 428480
		},
		{
			"buffer": 0,
			"byteLength": 2880,
			"byteStride": 12,
			"byteOffset": 791136
		},
		{
			"buffer": 0,
			"byteLength": 1920,
			"byteStride": 16,
			"byteOffset": 794016
		}
	],
	"images": [
		{
			"uri": "/Assets/风蚀雅丹/Textures/GoodDirt.jpg"
		},
		{
			"uri": "/Assets/风蚀雅丹/Textures/Grass (Meadows).jpg"
		}
	],
	"materials": [
		{
			"pbrMetallicRoughness": {
				"baseColorTexture" : {
					"index" : 0,
					"texCoord" : 0
				},
				"baseColorFactor": [1, 1, 1, 1],
				"metallicFactor": 0,
				"roughnessFactor": 0.5
			},
			"emissiveFactor": [0, 0, 0],
			"doubleSided": false,
			"name": ""
		},
		{
			"pbrMetallicRoughness": {
				"baseColorTexture" : {
					"index" : 1,
					"texCoord" : 0
				},
				"baseColorFactor": [0.9528302, 0.9528302, 0.9528302, 1],
				"metallicFactor": 0,
				"roughnessFactor": 0.5
			},
			"emissiveFactor": [0, 0, 0],
			"doubleSided": false,
			"name": "111"
		},
		{
			"pbrMetallicRoughness": {
				"baseColorFactor": [0.1434674, 0.4687789, 0.9811321, 1],
				"metallicFactor": 0,
				"roughnessFactor": 0.5
			},
			"emissiveFactor": [0, 0, 0],
			"doubleSided": false,
			"name": ""
		}
	],
	"meshes": [
		{
			"name": "mesh_default_12418default",
			"primitives": [
				{
					"attributes": {
						"POSITION": 0,
						"NORMAL": 1,
						"TEXCOORD_0": 2,
						"TANGENT": 3
					},
					"indices": 4,
					"material": 0,
					"mode": 4
				}
			]
		},
		{
			"name": "mesh_default_12442default",
			"primitives": [
				{
					"attributes": {
						"POSITION": 5,
						"NORMAL": 6,
						"TEXCOORD_0": 7,
						"TANGENT": 8
					},
					"indices": 9,
					"material": 1,
					"mode": 4
				}
			]
		},
		{
			"name": "mesh_default_12430default",
			"primitives": [
				{
					"attributes": {
						"POSITION": 10,
						"NORMAL": 11,
						"TEXCOORD_0": 12,
						"TANGENT": 13
					},
					"indices": 14,
					"material": 1,
					"mode": 4
				}
			]
		},
		{
			"name": "mesh_Plane_590Sea Example",
			"primitives": [
				{
					"attributes": {
						"POSITION": 15,
						"NORMAL": 16,
						"TEXCOORD_0": 17,
						"TANGENT": 18
					},
					"indices": 19,
					"material": 2,
					"mode": 4
				}
			]
		}
	],
	"nodes": [
		{
			"name": "UnityGlTF_root",
			"children": [
				8
			]
		},
		{
			"name": "node_default_-15350",
			"mesh": 0,
			"translation": [ 0, 1.5, 0]
		},
		{
			"name": "node_default_-15418",
			"mesh": 1,
			"translation": [ 0, 0.2, 0]
		},
		{
			"name": "node_2_-15420",
			"children": [
				2
			],
			"translation": [ -81.45581, 8.174999, 80.49731]
		},
		{
			"name": "node_default_-15386",
			"mesh": 2
		},
		{
			"name": "node__-15388",
			"children": [
				4
			],
			"translation": [ -17.75581, 9.174999, 26.49732]
		},
		{
			"name": "node_1_-15352",
			"children": [
				1
			],
			"translation": [ -159.3558, 6.375, -40.50268]
		},
		{
			"name": "node_Sea Example_-15576",
			"mesh": 3,
			"translation": [ 7.044188, 10.495, 1.39732],
			"scale": [ 5, 5, 5]
		},
		{
			"name": "node__-17928",
			"children": [
				3,
				5,
				6,
				7
			],
			"matrix": [1, 0, 0, 0, 0, 1, 0, 0, 0, 0, 1, 0, -7.044188, -7.974999, -1.39732, 1]
		}
	],
	"samplers": [
		{
			"magFilter": 9729,
			"minFilter": 9985,
			"wrapS": 10497,
			"wrapT": 10497
		}
	],
	"scenes": [
		{
			"name":"defaultScene",
			"nodes": [
				0
			]
		}
	],
	"scene": 0,
	"textures": [
		{
			"sampler": 0,
			"source": 0
		},
		{
			"sampler": 0,
			"source": 1
		}
	]
}