{
	"asset": {
		"generator": "Unity 2018.3.11f1",
		"extras": {
			"exporterVersion" : "2.2.1"
		},
		"version": "2.0"
	},
	"accessors": [
		{
			"bufferView": 3,
			"byteOffset": 0,
			"componentType": 5126,
			"count": 70,
			"max": [ 0.2552379, 0.3780251, -0.4159646 ],
			"min": [ 0.2091646, -0.6414644, -0.7088162 ],
			"type": "VEC3"
		},
		{
			"bufferView": 3,
			"byteOffset": 840,
			"componentType": 5126,
			"count": 70,
			"max": [ 0.9999343, 0.9666766, 0.9668983 ],
			"min": [ -0.9996339, -0.7060612, -0.9668981 ],
			"type": "VEC3"
		},
		{
			"bufferView": 2,
			"byteOffset": 0,
			"componentType": 5126,
			"count": 70,
			"max": [ 0.4069723, 0.6633214 ],
			"min": [ 0.3864808, 0.2257806 ],
			"type": "VEC2"
		},
		{
			"bufferView": 4,
			"byteOffset": 0,
			"componentType": 5126,
			"count": 70,
			"max": [ 1, 0, 0, 1 ],
			"min": [ -1, 0, 0, -1 ],
			"type": "VEC4"
		},
		{
			"bufferView": 0,
			"byteOffset": 0,
			"componentType": 5123,
			"count": 168,
			"max": [ 69 ],
			"min": [ 0 ],
			"type": "SCALAR"
		},
		{
			"bufferView": 3,
			"byteOffset": 1680,
			"componentType": 5126,
			"count": 539,
			"max": [ 1.124206, 1.157305, 0 ],
			"min": [ -1.124206, -1.157305, -1.077829 ],
			"type": "VEC3"
		},
		{
			"bufferView": 3,
			"byteOffset": 8148,
			"componentType": 5126,
			"count": 539,
			"max": [ 1, 1, 1 ],
			"min": [ -1, -1, -0.9895111 ],
			"type": "VEC3"
		},
		{
			"bufferView": 2,
			"byteOffset": 560,
			"componentType": 5126,
			"count": 539,
			"max": [ 1, 1 ],
			"min": [ 0, 0 ],
			"type": "VEC2"
		},
		{
			"bufferView": 4,
			"byteOffset": 1120,
			"componentType": 5126,
			"count": 539,
			"max": [ 1, 1, 0.50306, 1 ],
			"min": [ -1, -1, -0.6189752, 1 ],
			"type": "VEC4"
		},
		{
			"bufferView": 0,
			"byteOffset": 336,
			"componentType": 5123,
			"count": 2220,
			"max": [ 480 ],
			"min": [ 0 ],
			"type": "SCALAR"
		},
		{
			"bufferView": 0,
			"byteOffset": 4776,
			"componentType": 5123,
			"count": 396,
			"max": [ 538 ],
			"min": [ 96 ],
			"type": "SCALAR"
		},
		{
			"bufferView": 3,
			"byteOffset": 14616,
			"componentType": 5126,
			"count": 188,
			"max": [ 0.2810515, -0.5786524, -1.020554 ],
			"min": [ -0.2810515, -0.8421617, -1.133745 ],
			"type": "VEC3"
		},
		{
			"bufferView": 3,
			"byteOffset": 16872,
			"componentType": 5126,
			"count": 188,
			"max": [ 1, 0.9529202, 0.9669028 ],
			"min": [ -1, -0.9662815, -0.9669831 ],
			"type": "VEC3"
		},
		{
			"bufferView": 2,
			"byteOffset": 4872,
			"componentType": 5126,
			"count": 188,
			"max": [ 0.625, 0.25 ],
			"min": [ 0.375, 0.1415033 ],
			"type": "VEC2"
		},
		{
			"bufferView": 4,
			"byteOffset": 9744,
			"componentType": 5126,
			"count": 188,
			"max": [ 1, 0, 0, 1 ],
			"min": [ -1, 0, 0, -1 ],
			"type": "VEC4"
		},
		{
			"bufferView": 0,
			"byteOffset": 5568,
			"componentType": 5123,
			"count": 372,
			"max": [ 187 ],
			"min": [ 0 ],
			"type": "SCALAR"
		},
		{
			"bufferView": 3,
			"byteOffset": 19128,
			"componentType": 5126,
			"count": 183,
			"max": [ 0.2810515, 1.157305, -1.09018 ],
			"min": [ -0.2810515, -0.7555243, -1.642592 ],
			"type": "VEC3"
		},
		{
			"bufferView": 3,
			"byteOffset": 21324,
			"componentType": 5126,
			"count": 183,
			"max": [ 1, 0.966898, 0.9669037 ],
			"min": [ -1, -0.9529202, -0.9669034 ],
			"type": "VEC3"
		},
		{
			"bufferView": 2,
			"byteOffset": 6376,
			"componentType": 5126,
			"count": 183,
			"max": [ 0.625, 1 ],
			"min": [ 0.375, 0.1794202 ],
			"type": "VEC2"
		},
		{
			"bufferView": 4,
			"byteOffset": 12752,
			"componentType": 5126,
			"count": 183,
			"max": [ 1, 0, 0, 1 ],
			"min": [ -1, 0, 0, -1 ],
			"type": "VEC4"
		},
		{
			"bufferView": 0,
			"byteOffset": 6312,
			"componentType": 5123,
			"count": 462,
			"max": [ 182 ],
			"min": [ 0 ],
			"type": "SCALAR"
		},
		{
			"bufferView": 1,
			"byteOffset": 0,
			"componentType": 5126,
			"count": 30,
			"max": [ 0.9666667 ],
			"min": [ 0 ],
			"type": "SCALAR"
		},
		{
			"bufferView": 5,
			"byteOffset": 0,
			"componentType": 5126,
			"count": 30,
			"max": [ -0.1807322, -0.3781021, 0.01130508 ],
			"min": [ -0.1807322, -0.4258439, 0.01130508 ],
			"type": "VEC3"
		},
		{
			"bufferView": 6,
			"byteOffset": 0,
			"componentType": 5126,
			"count": 30,
			"max": [ -0.7071068, 0, 0, -0.7071068 ],
			"min": [ -0.7071068, 0, 0, -0.7071068 ],
			"type": "VEC4"
		},
		{
			"bufferView": 5,
			"byteOffset": 360,
			"componentType": 5126,
			"count": 30,
			"max": [ 1, 1, 1 ],
			"min": [ 1, 1, 1 ],
			"type": "VEC3"
		},
		{
			"bufferView": 3,
			"byteOffset": 23520,
			"componentType": 5126,
			"count": 70,
			"max": [ 0.2552379, 0.3780251, -0.4159646 ],
			"min": [ 0.2091646, -0.6414644, -0.7088162 ],
			"type": "VEC3"
		},
		{
			"bufferView": 3,
			"byteOffset": 24360,
			"componentType": 5126,
			"count": 70,
			"max": [ 0.9999343, 0.9666766, 0.9668983 ],
			"min": [ -0.9996339, -0.7060612, -0.9668981 ],
			"type": "VEC3"
		},
		{
			"bufferView": 2,
			"byteOffset": 7840,
			"componentType": 5126,
			"count": 70,
			"max": [ 0.4069723, 0.6633214 ],
			"min": [ 0.3864808, 0.2257806 ],
			"type": "VEC2"
		},
		{
			"bufferView": 4,
			"byteOffset": 15680,
			"componentType": 5126,
			"count": 70,
			"max": [ 1, 0, 0, 1 ],
			"min": [ -1, 0, 0, -1 ],
			"type": "VEC4"
		},
		{
			"bufferView": 0,
			"byteOffset": 7236,
			"componentType": 5123,
			"count": 168,
			"max": [ 69 ],
			"min": [ 0 ],
			"type": "SCALAR"
		}
	],
	"animations": [
		{
			"name": "004",
			"channels": [
				{
					"sampler": 0,
					"target": {
						"node": 5,
						"path": "translation"
					}
				},
				{
					"sampler": 1,
					"target": {
						"node": 5,
						"path": "rotation"
					}
				},
				{
					"sampler": 2,
					"target": {
						"node": 5,
						"path": "scale"
					}
				}
			],
			"samplers": [
				{
					"input": 21,
					"interpolation": "LINEAR",
					"output": 22
				},
				{
					"input": 21,
					"interpolation": "LINEAR",
					"output": 23
				},
				{
					"input": 21,
					"interpolation": "LINEAR",
					"output": 24
				}
			]
		}
	],
	"buffers": [
		{
			"byteLength": 59292,
			"uri": "侧碛堤.bin"
		}
	],
	"bufferViews": [
		{
			"buffer": 0,
			"byteLength": 7572,
			"target": 34963,
			"byteOffset": 50520
		},
		{
			"buffer": 0,
			"byteLength": 120,
			"byteOffset": 0
		},
		{
			"buffer": 0,
			"byteLength": 8400,
			"target": 34962,
			"byteStride": 8,
			"byteOffset": 120
		},
		{
			"buffer": 0,
			"byteLength": 25200,
			"target": 34962,
			"byteStride": 12,
			"byteOffset": 8520
		},
		{
			"buffer": 0,
			"byteLength": 16800,
			"target": 34962,
			"byteStride": 16,
			"byteOffset": 33720
		},
		{
			"buffer": 0,
			"byteLength": 720,
			"byteStride": 12,
			"byteOffset": 58092
		},
		{
			"buffer": 0,
			"byteLength": 480,
			"byteStride": 16,
			"byteOffset": 58812
		}
	],
	"images": [
		{
			"uri": "/Assets/冰川地貌/冰碛地貌/Textures/冰川5_侧碛堤.fbm/rock.jpg"
		},
		{
			"uri": "/Assets/冰川地貌/冰碛地貌/Textures/冰川5_侧碛堤.fbm/雪地1.jpg"
		},
		{
			"uri": "/Assets/冰川地貌/冰碛地貌/Textures/冰川5_侧碛堤.fbm/冰川.jpg"
		}
	],
	"materials": [
		{
			"pbrMetallicRoughness": {
				"baseColorTexture" : {
					"index" : 0,
					"texCoord" : 0
				},
				"baseColorFactor": [0.5882353, 0.5882353, 0.5882353, 1],
				"metallicFactor": 0,
				"roughnessFactor": 1
			},
			"emissiveFactor": [0, 0, 0],
			"doubleSided": false,
			"name": "rock"
		},
		{
			"pbrMetallicRoughness": {
				"baseColorFactor": [1, 1, 1, 1],
				"metallicFactor": 0,
				"roughnessFactor": 1
			},
			"alphaMode": "BLEND",
			"alphaCutoff": 0.5,
			"emissiveFactor": [0, 0, 0],
			"doubleSided": false,
			"name": "No Name"
		},
		{
			"pbrMetallicRoughness": {
				"baseColorTexture" : {
					"index" : 1,
					"texCoord" : 0
				},
				"baseColorFactor": [0.5882353, 0.5882353, 0.5882353, 1],
				"metallicFactor": 0,
				"roughnessFactor": 1
			},
			"emissiveFactor": [0, 0, 0],
			"doubleSided": false,
			"name": "1"
		},
		{
			"pbrMetallicRoughness": {
				"baseColorTexture" : {
					"index" : 2,
					"texCoord" : 0
				},
				"baseColorFactor": [0.7924528, 0.7924528, 0.7924528, 1],
				"metallicFactor": 0,
				"roughnessFactor": 1
			},
			"emissiveFactor": [0, 0, 0],
			"doubleSided": false,
			"name": "1.mat"
		}
	],
	"meshes": [
		{
			"name": "mesh_005_15020006",
			"primitives": [
				{
					"attributes": {
						"POSITION": 0,
						"NORMAL": 1,
						"TEXCOORD_0": 2,
						"TANGENT": 3
					},
					"indices": 4,
					"material": 0,
					"mode": 4
				}
			]
		},
		{
			"name": "mesh_Box001_15014Box001",
			"primitives": [
				{
					"attributes": {
						"POSITION": 5,
						"NORMAL": 6,
						"TEXCOORD_0": 7,
						"TANGENT": 8
					},
					"indices": 9,
					"material": 1,
					"mode": 4
				},
				{
					"attributes": {
						"POSITION": 5,
						"NORMAL": 6,
						"TEXCOORD_0": 7,
						"TANGENT": 8
					},
					"indices": 10,
					"material": 2,
					"mode": 4
				}
			]
		},
		{
			"name": "mesh_003_15016003",
			"primitives": [
				{
					"attributes": {
						"POSITION": 11,
						"NORMAL": 12,
						"TEXCOORD_0": 13,
						"TANGENT": 14
					},
					"indices": 15,
					"material": 0,
					"mode": 4
				}
			]
		},
		{
			"name": "mesh_004_15018004",
			"primitives": [
				{
					"attributes": {
						"POSITION": 16,
						"NORMAL": 17,
						"TEXCOORD_0": 18,
						"TANGENT": 19
					},
					"indices": 20,
					"material": 3,
					"mode": 4
				}
			]
		},
		{
			"name": "mesh_005_15020005",
			"primitives": [
				{
					"attributes": {
						"POSITION": 25,
						"NORMAL": 26,
						"TEXCOORD_0": 27,
						"TANGENT": 28
					},
					"indices": 29,
					"material": 0,
					"mode": 4
				}
			]
		}
	],
	"nodes": [
		{
			"name": "UnityGlTF_root",
			"children": [
				7
			]
		},
		{
			"name": "node_006_-183652",
			"mesh": 0,
			"translation": [ -1.049, 0.339, -0.003000006],
			"scale": [ 2.8741, 1, 1],
			"rotation": [-0.7071068, 0, 0, -0.7071068]
		},
		{
			"name": "node_1_-152306",
			"children": [
				3,
				4,
				5,
				6,
				1
			],
			"translation": [ 0.22, -0.619, -0.22]
		},
		{
			"name": "node_Box001_-152310",
			"mesh": 1,
			"translation": [ -0.1807322, 0.4430784, 0.01130508],
			"rotation": [-0.7071068, 0, 0, -0.7071068]
		},
		{
			"name": "node_003_-152312",
			"mesh": 2,
			"translation": [ -0.1807322, -0.325465, 0.01130508],
			"rotation": [-0.7071068, 0, 0, -0.7071068]
		},
		{
			"name": "node_004_-152314",
			"mesh": 3,
			"translation": [ -0.1807322, -0.3781021, 0.01130508],
			"rotation": [-0.7071068, 0, 0, -0.7071068]
		},
		{
			"name": "node_005_-152316",
			"mesh": 4,
			"translation": [ -0.653, 0.339, -0.003],
			"scale": [ 2.874102, 1, 1],
			"rotation": [-0.7071068, 0, 0, -0.7071068]
		},
		{
			"name": "node__-152304",
			"children": [
				2
			],
			"matrix": [1, 0, 0, 0, 0, 1, 0, 0, 0, 0, 1, 0, -5, 0, 0, 1]
		}
	],
	"samplers": [
		{
			"magFilter": 9729,
			"minFilter": 9985,
			"wrapS": 10497,
			"wrapT": 10497
		}
	],
	"scenes": [
		{
			"name":"defaultScene",
			"nodes": [
				0
			]
		}
	],
	"scene": 0,
	"textures": [
		{
			"sampler": 0,
			"source": 0
		},
		{
			"sampler": 0,
			"source": 1
		},
		{
			"sampler": 0,
			"source": 2
		}
	]
}