{
	"asset": {
		"generator": "Unity 2018.3.11f1",
		"extras": {
			"exporterVersion" : "2.2.1"
		},
		"version": "2.0"
	},
	"accessors": [
		{
			"bufferView": 3,
			"byteOffset": 0,
			"componentType": 5126,
			"count": 2329,
			"max": [ 0.3488144, 0.3488377, 0.2335324 ],
			"min": [ -0.3488244, -0.8599577, -1.672723 ],
			"type": "VEC3"
		},
		{
			"bufferView": 3,
			"byteOffset": 27948,
			"componentType": 5126,
			"count": 2329,
			"max": [ 1, 1, 1 ],
			"min": [ -1, -1, -1 ],
			"type": "VEC3"
		},
		{
			"bufferView": 4,
			"byteOffset": 0,
			"componentType": 5126,
			"count": 2329,
			"max": [ 0, 0, 0, 0 ],
			"min": [ 0, 0, 0, 0 ],
			"type": "VEC4"
		},
		{
			"bufferView": 2,
			"byteOffset": 0,
			"componentType": 5126,
			"count": 2329,
			"max": [ 1, 1 ],
			"min": [ -4.287548E-18, -1.192093E-07 ],
			"type": "VEC2"
		},
		{
			"bufferView": 4,
			"byteOffset": 37264,
			"componentType": 5126,
			"count": 2329,
			"max": [ 1, 1, 1, 1 ],
			"min": [ -1, -1, -1, -1 ],
			"type": "VEC4"
		},
		{
			"bufferView": 0,
			"byteOffset": 0,
			"componentType": 5123,
			"count": 8712,
			"max": [ 2328 ],
			"min": [ 0 ],
			"type": "SCALAR"
		},
		{
			"bufferView": 3,
			"byteOffset": 55896,
			"componentType": 5126,
			"count": 90,
			"max": [ 1.86672, 0.8323113, 0 ],
			"min": [ -0.7049239, -0.1510363, -0.0508 ],
			"type": "VEC3"
		},
		{
			"bufferView": 3,
			"byteOffset": 56976,
			"componentType": 5126,
			"count": 90,
			"max": [ 1, 1, 1 ],
			"min": [ -1, -1, -1 ],
			"type": "VEC3"
		},
		{
			"bufferView": 2,
			"byteOffset": 18632,
			"componentType": 5126,
			"count": 90,
			"max": [ 1, 1 ],
			"min": [ 0, 0 ],
			"type": "VEC2"
		},
		{
			"bufferView": 4,
			"byteOffset": 74528,
			"componentType": 5126,
			"count": 90,
			"max": [ 1, 1, 0, 1 ],
			"min": [ -1, -1, 0, 1 ],
			"type": "VEC4"
		},
		{
			"bufferView": 0,
			"byteOffset": 17424,
			"componentType": 5123,
			"count": 186,
			"max": [ 89 ],
			"min": [ 0 ],
			"type": "SCALAR"
		},
		{
			"bufferView": 1,
			"byteOffset": 0,
			"componentType": 5126,
			"count": 30,
			"max": [ 0.9666667 ],
			"min": [ 0 ],
			"type": "SCALAR"
		},
		{
			"bufferView": 5,
			"byteOffset": 0,
			"componentType": 5126,
			"count": 30,
			"max": [ 3.4456, -4.8716, 3.983314 ],
			"min": [ 1.9, -6.27, 3.983314 ],
			"type": "VEC3"
		},
		{
			"bufferView": 6,
			"byteOffset": 0,
			"componentType": 5126,
			"count": 30,
			"max": [ 0, 0, 0.7071068, -0.7071068 ],
			"min": [ 0, 0, 0.7071068, -0.7071068 ],
			"type": "VEC4"
		},
		{
			"bufferView": 5,
			"byteOffset": 360,
			"componentType": 5126,
			"count": 30,
			"max": [ 2.033817, 1, 1 ],
			"min": [ 1, 1, 1 ],
			"type": "VEC3"
		}
	],
	"animations": [
		{
			"name": "",
			"channels": [
				{
					"sampler": 0,
					"target": {
						"node": 3,
						"path": "translation"
					}
				},
				{
					"sampler": 1,
					"target": {
						"node": 3,
						"path": "rotation"
					}
				},
				{
					"sampler": 2,
					"target": {
						"node": 3,
						"path": "scale"
					}
				}
			],
			"samplers": [
				{
					"input": 11,
					"interpolation": "LINEAR",
					"output": 12
				},
				{
					"input": 11,
					"interpolation": "LINEAR",
					"output": 13
				},
				{
					"input": 11,
					"interpolation": "LINEAR",
					"output": 14
				}
			]
		}
	],
	"buffers": [
		{
			"byteLength": 172492,
			"uri": "雷电.bin"
		}
	],
	"bufferViews": [
		{
			"buffer": 0,
			"byteLength": 17796,
			"target": 34963,
			"byteOffset": 153496
		},
		{
			"buffer": 0,
			"byteLength": 120,
			"byteOffset": 0
		},
		{
			"buffer": 0,
			"byteLength": 19352,
			"target": 34962,
			"byteStride": 8,
			"byteOffset": 120
		},
		{
			"buffer": 0,
			"byteLength": 58056,
			"target": 34962,
			"byteStride": 12,
			"byteOffset": 19472
		},
		{
			"buffer": 0,
			"byteLength": 75968,
			"target": 34962,
			"byteStride": 16,
			"byteOffset": 77528
		},
		{
			"buffer": 0,
			"byteLength": 720,
			"byteStride": 12,
			"byteOffset": 171292
		},
		{
			"buffer": 0,
			"byteLength": 480,
			"byteStride": 16,
			"byteOffset": 172012
		}
	],
	"extensionsRequired": [
		"KHR_materials_pbrSpecularGlossiness"
	],
	"extensionsUsed": [
		"KHR_materials_pbrSpecularGlossiness"
	],
	"materials": [
		{
			"extensions": {
				"KHR_materials_pbrSpecularGlossiness": {
					"diffuseFactor": [1, 1, 1, 1],
					"specularFactor": [1, 1, 1],
					"glossinessFactor": 0.25				}

			},
			"alphaMode": "MASK",
			"alphaCutoff": 0.5,
			"emissiveFactor": [0, 0, 0],
			"doubleSided": false,
			"name": "-"
		},
		{
			"pbrMetallicRoughness": {
				"baseColorFactor": [1, 0.8470588, 0, 1],
				"metallicFactor": 0,
				"roughnessFactor": 0.5
			},
			"emissiveFactor": [0, 0, 0],
			"doubleSided": false,
			"name": " 2"
		}
	],
	"meshes": [
		{
			"name": "mesh_Capsule001_11218 (1)",
			"primitives": [
				{
					"attributes": {
						"POSITION": 0,
						"NORMAL": 1,
						"COLOR_0": 2,
						"TEXCOORD_0": 3,
						"TANGENT": 4
					},
					"indices": 5,
					"material": 0,
					"mode": 4
				}
			]
		},
		{
			"name": "mesh_Box001_10456",
			"primitives": [
				{
					"attributes": {
						"POSITION": 6,
						"NORMAL": 7,
						"TEXCOORD_0": 8,
						"TANGENT": 9
					},
					"indices": 10,
					"material": 1,
					"mode": 4
				}
			]
		}
	],
	"nodes": [
		{
			"name": "UnityGlTF_root",
			"children": [
				2
			]
		},
		{
			"name": "node_ (1)_-12200",
			"mesh": 0,
			"translation": [ 5.02, -3.35, 3.96],
			"scale": [ 2.192865, 2.406039, 3.181919],
			"rotation": [-0.7071068, 0, -0.7071068, 0]
		},
		{
			"name": "node__-12198",
			"children": [
				1,
				3
			],
			"matrix": [1, 0, 0, 0, 0, 1, 0, 0, 0, 0, 1, 0, -0.3960459, -6.820968, 18.01136, 1]
		},
		{
			"name": "node__-12202",
			"mesh": 1,
			"translation": [ 1.583401, 1.396557, -0.2737794],
			"rotation": [0, 0, 0.7071068, -0.7071068]
		}
	],
	"scenes": [
		{
			"name":"defaultScene",
			"nodes": [
				0
			]
		}
	],
	"scene": 0
}