{
	"asset": {
		"generator": "Unity 2018.3.11f1",
		"extras": {
			"exporterVersion" : "2.2.1"
		},
		"version": "2.0"
	},
	"accessors": [
		{
			"bufferView": 3,
			"byteOffset": 0,
			"componentType": 5126,
			"count": 121,
			"max": [ 5, 1.110223E-16, 5 ],
			"min": [ -5, -1.110223E-16, -5 ],
			"type": "VEC3"
		},
		{
			"bufferView": 3,
			"byteOffset": 1452,
			"componentType": 5126,
			"count": 121,
			"max": [ 0, 1, 0 ],
			"min": [ 0, 1, 0 ],
			"type": "VEC3"
		},
		{
			"bufferView": 2,
			"byteOffset": 0,
			"componentType": 5126,
			"count": 121,
			"max": [ 1, 1 ],
			"min": [ 0, 0 ],
			"type": "VEC2"
		},
		{
			"bufferView": 4,
			"byteOffset": 0,
			"componentType": 5126,
			"count": 121,
			"max": [ -1, 0, 0, 1 ],
			"min": [ -1, 0, 0, 1 ],
			"type": "VEC4"
		},
		{
			"bufferView": 0,
			"byteOffset": 0,
			"componentType": 5123,
			"count": 600,
			"max": [ 120 ],
			"min": [ 0 ],
			"type": "SCALAR"
		},
		{
			"bufferView": 3,
			"byteOffset": 2904,
			"componentType": 5126,
			"count": 5610,
			"max": [ 1.27, 1.27, 0 ],
			"min": [ -1.27, -1.27, -0.635 ],
			"type": "VEC3"
		},
		{
			"bufferView": 3,
			"byteOffset": 70224,
			"componentType": 5126,
			"count": 5610,
			"max": [ 1, 1, 1 ],
			"min": [ -1, -1, -1 ],
			"type": "VEC3"
		},
		{
			"bufferView": 2,
			"byteOffset": 968,
			"componentType": 5126,
			"count": 5610,
			"max": [ 1, 1 ],
			"min": [ 0, 0 ],
			"type": "VEC2"
		},
		{
			"bufferView": 4,
			"byteOffset": 1936,
			"componentType": 5126,
			"count": 5610,
			"max": [ 1, 1, 0.9530439, 1 ],
			"min": [ -1, -1, -0.9583593, 1 ],
			"type": "VEC4"
		},
		{
			"bufferView": 0,
			"byteOffset": 1200,
			"componentType": 5123,
			"count": 31200,
			"max": [ 5609 ],
			"min": [ 0 ],
			"type": "SCALAR"
		},
		{
			"bufferView": 3,
			"byteOffset": 137544,
			"componentType": 5126,
			"count": 5610,
			"max": [ 1.27, 1.27, 0 ],
			"min": [ -1.27, -1.27, -0.635 ],
			"type": "VEC3"
		},
		{
			"bufferView": 3,
			"byteOffset": 204864,
			"componentType": 5126,
			"count": 5610,
			"max": [ 1, 1, 1 ],
			"min": [ -1, -1, -1 ],
			"type": "VEC3"
		},
		{
			"bufferView": 2,
			"byteOffset": 45848,
			"componentType": 5126,
			"count": 5610,
			"max": [ 1, 1 ],
			"min": [ 0, 0 ],
			"type": "VEC2"
		},
		{
			"bufferView": 4,
			"byteOffset": 91696,
			"componentType": 5126,
			"count": 5610,
			"max": [ 1, 1, 0.9530439, 1 ],
			"min": [ -1, -1, -0.9583593, 1 ],
			"type": "VEC4"
		},
		{
			"bufferView": 0,
			"byteOffset": 63600,
			"componentType": 5123,
			"count": 31200,
			"max": [ 5609 ],
			"min": [ 0 ],
			"type": "SCALAR"
		},
		{
			"bufferView": 1,
			"byteOffset": 0,
			"componentType": 5126,
			"count": 180,
			"max": [ 5.966667 ],
			"min": [ 0 ],
			"type": "SCALAR"
		},
		{
			"bufferView": 5,
			"byteOffset": 0,
			"componentType": 5126,
			"count": 180,
			"max": [ 0, 0, 0 ],
			"min": [ 0, -11.6, 0 ],
			"type": "VEC3"
		},
		{
			"bufferView": 6,
			"byteOffset": 0,
			"componentType": 5126,
			"count": 180,
			"max": [ -0.7071068, 0, 0, -0.7071068 ],
			"min": [ -0.7071068, 0, 0, -0.7071068 ],
			"type": "VEC4"
		},
		{
			"bufferView": 5,
			"byteOffset": 2160,
			"componentType": 5126,
			"count": 180,
			"max": [ 1, 1, 1 ],
			"min": [ 1, 1, 1 ],
			"type": "VEC3"
		},
		{
			"bufferView": 3,
			"byteOffset": 272184,
			"componentType": 5126,
			"count": 5610,
			"max": [ 1.27, 1.27, 0 ],
			"min": [ -1.27, -1.27, -1.19074 ],
			"type": "VEC3"
		},
		{
			"bufferView": 3,
			"byteOffset": 339504,
			"componentType": 5126,
			"count": 5610,
			"max": [ 1, 1, 1 ],
			"min": [ -1, -1, -1 ],
			"type": "VEC3"
		},
		{
			"bufferView": 2,
			"byteOffset": 90728,
			"componentType": 5126,
			"count": 5610,
			"max": [ 1, 1 ],
			"min": [ 0, 0 ],
			"type": "VEC2"
		},
		{
			"bufferView": 4,
			"byteOffset": 181456,
			"componentType": 5126,
			"count": 5610,
			"max": [ 1, 1, 0.9766455, 1 ],
			"min": [ -1, -1, -0.9735702, 1 ],
			"type": "VEC4"
		},
		{
			"bufferView": 0,
			"byteOffset": 126000,
			"componentType": 5123,
			"count": 31200,
			"max": [ 5609 ],
			"min": [ 0 ],
			"type": "SCALAR"
		},
		{
			"bufferView": 1,
			"byteOffset": 720,
			"componentType": 5126,
			"count": 180,
			"max": [ 5.966667 ],
			"min": [ 0 ],
			"type": "SCALAR"
		},
		{
			"bufferView": 5,
			"byteOffset": 4320,
			"componentType": 5126,
			"count": 180,
			"max": [ 0, 0, 0 ],
			"min": [ 0, -12.59999, 0 ],
			"type": "VEC3"
		},
		{
			"bufferView": 6,
			"byteOffset": 2880,
			"componentType": 5126,
			"count": 180,
			"max": [ -0.7071068, 0, 0, -0.7071068 ],
			"min": [ -0.7071068, 0, 0, -0.7071068 ],
			"type": "VEC4"
		},
		{
			"bufferView": 5,
			"byteOffset": 6480,
			"componentType": 5126,
			"count": 180,
			"max": [ 1, 1, 1 ],
			"min": [ 1, 1, 1 ],
			"type": "VEC3"
		}
	],
	"animations": [
		{
			"name": "Box002",
			"channels": [
				{
					"sampler": 0,
					"target": {
						"node": 4,
						"path": "translation"
					}
				},
				{
					"sampler": 1,
					"target": {
						"node": 4,
						"path": "rotation"
					}
				},
				{
					"sampler": 2,
					"target": {
						"node": 4,
						"path": "scale"
					}
				}
			],
			"samplers": [
				{
					"input": 15,
					"interpolation": "LINEAR",
					"output": 16
				},
				{
					"input": 15,
					"interpolation": "LINEAR",
					"output": 17
				},
				{
					"input": 15,
					"interpolation": "LINEAR",
					"output": 18
				}
			]
		},
		{
			"name": "Box003",
			"channels": [
				{
					"sampler": 0,
					"target": {
						"node": 5,
						"path": "translation"
					}
				},
				{
					"sampler": 1,
					"target": {
						"node": 5,
						"path": "rotation"
					}
				},
				{
					"sampler": 2,
					"target": {
						"node": 5,
						"path": "scale"
					}
				}
			],
			"samplers": [
				{
					"input": 24,
					"interpolation": "LINEAR",
					"output": 25
				},
				{
					"input": 24,
					"interpolation": "LINEAR",
					"output": 26
				},
				{
					"input": 24,
					"interpolation": "LINEAR",
					"output": 27
				}
			]
		}
	],
	"buffers": [
		{
			"byteLength": 1017888,
			"uri": "分汊型河床.bin"
		}
	],
	"bufferViews": [
		{
			"buffer": 0,
			"byteLength": 188400,
			"target": 34963,
			"byteOffset": 815088
		},
		{
			"buffer": 0,
			"byteLength": 1440,
			"byteOffset": 0
		},
		{
			"buffer": 0,
			"byteLength": 135608,
			"target": 34962,
			"byteStride": 8,
			"byteOffset": 1440
		},
		{
			"buffer": 0,
			"byteLength": 406824,
			"target": 34962,
			"byteStride": 12,
			"byteOffset": 137048
		},
		{
			"buffer": 0,
			"byteLength": 271216,
			"target": 34962,
			"byteStride": 16,
			"byteOffset": 543872
		},
		{
			"buffer": 0,
			"byteLength": 8640,
			"byteStride": 12,
			"byteOffset": 1003488
		},
		{
			"buffer": 0,
			"byteLength": 5760,
			"byteStride": 16,
			"byteOffset": 1012128
		}
	],
	"images": [
		{
			"uri": "/Assets/Grass (Hill).jpg"
		}
	],
	"materials": [
		{
			"pbrMetallicRoughness": {
				"baseColorFactor": [0, 0.5208681, 1, 1],
				"metallicFactor": 0,
				"roughnessFactor": 0.5
			},
			"emissiveFactor": [0, 0, 0],
			"doubleSided": false,
			"name": "New Material"
		},
		{
			"pbrMetallicRoughness": {
				"baseColorTexture" : {
					"index" : 0,
					"texCoord" : 0
				},
				"baseColorFactor": [1, 1, 1, 1],
				"metallicFactor": 0,
				"roughnessFactor": 0.5
			},
			"emissiveFactor": [0, 0, 0],
			"doubleSided": false,
			"name": "Grass (Hill)"
		}
	],
	"meshes": [
		{
			"name": "mesh_Plane_580Plane",
			"primitives": [
				{
					"attributes": {
						"POSITION": 0,
						"NORMAL": 1,
						"TEXCOORD_0": 2,
						"TANGENT": 3
					},
					"indices": 4,
					"material": 0,
					"mode": 4
				}
			]
		},
		{
			"name": "mesh_Box001_11158Box001",
			"primitives": [
				{
					"attributes": {
						"POSITION": 5,
						"NORMAL": 6,
						"TEXCOORD_0": 7,
						"TANGENT": 8
					},
					"indices": 9,
					"material": 1,
					"mode": 4
				}
			]
		},
		{
			"name": "mesh_Box002_11160Box002",
			"primitives": [
				{
					"attributes": {
						"POSITION": 10,
						"NORMAL": 11,
						"TEXCOORD_0": 12,
						"TANGENT": 13
					},
					"indices": 14,
					"material": 1,
					"mode": 4
				}
			]
		},
		{
			"name": "mesh_Box003_11162Box003",
			"primitives": [
				{
					"attributes": {
						"POSITION": 19,
						"NORMAL": 20,
						"TEXCOORD_0": 21,
						"TANGENT": 22
					},
					"indices": 23,
					"material": 1,
					"mode": 4
				}
			]
		}
	],
	"nodes": [
		{
			"name": "UnityGlTF_root",
			"children": [
				2
			]
		},
		{
			"name": "node_Plane_-2862",
			"mesh": 0,
			"translation": [ 0, 0.53, 0],
			"scale": [ 0.24509, 0.24509, 0.24509]
		},
		{
			"name": "node_ 1_-2156",
			"children": [
				3,
				4,
				5,
				1
			],
			"matrix": [1, 0, 0, 0, 0, 1, 0, 0, 0, 0, 1, 0, 0, 0, 0, 1]
		},
		{
			"name": "node_Box001_-2150",
			"mesh": 1,
			"rotation": [-0.7071068, 0, 0, -0.7071068]
		},
		{
			"name": "node_Box002_-2152",
			"mesh": 2,
			"rotation": [-0.7071068, 0, 0, -0.7071068]
		},
		{
			"name": "node_Box003_-2154",
			"mesh": 3,
			"rotation": [-0.7071068, 0, 0, -0.7071068]
		}
	],
	"samplers": [
		{
			"magFilter": 9729,
			"minFilter": 9985,
			"wrapS": 10497,
			"wrapT": 10497
		}
	],
	"scenes": [
		{
			"name":"defaultScene",
			"nodes": [
				0
			]
		}
	],
	"scene": 0,
	"textures": [
		{
			"sampler": 0,
			"source": 0
		}
	]
}