{
	"asset": {
		"generator": "Unity 2018.3.11f1",
		"extras": {
			"exporterVersion" : "2.2.1"
		},
		"version": "2.0"
	},
	"accessors": [
		{
			"bufferView": 3,
			"byteOffset": 0,
			"componentType": 5126,
			"count": 24,
			"max": [ 0.5, 0.5, 0.5 ],
			"min": [ -0.5, -0.5, -0.5 ],
			"type": "VEC3"
		},
		{
			"bufferView": 3,
			"byteOffset": 288,
			"componentType": 5126,
			"count": 24,
			"max": [ 1, 1, 1 ],
			"min": [ -1, -1, -1 ],
			"type": "VEC3"
		},
		{
			"bufferView": 2,
			"byteOffset": 0,
			"componentType": 5126,
			"count": 24,
			"max": [ 1, 1 ],
			"min": [ 0, 0 ],
			"type": "VEC2"
		},
		{
			"bufferView": 2,
			"byteOffset": 192,
			"componentType": 5126,
			"count": 24,
			"max": [ 0.9966581, 0.6528358 ],
			"min": [ 0.004055766, 0.004055766 ],
			"type": "VEC2"
		},
		{
			"bufferView": 4,
			"byteOffset": 0,
			"componentType": 5126,
			"count": 24,
			"max": [ 0, 0, 1, 1 ],
			"min": [ -1, 0, -1, 1 ],
			"type": "VEC4"
		},
		{
			"bufferView": 0,
			"byteOffset": 0,
			"componentType": 5123,
			"count": 36,
			"max": [ 23 ],
			"min": [ 0 ],
			"type": "SCALAR"
		},
		{
			"bufferView": 3,
			"byteOffset": 576,
			"componentType": 5126,
			"count": 5610,
			"max": [ 1.27, 1.27, 0 ],
			"min": [ -1.27, -1.27, -1.19074 ],
			"type": "VEC3"
		},
		{
			"bufferView": 3,
			"byteOffset": 67896,
			"componentType": 5126,
			"count": 5610,
			"max": [ 1, 1, 1 ],
			"min": [ -1, -1, -1 ],
			"type": "VEC3"
		},
		{
			"bufferView": 2,
			"byteOffset": 384,
			"componentType": 5126,
			"count": 5610,
			"max": [ 1, 1 ],
			"min": [ 0, 0 ],
			"type": "VEC2"
		},
		{
			"bufferView": 4,
			"byteOffset": 384,
			"componentType": 5126,
			"count": 5610,
			"max": [ 1, 1, 0.9766455, 1 ],
			"min": [ -1, -1, -0.9735702, 1 ],
			"type": "VEC4"
		},
		{
			"bufferView": 0,
			"byteOffset": 72,
			"componentType": 5123,
			"count": 31200,
			"max": [ 5609 ],
			"min": [ 0 ],
			"type": "SCALAR"
		},
		{
			"bufferView": 1,
			"byteOffset": 0,
			"componentType": 5126,
			"count": 180,
			"max": [ 5.966667 ],
			"min": [ 0 ],
			"type": "SCALAR"
		},
		{
			"bufferView": 5,
			"byteOffset": 0,
			"componentType": 5126,
			"count": 180,
			"max": [ 0, 0.279057, 0 ],
			"min": [ 0, -0.2370167, 0 ],
			"type": "VEC3"
		},
		{
			"bufferView": 6,
			"byteOffset": 0,
			"componentType": 5126,
			"count": 180,
			"max": [ -0.7071068, 0, 0, -0.7071068 ],
			"min": [ -0.7071068, 0, 0, -0.7071068 ],
			"type": "VEC4"
		},
		{
			"bufferView": 5,
			"byteOffset": 2160,
			"componentType": 5126,
			"count": 180,
			"max": [ 0.99, 0.99, 0.38976 ],
			"min": [ 0.99, 0.99, 0.38976 ],
			"type": "VEC3"
		},
		{
			"bufferView": 3,
			"byteOffset": 135216,
			"componentType": 5126,
			"count": 5610,
			"max": [ 1.27, 1.27, 0 ],
			"min": [ -1.27, -1.27, -0.635 ],
			"type": "VEC3"
		},
		{
			"bufferView": 3,
			"byteOffset": 202536,
			"componentType": 5126,
			"count": 5610,
			"max": [ 1, 1, 1 ],
			"min": [ -1, -1, -1 ],
			"type": "VEC3"
		},
		{
			"bufferView": 2,
			"byteOffset": 45264,
			"componentType": 5126,
			"count": 5610,
			"max": [ 1, 1 ],
			"min": [ 0, 0 ],
			"type": "VEC2"
		},
		{
			"bufferView": 4,
			"byteOffset": 90144,
			"componentType": 5126,
			"count": 5610,
			"max": [ 1, 1, 0.9530439, 1 ],
			"min": [ -1, -1, -0.9583593, 1 ],
			"type": "VEC4"
		},
		{
			"bufferView": 0,
			"byteOffset": 62472,
			"componentType": 5123,
			"count": 31200,
			"max": [ 5609 ],
			"min": [ 0 ],
			"type": "SCALAR"
		},
		{
			"bufferView": 1,
			"byteOffset": 720,
			"componentType": 5126,
			"count": 180,
			"max": [ 5.966667 ],
			"min": [ 0 ],
			"type": "SCALAR"
		},
		{
			"bufferView": 5,
			"byteOffset": 4320,
			"componentType": 5126,
			"count": 180,
			"max": [ 0, 0, 0 ],
			"min": [ 0, -0.184768, 0 ],
			"type": "VEC3"
		},
		{
			"bufferView": 6,
			"byteOffset": 2880,
			"componentType": 5126,
			"count": 180,
			"max": [ -0.7071068, 0, 0, -0.7071068 ],
			"min": [ -0.7071068, 0, 0, -0.7071068 ],
			"type": "VEC4"
		},
		{
			"bufferView": 5,
			"byteOffset": 6480,
			"componentType": 5126,
			"count": 180,
			"max": [ 0.99, 0.99, 0.99 ],
			"min": [ 0.99, 0.99, 0.99 ],
			"type": "VEC3"
		},
		{
			"bufferView": 3,
			"byteOffset": 269856,
			"componentType": 5126,
			"count": 5610,
			"max": [ 1.27, 1.27, 0 ],
			"min": [ -1.27, -1.27, -0.635 ],
			"type": "VEC3"
		},
		{
			"bufferView": 3,
			"byteOffset": 337176,
			"componentType": 5126,
			"count": 5610,
			"max": [ 1, 1, 1 ],
			"min": [ -1, -1, -1 ],
			"type": "VEC3"
		},
		{
			"bufferView": 2,
			"byteOffset": 90144,
			"componentType": 5126,
			"count": 5610,
			"max": [ 1, 1 ],
			"min": [ 0, 0 ],
			"type": "VEC2"
		},
		{
			"bufferView": 4,
			"byteOffset": 179904,
			"componentType": 5126,
			"count": 5610,
			"max": [ 1, 1, 0.9530439, 1 ],
			"min": [ -1, -1, -0.9583593, 1 ],
			"type": "VEC4"
		},
		{
			"bufferView": 0,
			"byteOffset": 124872,
			"componentType": 5123,
			"count": 31200,
			"max": [ 5609 ],
			"min": [ 0 ],
			"type": "SCALAR"
		},
		{
			"bufferView": 3,
			"byteOffset": 404496,
			"componentType": 5126,
			"count": 24,
			"max": [ 0.5, 0.5, 0.5 ],
			"min": [ -0.5, -0.5, -0.5 ],
			"type": "VEC3"
		},
		{
			"bufferView": 3,
			"byteOffset": 404784,
			"componentType": 5126,
			"count": 24,
			"max": [ 1, 1, 1 ],
			"min": [ -1, -1, -1 ],
			"type": "VEC3"
		},
		{
			"bufferView": 2,
			"byteOffset": 135024,
			"componentType": 5126,
			"count": 24,
			"max": [ 1, 1 ],
			"min": [ 0, 0 ],
			"type": "VEC2"
		},
		{
			"bufferView": 2,
			"byteOffset": 135216,
			"componentType": 5126,
			"count": 24,
			"max": [ 0.9966581, 0.6528358 ],
			"min": [ 0.004055766, 0.004055766 ],
			"type": "VEC2"
		},
		{
			"bufferView": 4,
			"byteOffset": 269664,
			"componentType": 5126,
			"count": 24,
			"max": [ 0, 0, 1, 1 ],
			"min": [ -1, 0, -1, 1 ],
			"type": "VEC4"
		},
		{
			"bufferView": 0,
			"byteOffset": 187272,
			"componentType": 5123,
			"count": 36,
			"max": [ 23 ],
			"min": [ 0 ],
			"type": "SCALAR"
		}
	],
	"animations": [
		{
			"name": "Box003",
			"channels": [
				{
					"sampler": 0,
					"target": {
						"node": 2,
						"path": "translation"
					}
				},
				{
					"sampler": 1,
					"target": {
						"node": 2,
						"path": "rotation"
					}
				},
				{
					"sampler": 2,
					"target": {
						"node": 2,
						"path": "scale"
					}
				}
			],
			"samplers": [
				{
					"input": 11,
					"interpolation": "LINEAR",
					"output": 12
				},
				{
					"input": 11,
					"interpolation": "LINEAR",
					"output": 13
				},
				{
					"input": 11,
					"interpolation": "LINEAR",
					"output": 14
				}
			]
		},
		{
			"name": "Box002",
			"channels": [
				{
					"sampler": 0,
					"target": {
						"node": 3,
						"path": "translation"
					}
				},
				{
					"sampler": 1,
					"target": {
						"node": 3,
						"path": "rotation"
					}
				},
				{
					"sampler": 2,
					"target": {
						"node": 3,
						"path": "scale"
					}
				}
			],
			"samplers": [
				{
					"input": 20,
					"interpolation": "LINEAR",
					"output": 21
				},
				{
					"input": 20,
					"interpolation": "LINEAR",
					"output": 22
				},
				{
					"input": 20,
					"interpolation": "LINEAR",
					"output": 23
				}
			]
		}
	],
	"buffers": [
		{
			"byteLength": 1013712,
			"uri": "分汊型河床.bin"
		}
	],
	"bufferViews": [
		{
			"buffer": 0,
			"byteLength": 187344,
			"target": 34963,
			"byteOffset": 811968
		},
		{
			"buffer": 0,
			"byteLength": 1440,
			"byteOffset": 0
		},
		{
			"buffer": 0,
			"byteLength": 135408,
			"target": 34962,
			"byteStride": 8,
			"byteOffset": 1440
		},
		{
			"buffer": 0,
			"byteLength": 405072,
			"target": 34962,
			"byteStride": 12,
			"byteOffset": 136848
		},
		{
			"buffer": 0,
			"byteLength": 270048,
			"target": 34962,
			"byteStride": 16,
			"byteOffset": 541920
		},
		{
			"buffer": 0,
			"byteLength": 8640,
			"byteStride": 12,
			"byteOffset": 999312
		},
		{
			"buffer": 0,
			"byteLength": 5760,
			"byteStride": 16,
			"byteOffset": 1007952
		}
	],
	"images": [
		{
			"uri": "/Assets/河谷流水地貌/河床地貌/Textures/Grass (Hill).jpg"
		}
	],
	"materials": [
		{
			"pbrMetallicRoughness": {
				"baseColorFactor": [0, 0.5208681, 1, 1],
				"metallicFactor": 0,
				"roughnessFactor": 0.5
			},
			"emissiveFactor": [0, 0, 0],
			"doubleSided": false,
			"name": "water_plane"
		},
		{
			"pbrMetallicRoughness": {
				"baseColorTexture" : {
					"index" : 0,
					"texCoord" : 0
				},
				"baseColorFactor": [1, 1, 1, 1],
				"metallicFactor": 0,
				"roughnessFactor": 0.5
			},
			"emissiveFactor": [0, 0, 0],
			"doubleSided": false,
			"name": "Grass (Hill)"
		}
	],
	"meshes": [
		{
			"name": "mesh_Cube_528Cube (1)",
			"primitives": [
				{
					"attributes": {
						"POSITION": 0,
						"NORMAL": 1,
						"TEXCOORD_0": 2,
						"TEXCOORD_1": 3,
						"TANGENT": 4
					},
					"indices": 5,
					"material": 0,
					"mode": 4
				}
			]
		},
		{
			"name": "mesh_Box003_12110Box003",
			"primitives": [
				{
					"attributes": {
						"POSITION": 6,
						"NORMAL": 7,
						"TEXCOORD_0": 8,
						"TANGENT": 9
					},
					"indices": 10,
					"material": 1,
					"mode": 4
				}
			]
		},
		{
			"name": "mesh_Box002_12108Box002",
			"primitives": [
				{
					"attributes": {
						"POSITION": 15,
						"NORMAL": 16,
						"TEXCOORD_0": 17,
						"TANGENT": 18
					},
					"indices": 19,
					"material": 1,
					"mode": 4
				}
			]
		},
		{
			"name": "mesh_Box001_12106Box001",
			"primitives": [
				{
					"attributes": {
						"POSITION": 24,
						"NORMAL": 25,
						"TEXCOORD_0": 26,
						"TANGENT": 27
					},
					"indices": 28,
					"material": 1,
					"mode": 4
				}
			]
		},
		{
			"name": "mesh_Cube_528Cube",
			"primitives": [
				{
					"attributes": {
						"POSITION": 29,
						"NORMAL": 30,
						"TEXCOORD_0": 31,
						"TEXCOORD_1": 32,
						"TANGENT": 33
					},
					"indices": 34,
					"material": 1,
					"mode": 4
				}
			]
		}
	],
	"nodes": [
		{
			"name": "UnityGlTF_root",
			"children": [
				6
			]
		},
		{
			"name": "node_Cube (1)_-38548",
			"mesh": 0,
			"translation": [ 0, 0.248, 0.001],
			"scale": [ 2.47429, 0.5705952, 2.49]
		},
		{
			"name": "node_Box003_-7392",
			"mesh": 1,
			"translation": [ 0, 0.31, 4.3311E-08],
			"scale": [ 0.99, 0.99, 0.38976],
			"rotation": [-0.7071068, 0, 0, -0.7071068]
		},
		{
			"name": "node_Box002_-7390",
			"mesh": 2,
			"scale": [ 0.99, 0.99, 0.99],
			"rotation": [-0.7071068, 0, 0, -0.7071068]
		},
		{
			"name": "node_Box001_-7388",
			"mesh": 3,
			"rotation": [-0.7071068, 0, 0, -0.7071068]
		},
		{
			"name": "node_Cube_-36082",
			"mesh": 4,
			"translation": [ 0, 0.03, 0.001],
			"scale": [ 2.548621, 0.564656, 2.535827]
		},
		{
			"name": "node_ _-7386",
			"children": [
				4,
				3,
				2,
				5,
				1
			],
			"matrix": [1, 0, 0, 0, 0, 1, 0, 0, 0, 0, 1, 0, -1.62, 0, 0, 1]
		}
	],
	"samplers": [
		{
			"magFilter": 9729,
			"minFilter": 9985,
			"wrapS": 10497,
			"wrapT": 10497
		}
	],
	"scenes": [
		{
			"name":"defaultScene",
			"nodes": [
				0
			]
		}
	],
	"scene": 0,
	"textures": [
		{
			"sampler": 0,
			"source": 0
		}
	]
}