{
	"asset": {
		"generator": "Unity 2018.3.11f1",
		"extras": {
			"exporterVersion" : "2.2.1"
		},
		"version": "2.0"
	},
	"accessors": [
		{
			"bufferView": 3,
			"byteOffset": 0,
			"componentType": 5126,
			"count": 1492,
			"max": [ 0.8135937, 0, -0.0004186047 ],
			"min": [ 0, -1.27, -0.1019535 ],
			"type": "VEC3"
		},
		{
			"bufferView": 3,
			"byteOffset": 17904,
			"componentType": 5126,
			"count": 1492,
			"max": [ 0.6997207, 0.7055453, -0.5183293 ],
			"min": [ -0.6351938, -0.7778369, -0.9999963 ],
			"type": "VEC3"
		},
		{
			"bufferView": 2,
			"byteOffset": 0,
			"componentType": 5126,
			"count": 1492,
			"max": [ 1, 0.640625 ],
			"min": [ 0, 0 ],
			"type": "VEC2"
		},
		{
			"bufferView": 4,
			"byteOffset": 0,
			"componentType": 5126,
			"count": 1492,
			"max": [ 0.02262668, -0.5720608, 0.8202112, -1 ],
			"min": [ -0.01178278, -0.9999996, -0.7490112, -1 ],
			"type": "VEC4"
		},
		{
			"bufferView": 0,
			"byteOffset": 0,
			"componentType": 5123,
			"count": 8142,
			"max": [ 1491 ],
			"min": [ 0 ],
			"type": "SCALAR"
		},
		{
			"bufferView": 3,
			"byteOffset": 35808,
			"componentType": 5126,
			"count": 121,
			"max": [ 5, 1.110223E-16, 5 ],
			"min": [ -5, -1.110223E-16, -5 ],
			"type": "VEC3"
		},
		{
			"bufferView": 3,
			"byteOffset": 37260,
			"componentType": 5126,
			"count": 121,
			"max": [ 0, 1, 0 ],
			"min": [ 0, 1, 0 ],
			"type": "VEC3"
		},
		{
			"bufferView": 2,
			"byteOffset": 11936,
			"componentType": 5126,
			"count": 121,
			"max": [ 1, 1 ],
			"min": [ 0, 0 ],
			"type": "VEC2"
		},
		{
			"bufferView": 4,
			"byteOffset": 23872,
			"componentType": 5126,
			"count": 121,
			"max": [ -1, 0, 0, 1 ],
			"min": [ -1, 0, 0, 1 ],
			"type": "VEC4"
		},
		{
			"bufferView": 0,
			"byteOffset": 16284,
			"componentType": 5123,
			"count": 600,
			"max": [ 120 ],
			"min": [ 0 ],
			"type": "SCALAR"
		},
		{
			"bufferView": 3,
			"byteOffset": 38712,
			"componentType": 5126,
			"count": 1492,
			"max": [ 0.8135937, 0, -0.0004186047 ],
			"min": [ 0, -1.27, -0.1019535 ],
			"type": "VEC3"
		},
		{
			"bufferView": 3,
			"byteOffset": 56616,
			"componentType": 5126,
			"count": 1492,
			"max": [ 0.6997207, 0.7055453, -0.5183293 ],
			"min": [ -0.6351938, -0.7778369, -0.9999963 ],
			"type": "VEC3"
		},
		{
			"bufferView": 2,
			"byteOffset": 12904,
			"componentType": 5126,
			"count": 1492,
			"max": [ 1, 0.640625 ],
			"min": [ 0, 0 ],
			"type": "VEC2"
		},
		{
			"bufferView": 4,
			"byteOffset": 25808,
			"componentType": 5126,
			"count": 1492,
			"max": [ 0.02262668, -0.5720608, 0.8202112, -1 ],
			"min": [ -0.01178278, -0.9999996, -0.7490112, -1 ],
			"type": "VEC4"
		},
		{
			"bufferView": 0,
			"byteOffset": 17484,
			"componentType": 5123,
			"count": 8142,
			"max": [ 1491 ],
			"min": [ 0 ],
			"type": "SCALAR"
		},
		{
			"bufferView": 3,
			"byteOffset": 74520,
			"componentType": 5126,
			"count": 1492,
			"max": [ 0.8135937, 0, -0.0004186047 ],
			"min": [ 0, -1.27, -0.1019535 ],
			"type": "VEC3"
		},
		{
			"bufferView": 3,
			"byteOffset": 92424,
			"componentType": 5126,
			"count": 1492,
			"max": [ 0.6997207, 0.7055453, -0.5183293 ],
			"min": [ -0.6351938, -0.7778369, -0.9999963 ],
			"type": "VEC3"
		},
		{
			"bufferView": 2,
			"byteOffset": 24840,
			"componentType": 5126,
			"count": 1492,
			"max": [ 1, 0.640625 ],
			"min": [ 0, 0 ],
			"type": "VEC2"
		},
		{
			"bufferView": 4,
			"byteOffset": 49680,
			"componentType": 5126,
			"count": 1492,
			"max": [ 0.02262668, -0.5720608, 0.8202112, -1 ],
			"min": [ -0.01178278, -0.9999996, -0.7490112, -1 ],
			"type": "VEC4"
		},
		{
			"bufferView": 0,
			"byteOffset": 33768,
			"componentType": 5123,
			"count": 8142,
			"max": [ 1491 ],
			"min": [ 0 ],
			"type": "SCALAR"
		},
		{
			"bufferView": 3,
			"byteOffset": 110328,
			"componentType": 5126,
			"count": 1089,
			"max": [ 50, 10.49694, 0 ],
			"min": [ 0, 5.8, -50 ],
			"type": "VEC3"
		},
		{
			"bufferView": 3,
			"byteOffset": 123396,
			"componentType": 5126,
			"count": 1089,
			"max": [ 0.7134718, 1, 0.6800356 ],
			"min": [ -0.6633646, 0.6308882, -0.7021173 ],
			"type": "VEC3"
		},
		{
			"bufferView": 2,
			"byteOffset": 36776,
			"componentType": 5126,
			"count": 1089,
			"max": [ 1, 1 ],
			"min": [ 0, 0 ],
			"type": "VEC2"
		},
		{
			"bufferView": 4,
			"byteOffset": 73552,
			"componentType": 5126,
			"count": 1089,
			"max": [ 0.02633068, 0.6871888, -0.709542, -1 ],
			"min": [ -0.03790967, -0.7046632, -1, -1 ],
			"type": "VEC4"
		},
		{
			"bufferView": 0,
			"byteOffset": 50052,
			"componentType": 5123,
			"count": 6144,
			"max": [ 1088 ],
			"min": [ 0 ],
			"type": "SCALAR"
		},
		{
			"bufferView": 3,
			"byteOffset": 136464,
			"componentType": 5126,
			"count": 4265,
			"max": [ 50, 2.60575, 0 ],
			"min": [ 0, 0, -50 ],
			"type": "VEC3"
		},
		{
			"bufferView": 3,
			"byteOffset": 187644,
			"componentType": 5126,
			"count": 4265,
			"max": [ 0.7072036, 1, 0.7788575 ],
			"min": [ -0.841099, 0.4876863, -0.7131978 ],
			"type": "VEC3"
		},
		{
			"bufferView": 2,
			"byteOffset": 45488,
			"componentType": 5126,
			"count": 4265,
			"max": [ 1, 1 ],
			"min": [ 0, 0 ],
			"type": "VEC2"
		},
		{
			"bufferView": 4,
			"byteOffset": 90976,
			"componentType": 5126,
			"count": 4265,
			"max": [ 0.1228582, 0.8374029, -0.5465852, -1 ],
			"min": [ -0.05600299, -0.7200602, -1, -1 ],
			"type": "VEC4"
		},
		{
			"bufferView": 0,
			"byteOffset": 62340,
			"componentType": 5123,
			"count": 24576,
			"max": [ 4264 ],
			"min": [ 0 ],
			"type": "SCALAR"
		},
		{
			"bufferView": 1,
			"byteOffset": 0,
			"componentType": 5126,
			"count": 30,
			"max": [ 0.9666667 ],
			"min": [ 0 ],
			"type": "SCALAR"
		},
		{
			"bufferView": 5,
			"byteOffset": 0,
			"componentType": 5126,
			"count": 30,
			"max": [ -17, 28.2, 18.6 ],
			"min": [ -17, 25.4, 18.6 ],
			"type": "VEC3"
		},
		{
			"bufferView": 6,
			"byteOffset": 0,
			"componentType": 5126,
			"count": 30,
			"max": [ -0.7071068, 0, 0, -0.7071068 ],
			"min": [ -0.7071068, 0, 0, -0.7071068 ],
			"type": "VEC4"
		},
		{
			"bufferView": 5,
			"byteOffset": 360,
			"componentType": 5126,
			"count": 30,
			"max": [ 40, 40.00002, 40.00002 ],
			"min": [ 40, 40.00002, 40.00002 ],
			"type": "VEC3"
		},
		{
			"bufferView": 1,
			"byteOffset": 120,
			"componentType": 5126,
			"count": 30,
			"max": [ 0.9666667 ],
			"min": [ 0 ],
			"type": "SCALAR"
		},
		{
			"bufferView": 5,
			"byteOffset": 720,
			"componentType": 5126,
			"count": 30,
			"max": [ 30.6, 28.54932, -6.031754 ],
			"min": [ 30.6, 28.54932, -6.031754 ],
			"type": "VEC3"
		},
		{
			"bufferView": 6,
			"byteOffset": 480,
			"componentType": 5126,
			"count": 30,
			"max": [ 0, 0, 0, -1 ],
			"min": [ 0, 0, 0, -1 ],
			"type": "VEC4"
		},
		{
			"bufferView": 5,
			"byteOffset": 1080,
			"componentType": 5126,
			"count": 30,
			"max": [ 0.97498, 1, 1 ],
			"min": [ 0.9260555, 1, 1 ],
			"type": "VEC3"
		},
		{
			"bufferView": 1,
			"byteOffset": 240,
			"componentType": 5126,
			"count": 30,
			"max": [ 0.9666667 ],
			"min": [ 0 ],
			"type": "SCALAR"
		},
		{
			"bufferView": 5,
			"byteOffset": 1440,
			"componentType": 5126,
			"count": 30,
			"max": [ 4.498751, 29.2, -6.431753 ],
			"min": [ 4.498751, 28.8, -6.431753 ],
			"type": "VEC3"
		},
		{
			"bufferView": 6,
			"byteOffset": 960,
			"componentType": 5126,
			"count": 30,
			"max": [ 0, -0.7071068, 0, -0.7071068 ],
			"min": [ 0, -0.7071068, 0, -0.7071068 ],
			"type": "VEC4"
		},
		{
			"bufferView": 5,
			"byteOffset": 1800,
			"componentType": 5126,
			"count": 30,
			"max": [ 5, 1, 4.927142 ],
			"min": [ 5, 1, 4.927142 ],
			"type": "VEC3"
		},
		{
			"bufferView": 1,
			"byteOffset": 360,
			"componentType": 5126,
			"count": 30,
			"max": [ 0.9666667 ],
			"min": [ 0 ],
			"type": "SCALAR"
		},
		{
			"bufferView": 5,
			"byteOffset": 2160,
			"componentType": 5126,
			"count": 30,
			"max": [ -13.8, 28.3, 12.7 ],
			"min": [ -13.8, 25.8, 12.7 ],
			"type": "VEC3"
		},
		{
			"bufferView": 6,
			"byteOffset": 1440,
			"componentType": 5126,
			"count": 30,
			"max": [ -0.7071068, 0, 0, -0.7071068 ],
			"min": [ -0.7071068, 0, 0, -0.7071068 ],
			"type": "VEC4"
		},
		{
			"bufferView": 5,
			"byteOffset": 2520,
			"componentType": 5126,
			"count": 30,
			"max": [ 24.44888, 32.355, 30 ],
			"min": [ 24.44888, 32.355, 30 ],
			"type": "VEC3"
		},
		{
			"bufferView": 1,
			"byteOffset": 480,
			"componentType": 5126,
			"count": 30,
			"max": [ 0.9666667 ],
			"min": [ 0 ],
			"type": "SCALAR"
		},
		{
			"bufferView": 5,
			"byteOffset": 2880,
			"componentType": 5126,
			"count": 30,
			"max": [ -11.2, 28.9, 6.7 ],
			"min": [ -12.9, 28.2, 6.7 ],
			"type": "VEC3"
		},
		{
			"bufferView": 6,
			"byteOffset": 1920,
			"componentType": 5126,
			"count": 30,
			"max": [ -0.7071068, 0, 0, -0.7071068 ],
			"min": [ -0.7071068, 0, 0, -0.7071068 ],
			"type": "VEC4"
		},
		{
			"bufferView": 5,
			"byteOffset": 3240,
			"componentType": 5126,
			"count": 30,
			"max": [ 14.252, 22.854, 20 ],
			"min": [ 14.252, 22.854, 20 ],
			"type": "VEC3"
		},
		{
			"bufferView": 1,
			"byteOffset": 600,
			"componentType": 5126,
			"count": 30,
			"max": [ 0.9666667 ],
			"min": [ 0 ],
			"type": "SCALAR"
		},
		{
			"bufferView": 5,
			"byteOffset": 3600,
			"componentType": 5126,
			"count": 30,
			"max": [ -19.7, 22.9, 18.6 ],
			"min": [ -19.7, 21.7032, 18.6 ],
			"type": "VEC3"
		},
		{
			"bufferView": 6,
			"byteOffset": 2400,
			"componentType": 5126,
			"count": 30,
			"max": [ 0, 0, 0, -1 ],
			"min": [ 0, 0, 0, -1 ],
			"type": "VEC4"
		},
		{
			"bufferView": 5,
			"byteOffset": 3960,
			"componentType": 5126,
			"count": 30,
			"max": [ 1, 1, 1 ],
			"min": [ 1, 1, 1 ],
			"type": "VEC3"
		}
	],
	"animations": [
		{
			"name": " 1",
			"channels": [
				{
					"sampler": 0,
					"target": {
						"node": 1,
						"path": "translation"
					}
				},
				{
					"sampler": 1,
					"target": {
						"node": 1,
						"path": "rotation"
					}
				},
				{
					"sampler": 2,
					"target": {
						"node": 1,
						"path": "scale"
					}
				},
				{
					"sampler": 3,
					"target": {
						"node": 2,
						"path": "translation"
					}
				},
				{
					"sampler": 4,
					"target": {
						"node": 2,
						"path": "rotation"
					}
				},
				{
					"sampler": 5,
					"target": {
						"node": 2,
						"path": "scale"
					}
				},
				{
					"sampler": 6,
					"target": {
						"node": 3,
						"path": "translation"
					}
				},
				{
					"sampler": 7,
					"target": {
						"node": 3,
						"path": "rotation"
					}
				},
				{
					"sampler": 8,
					"target": {
						"node": 3,
						"path": "scale"
					}
				},
				{
					"sampler": 9,
					"target": {
						"node": 4,
						"path": "translation"
					}
				},
				{
					"sampler": 10,
					"target": {
						"node": 4,
						"path": "rotation"
					}
				},
				{
					"sampler": 11,
					"target": {
						"node": 4,
						"path": "scale"
					}
				},
				{
					"sampler": 12,
					"target": {
						"node": 5,
						"path": "translation"
					}
				},
				{
					"sampler": 13,
					"target": {
						"node": 5,
						"path": "rotation"
					}
				},
				{
					"sampler": 14,
					"target": {
						"node": 5,
						"path": "scale"
					}
				},
				{
					"sampler": 15,
					"target": {
						"node": 6,
						"path": "translation"
					}
				},
				{
					"sampler": 16,
					"target": {
						"node": 6,
						"path": "rotation"
					}
				},
				{
					"sampler": 17,
					"target": {
						"node": 6,
						"path": "scale"
					}
				}
			],
			"samplers": [
				{
					"input": 30,
					"interpolation": "LINEAR",
					"output": 31
				},
				{
					"input": 30,
					"interpolation": "LINEAR",
					"output": 32
				},
				{
					"input": 30,
					"interpolation": "LINEAR",
					"output": 33
				},
				{
					"input": 34,
					"interpolation": "LINEAR",
					"output": 35
				},
				{
					"input": 34,
					"interpolation": "LINEAR",
					"output": 36
				},
				{
					"input": 34,
					"interpolation": "LINEAR",
					"output": 37
				},
				{
					"input": 38,
					"interpolation": "LINEAR",
					"output": 39
				},
				{
					"input": 38,
					"interpolation": "LINEAR",
					"output": 40
				},
				{
					"input": 38,
					"interpolation": "LINEAR",
					"output": 41
				},
				{
					"input": 42,
					"interpolation": "LINEAR",
					"output": 43
				},
				{
					"input": 42,
					"interpolation": "LINEAR",
					"output": 44
				},
				{
					"input": 42,
					"interpolation": "LINEAR",
					"output": 45
				},
				{
					"input": 46,
					"interpolation": "LINEAR",
					"output": 47
				},
				{
					"input": 46,
					"interpolation": "LINEAR",
					"output": 48
				},
				{
					"input": 46,
					"interpolation": "LINEAR",
					"output": 49
				},
				{
					"input": 50,
					"interpolation": "LINEAR",
					"output": 51
				},
				{
					"input": 50,
					"interpolation": "LINEAR",
					"output": 52
				},
				{
					"input": 50,
					"interpolation": "LINEAR",
					"output": 53
				}
			]
		}
	],
	"buffers": [
		{
			"byteLength": 597060,
			"uri": "河曲型河漫滩.bin"
		}
	],
	"bufferViews": [
		{
			"buffer": 0,
			"byteLength": 111492,
			"target": 34963,
			"byteOffset": 478368
		},
		{
			"buffer": 0,
			"byteLength": 720,
			"byteOffset": 0
		},
		{
			"buffer": 0,
			"byteLength": 79608,
			"target": 34962,
			"byteStride": 8,
			"byteOffset": 720
		},
		{
			"buffer": 0,
			"byteLength": 238824,
			"target": 34962,
			"byteStride": 12,
			"byteOffset": 80328
		},
		{
			"buffer": 0,
			"byteLength": 159216,
			"target": 34962,
			"byteStride": 16,
			"byteOffset": 319152
		},
		{
			"buffer": 0,
			"byteLength": 4320,
			"byteStride": 12,
			"byteOffset": 589860
		},
		{
			"buffer": 0,
			"byteLength": 2880,
			"byteStride": 16,
			"byteOffset": 594180
		}
	],
	"images": [
		{
			"uri": "/Assets/河曲型河漫滩/Textures/GoodDirt.jpg"
		},
		{
			"uri": "/Assets/河曲型河漫滩/Textures/Grass (Meadows).jpg"
		}
	],
	"materials": [
		{
			"pbrMetallicRoughness": {
				"baseColorTexture" : {
					"index" : 0,
					"texCoord" : 0
				},
				"baseColorFactor": [1, 1, 1, 1],
				"metallicFactor": 0,
				"roughnessFactor": 0.5
			},
			"emissiveFactor": [0, 0, 0],
			"doubleSided": false,
			"name": ""
		},
		{
			"extensions": {
				"KHR_materials_pbrSpecularGlossiness": {
				}

			},
			"emissiveFactor": [0, 0, 0],
			"doubleSided": false,
			"name": "RAM_River_Material_Linear_Realistic Simple_Sea"
		},
		{
			"pbrMetallicRoughness": {
				"baseColorTexture" : {
					"index" : 1,
					"texCoord" : 0
				},
				"baseColorFactor": [0.9528302, 0.9528302, 0.9528302, 1],
				"metallicFactor": 0,
				"roughnessFactor": 0.5
			},
			"emissiveFactor": [0, 0, 0],
			"doubleSided": false,
			"name": "111"
		}
	],
	"meshes": [
		{
			"name": "mesh_default_10592",
			"primitives": [
				{
					"attributes": {
						"POSITION": 0,
						"NORMAL": 1,
						"TEXCOORD_0": 2,
						"TANGENT": 3
					},
					"indices": 4,
					"material": 0,
					"mode": 4
				}
			]
		},
		{
			"name": "mesh_Plane_590Sea Example",
			"primitives": [
				{
					"attributes": {
						"POSITION": 5,
						"NORMAL": 6,
						"TEXCOORD_0": 7,
						"TANGENT": 8
					},
					"indices": 9,
					"material": 1,
					"mode": 4
				}
			]
		},
		{
			"name": "mesh_default_10592 (1)",
			"primitives": [
				{
					"attributes": {
						"POSITION": 10,
						"NORMAL": 11,
						"TEXCOORD_0": 12,
						"TANGENT": 13
					},
					"indices": 14,
					"material": 0,
					"mode": 4
				}
			]
		},
		{
			"name": "mesh_default_10592 (2)",
			"primitives": [
				{
					"attributes": {
						"POSITION": 15,
						"NORMAL": 16,
						"TEXCOORD_0": 17,
						"TANGENT": 18
					},
					"indices": 19,
					"material": 0,
					"mode": 4
				}
			]
		},
		{
			"name": "mesh_default_11216default",
			"primitives": [
				{
					"attributes": {
						"POSITION": 20,
						"NORMAL": 21,
						"TEXCOORD_0": 22,
						"TANGENT": 23
					},
					"indices": 24,
					"material": 2,
					"mode": 4
				}
			]
		},
		{
			"name": "mesh_default_10406default",
			"primitives": [
				{
					"attributes": {
						"POSITION": 25,
						"NORMAL": 26,
						"TEXCOORD_0": 27,
						"TANGENT": 28
					},
					"indices": 29,
					"material": 2,
					"mode": 4
				}
			]
		}
	],
	"nodes": [
		{
			"name": "UnityGlTF_root",
			"children": [
				9
			]
		},
		{
			"name": "node__-1226",
			"mesh": 0,
			"translation": [ -17, 25.4, 18.6],
			"scale": [ 40, 40.00002, 40.00002],
			"rotation": [-0.7071068, 0, 0, -0.7071068]
		},
		{
			"name": "node_Terrain (2)_-1228",
			"children": [
				8
			],
			"translation": [ 30.6, 28.54932, -6.031754],
			"scale": [ 0.97498, 1, 1]
		},
		{
			"name": "node_Sea Example_-1230",
			"mesh": 1,
			"translation": [ 4.498751, 28.8, -6.431753],
			"scale": [ 5, 1, 4.927142],
			"rotation": [0, -0.7071068, 0, -0.7071068]
		},
		{
			"name": "node_ (1)_-1232",
			"mesh": 2,
			"translation": [ -13.8, 25.8, 12.7],
			"scale": [ 24.44888, 32.355, 30],
			"rotation": [-0.7071068, 0, 0, -0.7071068]
		},
		{
			"name": "node_ (2)_-1234",
			"mesh": 3,
			"translation": [ -12.9, 28.2, 6.7],
			"scale": [ 14.252, 22.854, 20],
			"rotation": [-0.7071068, 0, 0, -0.7071068]
		},
		{
			"name": "node__-1236",
			"children": [
				7
			],
			"translation": [ -19.7, 22.9, 18.6]
		},
		{
			"name": "node_default_-1240",
			"mesh": 4
		},
		{
			"name": "node_default_-1256",
			"mesh": 5,
			"translation": [ -50, 0.2, 24.2]
		},
		{
			"name": "node_ 1_-1220",
			"children": [
				1,
				2,
				3,
				4,
				5,
				6
			],
			"matrix": [1, 0, 0, 0, 0, 1, 0, 0, 0, 0, 1, 0, 0.9945181, -0.7009757, -0.2657614, 1]
		}
	],
	"samplers": [
		{
			"magFilter": 9729,
			"minFilter": 9985,
			"wrapS": 10497,
			"wrapT": 10497
		}
	],
	"scenes": [
		{
			"name":"defaultScene",
			"nodes": [
				0
			]
		}
	],
	"scene": 0,
	"textures": [
		{
			"sampler": 0,
			"source": 0
		},
		{
			"sampler": 0,
			"source": 1
		}
	]
}